<svg width="203" height="73" viewBox="0 0 203 73" xmlns="http://www.w3.org/2000/svg"><title>displayblock-logo</title><g fill="#FFF" fill-rule="evenodd"><path d="M90.184 33.124l-.088-1.236c-1.537 1.06-2.987 1.678-5.359 1.678-7.028 0-10.761-5.256-10.761-11.439s3.733-11.439 10.761-11.439c2.24 0 3.733.53 5.139 1.457V0h5.446v33.124h-5.138zM79.555 22.128c0 4.107 2.02 6.934 5.534 6.934s5.051-2.827 5.051-6.934-1.537-6.934-5.051-6.934c-3.513-.001-5.534 2.826-5.534 6.934zM99.055 7.685V2.209h5.446v5.476h-5.446zM99.055 33.124V11.042h5.446v22.083h-5.446zM108.134 31.932l.483-4.682c1.361 1.06 4.304 2.208 6.764 2.208 2.635 0 3.338-1.325 3.338-2.429 0-1.855-1.889-2.473-4.041-3.136-3.075-.928-6.325-1.943-6.325-6.183 0-3.092 1.845-7.022 8.038-7.022 2.855 0 5.71.839 6.896 1.634l-.483 4.681c-1.098-1.104-3.646-2.385-6.017-2.385-1.889 0-3.646.663-3.646 2.429 0 2.12 2.24 2.473 5.007 3.268 2.943.839 6.017 2.208 6.017 6.757 0 2.694-1.098 6.492-8.609 6.492-3.424.002-6.148-.792-7.422-1.632zM133.079 32.065v11.748h-5.446V11.042h4.744l.439 1.281c1.493-1.016 2.987-1.634 5.403-1.634 7.028 0 10.761 5.256 10.761 11.439s-3.733 11.439-10.761 11.439c-2.285-.001-3.69-.531-5.14-1.502zm-.263-9.937c0 4.107 1.537 6.934 5.051 6.934 3.514 0 5.534-2.827 5.534-6.934s-2.021-6.934-5.534-6.934c-3.514-.001-5.051 2.826-5.051 6.934zM189.252 43.813h-5.447l4.876-12.146-9.136-20.625h6.061l5.622 14.221 5.71-14.221H203zM79.944 71.322l-.088 1.237h-5.095V39.434h5.447V51.58c1.405-.927 2.855-1.458 5.139-1.458 7.028 0 10.761 5.256 10.761 11.439C96.107 67.744 92.374 73 85.347 73c-2.416 0-3.865-.618-5.403-1.678zm0-9.761c0 4.108 1.537 6.934 5.051 6.934 3.514 0 5.534-2.826 5.534-6.934 0-4.108-2.02-6.934-5.534-6.934s-5.051 2.827-5.051 6.934zM107.3 61.561c0-6.183 4.085-11.439 11.112-11.439s11.112 5.256 11.112 11.439S125.439 73 118.412 73 107.3 67.744 107.3 61.561zm5.579 0c0 4.108 2.02 6.934 5.534 6.934s5.535-2.826 5.535-6.934c0-4.108-2.021-6.934-5.535-6.934-3.514 0-5.534 2.827-5.534 6.934zM131.709 61.561c0-6.183 3.646-11.439 10.673-11.439 3.514 0 5.183.751 6.588 1.634l-.483 4.682c-1.801-1.193-3.558-1.811-5.666-1.811-3.514 0-5.534 2.826-5.534 6.934 0 4.108 2.02 6.934 5.534 6.934 2.108 0 3.865-.618 5.666-1.811l.483 4.681c-1.405.883-3.074 1.634-6.588 1.634-7.027.001-10.673-5.255-10.673-11.438zM152.49 72.559V39.434h5.446V59.53l6.984-9.054h6.149l-8.038 10.599 8.038 11.484h-6.149l-6.984-9.805v9.805zM42.413 72.658H18.864v-5.589h23.549zM0 0v61.48h61.141V0H0zm55.583 55.891H5.558V5.589h50.025v50.302z"/><path d="M23.458 23.614h-8.535v-8.583h8.535v8.583zm0 20.026h-8.535v-8.583h8.535v8.583zM46.219 23.614h-8.535v-8.583h8.535v8.583zm0 20.017l-7.113 5.183-1.423-2.314 2.268-2.199-2.268-.67v-8.627h8.535v8.627h.001zM104.501 72.52h-5.446V39.434h5.446zM157.937 33.326h-5.446V.241h5.446zM178.568 19.388c-.057-6.27-3.075-8.699-7.948-8.699-2.723 0-5.359.663-7.994 1.943l.483 4.461c2.328-1.148 4.041-1.678 6.017-1.678 2.811 0 3.821 1.104 3.953 3.622-4.129.133-12.343 1.678-12.343 7.906 0 4.195 2.855 6.625 6.369 6.625 2.255 0 4.508-.681 6.02-1.901l.392 1.875h5.054l-.003-14.154zm-5.444 8.393c-1.142 1.104-2.767 1.59-3.733 1.59-2.064 0-2.943-.839-2.943-2.65 0-2.605 3.602-3.842 6.676-3.975v5.035z"/></g></svg>