<?xml version="1.0" encoding="UTF-8"?>
<svg width="1154px" height="701px" viewBox="0 0 1154 701" version="1.1" xmlns="http://www.w3.org/2000/svg" xmlns:xlink="http://www.w3.org/1999/xlink">
    <!-- Generator: Sketch 48.2 (47327) - http://www.bohemiancoding.com/sketch -->
    <title>home-bg</title>
    <desc>Created with Sketch.</desc>
    <defs></defs>
    <g id="bg" stroke="none" stroke-width="1" fill="none" fill-rule="evenodd">
        <g id="home-bg" transform="translate(581.666101, 347.297688) rotate(78.000000) translate(-581.666101, -347.297688) translate(323.666101, -200.702312)">
            <rect id="Rectangle" fill="#FCF1B0" x="0" y="95" width="43" height="190"></rect>
            <rect id="Rectangle-Copy-15" fill="#C3CE75" x="0" y="285" width="43" height="190"></rect>
            <rect id="Rectangle-Copy-31" fill="#2BDFBE" x="0" y="475" width="43" height="190"></rect>
            <rect id="Rectangle-Copy-47" fill="#48BEEE" x="0" y="665" width="43" height="190"></rect>
            <rect id="Rectangle-Copy-57" fill="#1DA9E4" x="0" y="855" width="43" height="190"></rect>
            <rect id="Rectangle-Copy" fill="#FDDD62" x="43" y="146" width="43" height="190"></rect>
            <rect id="Rectangle-Copy-16" fill="#ACCD8D" x="43" y="336" width="43" height="190"></rect>
            <rect id="Rectangle-Copy-32" fill="#31DEC0" x="43" y="526" width="43" height="190"></rect>
            <rect id="Rectangle-Copy-44" fill="#61C7F0" x="43" y="716" width="43" height="190"></rect>
            <rect id="Rectangle-Copy-56" fill="#23B1EC" x="43" y="906" width="43" height="190"></rect>
            <rect id="Rectangle-Copy-17" fill="#ABCD8E" x="86" y="319" width="43" height="190"></rect>
            <rect id="Rectangle-Copy-33" fill="#5DDCD6" x="86" y="509" width="43" height="190"></rect>
            <rect id="Rectangle-Copy-45" fill="#4EBFEE" x="86" y="699" width="43" height="190"></rect>
            <rect id="Rectangle-Copy-55" fill="#33B7EE" x="86" y="889" width="43" height="190"></rect>
            <rect id="Rectangle-Copy-46" fill="#6ADCDC" x="129" y="665" width="43" height="190"></rect>
            <rect id="Rectangle-Copy-54" fill="#36B7ED" x="129" y="855" width="43" height="190"></rect>
            <rect id="Rectangle-Copy-18" fill="#AFCD8A" x="129" y="285" width="43" height="190"></rect>
            <rect id="Rectangle-Copy-34" fill="#44D8BB" x="129" y="475" width="43" height="190"></rect>
            <rect id="Rectangle-Copy-19" fill="#7CCBB8" x="172" y="380" width="43" height="190"></rect>
            <rect id="Rectangle-Copy-35" fill="#5CDCD6" x="172" y="570" width="43" height="190"></rect>
            <rect id="Rectangle-Copy-48" fill="#75CDF1" x="172" y="760" width="43" height="190"></rect>
            <rect id="Rectangle-Copy-20" fill="#B2CD86" x="215" y="319" width="43" height="190"></rect>
            <rect id="Rectangle-Copy-36" fill="#7FDBE7" x="215" y="509" width="43" height="190"></rect>
            <rect id="Rectangle-Copy-49" fill="#69DBDC" x="215" y="699" width="43" height="190"></rect>
            <rect id="Rectangle-Copy-21" fill="#68D0B9" x="258" y="429" width="43" height="190"></rect>
            <rect id="Rectangle-Copy-37" fill="#4BDDCD" x="258" y="619" width="43" height="190"></rect>
            <rect id="Rectangle-Copy-50" fill="#77CDF1" x="258" y="809" width="43" height="190"></rect>
            <rect id="Rectangle-Copy-22" fill="#E4D054" x="301" y="307" width="43" height="190"></rect>
            <rect id="Rectangle-Copy-23" fill="#44DECA" x="301" y="497" width="43" height="190"></rect>
            <rect id="Rectangle-Copy-38" fill="#7BCFF1" x="344" y="819" width="43" height="190"></rect>
            <rect id="Rectangle-Copy-51" fill="#1DAAE6" x="387" y="760" width="43" height="190"></rect>
            <rect id="Rectangle-Copy-52" fill="#3FBBEE" x="301" y="877" width="43" height="190"></rect>
            <rect id="Rectangle-Copy-53" fill="#7BCFF2" x="215" y="889" width="43" height="190"></rect>
            <rect id="Rectangle-Copy-39" fill="#72CCF1" x="387" y="570" width="43" height="190"></rect>
            <rect id="Rectangle-Copy-42" fill="#69DCDC" x="430" y="665" width="43" height="190"></rect>
            <rect id="Rectangle-Copy-58" fill="#49BEEF" x="430" y="855" width="43" height="190"></rect>
            <rect id="Rectangle-Copy-43" fill="#98D9F3" x="473" y="653" width="43" height="190"></rect>
            <rect id="Rectangle-Copy-59" fill="#61C6F0" x="473" y="843" width="43" height="190"></rect>
            <rect id="Rectangle-Copy-41" fill="#8BD4F2" x="301" y="687" width="43" height="190"></rect>
            <rect id="Rectangle-Copy-40" fill="#7BDBE5" x="344" y="629" width="43" height="190"></rect>
            <rect id="Rectangle-Copy-24" fill="#67D0B9" x="344" y="439" width="43" height="190"></rect>
            <rect id="Rectangle-Copy-25" fill="#72CEB9" x="387" y="380" width="43" height="190"></rect>
            <rect id="Rectangle-Copy-26" fill="#FDF8D7" x="387" y="0" width="43" height="190"></rect>
            <rect id="Rectangle-Copy-27" fill="#FBEEA2" x="172" y="0" width="43" height="190"></rect>
            <rect id="Rectangle-Copy-2" fill="#FBEEA0" x="86" y="129" width="43" height="190"></rect>
            <rect id="Rectangle-Copy-3" fill="#FDE377" x="129" y="95" width="43" height="190"></rect>
            <rect id="Rectangle-Copy-4" fill="#FED953" x="172" y="190" width="43" height="190"></rect>
            <rect id="Rectangle-Copy-5" fill="#FCE990" x="215" y="129" width="43" height="190"></rect>
            <rect id="Rectangle-Copy-6" fill="#EAD14F" x="258" y="239" width="43" height="190"></rect>
            <rect id="Rectangle-Copy-7" fill="#FDE683" x="301" y="117" width="43" height="190"></rect>
            <rect id="Rectangle-Copy-8" fill="#FDE275" x="258" y="49" width="43" height="190"></rect>
            <rect id="Rectangle-Copy-9" fill="#FCE275" x="344" y="59" width="43" height="190"></rect>
            <rect id="Rectangle-Copy-10" fill="#A1CC98" x="344" y="249" width="43" height="190"></rect>
            <rect id="Rectangle-Copy-11" fill="#FFD440" x="387" y="190" width="43" height="190"></rect>
            <rect id="Rectangle-Copy-12" fill="#F8D241" x="430" y="285" width="43" height="190"></rect>
            <rect id="Rectangle-Copy-13" fill="#FCF2BB" x="430" y="95" width="43" height="190"></rect>
            <rect id="Rectangle-Copy-28" fill="#99CCA1" x="473" y="273" width="43" height="190"></rect>
            <rect id="Rectangle-Copy-30" fill="#53D5BA" x="473" y="463" width="43" height="190"></rect>
            <rect id="Rectangle-Copy-29" fill="#3FDABB" x="430" y="475" width="43" height="190"></rect>
            <rect id="Rectangle-Copy-14" fill="#FBEEA3" x="473" y="83" width="43" height="190"></rect>
        </g>
    </g>
</svg>