<?xml version="1.0" encoding="UTF-8"?>
<svg width="264px" height="330px" viewBox="0 0 264 330" version="1.1" xmlns="http://www.w3.org/2000/svg" xmlns:xlink="http://www.w3.org/1999/xlink">
    <!-- Generator: Sketch 48.2 (47327) - http://www.bohemiancoding.com/sketch -->
    <title>process-multiple-solutions</title>
    <desc>Created with Sketch.</desc>
    <defs>
        <rect id="path-1" x="9" y="108" width="116.003906" height="153.797004" rx="8"></rect>
        <rect id="path-2" x="168" y="13.9828654" width="69" height="91.5381383" rx="8"></rect>
        <rect id="path-3" x="175.886801" y="129" width="61.6703518" height="76"></rect>
        <rect id="path-4" x="151" y="229" width="101" height="71"></rect>
        <rect id="path-5" x="143" y="229" width="116" height="14"></rect>
        <rect id="path-6" x="237" y="248" width="6" height="45"></rect>
        <rect id="path-7" x="201" y="248" width="38" height="6"></rect>
        <rect id="path-8" x="216" y="257" width="23" height="6"></rect>
        <rect id="path-9" x="210" y="267" width="29" height="6"></rect>
        <rect id="path-10" x="224" y="277" width="15" height="6"></rect>
        <rect id="path-11" x="205" y="287" width="34" height="6"></rect>
        <rect id="path-12" x="161" y="290" width="29" height="2"></rect>
        <rect id="path-13" x="161" y="282" width="18" height="2"></rect>
        <rect id="path-14" x="161" y="275" width="12" height="2"></rect>
        <path d="M139.745117,303.5 C139.745117,300.176758 143,298 143,298 L259,298 C259,298 262.441406,300.522461 262.441406,303.5 C262.441406,306.477539 259,309 259,309 L143,309 C143,309 139.745117,306.823242 139.745117,303.5 Z" id="path-15"></path>
        <rect id="path-16" x="181" y="135" width="51.588785" height="52"></rect>
        <rect id="path-17" x="9.44433594" y="122" width="116" height="112"></rect>
        <rect id="path-18" x="15" y="84.724" width="31.4290326" height="16.8079254"></rect>
        <rect id="path-19" x="214" y="146" width="10.8990391" height="4.3943662"></rect>
        <rect id="path-20" x="189" y="167" width="10.8990391" height="4.3943662"></rect>
        <rect id="path-21" x="189" y="174" width="10.8990391" height="4.3943662"></rect>
        <path d="M219.421338,170.559308 L223.515853,167 L226.889202,170.880595 L223.340069,173.965809 L226.842675,177.010578 L223.56238,180.784126 L219.529436,177.278342 L215.373349,180.891173 L212,177.010578 L215.610705,173.87184 L212.046527,170.773548 L215.326822,167 L219.421338,170.559308 Z" id="path-22"></path>
        <path d="M193.264274,8.93466731 C193.708394,4.21754684 197.850368,0.521003777 202.894382,0.521003777 C207.938397,0.521003777 212.08037,4.21754684 212.524491,8.93466731 L220.972195,8.93466731 L220.972195,22.396529 L183.975741,22.396529 L183.975741,8.93466731 L193.264274,8.93466731 Z M202.894382,13.1414991 C204.984078,13.1414991 206.67811,11.4463826 206.67811,9.35535049 C206.67811,7.26431836 204.984078,5.5692019 202.894382,5.5692019 C200.804687,5.5692019 199.110654,7.26431836 199.110654,9.35535049 C199.110654,11.4463826 200.804687,13.1414991 202.894382,13.1414991 Z" id="path-23"></path>
        <rect id="path-24" x="0.925757156" y="36" width="71.0742428" height="46"></rect>
    </defs>
    <g id="Desktop-HD" stroke="none" stroke-width="1" fill="none" fill-rule="evenodd" transform="translate(-167.000000, -1482.000000)">
        <g id="process-multiple-solutions" transform="translate(168.000000, 1482.000000)">
            <g id="Rectangle-5">
                <use fill="#6DD8FE" fill-rule="evenodd" xlink:href="#path-1"></use>
                <rect stroke="#21B2EE" stroke-width="2" x="10" y="109" width="114.003906" height="151.797004" rx="8"></rect>
            </g>
            <g id="Rectangle-5">
                <use fill="#6DD8FE" fill-rule="evenodd" xlink:href="#path-2"></use>
                <rect stroke="#21B2EE" stroke-width="2" x="169" y="14.9828654" width="67" height="89.5381383" rx="8"></rect>
            </g>
            <path d="M183.134913,67.8303121 C180.813029,67.8303121 178.93077,65.9468493 178.93077,63.6234803 C178.93077,61.3001113 180.813029,59.4166485 183.134913,59.4166485 C185.456797,59.4166485 187.339055,61.3001113 187.339055,63.6234803 C187.339055,65.9468493 185.456797,67.8303121 183.134913,67.8303121" id="Oval-21" stroke="#1DAFEC" stroke-width="2" fill="#3CC8FC"></path>
            <path d="M207.518939,94.7540354 C205.197055,94.7540354 203.314796,92.8705726 203.314796,90.5472036 C203.314796,88.2238346 205.197055,86.3403718 207.518939,86.3403718 C209.840823,86.3403718 211.723081,88.2238346 211.723081,90.5472036 C211.723081,92.8705726 209.840823,94.7540354 207.518939,94.7540354" id="Oval-21" stroke="#1DAFEC" stroke-width="2" fill="#3CC8FC"></path>
            <path d="M141.5,112.724 C139.567003,112.724 138,111.156997 138,109.224 C138,107.291003 139.567003,105.724 141.5,105.724 C143.432997,105.724 145,107.291003 145,109.224 C145,111.156997 143.432997,112.724 141.5,112.724" id="Oval-21" stroke="#1DAFEC" stroke-width="2" fill="#3CC8FC"></path>
            <path d="M134.5,268 C132.567003,268 131,266.432997 131,264.5 C131,262.567003 132.567003,261 134.5,261 C136.432997,261 138,262.567003 138,264.5 C138,266.432997 136.432997,268 134.5,268" id="Oval-21" stroke="#1DAFEC" stroke-width="2" fill="#3CC8FC"></path>
            <path d="M67,253 C64.2385763,253 62,250.761424 62,248 C62,245.238576 64.2385763,243 67,243 C69.7614237,243 72,245.238576 72,248 C72,250.761424 69.7614237,253 67,253" id="Oval-21" stroke="#1DAFEC" stroke-width="2" fill="#3CC8FC"></path>
            <path d="M218.449709,67.8303121 C216.127825,67.8303121 214.245567,65.9468493 214.245567,63.6234803 C214.245567,61.3001113 216.127825,59.4166485 218.449709,59.4166485 C220.771593,59.4166485 222.653852,61.3001113 222.653852,63.6234803 C222.653852,65.9468493 220.771593,67.8303121 218.449709,67.8303121" id="Oval-21" stroke="#1DAFEC" stroke-width="2" fill="#3CC8FC"></path>
            <g id="Rectangle-6">
                <use fill="#6DD8FE" fill-rule="evenodd" xlink:href="#path-3"></use>
                <rect stroke="#21B2EE" stroke-width="2" x="176.886801" y="130" width="59.6703518" height="74"></rect>
            </g>
            <g id="Rectangle-6">
                <use fill="#A8E4F9" fill-rule="evenodd" xlink:href="#path-4"></use>
                <rect stroke="#21B2EE" stroke-width="2" x="152" y="230" width="99" height="69"></rect>
            </g>
            <g id="Rectangle-6">
                <use fill="#6DD8FE" fill-rule="evenodd" xlink:href="#path-5"></use>
                <rect stroke="#21B2EE" stroke-width="2" x="144" y="230" width="114" height="12"></rect>
            </g>
            <g id="Rectangle-6">
                <use fill="#6DD8FE" fill-rule="evenodd" xlink:href="#path-6"></use>
                <rect stroke="#21B2EE" stroke-width="2" x="238" y="249" width="4" height="43"></rect>
            </g>
            <g id="Rectangle-6">
                <use fill="#CCF2FF" fill-rule="evenodd" xlink:href="#path-7"></use>
                <rect stroke="#21B2EE" stroke-width="2" x="202" y="249" width="36" height="4"></rect>
            </g>
            <g id="Rectangle-6">
                <use fill="#CCF2FF" fill-rule="evenodd" xlink:href="#path-8"></use>
                <rect stroke="#21B2EE" stroke-width="2" x="217" y="258" width="21" height="4"></rect>
            </g>
            <g id="Rectangle-6">
                <use fill="#CCF2FF" fill-rule="evenodd" xlink:href="#path-9"></use>
                <rect stroke="#21B2EE" stroke-width="2" x="211" y="268" width="27" height="4"></rect>
            </g>
            <g id="Rectangle-6">
                <use fill="#CCF2FF" fill-rule="evenodd" xlink:href="#path-10"></use>
                <rect stroke="#21B2EE" stroke-width="2" x="225" y="278" width="13" height="4"></rect>
            </g>
            <g id="Rectangle-6">
                <use fill="#CCF2FF" fill-rule="evenodd" xlink:href="#path-11"></use>
                <rect stroke="#21B2EE" stroke-width="2" x="206" y="288" width="32" height="4"></rect>
            </g>
            <g id="Rectangle-6">
                <use fill="#21B2EE" fill-rule="evenodd" xlink:href="#path-12"></use>
                <rect stroke="#21B2EE" stroke-width="2" x="162" y="291" width="27" height="1"></rect>
            </g>
            <g id="Rectangle-6">
                <use fill="#21B2EE" fill-rule="evenodd" xlink:href="#path-13"></use>
                <rect stroke="#21B2EE" stroke-width="2" x="162" y="283" width="16" height="1"></rect>
            </g>
            <text id="£" font-family="FreightSansProBold-Regular, FreightSans Pro" font-size="16" font-weight="bold" letter-spacing="0.839999974" fill="#21B2EE">
                <tspan x="163" y="261">£</tspan>
            </text>
            <g id="Rectangle-6">
                <use fill="#21B2EE" fill-rule="evenodd" xlink:href="#path-14"></use>
                <rect stroke="#21B2EE" stroke-width="2" x="162" y="276" width="10" height="1"></rect>
            </g>
            <g id="Rectangle-6">
                <use fill="#6DD8FE" fill-rule="evenodd" xlink:href="#path-15"></use>
                <path stroke="#21B2EE" stroke-width="2" d="M143.328425,308 L258.653103,308 C258.719462,307.944918 258.795027,307.880611 258.878289,307.807576 C259.248041,307.483238 259.61834,307.115703 259.961747,306.715436 C260.896287,305.626156 261.441406,304.519133 261.441406,303.5 C261.441406,302.480867 260.896287,301.373844 259.961747,300.284564 C259.61834,299.884297 259.248041,299.516762 258.878289,299.192424 C258.795027,299.119389 258.719462,299.055082 258.653103,299 L143.328425,299 C143.270952,299.045244 143.20579,299.098039 143.134138,299.158151 C142.793785,299.443685 142.452322,299.776633 142.135256,300.150539 C141.258539,301.184424 140.745117,302.314091 140.745117,303.5 C140.745117,304.685909 141.258539,305.815576 142.135256,306.849461 C142.452322,307.223367 142.793785,307.556315 143.134138,307.841849 C143.20579,307.901961 143.270952,307.954756 143.328425,308 Z"></path>
            </g>
            <path d="M206.5,198.84762 C204.567003,198.84762 203,197.280617 203,195.34762 C203,193.414624 204.567003,191.84762 206.5,191.84762 C208.432997,191.84762 210,193.414624 210,195.34762 C210,197.280617 208.432997,198.84762 206.5,198.84762" id="Oval-21" stroke="#1DAFEC" stroke-width="2" fill="#3CC8FC"></path>
            <path d="M199.5,329 C197.567003,329 196,327.432997 196,325.5 C196,323.567003 197.567003,322 199.5,322 C201.432997,322 203,323.567003 203,325.5 C203,327.432997 201.432997,329 199.5,329" id="Oval-21" stroke="#1DAFEC" stroke-width="2"></path>
            <g id="Rectangle-6">
                <use fill="#A8E4F9" fill-rule="evenodd" xlink:href="#path-16"></use>
                <rect stroke="#21B2EE" stroke-width="2" x="182" y="136" width="49.588785" height="50"></rect>
            </g>
            <g id="Rectangle-6">
                <use fill="#A8E4F9" fill-rule="evenodd" xlink:href="#path-17"></use>
                <rect stroke="#21B2EE" stroke-width="2" x="10.4443359" y="123" width="114" height="110"></rect>
            </g>
            <g id="Group-12" transform="translate(0.000000, 10.724000)" stroke-width="2">
                <path d="M0.00284775859,30.8581129 C0.254018521,49.0191575 15.4745825,55.733389 19.1504162,59.1912275 C22.8257696,62.649066 22.0319163,75.8169438 22.0319163,75.8169438 L41.9027413,75.8169438 C41.9027413,75.8169438 41.5300673,62.7793587 44.3039914,59.1912275 C47.0783958,55.6030964 63.5269591,46.0159573 63.4515598,30.8581129 C63.3670358,13.8161069 49.2481654,0 31.7272038,0 C14.2062422,0 -0.232955003,13.817031 0.00284775859,30.8581129 Z" id="Page-1" stroke="#21B2EE" fill="#CCF2FF"></path>
                <path d="M30.1589906,77.1740229 C30.1589906,77.1740229 25.4797267,45.74851 24.5374128,45.74851 C23.595099,45.74851 18.287067,45.3140409 18.287067,46.9433667 C18.287067,48.5726925 17.6339769,51.521583 20.8793054,51.5215832 C24.1246339,51.5215834 27.7392314,51.5215832 27.7392314,51.5215832 L31.8498819,46.636596" id="Path-60" stroke="#21B2EE"></path>
                <path d="M32.9869289,73.7831476 C32.9869289,73.0208696 37.7313987,45.7444815 38.6737125,45.7444815 C39.6160264,45.7444815 44.9240584,45.3433123 44.9240584,46.8477581 C44.9240584,48.3522039 45.5771485,51.0750761 42.33182,51.0750762 C39.0864915,51.0750764 35.4718939,51.0750762 35.4718939,51.0750762 L31.3612435,46.5645" id="Path-60" stroke="#21B2EE"></path>
                <polygon id="Path-69" stroke="#21B2EE" fill="#21B2EE" points="18.2332811 90.0381744 21.7922061 97.4916551 41.077157 97.4916551 44.6346869 90.0381744"></polygon>
                <path d="M24.6743974,8.30835444 C24.6743974,8.30835444 9.29348524,9.23610228 6.5639812,28.4023855" id="Path-43" stroke="#FCFAEA"></path>
            </g>
            <g id="Rectangle-30">
                <use fill="#6DD8FE" fill-rule="evenodd" xlink:href="#path-18"></use>
                <rect stroke="#21B2EE" stroke-width="2" x="16" y="85.724" width="29.4290326" height="14.8079254"></rect>
            </g>
            <path d="M16,90.724 L45.7901325,90.724" id="Path-62" stroke="#21B2EE" stroke-width="2"></path>
            <path d="M16,94.724 L45.4192829,94.724" id="Path-63" stroke="#21B2EE" stroke-width="2"></path>
            <path d="M206.855035,135 L206.726603,185.839899" id="Path-82" stroke="#21B2EE" stroke-width="2"></path>
            <path d="M182,160 L231.350083,160" id="Path-83" stroke="#21B2EE" stroke-width="2"></path>
            <polygon id="Path-84" stroke="#21B2EE" stroke-width="2" fill="#6DD8FE" points="195.652743 142 191.908682 142.067947 191.908682 146.040686 188 146.040686 188 149.448572 191.908682 149.448572 191.908682 154.076282 195.652743 154.076282 195.652743 149.448572 199.368422 149.448572 199.368422 146.040686 195.652743 146.040686"></polygon>
            <g id="Rectangle-20">
                <use fill="#6DD8FE" fill-rule="evenodd" xlink:href="#path-19"></use>
                <rect stroke="#21B2EE" stroke-width="2" x="215" y="147" width="8.89903909" height="2.3943662"></rect>
            </g>
            <g id="Rectangle-20">
                <use fill="#6DD8FE" fill-rule="evenodd" xlink:href="#path-20"></use>
                <rect stroke="#21B2EE" stroke-width="2" x="190" y="168" width="8.89903909" height="2.3943662"></rect>
            </g>
            <g id="Rectangle-20">
                <use fill="#6DD8FE" fill-rule="evenodd" xlink:href="#path-21"></use>
                <rect stroke="#21B2EE" stroke-width="2" x="190" y="175" width="8.89903909" height="2.3943662"></rect>
            </g>
            <g id="Combined-Shape">
                <use fill="#6DD8FE" fill-rule="evenodd" xlink:href="#path-22"></use>
                <path stroke="#21B2EE" stroke-width="2" d="M215.425473,168.410769 L213.457296,170.674897 L217.134958,173.87184 L213.410769,177.109229 L215.472,179.480404 L219.529436,175.953329 L223.463729,179.373357 L225.431907,177.109229 L221.815816,173.965809 L225.478434,170.781944 L223.417202,168.410769 L219.421338,171.884321 L215.425473,168.410769 Z"></path>
            </g>
            <path d="M125,158.740772 C125,158.740772 148.455078,157.401904 148.455078,178.648975 L148.455078,192.092334 C148.455078,192.092334 147.953613,211.678269 167.447266,211.436084 C175.155613,211.340317 167.409629,211.358158 170.945034,211.414733 C176.35032,211.50123 177.738281,211.678272 177.738281,211.678272 C177.738281,211.678272 179.404473,211.678271 181.429542,212.843132 C184.566435,214.647536 188.564453,217.247018 188.564453,228.97124" id="Path-85" stroke="#21B2EE" stroke-width="2"></path>
            <path d="M124,125.285523 L186.809814,125.285523 C186.809814,125.285523 211.480225,127.162232 208.435547,104.724" id="Path-23" stroke="#21B2EE" stroke-width="2"></path>
            <g id="Combined-Shape">
                <use fill="#CCF2FF" fill-rule="evenodd" xlink:href="#path-23"></use>
                <path stroke="#21B2EE" stroke-width="2" d="M184.975741,9.93466731 L184.975741,21.396529 L219.972195,21.396529 L219.972195,9.93466731 L211.614219,9.93466731 L211.528894,9.0284035 C211.131059,4.80289745 207.398793,1.52100378 202.894382,1.52100378 C198.389971,1.52100378 194.657705,4.80289745 194.259871,9.0284035 L194.174545,9.93466731 L184.975741,9.93466731 Z M202.894382,14.1414991 C200.252259,14.1414991 198.110654,11.9985243 198.110654,9.35535049 C198.110654,6.71217671 200.252259,4.5692019 202.894382,4.5692019 C205.536506,4.5692019 207.67811,6.71217671 207.67811,9.35535049 C207.67811,11.9985243 205.536506,14.1414991 202.894382,14.1414991 Z"></path>
            </g>
            <path d="M183.975741,67.8303121 L204.931628,87.3855066" id="Path-6" stroke="#1DAFEC" stroke-width="2"></path>
            <path d="M188.179884,62.7821139 L215.302826,62.9464433" id="Path-7" stroke="#21B2EE" stroke-width="2"></path>
            <path d="M219,38.3824897 L219,58.6754366" id="Path-8" stroke="#21B2EE" stroke-width="2"></path>
            <polyline id="Path-12" stroke="#21B2EE" stroke-width="2" points="214.245567 43.5301071 219.257736 37.5411233 223.909141 43.2246599"></polyline>
            <g id="Group-7" transform="translate(184.816570, 34.175658)" stroke="#21B2EE" stroke-width="2">
                <path d="M8.33027831,0.306063444 L0.671266882,7.91930603" id="Path-14"></path>
                <path d="M8.33027831,0.306063444 L0.671266882,7.91930603" id="Path-14" transform="translate(4.500773, 4.112685) scale(-1, 1) translate(-4.500773, -4.112685) "></path>
            </g>
            <g id="Group-7" transform="translate(218.449709, 76.243976)" stroke="#21B2EE" stroke-width="2">
                <path d="M8.33027831,0.306063444 L0.671266882,7.91930603" id="Path-14"></path>
                <path d="M8.33027831,0.306063444 L0.671266882,7.91930603" id="Path-14" transform="translate(4.500773, 4.112685) scale(-1, 1) translate(-4.500773, -4.112685) "></path>
            </g>
            <g id="Group-7" transform="translate(132.000000, 192.724000)" stroke="#21B2EE" stroke-width="2">
                <path d="M6.93505859,0.254638672 L0.558837891,6.58870443" id="Path-14"></path>
                <path d="M6.93505859,0.254638672 L0.558837891,6.58870443" id="Path-14" transform="translate(3.746948, 3.421672) scale(-1, 1) translate(-3.746948, -3.421672) "></path>
            </g>
            <g id="Group-7" transform="translate(60.000000, 90.724000)" stroke="#21B2EE" stroke-width="2">
                <path d="M6.93505859,0.254638672 L0.558837891,6.58870443" id="Path-14"></path>
                <path d="M6.93505859,0.254638672 L0.558837891,6.58870443" id="Path-14" transform="translate(3.746948, 3.421672) scale(-1, 1) translate(-3.746948, -3.421672) "></path>
            </g>
            <g id="Group-7" transform="translate(221.000000, 114.724000)" stroke="#21B2EE" stroke-width="2">
                <path d="M6.93505859,0.254638672 L0.558837891,6.58870443" id="Path-14"></path>
                <path d="M6.93505859,0.254638672 L0.558837891,6.58870443" id="Path-14" transform="translate(3.746948, 3.421672) scale(-1, 1) translate(-3.746948, -3.421672) "></path>
            </g>
            <g id="Group-7" transform="translate(156.000000, 158.000000)" stroke="#21B2EE" stroke-width="2">
                <path d="M6.93505859,0.254638672 L0.558837891,6.58870443" id="Path-14"></path>
                <path d="M6.93505859,0.254638672 L0.558837891,6.58870443" id="Path-14" transform="translate(3.746948, 3.421672) scale(-1, 1) translate(-3.746948, -3.421672) "></path>
            </g>
            <path d="M125,142.724 L176.976562,142.909547" id="Path-15" stroke="#21B2EE" stroke-width="2"></path>
            <path d="M110.375977,108.94043 L110.375977,84.5341797" id="Path-102" stroke="#21B2EE" stroke-width="2"></path>
            <g id="Group-11" transform="translate(78.000000, 3.534180)">
                <path d="M2,9.16998019e-09 C3.69530321,1.03013679 35.4168458,37.2211539 35.4168458,37.2211539 L71.0840085,0" id="Path-37" stroke="#21B2EE" stroke-width="2" fill="#6DD8FE" transform="translate(36.542004, 18.610577) scale(1, -1) translate(-36.542004, -18.610577) "></path>
                <g id="Rectangle-8">
                    <use fill="#6DD8FE" fill-rule="evenodd" xlink:href="#path-24"></use>
                    <rect stroke="#21B2EE" stroke-width="2" x="1.92575716" y="37" width="69.0742428" height="44"></rect>
                </g>
                <path d="M1.92575716,80.5131189 L5.02829107,79.3871262 L36.0481832,59 L71.0097656,80.8808594" id="Path-38" stroke="#21B2EE" stroke-width="2"></path>
            </g>
            <polyline id="Path-40" stroke="#21B2EE" stroke-width="2" points="81.3925781 40.8706055 115.458496 60.7216797 150.117188 40.2670898"></polyline>
            <polygon id="Path-41" stroke="#21B2EE" stroke-width="2" fill="#CCF2FF" points="89.5429688 8.53417969 89 45.3466797 114.991211 62.0546875 138.429688 46.4433594 138.179688 8.53417969"></polygon>
            <g id="Group-10" transform="translate(32.375977, 136.724000)" stroke="#1DAFEC" stroke-width="2">
                <ellipse id="Oval-26" fill="#CCF2FF" cx="7.83328218" cy="8.36339538" rx="7.65385411" ry="7.74500786"></ellipse>
                <path d="M78.1145986,85.6183875 L78.1145986,82.2144507 C78.1145986,82.2144507 82.0539542,81.1636661 82.0539542,79.079834 C82.0539542,76.9960018 81.6098217,53.9048826 81.6098217,53.9048826 C81.6098217,53.9048826 81.1235343,49.8034668 78.6723624,49.5092773 C76.2211905,49.2150879 75.0307608,50.0536138 75.0307608,51.6120605 C75.0307608,53.1705073 74.7424308,47.7775879 71.7731925,47.7775879 C68.8039542,47.7775879 67.949462,50.1806965 67.949462,50.1806965 C67.949462,50.1806965 67.0427237,47.173584 65.0532218,47.173584 C63.0637198,47.173584 61.2822257,48.3002468 61.2822257,49.2270504 C61.2822257,50.1538539 61.2822257,38.1264649 61.2822257,38.1264649 C61.2822257,38.1264649 59.7673898,35.0197754 57.5876456,35.0197754 C55.4079014,35.0197754 54.077846,36.8385498 54.077846,38.1264649 L54.077846,65.6257005 L45.8449707,57.8483887 C45.8449707,57.8483887 43.2338867,55.9238281 41.008545,57.5444336 C38.7832032,59.1650391 37.9041925,61.5259231 40.3922288,63.5758118 C42.8802651,65.6257005 55.009909,77.5309936 55.009909,77.5309936 L55.009909,85.6183875 L78.1145986,85.6183875 Z" id="Path-134" fill="#CCF2FF"></path>
                <path d="M61.4335937,48.1191406 L61.4335937,55.7285156" id="Path-135"></path>
                <path d="M67.6975098,49.8652344 L67.6975098,55.3950637" id="Path-136"></path>
                <path d="M75,51 L75,56" id="Path-137"></path>
                <path d="M55.4321973,31.6755898 L55.4321973,10.6644718 C55.4321973,10.6644718 52.3438187,1.29833984 43.3603859,1.29833984 C34.3769531,1.29833984 31.2885742,10.6644718 31.2885742,10.6644718 L31.2885742,23.9506842" id="Path-138"></path>
                <path d="M31.5031592,27 L31.5031593,32.2709994" id="Path-139"></path>
                <path d="M31.5031592,36 L31.5031593,41.2709994" id="Path-139"></path>
                <path d="M31.5031592,44 L31.5031593,49.2709994" id="Path-139"></path>
                <path d="M31.5031592,52 L31.5031593,57.2709994" id="Path-139"></path>
                <path d="M31.1894367,59.7122666 L31.0931801,73.9699878 C31.0931801,73.9699878 29.1461899,84.3227386 19.8895011,84.3227375 C10.6328123,84.3227364 7.46803098,77.1599334 6.50327784,73.2881674 C5.5385247,69.4164014 6.51129922,23.1684624 6.51129922,23.1684624" id="Path-140"></path>
                <polyline id="Path-141" points="0.620117188 25.6482459 6.78219617 21.9816163 12.9761593 25.6482459"></polyline>
            </g>
            <path d="M97.6669922,19.8505859 L114.299805,19.9482422" id="Path-142" stroke="#21B2EE" stroke-width="2"></path>
            <path d="M97.6669922,27.8505859 L131,27.8505859" id="Path-142" stroke="#21B2EE" stroke-width="2"></path>
            <path d="M97.6669922,33.8505859 L131,33.8505859" id="Path-142" stroke="#21B2EE" stroke-width="2"></path>
            <path d="M97.6669922,39.8505859 L131,39.8505859" id="Path-142" stroke="#21B2EE" stroke-width="2"></path>
            <path d="M97.6669922,45.8505859 L131,45.8505859" id="Path-142" stroke="#21B2EE" stroke-width="2"></path>
            <path d="M100,51.8505859 L131,51.8505859" id="Path-142" stroke="#21B2EE" stroke-width="2"></path>
            <path d="M108,56.8505859 L122,56.8505859" id="Path-142" stroke="#21B2EE" stroke-width="2"></path>
            <path d="M199.609375,308.121094 L199.609375,322.126953" id="Path-5" stroke="#21B2EE" stroke-width="2"></path>
            <polygon id="Path-143" stroke="#21B2EE" stroke-width="2" fill="#A8E4F9" points="109 291.335583 127.466072 294.857007 139.733951 287.725059 127.466072 281 109 284.014545"></polygon>
            <path d="M101,295.408436 L105.505267,295.408436 C105.505267,295.408436 108.657998,294.741672 108.657998,292.369636 C108.657998,289.9976 108.841204,283.317091 108.841204,283.317091 C108.841204,283.317091 108.281232,281 105.373571,281 L101,281 L101,295.408436 Z" id="Path-144" stroke="#21B2EE" stroke-width="2" fill="#A8E4F9"></path>
            <polygon id="Path-145" stroke="#21B2EE" stroke-width="2" fill="#6DD8FE" points="52 295.357845 100.740947 294.807405 101.122493 280.610829 52.5395275 280"></polygon>
            <path d="M123,288 L139.299997,288" id="Path-146" stroke="#21B2EE" stroke-width="2"></path>
            <polyline id="Path-147" stroke="#21B2EE" stroke-width="2" points="59 280 59 288.686721 59 295.087822"></polyline>
            <path d="M65,280 L65,295.204395" id="Path-148" stroke="#21B2EE" stroke-width="2"></path>
            <path d="M71,281 L71,295.593566" id="Path-149" stroke="#21B2EE" stroke-width="2"></path>
            <path d="M50.9844247,279.639792 C50.1869135,279.366242 48.7015223,279.226963 48.7015223,279.226963 C48.7015223,279.226963 15.8407923,277.763199 12.6275236,278.033247 C9.41425499,278.303294 2,276.439314 2,287.92181 C2,299.404306 14.225396,297.755029 14.225396,297.755029 L48.4075967,296.728648 C48.4075967,296.728648 52.4867114,296.914495 52.4867114,295.164178 C52.4867114,293.413861 52.5870762,280.559723 52.5870762,280.559723 C52.5870762,280.559723 51.7819359,279.913341 50.9844247,279.639792 Z" id="Path-150" stroke="#21B2EE" stroke-width="2" fill="#6DD8FE"></path>
            <path d="M11.4550781,277.787109 C11.4550781,277.787109 14.8671736,272.403323 16.1251861,272.403323 C17.3831986,272.403323 49.6497049,272.667652 50.2991558,272.667652 C50.9486068,272.667652 52.8735942,271.962773 53.4402043,271" id="Path-151" stroke="#21B2EE" stroke-width="2"></path>
            <g id="Group-29" transform="translate(19.746970, 135.000000)">
                <path d="M1,0.5 L1,46.2636719" id="Path-112" stroke="#FFFFFF" stroke-width="2"></path>
                <g id="Group-28" transform="translate(0.000000, 1.000000)">
                    <path d="M1,48 L1,64.2636719" id="Path-112" stroke="#FFFFFF" stroke-width="2"></path>
                    <g id="Group-27" transform="translate(1.000000, 0.000000)">
                        <path d="M4.5,0.5 L0,48.2636719" id="Path-112"></path>
                    </g>
                    <path d="M1,68 L1,75.7304688" id="Path-112" stroke="#FFFFFF" stroke-width="2"></path>
                </g>
            </g>
        </g>
    </g>
</svg>