<?xml version="1.0" encoding="UTF-8"?>
<svg width="303px" height="315px" viewBox="0 0 303 315" version="1.1" xmlns="http://www.w3.org/2000/svg" xmlns:xlink="http://www.w3.org/1999/xlink">
    <!-- Generator: Sketch 48.2 (47327) - http://www.bohemiancoding.com/sketch -->
    <title>process-handcrafted-code</title>
    <desc>Created with Sketch.</desc>
    <defs>
        <rect id="path-1" x="87" y="47" width="116" height="153.797004" rx="8"></rect>
        <polygon id="path-2" points="18.6934565 127.796748 57.6178935 127.796748 70.2822415 141.727102 70.2822415 193.796748 18.6934565 193.796748"></polygon>
        <rect id="path-3" x="0.149107168" y="0" width="66.2386364" height="59"></rect>
        <rect id="path-4" x="0.149107168" y="0" width="66.2386364" height="13.7922078"></rect>
        <rect id="path-5" x="237" y="43" width="43" height="49"></rect>
        <rect id="path-6" x="245" y="49" width="27" height="11"></rect>
        <rect id="path-7" x="246" y="64" width="5" height="5"></rect>
        <rect id="path-8" x="256" y="64" width="5" height="5"></rect>
        <rect id="path-9" x="266" y="64" width="5" height="5"></rect>
        <rect id="path-10" x="246" y="72" width="5" height="5"></rect>
        <rect id="path-11" x="256" y="72" width="5" height="5"></rect>
        <rect id="path-12" x="266" y="72" width="5" height="5"></rect>
        <rect id="path-13" x="246" y="80" width="5" height="5"></rect>
        <rect id="path-14" x="256" y="80" width="5" height="5"></rect>
        <rect id="path-15" x="266" y="80" width="5" height="5"></rect>
        <rect id="path-16" x="87" y="60" width="116" height="120"></rect>
        <rect id="path-17" x="0.925757156" y="36" width="71.0742428" height="46"></rect>
        <rect id="path-18" x="25" y="29" width="52" height="85" rx="8"></rect>
        <rect id="path-19" x="25" y="40" width="52" height="61.6703518"></rect>
        <path d="M0,0 L85.7444055,0 L85.7444055,15.3856899 L0,15.3856899 L0,0 Z M77.7462566,9.82644461 C79.1040409,9.82644461 80.2047426,8.77478805 80.2047426,7.47750395 C80.2047426,6.18021984 79.1040409,5.12856329 77.7462566,5.12856329 C76.3884723,5.12856329 75.2877707,6.18021984 75.2877707,7.47750395 C75.2877707,8.77478805 76.3884723,9.82644461 77.7462566,9.82644461 Z" id="path-20"></path>
        <path d="M4.53097345,27.7103448 L10.1371897,27.7103448 L10.1371897,54.8994578 C10.1371897,54.8994578 9.28233554,56.3711342 7.33408156,56.3711342 C5.38582757,56.3711342 4.53097345,54.8994578 4.53097345,54.8994578 L4.53097345,27.7103448 Z" id="path-21"></path>
        <path d="M3.39823009,-3.37507799e-14 L11.3274336,-3.37507799e-14 L11.3274336,38.4551724 C11.3274336,38.4551724 10.1183628,40.5366514 7.36283186,40.5366514 C4.60730088,40.5366514 3.39823009,38.4551724 3.39823009,38.4551724 L3.39823009,-3.37507799e-14 Z" id="path-22"></path>
        <rect id="path-23" x="1.13274336" y="28.8413793" width="3.39823009" height="5.65517241"></rect>
        <path d="M4.53097345,27.7103448 L10.1371897,27.7103448 L10.1371897,54.8994578 C10.1371897,54.8994578 9.28233554,56.3711342 7.33408156,56.3711342 C5.38582757,56.3711342 4.53097345,54.8994578 4.53097345,54.8994578 L4.53097345,27.7103448 Z" id="path-24"></path>
        <path d="M3.39823009,2.13162821e-13 L11.3274336,2.13162821e-13 L11.3274336,38.4551724 C11.3274336,38.4551724 10.1183628,40.5366514 7.36283186,40.5366514 C4.60730088,40.5366514 3.39823009,38.4551724 3.39823009,38.4551724 L3.39823009,2.13162821e-13 Z" id="path-25"></path>
        <rect id="path-26" x="1.13274336" y="28.8413793" width="3.39823009" height="5.65517241"></rect>
        <path d="M30.0176991,1.11557112 C30.0176991,1.11557112 30.7129425,5.38978258e-16 32,0 C33.2870575,0 33.9823009,1.11557112 33.9823009,1.11557112 L33.9823009,13.5569504 L30.0176991,13.5569504 L30.0176991,1.11557112 Z" id="path-27"></path>
        <rect id="path-28" x="29" y="147" width="36" height="36"></rect>
        <rect id="path-29" x="0" y="153" width="54" height="22"></rect>
    </defs>
    <g id="Desktop-HD" stroke="none" stroke-width="1" fill="none" fill-rule="evenodd" transform="translate(-125.000000, -2502.000000)">
        <g id="process-handcrafted-code" transform="translate(125.000000, 2503.000000)">
            <g id="Rectangle-5">
                <use fill="#6DD8FE" fill-rule="evenodd" xlink:href="#path-1"></use>
                <rect stroke="#21B2EE" stroke-width="2" x="88" y="48" width="114" height="151.797004" rx="8"></rect>
            </g>
            <g id="Rectangle-42">
                <use fill="#A8E4F9" fill-rule="evenodd" xlink:href="#path-2"></use>
                <path stroke="#21B2EE" stroke-width="2" d="M19.6934565,128.796748 L19.6934565,192.796748 L69.2822415,192.796748 L69.2822415,142.113718 L57.1755328,128.796748 L19.6934565,128.796748 Z"></path>
            </g>
            <path d="M110.646484,199.519531 L110.126953,213.199219 C110.126953,213.199219 110.126953,224.316406 122.375,224.316406 L151.318359,224.316406 C151.318359,224.316406 161.197266,224.316406 161.197266,234.263672 L161.197266,268.198242" id="Path-111" stroke="#21B2EE" stroke-width="2"></path>
            <g id="Group-9" transform="translate(236.000000, 154.000000)">
                <g id="Rectangle-42">
                    <use fill="#21B2EE" fill-rule="evenodd" xlink:href="#path-3"></use>
                    <rect stroke="#21B2EE" stroke-width="2" x="1.14910717" y="1" width="64.2386364" height="57"></rect>
                </g>
                <g id="Rectangle-43">
                    <use fill="#6DD8FE" fill-rule="evenodd" xlink:href="#path-4"></use>
                    <rect stroke="#21B2EE" stroke-width="2" x="1.14910717" y="1" width="64.2386364" height="11.7922078"></rect>
                </g>
                <path d="M50.4072859,4.5974026 L50.3991072,9.56370485" id="Path-109" stroke="#21B2EE" stroke-width="2"></path>
                <path d="M55.7368313,4.5974026 L55.7286526,9.56370485" id="Path-109" stroke="#21B2EE" stroke-width="2"></path>
                <path d="M60.3050132,4.5974026 L60.2968344,9.56370485" id="Path-109" stroke="#21B2EE" stroke-width="2"></path>
                <rect id="Rectangle-50" fill="#CCF2FF" x="14.6150163" y="25.2857143" width="11.8863311" height="1.83610147"></rect>
                <rect id="Rectangle-50" fill="#CCF2FF" x="19.9445617" y="29.1168831" width="11.8863311" height="1.83610147"></rect>
                <rect id="Rectangle-50" fill="#CCF2FF" x="34.4104708" y="29.1168831" width="3.96211036" height="1.83610147"></rect>
                <rect id="Rectangle-50" fill="#CCF2FF" x="41.2627435" y="29.1168831" width="3.96211036" height="1.83610147"></rect>
                <rect id="Rectangle-50" fill="#CCF2FF" x="9.2854708" y="20.6883117" width="11.8863311" height="1.83610147"></rect>
                <rect id="Rectangle-50" fill="#CCF2FF" x="23.7513799" y="20.6883117" width="4.95263795" height="1.83610147"></rect>
                <rect id="Rectangle-50" fill="#CCF2FF" x="32.1263799" y="20.6883117" width="1.98105518" height="1.83610147"></rect>
                <rect id="Rectangle-50" fill="#CCF2FF" x="7.76274353" y="38.3116883" width="20.8010794" height="1.83610147"></rect>
                <rect id="Rectangle-50" fill="#CCF2FF" x="13.092289" y="42.9090909" width="11.8863311" height="1.83610147"></rect>
                <rect id="Rectangle-50" fill="#CCF2FF" x="19.9445617" y="46.7402597" width="11.8863311" height="1.83610147"></rect>
                <rect id="Rectangle-50" fill="#CCF2FF" x="11.5695617" y="50.5714286" width="4.95263795" height="1.83610147"></rect>
                <rect id="Rectangle-50" fill="#CCF2FF" x="34.4104708" y="46.7402597" width="11.8863311" height="1.83610147"></rect>
                <rect id="Rectangle-50" fill="#CCF2FF" x="49.6377435" y="46.7402597" width="4.95263795" height="1.83610147"></rect>
            </g>
            <circle id="Oval-18" stroke="#21B2EE" stroke-width="2" fill="#CCF2FF" cx="144.5" cy="16.5" r="16.5"></circle>
            <polyline id="Path-113" stroke="#21B2EE" stroke-width="2" points="139.823732 22 135 17 140 12"></polyline>
            <polyline id="Path-113" stroke="#21B2EE" stroke-width="2" points="149.176268 22 154 17 149 12"></polyline>
            <path d="M142,26 L147,8" id="Path-114" stroke="#21B2EE" stroke-width="2"></path>
            <polyline id="Path-118" stroke="#21B2EE" stroke-width="2" points="56.9441887 129.228218 56.9852933 142.46915 69.6751136 142.46915"></polyline>
            <path d="M69.1855469,168.753906 L87,168.753906" id="Path-119" stroke="#21B2EE" stroke-width="2"></path>
            <path d="M236.986328,202.836914 L228.830078,202.836913 C228.830078,202.836913 223.286133,202.836913 223.286133,193.870116 L223.286133,163.605469 C223.286133,163.605469 223.286133,155.789551 217.328125,154.877441 C211.370117,153.965332 203.058594,154.242188 203.058594,154.242188" id="Path-120" stroke="#21B2EE" stroke-width="2"></path>
            <path d="M241.008301,105.634232 L229.869141,105.634232 C229.869141,105.634232 222.227539,105.634232 222.227539,96.667435 L222.227539,86.5131388 L222.227539,66.4027875 C222.227539,66.4027875 222.227539,58.5868693 216.269531,57.6747599 C210.311523,56.7626506 202,57.039506 202,57.039506" id="Path-120" stroke="#21B2EE" stroke-width="2" transform="translate(221.504150, 81.317116) scale(1, -1) translate(-221.504150, -81.317116) "></path>
            <g id="Rectangle-26">
                <use fill="#6DD8FE" fill-rule="evenodd" xlink:href="#path-5"></use>
                <rect stroke="#21B2EE" stroke-width="2" x="238" y="44" width="41" height="47"></rect>
            </g>
            <g id="Rectangle-27">
                <use fill="#A8E4F9" fill-rule="evenodd" xlink:href="#path-6"></use>
                <rect stroke="#21B2EE" stroke-width="2" x="246" y="50" width="25" height="9"></rect>
            </g>
            <g id="Rectangle-29">
                <use fill="#6DD8FE" fill-rule="evenodd" xlink:href="#path-7"></use>
                <rect stroke="#21B2EE" stroke-width="2" x="247" y="65" width="3" height="3"></rect>
            </g>
            <g id="Rectangle-29">
                <use fill="#6DD8FE" fill-rule="evenodd" xlink:href="#path-8"></use>
                <rect stroke="#21B2EE" stroke-width="2" x="257" y="65" width="3" height="3"></rect>
            </g>
            <g id="Rectangle-29">
                <use fill="#6DD8FE" fill-rule="evenodd" xlink:href="#path-9"></use>
                <rect stroke="#21B2EE" stroke-width="2" x="267" y="65" width="3" height="3"></rect>
            </g>
            <g id="Rectangle-29">
                <use fill="#6DD8FE" fill-rule="evenodd" xlink:href="#path-10"></use>
                <rect stroke="#21B2EE" stroke-width="2" x="247" y="73" width="3" height="3"></rect>
            </g>
            <g id="Rectangle-29">
                <use fill="#6DD8FE" fill-rule="evenodd" xlink:href="#path-11"></use>
                <rect stroke="#21B2EE" stroke-width="2" x="257" y="73" width="3" height="3"></rect>
            </g>
            <g id="Rectangle-29">
                <use fill="#6DD8FE" fill-rule="evenodd" xlink:href="#path-12"></use>
                <rect stroke="#21B2EE" stroke-width="2" x="267" y="73" width="3" height="3"></rect>
            </g>
            <g id="Rectangle-29">
                <use fill="#6DD8FE" fill-rule="evenodd" xlink:href="#path-13"></use>
                <rect stroke="#21B2EE" stroke-width="2" x="247" y="81" width="3" height="3"></rect>
            </g>
            <g id="Rectangle-29">
                <use fill="#6DD8FE" fill-rule="evenodd" xlink:href="#path-14"></use>
                <rect stroke="#21B2EE" stroke-width="2" x="257" y="81" width="3" height="3"></rect>
            </g>
            <g id="Rectangle-29">
                <use fill="#6DD8FE" fill-rule="evenodd" xlink:href="#path-15"></use>
                <rect stroke="#21B2EE" stroke-width="2" x="267" y="81" width="3" height="3"></rect>
            </g>
            <g id="Rectangle-45">
                <use fill="#A8E4F9" fill-rule="evenodd" xlink:href="#path-16"></use>
                <rect stroke="#21B2EE" stroke-width="2" x="88" y="61" width="114" height="118"></rect>
            </g>
            <circle id="Oval-18" stroke="#21B2EE" stroke-width="2" fill="#A8E4F9" cx="142.5" cy="189.5" r="4.5"></circle>
            <g id="Group-11" transform="translate(90.197266, 232.000000)">
                <path d="M1.43945313,0.266845703 C3.13475634,1.2908618 35.4168458,37 35.4168458,37 L71.0840085,0" id="Path-37" stroke="#21B2EE" stroke-width="2" fill="#6DD8FE" transform="translate(36.261731, 18.500000) scale(1, -1) translate(-36.261731, -18.500000) "></path>
                <g id="Rectangle-8">
                    <use fill="#6DD8FE" fill-rule="evenodd" xlink:href="#path-17"></use>
                    <rect stroke="#21B2EE" stroke-width="2" x="1.92575716" y="37" width="69.0742428" height="44"></rect>
                </g>
                <path d="M1.92575716,80.5131189 L5.02829107,79.3871262 L36.0481832,59 L71.0097656,80.8808594" id="Path-38" stroke="#21B2EE" stroke-width="2"></path>
            </g>
            <polyline id="Path-40" stroke="#21B2EE" stroke-width="2" points="92.7324219 268.946289 126.655762 289.1875 161.246094 268.946289"></polyline>
            <polygon id="Path-41" stroke="#21B2EE" stroke-width="2" fill="#A6E1F6" points="101.740234 237 101.197266 273.8125 127.188477 290.520508 150.376953 275.432129 150.376953 237"></polygon>
            <path d="M124.399065,269.033593 C121.506036,267.800671 120.16289,264.513022 121.402453,261.533923 C122.642445,258.65739 125.948949,257.321476 128.945561,258.554398 C131.941744,259.78732 133.181737,263.074969 131.941744,266.054068 C130.701752,268.931028 127.292095,270.266515 124.399065,269.033593 L124.399065,269.033593 Z M138.657905,271.807561 L141.034306,266.15706 L137.93454,264.821573 C138.038123,263.794209 137.93454,262.458294 137.727803,261.2258 L140.724416,259.992878 L138.554751,255.369741 L135.661292,256.910786 C135.041511,256.088981 133.388474,254.958624 133.491628,254.753493 L134.938357,251.362851 L129.255452,249 L127.808723,252.390215 C127.705569,252.595773 125.948949,252.28765 124.915693,252.390215 L123.882438,249.205558 L119.026051,251.054728 L120.369197,253.828695 C119.232788,254.547935 118.199533,255.472306 117.476168,256.294539 L114.376402,254.958624 L112,260.609125 L114.996613,261.842047 C115.306503,261.944612 114.789876,264.616015 115.099766,265.951502 L112.103154,267.28699 L114.273248,272.013119 L117.166277,270.574639 C117.786059,271.396445 119.439525,272.526801 119.335942,272.731932 L118.199533,275.403334 L123.882438,277.766185 L125.018847,275.095211 C126.052102,275.300341 127.085358,275.197776 128.222197,275.095211 L129.255452,278.177302 L134.111839,276.327705 L132.871846,273.245614 C134.008255,272.526801 135.454985,270.369081 135.661292,270.472074 L138.657905,271.807561 Z" id="Fill-1" stroke="#21B2EE" stroke-width="2" fill="#CCF2FF"></path>
            <g id="Rectangle-14">
                <use fill="#6DD8FE" fill-rule="evenodd" xlink:href="#path-18"></use>
                <rect stroke="#21B2EE" stroke-width="2" x="26" y="30" width="50" height="83" rx="8"></rect>
            </g>
            <g id="Rectangle-22">
                <use fill="#A8E4F9" fill-rule="evenodd" xlink:href="#path-19"></use>
                <rect stroke="#21B2EE" stroke-width="2" x="26" y="41" width="50" height="59.6703518"></rect>
            </g>
            <g id="Group-5" transform="translate(73.000000, 211.000000)" stroke="#21B2EE" stroke-width="2">
                <ellipse id="Oval-4" cx="11.5" cy="10.6071429" rx="6.74137931" ry="6.67857143"></ellipse>
                <path d="M11.7323545,17.4368722 L11.7323545,21.4298968" id="Path-110"></path>
                <path d="M0,11 L4.75862069,11" id="Path-110"></path>
                <path d="M18.2413793,11 L23,11" id="Path-110"></path>
                <path d="M16.6551724,7.07142857 L20.6206897,3.92857143" id="Path-110"></path>
                <path d="M6.34482759,6.28571429 L3.17241379,3.92857143" id="Path-110"></path>
                <path d="M11.7323545,0.151157924 L11.7323545,4.14418248" id="Path-110"></path>
                <path d="M16.6551724,14.9285714 L19.8275862,18.0714286" id="Path-110"></path>
                <path d="M1.98275862,18.0714286 L5.94827586,14.9285714" id="Path-110"></path>
            </g>
            <g id="Group-5" transform="translate(175.000000, 16.000000)" stroke="#21B2EE" stroke-width="2">
                <ellipse id="Oval-4" cx="11.5" cy="10.6071429" rx="6.74137931" ry="6.67857143"></ellipse>
                <path d="M11.7323545,17.4368722 L11.7323545,21.4298968" id="Path-110"></path>
                <path d="M0,11 L4.75862069,11" id="Path-110"></path>
                <path d="M18.2413793,11 L23,11" id="Path-110"></path>
                <path d="M16.6551724,7.07142857 L20.6206897,3.92857143" id="Path-110"></path>
                <path d="M6.34482759,6.28571429 L3.17241379,3.92857143" id="Path-110"></path>
                <path d="M11.7323545,0.151157924 L11.7323545,4.14418248" id="Path-110"></path>
                <path d="M16.6551724,14.9285714 L19.8275862,18.0714286" id="Path-110"></path>
                <path d="M1.98275862,18.0714286 L5.94827586,14.9285714" id="Path-110"></path>
            </g>
            <path d="M46,106 L56.7587891,106" id="Path-39" stroke="#21B2EE" stroke-width="2"></path>
            <path d="M76.1132812,87.0253906 L88.1875,87.0253906" id="Path-56" stroke="#21B2EE" stroke-width="2"></path>
            <path d="M144.414062,32.4765625 L144.607422,48.5234375" id="Path-57" stroke="#21B2EE" stroke-width="2"></path>
            <g id="Group-22" transform="translate(144.000000, 163.000000) scale(1, -1) translate(-144.000000, -163.000000) translate(101.000000, 155.000000)">
                <g id="Combined-Shape">
                    <use fill="#CCF2FF" fill-rule="evenodd" xlink:href="#path-20"></use>
                    <path stroke="#21B2EE" stroke-width="2" d="M1,1 L1,14.3856899 L84.7444055,14.3856899 L84.7444055,1 L1,1 Z M77.7462566,10.8264446 C75.8461265,10.8264446 74.2877707,9.33752603 74.2877707,7.47750395 C74.2877707,5.61748187 75.8461265,4.12856329 77.7462566,4.12856329 C79.6463867,4.12856329 81.2047426,5.61748187 81.2047426,7.47750395 C81.2047426,9.33752603 79.6463867,10.8264446 77.7462566,10.8264446 Z"></path>
                </g>
                <path d="M14.9231666,8.42105263 L14.9231666,14.2203947" id="Path-80" stroke="#21B2EE" stroke-width="2"></path>
                <path d="M22.1628988,5.89473684 L22.1240949,14.6820342" id="Path-81" stroke="#21B2EE" stroke-width="2"></path>
                <path d="M28.4133627,8.42105263 L28.4133627,14.2522383" id="Path-80" stroke="#21B2EE" stroke-width="2"></path>
                <path d="M35.6530949,5.89473684 L35.6142909,14.6820342" id="Path-81" stroke="#21B2EE" stroke-width="2"></path>
                <path d="M41.9035587,8.42105263 L41.9035587,14.2522383" id="Path-80" stroke="#21B2EE" stroke-width="2"></path>
                <path d="M49.1432909,5.89473684 L49.104487,14.6820342" id="Path-81" stroke="#21B2EE" stroke-width="2"></path>
                <path d="M55.3937548,8.42105263 L55.3937548,14.2522383" id="Path-80" stroke="#21B2EE" stroke-width="2"></path>
                <path d="M61.7903498,5.89473684 L61.7515458,14.6820342" id="Path-81" stroke="#21B2EE" stroke-width="2"></path>
                <path d="M68.8839509,8.42105263 L68.8839509,14.2522383" id="Path-80" stroke="#21B2EE" stroke-width="2"></path>
            </g>
            <circle id="Oval-31" stroke="#21B2EE" stroke-width="2" fill="#CCF2FF" cx="51.5" cy="71.5" r="19.5"></circle>
            <path d="M47.8099862,73.2337118 C48.2048098,73.2337118 48.5419949,73.4383284 48.8215415,73.83027 C49.10397,74.2135659 49.2509481,74.6977291 49.2509481,75.271232 C49.2509481,75.8360891 49.10397,76.3202523 48.8215415,76.7121939 C48.5419949,77.0954898 48.1932821,77.2972245 47.8099862,77.2972245 C47.3921072,77.2972245 47.0318667,77.1070175 46.7407924,76.7121939 C46.4583639,76.3202523 46.3113858,75.8360891 46.3113858,75.271232 C46.3113858,74.6977291 46.4583639,74.2135659 46.7407924,73.83027 C47.0318667,73.4383284 47.3921072,73.2337118 47.8099862,73.2337118 M51.4239188,79.550889 C53.9110191,79.550889 55.7900335,79.2569327 57.0753715,78.6488468 C58.3463,78.0522886 59.0004967,76.8130613 59.0004967,74.9571023 C59.0004967,73.8763808 58.5941454,72.9628109 57.7727971,72.24233 C57.3549182,71.8503883 56.8707549,71.6140706 56.3087798,71.521849 C55.7583323,71.4325093 54.9024009,71.4325093 53.764041,71.521849 C52.6170353,71.6140706 51.8389158,71.6572994 51.4239188,71.6572994 C50.8504159,71.6572994 50.2308023,71.6255982 49.4526828,71.5679598 C48.688973,71.5132032 48.080887,71.4786201 47.6514804,71.4555647 C47.2134279,71.444037 46.7407924,71.5016755 46.2335738,71.6140706 C45.7148275,71.7379933 45.2998305,71.939728 44.9626454,72.24233 C44.1845259,72.9311098 43.7897023,73.83027 43.7897023,74.9455746 C43.7897023,76.8130613 44.4208437,78.0522886 45.6831263,78.6488468 C46.9425271,79.2569327 48.8215415,79.550889 51.3230514,79.550889 M60.0696905,67.9655549 C61.1821131,69.1701991 61.7469702,70.6226887 61.7469702,72.3345515 C61.7469702,73.4469742 61.6115198,74.4498837 61.3636743,75.3403982 C61.1043012,76.216503 60.7786438,76.9485117 60.3953479,77.5018411 C60.0005243,78.0638163 59.5163611,78.5479795 58.9428582,78.9658584 C58.3693554,79.3923832 57.8390814,79.6949852 57.3664459,79.8880741 C56.8822826,80.0898088 56.3433629,80.2367869 55.7122215,80.3376542 C55.1041356,80.4500492 54.6430278,80.5076877 54.3173704,80.5278612 C54.0118864,80.5393889 53.6747013,80.5393889 53.3029332,80.5393889 C53.2251212,80.5393889 52.9426927,80.5509166 52.4931125,80.5624443 C52.0550601,80.5854997 51.6717642,80.5970274 51.3662803,80.5970274 C51.075206,80.5970274 50.6919101,80.5854997 50.24233,80.5624443 C49.7898679,80.5509166 49.521849,80.5393889 49.4296274,80.5393889 C49.0693869,80.5393889 48.7206741,80.5393889 48.4180721,80.5278612 C48.0895328,80.5076877 47.628425,80.4500492 47.020339,80.3376542 C46.3920796,80.2367869 45.8502779,80.0898088 45.3661147,79.8880741 C44.8934792,79.6949852 44.3660871,79.3923832 43.7897023,78.9658584 C43.2161995,78.5479795 42.743564,78.0522886 42.3487404,77.5018411 C41.9567987,76.9485117 41.6282594,76.216503 41.380414,75.3403982 C41.1239227,74.4498837 41,73.4469742 41,72.3345515 C41,70.6226887 41.5504475,69.1701991 42.665752,67.9655549 C42.5418293,67.8992706 42.5418293,67.3027124 42.6426966,66.1528248 C42.743564,65.0173467 42.9914094,63.9567987 43.386233,63 C44.7695565,63.1469781 46.4814193,63.9366253 48.5189395,65.3430041 C49.2163651,65.1614429 50.1616361,65.0721033 51.3662803,65.0721033 C52.628563,65.0721033 53.573834,65.1614429 54.216503,65.3430041 C55.1387187,64.7118628 56.0378789,64.2046442 56.8822826,63.8127025 C57.7497417,63.417879 58.3693554,63.1930889 58.764179,63.1354504 L59.3492095,63 C59.7411512,63.9567987 59.9889966,65.0173467 60.0927459,66.1528248 C60.2051409,67.3027124 60.1936132,67.8992706 60.0696905,67.9655549 M54.9802129,73.2337118 C55.3750364,73.2337118 55.7006938,73.4383284 55.9946501,73.83027 C56.2741967,74.2135659 56.4211748,74.6977291 56.4211748,75.271232 C56.4211748,75.8360891 56.2857244,76.3202523 55.9946501,76.7121939 C55.7006938,77.0954898 55.3750364,77.2972245 54.9802129,77.2972245 C54.5652158,77.2972245 54.2049753,77.1070175 53.9110191,76.7121939 C53.6285906,76.3202523 53.4844944,75.8360891 53.4844944,75.271232 C53.4844944,74.6977291 53.6285906,74.2135659 53.9110191,73.83027 C54.2049753,73.4383284 54.5652158,73.2337118 54.9802129,73.2337118" id="Page-1" fill="#21B2EE"></path>
            <path d="M200.5151,244.649022 C201.210449,248.974609 208.036507,254.5 215.640781,254.5 C223.245056,254.5 229.360719,250.4375 230.18036,244.649022 C231,238.860544 231,223.925773 231,223.925773 C231,223.925773 229.510253,209.454102 216.695312,209.454102 C203.835449,209.454102 200.800092,222.127877 200.5151,222.339764 C200.230108,222.551651 199.819751,240.323435 200.5151,244.649022 Z" id="Path-104" stroke="#21B2EE" stroke-width="2" fill="#6DD8FE"></path>
            <path d="M200.866699,229.219563 L230.884277,229.219563" id="Path-105" stroke="#21B2EE" stroke-width="2" fill="#6DD8FE"></path>
            <path d="M215.600137,210.5 L215.600137,230" id="Path-106" stroke="#21B2EE" stroke-width="2" fill="#6DD8FE"></path>
            <path d="M215.519531,254.428223 L215.519531,264.217358 C215.519531,264.217358 215.618005,265.132312 215.519531,265.601562 C214.211426,271.834961 209.746094,270.791016 206.661133,270.899414 C203.576172,270.791016 188.727539,270.899414 188.727539,270.899414 C188.727539,270.899414 180.983398,270.899414 180.983398,261.637695 L180.983398,199.908203" id="Path-107" stroke="#21B2EE" stroke-width="2"></path>
            <circle id="Oval-32" stroke="#21B2EE" stroke-width="2" fill="#A8E4F9" cx="142.5" cy="112" r="37.5"></circle>
            <g id="Group-26" transform="translate(112.000000, 66.500000)">
                <g id="Group-25" transform="translate(17.033793, 52.013202) rotate(22.000000) translate(-17.033793, -52.013202) translate(11.033793, 21.513202)">
                    <polygon id="Path-103" stroke="#21B2EE" stroke-width="2" fill="#6DD8FE" points="5.98451327 55.7962284 7.34015487 60.4286099 8.69579646 54.8137527"></polygon>
                    <g id="Rectangle-23">
                        <use fill="#6DD8FE" fill-rule="evenodd" xlink:href="#path-21"></use>
                        <path stroke="#21B2EE" stroke-width="2" d="M5.53097345,28.7103448 L5.53097345,54.5749337 C5.6046256,54.6578455 5.70421279,54.7559221 5.82883039,54.8561948 C6.23079874,55.1796357 6.72230276,55.3711342 7.33408156,55.3711342 C7.94586035,55.3711342 8.43736437,55.1796357 8.83933272,54.8561948 C8.96395032,54.7559221 9.06353751,54.6578455 9.13718966,54.5749337 L9.13718966,28.7103448 L5.53097345,28.7103448 Z"></path>
                    </g>
                    <g id="Rectangle-23">
                        <use fill="#6DD8FE" fill-rule="evenodd" xlink:href="#path-22"></use>
                        <path stroke="#21B2EE" stroke-width="2" d="M4.39823009,1 L4.39823009,38.1467498 C4.52466103,38.3066216 4.71694517,38.5098889 4.97410499,38.7168107 C5.61290308,39.2308149 6.39786938,39.5366514 7.36283186,39.5366514 C8.32779434,39.5366514 9.11276063,39.2308149 9.75155872,38.7168107 C10.0087185,38.5098889 10.2010027,38.3066216 10.3274336,38.1467498 L10.3274336,1 L4.39823009,1 Z"></path>
                    </g>
                    <ellipse id="Oval-29" stroke="#21B2EE" stroke-width="2" fill="#6DD8FE" cx="1.13274336" cy="31.6689655" rx="1.13274336" ry="1.13103448"></ellipse>
                    <g id="Rectangle-24">
                        <use fill="#6DD8FE" fill-rule="evenodd" xlink:href="#path-23"></use>
                        <rect stroke="#21B2EE" stroke-width="2" x="2.13274336" y="29.8413793" width="1.39823009" height="3.65517241"></rect>
                    </g>
                </g>
                <g id="Group-25" transform="translate(46.966207, 52.013202) scale(-1, 1) rotate(22.000000) translate(-46.966207, -52.013202) translate(40.966207, 21.513202)">
                    <polygon id="Path-103" stroke="#21B2EE" stroke-width="2" fill="#6DD8FE" points="5.98451327 55.7962284 7.34015487 60.4286099 8.69579646 54.8137527"></polygon>
                    <g id="Rectangle-23">
                        <use fill="#6DD8FE" fill-rule="evenodd" xlink:href="#path-24"></use>
                        <path stroke="#21B2EE" stroke-width="2" d="M5.53097345,28.7103448 L5.53097345,54.5749337 C5.6046256,54.6578455 5.70421279,54.7559221 5.82883039,54.8561948 C6.23079874,55.1796357 6.72230276,55.3711342 7.33408156,55.3711342 C7.94586035,55.3711342 8.43736437,55.1796357 8.83933272,54.8561948 C8.96395032,54.7559221 9.06353751,54.6578455 9.13718966,54.5749337 L9.13718966,28.7103448 L5.53097345,28.7103448 Z"></path>
                    </g>
                    <g id="Rectangle-23">
                        <use fill="#6DD8FE" fill-rule="evenodd" xlink:href="#path-25"></use>
                        <path stroke="#21B2EE" stroke-width="2" d="M4.39823009,1 L4.39823009,38.1467498 C4.52466103,38.3066216 4.71694517,38.5098889 4.97410499,38.7168107 C5.61290308,39.2308149 6.39786938,39.5366514 7.36283186,39.5366514 C8.32779434,39.5366514 9.11276063,39.2308149 9.75155872,38.7168107 C10.0087185,38.5098889 10.2010027,38.3066216 10.3274336,38.1467498 L10.3274336,1 L4.39823009,1 Z"></path>
                    </g>
                    <ellipse id="Oval-29" stroke="#21B2EE" stroke-width="2" fill="#6DD8FE" cx="1.13274336" cy="31.6689655" rx="1.13274336" ry="1.13103448"></ellipse>
                    <g id="Rectangle-24">
                        <use fill="#6DD8FE" fill-rule="evenodd" xlink:href="#path-26"></use>
                        <rect stroke="#21B2EE" stroke-width="2" x="2.13274336" y="29.8413793" width="1.39823009" height="3.65517241"></rect>
                    </g>
                </g>
                <g id="Rectangle-25">
                    <use fill="#6DD8FE" fill-rule="evenodd" xlink:href="#path-27"></use>
                    <path stroke="#21B2EE" stroke-width="2" d="M31.0176991,1.46310198 L31.0176991,12.5569504 L32.9823009,12.5569504 L32.9823009,1.46310198 C32.9400166,1.41990736 32.8902057,1.37316468 32.8336371,1.32602725 C32.582808,1.11701652 32.3073747,1 32,1 C31.6926253,1 31.417192,1.11701652 31.1663629,1.32602725 C31.1097943,1.37316468 31.0599834,1.41990736 31.0176991,1.46310198 Z"></path>
                </g>
                <ellipse id="Oval-30" stroke="#21B2EE" stroke-width="2" fill="#6DD8FE" cx="32.2831858" cy="18.662069" rx="7.92920354" ry="7.91724138"></ellipse>
                <path d="M32,22.6206897 C34.3459883,22.6206897 36.2477876,20.7217595 36.2477876,18.3793103 C36.2477876,16.0368612 34.3459883,14.137931 32,14.137931 C29.6540117,14.137931 27.7522124,16.0368612 27.7522124,18.3793103 C27.7522124,20.7217595 29.6540117,22.6206897 32,22.6206897 Z" id="Oval-30" stroke="#21B2EE" stroke-width="2" fill="#CCF2FF"></path>
            </g>
            <g id="Rectangle-32">
                <use fill="#CCF2FF" fill-rule="evenodd" xlink:href="#path-28"></use>
                <rect stroke="#21B2EE" stroke-width="2" x="30" y="148" width="34" height="34"></rect>
            </g>
            <g id="Rectangle-44">
                <use fill="#6DD8FE" fill-rule="evenodd" xlink:href="#path-29"></use>
                <rect stroke="#21B2EE" stroke-width="2" x="1" y="154" width="52" height="20"></rect>
            </g>
            <text id="HTML" font-family="LucidaGrande-Bold, Lucida Grande" font-size="13" font-weight="bold" letter-spacing="0.682499945" fill="#21B2EE">
                <tspan x="6" y="169">HTML</tspan>
            </text>
            <g id="Group-29" transform="translate(96.000000, 71.000000)">
                <path d="M1,0.5 L1,46.2636719" id="Path-112" stroke="#FFFFFF" stroke-width="2"></path>
                <g id="Group-28" transform="translate(0.000000, 1.000000)">
                    <path d="M1,48 L1,64.2636719" id="Path-112" stroke="#FFFFFF" stroke-width="2"></path>
                    <g id="Group-27" transform="translate(1.000000, 0.000000)">
                        <path d="M4.5,0.5 L0,48.2636719" id="Path-112"></path>
                    </g>
                    <path d="M1,68 L1,75.7304688" id="Path-112" stroke="#FFFFFF" stroke-width="2"></path>
                </g>
            </g>
        </g>
    </g>
</svg>