<?xml version="1.0" encoding="UTF-8"?>
<svg width="391px" height="315px" viewBox="0 0 391 315" version="1.1" xmlns="http://www.w3.org/2000/svg" xmlns:xlink="http://www.w3.org/1999/xlink">
    <!-- Generator: Sketch 48.2 (47327) - http://www.bohemiancoding.com/sketch -->
    <title>process-always-available</title>
    <desc>Created with Sketch.</desc>
    <defs>
        <rect id="path-1" x="87" y="126" width="116" height="153.800003" rx="8"></rect>
        <rect id="path-2" x="87" y="145" width="116" height="112"></rect>
        <rect id="path-3" x="212" y="137" width="6.03529095" height="9.77972597"></rect>
        <rect id="path-4" x="214" y="133" width="2.26323411" height="5.26600629"></rect>
        <rect id="path-5" x="209" y="145" width="10.9389648" height="4.00864444"></rect>
        <rect id="path-6" x="129" y="105" width="23" height="11" rx="5.5"></rect>
        <rect id="path-7" x="230" y="160" width="101" height="102"></rect>
        <rect id="path-8" x="0.925757156" y="36" width="71.0742428" height="46"></rect>
        <rect id="path-9" x="230" y="160" width="101" height="24"></rect>
        <rect id="path-10" x="239" y="192" width="9" height="9"></rect>
        <rect id="path-11" x="314" y="192" width="9" height="9"></rect>
        <rect id="path-12" x="301" y="192" width="9" height="9"></rect>
        <rect id="path-13" x="289" y="192" width="9" height="9"></rect>
        <rect id="path-14" x="276" y="192" width="9" height="9"></rect>
        <rect id="path-15" x="264" y="192" width="9" height="9"></rect>
        <rect id="path-16" x="252" y="192" width="9" height="9"></rect>
        <rect id="path-17" x="239" y="209" width="9" height="9"></rect>
        <rect id="path-18" x="239" y="209" width="9" height="9"></rect>
        <rect id="path-19" x="314" y="209" width="9" height="9"></rect>
        <rect id="path-20" x="301" y="209" width="9" height="9"></rect>
        <rect id="path-21" x="289" y="209" width="9" height="9"></rect>
        <rect id="path-22" x="276" y="209" width="9" height="9"></rect>
        <rect id="path-23" x="264" y="209" width="9" height="9"></rect>
        <rect id="path-24" x="252" y="209" width="9" height="9"></rect>
        <rect id="path-25" x="239" y="225" width="9" height="9"></rect>
        <rect id="path-26" x="239" y="225" width="9" height="9"></rect>
        <rect id="path-27" x="314" y="225" width="9" height="9"></rect>
        <rect id="path-28" x="301" y="225" width="9" height="9"></rect>
        <rect id="path-29" x="289" y="225" width="9" height="9"></rect>
        <rect id="path-30" x="276" y="225" width="9" height="9"></rect>
        <rect id="path-31" x="264" y="225" width="9" height="9"></rect>
        <rect id="path-32" x="252" y="225" width="9" height="9"></rect>
        <rect id="path-33" x="239" y="241" width="9" height="9"></rect>
        <rect id="path-34" x="239" y="241" width="9" height="9"></rect>
        <rect id="path-35" x="314" y="241" width="9" height="9"></rect>
        <rect id="path-36" x="301" y="241" width="9" height="9"></rect>
        <rect id="path-37" x="289" y="241" width="9" height="9"></rect>
        <rect id="path-38" x="276" y="241" width="9" height="9"></rect>
        <rect id="path-39" x="264" y="241" width="9" height="9"></rect>
        <rect id="path-40" x="252" y="241" width="9" height="9"></rect>
        <polygon id="path-41" points="224 214 273.080078 214 285.670353 228.875 285.670352 275.670352 224 275.670352"></polygon>
        <path d="M233,223 C233,223 263.881714,223 264.807861,223 C265.734009,223 277.385742,223 277.385742,223 L278,268.244724 L233,268.244724 L233,223 Z" id="path-42"></path>
        <rect id="path-43" x="143" y="210" width="48" height="23"></rect>
        <rect id="path-44" x="10.3815487" y="9.49675763" width="14.5341682" height="48.5389835"></rect>
        <rect id="path-45" x="16.8888889" y="71.1746032" width="3.11446462" height="8.44156234"></rect>
    </defs>
    <g id="Desktop-HD" stroke="none" stroke-width="1" fill="none" fill-rule="evenodd" transform="translate(-132.000000, -463.000000)">
        <g id="process-always-available" transform="translate(133.000000, 464.000000)">
            <path d="M203,76 C204.656854,76 206,74.6568542 206,73 C206,71.3431458 204.656854,70 203,70 C201.343146,70 200,71.3431458 200,73 C200,74.6568542 201.343146,76 203,76 Z" id="Oval-59" fill="#21B2EE" transform="translate(203.000000, 73.000000) scale(-1, 1) translate(-203.000000, -73.000000) "></path>
            <circle id="Oval-59" fill="#21B2EE" transform="translate(191.500000, 103.500000) scale(-1, 1) translate(-191.500000, -103.500000) " cx="191.5" cy="103.5" r="2.5"></circle>
            <circle id="Oval-59" fill="#21B2EE" transform="translate(228.000000, 78.000000) scale(-1, 1) translate(-228.000000, -78.000000) " cx="228" cy="78" r="2"></circle>
            <polygon id="Star-1" fill="#21B2EE" transform="translate(296.500000, 134.500000) scale(-1, 1) translate(-296.500000, -134.500000) " points="296.5 139.437694 291.864745 142 292.75 136.572949 289 132.72949 294.182373 131.937694 296.5 127 298.817627 131.937694 304 132.72949 300.25 136.572949 301.135255 142"></polygon>
            <polygon id="Star-1" fill="#21B2EE" transform="translate(170.500000, 112.500000) scale(-1, 1) translate(-170.500000, -112.500000) " points="170.5 117.437694 165.864745 120 166.75 114.572949 163 110.72949 168.182373 109.937694 170.5 105 172.817627 109.937694 178 110.72949 174.25 114.572949 175.135255 120"></polygon>
            <g id="Rectangle-5">
                <use fill="#6DD8FE" fill-rule="evenodd" xlink:href="#path-1"></use>
                <rect stroke="#21B2EE" stroke-width="2" x="88" y="127" width="114" height="151.800003" rx="8"></rect>
            </g>
            <g id="Rectangle-6">
                <use fill="#A8E4F9" fill-rule="evenodd" xlink:href="#path-2"></use>
                <rect stroke="#21B2EE" stroke-width="2" x="88" y="146" width="114" height="110"></rect>
            </g>
            <path d="M145,240 C165.98682,240 183,222.98682 183,202 C183,181.01318 165.98682,164 145,164 C124.01318,164 107,181.01318 107,202 C107,222.98682 124.01318,240 145,240 Z" id="Oval-8" stroke="#21B2EE" stroke-width="2" fill="#6DD8FE"></path>
            <path d="M111.493614,94.0599769 C110.563974,94.0599769 104.317591,93.4712574 102.861261,88.8012152 C101.404931,84.1311729 102.236213,67.3953359 102.236213,67.3953359 C102.236213,67.3953359 102.861261,59.0357213 111.671028,60.0923442" id="Path-28" stroke="#21B2EE" stroke-width="2" fill="#6DD8FE"></path>
            <path d="M95.5631439,77.3025867 C95.5631439,77.3025867 95.5380923,75.100279 95.6196688,63.2073954 C95.7012453,51.3145118 91.8434389,49.7805683 95.8229762,39.4221399 C99.8025135,29.0637116 112.3216,7 143.348589,7" id="Path-32" stroke="#21B2EE" stroke-width="2"></path>
            <path d="M97,23.5873387 C97,23.5873387 107.073654,5.17604744e-10 144.646319,0" id="Path-33" stroke="#21B2EE" stroke-width="2"></path>
            <path d="M121.778778,57 L114.260978,57 C114.260978,57 111,57.5482611 111,60.9342341 L111,93.8855981 C111,93.8855981 111.64781,97.7588681 115.175415,97.7588681 C118.70302,97.7588681 121.66518,97.7588681 121.66518,97.7588681 C121.66518,97.7588681 125.156089,97.6459709 125.156089,93.8855981 C125.156089,90.1252252 125.379972,64.316359 125.156089,60.6581795 C124.932206,57 121.778778,57 121.778778,57 Z" id="Path-25" stroke="#21B2EE" stroke-width="2" fill="#6DD8FE"></path>
            <path d="M191.646319,23.5873387 C191.646319,22.3371333 181.572665,5.17604744e-10 144,0" id="Path-33" stroke="#21B2EE" stroke-width="2"></path>
            <path d="M176.177414,93.0599769 C177.107054,93.0599769 183.353437,92.4712574 184.809767,87.8012152 C186.266097,83.1311729 185.434815,66.3953359 185.434815,66.3953359 C185.434815,66.3953359 184.809767,58.0357213 176,59.0923442" id="Path-28" stroke="#21B2EE" stroke-width="2" fill="#6DD8FE"></path>
            <path d="M190.785445,77.3025867 C190.785445,77.3025867 190.810496,75.100279 190.72892,63.2073954 C190.647343,51.3145118 194.50515,49.7805683 190.525612,39.4221399 C186.546075,29.0637116 174.026989,7 143,7" id="Path-32" stroke="#21B2EE" stroke-width="2"></path>
            <path d="M166.476814,56 L173.994615,56 C173.994615,56 177.255593,56.5482611 177.255593,59.9342341 L177.255593,92.8855981 C177.255593,92.8855981 176.607783,96.7588681 173.080178,96.7588681 C169.552573,96.7588681 166.590413,96.7588681 166.590413,96.7588681 C166.590413,96.7588681 163.099504,96.6459709 163.099504,92.8855981 C163.099504,89.1252252 162.875621,63.316359 163.099504,59.6581795 C163.323387,56 166.476814,56 166.476814,56" id="Path-25" stroke="#21B2EE" stroke-width="2" fill="#6DD8FE"></path>
            <path d="M88.2490234,258.568359 L20.1308594,259.30957 C20.1308594,259.30957 1.43261719,259.835938 0.872070307,248.935547 C0.311523425,238.035156 10.0058586,234.754883 20.1308594,234.754883 C30.2558601,234.754883 53.6220712,234.754883 53.6220712,234.754883 C53.6220712,234.754883 78.4687509,237.211914 78.4687509,226.234375 C78.4687509,215.256836 70.964841,212.932617 58.6308585,212.932617 C46.296876,212.932617 30.5722648,212.932617 30.5722648,212.932617 C30.5722648,212.932617 14.8779298,212.932617 14.8779298,202.427734 C14.8779298,191.922852 25.1875009,190.416016 33.5361328,190.416016 L60.8710938,190.416016 C60.8710938,190.416016 75.6503952,191.093262 75.6503906,179.158203 C75.650386,167.223145 75.6503906,89.6015625 75.6503906,89.6015625 C75.6503906,89.6015625 75.1088839,76.1279297 88.9941378,76.1279297 L95.0273438,76.1279297" id="Path-34" stroke="#21B2EE" stroke-width="2"></path>
            <path d="M202.121094,272.234375 L201.574219,272.234375 C201.574219,272.234375 213.869141,272.26123 213.869141,258.880859 L213.869141,162.300781" id="Path-35" stroke="#21B2EE" stroke-width="2"></path>
            <path d="M211.069989,148 L211,158.724492 C211,158.724492 211.884628,161.449695 214.547538,161.449695 C217.210448,161.449695 217.909789,159.685788 217.909789,158.724492 C217.909789,157.763196 218.095077,148 218.095077,148 L211.069989,148 Z" id="Path-36" stroke="#21B2EE" stroke-width="2" fill="#6DD8FE"></path>
            <g id="Rectangle-16">
                <use fill="#6DD8FE" fill-rule="evenodd" xlink:href="#path-3"></use>
                <rect stroke="#21B2EE" stroke-width="2" x="213" y="138" width="4.03529095" height="7.77972597"></rect>
            </g>
            <g id="Rectangle-17">
                <use fill="#21B2EE" fill-rule="evenodd" xlink:href="#path-4"></use>
                <rect stroke="#21B2EE" stroke-width="2" x="215" y="134" width="1" height="3.26600629"></rect>
            </g>
            <g id="Rectangle-13">
                <use fill="#6DD8FE" fill-rule="evenodd" xlink:href="#path-5"></use>
                <rect stroke="#21B2EE" stroke-width="2" x="210" y="146" width="8.93896484" height="2.00864444"></rect>
            </g>
            <path d="M95.6875,76.9326172 L96.0576172,98.3759766 C96.0576172,98.3759766 95.5576172,110.060547 106.630859,111.237305 C117.704102,112.414062 138.646484,111.737305 138.646484,111.737305" id="Path-46" stroke="#21B2EE" stroke-width="2"></path>
            <g id="Rectangle-28">
                <use fill="#6DD8FE" fill-rule="evenodd" xlink:href="#path-6"></use>
                <rect stroke="#21B2EE" stroke-width="2" x="130" y="106" width="21" height="9" rx="4.5"></rect>
            </g>
            <g id="Rectangle-34">
                <use fill="#6DD8FE" fill-rule="evenodd" xlink:href="#path-7"></use>
                <rect stroke="#21B2EE" stroke-width="2" x="231" y="161" width="99" height="100"></rect>
            </g>
            <g id="Group-11" transform="translate(209.000000, 52.000000)">
                <path d="M1.58935547,0 C3.2804162,1.0240161 35.5065363,37.0722656 35.5065363,37.0722656 L71.4189453,0" id="Path-37" stroke="#21B2EE" stroke-width="2" fill="#6DD8FE" transform="translate(36.504150, 18.536133) scale(1, -1) translate(-36.504150, -18.536133) "></path>
                <g id="Rectangle-8">
                    <use fill="#6DD8FE" fill-rule="evenodd" xlink:href="#path-8"></use>
                    <rect stroke="#21B2EE" stroke-width="2" x="1.92575716" y="37" width="69.0742428" height="44"></rect>
                </g>
                <path d="M1.92575716,80.5131189 L5.02829107,79.3871262 L36.0481832,59 L71.0097656,80.8808594" id="Path-38" stroke="#21B2EE" stroke-width="2"></path>
            </g>
            <g id="Rectangle-36">
                <use fill="#A8E4F9" fill-rule="evenodd" xlink:href="#path-9"></use>
                <rect stroke="#21B2EE" stroke-width="2" x="231" y="161" width="99" height="22"></rect>
            </g>
            <path d="M246,167.153824 C246,167.153824 246.336188,169.960178 250.235182,169.960178 C254.134177,169.960178 254.851322,167.365678 254.851322,167.365678 C254.851322,167.365678 255,158.017496 255,158.017496 C255,158.017496 254.144033,155 250.37246,155 C246.600887,155 246,158.017496 246,158.017496 L246,167.153824 Z" id="Path-55" stroke="#21B2EE" stroke-width="2" fill="#6DD8FE"></path>
            <path d="M265,167.153824 C265,167.153824 265.336188,169.960178 269.235182,169.960178 C273.134177,169.960178 273.851322,167.365678 273.851322,167.365678 C273.851322,167.365678 274,158.017496 274,158.017496 C274,158.017496 273.144033,155 269.37246,155 C265.600887,155 265,158.017496 265,158.017496 L265,167.153824 Z" id="Path-55" stroke="#21B2EE" stroke-width="2" fill="#6DD8FE"></path>
            <path d="M285,167.153824 C285,167.153824 285.336188,169.960178 289.235182,169.960178 C293.134177,169.960178 293.851322,167.365678 293.851322,167.365678 C293.851322,167.365678 294,158.017496 294,158.017496 C294,158.017496 293.144033,155 289.37246,155 C285.600887,155 285,158.017496 285,158.017496 L285,167.153824 Z" id="Path-55" stroke="#21B2EE" stroke-width="2" fill="#6DD8FE"></path>
            <path d="M304,167.153824 C304,167.153824 304.336188,169.960178 308.235182,169.960178 C312.134177,169.960178 312.851322,167.365678 312.851322,167.365678 C312.851322,167.365678 313,158.017496 313,158.017496 C313,158.017496 312.144033,155 308.37246,155 C304.600887,155 304,158.017496 304,158.017496 L304,167.153824 Z" id="Path-55" stroke="#21B2EE" stroke-width="2" fill="#6DD8FE"></path>
            <g id="Rectangle-37">
                <use fill="#A8E4F9" fill-rule="evenodd" xlink:href="#path-10"></use>
                <rect stroke="#21B2EE" stroke-width="2" x="240" y="193" width="7" height="7"></rect>
            </g>
            <g id="Rectangle-37">
                <use fill="#6DD8FE" fill-rule="evenodd" xlink:href="#path-11"></use>
                <rect stroke="#21B2EE" stroke-width="2" x="315" y="193" width="7" height="7"></rect>
            </g>
            <g id="Rectangle-37">
                <use fill="#A8E4F9" fill-rule="evenodd" xlink:href="#path-12"></use>
                <rect stroke="#21B2EE" stroke-width="2" x="302" y="193" width="7" height="7"></rect>
            </g>
            <g id="Rectangle-37">
                <use fill="#A8E4F9" fill-rule="evenodd" xlink:href="#path-13"></use>
                <rect stroke="#21B2EE" stroke-width="2" x="290" y="193" width="7" height="7"></rect>
            </g>
            <g id="Rectangle-37">
                <use fill="#A8E4F9" fill-rule="evenodd" xlink:href="#path-14"></use>
                <rect stroke="#21B2EE" stroke-width="2" x="277" y="193" width="7" height="7"></rect>
            </g>
            <g id="Rectangle-37">
                <use fill="#A8E4F9" fill-rule="evenodd" xlink:href="#path-15"></use>
                <rect stroke="#21B2EE" stroke-width="2" x="265" y="193" width="7" height="7"></rect>
            </g>
            <g id="Rectangle-37">
                <use fill="#A8E4F9" fill-rule="evenodd" xlink:href="#path-16"></use>
                <rect stroke="#21B2EE" stroke-width="2" x="253" y="193" width="7" height="7"></rect>
            </g>
            <g id="Rectangle-37">
                <use fill="#A8E4F9" fill-rule="evenodd" xlink:href="#path-17"></use>
                <rect stroke="#21B2EE" stroke-width="2" x="240" y="210" width="7" height="7"></rect>
            </g>
            <g id="Rectangle-37">
                <use fill="#A8E4F9" fill-rule="evenodd" xlink:href="#path-18"></use>
                <rect stroke="#21B2EE" stroke-width="2" x="240" y="210" width="7" height="7"></rect>
            </g>
            <g id="Rectangle-37">
                <use fill="#6DD8FE" fill-rule="evenodd" xlink:href="#path-19"></use>
                <rect stroke="#21B2EE" stroke-width="2" x="315" y="210" width="7" height="7"></rect>
            </g>
            <g id="Rectangle-37">
                <use fill="#A8E4F9" fill-rule="evenodd" xlink:href="#path-20"></use>
                <rect stroke="#21B2EE" stroke-width="2" x="302" y="210" width="7" height="7"></rect>
            </g>
            <g id="Rectangle-37">
                <use fill="#A8E4F9" fill-rule="evenodd" xlink:href="#path-21"></use>
                <rect stroke="#21B2EE" stroke-width="2" x="290" y="210" width="7" height="7"></rect>
            </g>
            <g id="Rectangle-37">
                <use fill="#A8E4F9" fill-rule="evenodd" xlink:href="#path-22"></use>
                <rect stroke="#21B2EE" stroke-width="2" x="277" y="210" width="7" height="7"></rect>
            </g>
            <g id="Rectangle-37">
                <use fill="#A8E4F9" fill-rule="evenodd" xlink:href="#path-23"></use>
                <rect stroke="#21B2EE" stroke-width="2" x="265" y="210" width="7" height="7"></rect>
            </g>
            <g id="Rectangle-37">
                <use fill="#A8E4F9" fill-rule="evenodd" xlink:href="#path-24"></use>
                <rect stroke="#21B2EE" stroke-width="2" x="253" y="210" width="7" height="7"></rect>
            </g>
            <g id="Rectangle-37">
                <use fill="#A8E4F9" fill-rule="evenodd" xlink:href="#path-25"></use>
                <rect stroke="#21B2EE" stroke-width="2" x="240" y="226" width="7" height="7"></rect>
            </g>
            <g id="Rectangle-37">
                <use fill="#A8E4F9" fill-rule="evenodd" xlink:href="#path-26"></use>
                <rect stroke="#21B2EE" stroke-width="2" x="240" y="226" width="7" height="7"></rect>
            </g>
            <g id="Rectangle-37">
                <use fill="#6DD8FE" fill-rule="evenodd" xlink:href="#path-27"></use>
                <rect stroke="#21B2EE" stroke-width="2" x="315" y="226" width="7" height="7"></rect>
            </g>
            <g id="Rectangle-37">
                <use fill="#A8E4F9" fill-rule="evenodd" xlink:href="#path-28"></use>
                <rect stroke="#21B2EE" stroke-width="2" x="302" y="226" width="7" height="7"></rect>
            </g>
            <g id="Rectangle-37">
                <use fill="#A8E4F9" fill-rule="evenodd" xlink:href="#path-29"></use>
                <rect stroke="#21B2EE" stroke-width="2" x="290" y="226" width="7" height="7"></rect>
            </g>
            <g id="Rectangle-37">
                <use fill="#A8E4F9" fill-rule="evenodd" xlink:href="#path-30"></use>
                <rect stroke="#21B2EE" stroke-width="2" x="277" y="226" width="7" height="7"></rect>
            </g>
            <g id="Rectangle-37">
                <use fill="#A8E4F9" fill-rule="evenodd" xlink:href="#path-31"></use>
                <rect stroke="#21B2EE" stroke-width="2" x="265" y="226" width="7" height="7"></rect>
            </g>
            <g id="Rectangle-37">
                <use fill="#A8E4F9" fill-rule="evenodd" xlink:href="#path-32"></use>
                <rect stroke="#21B2EE" stroke-width="2" x="253" y="226" width="7" height="7"></rect>
            </g>
            <g id="Rectangle-37">
                <use fill="#A8E4F9" fill-rule="evenodd" xlink:href="#path-33"></use>
                <rect stroke="#21B2EE" stroke-width="2" x="240" y="242" width="7" height="7"></rect>
            </g>
            <g id="Rectangle-37">
                <use fill="#A8E4F9" fill-rule="evenodd" xlink:href="#path-34"></use>
                <rect stroke="#21B2EE" stroke-width="2" x="240" y="242" width="7" height="7"></rect>
            </g>
            <g id="Rectangle-37">
                <use fill="#6DD8FE" fill-rule="evenodd" xlink:href="#path-35"></use>
                <rect stroke="#21B2EE" stroke-width="2" x="315" y="242" width="7" height="7"></rect>
            </g>
            <g id="Rectangle-37">
                <use fill="#A8E4F9" fill-rule="evenodd" xlink:href="#path-36"></use>
                <rect stroke="#21B2EE" stroke-width="2" x="302" y="242" width="7" height="7"></rect>
            </g>
            <g id="Rectangle-37">
                <use fill="#A8E4F9" fill-rule="evenodd" xlink:href="#path-37"></use>
                <rect stroke="#21B2EE" stroke-width="2" x="290" y="242" width="7" height="7"></rect>
            </g>
            <g id="Rectangle-37">
                <use fill="#A8E4F9" fill-rule="evenodd" xlink:href="#path-38"></use>
                <rect stroke="#21B2EE" stroke-width="2" x="277" y="242" width="7" height="7"></rect>
            </g>
            <g id="Rectangle-37">
                <use fill="#A8E4F9" fill-rule="evenodd" xlink:href="#path-39"></use>
                <rect stroke="#21B2EE" stroke-width="2" x="265" y="242" width="7" height="7"></rect>
            </g>
            <g id="Rectangle-37">
                <use fill="#A8E4F9" fill-rule="evenodd" xlink:href="#path-40"></use>
                <rect stroke="#21B2EE" stroke-width="2" x="253" y="242" width="7" height="7"></rect>
            </g>
            <g id="Rectangle-31">
                <use fill="#6DD8FE" fill-rule="evenodd" xlink:href="#path-41"></use>
                <path stroke="#21B2EE" stroke-width="2" d="M225,215 L225,274.670352 L284.670352,274.670352 L284.670353,229.241391 L272.616368,215 L225,215 Z"></path>
            </g>
            <g id="Rectangle-6">
                <use fill="#CCF2FF" fill-rule="evenodd" xlink:href="#path-42"></use>
                <path stroke="#21B2EE" stroke-width="2" d="M234,267.244724 L276.986332,267.244724 L276.385834,223.013575 L277.385742,224 C275.806221,224 275.806221,224 271.067657,224 C268.886699,224 268.886699,224 267.013746,224 C265.448797,224 265.448797,224 264.807861,224 C264.409896,224 264.409896,224 263.217581,224 C261.684832,224 261.684832,224 259.584691,224 C254.703538,224 254.703538,224 248.914559,224 C242.946599,224 242.946599,224 237.9733,224 C233.99466,224 233.99466,224 233,224 L234,223 L234,267.244724 Z"></path>
            </g>
            <polyline id="Path-54" stroke="#21B2EE" stroke-width="2" fill="#A8E4F9" points="271.844726 215.654785 271.844726 228.973633 283.700683 228.973633"></polyline>
            <path d="M125.367188,136.876953 L167.970703,136.855469" id="Path-10" stroke="#21B2EE" stroke-width="2"></path>
            <circle id="Oval-7" stroke="#21B2EE" stroke-width="1.6" fill="#21B2EE" cx="144" cy="268" r="4"></circle>
            <path d="M144.794393,226.99509 C159.040242,226.99509 170.588785,215.355593 170.588785,200.997545 C170.588785,186.639497 159.040242,175 144.794393,175 C130.548543,175 119,186.639497 119,200.997545 C119,215.355593 130.548543,226.99509 144.794393,226.99509 Z" id="Oval-8" stroke="#21B2EE" stroke-width="2" fill="#6DD8FE"></path>
            <path d="M170.459871,201.002455 C170.45987,188.834123 162.229093,176.130181 144.665479,175.00491 C144.06574,174.966485 143,175.166217 143,175.166217 L144.665479,204.413486 L170.459871,201.002455 Z" id="Oval-8" stroke="#21B2EE" stroke-width="2" fill="#A8E4F9"></path>
            <g id="Rectangle">
                <use fill="#CCF2FF" fill-rule="evenodd" xlink:href="#path-43"></use>
                <rect stroke="#21B2EE" stroke-width="2" x="144" y="211" width="46" height="21"></rect>
            </g>
            <text id="24h" font-family="FreightSansProBold-Regular, FreightSans Pro" font-size="16" font-weight="bold" letter-spacing="0.839999974" fill="#21B2EE">
                <tspan x="153" y="226">24h</tspan>
            </text>
            <g id="Page-1" transform="translate(249.000000, 232.000000)" fill="#21B2EE">
                <g id="Group-3" transform="translate(3.611111, 0.000000)">
                    <path d="M3.85729706,0.0521041097 C5.91914405,0.0663222029 7.57161614,1.60586427 7.55664363,3.51993171 C7.54110255,5.42047463 5.85830639,6.96001669 3.84175597,6.94649216 C1.74958492,6.93227407 0.0667887563,5.36498938 0.0815717386,3.46444647 C0.0971128227,1.56459712 1.77990898,0.0385795821 3.85729706,0.0521041097" id="Fill-1"></path>
                </g>
                <g id="Group-6" transform="translate(0.000000, 8.249066)">
                    <path d="M12.5902491,14.8255699 C12.514818,15.1168674 12.3021705,15.4216894 12.0749295,15.6438038 C10.7105361,16.9062664 9.08781946,17.6554906 7.13172765,17.6825396 C6.22181614,17.6967577 5.29731116,17.6690151 4.40294073,17.5443467 C2.90152039,17.349975 1.00626624,15.6573283 1.27937236,13.8408802 C1.46150629,12.6059868 1.67320617,11.3712668 1.90139477,10.1365468 C2.29522859,8.00036497 2.72014457,5.85048525 3.12951946,3.71430345 C3.15908543,3.57541695 3.15908543,3.43739741 3.15908543,3.29851092 C3.15908543,2.39704913 2.85641334,2.09153352 1.88585369,1.96686512 C1.47628927,1.91137988 1.03659031,1.88363726 0.657539475,1.75827529 C0.172543938,1.60586427 -0.0399140524,1.25908151 0.00614062345,0.898774218 C0.0512476722,0.524248837 0.308812711,0.288436561 0.839673399,0.190990605 C1.11277952,0.135505363 1.40085815,0.135505363 1.68874726,0.135505363 L8.78495785,0.135505363 C9.6637872,0.135505363 10.1796754,0.510030744 10.2099994,1.31456675 C10.224972,1.98038965 10.1034862,2.64621255 9.96721739,3.31203545 C9.49719436,5.75373286 8.99665774,8.19473671 8.5116622,10.6499586 C8.34525889,11.454668 8.16312496,12.272902 8.07196324,13.077438 C8.02685619,13.4661814 8.08674622,13.8821474 8.19344903,14.2566727 C8.3297178,14.7700846 8.75463378,15.047164 9.31506043,14.9915054 C9.78508346,14.9360202 10.255296,14.7836091 10.7105361,14.6311981 C11.0740458,14.5065297 11.3924485,14.2701973 11.7714993,14.1455289 C12.2718464,13.9653752 12.7265179,14.312158 12.5902491,14.8255699" id="Fill-4"></path>
                </g>
            </g>
            <g id="Group-17" transform="translate(313.000000, 294.170352) rotate(-90.000000) translate(-313.000000, -294.170352) translate(294.500000, 218.170352)">
                <path d="M11.3710401,84.9545562 L11.3710401,147.9695 C11.3710401,147.9695 12.561015,151.074289 14.9059878,151.074289 L23.0046603,151.074289 C23.0046603,151.074289 25.5179279,150.205607 25.5179279,147.9695 C25.5179279,145.733393 25.4388497,85.1925934 25.4388497,85.1925934 L11.3710401,84.9545562 Z" id="Path-18" stroke="#21B2EE" stroke-width="2" fill="#6DD8FE"></path>
                <ellipse id="Oval-19" stroke="#21B2EE" stroke-width="2" fill="#21B2EE" cx="18.1677103" cy="99.7159552" rx="1.55723231" ry="1.58279294"></ellipse>
                <ellipse id="Oval-19" stroke="#21B2EE" stroke-width="2" fill="#21B2EE" cx="18.1677103" cy="109.212713" rx="1.55723231" ry="1.58279294"></ellipse>
                <ellipse id="Oval-19" stroke="#21B2EE" stroke-width="2" fill="#21B2EE" cx="18.1677103" cy="117.654275" rx="1.55723231" ry="1.58279294"></ellipse>
                <g id="Rectangle-7">
                    <use fill="#6DD8FE" fill-rule="evenodd" xlink:href="#path-44"></use>
                    <rect stroke="#21B2EE" stroke-width="2" x="11.3815487" y="10.4967576" width="12.5341682" height="46.5389835"></rect>
                </g>
                <path d="M11.3710401,10.0609368 L11.5029054,2.37369062 C11.5029054,2.37369062 11.2668884,-1.0212178e-15 14.0979467,0 C16.9290051,9.9065162e-16 21.6991236,0 21.6991236,0 C21.6991236,0 23.5817784,0.410328401 23.581778,2.40130888 C23.5817777,4.39228935 23.581778,10.0609368 23.581778,10.0609368" id="Path-21" stroke="#21B2EE" stroke-width="2"></path>
                <path d="M17.6542088,6.33117176 L17.6486328,10.0609368" id="Path-22" stroke="#21B2EE" stroke-width="2"></path>
                <path d="M18.1677103,90.0112003 C28.2014596,90.0112003 36.3354205,81.7437274 36.3354205,71.5452827 C36.3354205,61.346838 28.2014596,53.0793651 18.1677103,53.0793651 C8.13396094,53.0793651 1.13686838e-13,61.346838 1.13686838e-13,71.5452827 C1.13686838e-13,81.7437274 8.13396094,90.0112003 18.1677103,90.0112003 Z" id="Oval-10" stroke="#21B2EE" stroke-width="2" fill="#CCF2FF"></path>
                <ellipse id="Oval-19" stroke="#21B2EE" stroke-width="2" fill="#21B2EE" cx="18.1677103" cy="127.151033" rx="1.55723231" ry="1.58279294"></ellipse>
                <ellipse id="Oval-19" stroke="#21B2EE" stroke-width="2" fill="#21B2EE" cx="18.1677103" cy="136.64779" rx="1.55723231" ry="1.58279294"></ellipse>
                <path d="M26.8128649,61.681911 L20.3506912,68.7772994" id="Path-24" stroke="#21B2EE" stroke-width="2"></path>
                <g id="Rectangle-11">
                    <use fill="#D8D8D8" fill-rule="evenodd" xlink:href="#path-45"></use>
                    <rect stroke="#21B2EE" stroke-width="2" x="17.8888889" y="72.1746032" width="1.11446462" height="6.44156234"></rect>
                </g>
                <path d="M2.41269841,71.0234493 L6.03174603,71.0234493" id="Path-30" stroke="#21B2EE" stroke-width="2"></path>
                <path d="M29.0683364,71.7532799 L32.9766245,71.7532799" id="Path-30" stroke="#21B2EE" stroke-width="2"></path>
                <path d="M18.6867877,81.3819369 L18.6867877,84.9432211" id="Path-30" stroke="#21B2EE" stroke-width="2"></path>
                <path d="M18.6867877,56.0572499 L18.6867877,60.4603018" id="Path-30" stroke="#21B2EE" stroke-width="2"></path>
                <ellipse id="Oval-20" stroke="#21B2EE" stroke-width="2" fill="#A8E4F9" cx="18.2779269" cy="71.399893" rx="2.59538718" ry="2.63798823"></ellipse>
            </g>
            <polyline id="Path-40" stroke="#21B2EE" stroke-width="2" points="210.845703 89.1738281 245.304199 111.361328 279.762695 89.1738281"></polyline>
            <polygon id="Path-41" stroke="#21B2EE" stroke-width="2" fill="#CCF2FF" points="220.441406 58.0380859 219.898438 94.8505859 245.889648 111.558594 269.328125 95.9472656 269.078125 58.0380859"></polygon>
            <g id="Group-18" transform="translate(227.000000, 64.000000)" fill="#21B2EE">
                <g id="Page-1">
                    <path d="M17.9693772,1.82278481 C26.8728608,1.82278481 34.1163342,9.06616709 34.1163342,17.9693772 C34.1163342,26.8728608 26.8728608,34.1163342 17.9693772,34.1163342 C9.06625823,34.1163342 1.82278481,26.8728608 1.82278481,17.9693772 C1.82278481,9.06616709 9.06625823,1.82278481 17.9693772,1.82278481 M17.9693772,35.939119 C22.7694987,35.939119 27.2819848,34.0700354 30.6758278,30.6758278 C34.0696709,27.2819848 35.939119,22.7694987 35.939119,17.9693772 C35.939119,13.1696203 34.0700354,8.65713418 30.6758278,5.26329114 C27.2819848,1.86908354 22.7694987,0 17.9693772,0 C13.1696203,0 8.65713418,1.86908354 5.26329114,5.26329114 C1.86908354,8.65713418 0,13.1696203 0,17.9693772 C0,22.7694987 1.86908354,27.2819848 5.26329114,30.6758278 C8.65713418,34.0696709 13.1696203,35.939119 17.9693772,35.939119" id="Fill-1"></path>
                    <path d="M26.2477367,28.8833013 C26.460638,28.8833013 26.6742684,28.8092051 26.8472506,28.6582785 C28.0798177,27.5813772 29.1225418,26.311443 29.9467139,24.8842025 C30.770157,23.4573266 31.3483443,21.9197165 31.6648709,20.3137519 C31.7623899,19.8195949 31.4409418,19.3403848 30.9471494,19.2431392 C30.453357,19.1459848 29.9737823,19.4670684 29.8765367,19.9612253 C29.5989266,21.3703291 29.0911899,22.7200101 28.3681823,23.9728101 C27.6443544,25.2259747 26.729043,26.3406076 25.6478582,27.2855392 C25.268719,27.616557 25.2298937,28.1922835 25.5613671,28.5714228 C25.7414582,28.7779443 25.9939139,28.8833013 26.2477367,28.8833013" id="Fill-3"></path>
                    <path d="M25.6478582,8.65357975 C26.729043,9.5980557 27.6443544,10.7127797 28.3678177,11.9659443 C29.0915544,13.2191089 29.5992911,14.5690633 29.8765367,15.9778025 C29.9620253,16.4121722 30.3429873,16.7133873 30.7697924,16.7133873 C30.8282127,16.7133873 30.8872709,16.7076456 30.9471494,16.6958886 C31.4409418,16.5987342 31.7623899,16.1195241 31.6648709,15.6257316 C31.3487089,14.0197671 30.7705215,12.4817924 29.9463494,11.0545519 C29.1225418,9.62731139 28.0798177,8.35774177 26.8472506,7.28084051 C26.4684759,6.94973165 25.8924759,6.98846582 25.5613671,7.3676962 C25.2298937,7.74683544 25.268719,8.32247089 25.6478582,8.65357975" id="Fill-5"></path>
                    <path d="M4.99233418,16.6958886 C5.0518481,16.7076456 5.11090633,16.7133873 5.16932658,16.7133873 C5.59576709,16.7133873 5.97709367,16.4121722 6.06258228,15.9778025 C6.33982785,14.5694278 6.84756456,13.219838 7.57093671,11.9663089 C8.29476456,10.7127797 9.21007595,9.59842025 10.2912608,8.65357975 C10.6700354,8.32247089 10.7088608,7.74647089 10.3777519,7.3676962 C10.046643,6.98846582 9.47100759,6.94973165 9.09186835,7.28084051 C7.85930127,8.35774177 6.81657722,9.62767595 5.99240506,11.0549165 C5.16823291,12.4825215 4.59004557,14.0204962 4.27397468,15.6257316 C4.17672911,16.1195241 4.49817722,16.5987342 4.99233418,16.6958886" id="Fill-7"></path>
                    <path d="M9.09186835,28.6579139 C9.26485063,28.8092051 9.47848101,28.8829367 9.69101772,28.8829367 C9.94520506,28.8829367 10.1976608,28.7775797 10.3777519,28.5714228 C10.7088608,28.1922835 10.6700354,27.616557 10.2912608,27.2851747 C9.20971139,26.3406076 8.29476456,25.2259747 7.57130127,23.9731747 C6.84756456,22.719281 6.33982785,21.3696 6.06258228,19.9612253 C5.96533671,19.4674329 5.48649114,19.1459848 4.99233418,19.2431392 C4.49854177,19.3403848 4.17672911,19.8195949 4.27397468,20.3133873 C4.59004557,21.9189873 5.16823291,23.456962 5.99276962,24.8842025 C6.81621266,26.311443 7.85930127,27.5810127 9.09186835,28.6579139" id="Fill-9"></path>
                    <path d="M22.1980557,29.2770228 C20.8395342,29.7412861 19.4165772,29.976243 17.9697418,29.9766076 C16.5225418,29.9766076 15.0995848,29.7412861 13.7410633,29.2770228 C13.2643139,29.1143392 12.746643,29.3685266 12.5839595,29.8449114 C12.4212759,30.3212051 12.6754633,30.8392405 13.1518481,31.0019241 C14.7004861,31.5309873 16.321762,31.7993924 17.9697418,31.7993924 C19.6177215,31.7993924 21.2382684,31.5309873 22.7872709,31.0022886 C23.2636557,30.8396051 23.517843,30.3215696 23.3551595,29.8452759 C23.1924759,29.3688911 22.6748051,29.1143392 22.1980557,29.2770228" id="Fill-11"></path>
                    <path d="M13.7410633,6.66200506 C15.0995848,6.19783291 16.5221772,5.96251139 17.9693772,5.96251139 C19.4169418,5.96251139 20.8395342,6.19783291 22.1980557,6.66200506 C22.2956658,6.6955443 22.3950076,6.71122025 22.4928911,6.71122025 C22.8716658,6.71122025 23.2259241,6.47298228 23.3551595,6.09420759 C23.517843,5.61782278 23.2636557,5.09987848 22.7872709,4.93719494 C21.2386329,4.40813165 19.6177215,4.13972658 17.9693772,4.13972658 C16.3213975,4.13972658 14.7004861,4.40813165 13.1518481,4.93719494 C12.6754633,5.09987848 12.4212759,5.61782278 12.5839595,6.09420759 C12.746643,6.57059241 13.2646785,6.82477975 13.7410633,6.66200506" id="Fill-13"></path>
                </g>
            </g>
            <path d="M244.486816,86.8325195 C243.064453,86.8325195 239.590332,80.5849609 239.590332,78.9887695 C239.590332,77.3925781 243.64502,76.925293 244.44873,77.9570312 C245.252441,78.9887695 247.038574,76.546875 247.923828,77.2519531 C248.809082,77.9570312 250.82373,78.6694337 250.82373,79.7441406 C250.82373,80.8188476 248.435547,85.5957027 247.833008,85.5957031 C247.230469,85.5957035 245.90918,86.8325195 244.486816,86.8325195 Z" id="Path-42" fill="#6DD8FE"></path>
            <path d="M242.219524,77.7364152 C243.047615,77.7364152 243.787392,78.1995848 244.149853,78.9450127 C244.302238,79.2590785 244.620496,79.4580354 244.969377,79.4580354 C245.318258,79.4580354 245.636516,79.2590785 245.789266,78.9450127 C246.151727,78.1995848 246.891504,77.7364152 247.719595,77.7364152 C248.902218,77.7364152 249.864557,78.6982987 249.864557,79.8810127 C249.864557,83.0367089 246.203311,85.3796253 244.969377,86.0792101 C243.735443,85.3796253 240.074562,83.0367089 240.074562,79.8810127 C240.074562,78.6982987 241.036901,77.7364152 242.219524,77.7364152 M244.570278,87.9332557 C244.696324,87.9948658 244.833033,88.0254886 244.969377,88.0254886 C245.106086,88.0254886 245.242795,87.9948658 245.368841,87.9332557 C245.626582,87.8075747 251.687342,84.7989772 251.687342,79.8810127 C251.687342,77.6933063 249.907301,75.9136304 247.719595,75.9136304 C246.68398,75.9136304 245.698856,76.3269468 244.969377,77.0250734 C244.240263,76.3269468 243.255139,75.9136304 242.219524,75.9136304 C240.031453,75.9136304 238.251777,77.6933063 238.251777,79.8810127 C238.251777,84.7989772 244.312537,87.8075747 244.570278,87.9332557" id="Fill-15" fill="#21B2EE"></path>
            <g id="Group-29" transform="translate(96.000000, 161.000000)">
                <path d="M1,0.5 L1,46.2636719" id="Path-112" stroke="#FFFFFF" stroke-width="2"></path>
                <g id="Group-28" transform="translate(0.000000, 1.000000)">
                    <path d="M1,48 L1,64.2636719" id="Path-112" stroke="#FFFFFF" stroke-width="2"></path>
                    <g id="Group-27" transform="translate(1.000000, 0.000000)">
                        <path d="M4.5,0.5 L0,48.2636719" id="Path-112"></path>
                    </g>
                    <path d="M1,68 L1,75.7304688" id="Path-112" stroke="#FFFFFF" stroke-width="2"></path>
                </g>
            </g>
        </g>
    </g>
</svg>