<?xml version="1.0" encoding="UTF-8"?>
<svg width="314px" height="343px" viewBox="0 0 314 343" version="1.1" xmlns="http://www.w3.org/2000/svg" xmlns:xlink="http://www.w3.org/1999/xlink">
    <!-- Generator: Sketch 48.2 (47327) - http://www.bohemiancoding.com/sketch -->
    <title>process-super-fast</title>
    <desc>Created with Sketch.</desc>
    <defs>
        <rect id="path-1" x="0" y="214" width="69" height="85"></rect>
        <rect id="path-2" x="8" y="224" width="51.588785" height="53.0841121"></rect>
        <rect id="path-3" x="211.172862" y="219" width="101" height="63.6320824"></rect>
        <rect id="path-4" x="88" y="102" width="116.003906" height="153.797004" rx="8"></rect>
        <rect id="path-5" x="88" y="116.03137" width="116.003906" height="119.96863"></rect>
        <rect id="path-6" x="0" y="38.830572" width="77.327623" height="11.354951"></rect>
        <rect id="path-7" x="24.0495933" y="41.5256407" width="6.78321863" height="28.1096645"></rect>
        <rect id="path-8" x="0.925757156" y="36" width="71.0742428" height="46"></rect>
        <rect id="path-9" x="269" y="104" width="19" height="9" rx="4.5"></rect>
        <rect id="path-10" x="298.696266" y="114.52014" width="15" height="7" rx="3.5"></rect>
    </defs>
    <g id="Desktop-HD" stroke="none" stroke-width="1" fill="none" fill-rule="evenodd" transform="translate(-976.000000, -958.000000)">
        <g id="process-super-fast" transform="translate(976.000000, 950.000000)">
            <g id="Rectangle-4">
                <use fill="#A8E4F9" fill-rule="evenodd" xlink:href="#path-1"></use>
                <rect stroke="#21B2EE" stroke-width="2" x="1" y="215" width="67" height="83"></rect>
            </g>
            <g id="Rectangle-4">
                <use fill="#21B2EE" fill-rule="evenodd" xlink:href="#path-2"></use>
                <rect stroke="#21B2EE" stroke-width="2" x="9" y="225" width="49.588785" height="51.0841121"></rect>
            </g>
            <rect id="Rectangle-50" fill="#A8E4F9" x="20" y="238" width="10.3083685" height="1.96862962"></rect>
            <rect id="Rectangle-50" fill="#A8E4F9" x="24" y="244" width="10.3083685" height="1.96862962"></rect>
            <rect id="Rectangle-50" fill="#A8E4F9" x="37" y="244" width="3.43612285" height="1.96862962"></rect>
            <rect id="Rectangle-50" fill="#A8E4F9" x="44" y="244" width="3.43612285" height="1.96862962"></rect>
            <rect id="Rectangle-50" fill="#A8E4F9" x="15" y="233" width="10.3083685" height="1.96862962"></rect>
            <rect id="Rectangle-50" fill="#A8E4F9" x="28" y="233" width="4.29515356" height="1.96862962"></rect>
            <rect id="Rectangle-50" fill="#A8E4F9" x="34" y="233" width="1.71806142" height="1.96862962"></rect>
            <rect id="Rectangle-50" fill="#A8E4F9" x="14" y="253" width="18.0396449" height="1.96862962"></rect>
            <rect id="Rectangle-50" fill="#A8E4F9" x="19" y="258" width="10.3083685" height="1.96862962"></rect>
            <rect id="Rectangle-50" fill="#A8E4F9" x="24" y="263" width="10.3083685" height="1.96862962"></rect>
            <rect id="Rectangle-50" fill="#A8E4F9" x="17" y="266" width="4.29515356" height="1.96862962"></rect>
            <rect id="Rectangle-50" fill="#A8E4F9" x="38" y="263" width="10.3083685" height="1.96862962"></rect>
            <rect id="Rectangle-50" fill="#A8E4F9" x="50" y="263" width="4.29515356" height="1.96862962"></rect>
            <g id="Rectangle-4">
                <use fill="#6DD8FE" fill-rule="evenodd" xlink:href="#path-3"></use>
                <rect stroke="#21B2EE" stroke-width="2" x="212.172862" y="220" width="99" height="61.6320824"></rect>
            </g>
            <polyline id="Path-69" stroke="#1DAFEC" stroke-width="2" points="105.895915 248 105.193232 273.999416 90 293.389924"></polyline>
            <path d="M112,249 L112,309.769843" id="Path-70" stroke="#1DAFEC" stroke-width="2" fill="#7C7C7C"></path>
            <path d="M112.286888,313.932897 C110.47159,313.932897 109,312.380915 109,310.466449 C109,308.551982 110.47159,307 112.286888,307 C114.102187,307 115.573777,308.551982 115.573777,310.466449 C115.573777,312.380915 114.102187,313.932897 112.286888,313.932897" id="Oval-21" stroke="#1DAFEC" stroke-width="2" fill="#3CC8FC"></path>
            <path d="M90.2868884,296.932897 C88.4715901,296.932897 87,295.380915 87,293.466449 C87,291.551982 88.4715901,290 90.2868884,290 C92.1021867,290 93.5737768,291.551982 93.5737768,293.466449 C93.5737768,295.380915 92.1021867,296.932897 90.2868884,296.932897" id="Oval-21" stroke="#1DAFEC" stroke-width="2" fill="#3CC8FC"></path>
            <polyline id="Path-69" stroke="#1DAFEC" stroke-width="2" transform="translate(217.694962, 102.947957) scale(-1, 1) rotate(90.000000) translate(-217.694962, -102.947957) " points="225.642919 80.2529953 224.940236 106.252411 209.747005 125.642919"></polyline>
            <path d="M247.056641,122 L198,122" id="Path-70" stroke="#1DAFEC" stroke-width="2" fill="#7C7C7C"></path>
            <path d="M244.5,125 C242.567003,125 241,123.432997 241,121.5 C241,119.567003 242.567003,118 244.5,118 C246.432997,118 248,119.567003 248,121.5 C248,123.432997 246.432997,125 244.5,125" id="Oval-21" stroke="#1DAFEC" stroke-width="2" fill="#3CC8FC"></path>
            <path d="M240.5,97 C238.567003,97 237,95.4329966 237,93.5 C237,91.5670034 238.567003,90 240.5,90 C242.432997,90 244,91.5670034 244,93.5 C244,95.4329966 242.432997,97 240.5,97" id="Oval-21" stroke="#1DAFEC" stroke-width="2" fill="#3CC8FC"></path>
            <g id="Rectangle-5">
                <use fill="#6DD8FE" fill-rule="evenodd" xlink:href="#path-4"></use>
                <rect stroke="#21B2EE" stroke-width="2" x="89" y="103" width="114.003906" height="151.797004" rx="8"></rect>
            </g>
            <g id="Rectangle-4">
                <use fill="#A8E4F9" fill-rule="evenodd" xlink:href="#path-5"></use>
                <rect stroke="#21B2EE" stroke-width="2" x="89" y="117.03137" width="114.003906" height="117.96863"></rect>
            </g>
            <g id="Group-8" transform="translate(224.000000, 232.000000)">
                <path d="M0.736519716,40.4056381 L76.4016677,40.3145541 C76.4016677,40.3145541 76.4759047,39.5539398 76.4759047,39.1407747 C76.4759047,17.5239217 59.4969251,0 38.5522923,0 C17.6076595,0 0.628679862,17.5239217 0.628679862,39.1407747 C0.628679862,39.5907543 0.736519716,40.4056381 0.736519716,40.4056381 Z" id="Oval-14" stroke="#21B2EE" stroke-width="2" fill="#CCF2FF"></path>
                <g id="Rectangle-3">
                    <use fill="#BBE8F8" fill-rule="evenodd" xlink:href="#path-6"></use>
                    <rect stroke="#21B2EE" stroke-width="2" x="1" y="39.830572" width="75.327623" height="9.35495096"></rect>
                </g>
                <path d="M58.1600139,20.3772432 C58.6542168,21.2205394 37.7312652,39.2117706 37.7312652,39.2117706 L36.6288741,38.1090683 C36.6288741,38.1090683 57.665811,19.5339469 58.1600139,20.3772432 Z" id="Path-26" stroke="#1DAFEC" stroke-width="2" fill="#47CDFD"></path>
                <path d="M3.67879245,31.9207457 L8.17283817,34.6956836" id="Path-27" stroke="#21B2EE" stroke-width="2"></path>
                <path d="M67.8974251,35.3265141 L71.8694811,33.2011714" id="Path-27" stroke="#21B2EE" stroke-width="2"></path>
                <path d="M8.55897259,21.6773399 L11.3162376,23.3407325" id="Path-27" stroke="#21B2EE" stroke-width="2"></path>
                <path d="M68.8858869,21.6773399 L66.0113855,23.9715631" id="Path-27" stroke="#21B2EE" stroke-width="2"></path>
                <polyline id="Path-27" stroke="#21B2EE" stroke-width="2" points="15.8792428 13.3545728 16.5881019 14.1104981 19.6602979 17.3116011"></polyline>
                <path d="M62.7046181,13.3545728 L58.4672272,17.6632571" id="Path-27" stroke="#21B2EE" stroke-width="2"></path>
                <path d="M24.419558,6.9524442 L26.4045542,9.46245909" id="Path-27" stroke="#21B2EE" stroke-width="2"></path>
                <path d="M53.252598,6.80755165 L50.9230688,9.46245906" id="Path-27" stroke="#21B2EE" stroke-width="2"></path>
                <path d="M38.3494716,2.82644883 L38.3494716,8.20079803" id="Path-31" stroke="#21B2EE" stroke-width="2"></path>
                <path d="M36.6109308,43.179547 C38.9642603,43.179547 40.8720109,41.2324446 40.8720109,38.830572 C40.8720109,36.4286995 38.9642603,34.4815971 36.6109308,34.4815971 C34.2576013,34.4815971 32.3498508,36.4286995 32.3498508,38.830572 C32.3498508,41.2324446 34.2576013,43.179547 36.6109308,43.179547 Z" id="Oval-9" stroke="#1DAFEC" stroke-width="2" fill="#47CDFD"></path>
            </g>
            <path d="M8,214.10791 L8.00000001,180.485352 C8.00000001,180.485352 8.00000001,163.15918 24.3793945,163.15918 L46.8974609,163.15918 C46.8974609,163.15918 65.0693359,165.251465 65.0693359,144.42041 L65.0693359,131.075195 C65.0693359,131.075195 64.4399414,118 76.6572266,118 C88.8745117,118 88.9384766,118 88.9384766,118" id="Path-64" stroke="#21B2EE" stroke-width="2"></path>
            <circle id="Oval-11" stroke="#21B2EE" stroke-width="2" fill="#6DD8FE" cx="47" cy="188" r="15"></circle>
            <path d="M271.049805,220.748047 L271.049805,220.486328 C271.049805,220.486328 272.563477,202.986328 258.183594,202.800781 C243.803711,202.615234 239.4646,202.800781 239.4646,202.800781 C239.4646,202.800781 226.888357,204.360352 227.613699,189.137939 C227.719897,186.90922 227.731371,179.258234 227.613698,177.515921 C226.927652,167.358038 222.667511,165 217.522217,165 L203,165" id="Path-68" stroke="#21B2EE" stroke-width="2"></path>
            <path d="M88.5273438,188.027832 L62,188.027832" id="Path-79" stroke="#21B2EE" stroke-width="2"></path>
            <polygon id="Path-80" stroke="#21B2EE" stroke-width="2" fill="#A8E4F9" points="42.277832 182 42 195.764648 54.3613281 188.72168"></polygon>
            <g id="Group-2" transform="translate(117.000000, 34.364695)">
                <polygon id="Path-2" stroke="#21B2EE" stroke-width="2" fill="#A8E4F9" transform="translate(39.465999, 18.526824) rotate(36.000000) translate(-39.465999, -18.526824) " points="36.9993744 30.0262325 38.8545055 7.02741612 40.1407741 7.02741612 41.9326243 30.0262325"></polygon>
                <path d="M44.1030299,16.5450848 C46.4870188,16.5450848 48.4196236,14.5429057 48.4196236,12.0730927 C48.4196236,9.60327969 46.4870188,7.60110064 44.1030299,7.60110064 C41.7190411,7.60110064 39.7864362,9.60327969 39.7864362,12.0730927 C39.7864362,14.5429057 41.7190411,16.5450848 44.1030299,16.5450848 Z" id="Oval-5" stroke="#21B2EE" stroke-width="2" fill="#A8E4F9" transform="translate(44.103030, 12.073093) rotate(46.000000) translate(-44.103030, -12.073093) "></path>
                <g id="Rectangle-5">
                    <use fill="#A8E4F9" fill-rule="evenodd" xlink:href="#path-7"></use>
                    <rect stroke="#21B2EE" stroke-width="2" x="25.0495933" y="42.5256407" width="4.78321863" height="26.1096645"></rect>
                </g>
                <path d="M54.8824053,49.7889645 C42.9618234,60.8187973 24.533985,59.9020071 13.7219801,47.7408406 C2.91035066,35.5796742 3.80937952,16.7795369 15.7299614,5.7497041 L54.8824053,49.7889645 Z" id="Fill-1" stroke="#21B2EE" stroke-width="2" fill="#A8E4F9" transform="translate(30.524484, 31.623373) rotate(-15.000000) translate(-30.524484, -31.623373) "></path>
            </g>
            <g id="Page-1" transform="translate(180.998985, 31.312130) rotate(-21.000000) translate(-180.998985, -31.312130) translate(163.225235, 5.183456)" stroke="#21B2EE" stroke-width="2">
                <path d="M0.00398303315,18.0547739 C5.37208384,18.2726683 10.5039865,21.6320693 13.127649,27.2956927 C15.7513115,32.9593161 15.1838363,39.452525 12.1560887,44.286563" id="Stroke-1"></path>
                <path d="M4.80169636,9.23107394 C12.3324129,9.53668612 19.5318524,14.2496457 23.2125176,22.1948623 C26.8931829,30.1400789 26.0967904,39.2491879 21.8492924,46.030512" id="Stroke-3"></path>
                <path d="M5.60521977,0.116599208 C16.6069569,0.362488696 27.030726,6.90842145 32.2420752,18.1575155 C37.4532102,29.4066096 36.0953385,42.430354 29.7417582,52.2185752" id="Stroke-5"></path>
            </g>
            <path d="M127.031694,61.5652042 C127.031694,63.7459974 127.834652,75.9553126 138.023316,80.902352" id="Path-81" stroke="#21B2EE" stroke-width="2"></path>
            <path d="M132,255.263672 L132,309" id="Path-101" stroke="#21B2EE" stroke-width="2"></path>
            <g id="Group-5" transform="translate(217.000000, 298.000000)" stroke="#21B2EE" stroke-width="2">
                <path d="M6.91833221,38.1418536 L2.54159741,38.1418536 C1.88665642,38.1418536 0.137383657,36.5691154 0.736660572,34.5963017 C1.33593749,32.6234879 2.66867238,32.2238061 3.16732463,32.2238061 C3.66597689,32.2238061 7.35298602,32.2238061 7.35298602,32.2238061" id="Path-72" fill="#6DD8FE"></path>
                <path d="M3.36589927,31.8965804 C3.36589927,31.8965804 10.2031042,5.60507673 10.8284367,4.98094303 C11.4537691,4.35680934 11.5733876,-0.948604494 19.1042221,0.773768271" id="Path-73"></path>
                <path d="M16.5640065,25.8007419 C0.708632007,28.2191123 7.73592328,43.3556341 10.9837828,45.8720546 C13.8090747,48.0610723 18.3072902,49.4787799 22.9992552,48.6815256 C23.7010138,48.5622834 24.4071066,48.3934925 25.1125845,48.1703228 C30.5348951,46.455038 33.145184,42.1725362 33.9448129,38.1221645 C34.7444419,34.0717928 32.419381,23.3823714 16.5640065,25.8007419 Z" id="Path-71" fill="#A8E4F9"></path>
                <path d="M23.4464137,31.0722105 L13.4667553,40.9760506" id="Path-74"></path>
                <path d="M25.1192965,36.3426947 L14.0383976,47.3579653" id="Path-75"></path>
                <g id="Group-4" transform="translate(59.000000, 24.554115) scale(-1, 1) translate(-59.000000, -24.554115) translate(42.000000, 0.054115)">
                    <path d="M6.30475428,37.3696604 L1.92801948,37.3696604 C1.27307849,37.3696604 -0.476194274,35.7969223 0.123082641,33.8241085 C0.722359556,31.8512947 2.05509445,31.4516129 2.5537467,31.4516129 C3.05239896,31.4516129 6.73940809,31.4516129 6.73940809,31.4516129" id="Path-72" fill="#6DD8FE"></path>
                    <path d="M3.23404255,31.4651397 C3.23404255,31.4651397 10.0712475,5.17363604 10.69658,4.54950235 C11.3219124,3.92536865 11.4415309,-1.38004518 18.9723654,0.342327581" id="Path-73"></path>
                    <path d="M16.4320119,25.3520264 C0.576637388,27.7703969 7.60392866,42.9069187 10.8517882,45.4233391 C13.6770801,47.6123568 18.1752955,49.0300645 22.8672606,48.2328101 C23.5690192,48.1135679 24.2751119,47.9447771 24.9805899,47.7216073 C30.4029005,46.0063226 33.0131894,41.7238208 33.8128183,37.673449 C34.6124473,33.6230773 32.2873863,22.933656 16.4320119,25.3520264 Z" id="Path-71" fill="#A8E4F9"></path>
                </g>
                <path d="M31.5852103,30.2423293 L28.2345101,33.6071384" id="Path-76"></path>
                <path d="M59.2988073,30.0383503 L49.3191489,39.9421904" id="Path-74"></path>
                <path d="M61.2085584,35.6835116 L50.1276596,46.6987822" id="Path-75"></path>
                <path d="M67.2230406,29.2318987 L63.8723404,32.5967078" id="Path-76"></path>
                <path d="M33.9574468,37.9653404 C35.1046792,35.1661894 40.9776326,34.1835234 42.6901907,37.9653404" id="Path-77"></path>
            </g>
            <g id="Group-11" transform="translate(130.000000, 269.000000)">
                <path d="M2,9.16998019e-09 C3.69530321,1.03013679 35.4168458,37.2211539 35.4168458,37.2211539 L71.0840085,0" id="Path-37" stroke="#21B2EE" stroke-width="2" fill="#6DD8FE" transform="translate(36.542004, 18.610577) scale(1, -1) translate(-36.542004, -18.610577) "></path>
                <g id="Rectangle-8">
                    <use fill="#6DD8FE" fill-rule="evenodd" xlink:href="#path-8"></use>
                    <rect stroke="#21B2EE" stroke-width="2" x="1.92575716" y="37" width="69.0742428" height="44"></rect>
                </g>
                <path d="M1.92575716,80.5131189 L5.02829107,79.3871262 L36.0481832,59 L71.0097656,80.8808594" id="Path-38" stroke="#21B2EE" stroke-width="2"></path>
            </g>
            <polyline id="Path-40" stroke="#21B2EE" stroke-width="2" points="132 306 166.458496 328.1875 200.916992 306"></polyline>
            <polygon id="Path-41" stroke="#21B2EE" stroke-width="2" fill="#CCF2FF" points="141.542969 275 141 311.8125 166.991211 328.520508 190.429688 312.90918 190.179688 275"></polygon>
            <g id="Group" transform="translate(149.000000, 287.000000)" stroke="#21B2EE" stroke-width="2">
                <ellipse id="Oval" fill="#A8E4F9" cx="15.9424633" cy="12.6595745" rx="12.5442014" ry="12.6595745"></ellipse>
                <path d="M8.74660349,2.19809634 C8.74660349,2.19809634 5.68221237,0.538999846 4.13471311,2.19809637 C2.58721386,3.8571929 8.30016076,8.77628241 16.1314998,11.3391996 C23.9628389,13.9021167 31.2648803,14.7140712 32.6210772,12.8119017 C33.9772741,10.9097322 28.6399753,9.52404094 28.3596535,9.5240408" id="Path-65"></path>
                <path d="M4.1771865,8.27741408 C0.996301525,7.28518221 -0.720554244,9.11777989 1.88015986,12.39703 C4.48087397,15.6762801 15.052758,23.7736481 34.2762961,19.8818176" id="Path-66"></path>
                <polyline id="Path-67" points="32.3344726 23.4983483 34.6653928 19.8106815 31.5913086 17.1311607"></polyline>
            </g>
            <circle id="Oval-22" stroke="#21B2EE" stroke-width="2" fill="#6DD8FE" cx="143" cy="245" r="5"></circle>
            <path d="M20,287 L49.8808594,287.041016" id="Path-47" stroke="#21B2EE" stroke-width="2"></path>
            <g id="Group-21" transform="translate(96.000000, 125.000000)" stroke="#21B2EE" stroke-width="2">
                <path d="M58.3594328,10.7663412 C56.2426421,5.57271259 50.9797844,-0.0246374993 50.9797844,8.15776426e-05 C50.9797844,0.0248006546 46.1609068,5.62937971 43.9875911,10.7663413 C41.7260719,16.111785 40.6341463,20.9969668 40.6341463,20.9969668 L40.7943485,66.1068465 L61.3254224,66.2773927 L60.996018,20.8049953 C60.996018,20.8049953 60.4874131,15.9874238 58.3594328,10.7663412 Z" id="Path-48" fill="#6DD8FE"></path>
                <path d="M40.5381971,19.9285714 L60.9846699,19.9285714" id="Path-49"></path>
                <path d="M51.7688253,7.34997571 C51.7688253,7.34997571 56.5856895,16.1575263 55.9912316,16.9828325" id="Path-50"></path>
                <path d="M40.2655264,47 L34.0900012,51.9355536 L34.0324952,60.5491065 L34,65.4164109 L40.2655264,65.4164109 L40.2655264,47 Z" id="Path-52" fill="#6DD8FE"></path>
                <path d="M67.63138,47.1607143 L61.4558549,52.0962678 L61.3983489,60.7098207 L61.3658537,65.5771252 L67.63138,65.5771252 L67.63138,47.1607143 Z" id="Path-52" fill="#6DD8FE" transform="translate(64.498617, 56.368920) scale(-1, 1) translate(-64.498617, -56.368920) "></path>
                <path d="M98.8625753,109.862148 L3.23539943,109.862148 L4.8968216,106.908015 C4.8968216,106.908015 -0.992044618,101.593461 0.615067647,95.8746034 C2.22217991,90.155746 5.46810718,86.5903332 13.0927739,86.5903323 C20.7174405,86.5903313 23.0266635,96.9520629 23.0266635,96.9520629 C23.0266635,96.9520629 25.4711753,90.1356927 31.7298588,91.8522952 C33.7392853,92.4034313 34.9524154,93.4665689 35.7611632,94.3419547 C37.4713912,96.1930995 37.0844021,98.2393005 37.0844021,98.2393005 C37.9665586,93.2189201 42.854828,94.8086668 44.4361502,94.8086665 C46.0174723,94.8086663 46.6330784,90.8458258 46.6330784,90.8458258 L46.6330784,66.2423823 L57.0291171,66.2518095 L57.0291171,90.8458258 C57.0291171,90.8458258 58.7629903,94.8086665 58.7629913,94.8086665 C58.7629924,94.8086665 64.9919259,92.0836659 65.6357426,96.6469653 C66.2795593,101.210265 66.5021314,92.9921029 72.5889126,92.0836662 C78.6756939,91.1752296 79.6575774,96.2721112 80.7799851,96.6469653 C82.2894053,97.1510712 81.7217987,88.4630172 89.6666586,87.7944214 C97.6115186,87.1258257 100.286785,91.5995639 101.37046,96.6469653 C102.291205,100.935491 98.2559667,106.451225 98.2559672,106.451225 C98.2559682,106.451225 98.8625753,109.862148 98.8625753,109.862148 Z" id="Path-53" fill="#CCF2FF"></path>
                <path d="M47.1010847,107.023712 C47.1010847,107.023712 49.451916,101.049455 54.99599,105.347389" id="Path-78"></path>
                <path d="M45.5224636,100.517248 C45.5224636,100.517248 49.9244223,99.7433635 49.9244223,103.880178" id="Path-97"></path>
                <path d="M90.6346655,103.175711 C90.6346655,103.175711 85.1526923,102.517523 83.4309694,109.47392" id="Path-115"></path>
                <path d="M21.789147,102.397541 C21.789147,102.397541 23.7712646,99.8474751 22.8109518,96.2934309" id="Path-123"></path>
                <path d="M39.6867858,102.605796 C39.6867858,102.605796 36.1931044,101.148012 37.2756536,97.8407882" id="Path-125"></path>
                <path d="M83.4548044,101.245894 C83.4548044,101.245894 80.6652172,98.5214408 81.7956323,95.1105183" id="Path-128"></path>
                <path d="M50,67.9443359 L50,94.9433674" id="Path-129"></path>
                <path d="M53,95.8293723 L53,68.1702799" id="Path-130"></path>
                <ellipse id="Oval-23" fill="#A8E4F9" cx="51.415548" cy="29.6901999" rx="4.14725533" ry="3.94912846"></ellipse>
                <path d="M77.931896,86.6790154 C80.2223619,86.6790154 82.0791513,84.9109303 82.0791513,82.7298869 C82.0791513,80.5488435 80.2223619,78.7807584 77.931896,78.7807584 C75.6414301,78.7807584 73.7846407,80.5488435 73.7846407,82.7298869 C73.7846407,84.9109303 75.6414301,86.6790154 77.931896,86.6790154 Z" id="Oval-23" fill="#CCF2FF"></path>
                <ellipse id="Oval-23" fill="#BAE7F7" cx="27.4736228" cy="86.8984114" rx="2.07362767" ry="1.97456423"></ellipse>
                <ellipse id="Oval-23" fill="#A8E4F9" cx="19.0731707" cy="82.4362625" rx="1" ry="1"></ellipse>
                <ellipse id="Oval-23" fill="#A8E4F9" cx="66.3414634" cy="88.3700088" rx="1" ry="1"></ellipse>
                <ellipse id="Oval-23" fill="#A8E4F9" cx="51.415548" cy="42.145557" rx="4.14725533" ry="3.94912846"></ellipse>
                <path d="M61.8343417,102.922097 C65.6020865,102.105931 65.8422853,99.8352573 65.8422853,98.0527344" id="Path-126"></path>
            </g>
            <g id="Group-22" transform="translate(217.000000, 226.000000)" stroke="#21B2EE" stroke-width="2">
                <circle id="Oval-24" fill="#A6E1F6" cx="4.5" cy="4.5" r="4.5"></circle>
                <path d="M2,8 L6.76680586,1" id="Path-124"></path>
            </g>
            <g id="Group-22" transform="translate(297.000000, 227.000000)" stroke="#21B2EE" stroke-width="2">
                <circle id="Oval-24" fill="#A6E1F6" cx="4.5" cy="4.5" r="4.5"></circle>
                <path d="M2,8 L6.76680586,1" id="Path-124"></path>
            </g>
            <path d="M203.892578,147.712891 L257.828125,147.886719" id="Path-127" stroke="#21B2EE" stroke-width="2"></path>
            <circle id="Oval-25" stroke="#21B2EE" stroke-width="2" fill="#6DD8FE" cx="277.5" cy="150.5" r="31.5"></circle>
            <path d="M277.5,175 C291.030976,175 302,164.030976 302,150.5 C302,136.969024 291.030976,126 277.5,126 C263.969024,126 253,136.969024 253,150.5 C253,164.030976 263.969024,175 277.5,175 Z" id="Oval-25" stroke="#21B2EE" stroke-width="2" fill="#A6E1F6"></path>
            <path d="M277.040039,170 C287.533449,170 296.040039,161.49341 296.040039,151 C296.040039,140.50659 287.533449,132 277.040039,132 C266.546629,132 258.040039,140.50659 258.040039,151" id="Oval-25" stroke="#21B2EE" stroke-width="2" fill="#A6E1F6" transform="translate(277.040039, 151.000000) rotate(88.000000) translate(-277.040039, -151.000000) "></path>
            <g id="Rectangle-2">
                <use fill="#6DD8FE" fill-rule="evenodd" xlink:href="#path-9"></use>
                <rect stroke="#21B2EE" stroke-width="2" x="270" y="105" width="17" height="7" rx="3.5"></rect>
            </g>
            <g id="Rectangle-2" transform="translate(306.196266, 118.020140) rotate(37.000000) translate(-306.196266, -118.020140) ">
                <use fill="#6DD8FE" fill-rule="evenodd" xlink:href="#path-10"></use>
                <rect stroke="#21B2EE" stroke-width="2" x="299.696266" y="115.52014" width="13" height="5" rx="2.5"></rect>
            </g>
            <path d="M278.040039,112.615723 L278.040039,118.73291" id="Path-131" stroke="#21B2EE" stroke-width="2"></path>
            <path d="M298.784668,126.963867 L305.027344,120.05957" id="Path-132" stroke="#21B2EE" stroke-width="2"></path>
            <path d="M284,151.441406 L256.210938,151.441406" id="Path-133" stroke="#21B2EE" stroke-width="2"></path>
            <path d="M277,155 C279.209139,155 281,153.209139 281,151 C281,148.790861 279.209139,147 277,147 C274.790861,147 273,148.790861 273,151 C273,153.209139 274.790861,155 277,155 Z" id="Oval-25" stroke="#21B2EE" stroke-width="2" fill="#A6E1F6"></path>
            <g id="Group-29" transform="translate(102.000000, 124.000000)">
                <path d="M1,0.5 L1,46.2636719" id="Path-112" stroke="#FFFFFF" stroke-width="2"></path>
                <g id="Group-28" transform="translate(0.000000, 1.000000)">
                    <path d="M1,48 L1,64.2636719" id="Path-112" stroke="#FFFFFF" stroke-width="2"></path>
                    <g id="Group-27" transform="translate(1.000000, 0.000000)">
                        <path d="M4.5,0.5 L0,48.2636719" id="Path-112"></path>
                    </g>
                    <path d="M1,68 L1,75.7304688" id="Path-112" stroke="#FFFFFF" stroke-width="2"></path>
                </g>
            </g>
        </g>
    </g>
</svg>