<svg id="Layer_1" data-name="Layer 1" xmlns="http://www.w3.org/2000/svg" xmlns:xlink="http://www.w3.org/1999/xlink" viewBox="0 0 500 229"><defs><style>.cls-1{fill:none;}.cls-2{clip-path:url(#clip-path);}.cls-3{fill:#ff4a00;}</style><clipPath id="clip-path"><rect class="cls-1" x="0.06" y="0.28" width="499.94" height="228.66"/></clipPath></defs><title>Artboard 1</title><g class="cls-2"><path class="cls-3" d="M0,180.31,51.76,99.78H6.14a46,46,0,0,1-.58-7.66,44.8,44.8,0,0,1,.58-7.48H80l1,2.49L28.76,167.84H77.64a52.12,52.12,0,0,1,.58,7.86,43.6,43.6,0,0,1-.58,7.29H1l-1-2.68"/><path class="cls-3" d="M149.35,118.19q0-11.31-5.75-15.72t-16.68-4.41a71.06,71.06,0,0,0-12.56,1A97.39,97.39,0,0,0,103,101.89a29.84,29.84,0,0,1-3.64-15.15,87.86,87.86,0,0,1,14.38-3.25,104.08,104.08,0,0,1,15.14-1.15q19.17,0,29.14,8.72t10,27.9V180.5q-6.7,1.53-16.29,3.16a117.26,117.26,0,0,1-19.56,1.63,76,76,0,0,1-17-1.73A34.53,34.53,0,0,1,102.28,178a25.71,25.71,0,0,1-8.15-9.77,32.78,32.78,0,0,1-2.87-14.38A29.27,29.27,0,0,1,103.72,129,40.62,40.62,0,0,1,117,122.89a59.83,59.83,0,0,1,15.72-2q6.14,0,10.06.29c2.62.19,4.83.42,6.62.67v-3.64m0,18.59q-2.88-.37-7.29-.76c-2.94-.26-5.43-.38-7.48-.38q-11.88,0-18.11,4.4t-6.23,13.42q0,5.76,2.11,9a14.43,14.43,0,0,0,5.27,5,18.33,18.33,0,0,0,7,2.11,72.16,72.16,0,0,0,7.29.38,89.8,89.8,0,0,0,9.11-.48,54.87,54.87,0,0,0,8.34-1.44Z"/><path class="cls-3" d="M188.65,84.64a37.91,37.91,0,0,1,3.93-.58c1.34-.12,2.71-.19,4.12-.19s2.62.07,4,.19a37.73,37.73,0,0,1,4,.58,11.52,11.52,0,0,1,.48,2.39c.19,1.35.38,2.79.58,4.32s.38,3,.57,4.41.29,2.3.29,2.68a38.41,38.41,0,0,1,4.6-5.94,30.64,30.64,0,0,1,6.42-5.18,33.46,33.46,0,0,1,8.44-3.64,38.14,38.14,0,0,1,10.45-1.34,43.91,43.91,0,0,1,16,2.87,32,32,0,0,1,12.64,8.92,42.71,42.71,0,0,1,8.25,15.33,72.51,72.51,0,0,1,3,22q0,25.31-13.71,39.59t-38.82,14.28a67.45,67.45,0,0,1-8.63-.57,51.11,51.11,0,0,1-7.66-1.54v45.06q-2.31.38-4.89.57c-1.73.13-3.29.19-4.7.19s-3-.06-4.7-.19a47.09,47.09,0,0,1-4.69-.57V84.64m19,82.24a37.1,37.1,0,0,0,7.47,1.92,70.19,70.19,0,0,0,10,.58,35.1,35.1,0,0,0,12.66-2.21,25.09,25.09,0,0,0,9.87-6.81,33.25,33.25,0,0,0,6.52-11.59,51.56,51.56,0,0,0,2.39-16.59q0-15.33-5.65-24.35t-18.5-9a25,25,0,0,0-9.2,1.73,22.79,22.79,0,0,0-7.87,5.18,25.5,25.5,0,0,0-5.55,8.72A33.7,33.7,0,0,0,207.63,127Z"/></g><path class="cls-3" d="M300,99.59H287.57A22.56,22.56,0,0,1,287,96c-.13-1.34-.2-2.65-.2-3.92s.07-2.59.2-3.94a22.61,22.61,0,0,1,.57-3.54h31.06V183a47.31,47.31,0,0,1-4.7.57c-1.72.13-3.29.2-4.7.2s-2.78-.07-4.5-.2-3.29-.32-4.7-.57V99.59"/><path class="cls-3" d="M359.46,138.51q.39,16.11,8.34,23.58t23.49,7.48a70.61,70.61,0,0,0,25.88-4.79,28.83,28.83,0,0,1,2.49,7,45.68,45.68,0,0,1,1.15,8.15,64.35,64.35,0,0,1-13.89,4,97.13,97.13,0,0,1-16.78,1.34q-13.42,0-23-3.74a40.43,40.43,0,0,1-24.92-26.65,69.07,69.07,0,0,1-2.88-20.42,72.38,72.38,0,0,1,2.78-20.41,45.94,45.94,0,0,1,8.53-16.49,41.22,41.22,0,0,1,14.48-11.12q8.72-4.12,20.61-4.12a43.1,43.1,0,0,1,17.83,3.45,36.17,36.17,0,0,1,12.84,9.49,41.21,41.21,0,0,1,7.86,14.37A58.87,58.87,0,0,1,427,127.77c0,1.8-.07,3.68-.19,5.66s-.26,3.68-.39,5.08H359.46m48.7-14.19a36.12,36.12,0,0,0-1.44-10.25,26.13,26.13,0,0,0-4.21-8.54,20.64,20.64,0,0,0-7.1-5.84,22.28,22.28,0,0,0-10.26-2.21q-11.68,0-17.92,7.1t-7.58,19.74Z"/><path class="cls-3" d="M447.85,84.64c1.41-.26,2.75-.45,4-.58s2.62-.19,4-.19,2.81.07,4.21.19a30,30,0,0,1,3.84.58c.38,1.91.77,4.44,1.15,7.57a68,68,0,0,1,.58,8,39.75,39.75,0,0,1,10.63-11.32q6.62-4.78,17-4.79c1,0,2.08,0,3.16.1a24.91,24.91,0,0,1,2.78.29,30.44,30.44,0,0,1,.58,3.64,39.91,39.91,0,0,1,.19,4,42.24,42.24,0,0,1-.29,4.79c-.19,1.66-.41,3.26-.67,4.79a13.27,13.27,0,0,0-3.16-.38h-2.59a33.8,33.8,0,0,0-9.87,1.43,20.69,20.69,0,0,0-8.44,5.08,25.32,25.32,0,0,0-5.94,10q-2.21,6.31-2.21,16.29V183a47.09,47.09,0,0,1-4.69.57c-1.73.13-3.29.2-4.7.2s-3-.07-4.7-.2-3.35-.32-4.89-.57V84.64"/><path class="cls-3" d="M336.73,26.8H318.15l13.13-13.14a31.75,31.75,0,0,0-3.43-4.06h0a33.5,33.5,0,0,0-4.07-3.44L310.65,19.3V.72a31.82,31.82,0,0,0-5.29-.44h0A31.74,31.74,0,0,0,300,.72V19.3L286.9,6.16a32.66,32.66,0,0,0-4.06,3.44h0a32.36,32.36,0,0,0-3.43,4.05L292.54,26.8H274s-.44,3.49-.44,5.29v0a31.82,31.82,0,0,0,.44,5.29h18.58L279.4,50.54a32.21,32.21,0,0,0,7.5,7.51L300,44.91V63.49a31.7,31.7,0,0,0,5.28.44h0a31.74,31.74,0,0,0,5.29-.44V44.91l13.13,13.14a32.62,32.62,0,0,0,4.07-3.44h0a32.54,32.54,0,0,0,3.43-4.07L318.15,37.41h18.58a31.7,31.7,0,0,0,.44-5.28v-.05a31.7,31.7,0,0,0-.44-5.28M313.3,32.12a19.21,19.21,0,0,1-1.22,6.72,19,19,0,0,1-6.72,1.22h0a19,19,0,0,1-6.72-1.22,19,19,0,0,1-1.22-6.72v0a19,19,0,0,1,1.22-6.72,19,19,0,0,1,6.72-1.22h0a19,19,0,0,1,6.72,1.22,19.21,19.21,0,0,1,1.22,6.72Z"/></svg>