<svg xmlns="http://www.w3.org/2000/svg" viewBox="0 0 480 480" enable-background="new 0 0 480 480">
<circle fill="#E1E2E2" cx="407.6" cy="119.2" r="28.4"/><path fill="#FFFFFF" d="M267.7 140.7c-1.2 0-2.4 0-4.4 0.1c-63 1.9-114.2 53.9-114.2 117.8s51.2 115.9 114.2 117.8 c2 0 3.2 0.1 4.4 0.1c65.1 0 118.6-52.8 118.6-117.9C386.3 193.4 332.7 140.7 267.7 140.7z"/><path fill="none" stroke="#4DCDF6" stroke-width="7.2752" stroke-miterlimit="10" d="M184.5 260.6c0-44.7 36.3-80.9 81-80.8 c39.4 0 72.1 28.2 79.3 65.4"/><polygon fill="#4DCDF6" points="333.4,243.2 346.3,260.8 355.1,240.8"/><path fill="none" stroke="#4DCDF6" stroke-width="7.2752" stroke-miterlimit="10" d="M346.3 264.7c0 44.7-36.3 80.9-81 80.8 c-39.4 0-72.1-28.2-79.3-65.4"/><polygon fill="#4DCDF6" points="197.4,282.1 184.5,264.6 175.8,284.5"/><path fill="#1B2025" d="M416.9 248.8c-0.1-3-1.2-4.1-4.1-4.5c-3.3-0.4-6.6-0.8-9.9-1.2c-3.3-0.4-6.6-0.8-9.9-1.1 c-0.7-4.4-1.6-8.6-2.7-12.8c3.7-2.2 7.4-4.3 11.1-6.5c2.9-1.7 5.8-3.4 8.7-5.2c0.5-0.3 0.9-0.5 0.6-1.2c-2.2-5.5-4.3-11-6.5-16.5 c-0.2-0.5-0.5-0.7-1.1-0.5c-3.3 0.7-6.6 1.3-9.9 2c-4.2 0.8-8.4 1.7-12.6 2.5c-2-3.9-4.1-7.7-6.5-11.3c0.8-0.9 1.5-1.7 2.3-2.6 c3.7-4.2 7.4-8.5 11.2-12.7c2-2.2 2-2.2 0.5-4.7c-2.6-4.2-5.5-8.1-9.6-11.2c-1.2-0.9-2.3-1.4-3.6-0.2c-0.3 0.3-0.8 0.4-1.2 0.7 c-5.6 3.1-11.2 6.2-16.7 9.4c-3.1-3.1-6.3-6.1-9.7-8.8c3.1-7 6.1-13.9 9.2-20.9c0.3-0.8 0.2-1.1-0.5-1.6c-4.9-3.1-9.8-6.3-14.6-9.5 c-0.5-0.3-0.8-0.3-1.3 0.1c-1.2 1.3-2.3 2.5-3.5 3.7c-2.3 2.4-4.5 4.9-6.8 7.3c-1.8 1.9-3.6 3.9-5.4 5.8c-3.9-2-7.9-3.8-12-5.4 c0.4-3.6 0.7-7.1 1.1-10.7c0.4-4 0.8-8 1.2-11.9c0.1-0.8-0.2-1.2-1-1.4c-5.1-1.3-10.1-2.6-15.2-3.9c-1.6-0.4-2.7 0-3.4 1.6 c-1.9 4.1-3.8 8.3-5.8 12.4c-1.1 2.2-2.2 4.4-3.4 6.6c0 0.1-0.1 0.1-0.1 0.2c-4.2-0.7-8.4-1.1-12.8-1.4c-0.6-2.7-1.2-5.4-1.9-8.1 c-1-4.4-2-8.9-3-13.3c-0.1-0.6-0.2-1.1-1-1.1c-5.3 0.1-10.6 0.2-15.9 0.4c-1.9 0.1-2.6 0.8-3 2.7c-0.3 1.6-0.4 3.2-0.6 4.9 c-0.3 3-0.6 5.9-1 8.9c-0.2 2.1-0.5 4.2-0.8 6.3c0 0.2-0.1 0.4-0.2 0.6c-4.4 0.7-8.7 1.6-12.9 2.7c-0.1-0.1-0.1-0.1-0.2-0.2 c-0.8-1.2-1.6-2.5-2.4-3.8c-3-5.2-5.9-10.4-8.9-15.6c-0.3-0.5-0.6-0.8-1.2-0.5c-5.5 2.1-11 4.2-16.6 6.4c-0.5 0.2-0.7 0.5-0.6 1.1 c1.5 7.4 2.9 14.9 4.3 22.3c-4 2-7.8 4.2-11.6 6.6c-1.4-1.3-2.9-2.6-4.3-3.9c-2.8-2.5-5.6-5-8.4-7.5c-1.4-1.2-2.7-2.4-4.1-3.7 c-0.5-0.5-0.9-0.6-1.6 0c-2.1 1.7-4.2 3.3-6.3 5c-2.4 1.9-4.7 3.8-7.1 5.7c-0.4 0.3-1 0.6-0.5 1.4c1.3 2.2 2.5 4.4 3.7 6.6 c2.5 4.4 5 8.9 7.5 13.3c-3.1 3.1-6.1 6.4-8.9 9.8c-6.9-3-13.8-6-20.8-9c-0.6-0.3-1.1-0.2-1.5 0.4c-3.1 4.9-6.3 9.8-9.5 14.7 c-0.4 0.6-0.3 0.9 0.2 1.3c1.2 1.1 2.4 2.2 3.6 3.3c1.9 1.8 3.9 3.5 5.8 5.3c2.4 2.2 4.8 4.4 7.1 6.6c-2 3.9-3.9 8-5.5 12.2 c-1.2-0.1-2.4-0.2-3.6-0.3c-3.4-0.3-6.8-0.6-10.2-0.9c-2.8-0.3-5.6-0.5-8.4-0.8c-0.8-0.1-1.2 0.1-1.5 1c-1.4 5.6-2.9 11.1-4.4 16.7 c-0.2 0.6-0.1 1 0.5 1.2c3.1 1.4 6.1 2.8 9.1 4.2c3.8 1.7 7.5 3.5 11.3 5.2c-0.7 4.4-1.2 8.8-1.4 13.3c-0.4 0.2-0.8 0.3-1.4 0.5 c-0.3 0.1-0.6 0.2-0.9 0.2c-6.4 1.4-12.9 2.8-19.3 4.1c-1.5 0.3-1.5 0.4-1.4 1.7c0.3 3.1 0.5 6.2 0.7 9.3c0.2 2.5 0.4 5 0.6 7.5 c0 0.9 0.4 1.1 1.3 1.2c2.9 0.3 5.9 0.7 8.8 1c3.5 0.4 7 0.7 10.6 1.1c0.9 0.1 1.7 0.2 2.4 0.5c0.7 4.4 1.6 8.7 2.7 13 c-0.3 0.3-0.6 0.5-1 0.7c-0.3 0.2-0.7 0.4-1 0.6c-5.7 3.3-11.4 6.6-17.1 9.8c-1.2 0.7-1.2 0.7-0.7 2c1.6 4.1 3.2 8.1 4.8 12.2 c0.6 1.5 1.2 3 1.8 4.6c1.9-0.4 3.7-0.7 5.5-1.1c5.8-1.1 11.6-2.2 17.4-3.4c2 3.9 4.2 7.7 6.6 11.4c-1.2 1.4-2.4 2.7-3.6 4.1 c-2.2 2.5-4.4 5-6.6 7.6c-1.5 1.8-3.1 3.5-4.6 5.2c-0.5 0.6-0.6 1.1 0 1.8c1.6 1.8 3.1 3.8 4.6 5.6c2.3 2.8 4.5 5.5 6.8 8.4 c3.1-1.8 6.2-3.4 9.2-5.1c3.8-2.1 7.6-4.2 11.4-6.3c3 3 6.2 5.9 9.5 8.6c0 0.1 0 0.2-0.1 0.2c-1 2.7-2.1 5.4-3.2 8.1 c-1.3 3.2-2.8 6.4-3.8 9.7c-1.1 3.4-0.3 5.6 2.7 7.6c2.6 1.7 5.3 3.2 8 4.7c1 0.6 2.1 1 3.3 1.3c0.4 0.1 1-0.1 1.3-0.5 c2.5-2.7 5-5.4 7.5-8.1c2.4-2.6 4.9-5.2 7.3-7.9c3.9 2 8 3.8 12.1 5.4c-0.3 2.8-0.5 5.5-0.7 8.3c-0.4 4.8-0.9 9.6-1.4 14.4 c-0.1 0.7 0.1 1.1 0.9 1.3c5.5 1.4 11 2.7 16.5 4.2c0.9 0.2 1.3 0.1 1.7-0.8c1.5-3.4 3-6.9 4.6-10.3c1.4-3.1 2.9-6.2 4.3-9.3 c0.1-0.3 0.3-0.5 0.4-0.7c4.2 0.7 8.6 1.1 12.9 1.4c0.4 0.7 0.7 1.4 0.9 2.3c0.1 0.6 0.1 1.3 0.3 1.9c1.6 5.9 3.1 11.7 4.7 17.6 c0.2 0.6 0.5 0.8 1.2 0.8c3.4-0.1 6.9-0.2 10.3-0.4c1.6-0.1 3.3-0.1 4.9-0.2c1.1-0.1 2.5-0.7 2.5-2.5c0-1.1 0.3-2.3 0.4-3.4 c0.4-3.4 0.9-6.8 1.3-10.2c0.3-2.4 0.6-4.9 0.9-7.3c4.3-0.7 8.5-1.6 12.6-2.7c0.2 0.2 0.4 0.4 0.5 0.7c0.4 0.7 0.9 1.3 1.3 2 c3.3 5.6 6.6 11.2 9.8 16.9c0.3 0.6 0.6 0.9 1.4 0.6c5.4-2.1 10.9-4.2 16.4-6.3c0.6-0.2 0.8-0.6 0.6-1.2c-1.5-7.5-2.9-15-4.4-22.5 c3.9-2 7.7-4.2 11.3-6.5c1.7 1.5 3.3 3 5 4.5c4 3.6 8.1 7.1 12.1 10.7c0.5 0.5 0.9 0.7 1.6 0.1c3.4-2.8 6.9-5.6 10.3-8.4 c1.3-1.1 2.7-2.2 4-3.3c-0.7-1.2-1.4-2.4-2-3.5c-2.8-5-5.6-10-8.5-15c-0.5-0.9-0.8-1.8-1-2.6c2.8-2.8 5.4-5.7 7.9-8.7 c1.1 0 2.3 0.3 3.4 0.7c3.3 1.2 6.5 2.8 9.7 4.2c3.1 1.4 6.2 2.8 9.4 4.2c0.6-0.9 1.2-1.8 1.7-2.7c2.6-4.1 5.2-8.1 7.8-12.2 c0.2-0.4 0.4-1 0.3-1.3c-0.2-0.6-0.6-1.3-1.1-1.7c-2.2-2.1-4.4-4.1-6.6-6.2c-2.7-2.5-5.5-5-8.1-7.6c-0.3-0.3-0.7-0.7-0.9-1.1 c1.9-3.7 3.6-7.6 5.2-11.5c0.8 0 1.6 0.1 2.5 0.2c2.9 0.2 5.9 0.5 8.8 0.7c2 0.2 4 0.4 6 0.5c1.9 0.2 3.9 0.3 5.8 0.5 c0.6 0 1-0.1 1.2-0.8c1.5-5.6 3.1-11.3 4.5-16.9c0.1-0.3-0.2-0.7-0.4-0.9c-0.2-0.2-0.6-0.4-1-0.5c-6.7-3.1-13.5-6.2-20.2-9.3 c0.7-4.1 1.1-8.3 1.4-12.6c0 0 0 0 0 0c1.4-0.6 2.9-1.1 4.4-1.4c5.7-1.3 11.5-2.5 17.2-3.8c0.4-0.1 1-0.5 1-0.8 c0.2-1.2 0.4-2.4 0.4-3.6C417.2 256.2 417.1 252.5 416.9 248.8z M340.4 333.3c-18.6 19.5-41.7 30.3-68.7 31.8 c-29.5 1.6-55.4-7.8-77.1-28c-22-20.4-32.3-47.7-32.2-75.2c-0.1-58.7 46.4-100.2 96.9-103c28.9-1.6 54.4 7.4 75.8 26.8 c20.8 18.8 32.2 42.5 33.7 70.6C370.5 285.9 360.9 311.8 340.4 333.3z"/><path fill="#1B2025" d="M265.6 267.1c-2.8 0-5.1-2.3-5.1-5.1c0-2.8 2.3-5.1 5.1-5.1c2.8 0 5.1 2.3 5.1 5.1 C270.8 264.8 268.4 267.1 265.6 267.1z M265.6 261.8c-0.1 0-0.2 0.1-0.2 0.2c0 0.3 0.5 0.3 0.5 0 C265.9 261.9 265.8 261.8 265.6 261.8z"/><polygon fill="#1B2025" points="252.2,267 338.3,220.4 254.8,271.4"/><polygon fill="#1B2025" points="279.4,267 221.2,237.5 276.7,271.4"/><circle fill="#FFD239" stroke="#FFD239" stroke-width="3" stroke-miterlimit="10" cx="265.7" cy="201.6" r="1.6"/><circle fill="#FFD239" stroke="#FFD239" stroke-width="3" stroke-miterlimit="10" cx="308.7" cy="218.1" r="1.6"/><circle fill="#FFD239" stroke="#FFD239" stroke-width="3" stroke-miterlimit="10" cx="222.6" cy="218.1" r="1.6"/><circle fill="#FFD239" stroke="#FFD239" stroke-width="3" stroke-miterlimit="10" cx="309.9" cy="305.3" r="1.6"/><circle fill="#FFD239" stroke="#FFD239" stroke-width="3" stroke-miterlimit="10" cx="221.4" cy="305.3" r="1.6"/><circle fill="#FFD239" stroke="#FFD239" stroke-width="3" stroke-miterlimit="10" cx="326.4" cy="261.1" r="1.6"/><circle fill="#FFD239" stroke="#FFD239" stroke-width="3" stroke-miterlimit="10" cx="204.9" cy="261.1" r="1.6"/><circle fill="#FFD239" stroke="#FFD239" stroke-width="3" stroke-miterlimit="10" cx="265.7" cy="323.1" r="1.6"/><path fill="#1B2025" d="M465.5 116.4c-4.2-1-8.4-1.9-12.6-2.9c-2-0.5-2.2-1-2.7-3c-0.6-2.8-1.4-5.6-2.4-8.3 c-0.4-1.2-0.4-1.9 0.5-2.7c3-2.8 6-5.6 8.9-8.6c2.6-2.6 2.6-2.7 0.3-5.6c-2.4-3.1-4.8-6.1-7.2-9.2c-0.6-0.7-1.1-1.2-2.1-0.6 c-4.4 2.8-8.7 5.5-13.1 8.2c-0.4 0.2-1.2 0.2-1.6 0c-2.9-1.6-5.8-3.3-8.7-4.9c-1.3-0.7-1.9-1.6-1.8-3.1c0.1-1.9 0.1-3.8 0.1-5.6 l0.1-8.8l0 0c-0.1-0.8-0.8-1.2-2.5-1.4c-4.3-0.6-8.6-1.2-12.9-1.8c-0.9-0.1-1.3 0.2-1.5 1c-1.2 4.9-2.5 9.7-3.6 14.6 c-0.3 1.5-1 2.1-2.5 2.4c-2.9 0.7-5.8 1.7-8.7 2.6c-0.9 0.3-1.5 0-2.1-0.6c-3.7-3.8-7.3-7.6-11.1-11.3c-0.3-0.3-1.4-0.4-1.8-0.1 c-3.7 2.8-7.3 5.7-11 8.5c-0.9 0.7-1.3 1.4-0.6 2.5c2.7 4.4 5.4 8.8 8.1 13.2c0.5 0.9 0.5 1.4 0 2.3c-1.6 2.6-3.1 5.3-4.5 8 c-0.5 1-0.6 1.3-1.6 1.3c-2.5 0-6.1 0-7.1 0c0 0 0 0 0 0c-3 0-5.7 0-8.3 0c-1.3 0-2.1 0.5-2.3 1.8c-0.2 2.6-0.7 5.1-1 7.7 c-0.2 2-0.5 4-0.6 5.9c-0.1 0.9 0.2 1.4 1.1 1.6c1.9 0.4 3.9 0.9 5.8 1.3c3.2 0.8 6.4 1.5 9.5 2.4c0.3 0.1 0.5 0.1 0.7 0.2 c0.4 1.5 1.8 6.4 2.5 8.4c0 0 0 0.1 0 0.1c0 0.1 0 0.1 0.1 0.2c0 0 0 0 0 0c0.2 0.4 0.3 0.9 0.5 1.3c0.5 1.2 0.3 1.8-0.5 2.6 c-3.6 3.6-7.2 7.3-10.9 10.8c-1 0.9-0.8 1.6-0.1 2.5c2.9 3.7 5.8 7.3 8.6 11.1c0.6 0.8 1.2 0.8 1.9 0.3c4.4-2.7 8.8-5.4 13.2-8.1 c1-0.6 1.7-0.5 2.7 0.1c2.5 1.6 5 3.2 7.7 4.5c1.2 0.6 1.7 1.1 1.7 2.4c0 4.9 0 9.8-0.1 14.8c0 1.1 0.3 1.7 1.4 1.9 c3.1 0.4 6.1 0.7 9.2 1.1c1.2 0.1 2.5 0.2 3.7 0.5c1.8 0.4 2.1 0.4 2.5-1.4c1.2-4.3 2.3-8.6 3.3-13c0.6-2.7 0.6-2.7 3.3-3.3 c2.8-0.6 5.5-1.6 8.3-2.3c0.6-0.1 1.5 0 1.8 0.3c3.6 3.6 7.2 7.3 10.7 11c0.7 0.7 1.2 1 2.2 0.3c3.6-2.9 7.3-5.8 11-8.7 c0.9-0.7 1.1-1.3 0.4-2.4c-2.6-4-5-8.1-7.5-12.2c-0.7-1.1-0.6-1.9 0.2-3.1c1.6-2.4 3.1-4.9 4.3-7.5c1-2 1.1-2.3 3.3-2.2 c2.8 0.1 5.6 0.3 8.5 0.5c0 0 0-0.1 0-0.1c1.1 0 2.2 0 3.3 0c3.3 0 3.3 0 3.7-3.2c0-0.1 0-0.2 0-0.3c0.5-3.7 1-7.5 1.4-11.2 C467.8 117.2 467.4 116.8 465.5 116.4z M427.6 118.3c0.5 10.2-9.4 18.8-17.8 19.3c-13 0.7-21.3-9.6-21.1-19.3 c0.2-11.1 8.2-18.5 18.2-19.4C419 97.9 428.3 109.2 427.6 118.3z"/><path fill="#E1E2E2" d="M131.2 327.5c-4.2-1-8.4-1.9-12.6-2.9c-2-0.5-2.2-1-2.7-3c-0.6-2.8-1.4-5.6-2.4-8.3 c-0.4-1.2-0.4-1.9 0.5-2.7c3-2.8 6-5.6 8.9-8.6c2.6-2.6 2.6-2.7 0.3-5.6c-2.4-3.1-4.8-6.1-7.2-9.2c-0.6-0.7-1.1-1.2-2.1-0.6 c-4.4 2.8-8.7 5.5-13.1 8.2c-0.4 0.2-1.2 0.2-1.6 0c-2.9-1.6-5.8-3.3-8.7-4.9c-1.3-0.7-1.9-1.6-1.8-3.1c0.1-1.9 0.1-3.8 0.1-5.6 l0.1-8.8c0 0 0 0 0 0c-0.1-0.8-0.8-1.2-2.5-1.4c-4.3-0.6-8.6-1.2-12.9-1.8c-0.9-0.1-1.3 0.2-1.5 1c-1.2 4.9-2.5 9.7-3.6 14.6 c-0.3 1.5-1 2.1-2.5 2.4c-2.9 0.7-5.8 1.7-8.7 2.6c-0.9 0.3-1.5 0-2.1-0.6c-3.7-3.8-7.3-7.6-11.1-11.3c-0.3-0.3-1.4-0.4-1.8-0.1 c-3.7 2.8-7.3 5.7-11 8.5c-0.9 0.7-1.3 1.4-0.6 2.5c2.7 4.4 5.4 8.8 8.1 13.2c0.5 0.9 0.5 1.4 0 2.3c-1.6 2.6-3.1 5.3-4.5 8 c-0.5 1-1 1.3-1.9 1.3c-2.5 0-5.4 0-7.4 0c0 0 0 0 0 0c-3 0-5.4 0-7.9 0c-1.3 0-2 0.5-2.1 1.8c-0.2 2.6-0.7 5.1-0.9 7.7 c-0.2 2-0.4 4-0.6 5.9c-0.1 0.9 0.2 1.4 1.1 1.6c1.9 0.4 3.9 0.9 5.8 1.3c3.2 0.8 6.4 1.5 9.5 2.4c0.3 0.1 0.5 0.1 0.7 0.2 c0.4 1.5 1.8 6.4 2.5 8.4c0 0 0 0.1 0 0.1c0 0.1 0 0.1 0.1 0.2c0 0 0 0 0 0c0.2 0.4 0.3 0.9 0.5 1.3c0.5 1.2 0.3 1.8-0.5 2.6 c-3.6 3.6-7.2 7.3-10.9 10.8c-1 0.9-0.8 1.6-0.1 2.5c2.9 3.7 5.8 7.3 8.6 11.1c0.6 0.8 1.2 0.8 1.9 0.3c4.4-2.7 8.8-5.4 13.2-8.1 c1-0.6 1.7-0.5 2.7 0.1c2.5 1.6 5 3.2 7.7 4.5c1.2 0.6 1.7 1.1 1.7 2.4c0 4.9 0 9.8-0.1 14.8c0 1.1 0.3 1.7 1.4 1.9 c3.1 0.4 6.1 0.7 9.2 1.1c1.2 0.1 2.5 0.2 3.7 0.5c1.8 0.4 2.1 0.4 2.5-1.4c1.2-4.3 2.3-8.6 3.3-13c0.6-2.7 0.6-2.7 3.3-3.3 c2.8-0.6 5.5-1.6 8.3-2.3c0.6-0.1 1.5 0 1.8 0.3c3.6 3.6 7.2 7.3 10.7 11c0.7 0.7 1.2 1 2.2 0.3c3.6-2.9 7.3-5.8 11-8.7 c0.9-0.7 1.1-1.3 0.4-2.4c-2.6-4-5-8.1-7.5-12.2c-0.7-1.1-0.6-1.9 0.2-3.1c1.6-2.4 3.1-4.9 4.3-7.5c1-2 1.1-2.3 3.3-2.2 c2.8 0.1 5.6 0.3 8.5 0.5c0 0 0-0.1 0-0.1c1.1 0 2.2 0 3.3 0c3.3 0 3.3 0 3.7-3.2c0-0.1 0-0.2 0-0.3c0.5-3.7 1-7.5 1.4-11.2 C133.5 328.3 133.1 327.9 131.2 327.5z M93.3 329.4c0.5 10.2-9.4 18.8-17.8 19.3c-13 0.7-21.3-9.6-21.1-19.3 c0.2-11.1 8.2-18.5 18.2-19.4C84.7 309 94 320.3 93.3 329.4z"/></svg>
