<svg xmlns="http://www.w3.org/2000/svg" viewBox="0 0 432.6 185.3"><style>.style0{fill-rule:	evenodd;clip-rule:	evenodd;fill:	#01444E;}</style><path d="M395.2 122.1c-0.2 3.2 2.9 3.9 6.7 4.3c8.4 0.9 16.7 2 16.7 12.6 c0 17.8-34.6 18.3-34.3-0.4c3.6 0 6.8 0 10.5 0c0 5.4 13.3 5.3 13.3 0.3c0-3-3.5-3.5-7.8-3.7c-9.2-0.7-15.3-3.8-15.4-13 c-0.4-18.3 32.6-18.3 32.4 0c-3.8 0-6.6 0-10.3 0C406.9 116.6 395.5 117.1 395.2 122.1z M398.6 165c0 10-14.8 10-14.8 0 C383.8 155.1 398.6 155.1 398.6 165z M394.8 165c0-5.2-7.2-5.2-7.2 0C387.6 170.2 394.8 170.2 394.8 165z M375.1 169 c1.6 0 2.8-0.8 3.2-2.3c1.2 0 2.4 0 3.6 0c-0.5 4.1-3.8 5.7-6.8 5.7c-3.7 0-7.4-2.4-7.4-7.3c0-4.9 3.7-7.4 7.4-7.4 c3 0 6.2 1.6 6.8 5.5c-1.3 0-2.4 0-3.6 0c-0.5-1.5-1.6-2.1-3.1-2.1c-2.2 0-3.6 1.6-3.6 4C371.5 167.1 372.9 169 375.1 169z M365.5 151.7h-19.9v-42.4h18.1c7.3 0 13.2 5.7 13.2 13c0 2.5-1.3 5.6-3.3 7.3c3.5 1.8 5.1 4.9 5.1 8.7 C378.7 145.7 374.2 151.7 365.5 151.7z M362.9 118.9h-6.8v7h6.9C367.3 125.9 367.3 118.9 362.9 118.9z M364.7 134.8h-8.6v7.2h8.7 C369.1 142 369.1 134.8 364.7 134.8z M319.4 141.4c3.8-1.4 6.9-5 6.9-10.9c0-15.3-21.3-15.3-21.3 0c0 5.9 3.1 9.5 6.9 10.9 c-3.7 1-6.9 3.6-8.6 7.7c-5.5-3.5-9.5-9.7-9.5-18.6c0-29.3 43.5-29.3 43.5 0c0 8.9-3.9 15-9.5 18.6C326.3 145 323 142.4 319.4 141.4 z M269.6 152.2c-8.4 0-15.4-5-15.9-13.7h10.3c0.5 2.6 2.8 4 5.5 4c3.2 0 5.3-1.7 5.3-5.1v-18.5h-6.2c0-3.3 0-6.5 0-9.6H286v28.3 C286 146.8 278.4 152.2 269.6 152.2z M282.6 87.4c-1.3 3.3-5 4.9-8.3 3.6l-30.5-12c-2.7 4.4-6.2 8.3-10.3 11.5 c-1.2-5.6-4.1-10.6-8.1-14.3c5.4-5 8.7-12.1 8.7-20c0-15-12.2-27.2-27.2-27.2c-15 0-27.2 12.2-27.2 27.2c0 7.9 3.4 15 8.7 20 c-4.1 3.7-7 8.7-8.1 14.3c-10.2-7.9-16.8-20.4-16.8-34.3c0-24 19.4-43.4 43.4-43.4c24 0 43.4 19.4 43.4 43.4c0 1.6-0.1 3.1-0.2 4.6 l31.3 12.3c3.3 1.3 4.9 5 3.6 8.3L282.6 87.4z M153 151.7c-3.6 0-7.2 0-10.7 0v-32.7h-10.4c0-3.3 0-6.5 0-9.7h31.5 c0 3.2 0 6.4 0 9.7H153V151.7z M133 134.4h-16.5v-9.3H133V134.4z M122.5 151.7c-8.7 0-17.7 0-26.3 0v-42.4c3.6 0 7.2 0 10.9 0 c0 21.9 0 14.6 0 32.7h15.4C122.5 145.6 122.5 148 122.5 151.7z M62.5 109.2c3.6 0 7.2 0 10.9 0c0 21.9 0 14.6 0 32.7h15.4 c0 3.6 0 6.1 0 9.8c-8.7 0-17.7 0-26.3 0V109.2z M43.9 146.3H27.2l-2.5 5.3H14.1v-1.6l19.1-41.4h4.7L57 150.1v1.6H46.4L43.9 146.3z M35.5 125.8L30.8 137h9.6L35.5 125.8z M181.3 124.6h13.1v-15.4c3.7 0 7.4 0 11.1 0v42.4c-3.7 0-7.4 0-11.1 0v-17h-13.1v17 c-3.7 0-7.5 0-11.1 0v-42.4c3.6 0 7.4 0 11.1 0V124.6z M194.2 56.2c0-7 5.7-12.7 12.7-12.7c7 0 12.7 5.7 12.7 12.7 c0 7-5.7 12.7-12.7 12.7C199.9 68.9 194.2 63.2 194.2 56.2z M242.8 118.9c-6.3 0-9.5 0-15.7 0v6h14.4c0 3.2 0 6.4 0 9.6h-14.4 c0 2.5 0 4.9 0 7.5c6.2 0 9.9 0 16.2 0c0 3.2 0 6.4 0 9.6c-9.9 0-17.2 0-27 0c0-14.2 0-28.4 0-42.4c9.8 0 16.6 0 26.5 0 C242.8 112.4 242.8 115.7 242.8 118.9z M263.3 134.4h-16.5v-9.3h16.5V134.4z M363.8 168.5c1.1 0 2 0.8 2 1.9c0 1.1-0.9 1.9-2 1.9 c-1.2 0-2.1-0.7-2.1-1.9C361.7 169.3 362.6 168.5 363.8 168.5z M408.3 164l5.7-6.2h1.3v14.4c-1.3 0-2.5 0-3.8 0v-6.4l-3.1 3.2h-0.4 l-3-3.2v6.4c-1.3 0-2.5 0-3.8 0v-14.4h1.4L408.3 164z" class="style0"/></svg>