<svg xmlns="http://www.w3.org/2000/svg" xmlns:xlink="http://www.w3.org/1999/xlink" viewBox="0 0 768 426"><path fill="#FFF" stroke="#000" stroke-miterlimit="10" d="M0-.4h768v426.7H0z"/><path fill="#F9F9F9" d="M350 253.9v-16h36v35"/><path fill="#DDD" d="M387 272.9h-2v-34h-34v15h-2v-17h38z"/><path fill="#F9F9F9" d="M642 246.9h36v46h-36z"/><path fill="#DDD" d="M679 293.9h-38v-48h38v48zm-36-2h34v-44h-34v44z"/><path fill="#F9F9F9" d="M649 251.9h9v9h-9z"/><path fill="#DDD" d="M659 261.9h-11v-11h11v11zm-9-2h7v-7h-7v7z"/><path fill="#F9F9F9" d="M664 251.9h9v9h-9z"/><path fill="#DDD" d="M674 261.9h-11v-11h11v11zm-9-2h7v-7h-7v7z"/><path fill="#F9F9F9" d="M649 265.9h9v10h-9z"/><path fill="#DDD" d="M659 276.9h-11v-12h11v12zm-9-2h7v-8h-7v8z"/><path fill="#F9F9F9" d="M664 265.9h9v10h-9z"/><path fill="#DDD" d="M674 276.9h-11v-12h11v12zm-9-2h7v-8h-7v8z"/><path fill="#F9F9F9" d="M649 280.9h8v9h-8z"/><path fill="#DDD" d="M658 290.9h-10v-11h10v11zm-8-2h6v-7h-6v7z"/><path fill="#F9F9F9" d="M664 280.9h8v9h-8z"/><path fill="#DDD" d="M673 290.9h-10v-11h10v11zm-8-2h6v-7h-6v7z"/><path fill="#EDEDED" d="M65 113.9h23v5H65z"/><path fill="#DDD" d="M89 119.9H64v-7h25v7zm-23-2h21v-3H66v3z"/><path fill="#EDEDED" d="M55.1 109.2c-3 0-5.4-2.4-5.4-5.3s2.4-5.3 5.4-5.3"/><path fill="#DDD" d="M55 110.2c-3 0-6.4-2.8-6.4-6.3s3.4-6.3 6.4-6.3v2c-2 0-4.4 1.9-4.4 4.3s2.4 4.3 4.4 4.3v2z"/><path fill="#EDEDED" d="M99.4 98.5c3 0 5.4 2.4 5.4 5.3s-2.4 5.3-5.4 5.3"/><path fill="#DDD" d="M99 110.2v-2c3 0 4.4-1.9 4.4-4.3s-1.4-4.3-4.4-4.3v-2c4 0 6.4 2.8 6.4 6.3s-2.4 6.3-6.4 6.3z"/><path fill="#F9F9F9" d="M125 167.9h33v13h-32"/><path fill="#DDD" d="M159 181.9h-33v-2h31v-11h-32v-2h34z"/><path fill="#F9F9F9" d="M124.2 334.8c0 1.2-1 2.1-2.2 2.1l-70.8-.2c-1.2 0-2.1-1-2.1-2.2l.3-124.9c0-1.2 1-2.1 2.2-2.1l70.8.2c1.2 0 2.1 1 2.1 2.2l-.3 124.9z"/><path fill="#DDD" d="M122 337.9l-71-.1c-2 0-3-1.4-3-3.2l.3-124.9c0-1.7 1.4-3.1 3.2-3.1l70.9.2c1.7 0 3.1 1.4 3.1 3.2l-.3 124.8c0 1.7-1.4 3.1-3.2 3.1zM51.5 208.6c-.7 0-1.2.5-1.2 1.1L50 334.6c0 .7.5 1.2 1.1 1.2l70.9.2c.7 0 1.2-.5 1.2-1.1l.3-124.9c0-.7-.5-1.2-1.1-1.2l-70.9-.2z"/><path fill="#F9F9F9" d="M124.2 334.8c0 1.2-1 2.1-2.2 2.1l-70.8-.2c-1.2 0-2.1-1-2.1-2.2l.3-124.9c0-1.2 1-2.1 2.2-2.1l70.8.2c1.2 0 2.1 1 2.1 2.2l-.3 124.9z"/><path fill="#DDD" d="M122 337.9l-71-.1c-2 0-3-1.4-3-3.2l.3-124.9c0-1.7 1.4-3.1 3.2-3.1l70.9.2c1.7 0 3.1 1.4 3.1 3.2l-.3 124.8c0 1.7-1.4 3.1-3.2 3.1zM51.5 208.6c-.7 0-1.2.5-1.2 1.1L50 334.6c0 .7.5 1.2 1.1 1.2l70.9.2c.7 0 1.2-.5 1.2-1.1l.3-124.9c0-.7-.5-1.2-1.1-1.2l-70.9-.2z"/><path fill="#F9F9F9" d="M58.4 217.3l56.9.2-.1 96.4H58.3z"/><path fill="#DDD" d="M116.2 314.9H57.3l.1-98.6 58.9.2-.1 98.4zm-56.9-2h54.9l.1-94.4-54.9-.2-.1 94.6z"/><ellipse transform="rotate(-89.919 86.795 325.632)" fill="#F9F9F9" cx="86.8" cy="325.6" rx="5.4" ry="5.3"/><path fill="#DDD" d="M86.8 331.9c-1.7 0-3.3-.6-4.5-1.8-1.2-1.2-1.9-2.8-1.8-4.5 0-3.5 2.8-6.4 6.3-6.4s6.3 2.8 6.3 6.3c0 3.6-2.8 6.4-6.3 6.4zm0-10.6c-2.4 0-4.3 2-4.3 4.4 0 1.2.4 2.3 1.3 3.1.8.8 2 1.3 3.2 1.3l.1 1v-1c2 0 4.2-2 4.2-4.4-.1-2.5-2.1-4.4-4.5-4.4z"/><path fill="#F9F9F9" d="M71 225.9h32v29H71z"/><path fill="#DDD" d="M104 255.9H70v-31h34v31zm-32-2h30v-27H72v27zM73 265.9h28v2H73zM73 284.9h28v2H73zM73 274.9h28v2H73z"/><path fill="#EDEDED" d="M65 294.9h43v12H65z"/><path fill="#DDD" d="M109 307.9H64v-14h45v14zm-43-2h41v-10H66v10z"/><path fill="#F9F9F9" d="M49 154.9h76v43H49z"/><path fill="#DDD" d="M126 198.9H48v-45h78v45zm-76-2h74v-41H50v41z"/><path fill="#F9F9F9" d="M158 171.7l45 .1v4.6l-45.1-.1"/><path fill="#DDD" d="M204 177.4l-46-.1-.1-2 44.1.1v-2.6l-44-.1-.1-2 46.1.1z"/><defs><path id="a" d="M183 176.9h11v11h-11z"/></defs><defs><path id="b" d="M195 188.9h-13v-13h13v13zm-11-2h9v-9h-9v9z"/></defs><use xlink:href="#a" overflow="visible" fill-rule="evenodd" clip-rule="evenodd" fill="#F9F9F9"/><use xlink:href="#b" overflow="visible" fill="#DDD"/><clipPath id="c"><use xlink:href="#a" overflow="visible"/></clipPath><clipPath id="d" clip-path="url(#c)"><use xlink:href="#b" overflow="visible"/></clipPath><g clip-path="url(#d)"><defs><path id="e" d="M-110-428.1h1283v5542H-110z"/></defs><defs><path id="f" d="M1174 5114.9H-111v-5544h1285v5544zm-1283-2h1281v-5540H-109v5540z"/></defs><use xlink:href="#e" overflow="visible" fill="#F9F9F9"/><use xlink:href="#f" overflow="visible" fill="#DDD"/><clipPath id="g"><use xlink:href="#e" overflow="visible"/></clipPath><clipPath id="h" clip-path="url(#g)"><use xlink:href="#f" overflow="visible"/></clipPath><g clip-path="url(#h)"><path fill="#F9F9F9" d="M183 176.9h11v11h-11z"/><path fill="#DDD" d="M195 188.9h-13v-13h13v13zm-11-2h9v-9h-9v9z"/></g></g><path fill="#DDD" d="M250.8 374.6c-2.3-.1-3.6-1.6-4.8-2.8-1.2-1.3-2.2-2.4-4.2-2.4-1.6 0-2.7 1.1-4 2.3-1.5 1.4-3.1 3-5.8 3-2.7 0-4-1.6-5.2-3.1-1.2-1.4-2.2-2.6-4.3-2.7-1.5-.1-3.6 1.2-5.5 2.4-2.4 1.5-4.7 3-6.6 2-1.3-.7-1.9-2.3-2.1-5.2-.5-9.6-.4-22.9-.4-34.7v-3.2c0-2.9-.8-5-2.2-6.2-1.9-1.6-4.3-1.3-4.4-1.3h-77.4v-2H201c.5-.1 3.6-.3 5.9 1.7 1.9 1.6 2.9 4.2 2.9 7.7v3.2c0 11.7 0 25.1.4 34.6.1 2.7.7 3.3 1 3.5.8.4 2.9-.9 4.5-2 2.2-1.4 4.5-2.9 6.7-2.7 3 .2 4.5 2 5.7 3.4 1.1 1.3 1.9 2.3 3.7 2.3 1.9 0 3.1-1.1 4.4-2.4 1.4-1.3 2.9-2.8 5.3-2.8 2.9 0 4.4 1.7 5.7 3.1 1 1.1 1.9 2.1 3.3 2.2 1.6-.1 2.6-1.1 3.7-2.2 1.2-1.2 2.6-2.6 5.1-2.7 2.5-.1 4.2 1.4 5.7 2.8 1.3 1.1 2.8 2.1 3.8 2.1v2c-2 0-3.6-1.3-5.1-2.6-1.4-1.2-2.7-2.3-4.4-2.3-1.6 0-2.6 1-3.7 2.1-1 1.4-2.4 2.8-4.8 2.9z"/><defs><path id="i" d="M471.2 63.5l-9.9-9.9 9.9-9.9 9.9 9.9-9.9 9.9zm-7.1-9.9l7.1 7.1 7.1-7.1-7.1-7.1-7.1 7.1z"/></defs><use xlink:href="#i" overflow="visible" fill="#DDD"/><clipPath id="j"><use xlink:href="#i" overflow="visible"/></clipPath><g clip-path="url(#j)"><defs><path id="k" d="M1155 3490.9H290v-3730h865v3730zm-863-2h861v-3726H292v3726z"/></defs><use xlink:href="#k" overflow="visible" fill="#DDD"/><clipPath id="l"><use xlink:href="#k" overflow="visible"/></clipPath><g clip-path="url(#l)"><path fill="#DDD" d="M471.2 63.5l-9.9-9.9 9.9-9.9 9.9 9.9-9.9 9.9zm-7.1-9.9l7.1 7.1 7.1-7.1-7.1-7.1-7.1 7.1z"/></g></g><path fill="#DDD" d="M231.5 110H209v-2.1h21.2c.2 0 10 .8 16.6-5.4 4.2-4 6.3-9.9 6.2-17.6h2c.1 8.4-2.1 14.8-6.8 19.2-5.8 5.3-13.6 5.9-16.7 5.9z"/><path fill="#DDD" d="M203.1 117.3c-4.1 0-7.4-3.3-7.4-7.4s3.3-7.4 7.4-7.4 7.4 3.3 7.4 7.4-3.3 7.4-7.4 7.4zm0-12.9c-3 0-5.4 2.4-5.4 5.4 0 3 2.4 5.4 5.4 5.4s5.4-2.4 5.4-5.4c.1-3-2.4-5.4-5.4-5.4z"/><circle fill="#F9F9F9" cx="633.9" cy="96.6" r="3.2"/><path fill="#DDD" d="M633.9 100.9c-2.3 0-4.2-1.9-4.2-4.2s1.9-4.2 4.2-4.2c2.3 0 4.2 1.9 4.2 4.2s-1.9 4.2-4.2 4.2zm0-6.5c-1.2 0-2.2 1-2.2 2.2s1 2.2 2.2 2.2 2.2-1 2.2-2.2-1-2.2-2.2-2.2zM591 68.9h-2V42.2c0-.4 0-9.8-9.2-9.8-10.1 0-93.1-.4-95.8-.4-2.8.3-8.1-.4-8.7-5.3-.1-1.2-.1-2.5-.1-3.7 0-2.5 0-4.8-1.2-6-.8-.8-2.2-1.2-4.1-1.2-8.1 0-48.4.3-48.8.3h-.1.1c-.1 0-7.1-.8-7.1-9.8V.9h2v5.2c0 6.9 4.7 7.7 5.3 7.8 1.8 0 40.7-.3 48.6-.3 2.5 0 4.3.6 5.5 1.8 1.8 1.8 1.8 4.7 1.8 7.5 0 1.2 0 2.4.1 3.5.5 4.2 6.3 3.6 6.5 3.5h.1c.9 0 85.7.4 95.9.4 3.2 0 5.8 1 7.7 2.9 3.5 3.5 3.4 8.7 3.4 8.9v26.8zM225 67.9h-2V45.2c0-.3-.3-8.4-8.1-8.4-8.7 0-118.9-.4-122-.4-2.5.3-7.2-.4-7.7-4.7-.1-1.1-.2-2.2-.1-3.3 0-2.1 0-4.1-1-5.1-.7-.7-1.8-.8-3.5-.8-7 0-41.9.4-42.2.4h-.1l-.1-.2c-.1 0-6.5-.8-6.5-8.7 0-7 .1-12 .1-12h2s-.1 5-.1 11.9c0 5.8 4.1 6.5 4.6 6.6 1.7 0 35.3-.2 42.2-.2 2.2 0 3.8.5 4.9 1.6C87 23.5 87 26 87 28.4c0 1 0 2.1.1 3 .4 3.5 5.3 3 5.5 3h.1c1.1 0 113.1.4 121.9.4 2.8 0 5.4.9 7.1 2.6 3 3 3.3 7.6 3.3 7.8v22.7z"/><path fill="#DDD" d="M222.3 83.6c-4.4 0-8-3.6-8-8s3.6-8 8-8 8 3.6 8 8-3.6 8-8 8zm0-14c-3.3 0-6 2.7-6 6s2.7 6 6 6 6-2.7 6-6-2.7-6-6-6z"/><path fill="#F9F9F9" d="M188.8 188.6l-.1 68.5"/><path fill="#DDD" d="M187.7 188.6h2v68.5h-2z"/><path fill="#F9F9F9" d="M68 169.9h34v14H68z"/><path fill="#DDD" d="M103 184.9H67v-16h36v16zm-34-2h32v-12H69v12z"/><path fill="#DDD" d="M89 180.1l-5.4-5.3-4.4 2.6-10.8-.1v-2l10.2.1 5.3-3.1 5.2 5.1 2.6-2h10.5v2h-9.8z"/><path fill="#EDEDED" d="M493 110.9h4v15h-4z"/><path fill="#DDD" d="M498 126.9h-6v-17h6v17zm-4-2h2v-13h-2v13z"/><circle fill="#EDEDED" cx="495.1" cy="107.1" r="4.8"/><path fill="#DDD" d="M495.1 112.9c-3.2 0-5.8-2.6-5.8-5.8s2.6-5.8 5.8-5.8 5.8 2.6 5.8 5.8-2.6 5.8-5.8 5.8zm0-9.6c-2.1 0-3.8 1.7-3.8 3.8s1.7 3.8 3.8 3.8 3.8-1.7 3.8-3.8-1.7-3.8-3.8-3.8z"/><path fill="#F9F9F9" d="M471 122.9h48v42h-48z"/><path fill="#DDD" d="M520 165.9h-50v-44h50v44zm-48-2h46v-40h-46v40z"/><circle fill="#EDEDED" cx="509.6" cy="136.8" r="5"/><path fill="#DDD" d="M509.6 142.8c-3.3 0-6-2.7-6-6s2.7-6 6-6 6 2.7 6 6-2.8 6-6 6zm0-9.9c-2.2 0-4 1.8-4 4s1.8 4 4 4 4-1.8 4-4-1.9-4-4-4z"/><circle fill="#EDEDED" cx="510.6" cy="136.1" r="1.9"/><path fill="#DDD" d="M510.6 139c-1.6 0-2.9-1.3-2.9-2.9 0-1.6 1.3-2.9 2.9-2.9s2.9 1.3 2.9 2.9c-.1 1.6-1.4 2.9-2.9 2.9zm0-3.7c-.5 0-.9.4-.9.9s.4.9.9.9.9-.4.9-.9-.5-.9-.9-.9z"/><circle fill="#EDEDED" cx="483.6" cy="136.8" r="5"/><path fill="#DDD" d="M483.6 142.8c-3.3 0-6-2.7-6-6s2.7-6 6-6 6 2.7 6 6-2.7 6-6 6zm0-9.9c-2.2 0-4 1.8-4 4s1.8 4 4 4 4-1.8 4-4-1.8-4-4-4z"/><circle fill="#EDEDED" cx="484.6" cy="136.1" r="1.9"/><path fill="#DDD" d="M484.6 139c-1.6 0-2.9-1.3-2.9-2.9 0-1.6 1.3-2.9 2.9-2.9s2.9 1.3 2.9 2.9c0 1.6-1.3 2.9-2.9 2.9zm0-3.7c-.5 0-.9.4-.9.9s.4.9.9.9.9-.4.9-.9-.4-.9-.9-.9z"/><path fill="#EDEDED" d="M465 136.9h6v15h-6z"/><path fill="#DDD" d="M472 152.9h-8v-17h8v17zm-6-2h4v-13h-4v13z"/><path fill="#EDEDED" d="M459 141.9h5v6h-5z"/><path fill="#DDD" d="M465 148.9h-7v-8h7v8zm-5-2h3v-4h-3v4z"/><path fill="#EDEDED" d="M519 135.9h6v16h-6z"/><path fill="#DDD" d="M526 152.9h-8v-18h8v18zm-6-2h4v-14h-4v14z"/><path fill="#EDEDED" d="M526 140.9h5v6h-5z"/><path fill="#DDD" d="M532 147.9h-7v-8h7v8zm-5-2h3v-4h-3v4z"/><path fill="#EDEDED" d="M163 257.9h54v32h-54z"/><path fill="#DDD" d="M218 290.9h-56v-34h56v34zm-54-2h52v-30h-52v30z"/><path fill="#DDD" d="M190.2 279.6l-28.2-21 1.2-1.6 27 20.1 26.3-20.1 1.2 1.6z"/><path fill="#EDEDED" d="M162.6 289.7l16.6-18.4"/><path fill="#DDD" d="M178.527 270.543l1.483 1.341-16.703 18.466-1.483-1.342zM200.063 270.755l17.662 18.393-1.443 1.385-17.661-18.393z"/><path fill="#F9F9F9" d="M99.8 99.9c0-12.6-10.3-22.7-22.9-22.7S54 87.2 54 99.8l-.2 15.1h45.9l.1-15z"/><path fill="#DDD" d="M100.7 115.9H52.8l.2-16.1c0-13 10.7-23.7 23.9-23.7s23.9 10.6 23.9 23.7l-.1 16.1zm-45.8-2h43.8l.1-14c0-12-9.8-21.7-21.9-21.7-12.1 0-21.9 9.7-21.9 21.6l-.1 14.1z"/><path fill="#DDD" d="M76.3 92.7c-3 0-5.3-2-5.3-4.7V77h2v11c0 1.6 1.3 2.7 3.3 2.7 2 0 3.7-1.3 3.7-2.8v-11h2v11c0 2.6-2.6 4.8-5.7 4.8z"/><path fill="#EDEDED" d="M71.9 103.9c0 2 2.5 5.5 5.6 5.5s5.6-3.5 5.6-5.5H71.9z"/><path fill="#DDD" d="M77.5 110.4c-3.6 0-6.5-3.9-6.5-6.5v-1h13v1c0 2.6-2.9 6.5-6.5 6.5zm-4.3-5.5c.6 1.5 2.4 3.5 4.3 3.5s3.7-2 4.3-3.5h-8.6z"/><path fill="#EDEDED" d="M72.3 105.7h10.3"/><path fill="#DDD" d="M72.309 104.667l10.2.07-.014 2-10.2-.07zM68.5 98.9h-2c0-1-.9-2-2-2s-2 1-2 2h-2c0-2 1.8-4 4-4s4 2 4 4zM93.1 98.9h-2c0-1-.9-2-2-2s-2 1-2 2h-2c0-2 1.8-4 4-4s4 2 4 4z"/><path fill="#F9F9F9" d="M103 122.9v19c0 3.9-3 7-6.9 7H57.6c-3.9 0-6.6-3.1-6.6-7v-19"/><path fill="#DDD" d="M96.1 149.9H57.6c-4.5 0-7.6-3.5-7.6-8v-19h2v19c0 3.4 2.3 6 5.6 6H96c3.4 0 5.9-2.6 5.9-6v-19h2v19c.1 4.5-3.3 8-7.8 8z"/><path fill="#F9F9F9" d="M103 122.9v19c0 3.9-3 7-6.9 7H57.6c-3.9 0-6.6-3.1-6.6-7v-19h52z"/><path fill="#DDD" d="M96.1 149.9H57.6c-4.5 0-7.6-3.5-7.6-8v-20h54v20c0 4.5-3.4 8-7.9 8zm-44.1-26v18c0 3.4 2.3 6 5.6 6H96c3.4 0 5.9-2.6 5.9-6v-18H52z"/><path fill="#EAEAEA" d="M130.5 108.9h-7c0 1-.2 1-.2 1.4 0 11.1-8.3 20.1-20.3 20.1v7c15 0 27.3-12.2 27.3-27.1 0-.5.2-.4.2-1.4z"/><path fill="#DDD" d="M103.5 138.9H102v-10h1.5c10.5 0 19-8.3 19-18.8v-.7l-.1-1.4h9.1v2.7c0 15.3-12.5 28.2-28 28.2zm.5-7.5v5c14-.5 25.3-12 25.3-26.1 0-.1.2-.4.2-.4h-5s-.2.3-.2.4c0 11.3-8.3 20.5-20.3 21.1zM621.7 366.8L587 342.4v22.5h-2V245l37.1.1-.1 25.1.1.1-.1.1-.3 96.4zm-33-25.5l31 21.7.1-44.6-31.1 22.9zm-1.7-48.2v47.1l31.3-23-31.3-24.1zm2.2-.8l30.6 23.6.1-44.1-30.7 20.5zM587 250v41.4l31.6-21L587 250zm0-2.4l33 21.4.1-21.9-33.1-.1v.6zM253 395.9h204v2H253zM623 378.9h82v2h-82zM711 386.9h2v37h-2z"/><defs><path id="m" d="M704 371.9h15v16h-15z"/></defs><defs><path id="n" d="M720 388.9h-17v-18h17v18zm-15-2h13v-14h-13v14z"/></defs><use xlink:href="#m" overflow="visible" fill-rule="evenodd" clip-rule="evenodd" fill="#F9F9F9"/><use xlink:href="#n" overflow="visible" fill="#DDD"/><clipPath id="o"><use xlink:href="#m" overflow="visible"/></clipPath><clipPath id="p" clip-path="url(#o)"><use xlink:href="#n" overflow="visible"/></clipPath><g clip-path="url(#p)"><defs><path id="q" d="M588 48.9h670v2895H588z"/></defs><defs><path id="r" d="M1259 2944.9H587V47.9h672v2897zm-670-2h668V49.9H589v2893z"/></defs><use xlink:href="#q" overflow="visible" fill="#F9F9F9"/><use xlink:href="#r" overflow="visible" fill="#DDD"/><clipPath id="s"><use xlink:href="#q" overflow="visible"/></clipPath><clipPath id="t" clip-path="url(#s)"><use xlink:href="#r" overflow="visible"/></clipPath><g clip-path="url(#t)"><path fill="#F9F9F9" d="M704 371.9h15v16h-15z"/><path fill="#DDD" d="M720 388.9h-17v-18h17v18zm-15-2h13v-14h-13v14z"/></g></g><path fill="#DDD" d="M173 117.9h-9v-9h9v9zm-7-2h5v-5h-5v5zM161.3 141c-2.8 0-5.1-2.3-5.1-5.1s2.3-5.1 5.1-5.1 5.1 2.3 5.1 5.1-2.3 5.1-5.1 5.1zm0-8.3c-1.7 0-3.1 1.4-3.1 3.1 0 1.7 1.4 3.1 3.1 3.1 1.7 0 3.1-1.4 3.1-3.1 0-1.7-1.4-3.1-3.1-3.1zM174.571 149.017l.023 8.4-2 .006-.023-8.4z"/><path fill="#DDD" d="M169.413 152.271l8.4.067-.016 2-8.4-.067zM140 149.9h-10v-9h10v9zm-8-2h6v-5h-6v5zM223.9 175.2c-2.8 0-5.1-2.3-5.1-5.1s2.3-5.1 5.1-5.1 5.1 2.3 5.1 5.1-2.3 5.1-5.1 5.1zm0-8.2c-1.7 0-3.1 1.4-3.1 3.1 0 1.7 1.4 3.1 3.1 3.1 1.7 0 3.1-1.4 3.1-3.1 0-1.7-1.4-3.1-3.1-3.1zM140.4 123.3h2v8.4h-2z"/><path fill="#DDD" d="M145.658 126.474l.015 2-8.4.066-.015-2z"/><path fill="#F9F9F9" d="M686 126.9h55v45h-55z"/><path fill="#DDD" d="M742 172.9h-57v-47h57v47zm-55-2h53v-43h-53v43z"/><path fill="#DDD" d="M702.1 146.7c-2.5 0-4.5-2.1-4.5-4.6s2-4.6 4.5-4.6 4.5 2.1 4.5 4.6-2 4.6-4.5 4.6zm0-7.3c-1.4 0-2.5 1.2-2.5 2.6 0 1.4 1.1 2.6 2.5 2.6s2.5-1.2 2.5-2.6c0-1.4-1.1-2.6-2.5-2.6zM724.6 146.7c-2.5 0-4.5-2.1-4.5-4.6s2-4.6 4.5-4.6 4.5 2.1 4.5 4.6-2.1 4.6-4.5 4.6zm0-7.3c-1.4 0-2.5 1.2-2.5 2.6 0 1.4 1.1 2.6 2.5 2.6s2.5-1.2 2.5-2.6c0-1.4-1.2-2.6-2.5-2.6zM727 162.9h-29v-12h29v12zm-27-2h25v-8h-25v8z"/><path fill="#DDD" d="M705 151.9h2v9h-2zM712 151.9h2v9h-2zM720 151.9h2v9h-2z"/><path fill="#F9F9F9" d="M711 114.9v13"/><path fill="#DDD" d="M710 114.9h2v13h-2z"/><ellipse fill="#F9F9F9" cx="712.2" cy="112.2" rx="3.3" ry="3.4"/><path fill="#DDD" d="M712.2 116.7c-2.4 0-4.3-2-4.3-4.4 0-2.4 1.9-4.4 4.3-4.4s4.3 2 4.3 4.4c0 2.4-1.9 4.4-4.3 4.4zm0-6.9c-1.3 0-2.3 1.1-2.3 2.4s1 2.4 2.3 2.4 2.3-1.1 2.3-2.4-1-2.4-2.3-2.4z"/><path fill="#DDD" d="M712.6 109.9l-1.5-1.3 4.2-5-8.6.7 9.5-10.1 1.5 1.3-6 6.4 8.3-.6z"/><path fill="#F9F9F9" d="M741 135.9h4v9h-4z"/><path fill="#DDD" d="M746 145.9h-6v-11h6v11zm-4-2h2v-7h-2v7z"/><path fill="#F9F9F9" d="M682 135.9h4v9h-4z"/><path fill="#DDD" d="M687 145.9h-6v-11h6v11zm-4-2h2v-7h-2v7z"/><path fill="#F9F9F9" d="M703 171.9h22v5h-22z"/><path fill="#DDD" d="M726 177.9h-24v-7h24v7zm-22-2h20v-3h-20v3z"/><path fill="#F9F9F9" d="M703 176.9h22v4h-22z"/><path fill="#DDD" d="M726 181.9h-24v-6h24v6zm-22-2h20v-2h-20v2z"/><path fill="#F9F9F9" d="M415 362.9h235v34H415z"/><path fill="#DDD" d="M651 397.9H414v-36h237v36zm-235-2h233v-32H416v32z"/><path fill="#F9F9F9" d="M593 226.9h21v18h-21z"/><path fill="#DDD" d="M615 245.9h-23v-20h23v20zm-21-2h19v-16h-19v16zM711-2.1h2v29h-2z"/><defs><path id="u" d="M736 307.9h15v16h-15z"/></defs><defs><path id="v" d="M752 324.9h-17v-18h17v18zm-15-2h13v-14h-13v14z"/></defs><use xlink:href="#u" overflow="visible" fill-rule="evenodd" clip-rule="evenodd" fill="#F9F9F9"/><use xlink:href="#v" overflow="visible" fill="#DDD"/><clipPath id="w"><use xlink:href="#u" overflow="visible"/></clipPath><clipPath id="x" clip-path="url(#w)"><use xlink:href="#v" overflow="visible"/></clipPath><g clip-path="url(#x)"><defs><path id="y" d="M619-15.1h671v2895H619z"/></defs><defs><path id="z" d="M1291 2880.9H618v-2897h673v2897zm-671-2h669v-2893H620v2893z"/></defs><use xlink:href="#y" overflow="visible" fill="#F9F9F9"/><use xlink:href="#z" overflow="visible" fill="#DDD"/><clipPath id="A"><use xlink:href="#y" overflow="visible"/></clipPath><clipPath id="B" clip-path="url(#A)"><use xlink:href="#z" overflow="visible"/></clipPath><g clip-path="url(#B)"><path fill="#F9F9F9" d="M736 307.9h15v16h-15z"/><path fill="#DDD" d="M752 324.9h-17v-18h17v18zm-15-2h13v-14h-13v14z"/></g></g><path fill="#F9F9F9" d="M126 360.9h63v22h-63z"/><path fill="#DDD" d="M190 383.9h-65v-24h65v24zm-63-2h61v-20h-61v20z"/><circle fill="#F9F9F9" cx="139.1" cy="369.9" r="3.6"/><path fill="#DDD" d="M139.1 374.5c-2.5 0-4.6-2.1-4.6-4.6s2.1-4.6 4.6-4.6c2.5 0 4.6 2.1 4.6 4.6s-2.1 4.6-4.6 4.6zm0-7.2c-1.4 0-2.6 1.2-2.6 2.6 0 1.4 1.2 2.6 2.6 2.6s2.6-1.2 2.6-2.6c0-1.4-1.2-2.6-2.6-2.6z"/><circle fill="#F9F9F9" cx="176.6" cy="370.6" r="3.6"/><path fill="#DDD" d="M176.6 375.2c-2.5 0-4.6-2.1-4.6-4.6s2.1-4.6 4.6-4.6 4.6 2.1 4.6 4.6-2 4.6-4.6 4.6zm0-7.2c-1.4 0-2.6 1.2-2.6 2.6 0 1.4 1.2 2.6 2.6 2.6s2.6-1.2 2.6-2.6c0-1.5-1.1-2.6-2.6-2.6zM157.1 378.6c-3.1 0-5.8-2-6.8-4.9l1.9-.6c.7 2.1 2.7 3.5 4.9 3.5 2.1 0 4-1.2 4.8-3.2l1.8.8c-1.1 2.7-3.7 4.4-6.6 4.4z"/><path fill="#F9F9F9" d="M152 354.9h12v6h-12z"/><path fill="#DDD" d="M165 361.9h-14v-8h14v8zm-12-2h10v-4h-10v4z"/><path fill="#F9F9F9" d="M157.7 329.7c-5.2 0-9.3 4.2-9.3 9.4 0 3.4.6 6.4 4.6 8v7.8h9v-7.6c3-1.6 4.9-4.7 4.9-8.1 0-5.3-4-9.5-9.2-9.5z"/><path fill="#DDD" d="M163 355.9h-11v-8.1c-4-1.9-4.6-5.3-4.6-8.7 0-5.7 4.6-10.4 10.3-10.4 5.7 0 10.2 4.6 10.2 10.4 0 3.6-1.8 6.8-4.9 8.7v8.1zm-9-2h7v-7.2l.5-.3c2.7-1.5 4.4-4.2 4.4-7.3 0-4.7-3.6-8.4-8.2-8.4s-8.3 3.8-8.3 8.4c0 3.4.7 5.7 4 7.1l.6.3v7.4z"/><circle fill="#F9F9F9" cx="157.8" cy="338.3" r="2.1"/><path fill="#DDD" d="M157.8 341.4c-1.7 0-3.1-1.4-3.1-3.1s1.4-3.1 3.1-3.1 3.1 1.4 3.1 3.1-1.4 3.1-3.1 3.1zm0-4.3c-.6 0-1.1.5-1.1 1.1s.5 1.1 1.1 1.1c.6 0 1.1-.5 1.1-1.1s-.5-1.1-1.1-1.1z"/><path fill="#F9F9F9" d="M157.8 340.4v14.4"/><path fill="#DDD" d="M158.721 340.36l.079 14.4-2 .01-.079-14.4z"/><path fill="#F9F9F9" d="M157.7 332.3l.1 3.8"/><path fill="#DDD" d="M158.783 332.284l.039 3.8-2 .02-.039-3.8z"/><path fill="#F9F9F9" d="M18 391.9h168v22H18z"/><path fill="#DDD" d="M187 414.9H17v-24h170v24zm-168-2h166v-20H19v20z"/><path fill="#F9F9F9" d="M18 359.9h35v23H18z"/><path fill="#DDD" d="M54 383.9H17v-25h37v25zm-35-2h33v-21H19v21z"/><path fill="#F9F9F9" d="M59 360.9h61v22H59z"/><path fill="#DDD" d="M121 383.9H58v-24h63v24zm-61-2h59v-20H60v20z"/><circle fill="#F9F9F9" cx="70.1" cy="369.9" r="3.6"/><path fill="#DDD" d="M70.1 374.5c-2.5 0-4.6-2.1-4.6-4.6s2.1-4.6 4.6-4.6c2.5 0 4.6 2.1 4.6 4.6s-2.1 4.6-4.6 4.6zm0-7.2c-1.4 0-2.6 1.2-2.6 2.6 0 1.4 1.2 2.6 2.6 2.6s2.6-1.2 2.6-2.6c0-1.4-1.2-2.6-2.6-2.6z"/><circle fill="#F9F9F9" cx="107.6" cy="370.6" r="3.6"/><path fill="#DDD" d="M107.6 375.2c-2.5 0-4.6-2.1-4.6-4.6s2.1-4.6 4.6-4.6 4.6 2.1 4.6 4.6-2 4.6-4.6 4.6zm0-7.2c-1.4 0-2.6 1.2-2.6 2.6 0 1.4 1.2 2.6 2.6 2.6s2.6-1.2 2.6-2.6c0-1.5-1.1-2.6-2.6-2.6zM92.9 377.6c-.7-2.1-2.7-3.7-4.9-3.7-2.1 0-4 1.5-4.8 3.4l-1.8-.9c1.1-2.7 3.7-3.6 6.6-4.6h.1c3.1 0 5.8 2.1 6.8 5l-2 .8z"/><path fill="#F9F9F9" d="M598 220.9h12v6h-12z"/><path fill="#DDD" d="M611 227.9h-14v-8h14v8zm-12-2h10v-4h-10v4z"/><path fill="#F9F9F9" d="M603.7 195.7c-5.2 0-9.3 4.2-9.3 9.4 0 3.4.6 6.4 4.6 8v7.8h9v-7.6c3-1.6 4.9-4.7 4.9-8.1 0-5.3-4-9.5-9.2-9.5z"/><path fill="#DDD" d="M609 221.9h-11v-8.1c-4-1.9-4.6-5.3-4.6-8.7 0-5.7 4.6-10.4 10.3-10.4 5.7 0 10.2 4.6 10.2 10.4 0 3.6-1.8 6.8-4.9 8.7v8.1zm-9-2h7v-7.2l.5-.3c2.7-1.5 4.4-4.2 4.4-7.3 0-4.7-3.6-8.4-8.2-8.4s-8.3 3.8-8.3 8.4c0 3.4.7 5.7 4 7.1l.6.3v7.4z"/><circle fill="#F9F9F9" cx="603.8" cy="204.3" r="2.1"/><path fill="#DDD" d="M603.8 207.4c-1.7 0-3.1-1.4-3.1-3.1s1.4-3.1 3.1-3.1 3.1 1.4 3.1 3.1-1.4 3.1-3.1 3.1zm0-4.3c-.6 0-1.1.5-1.1 1.1 0 .6.5 1.1 1.1 1.1s1.1-.5 1.1-1.1c0-.6-.5-1.1-1.1-1.1z"/><path fill="#F9F9F9" d="M603.8 206.4v14.4"/><path fill="#DDD" d="M604.724 206.367l.078 14.4-2 .01-.078-14.4z"/><path fill="#F9F9F9" d="M603.7 198.3l.1 3.8"/><path fill="#DDD" d="M604.777 198.262l.039 3.8-2 .02-.039-3.8zM381 337.9h-2v-13h-46v-23H123v-2h212v23h46z"/><path fill="#DDD" d="M293 336.9h-2v-14h43v2h-41z"/><path fill="#DDD" d="M318 323.9h2v13h-2zM349 323.9h2v13h-2z"/><path fill="#F9F9F9" d="M285 335.9h13v13h-13z"/><path fill="#DDD" d="M299 349.9h-15v-15h15v15zm-13-2h11v-11h-11v11z"/><path fill="#F9F9F9" d="M313 335.9h13v13h-13z"/><path fill="#DDD" d="M327 349.9h-15v-15h15v15zm-13-2h11v-11h-11v11z"/><path fill="#F9F9F9" d="M343 335.9h13v13h-13z"/><path fill="#DDD" d="M357 349.9h-15v-15h15v15zm-13-2h11v-11h-11v11z"/><path fill="#F9F9F9" d="M373 335.9h13v13h-13z"/><path fill="#DDD" d="M387 349.9h-15v-15h15v15zm-13-2h11v-11h-11v11z"/><circle fill="#F9F9F9" cx="333.7" cy="301.1" r="7.3"/><path fill="#DDD" d="M333.7 309.4c-4.6 0-8.3-3.7-8.3-8.3 0-4.6 3.7-8.3 8.3-8.3 4.6 0 8.3 3.7 8.3 8.3 0 4.6-3.7 8.3-8.3 8.3zm0-14.7c-3.5 0-6.3 2.8-6.3 6.3s2.8 6.3 6.3 6.3 6.3-2.8 6.3-6.3-2.8-6.3-6.3-6.3z"/><path fill="#F9F9F9" d="M224 257.9h32v9h-32z"/><path fill="#DDD" d="M257 267.9h-34v-11h34v11zm-32-2h30v-7h-30v7z"/><path fill="#F9F9F9" d="M222.5 273.2l53.5.1"/><path fill="#DDD" d="M222.5 272.3H276v2h-53.5z"/><path fill="#F9F9F9" d="M222.5 278.8h59.6"/><path fill="#DDD" d="M222 277.8h60v2h-60z"/><path fill="#F9F9F9" d="M222.5 284.2l65.3.1"/><path fill="#DDD" d="M222 283.3h66v2h-66z"/><path fill="#F9F9F9" d="M222.5 289.9h65.3"/><path fill="#DDD" d="M222 288.9h66v2h-66z"/><path fill="#F9F9F9" d="M688 25.9h49v15h-49z"/><path fill="#DDD" d="M738 41.9h-51v-17h51v17zm-49-2h47v-13h-47v13z"/><path fill="#DDD" d="M691 75.9h-2v-14h22v-22h2v24h-22zM734 75.9h-2v-12h-19v-2h21z"/><path fill="#DDD" d="M697 86.9h-13v-13h13v13zm-11-2h9v-9h-9v9zM739 86.9h-12v-13h12v13zm-10-2h8v-9h-8v9zM253 397.9h2v28h-2zM253-1.1h2v87h-2z"/><path fill="#F9F9F9" d="M551 233.9c0 6.6-5.4 12-12 12h-91c-6.6 0-12-5.4-12-12v-56c0-6.6 5.4-12 12-12h91c6.6 0 12 5.4 12 12v56z"/><path fill="#DDD" d="M552 233.9c0 7.2-5.8 13-13 13h-91c-7.2 0-13-5.8-13-13v-56c0-7.2 5.8-13 13-13h91c7.2 0 13 5.8 13 13v56zm-2-56c0-6.1-4.9-11-11-11h-91c-6.1 0-11 4.9-11 11v56c0 6.1 4.9 11 11 11h91c6.1 0 11-4.9 11-11v-56z"/><path fill="#DDD" d="M445 174.9h97v59h-97z"/><path fill="#F9F9F9" d="M426 245.9h134v16H426z"/><path fill="#DDD" d="M561 262.9H425v-18h136v18zm-134-2h132v-14H427v14z"/><g><path fill="#DDD" d="M508 260.9h-38v-8h38v8zm-36-2h34v-4h-34v4z"/></g><g><circle fill="#F9F9F9" cx="28.4" cy="205.3" r="5.4"/><path fill="#DDD" d="M28.4 211.6c-3.5 0-6.4-2.9-6.4-6.4s2.9-6.4 6.4-6.4 6.4 2.9 6.4 6.4-2.9 6.4-6.4 6.4zm0-10.7c-2.4 0-4.4 2-4.4 4.4s2 4.4 4.4 4.4 4.4-2 4.4-4.4-2-4.4-4.4-4.4z"/></g><g><path fill="#DDD" d="M27 210.9h2v87h-2z"/></g><g><circle fill="#F9F9F9" cx="28.1" cy="299.3" r="5.4"/><path fill="#DDD" d="M28.1 305.6c-3.5 0-6.4-2.9-6.4-6.4s2.9-6.4 6.4-6.4 6.4 2.9 6.4 6.4-2.9 6.4-6.4 6.4zm0-10.7c-2.4 0-4.4 2-4.4 4.4s2 4.4 4.4 4.4 4.4-2 4.4-4.4-2-4.4-4.4-4.4z"/></g><g><path fill="#F9F9F9" d="M160.5 243.9l6.7-10.8 6.3 10.8z"/><path fill="#DDD" d="M175.2 244.9h-16.5l8.6-13.7 7.9 13.7zm-12.9-2h9.5l-4.5-7.8-5 7.8z"/></g><g><path fill="#F9F9F9" d="M662 327.9h28v13h-28z"/><path fill="#DDD" d="M691 341.9h-30v-15h30v15zm-28-2h26v-11h-26v11z"/></g><g><path fill="#F9F9F9" d="M685.8 328c.5 0 1.2-.4 1.2-1v-4.2c0-.6.1-1.4.4-1.8l1.1-1.6c.3-.4.5-1.3.5-1.8v-17c0-.5-.4-1-1-1h-2.8c-.5 0-1.2.5-1.2 1v.2c0 .6-.2 1-.8 1h-.3c-.5 0-.9-.5-.9-1v-4c0-.5-.4-1-1-1h-2.8c-.5 0-1.2.4-1.2 1v4c0 .5-.2 1-.8 1h-.4c-.5 0-.8-.4-.8-1v-6c0-.5-.6-1-1.1-1H671c-.5 0-1 .4-1 1v6c0 .5-.6 1-1.1 1h-.8c-.5 0-1.1-.4-1.1-1v-15c0-.5-.4-1-1-1h-2.5c-.5 0-1 .4-1 1l.1 21.5c0 .6-.2.6-.5.1l-3.9-6.3c-.3-.5-.9-.6-1.4-.3l-2.4 1.6c-.5.3-.6.9-.3 1.4l9.3 15c.3.5.5 1.3.5 1.8v6.1c0 .6.5 1 1.1 1l20.8.3z"/><path fill="#DDD" d="M686 328.9h-.3l-20.7-.1c-1.1 0-2-.9-2-2v-6.1c0-.4-.2-1-.4-1.3l-9.3-15c-.6-.9-.3-2.2.6-2.8l2.4-1.6c.9-.6 2.2-.3 2.8.6l2.6 4.2v-19c0-.5.2-1 .6-1.4.4-.4.9-.6 1.4-.6h2.5c1.1 0 2 .9 2 2v15h.8v-6c0-1.1.9-2 2-2h3.1c1.1 0 2.1.9 2.1 2v6h.5v-4c0-1.1.9-2 2-2h2.6c1.1 0 2 .9 2 2v4h.4v-.2c0-1.1.9-2 2-2h2.6c.5 0 1 .2 1.4.6.4.4.6.9.6 1.4v17c0 .8-.3 1.8-.8 2.4l-1 1.6c-.2.3-.2.9-.2 1.2v4.2c0 .5-.2 1-.6 1.4-.7.3-1.7.5-1.7.5zm-.3-1.9v1-1zm-28.4-25.3l-2.3 1.6 9.3 15c.4.6.7 1.6.7 2.4v6.1l21 .1v-4.2c0-.8.2-1.8.6-2.4l1.1-1.6c.2-.3.3-.9.3-1.2v-17h-2.6v.2c0 1.1-.9 2-2 2h-.4c-1.1 0-2-.9-2-2v-4h-2.6v4c0 1.1-.9 2-2 2h-.6c-.5 0-.9-.2-1.3-.6-.4-.4-.5-.9-.5-1.4v-6h-3.1l-.1 6c0 1.1-.9 2-2 2h-.8c-.5 0-1.1-.2-1.4-.6-.4-.4-.6-.9-.6-1.4v-15h-2.4l.1 21.5c0 .5-.1.9-.4 1.1l-.3.3h-.5c-.5 0-.9-.3-1.2-.8l-4-6.1z"/></g><g><path fill="#F9F9F9" d="M665 340.9h22v39h-22z"/><path fill="#DDD" d="M688 380.9h-24v-41h24v41zm-22-2h20v-37h-20v37z"/></g><g><path fill="#DDD" d="M661 246.6h-2l.2-53.5c0-.3-.2-7.3 3.6-11.1 1.6-1.6 3.7-2.4 6.1-2.4 11.2.2 98.3.3 99.2.3v2c-.9 0-88-.2-99.2-.3-1.9 0-3.4.6-4.7 1.8-3.2 3.2-3 9.6-3 9.7l-.2 53.5z"/></g><g><path fill="#DDD" d="M.008 179.538l47.7.333-.014 2-47.7-.333z"/></g><g><path fill="#F9F9F9" d="M266.6 365l10.8 6.8-10.7 6.2z"/><path fill="#DDD" d="M265.7 379.8l-.1-16.5 13.7 8.5-13.6 8zm1.9-12.9v9.5l7.8-4.6-7.8-4.9z"/></g><g><path fill="#F4F4F4" d="M453 186.9h46v2h-46z"/></g><g><path fill="#F4F4F4" d="M484 213.9h26v2h-26z"/></g><g><path fill="#F4F4F4" d="M460 220.9h46v2h-46z"/></g><g><path fill="#F4F4F4" d="M469 200.9h32v2h-32z"/></g><g><path fill="#F4F4F4" d="M461 193.9h46v2h-46z"/></g><g><path fill="#F4F4F4" d="M483 206.9h26v2h-26z"/></g><g><path fill="#F9F9F9" d="M416 260.9h156v102H416z"/><path fill="#DDD" d="M573 363.9H415v-104h158v104zm-156-2h154v-100H417v100z"/></g><g><path fill="#F9F9F9" d="M441 277.9h9v8h-9z"/><path fill="#DDD" d="M451 286.9h-11v-10h11v10zm-9-2h7v-6h-7v6z"/></g><g><path fill="#F9F9F9" d="M537 277.9h9v8h-9z"/><path fill="#DDD" d="M547 286.9h-11v-10h11v10zm-9-2h7v-6h-7v6z"/></g><g><path fill="#F9F9F9" d="M514 277.9h9v8h-9z"/><path fill="#DDD" d="M524 286.9h-11v-10h11v10zm-9-2h7v-6h-7v6z"/></g><g><path fill="#F9F9F9" d="M489 277.9h9v8h-9z"/><path fill="#DDD" d="M499 286.9h-11v-10h11v10zm-9-2h7v-6h-7v6z"/></g><g><path fill="#F9F9F9" d="M464 277.9h8v8h-8z"/><path fill="#DDD" d="M473 286.9h-10v-10h10v10zm-8-2h6v-6h-6v6z"/></g><g><circle fill="#F9F9F9" cx="456.2" cy="295.7" r="4"/><path fill="#DDD" d="M456.2 300.7c-2.8 0-5-2.2-5-5s2.2-5 5-5 5 2.2 5 5c0 2.7-2.2 5-5 5zm0-8c-1.7 0-3 1.4-3 3 0 1.7 1.4 3 3 3s3-1.4 3-3c0-1.7-1.3-3-3-3z"/></g><g><circle fill="#F9F9F9" cx="530.6" cy="295.7" r="4"/><path fill="#DDD" d="M530.6 300.7c-2.8 0-5-2.2-5-5s2.2-5 5-5 5 2.2 5 5c0 2.7-2.2 5-5 5zm0-8c-1.7 0-3 1.4-3 3 0 1.7 1.4 3 3 3 1.7 0 3-1.4 3-3 0-1.7-1.3-3-3-3z"/></g><g><circle fill="#F9F9F9" cx="506.1" cy="295.7" r="4"/><path fill="#DDD" d="M506.1 300.7c-2.8 0-5-2.2-5-5s2.2-5 5-5 5 2.2 5 5c0 2.7-2.2 5-5 5zm0-8c-1.7 0-3 1.4-3 3 0 1.7 1.4 3 3 3 1.7 0 3-1.4 3-3 0-1.7-1.4-3-3-3z"/></g><g><circle fill="#F9F9F9" cx="480.7" cy="295.7" r="4"/><path fill="#DDD" d="M480.7 300.7c-2.8 0-5-2.2-5-5s2.2-5 5-5 5 2.2 5 5c0 2.7-2.2 5-5 5zm0-8c-1.7 0-3 1.4-3 3 0 1.7 1.4 3 3 3s3-1.4 3-3c0-1.7-1.3-3-3-3z"/></g><g><path fill="#DDD" d="M441 303.9h9v8h-9z"/></g><g><path fill="#DDD" d="M537 303.9h9v8h-9z"/></g><g><path fill="#DDD" d="M514 303.9h9v8h-9z"/></g><g><path fill="#DDD" d="M489 303.9h9v8h-9z"/></g><g><path fill="#DDD" d="M464 303.9h8v8h-8z"/></g><g><circle fill="#F9F9F9" cx="456.2" cy="321.9" r="4"/><path fill="#DDD" d="M456.2 326.9c-2.8 0-5-2.2-5-5s2.2-5 5-5 5 2.2 5 5c0 2.7-2.2 5-5 5zm0-8c-1.7 0-3 1.4-3 3 0 1.7 1.4 3 3 3s3-1.4 3-3c0-1.7-1.3-3-3-3z"/></g><g><circle fill="#F9F9F9" cx="530.6" cy="321.9" r="4"/><path fill="#DDD" d="M530.6 326.9c-2.8 0-5-2.2-5-5s2.2-5 5-5 5 2.2 5 5c0 2.7-2.2 5-5 5zm0-8c-1.7 0-3 1.4-3 3 0 1.7 1.4 3 3 3 1.7 0 3-1.4 3-3 0-1.7-1.3-3-3-3z"/></g><g><circle fill="#F9F9F9" cx="506.1" cy="321.9" r="4"/><path fill="#DDD" d="M506.1 326.9c-2.8 0-5-2.2-5-5s2.2-5 5-5 5 2.2 5 5c0 2.7-2.2 5-5 5zm0-8c-1.7 0-3 1.4-3 3 0 1.7 1.4 3 3 3 1.7 0 3-1.4 3-3 0-1.7-1.4-3-3-3z"/></g><g><circle fill="#F9F9F9" cx="480.7" cy="321.9" r="4"/><path fill="#DDD" d="M480.7 326.9c-2.8 0-5-2.2-5-5s2.2-5 5-5 5 2.2 5 5c0 2.7-2.2 5-5 5zm0-8c-1.7 0-3 1.4-3 3 0 1.7 1.4 3 3 3s3-1.4 3-3c0-1.7-1.3-3-3-3z"/></g><g><path fill="#F9F9F9" d="M438 333.9h113v4H438z"/><path fill="#DDD" d="M552 338.9H437v-6h115v6zm-113-2h111v-2H439v2z"/></g><g><path fill="#F9F9F9" d="M438 341.9h113v4H438z"/><path fill="#DDD" d="M552 346.9H437v-6h115v6zm-113-2h111v-2H439v2z"/></g><g><path fill="#F9F9F9" d="M438 349.9h113v5H438z"/><path fill="#DDD" d="M552 355.9H437v-7h115v7zm-113-2h111v-3H439v3z"/></g><g><path fill="#F9F9F9" d="M226 189.9h91v27h-91z"/><path fill="#DDD" d="M318 217.9h-93v-29h93v29zm-91-2h89v-25h-89v25z"/></g><g><path fill="#DDD" d="M278.5 210.6c-3 0-5.4-2.4-5.4-5.4s2.4-5.4 5.4-5.4 5.4 2.4 5.4 5.4-2.5 5.4-5.4 5.4zm0-8.7c-1.9 0-3.4 1.5-3.4 3.4s1.5 3.4 3.4 3.4 3.4-1.5 3.4-3.4-1.6-3.4-3.4-3.4z"/></g><g><path fill="#DDD" d="M292.3 210.6c-3 0-5.4-2.4-5.4-5.4s2.4-5.4 5.4-5.4 5.4 2.4 5.4 5.4-2.4 5.4-5.4 5.4zm0-8.7c-1.9 0-3.4 1.5-3.4 3.4s1.5 3.4 3.4 3.4 3.4-1.5 3.4-3.4-1.6-3.4-3.4-3.4z"/></g><g><path fill="#DDD" d="M264.6 210.6c-3 0-5.4-2.4-5.4-5.4s2.4-5.4 5.4-5.4 5.4 2.4 5.4 5.4-2.4 5.4-5.4 5.4zm0-8.7c-1.9 0-3.4 1.5-3.4 3.4s1.5 3.4 3.4 3.4 3.4-1.5 3.4-3.4-1.5-3.4-3.4-3.4z"/></g><g><path fill="#DDD" d="M306.1 210.6c-3 0-5.4-2.4-5.4-5.4s2.4-5.4 5.4-5.4 5.4 2.4 5.4 5.4-2.4 5.4-5.4 5.4zm0-8.7c-1.9 0-3.4 1.5-3.4 3.4s1.5 3.4 3.4 3.4 3.4-1.5 3.4-3.4-1.5-3.4-3.4-3.4z"/></g><g><path fill="#F9F9F9" d="M268 169.9h7v18h-7z"/><path fill="#DDD" d="M276 188.9h-9v-20h9v20zm-7-2h5v-16h-5v16z"/></g><g><circle fill="#F9F9F9" cx="271.1" cy="166.3" r="5.4"/><path fill="#DDD" d="M271.1 172.6c-3.5 0-6.4-2.9-6.4-6.4s2.9-6.4 6.4-6.4 6.4 2.9 6.4 6.4-2.9 6.4-6.4 6.4zm0-10.7c-2.4 0-4.4 2-4.4 4.4s2 4.4 4.4 4.4 4.4-2 4.4-4.4-2-4.4-4.4-4.4z"/></g><g><path fill="#DDD" d="M285.2 160.9h-2c0-7-5.9-12.6-13.2-12.6-7.3 0-13.2 5.7-13.2 12.6h-2c0-8.1 6.8-14.6 15.2-14.6s15.2 6.5 15.2 14.6z"/></g><g><path fill="#DDD" d="M293.2 158.9h-2c0-10.8-9.2-19.5-20.5-19.5s-20.5 8.8-20.5 19.5h-2c0-11.9 10.1-21.5 22.5-21.5s22.5 9.6 22.5 21.5z"/></g><g><path fill="#DDD" d="M297.1 152.4c-.7-13-12.1-23.2-25.7-23.2-14.3 0-26.9 10.5-27.4 22.9l-2-.1c.6-13.7 13.8-24.9 29.4-24.9 14.7 0 26.9 11 27.7 25.1l-2 .2z"/></g><g><path fill="#F9F9F9" d="M69.9 354l2.7-7.4 5.8 5.1z"/><path fill="#DDD" d="M68.3 355.5l3.8-10.7 8.2 7.4-12 3.3zm4.7-7.2l-1.5 4.3 4.8-1.3-3.3-3z"/></g><g><path fill="#F9F9F9" d="M100 344l.3 8-7.2-2.7z"/><path fill="#DDD" d="M101.4 353.4L91 349.6l10-7.5.4 11.3zm-6.3-4.4l4.1 1.5-.2-4.5-3.9 3z"/></g><g><path fill="#F9F9F9" d="M19.7 327.5l-5 6.1-3.7-6.8z"/><path fill="#DDD" d="M14.5 335.4l-5.3-9.7 12.5.9-7.2 8.8zm-1.8-7.5l2.1 3.9 2.9-3.5-5-.4z"/></g><g><path fill="#F9F9F9" d="M121 341.9l1.1 7.9-7.5-1.9z"/><path fill="#DDD" d="M123.3 351.1l-10.7-2.7 9.2-8.5 1.5 11.2zm-6.7-3.8l4.3 1.1-.6-4.5-3.7 3.4z"/></g><g><path fill="#F9F9F9" d="M7.8 344.2l7.9.2-3.1 7.1z"/><path fill="#DDD" d="M12.7 353.6l-6.8-10.5 11.3.4-4.5 10.1zm-3-8.4l2.7 4.2 1.8-4-4.5-.2z"/></g><g><path fill="#F9F9F9" d="M30.3 329.4l7.9-1.3-1.8 7.5z"/><path fill="#DDD" d="M37 337.7l-8.7-9 11.2-1.8-2.5 10.8zm-4.6-7.7l3.5 3.6 1-4.3-4.5.7z"/></g><g><path fill="#F9F9F9" d="M45.9 350.8l3.7-7 4.9 5.9z"/><path fill="#DDD" d="M44.1 352.1l5.3-10 7.1 8.5-12.4 1.5zm5.6-6.5l-2.1 4 4.9-.6-2.8-3.4z"/></g><g><path fill="#F9F9F9" d="M24.8 347.2l7.8-1.4-1.5 7.5z"/><path fill="#DDD" d="M31.7 355.3l-8.9-8.7 11.1-2.1-2.2 10.8zm-4.8-7.4l3.6 3.5.9-4.3-4.5.8z"/></g><g><ellipse fill="#F9F9F9" cx="617.9" cy="109.4" rx="4.7" ry="4.7"/><path fill="#DDD" d="M617.9 115.1c-3.1 0-5.7-2.6-5.7-5.7s2.6-5.7 5.7-5.7 5.7 2.6 5.7 5.7-2.6 5.7-5.7 5.7zm0-9.4c-2 0-3.7 1.7-3.7 3.7s1.7 3.7 3.7 3.7 3.7-1.7 3.7-3.7-1.7-3.7-3.7-3.7z"/></g><g><path fill="#F9F9F9" d="M610 65.9h16v22h-16z"/><path fill="#DDD" d="M627 88.9h-18v-24h18v24zm-16-2h14v-20h-14v20z"/><path fill="#DDD" d="M617 87.9h2v17h-2zM617 113.9h2v20h-2zM609 107.9h5v2h-5zM623 107.9h5v2h-5zM610 72.9h16v2h-16z"/><path fill="#F9F9F9" d="M609 127.9v-34h-17v34z"/><path fill="#DDD" d="M610 128.9h-19v-36h19v36zm-17-2h15v-32h-15v32z"/><path fill="#DDD" d="M591 100.9h18v2h-18zM591 109.9h18v2h-18zM591 117.9h18v2h-18z"/><path fill="#DDD" d="M599 93.9h2v33h-2z"/><path fill="#F9F9F9" d="M645 127.9v-34h-18v34z"/><path fill="#DDD" d="M646 128.9h-20v-36h20v36zm-18-2h16v-32h-16v32z"/><path fill="#DDD" d="M627 100.9h18v2h-18zM627 109.9h18v2h-18zM627 117.9h18v2h-18z"/><g><path fill="#DDD" d="M635 93.9h2v33h-2z"/></g><g><path fill="#F9F9F9" d="M611 133.9h15v22h-15z"/><path fill="#DDD" d="M627 156.9h-17v-24h17v24zm-15-2h13v-20h-13v20z"/></g><g><path fill="#DDD" d="M611 147.9h16v2h-16z"/></g></g><g><path fill="#F9F9F9" d="M617-.1v67"/><path fill="#DDD" d="M616-.1h2v67h-2z"/></g><g><path fill="#F9F9F9" d="M617 397.9v28"/><path fill="#DDD" d="M616 397.9h2v28h-2z"/></g><g><ellipse fill="#EDEDED" cx="374.7" cy="172.6" rx="14.8" ry="14.3"/><path fill="#DDD" d="M374.7 187.9c-8.7 0-15.8-6.9-15.8-15.3 0-8.5 7.1-15.3 15.8-15.3s15.8 6.9 15.8 15.3-7.1 15.3-15.8 15.3zm0-28.7c-7.6 0-13.8 6-13.8 13.3s6.2 13.3 13.8 13.3c7.6 0 13.8-6 13.8-13.3s-6.2-13.3-13.8-13.3z"/></g><g><path fill="#EDEDED" d="M345 107.9h8v9h-8z"/><path fill="#DDD" d="M354 117.9h-10v-11h10v11zm-8-2h6v-7h-6v7z"/></g><g><path fill="#EDEDED" d="M394 107.9h7v8h-7z"/><path fill="#DDD" d="M402 116.9h-9v-10h9v10zm-7-2h5v-6h-5v6z"/></g><g><path fill="#EDEDED" d="M362 122.9h23v5h-23z"/><path fill="#DDD" d="M386 128.9h-25v-7h25v7zm-23-2h21v-3h-21v3z"/></g><g><path fill="#F9F9F9" d="M396.8 108.9c0-12.6-10.3-22.7-22.9-22.7s-22.9 10-22.9 22.6l-.2 15.1h45.9l.1-15z"/><path fill="#DDD" d="M397.7 124.9h-47.9l.2-16.1c0-13 10.7-23.7 23.9-23.7s23.9 10.6 23.9 23.7l-.1 16.1zm-45.8-2h43.8l.1-14c0-12-9.8-21.7-21.9-21.7-12.1 0-21.9 9.7-21.9 21.7l-.1 14z"/></g><g><path fill="#DDD" d="M373.5 118.4c-3.6 0-6.6-3.9-6.6-6.5h2c0 1.5 2.1 4.5 4.6 4.5s4.6-3 4.6-4.5h2c0 2.6-3 6.5-6.6 6.5z"/></g><g><path fill="#DDD" d="M365.5 107.9h-2c0-1-.9-2-2-2s-2 1-2 2h-2c0-2 1.8-4 4-4s4 2 4 4z"/></g><g><path fill="#DDD" d="M390.1 107.9h-2c0-1-.9-2-2-2s-2 1-2 2h-2c0-2 1.8-4 4-4s4 2 4 4z"/></g><g><path fill="#F9F9F9" d="M349 127.9h52v42h-52z"/><path fill="#DDD" d="M402 170.9h-54v-44h54v44zm-52-2h50v-40h-50v40z"/></g><g><path fill="#EDEDED" d="M347 148.9h-15.7s-5.8-.2-6.1-4.3c-.2-2.8-.1-15.7-.1-15.7h4.9v11.2s.2 3.5 4.1 3.8c2 .2 13 0 13 0v5z"/><path fill="#DDD" d="M348 149.9h-16.7c-2.3-.1-6.8-1.3-7.1-5.3-.2-2.8-.1-15.2-.1-15.8v-1h6.9v12.3c0 .2.3 2.6 3.1 2.8.4 0 1.4.1 4.2.1 3.8 0 8.7-.1 8.7-.1h1v7zm-21.9-20c0 3.1-.1 12.3.1 14.6.3 3.2 5.1 3.4 5.1 3.4H346V145c-1.6 0-4.9.1-7.7.1-2.3 0-3.7 0-4.3-.1-3.8-.3-4.9-3.2-5-4.7V130h-2.9z"/></g><g><path fill="#DDD" d="M327.4 129.6c-5 0-9-4-9-8.8 0-3 1.6-5.8 4.2-7.4l1.1 1.7c-2 1.3-3.2 3.4-3.2 5.8 0 3.8 3.2 6.8 7 6.8s7-3.1 7-6.8c0-2.5-1.4-4.8-3.7-6l.9-1.8c2.9 1.6 4.7 4.5 4.7 7.8 0 4.8-4 8.7-9 8.7z"/></g><g><path fill="#EDEDED" d="M400 134.9h16.1s5.8.2 6.1 4.3c.2 2.8.1 15.7.1 15.7h-4.9v-11.2s-.4-3.5-4.2-3.8c-2-.2-13.1 0-13.1 0v-5z"/><path fill="#DDD" d="M423.2 155.9h-6.9v-12.2c-.1-.4-.5-2.6-3.3-2.8-.4 0-1.4-.1-4-.1-3.9 0-9.1.1-9.1.1h-1v-7H416c2.3.1 6.8 1.3 7.1 5.3.2 2.8.1 15.2.1 15.8v.9zm-4.9-2h2.9c0-3.1.1-12.3-.1-14.6-.3-3.2-5.1-3.4-5.1-3.4h-15v3c1.7 0 5.2-.1 8.1-.1 2.2 0 3.5 0 4.1.1 3.7.3 5 3.2 5.1 4.7V153.9z"/></g><g><path fill="#DDD" d="M415.6 170.8c-2.9-1.6-4.7-4.5-4.7-7.8 0-4.9 4.1-8.8 9-8.8s9 4 9 8.8c0 3-1.6 5.8-4.2 7.4l-1.1-1.7c2-1.3 3.2-3.4 3.2-5.8 0-3.8-3.2-6.8-7-6.8s-7 3.1-7 6.8c0 2.5 1.4 4.8 3.7 6l-.9 1.9z"/></g><g><path fill="#DDD" d="M380.599 161.756l.01 2.2-10.5.046-.01-2.2zM361 134.9v25h27.7l.1-25H361zm25.4 22h-22.3l-.1-20h22.3l.1 20z"/><path fill="#DDD" d="M372 144.3h-3.8v-3.4h3.8v3.4zm0 8.6h-4v-4h4v4zM382.2 144.2h-3.8v-3.4h3.8v3.4zm0 8.1l-3.2 2.1-.6-1 1-.9-1-.2v-3.4h3.8v3.4z"/></g><g><circle fill="#EDEDED" cx="374.3" cy="82.2" r="3.7"/><path fill="#DDD" d="M374.3 86.9c-2.6 0-4.7-2.1-4.7-4.7s2.1-4.7 4.7-4.7 4.7 2.1 4.7 4.7-2.1 4.7-4.7 4.7zm0-7.3c-1.5 0-2.7 1.2-2.7 2.7 0 1.5 1.2 2.7 2.7 2.7 1.5 0 2.7-1.2 2.7-2.7 0-1.5-1.2-2.7-2.7-2.7z"/></g><g><path fill="#DDD" d="M126.4 109.6c-5 0-9-4-9-8.8 0-3 1.6-5.8 4.2-7.4l1.1 1.7c-2 1.3-3.2 3.4-3.2 5.8 0 3.8 3.2 6.8 7 6.8s7-3.1 7-6.8c0-2.5-1.4-4.8-3.7-6l.9-1.8c2.9 1.6 4.7 4.5 4.7 7.8 0 4.8-4 8.7-9 8.7z"/></g><g><path fill="#F9F9F9" d="M348 184.9h54v32h-54z"/><path fill="#DDD" d="M403 217.9h-56v-34h56v34zm-54-2h52v-30h-52v30z"/><path fill="#F9F9F9" d="M347.5 184.8l27.7 20.6 26.8-20.6"/><path fill="#DDD" d="M375.2 206.7l-28.3-21.1 1.2-1.6 27.1 20.2 26.2-20.1 1.2 1.5z"/><g><path fill="#F9F9F9" d="M347.5 216.8l16.7-18.5"/><path fill="#DDD" d="M363.427 197.606l1.483 1.342-16.703 18.466-1.483-1.342z"/></g><g><path fill="#DDD" d="M435.5 217.9l-33.9-.1-18-18.8 1.4-1.3 17.4 18.1 33.1.1z"/></g></g><g><path fill="#F9F9F9" d="M286 89.9h43v26h-43z"/><path fill="#DDD" d="M330 116.9h-45v-28h45v28zm-43-2h41v-24h-41v24z"/><path fill="#DDD" d="M307.6 108L285 91.1l1.2-1.6 21.4 16 20.8-16 1.2 1.6z"/><path fill="#F9F9F9" d="M285.6 115.8l13.3-14.7"/><path fill="#DDD" d="M298.119 100.381l1.483 1.342-13.282 14.684-1.483-1.342z"/><g><path fill="#F9F9F9" d="M314.9 101.1l14.1 14.7"/><path fill="#DDD" d="M315.667 100.388l14.129 14.714-1.443 1.385-14.129-14.714z"/></g></g><g><defs><path id="C" d="M737 364.9h7v8h-7z"/></defs><defs><path id="D" d="M745 373.9h-9v-10h9v10zm-7-2h5v-6h-5v6z"/></defs><use xlink:href="#C" overflow="visible" fill-rule="evenodd" clip-rule="evenodd" fill="#F9F9F9"/><use xlink:href="#D" overflow="visible" fill="#DDD"/><clipPath id="E"><use xlink:href="#C" overflow="visible"/></clipPath><clipPath id="F" clip-path="url(#E)"><use xlink:href="#D" overflow="visible"/></clipPath><g clip-path="url(#F)"><defs><path id="G" d="M678 202.9h335v1447H678z"/></defs><defs><path id="H" d="M1014 1650.9H677v-1449h337v1449zm-335-2h333v-1445H679v1445z"/></defs><use xlink:href="#G" overflow="visible" fill="#F9F9F9"/><use xlink:href="#H" overflow="visible" fill="#DDD"/><clipPath id="I"><use xlink:href="#G" overflow="visible"/></clipPath><clipPath id="J" clip-path="url(#I)"><use xlink:href="#H" overflow="visible"/></clipPath><g clip-path="url(#J)"><path fill="#F9F9F9" d="M737 364.9h7v8h-7z"/><path fill="#DDD" d="M745 373.9h-9v-10h9v10zm-7-2h5v-6h-5v6z"/></g></g></g><g><defs><path id="K" d="M737 364.9h7v8h-7z"/></defs><defs><path id="L" d="M745 373.9h-9v-10h9v10zm-7-2h5v-6h-5v6z"/></defs><use xlink:href="#K" overflow="visible" fill-rule="evenodd" clip-rule="evenodd" fill="#F9F9F9"/><use xlink:href="#L" overflow="visible" fill="#DDD"/><clipPath id="M"><use xlink:href="#K" overflow="visible"/></clipPath><clipPath id="N" clip-path="url(#M)"><use xlink:href="#L" overflow="visible"/></clipPath><g clip-path="url(#N)"><defs><path id="O" d="M678 202.9h335v1447H678z"/></defs><defs><path id="P" d="M1014 1650.9H677v-1449h337v1449zm-335-2h333v-1445H679v1445z"/></defs><use xlink:href="#O" overflow="visible" fill="#F9F9F9"/><use xlink:href="#P" overflow="visible" fill="#DDD"/><clipPath id="Q"><use xlink:href="#O" overflow="visible"/></clipPath><clipPath id="R" clip-path="url(#Q)"><use xlink:href="#P" overflow="visible"/></clipPath><g clip-path="url(#R)"><path fill="#F9F9F9" d="M737 364.9h7v8h-7z"/><path fill="#DDD" d="M745 373.9h-9v-10h9v10zm-7-2h5v-6h-5v6z"/></g></g></g><g><defs><path id="S" d="M737 364.9h7v8h-7z"/></defs><defs><path id="T" d="M745 373.9h-9v-10h9v10zm-7-2h5v-6h-5v6z"/></defs><use xlink:href="#S" overflow="visible" fill-rule="evenodd" clip-rule="evenodd" fill="#F9F9F9"/><use xlink:href="#T" overflow="visible" fill="#DDD"/><clipPath id="U"><use xlink:href="#S" overflow="visible"/></clipPath><clipPath id="V" clip-path="url(#U)"><use xlink:href="#T" overflow="visible"/></clipPath><g clip-path="url(#V)"><defs><path id="W" d="M678 202.9h335v1447H678z"/></defs><defs><path id="X" d="M1014 1650.9H677v-1449h337v1449zm-335-2h333v-1445H679v1445z"/></defs><use xlink:href="#W" overflow="visible" fill="#F9F9F9"/><use xlink:href="#X" overflow="visible" fill="#DDD"/><clipPath id="Y"><use xlink:href="#W" overflow="visible"/></clipPath><clipPath id="Z" clip-path="url(#Y)"><use xlink:href="#X" overflow="visible"/></clipPath><g clip-path="url(#Z)"><path fill="#F9F9F9" d="M737 364.9h7v8h-7z"/><path fill="#DDD" d="M745 373.9h-9v-10h9v10zm-7-2h5v-6h-5v6z"/></g></g></g><g><defs><path id="aa" d="M737 364.9h7v8h-7z"/></defs><defs><path id="ab" d="M745 373.9h-9v-10h9v10zm-7-2h5v-6h-5v6z"/></defs><use xlink:href="#aa" overflow="visible" fill-rule="evenodd" clip-rule="evenodd" fill="#F9F9F9"/><use xlink:href="#ab" overflow="visible" fill="#DDD"/><clipPath id="ac"><use xlink:href="#aa" overflow="visible"/></clipPath><clipPath id="ad" clip-path="url(#ac)"><use xlink:href="#ab" overflow="visible"/></clipPath><g clip-path="url(#ad)"><defs><path id="ae" d="M678 203.9h335v1446H678z"/></defs><defs><path id="af" d="M1014 1650.9H677v-1448h337v1448zm-335-2h333v-1444H679v1444z"/></defs><use xlink:href="#ae" overflow="visible" fill="#F9F9F9"/><use xlink:href="#af" overflow="visible" fill="#DDD"/><clipPath id="ag"><use xlink:href="#ae" overflow="visible"/></clipPath><clipPath id="ah" clip-path="url(#ag)"><use xlink:href="#af" overflow="visible"/></clipPath><g clip-path="url(#ah)"><path fill="#F9F9F9" d="M737 364.9h7v8h-7z"/><path fill="#DDD" d="M745 373.9h-9v-10h9v10zm-7-2h5v-6h-5v6z"/></g></g></g><g><defs><path id="ai" d="M737 364.9h7v8h-7z"/></defs><defs><path id="aj" d="M745 373.9h-9v-10h9v10zm-7-2h5v-6h-5v6z"/></defs><use xlink:href="#ai" overflow="visible" fill-rule="evenodd" clip-rule="evenodd" fill="#F9F9F9"/><use xlink:href="#aj" overflow="visible" fill="#DDD"/><clipPath id="ak"><use xlink:href="#ai" overflow="visible"/></clipPath><clipPath id="al" clip-path="url(#ak)"><use xlink:href="#aj" overflow="visible"/></clipPath><g clip-path="url(#al)"><defs><path id="am" d="M678 203.9h335v1446H678z"/></defs><defs><path id="an" d="M1014 1650.9H677v-1448h337v1448zm-335-2h333v-1444H679v1444z"/></defs><use xlink:href="#am" overflow="visible" fill="#F9F9F9"/><use xlink:href="#an" overflow="visible" fill="#DDD"/><clipPath id="ao"><use xlink:href="#am" overflow="visible"/></clipPath><clipPath id="ap" clip-path="url(#ao)"><use xlink:href="#an" overflow="visible"/></clipPath><g clip-path="url(#ap)"><path fill="#F9F9F9" d="M737 364.9h7v8h-7z"/><path fill="#DDD" d="M745 373.9h-9v-10h9v10zm-7-2h5v-6h-5v6z"/></g></g></g><g><defs><path id="aq" d="M748 386.9h7v8h-7z"/></defs><defs><path id="ar" d="M756 395.9h-9v-10h9v10zm-7-2h5v-6h-5v6z"/></defs><use xlink:href="#aq" overflow="visible" fill-rule="evenodd" clip-rule="evenodd" fill="#F9F9F9"/><use xlink:href="#ar" overflow="visible" fill="#DDD"/><clipPath id="as"><use xlink:href="#aq" overflow="visible"/></clipPath><clipPath id="at" clip-path="url(#as)"><use xlink:href="#ar" overflow="visible"/></clipPath><g clip-path="url(#at)"><defs><path id="au" d="M690 225.9h334v1446H690z"/></defs><defs><path id="av" d="M1025 1672.9H689v-1448h336v1448zm-334-2h332v-1444H691v1444z"/></defs><use xlink:href="#au" overflow="visible" fill="#F9F9F9"/><use xlink:href="#av" overflow="visible" fill="#DDD"/><clipPath id="aw"><use xlink:href="#au" overflow="visible"/></clipPath><clipPath id="ax" clip-path="url(#aw)"><use xlink:href="#av" overflow="visible"/></clipPath><g clip-path="url(#ax)"><path fill="#F9F9F9" d="M748 386.9h7v8h-7z"/><path fill="#DDD" d="M756 395.9h-9v-10h9v10zm-7-2h5v-6h-5v6z"/></g></g></g><g><defs><path id="ay" d="M707 307.9h7v8h-7z"/></defs><defs><path id="az" d="M715 316.9h-9v-10h9v10zm-7-2h5v-6h-5v6z"/></defs><use xlink:href="#ay" overflow="visible" fill-rule="evenodd" clip-rule="evenodd" fill="#F9F9F9"/><use xlink:href="#az" overflow="visible" fill="#DDD"/><clipPath id="aA"><use xlink:href="#ay" overflow="visible"/></clipPath><clipPath id="aB" clip-path="url(#aA)"><use xlink:href="#az" overflow="visible"/></clipPath><g clip-path="url(#aB)"><defs><path id="aC" d="M649 145.9h335v1447H649z"/></defs><defs><path id="aD" d="M985 1593.9H648v-1449h337v1449zm-335-2h333v-1445H650v1445z"/></defs><use xlink:href="#aC" overflow="visible" fill="#F9F9F9"/><use xlink:href="#aD" overflow="visible" fill="#DDD"/><clipPath id="aE"><use xlink:href="#aC" overflow="visible"/></clipPath><clipPath id="aF" clip-path="url(#aE)"><use xlink:href="#aD" overflow="visible"/></clipPath><g clip-path="url(#aF)"><path fill="#F9F9F9" d="M707 307.9h7v8h-7z"/><path fill="#DDD" d="M715 316.9h-9v-10h9v10zm-7-2h5v-6h-5v6z"/></g></g></g><g><defs><path id="aG" d="M725 398.9h8v8h-8z"/></defs><defs><path id="aH" d="M734 407.9h-10v-10h10v10zm-8-2h6v-6h-6v6z"/></defs><use xlink:href="#aG" overflow="visible" fill-rule="evenodd" clip-rule="evenodd" fill="#F9F9F9"/><use xlink:href="#aH" overflow="visible" fill="#DDD"/><clipPath id="aI"><use xlink:href="#aG" overflow="visible"/></clipPath><clipPath id="aJ" clip-path="url(#aI)"><use xlink:href="#aH" overflow="visible"/></clipPath><g clip-path="url(#aJ)"><defs><path id="aK" d="M667 236.9h335v1447H667z"/></defs><defs><path id="aL" d="M1003 1684.9H666v-1449h337v1449zm-335-2h333v-1445H668v1445z"/></defs><use xlink:href="#aK" overflow="visible" fill="#F9F9F9"/><use xlink:href="#aL" overflow="visible" fill="#DDD"/><clipPath id="aM"><use xlink:href="#aK" overflow="visible"/></clipPath><clipPath id="aN" clip-path="url(#aM)"><use xlink:href="#aL" overflow="visible"/></clipPath><g clip-path="url(#aN)"><path fill="#F9F9F9" d="M725 398.9h8v8h-8z"/><path fill="#DDD" d="M734 407.9h-10v-10h10v10zm-8-2h6v-6h-6v6z"/></g></g></g><g><defs><path id="aO" d="M744 336.9h7v8h-7z"/></defs><defs><path id="aP" d="M752 345.9h-9v-10h9v10zm-7-2h5v-6h-5v6z"/></defs><use xlink:href="#aO" overflow="visible" fill-rule="evenodd" clip-rule="evenodd" fill="#F9F9F9"/><use xlink:href="#aP" overflow="visible" fill="#DDD"/><clipPath id="aQ"><use xlink:href="#aO" overflow="visible"/></clipPath><clipPath id="aR" clip-path="url(#aQ)"><use xlink:href="#aP" overflow="visible"/></clipPath><g clip-path="url(#aR)"><defs><path id="aS" d="M685 174.9h335v1447H685z"/></defs><defs><path id="aT" d="M1021 1622.9H684v-1449h337v1449zm-335-2h333v-1445H686v1445z"/></defs><use xlink:href="#aS" overflow="visible" fill="#F9F9F9"/><use xlink:href="#aT" overflow="visible" fill="#DDD"/><clipPath id="aU"><use xlink:href="#aS" overflow="visible"/></clipPath><clipPath id="aV" clip-path="url(#aU)"><use xlink:href="#aT" overflow="visible"/></clipPath><g clip-path="url(#aV)"><path fill="#F9F9F9" d="M744 336.9h7v8h-7z"/><path fill="#DDD" d="M752 345.9h-9v-10h9v10zm-7-2h5v-6h-5v6z"/></g></g></g><g><defs><path id="aW" d="M704 277.9h15v16h-15z"/></defs><defs><path id="aX" d="M720 294.9h-17v-18h17v18zm-15-2h13v-14h-13v14z"/></defs><use xlink:href="#aW" overflow="visible" fill-rule="evenodd" clip-rule="evenodd" fill="#F9F9F9"/><use xlink:href="#aX" overflow="visible" fill="#DDD"/><clipPath id="aY"><use xlink:href="#aW" overflow="visible"/></clipPath><clipPath id="aZ" clip-path="url(#aY)"><use xlink:href="#aX" overflow="visible"/></clipPath><g clip-path="url(#aZ)"><defs><path id="ba" d="M587-46.1h671v2896H587z"/></defs><defs><path id="bb" d="M1259 2850.9H586v-2898h673v2898zm-671-2h669v-2894H588v2894z"/></defs><use xlink:href="#ba" overflow="visible" fill="#F9F9F9"/><use xlink:href="#bb" overflow="visible" fill="#DDD"/><clipPath id="bc"><use xlink:href="#ba" overflow="visible"/></clipPath><clipPath id="bd" clip-path="url(#bc)"><use xlink:href="#bb" overflow="visible"/></clipPath><g clip-path="url(#bd)"><path fill="#F9F9F9" d="M704 277.9h15v16h-15z"/><path fill="#DDD" d="M720 294.9h-17v-18h17v18zm-15-2h13v-14h-13v14z"/></g></g></g><g><defs><path id="be" d="M712 332.9h15v16h-15z"/></defs><defs><path id="bf" d="M728 349.9h-17v-18h17v18zm-15-2h13v-14h-13v14z"/></defs><use xlink:href="#be" overflow="visible" fill-rule="evenodd" clip-rule="evenodd" fill="#F9F9F9"/><use xlink:href="#bf" overflow="visible" fill="#DDD"/><clipPath id="bg"><use xlink:href="#be" overflow="visible"/></clipPath><clipPath id="bh" clip-path="url(#bg)"><use xlink:href="#bf" overflow="visible"/></clipPath><g clip-path="url(#bh)"><defs><path id="bi" d="M596 9.9h670v2895H596z"/></defs><defs><path id="bj" d="M1267 2905.9H595V8.9h672v2897zm-670-2h668V10.9H597v2893z"/></defs><use xlink:href="#bi" overflow="visible" fill="#F9F9F9"/><use xlink:href="#bj" overflow="visible" fill="#DDD"/><clipPath id="bk"><use xlink:href="#bi" overflow="visible"/></clipPath><clipPath id="bl" clip-path="url(#bk)"><use xlink:href="#bj" overflow="visible"/></clipPath><g clip-path="url(#bl)"><path fill="#F9F9F9" d="M712 332.9h15v16h-15z"/><path fill="#DDD" d="M728 349.9h-17v-18h17v18zm-15-2h13v-14h-13v14z"/></g></g></g><g><path fill="#DDD" d="M263 215.9h137v2H263z"/></g><g><path fill="#EDEDED" d="M389.9 260.9l-.3 24.5-44.6-.4v-32.1h11.9l4.5 8z"/><path fill="#DDD" d="M390.6 286.4L344 286v-34.1h13.5l4.4 8h28.9l-.2 26.5zM346 284l42.6.4.2-22.5h-28.1l-4.4-8H346V284z"/></g><g><path fill="#DDD" d="M355.002 244.78l26.5.041-.003 2-26.5-.042z"/></g><g><path fill="#DDD" d="M363.003 250.78l17.5.042-.004 2-17.5-.042z"/></g><g><path fill="#F9F9F9" d="M314.1 261.8l2.7-6.4-3.5-1.5c.1-1.2 0-2.7-.2-4.1l3.4-1.4-2.5-5.3-3.3 1.8c-.7-.9-2.6-2.2-2.5-2.5l1.6-3.9-6.4-2.7-1.6 3.9c-.1.2-2.1-.1-3.3 0l-1.2-3.6-5.5 2.1 1.5 3.2c-1.3.8-2.5 1.9-3.3 2.8l-3.5-1.5-2.7 6.4 3.4 1.4c.4.1-.2 3.2.1 4.7l-3.4 1.5 2.5 5.4 3.3-1.6c.7.9 2.6 2.2 2.5 2.5l-1.3 3 6.4 2.7 1.3-3c1.2.2 2.3.1 3.6 0l1.2 3.5 5.5-2.1-1.4-3.5c1.3-.8 2.9-3.3 3.2-3.2l3.4 1.4zm-16.1-3.1c-3.3-1.4-4.8-5.2-3.4-8.6 1.4-3.3 5.2-4.8 8.6-3.4 3.4 1.4 4.8 5.2 3.4 8.6-1.5 3.2-5.4 4.8-8.6 3.4z"/><path fill="#DDD" d="M302.9 270.4l-1.3-3.8c-.8.1-1.6.1-2.3 0l-1.4 3.3-8.3-3.5 1.4-3.4-.4-.4c-.4-.3-.8-.7-1.1-1l-3.5 1.8-3.3-7.2 3.6-1.6c-.1-.8 0-1.7 0-2.5v-.9l-3.8-1.6 3.5-8.3 3.8 1.6c.7-.7 1.5-1.4 2.3-2l-1.6-3.4 7.5-2.9 1.3 3.9c.4 0 .9 0 1.3.1h.6l1.8-4.2 8.3 3.5-1.8 4.2.4.4c.4.3.8.7 1.1 1l3.5-1.9 3.3 7.2-3.6 1.5c.1.8.2 1.8.2 2.8l3.8 1.6-3.5 8.3-3.7-1.7c-.1.1-.2.3-.3.4-.5.6-1.1 1.3-1.8 1.9l1.5 3.8-7.5 3zm.1-5.9l1.1 3.3 3.6-1.4-1.3-3.3.7-.4c.6-.4 1.4-1.5 2-2.2.8-.9 1.1-1.5 1.7-1.5h.2l.2.3 2.4 1.2 1.9-4.5-3.3-1.4.1-.7c.1-1 0-2.4-.2-3.8l-.1-.8 3.2-1.3-1.6-3.4-3.1 1.7-.5-.7c-.3-.4-.9-.9-1.4-1.3-.9-.8-1.6-1.4-1.2-2.2l1.2-2.9-4.6-1.9-1.3 3c-.3.7-1 .7-1.3.7h-1c-.6 0-1.3-.1-1.8 0l-.8.1-1.1-3.4-3.5 1.3 1.4 3-.7.5c-1.1.7-2.2 1.7-3.1 2.6l-.5.5-3.3-1.4-1.9 4.6 2.5 1c.8.3.8 1.2.7 2.6-.1.9-.1 2.1 0 2.7l.2.8-3.2 1.4 1.6 3.5 3.1-1.6.5.7c.3.4.9.9 1.4 1.3.9.8 1.6 1.4 1.2 2.2l-.9 2.1 4.6 1.9 1.2-2.9.8.2c.9.2 2 .1 3.2 0l1-.2zm-2.5-4.3c-1 0-2-.2-2.9-.6-3.8-1.6-5.5-6-3.9-9.9 1.2-2.8 3.9-4.5 6.9-4.5 1 0 2 .2 3 .6 3.8 1.6 5.6 5.9 3.9 9.9-1.2 2.7-4 4.5-7 4.5zm0-13c-2.2 0-4.2 1.3-5 3.3-1.2 2.9.1 6 2.9 7.2.7.3 1.4.4 2.2.4 2.2 0 4.2-1.3 5.1-3.3 1.2-2.9 0-6.1-2.9-7.2-.8-.3-1.5-.4-2.3-.4z"/></g><g><path fill="#DDD" d="M329.248 231.646l6.053 5.824-1.386 1.44-6.054-5.823z"/><path fill="#DDD" d="M333.877 231.507l1.426 1.402-5.888 5.991-1.426-1.402z"/></g><g><path fill="#F9F9F9" d="M452.1 113.8l2.7-6.4-3.5-1.5c.1-1.2 0-2.7-.2-4.1l3.4-1.4-2.5-5.3-3.3 1.8c-.7-.9-2.6-2.2-2.5-2.5l1.6-3.9-6.4-2.7-1.6 3.9c-.1.2-2.1-.1-3.3 0l-1.2-3.6-5.5 2.1 1.5 3.2c-1.3.8-2.5 1.9-3.3 2.8l-3.5-1.5-2.7 6.4 3.4 1.4c.4.1-.2 3.2.1 4.7l-3.4 1.5 2.5 5.4 3.3-1.6c.7.9 2.6 2.2 2.5 2.5l-1.3 3 6.4 2.7 1.3-3c1.2.2 2.3.1 3.6 0l1.2 3.5 5.5-2.1-1.4-3.5c1.3-.8 2.9-3.3 3.2-3.2l3.4 1.4zm-16.1-3.1c-3.3-1.4-4.8-5.2-3.4-8.6 1.4-3.3 5.2-4.8 8.6-3.4 3.4 1.4 4.8 5.2 3.4 8.6-1.5 3.2-5.4 4.8-8.6 3.4z"/><path fill="#DDD" d="M440.8 122.4l-1.3-3.8c-.8.1-1.6.1-2.3 0l-1.4 3.3-8.3-3.5 1.4-3.4-.4-.4c-.4-.3-.8-.7-1.1-1l-3.5 1.8-3.3-7.2 3.6-1.6c-.1-.8 0-1.7 0-2.5v-.9l-3.8-1.6 3.5-8.3 3.8 1.6c.7-.7 1.5-1.4 2.3-2l-1.6-3.4 7.5-2.9 1.3 3.9c.4 0 .9 0 1.3.1h.6l1.8-4.2 8.3 3.5-1.8 4.2.4.4c.4.3.8.6 1.1 1l3.5-1.9 3.3 7.2-3.6 1.5c.1.8.2 1.8.2 2.8l3.8 1.6-3.5 8.3-3.8-1.7c-.1.1-.2.3-.3.4-.5.6-1.1 1.3-1.8 1.9l1.5 3.8-7.4 3zm.2-5.9l1.1 3.3 3.6-1.4-1.3-3.3.7-.4c.6-.4 1.4-1.5 2-2.2.8-.9 1.1-1.5 1.7-1.5h.2l.2.3 2.4 1.2 1.9-4.5-3.3-1.4.1-.7c.1-1 0-2.4-.2-3.8l-.1-.8 3.2-1.3-1.6-3.4-3.1 1.7-.5-.7c-.3-.4-.9-.9-1.4-1.3-1-.8-1.6-1.4-1.2-2.2l1.2-2.9-4.6-1.9-1.3 3c-.3.7-1 .7-1.3.7h-1c-.6 0-1.3-.1-1.8 0l-.8.1-1.1-3.4-3.5 1.3 1.4 3-.7.5c-1.1.7-2.2 1.7-3.1 2.6l-.5.5-3.3-1.4-1.9 4.6 2.5 1c.8.3.8 1.2.7 2.6-.1.9-.1 2.1 0 2.7l.2.8-3.2 1.4 1.6 3.5 3.1-1.6.5.7c.3.4.9.9 1.4 1.3 1 .8 1.6 1.4 1.2 2.2l-.9 2.1 4.6 1.9 1.2-2.9.8.2c.9.2 2 .1 3.2 0l1-.2zm-2.5-4.3c-1 0-2-.2-2.9-.6-3.8-1.6-5.5-6-3.9-9.9 1.2-2.8 3.9-4.5 6.9-4.5 1 0 2 .2 3 .6 3.8 1.6 5.6 5.9 3.9 9.9-1.2 2.7-4 4.5-7 4.5zm0-13c-2.2 0-4.2 1.3-5 3.3-1.2 2.9.1 6 2.9 7.2.7.3 1.4.4 2.2.4 2.2 0 4.2-1.3 5.1-3.3 1.2-2.9 0-6.1-2.9-7.2-.8-.3-1.5-.4-2.3-.4z"/></g><g><path fill="#F9F9F9" d="M511 69.9v36h6v11.3l12.2-11.3H573v-36z"/><path fill="#DDD" d="M516 119.5v-12.6h-6v-38h64v38h-44.4L516 119.5zm-4-14.6h6v10l10.8-10H572v-34h-60v34z"/></g><g><path fill="#DDD" d="M523 78.9h36v2h-36z"/></g><g><path fill="#DDD" d="M523 85.9h36v2h-36z"/></g><g><path fill="#DDD" d="M523 92.9h36v2h-36z"/></g><g><path fill="#F9F9F9" d="M259 352.9h-33v-31h27.4l5.6 7.3z"/><path fill="#DDD" d="M260 353.9h-35v-33h28.9l6.1 8v25zm-33-2h31v-22.3l-5.1-6.7H227v29z"/></g><g><path fill="#F9F9F9" d="M234 321.9h16v9h-16z"/><path fill="#DDD" d="M251 331.9h-18v-11h18v11zm-16-2h14v-7h-14v7z"/></g><g><path fill="#F9F9F9" d="M233 338.9h20v14h-20z"/><path fill="#DDD" d="M254 353.9h-22v-16h22v16zm-20-2h18v-12h-18v12z"/></g><g><path fill="#F9F9F9" d="M245 323.9h2v5h-2z"/><path fill="#DDD" d="M248 329.9h-4v-7h4v7zm-2-2v-3 3z"/></g><g><path fill="#F9F9F9" d="M277 24.9h71v43h-71z"/><path fill="#DDD" d="M349 68.9h-73v-45h73v45zm-71-2h69v-41h-69v41z"/><path fill="#F9F9F9" d="M277 29.9h71"/><path fill="#DDD" d="M277 28.9h71v2h-71z"/><path fill="#F9F9F9" d="M303.3 58.9c0-5-4.6-10.4-10.4-10.4s-10.4 5.4-10.4 10.4h20.8z"/><path fill="#DDD" d="M304 59.9h-22v-1c0-5.4 4.5-11.4 11-11.4s11 6 11 11.4v1zm-20.4-2h18.6c-.6-4.1-4.4-8.4-9.3-8.4s-8.7 4.3-9.3 8.4z"/><circle fill="#F9F9F9" cx="293.2" cy="46.7" r="6.1"/><path fill="#DDD" d="M293.2 53.8c-3.9 0-7.1-3.2-7.1-7.1s3.2-7.1 7.1-7.1 7.1 3.2 7.1 7.1-3.2 7.1-7.1 7.1zm0-12.2c-2.8 0-5.1 2.3-5.1 5.1s2.3 5.1 5.1 5.1 5.1-2.3 5.1-5.1-2.3-5.1-5.1-5.1z"/><path fill="#F9F9F9" d="M314 40.9h23"/><path fill="#DDD" d="M314 39.9h23v2h-23z"/><g><path fill="#F9F9F9" d="M314 58.9h23"/><path fill="#DDD" d="M314 57.9h23v2h-23z"/></g><g><path fill="#F9F9F9" d="M314 53.9h23"/><path fill="#DDD" d="M314 52.9h23v2h-23z"/></g><g><path fill="#F9F9F9" d="M314 49.9h23"/><path fill="#DDD" d="M314 48.9h23v2h-23z"/></g><g><path fill="#F9F9F9" d="M314 44.9h23"/><path fill="#DDD" d="M314 43.9h23v2h-23z"/></g><g><path fill="#F9F9F9" d="M315 21.9v-5h-9v5h-5v6h20v-6z"/><path fill="#DDD" d="M322 28.9h-22v-8h5v-5h11v5h6v8zm-20-2h18v-4h-6v-5h-7v5h-5v4z"/></g></g><g><path fill="#F9F9F9" d="M123 70.9h43v25h-43z"/><path fill="#DDD" d="M167 96.9h-45v-27h45v27zm-43-2h41v-23h-41v23z"/><path fill="#DDD" d="M144.4 88l-22.5-16.7 1.2-1.6 21.3 15.8 20.7-15.8 1.2 1.6z"/><path fill="#F9F9F9" d="M122.5 95.8l13.2-14.6"/><path fill="#DDD" d="M134.987 80.48l1.483 1.343-13.221 14.606-1.483-1.343z"/><g><path fill="#F9F9F9" d="M151.7 81.2l14 14.6"/><path fill="#DDD" d="M152.333 80.466l13.99 14.57-1.442 1.386-13.99-14.57z"/></g></g><g><path fill="#F9F9F9" d="M391.2 384.5l2.1-5-2.7-1.2c.1-.9 0-2.1-.2-3.2l2.6-1.1-1.9-4.1-2.5 1.4c-.5-.7-2-1.7-1.9-1.9l1.3-3-5-2.1-1.3 3c-.1.2-1.6-.1-2.5 0l-.9-2.8-4.2 1.6 1.2 2.4c-1 .6-1.9 1.4-2.5 2.2l-2.7-1.2-2.1 5 2.6 1.1c.3.1-.2 2.4.1 3.6l-2.6 1.2 1.9 4.2 2.5-1.3c.5.7 2 1.7 1.9 1.9l-1 2.4 5 2.1 1-2.4c.9.2 1.8.1 2.8 0l.9 2.7 4.2-1.6-1.1-2.7c1-.6 2.3-2.5 2.4-2.4l2.6 1.2zm-12.4-2.5c-2.5-1.1-3.7-4-2.6-6.6 1.1-2.5 4-3.7 6.6-2.6s3.7 4 2.6 6.6c-1.1 2.6-4.1 3.7-6.6 2.6z"/><path fill="#DDD" d="M382.4 391.4l-1-3c-.5 0-1 .1-1.5 0l-1.1 2.6-6.8-2.9 1.1-2.7-.2-.2c-.2-.2-.5-.4-.8-.7l-2.8 1.4-2.7-6 2.9-1.3v-1.8-.5l-3-1.2 2.9-6.8 3 1.3c.5-.5 1-.9 1.5-1.3l-1.3-2.7 6.3-2.4 1 3.1h1.1l1.4-3.3 6.8 2.9-1.4 3.3.2.2c.2.2.5.4.7.7l2.8-1.5 2.8 6-2.9 1.2c.1.6.1 1.2.1 1.9l3 1.3-2.9 6.8-3-1.3c0 .1-.1.1-.2.2-.4.4-.8 1-1.3 1.4l1.2 3-5.9 2.3zm.3-5.1l.3.7.6 1.7 2.3-.9-1-2.5.7-.4c.4-.3 1.1-1.2 1.5-1.7.6-.7.9-1.3 1.5-1.3h.2l1.9 1.1 1.3-3-2.5-1 .1-.7c.1-.7 0-1.8-.2-2.9l-.1-.8 2.4-1-1-2.2-2.4 1.3-.5-.7c-.2-.3-.7-.7-1-1-.7-.6-1.4-1.2-1-2l.8-2-3.1-1.3-.9 2.1c-.3.7-1 .7-1.3.7h-.8c-.4 0-.9-.1-1.3 0l-.8.1-.8-2.6-2.2.9 1.1 2.3-.8.5c-.8.5-1.7 1.3-2.3 2l-.4.3-2.5-1.1-1.3 3.1 1.7.7c.8.3.7 1.1.7 2.3 0 .7-.1 1.6 0 2l.2.8-2.5 1.1 1.1 2.3 2.4-1.2.5.7c.2.3.7.7 1 1 .7.6 1.4 1.2 1 2l-.6 1.4 3.1 1.3.9-2.2.8.2c.7.1 1.5.1 2.4 0l.8-.1zm-2-2.8c-.8 0-1.6-.2-2.4-.5-3.1-1.3-4.4-4.8-3.2-7.9 1-2.2 3.1-3.6 5.5-3.6.8 0 1.6.2 2.4.5 3.1 1.3 4.5 4.7 3.2 7.9-.9 2.1-3.1 3.6-5.5 3.6zm0-10.1c-1.6 0-3 1-3.7 2.4-.9 2.1.1 4.4 2.1 5.3.5.2 1 .3 1.6.3 1.6 0 3.1-1 3.7-2.4.9-2.1 0-4.4-2.1-5.3-.5-.2-1-.3-1.6-.3z"/></g><g><path fill="#F9F9F9" d="M749 244.9c0 2.8-2.2 5-5 5h-43c-2.8 0-5-2.2-5-5v-37c0-2.8 2.2-5 5-5h43c2.8 0 5 2.2 5 5v37z"/><path fill="#DDD" d="M750 244.9c0 3.3-2.7 6-6 6h-43c-3.3 0-6-2.7-6-6v-37c0-3.3 2.7-6 6-6h43c3.3 0 6 2.7 6 6v37zm-2-37c0-2.2-1.8-4-4-4h-43c-2.2 0-4 1.8-4 4v37c0 2.2 1.8 4 4 4h43c2.2 0 4-1.8 4-4v-37z"/><path fill="#F9F9F9" d="M695.3 217.8l53.9.1"/><path fill="#DDD" d="M695.302 216.859l53.9.083-.003 2-53.9-.083z"/><path fill="#F9F9F9" d="M707 195.9h4v14h-4z"/><path fill="#DDD" d="M712 210.9h-6v-16h6v16zm-4-2h2v-12h-2v12z"/><g><path fill="#F9F9F9" d="M732 196.9h4v14h-4z"/><path fill="#DDD" d="M737 211.9h-6v-16h6v16zm-4-2h2v-12h-2v12z"/></g><g><path fill="#DDD" d="M715 225.5l-3 .5.1-3.8 7.9-1.4v12.1h-5v-7.4zM723.1 224.9l.1-4H735v3.3l-6.3 13.7h-4.6l6.3-13h-7.3z"/></g><g><path fill="#DDD" d="M716.6 240.3l-2.1 5.6h-.7l-2.1-5.6-.1 5.6h-.6l.2-6h.9l2.2 5.6 2.1-5.6h.9l.2 6h-.7l-.2-5.6zM725.8 245.9h-.7l-.7-2h-2.9l-.7 2h-.7l2.4-6h.8l2.5 6zm-2.8-6.3l-1.2 3.3h2.4l-1.2-3.3zM729 245.9v-6h1.5c1.6 0 2.3.5 2.3 1.6 0 1-.7 1.5-1.5 1.7l1.8 2.7h-.8l-1.9-2.7h-1.5v2.7zm1.4-3.3c.8 0 1.7-.5 1.7-1.4s-.5-1.3-1.6-1.3h-1.4v2.7h1.3z"/></g></g><g><path fill="#F9F9F9" d="M587 140.6l2.6-2.7.3 3.8 3.6.9-3.1 2.1 1 3.5-3.4-1.6-2.5 2.6-.3-3.6-3.6-.9 3.1-2.1-1-3.6z"/><path fill="#DDD" d="M584.7 151.5l-.4-5.1-5.1-1.3 4.3-2.9-1.4-5.1 4.6 2.4 3.6-3.8.4 5.3 5.1 1.3-4.3 2.9 1.4 4.9-4.7-2.2-3.5 3.6zm-.7-7.2l2.1.5.2 2.2 1.5-1.5 2 .9-.6-2.1 1.8-1.2-2.1-.5-.2-2.3-1.6 1.7-1.9-1 .6 2.1-1.8 1.2z"/></g><g><path fill="#F9F9F9" d="M574.1 164.2l2.6-2.7.3 3.8 3.6.9-3.1 2.1 1 3.5-3.4-1.6-2.5 2.6-.3-3.6-3.6-.9 3.1-2.1-1-3.7z"/><path fill="#DDD" d="M571.8 175.1l-.4-5.1-5.1-1.3 4.3-2.9-1.4-5.1 4.6 2.4 3.6-3.8.4 5.3 5.1 1.3-4.3 2.9 1.4 4.9-4.7-2.2-3.5 3.6zm-.7-7.3l2.1.5.2 2.2 1.5-1.5 2 .9-.6-2.1 1.8-1.2-2.1-.5-.2-2.3-1.6 1.7-1.9-1 .6 2.1-1.8 1.2z"/></g><g><path fill="#F9F9F9" d="M595.4 162.8l2.6-2.7.3 3.8 3.6.9-3.1 2.1 1 3.5-3.4-1.6-2.5 2.6-.3-3.6-3.6-.9 3.1-2.1-1-3.7z"/><path fill="#DDD" d="M593 173.7l-.4-5.1-5.1-1.3 4.3-2.9-1.4-5.1 4.6 2.4 3.6-3.8.4 5.3 5.1 1.3-4.3 2.9 1.4 4.9-4.7-2.2-3.5 3.6zm-.6-7.3l2.1.5.2 2.2 1.5-1.5 2 .9-.6-2.1 1.8-1.2-2.1-.5-.2-2.3-1.6 1.7-1.9-1 .6 2.1-1.8 1.2z"/></g><g><path fill="#DDD" d="M378.253 27.64l6.054 5.824-1.386 1.441-6.054-5.823z"/><path fill="#DDD" d="M382.865 27.483l1.427 1.402-5.886 5.992-1.427-1.401z"/></g><g><path fill="#DDD" d="M419.226 60.625l6.053 5.824-1.387 1.441-6.053-5.823z"/><path fill="#DDD" d="M423.88 60.508l1.427 1.402-5.889 5.99-1.426-1.402z"/></g><g><path fill="#DDD" d="M362.252 59.64l6.054 5.825-1.386 1.441-6.054-5.824z"/><path fill="#DDD" d="M366.867 59.483l1.427 1.401-5.886 5.993-1.427-1.402z"/></g><g><path fill="#DDD" d="M384.227 53.626l6.053 5.824-1.386 1.441-6.053-5.824z"/><path fill="#DDD" d="M388.866 53.482l1.427 1.402-5.886 5.992-1.427-1.401z"/></g><g><path fill="#DDD" d="M400.227 75.625l6.053 5.824-1.387 1.441-6.053-5.824z"/><path fill="#DDD" d="M404.88 75.507l1.426 1.402-5.889 5.991-1.426-1.402z"/></g><g><path fill="#DDD" d="M414.175 397.3l2 .01-.14 28.7-2-.01z"/></g><g><path fill="#DDD" d="M590.8 78.6l-6.8-6 6-6.8 6.8 6-6 6.8zm-4-6.2l3.8 3.3 3.3-3.8-3.8-3.3-3.3 3.8z"/></g><g><path fill="#F9F9F9" d="M129.5 255.9l6.7-10.8 6.3 10.8z"/><path fill="#DDD" d="M144.2 256.9h-16.5l8.6-13.7 7.9 13.7zm-12.9-2h9.5l-4.5-7.8-5 7.8z"/></g><g><path fill="#F9F9F9" d="M141.5 215.9l6.7-10.8 6.3 10.8z"/><path fill="#DDD" d="M156.2 216.9h-16.5l8.6-13.7 7.9 13.7zm-12.9-2h9.5l-4.5-7.8-5 7.8z"/></g><g><path fill="#DDD" d="M633 10.9h40v2h-40z"/></g><g><path fill="#DDD" d="M538 358.9h50v2h-50z"/></g><g><path fill="#DDD" d="M538 358.9h50v2h-50z"/></g><g><path fill="#DDD" d="M626 19.9h40v2h-40z"/></g><g><path fill="#DDD" d="M628 28.9h25v2h-25z"/></g><g><path fill="#DDD" d="M632 37.9h40v2h-40z"/></g><g><path fill="#DDD" d="M625 45.9h40v2h-40z"/></g><g><path fill="#DDD" d="M627 55.9h25v2h-25z"/></g><g><path fill="#DDD" d="M363 291.9h25v2h-25z"/></g><g><path fill="#DDD" d="M267 407.9h25v2h-25z"/></g><g><path fill="#DDD" d="M226 224.9h25v2h-25z"/></g><g><path fill="#DDD" d="M560 185.9h25v2h-25z"/></g><g><path fill="#DDD" d="M732 261.9h25v2h-25z"/></g></svg>