<svg xmlns="http://www.w3.org/2000/svg" viewBox="0 0 480 480" enable-background="new 0 0 480 480">
<path fill="#1B2025" d="M330.2 136.4c0-4-2.2-7.9-6.3-7.9H24.8c-4 0-7.5 3.8-7.5 7.9v177.1h313V136.4z"/><rect x="26.2" y="139.5" fill="#00ADF2" width="296" height="165"/><path fill="#E1E2E2" d="M17.2 313.5v24.6c0 4 3.5 9.4 7.5 9.4h115.1c-0.1 4-0.6 13.3-2.3 17.6c-2.1 5.4-2.3 6-8.3 9.6 c-6 3.6-5.9 4.6-6 6.7c0 0-0.3 1.4 12.4 1.5c12.1 0.1 32.7 0 38.6 0c5.9 0 26.5 0.1 38.6 0c12.8-0.1 12.4-1.5 12.4-1.5 c-0.1-2.1 0-3.1-6-6.8c-6-3.6-6.1-4.1-8.3-9.5c-1.7-4.3-2.2-13.6-2.3-17.6H324c4 0 6.3-5.3 6.3-9.4v-24.6H17.2z"/><path fill="#FFD239" d="M175.5 132.3c1.2 1.6-0.6 3.3-2.1 2.1C172.2 132.8 174 131.1 175.5 132.3z"/><circle fill="#1B2025" cx="174.5" cy="331.5" r="7.1"/><rect x="93.2" y="112.5" fill="#1B2025" width="159" height="194"/><rect x="93.2" y="103.5" fill="#E1E2E2" width="159" height="9"/><circle fill="#FFFFFF" cx="99.8" cy="108.9" r="1.6"/><circle fill="#FFFFFF" cx="105.3" cy="108.9" r="1.6"/><circle fill="#FFFFFF" cx="110.8" cy="108.9" r="1.6"/><path fill="#EACEAB" d="M221.5 304.5c0 0-1.4-6.6-6.3-10.4s-11.5-17.7-13.9-25.4c-2.4-7.7-3.1-13.1-3.9-14.3c-0.9-1.2-0.7-1-1-2.3 c-0.3-1.4 0.4-3.5-0.7-5.3c-1.1-1.7-1.4-3.8-2.4-4.4c-1-0.7-2.2-2.4-2.7-2.7c-0.5-0.3-0.7-3.8 2.4-3.6c3.1 0.2 6.9-0.2 12 6.9 c1.4 3.1 1.4 5.5 2.4 2.6c1-2.9 0-12.7-0.2-13.7c-0.2-1-3.1-13.4-3.4-15.4c-0.3-2.1-1.2-7.8-1.5-8.4s-1.2-7.9-1.6-9 c-0.3-1-0.7-7-0.3-8.2s4.6-5 7-1.2c2.4 3.8 6.3 20.7 6.3 20.7s3.1 11 4.3 16.5c1.2 5.5 3.6 7.5 3.6 6.7s0.7-8.1 0.7-8.7 c0-0.7 2.9-5.8 8.1-4.3c5.1 1.5 4.5 9.4 4.5 9.4s9.4-6.3 11.3 2.1c1.9 8.4 1 7.5 1 7.5s5.3-5.1 9.1 2.6c3.8 7.7 4.6 12.7 3.9 17.3 c-0.7 4.6-2.4 22.8-2.9 25s-1.5 5.7-1.4 7.5c0.2 1.9 0.7 3.3 1.4 4.9c0.7 1.5 2.4 7.6 2.4 7.6H221.5z"/><path fill="#EACEAB" d="M92.8 214.4c0 0-11.3 9.5-11.6 13.2c-0.4 3.7-1 21.4-1 28.5c0 7.1 0.5 17.1-0.1 20.8 c-0.5 3.7-5 26.7-5.5 27.7h28c0 0-2.5-16.7-0.7-21.2c1.8-4.4 4.2-7.1 4.4-8.7c0.2-1.6 0.2-7.8 0-8.9s1.2-5.4 1.4-7s1.6-5.6 0.7-11.1 c-0.9-5.5-2.5-12.2-2.7-13.9s-0.4-7.4 0.4-9.4c0 0 2.4-11.7-3.2-16.5c-4-2.9-6.4 0-7 0.9c-0.6 0.9-0.5 3.3-0.5 3.3s0.1 14.4 0 15.5 c-0.1 1.1-0.6 3.7-1.1 4.3s-0.6 1.3-0.9 1c-0.3-0.3 0-18.8 0-18.8L92.8 214.4z"/><text transform="matrix(1 0 0 1 125.1812 143.7563)" fill="#FFFFFF" font-family="'FreightSansBold'" font-size="32.2139">&lt; &gt;</text><text transform="matrix(1 0 0 1 125.1812 171.3267)" fill="#FFFFFF" font-family="'FreightSansBold'" font-size="32.2139">&lt;/&gt;</text><text transform="matrix(1 0 0 1 125.1812 202.9048)" fill="#FFFFFF" font-family="'FreightSansBold'" font-size="32.2139">&lt; &gt;</text><text transform="matrix(1 0 0 1 125.1812 230.2983)" fill="#FFFFFF" font-family="'FreightSansBold'" font-size="32.2139">&lt;/&gt;</text><text transform="matrix(1 0 0 1 125.1812 259.8477)" fill="#FFFFFF" font-family="'FreightSansBold'" font-size="32.2139">&lt; &gt;</text><text transform="matrix(1 0 0 1 125.1812 287.5967)" fill="#FFFFFF" font-family="'FreightSansBold'" font-size="32.2139">&lt;/     &gt;</text><path fill="#E1E2E2" d="M461.2 395.5c0 3.9-3.2 7-7 7H286.3c-3.9 0-7-3.2-7-7V165.6c0-3.9 3.2-7 7-7h167.9c3.9 0 7 3.2 7 7V395.5z"/><polygon fill="#FFFFFF" points="451.6,366.5 452.2,366.5 452.2,168.5 291.2,168.5 291.2,390.5 429.5,390.5 429.6,390.5 451.6,389.5"/><path fill="#FFD239" d="M315.5 175.5H429c-9.4-15-24.8-26.5-42.9-30.4c0 0 0-0.1 0-0.1c0-7.7-6.2-13.9-13.9-13.9 c-7.7 0-13.9 6.2-13.9 13.9c0 0 0 0.1 0 0.1C340.3 149 324.9 160.5 315.5 175.5z M372.4 138c3.7 0 6.7 3 6.7 6.7 c0 3.7-3 6.7-6.7 6.7c-3.7 0-6.7-3-6.7-6.7C365.7 141 368.7 138 372.4 138z"/><rect x="306.2" y="214.5" fill="#1B2025" width="128" height="7"/><rect x="306.2" y="194.5" fill="#4DCDF6" width="128" height="13"/><rect x="306.2" y="227.5" fill="#1B2025" width="128" height="7"/><rect x="306.2" y="239.5" fill="#1B2025" width="128" height="7"/><rect x="306.2" y="277.5" fill="#1B2025" width="82" height="6"/><rect x="306.2" y="286.5" fill="#4DCDF6" width="42" height="8"/><rect x="306.2" y="315.5" fill="#1B2025" width="82" height="6"/><rect x="306.2" y="325.5" fill="#4DCDF6" width="42" height="9"/><rect x="306.2" y="362.5" fill="#4DCDF6" width="42" height="9"/><rect x="306.2" y="353.5" fill="#1B2025" width="82" height="5"/><circle fill="#FFD239" cx="416.1" cy="283.3" r="12.7"/><circle fill="#FFD239" cx="416.1" cy="321.9" r="12.7"/><circle fill="#FFD239" cx="416.1" cy="359.3" r="12.7"/><path fill="#1B2025" d="M416.1 290.9c-0.6 0-1.2-0.3-1.5-0.8l-5.1-7.7c0 0 0-0.1 0-0.1l3-2c0 0 0.1 0 0.1 0l3.4 5.1 c0 0 0.1 0 0.1 0l9-16.9c0 0 0 0 0.1 0l3.1 1.7c0 0 0 0 0 0.1l-10.5 19.7C417.4 290.5 416.8 290.9 416.1 290.9 C416.1 290.9 416.1 290.9 416.1 290.9z"/>
<path fill="#1B2025" d="M416.1 329.5c-0.6 0-1.2-0.3-1.5-0.8l-5.1-7.7c0 0 0-0.1 0-0.1l3-2c0 0 0.1 0 0.1 0l3.4 5.1 c0 0 0.1 0 0.1 0l9-16.9c0 0 0 0 0.1 0l3.1 1.7c0 0 0 0 0 0.1l-10.5 19.7C417.4 329.1 416.8 329.5 416.1 329.5 C416.1 329.5 416.1 329.5 416.1 329.5z"/><path fill="#1B2025" d="M416.1 367.1c-0.6 0-1.2-0.3-1.5-0.8l-5.1-7.7c0 0 0-0.1 0-0.1l3-2c0 0 0.1 0 0.1 0l3.4 5.1 c0 0 0.1 0 0.1 0l9-16.9c0 0 0 0 0.1 0l3.1 1.7c0 0 0 0 0 0.1l-10.5 19.7C417.4 366.7 416.8 367.1 416.1 367.1 C416.1 367.1 416.1 367.1 416.1 367.1z"/></svg>
