<svg xmlns="http://www.w3.org/2000/svg" viewBox="0 0 374 262" enable-background="new 0 0 374 262"><circle fill="#fff" cx="84.1" cy="14.3" r="2.3"/><g><path fill="#231F20" d="M233.1 76.3h-5l-204.1-.2v177.3h272v-177z"/><path fill="#E0E1E0" d="M302.2 69.5c0-4.3-3.5-7.8-7.8-7.8h-268.4c-4.3 0-7.8 3.5-7.8 7.8v179.4c0 4.3 3.5 7.8 7.8 7.8h268.4c4.3 0 7.8-3.5 7.8-7.8v-179.4zm-9 174.3c0 2.9-1.5 5.9-4.6 5.9h-256.8c-3.1 0-4.6-3-4.6-5.9v-163.3c0-1 .8-1.8 1.8-1.8h262.5c1 0 1.8.8 1.8 1.8v163.3z"/><circle fill="#fff" cx="30.1" cy="69.3" r="2.3"/><circle fill="#fff" cx="38.3" cy="69.3" r="2.3"/><circle fill="#fff" cx="46.5" cy="69.3" r="2.3"/><g fill="#fff"><path d="M45.4 104.5l-11.3-5.1v-2.8l11.3-5.1v3.4l-6.9 3v.3l6.9 2.9v3.4zM53.2 104.5v-3.5l6.9-2.9v-.3l-6.9-3v-3.4l11.3 5.1v2.8l-11.3 5.2z"/></g><g fill="#fff"><path d="M45.4 128.5l-11.3-5.1v-2.8l11.3-5.1v3.4l-6.9 3v.3l6.9 2.9v3.4zM49.1 134.3h-3.5l6.8-25.4h3.5l-6.8 25.4zM56.3 128.5v-3.4l6.9-2.9v-.3l-6.9-3v-3.4l11.3 5.1v2.8l-11.3 5.1z"/></g><g fill="#fff"><path d="M45.4 156.1l-11.3-5.1v-2.8l11.3-5.1v3.4l-6.9 3v.3l6.9 2.9v3.4zM53.2 156.1v-3.4l6.9-2.9v-.3l-6.9-3v-3.4l11.3 5.1v2.8l-11.3 5.1z"/></g><g fill="#fff"><path d="M45.4 180.1l-11.3-5.1v-2.8l11.3-5.1v3.4l-6.9 3v.3l6.9 2.9v3.4zM49.1 185.8h-3.5l6.8-25.4h3.5l-6.8 25.4zM56.3 180.1v-3.4l6.9-2.9v-.3l-6.9-3v-3.5l11.3 5.1v2.8l-11.3 5.2z"/></g><g fill="#fff"><path d="M45.4 205.9l-11.3-5.1v-2.8l11.3-5.1v3.4l-6.9 3v.3l6.9 2.9v3.4zM53.2 205.9v-3.4l6.9-2.9v-.3l-6.9-3v-3.4l11.3 5.1v2.8l-11.3 5.1z"/></g><g fill="#fff"><path d="M45.4 230.1l-11.3-5.1v-2.8l11.3-5.1v3.4l-6.9 3v.3l6.9 2.9v3.4zM49.1 235.9h-3.5l6.8-25.4h3.5l-6.8 25.4zM80.8 230.1v-3.4l6.9-2.9v-.3l-6.9-3v-3.4l11.3 5.1v2.8l-11.3 5.1z"/></g></g><g><circle fill="#fff" cx="92.3" cy="14.3" r="2.3"/><circle fill="#fff" cx="100.5" cy="14.3" r="2.3"/><path fill="#fff" d="M79 33.4h272v165h-272z"/><path fill="#E0E1E0" d="M357.2 14.5c0-4.3-3.5-7.8-7.8-7.8h-268.4c-4.3 0-7.8 3.5-7.8 7.8v179.4c0 4.3 3.5 7.8 7.8 7.8h268.4c4.3 0 7.8-3.5 7.8-7.8v-179.4zm-9 174.3c0 2.9-1.5 5.9-4.6 5.9h-256.8c-3.1 0-4.6-3-4.6-5.9v-151.3c0-1 .8-1.8 1.8-1.8h262.5c1 0 1.8.8 1.8 1.8v151.3z"/><path fill="#fff" d="M82 23.4h152v8h-152z"/><path fill="#2FA8E0" d="M165 57.4h48v49h-48z"/><path fill="#E0E1E0" d="M217 57.4h48v49h-48zM165 138.4h100v48h-100z"/><path fill="#231F20" d="M165 44.4h75v10h-75zM165 110.4h48v7h-48zM165 128.4h48v7h-48z"/><path fill="#FFD23B" d="M217 110.4h48v7h-48zM217 128.4h48v7h-48z"/><path fill="#231F20" d="M165 119.4h48v7h-48z"/><path fill="#FFD23B" d="M217 119.4h48v7h-48z"/><circle fill="#fff" cx="84.1" cy="14.3" r="2.3"/><circle fill="#fff" cx="92.3" cy="14.3" r="2.3"/><circle fill="#fff" cx="100.5" cy="14.3" r="2.3"/></g><path fill="#231F20" d="M53.1 74.7c.1 0 .1-.1.1-.2.2-1.2.6-2.2 1.1-3.3l.5-1.2.3-.5c.8-1.5 1.8-2.9 2.9-4.1.8-.9 1.7-1.7 2.7-2.5 1.2-.9 2.4-1.7 3.7-2.5.3-.2.7-.4 1-.5l6.2-2.9 2.4-1.1c.3-.1.6 0 .7.3.4.9.8 1.7 1.2 2.5l1 2.2c.1.1.1.2.2.4.3.4.7.5 1.1.2l.6-.6 1.3-2.6 1.6-3.1c.2-.4.4-.7.5-1.1.8-1.6 1.6-3.2 2.4-4.7l2.2-4.4c.4-.9.9-1.8 1.3-2.6l1.3-2.5.2-.6c.1-.2 0-.4-.2-.6-.2-.1-.4-.2-.6-.2l-1-.3-5.3-1.2-3.1-.7-2.1-.5-3.6-.8-1.6-.4c-2-.5-4.1-1-6.1-1.4l-.3-.1h-.4c-.7 0-1.1.6-.8 1.3 0 .1.1.2.1.2.7 1.6 1.5 3.2 2.2 4.7.2.4.2.5-.2.7-2.1.9-4.1 1.9-6 3.1-.9.6-1.8 1.3-2.7 2l-1.6 1.4c-1.2 1.2-2.2 2.4-3.1 3.8-.8 1.3-1.5 2.7-2 4.2-.4 1.3-.7 2.7-.9 4.1-.1 1.1-.1 2.3-.1 3.4 0 1 .1 2 .3 3 .2 1.6.6 3.3 1 4.8.3 1.2.6 2.4 1.1 3.6.2.6.2.6.4 1.1 0 0 0 .1.1.2z"/></svg>