<svg xmlns="http://www.w3.org/2000/svg" viewBox="0 0 374 262" enable-background="new 0 0 374 262"><g fill="#231F20"><path d="M95 19.4h18"/><path d="M95 18.4h18v2h-18zM76 38.4v18"/><path d="M75 38.4h2v18h-2zM132 38.4v18"/><path d="M131 38.4h2v18h-2zM188 38.4v18"/><path d="M187 38.4h2v18h-2zM244 38.4v18"/><path d="M243 38.4h2v18h-2zM300 38.4v18"/><path d="M299 38.4h2v18h-2zM76 94.4v18"/><path d="M75 94.4h2v18h-2zM132 94.4v18"/><path d="M131 94.4h2v18h-2zM188 94.4v18"/><path d="M187 94.4h2v18h-2zM244 94.4v18"/><path d="M243 94.4h2v18h-2zM300 94.4v18"/><path d="M299 94.4h2v18h-2zM76 150.4v18"/><path d="M75 150.4h2v18h-2zM132 150.4v18"/><path d="M131 150.4h2v18h-2zM188 150.4v18"/><path d="M187 150.4h2v18h-2zM244 150.4v18"/><path d="M243 150.4h2v18h-2zM300 150.4v18"/><path d="M299 150.4h2v18h-2zM76 206.4v18"/><path d="M75 206.4h2v18h-2zM132 206.4v18"/><path d="M131 206.4h2v18h-2zM188 206.4v18"/><path d="M187 206.4h2v18h-2zM244 206.4v18"/><path d="M243 206.4h2v18h-2zM300 206.4v18"/><path d="M299 206.4h2v18h-2zM151 19.4h18"/><path d="M151 18.4h18v2h-18zM207 19.4h18"/><path d="M207 18.4h18v2h-18zM263 19.4h18"/><path d="M263 18.4h18v2h-18zM151 75.4h18"/><path d="M151 74.4h18v2h-18zM151 131.4h18"/><path d="M151 130.4h18v2h-18zM151 187.4h18"/><path d="M151 186.4h18v2h-18zM151 243.4h18"/><path d="M151 242.4h18v2h-18zM207 75.4h18"/><path d="M207 74.4h18v2h-18zM207 131.4h18"/><path d="M207 130.4h18v2h-18zM207 187.4h18"/><path d="M207 186.4h18v2h-18zM207 243.4h18"/><path d="M207 242.4h18v2h-18zM263 75.4h18"/><path d="M263 74.4h18v2h-18zM263 131.4h18"/><path d="M263 130.4h18v2h-18zM263 187.4h18"/><path d="M263 186.4h18v2h-18zM263 243.4h18"/><path d="M263 242.4h18v2h-18zM95 75.4h18"/><path d="M95 74.4h18v2h-18zM95 131.4h18"/><path d="M95 130.4h18v2h-18zM95 187.4h18"/><path d="M95 186.4h18v2h-18zM95 243.4h18"/><path d="M95 242.4h18v2h-18z"/></g><g fill="#59C3EC"><path d="M119 62.4h26v26h-26zM175 118.4h26v26h-26zM231 230.4h26v26h-26zM287 6.4h26v26h-26zM175 230.4h26v26h-26zM63 230.4h26v26h-26z"/></g><g fill="#2FA8E0"><path d="M119 6.4h26v26h-26zM63 118.4h26v26h-26zM231 174.4h26v26h-26zM231 6.4h26v26h-26zM231 62.4h26v26h-26zM287 62.4h26v26h-26zM119 174.4h26v26h-26z"/></g><g fill="#FFD23B"><path d="M119 118.4h26v26h-26zM175 6.4h26v26h-26zM287 174.4h26v26h-26zM287 118.4h26v26h-26zM119 230.4h26v26h-26zM175 174.4h26v26h-26z"/></g><g fill="#E0E1E0"><path d="M63 6.4h26v26h-26zM175 62.4h26v26h-26zM63 62.4h26v26h-26zM287 230.4h26v26h-26zM231 118.4h26v26h-26zM63 174.4h26v26h-26z"/></g></svg>