<svg xmlns="http://www.w3.org/2000/svg" width="612" height="603" viewBox="0 0 612 603" xmlns:xlink="http://www.w3.org/1999/xlink">
  <defs>
    <polygon id="a" points="305.963 602.582 0 602.582 0 0 305.963 0 611.926 0 611.926 602.582 305.963 602.582"/>
  </defs>
  <g fill="none" fill-rule="evenodd">
    <mask id="b" fill="white">
      <use xlink:href="#a"/>
    </mask>
    <path fill="#1DAFEC" d="M343.7988,463.542 C345.5908,463.542 347.0488,465 347.0488,466.792 C347.0488,468.584 345.5908,470.042 343.7988,470.042 C342.0068,470.042 340.5488,468.584 340.5488,466.792 C340.5488,465 342.0068,463.542 343.7988,463.542 L343.7988,463.542 Z M343.7988,473.042 C347.2448,473.042 350.0488,470.238 350.0488,466.792 C350.0488,463.346 347.2448,460.542 343.7988,460.542 C340.3528,460.542 337.5488,463.346 337.5488,466.792 C337.5488,470.238 340.3528,473.042 343.7988,473.042 L343.7988,473.042 Z M360.5058,522.417 L364.3308,512.288 L368.1548,522.417 L360.5058,522.417 Z M356.1658,525.417 L372.4948,525.417 L364.3308,503.796 L356.1658,525.417 Z M344.2988,484.167 C344.2988,484.442 344.0738,484.667 343.7988,484.667 C343.5238,484.667 343.2988,484.442 343.2988,484.167 C343.2988,483.892 343.5238,483.667 343.7988,483.667 C344.0738,483.667 344.2988,483.892 344.2988,484.167 L344.2988,484.167 Z M340.2988,484.167 C340.2988,486.097 341.8688,487.667 343.7988,487.667 C345.7288,487.667 347.2988,486.097 347.2988,484.167 C347.2988,482.237 345.7288,480.667 343.7988,480.667 C341.8688,480.667 340.2988,482.237 340.2988,484.167 L340.2988,484.167 Z M339.8378,522.417 L344.4178,510.288 L348.9978,522.417 L339.8378,522.417 Z M335.4978,525.417 L353.3378,525.417 L344.4178,501.796 L335.4978,525.417 Z M318.9748,522.417 L323.7498,505.261 L328.5258,522.417 L318.9748,522.417 Z M315.0258,525.417 L332.4748,525.417 L323.7498,494.073 L315.0258,525.417 Z M324.6668,265 L360.1688,265 L360.1688,262 L324.6668,262 L324.6668,265 Z M324.6668,271.891 L360.1688,271.891 L360.1688,268.891 L324.6668,268.891 L324.6668,271.891 Z M385.6418,481.667 L421.9348,481.667 L421.9348,478.667 L385.6418,478.667 L385.6418,481.667 Z M385.6418,488.542 L421.9348,488.542 L421.9348,485.542 L385.6418,485.542 L385.6418,488.542 Z M112.6548,425.518 C112.9488,424.901 113.1288,424.715 113.1918,424.663 C113.2988,424.576 113.4658,424.532 113.6888,424.532 C113.9308,424.532 114.4758,424.63 115.7128,425.104 C116.8458,425.492 117.6808,425.682 118.2658,425.682 C119.0948,425.682 119.8118,425.459 120.3918,425.024 C120.9588,424.608 121.4558,423.932 121.9118,422.956 L122.1038,422.548 L119.5458,421.008 L119.2908,421.446 C119.1438,421.699 119.0098,421.91 118.8888,422.082 C118.7538,422.272 118.6598,422.375 118.6058,422.426 C118.4988,422.525 118.3878,422.57 118.2468,422.57 C118.0878,422.57 117.6838,422.516 116.7548,422.144 L116.0388,421.887 C116.1578,421.369 116.2158,420.987 116.2158,420.727 C116.2158,420.529 116.1798,420.261 116.1038,419.9 L118.1588,419.9 L118.1588,417.378 L115.1378,417.378 C114.4088,416.056 114.2548,415.342 114.2548,414.974 C114.2548,414.346 114.4448,413.851 114.8388,413.457 C115.2308,413.06 115.7218,412.867 116.3418,412.867 C117.1748,412.867 117.7158,413.174 118.0438,413.835 C118.1638,414.072 118.3068,414.605 118.3068,415.795 L118.3068,416.514 L121.4458,415.349 L121.4458,415.001 C121.4458,413.495 120.9598,412.245 120.0058,411.289 C119.0528,410.315 117.8228,409.822 116.3508,409.822 C114.8948,409.822 113.6308,410.307 112.5908,411.265 C111.5568,412.23 111.0318,413.419 111.0318,414.796 C111.0318,415.543 111.2408,416.409 111.6528,417.378 L110.2468,417.378 L110.2468,419.9 L112.8948,419.9 C112.9918,420.146 113.0398,420.395 113.0398,420.651 C113.0398,420.918 112.9998,421.216 112.9198,421.54 C112.3128,421.651 111.8058,421.866 111.4148,422.179 C111.0208,422.479 110.5288,423.106 109.9118,424.095 L109.6228,424.559 L112.4358,425.979 L112.6548,425.518 Z M219.2888,484.264 L221.9898,485.57 L234.9258,458.82 L232.2248,457.514 L219.2888,484.264 Z M237.1298,462.791 L245.1588,469.1 L237.9748,476.571 L240.1368,478.651 L249.6188,468.789 L238.9828,460.432 L237.1298,462.791 Z M77.1128,493.459 C76.0998,493.459 75.2788,494.279 75.2788,495.292 C75.2788,496.304 76.0998,497.125 77.1128,497.125 C78.1248,497.125 78.9458,496.304 78.9458,495.292 C78.9458,494.279 78.1248,493.459 77.1128,493.459 L77.1128,493.459 Z M230.0728,401.542 C228.7868,401.542 227.7398,402.589 227.7398,403.875 C227.7398,405.162 228.7868,406.209 230.0728,406.209 C231.3598,406.209 232.4068,405.162 232.4068,403.875 C232.4068,402.589 231.3598,401.542 230.0728,401.542 L230.0728,401.542 Z M324.6668,258.109 L360.1688,258.109 L360.1688,255.109 L324.6668,255.109 L324.6668,258.109 Z M219.7958,341.025 L222.7958,341.025 L222.7958,336.042 L219.7958,336.042 L219.7958,341.025 Z M236.8308,341.025 L239.8308,341.025 L239.8308,336.042 L236.8308,336.042 L236.8308,341.025 Z M237.2328,349.069 C236.6318,352.827 233.8188,355.68 230.4478,355.68 C227.0778,355.68 224.2648,352.827 223.6638,349.069 L237.2328,349.069 Z M220.5458,347.569 C220.5458,353.695 224.9878,358.68 230.4478,358.68 C235.9088,358.68 240.3508,353.695 240.3508,347.569 L240.3508,346.069 L220.5458,346.069 L220.5458,347.569 Z M207.6668,394.014 L253.4068,394.014 L253.4068,319.709 L207.6668,319.709 L207.6668,394.014 Z M204.6668,397.014 L256.4068,397.014 L256.4068,316.709 L204.6668,316.709 L204.6668,397.014 Z M67.4028,461.457 L70.4028,461.457 L70.4028,456.474 L67.4028,456.474 L67.4028,461.457 Z M217.1628,460.432 L206.5258,468.789 L216.0088,478.651 L218.1708,476.571 L210.9868,469.1 L219.0168,462.791 L217.1628,460.432 Z M165.7498,208.292 L263.7498,208.292 L263.7498,145.292 L165.7498,145.292 L165.7498,208.292 Z M162.7498,211.292 L266.7498,211.292 L266.7498,142.292 L162.7498,142.292 L162.7498,211.292 Z M465.3088,391.042 L468.9008,391.042 L468.9008,387.45 L465.3088,387.45 L465.3088,391.042 Z M462.3088,394.042 L471.9008,394.042 L471.9008,384.45 L462.3088,384.45 L462.3088,394.042 Z M465.3088,375.338 L468.9008,375.338 L468.9008,371.746 L465.3088,371.746 L465.3088,375.338 Z M462.3088,378.338 L471.9008,378.338 L471.9008,368.746 L462.3088,368.746 L462.3088,378.338 Z M238.9108,165.337 C235.0488,165.337 231.9068,168.169 231.9068,171.651 L234.9068,171.651 C234.9068,169.824 236.7028,168.337 238.9108,168.337 C241.1178,168.337 242.9138,169.824 242.9138,171.651 L245.9138,171.651 C245.9138,168.169 242.7728,165.337 238.9108,165.337 L238.9108,165.337 Z M35.6408,268.467 C38.8308,271.65 42.1758,272.533 44.9048,272.533 C46.9848,272.533 48.7068,272.021 49.7288,271.623 C52.1418,270.684 54.7788,268.772 54.8658,266.794 L51.8688,266.662 C51.8728,266.587 51.8868,266.546 51.8868,266.546 C51.7088,267.045 49.9808,268.644 47.1448,269.284 C44.7498,269.824 41.1778,269.753 37.7598,266.344 L35.6408,268.467 Z M480.2828,391.042 L483.8748,391.042 L483.8748,387.45 L480.2828,387.45 L480.2828,391.042 Z M477.2828,394.042 L486.8748,394.042 L486.8748,384.45 L477.2828,384.45 L477.2828,394.042 Z M228.3188,186.864 C227.4558,193.088 221.2938,197.928 213.8438,197.928 C206.3938,197.928 200.2308,193.088 199.3678,186.864 L228.3188,186.864 Z M196.2648,185.364 C196.2648,193.946 204.1508,200.928 213.8438,200.928 C223.5368,200.928 231.4228,193.946 231.4228,185.364 L231.4228,183.864 L196.2648,183.864 L196.2648,185.364 Z M57.4948,263.034 L60.4948,263.034 L60.4948,258.051 L57.4948,258.051 L57.4948,263.034 Z M187.3888,165.337 C183.5278,165.337 180.3858,168.169 180.3858,171.651 L183.3858,171.651 C183.3858,169.824 185.1818,168.337 187.3888,168.337 C189.5968,168.337 191.3928,169.824 191.3928,171.651 L194.3928,171.651 C194.3928,168.169 191.2508,165.337 187.3888,165.337 L187.3888,165.337 Z M211.9998,220.042 C211.2418,220.042 210.6248,219.425 210.6248,218.667 C210.6248,217.909 211.2418,217.292 211.9998,217.292 C212.7578,217.292 213.3748,217.909 213.3748,218.667 C213.3748,219.425 212.7578,220.042 211.9998,220.042 L211.9998,220.042 Z M211.9998,214.292 C209.5878,214.292 207.6248,216.254 207.6248,218.667 C207.6248,221.08 209.5878,223.042 211.9998,223.042 C214.4128,223.042 216.3748,221.08 216.3748,218.667 C216.3748,216.254 214.4128,214.292 211.9998,214.292 L211.9998,214.292 Z M451.4998,375.338 L455.0918,375.338 L455.0918,371.746 L451.4998,371.746 L451.4998,375.338 Z M448.4998,378.338 L458.0918,378.338 L458.0918,368.746 L448.4998,368.746 L448.4998,378.338 Z M384.9478,402.188 L405.6138,402.188 L405.6138,399.188 L384.9478,399.188 L384.9478,402.188 Z M384.9478,421.979 L405.6138,421.979 L405.6138,418.979 L384.9478,418.979 L384.9478,421.979 Z M480.2828,375.338 L483.8748,375.338 L483.8748,371.746 L480.2828,371.746 L480.2828,375.338 Z M477.2828,378.338 L486.8748,378.338 L486.8748,368.746 L477.2828,368.746 L477.2828,378.338 Z M384.9478,392.292 L405.6138,392.292 L405.6138,389.292 L384.9478,389.292 L384.9478,392.292 Z M384.9478,412.084 L405.6138,412.084 L405.6138,409.084 L384.9478,409.084 L384.9478,412.084 Z M451.4998,361.292 L483.8748,361.292 L483.8748,353.542 L451.4998,353.542 L451.4998,361.292 Z M448.4998,364.292 L486.8748,364.292 L486.8748,350.542 L448.4998,350.542 L448.4998,364.292 Z M384.9478,431.875 L405.6138,431.875 L405.6138,428.875 L384.9478,428.875 L384.9478,431.875 Z M420.5628,355.952 C421.6308,355.952 422.4998,356.821 422.4998,357.89 C422.4998,358.958 421.6308,359.827 420.5628,359.827 C419.4938,359.827 418.6248,358.958 418.6248,357.89 C418.6248,356.821 419.4938,355.952 420.5628,355.952 L420.5628,355.952 Z M420.5628,362.827 C423.2848,362.827 425.4998,360.612 425.4998,357.89 C425.4998,355.167 423.2848,352.952 420.5628,352.952 C417.8398,352.952 415.6248,355.167 415.6248,357.89 C415.6248,360.612 417.8398,362.827 420.5628,362.827 L420.5628,362.827 Z M451.4998,391.042 L455.0918,391.042 L455.0918,387.45 L451.4998,387.45 L451.4998,391.042 Z M448.4998,394.042 L458.0918,394.042 L458.0918,384.45 L448.4998,384.45 L448.4998,394.042 Z M370.2498,359.827 C369.1818,359.827 368.3128,358.958 368.3128,357.89 C368.3128,356.821 369.1818,355.952 370.2498,355.952 C371.3188,355.952 372.1878,356.821 372.1878,357.89 C372.1878,358.958 371.3188,359.827 370.2498,359.827 L370.2498,359.827 Z M370.2498,352.952 C367.5278,352.952 365.3128,355.167 365.3128,357.89 C365.3128,360.612 367.5278,362.827 370.2498,362.827 C372.9728,362.827 375.1878,360.612 375.1878,357.89 C375.1878,355.167 372.9728,352.952 370.2498,352.952 L370.2498,352.952 Z M104.6318,70.648 L107.6318,70.648 L107.6318,56.427 L104.6318,56.427 L104.6318,70.648 Z M162.2628,316.821 C161.2498,316.821 160.4288,317.642 160.4288,318.655 C160.4288,319.667 161.2498,320.488 162.2628,320.488 C163.2748,320.488 164.0958,319.667 164.0958,318.655 C164.0958,317.642 163.2748,316.821 162.2628,316.821 L162.2628,316.821 Z M559.9808,538.61 L562.9808,538.61 L562.9808,533.423 L559.9808,533.423 L559.9808,538.61 Z M186.5908,331.167 L176.1338,330.957 L175.6888,331.374 C174.3758,332.605 172.9078,333.631 171.3268,334.424 C168.7248,335.728 165.9418,336.389 163.0528,336.389 C155.9998,336.389 149.6568,332.475 146.4988,326.174 C141.9288,317.054 145.6298,305.916 154.7488,301.346 C157.3508,300.042 160.1348,299.38 163.0228,299.38 C170.0758,299.38 176.4198,303.295 179.5768,309.596 C181.6118,313.655 182.0698,318.32 180.8688,322.732 L180.6738,323.45 L186.5908,331.167 Z M182.2588,308.252 C178.5898,300.929 171.2178,296.38 163.0228,296.38 C159.6638,296.38 156.4278,297.149 153.4048,298.664 C142.8068,303.976 138.5058,316.919 143.8168,327.518 C147.4868,334.84 154.8578,339.389 163.0528,339.389 C166.4118,339.389 169.6478,338.621 172.6708,337.105 C174.3288,336.275 175.8778,335.226 177.2828,333.98 L192.7678,334.292 L183.9488,322.791 C185.1038,317.883 184.5128,312.748 182.2588,308.252 L182.2588,308.252 Z M170.3038,316.821 C169.2918,316.821 168.4708,317.642 168.4708,318.655 C168.4708,319.667 169.2918,320.488 170.3038,320.488 C171.3168,320.488 172.1378,319.667 172.1378,318.655 C172.1378,317.642 171.3168,316.821 170.3038,316.821 L170.3038,316.821 Z M165.3628,371.765 L189.9478,371.765 L189.9478,368.765 L165.3628,368.765 L165.3628,371.765 Z M584.9988,538.61 L587.9988,538.61 L587.9988,533.423 L584.9988,533.423 L584.9988,538.61 Z M554.5448,544.176 C554.5968,530.525 563.7178,519.015 574.5118,519.015 C585.3058,519.015 594.4278,530.525 594.4798,544.176 L554.5448,544.176 Z M572.3668,496.705 C572.3668,495.667 573.2118,494.822 574.2498,494.822 C575.2878,494.822 576.1328,495.667 576.1328,496.705 C576.1328,497.744 575.2878,498.589 574.2498,498.589 C573.2118,498.589 572.3668,497.744 572.3668,496.705 L572.3668,496.705 Z M379.5208,583.239 C380.1838,559.508 396.5678,541.798 418.1498,541.798 C428.6898,541.798 438.3918,545.811 445.4678,553.098 C452.8418,560.69 456.8458,571.35 456.8228,583.239 L379.5208,583.239 Z M376.5318,583.239 L309.8328,583.258 L309.8328,553.409 L276.8338,553.409 L276.8338,581.153 L270.7708,581.153 L270.7708,581.31 C270.1628,576.967 266.6678,573.541 262.2888,573.051 L262.2888,546.968 L275.5388,546.968 L275.5388,509.542 L285.4358,509.542 L285.4358,492.792 L277.4358,492.792 L277.4358,484.667 L298.1188,484.667 L298.1188,544.792 L373.1188,544.792 L373.1188,535.042 L382.4998,535.042 L382.4998,522.083 L415.6278,522.083 L415.6278,538.88 C393.5988,540.198 377.1788,558.728 376.5318,583.239 L376.5318,583.239 Z M294.8328,567.681 L306.8328,567.681 L306.8328,556.41 L294.8328,556.41 L294.8328,567.681 Z M306.8328,583.259 L294.8338,583.262 L294.8338,570.681 L306.8328,570.681 L306.8328,583.259 Z M294.8328,599.529 L306.8328,599.529 L306.8328,586.266 L294.8328,586.266 L294.8328,599.529 Z M279.8338,567.681 L291.8338,567.681 L291.8338,556.41 L279.8338,556.41 L279.8338,567.681 Z M291.8338,583.263 L279.8338,583.266 L279.8338,570.681 L291.8338,570.681 L291.8338,583.263 Z M279.8338,599.529 L291.8338,599.529 L291.8338,586.266 L279.8338,586.266 L279.8338,599.529 Z M261.2088,589.32 C257.5328,589.32 254.5418,586.329 254.5418,582.653 C254.5418,578.978 257.5328,575.987 261.2088,575.987 C264.8848,575.987 267.8758,578.978 267.8758,582.653 C267.8758,586.329 264.8848,589.32 261.2088,589.32 L261.2088,589.32 Z M251.6708,581.153 L246.3338,581.153 L246.3338,553.442 L216.3338,553.442 L216.3438,509.542 L246.0388,509.542 L246.0388,546.968 L259.2888,546.968 L259.2888,573.18 C255.3578,573.975 252.2958,577.165 251.6708,581.153 L251.6708,581.153 Z M231.3338,567.715 L243.3338,567.715 L243.3338,556.443 L231.3338,556.443 L231.3338,567.715 Z M231.3338,583.3 L243.3338,583.3 L243.3338,570.715 L231.3338,570.715 L231.3338,583.3 Z M231.3338,599.553 L243.3338,599.553 L243.3338,586.3 L231.3338,586.3 L231.3338,599.553 Z M216.3338,567.715 L228.3338,567.715 L228.3338,556.443 L216.3338,556.443 L216.3338,567.715 Z M216.3338,583.3 L228.3338,583.3 L228.3338,570.715 L216.3338,570.715 L216.3338,583.3 Z M216.3338,599.553 L228.3338,599.553 L228.3338,586.3 L216.3338,586.3 L216.3338,599.553 Z M249.0388,543.968 L272.5388,543.968 L272.5388,522.434 L249.0388,522.434 L249.0388,543.968 Z M249.0388,519.434 L272.5388,519.434 L272.5388,509.542 L249.0388,509.542 L249.0388,519.434 Z M175.1028,506.542 L175.1028,495.792 L220.0118,495.792 L220.0118,502.667 L237.5258,502.667 L237.5258,495.792 L282.4358,495.792 L282.4358,506.542 L175.1028,506.542 Z M189.4358,523.814 C189.4358,528.501 185.6228,532.314 180.9358,532.314 L147.2518,532.314 L147.2518,512.806 L78.2448,512.806 L77.9968,501.167 L95.4408,501.167 C99.0248,501.167 101.9408,498.251 101.9408,494.667 L101.9408,482.328 C105.9478,482.3 113.4768,482.366 116.4168,482.396 C115.4588,483.845 115.1768,485.667 115.7138,487.401 C116.3928,489.6 118.1748,491.069 120.3628,491.238 C120.5218,491.251 120.6778,491.257 120.8338,491.257 C122.6858,491.257 124.3438,490.402 125.3348,488.914 C126.4188,487.287 126.5278,485.174 125.6188,483.399 C125.4378,483.044 125.1748,482.627 124.8008,482.197 C127.2728,482.146 132.4748,482.186 136.4298,482.241 C135.3868,483.714 135.0648,485.605 135.6208,487.401 C136.2998,489.599 138.0818,491.069 140.2708,491.238 C142.3008,491.404 144.1488,490.524 145.2258,488.908 C146.3318,487.247 146.4428,485.088 145.5138,483.273 C145.3338,482.922 145.0758,482.51 144.7118,482.085 C146.7368,482.04 152.1548,482.066 156.2018,482.105 C155.0808,483.597 154.7208,485.55 155.2938,487.401 C155.9738,489.6 157.7558,491.069 159.9438,491.238 C161.9548,491.404 163.8038,490.521 164.8818,488.902 C166.0098,487.208 166.1218,485.005 165.1738,483.152 C165.0188,482.851 164.8078,482.503 164.5218,482.142 C165.1898,482.107 165.8298,482.099 166.3878,482.116 L180.1028,482.116 L180.1028,492.792 L172.1028,492.792 L172.1028,509.542 L189.4358,509.542 L189.4358,523.814 Z M157.0848,567.943 C156.1018,567.3 154.9298,566.922 153.6708,566.922 C150.2238,566.922 147.4208,569.726 147.4208,573.172 C147.4208,573.773 147.5108,574.352 147.6688,574.902 L128.0838,584.848 C127.0048,582.97 124.9818,581.699 122.6648,581.699 C120.6038,581.699 118.7778,582.706 117.6388,584.25 L96.6948,572.532 C96.6988,572.44 96.7088,572.349 96.7088,572.256 C96.7088,568.81 93.9048,566.006 90.4588,566.006 C87.0118,566.006 84.2088,568.81 84.2088,572.256 C84.2088,572.474 84.2198,572.689 84.2418,572.901 L61.4328,583.44 C60.2998,581.841 58.4388,580.792 56.3348,580.792 C55.4138,580.792 54.5418,580.997 53.7538,581.356 L27.8808,552.857 L33.8618,546.875 L65.5548,546.875 L65.5548,553.229 L147.2518,553.229 L147.2518,535.314 L176.7538,535.314 L157.0848,567.943 Z M153.6708,576.422 C151.8788,576.422 150.4208,574.964 150.4208,573.172 C150.4208,571.38 151.8788,569.922 153.6708,569.922 C155.4628,569.922 156.9208,571.38 156.9208,573.172 C156.9208,574.964 155.4628,576.422 153.6708,576.422 L153.6708,576.422 Z M122.6648,591.199 C120.8728,591.199 119.4148,589.741 119.4148,587.949 C119.4148,586.157 120.8728,584.699 122.6648,584.699 C124.4568,584.699 125.9148,586.157 125.9148,587.949 C125.9148,589.741 124.4568,591.199 122.6648,591.199 L122.6648,591.199 Z M90.4588,575.506 C88.6668,575.506 87.2088,574.048 87.2088,572.256 C87.2088,570.464 88.6668,569.006 90.4588,569.006 C92.2508,569.006 93.7088,570.464 93.7088,572.256 C93.7088,574.048 92.2508,575.506 90.4588,575.506 L90.4588,575.506 Z M56.3348,590.292 C54.5428,590.292 53.0848,588.834 53.0848,587.042 C53.0848,585.25 54.5428,583.792 56.3348,583.792 C58.1268,583.792 59.5848,585.25 59.5848,587.042 C59.5848,588.834 58.1268,590.292 56.3348,590.292 L56.3348,590.292 Z M20.4998,545.375 L25.8098,540.065 L31.1198,545.375 L25.8098,550.686 L20.4998,545.375 Z M21.7548,514.232 L29.8658,514.232 L29.8658,505.624 L21.7548,505.624 L21.7548,514.232 Z M21.7548,502.624 L29.8658,502.624 L29.8658,444.292 L21.7548,444.292 L21.7548,502.624 Z M21.7548,441.292 L29.8658,441.292 L29.8658,435.379 L21.7548,435.379 L21.7548,441.292 Z M24.4508,425.389 L27.6228,425.389 L29.6478,432.379 L21.9708,432.379 L24.4508,425.389 Z M25.4318,422.389 L26.7508,422.389 L26.7508,420.791 L25.4318,420.791 L25.4318,422.389 Z M68.5548,550.229 L144.2508,550.229 L144.2508,515.806 L68.5548,515.806 L68.5548,550.229 Z M91.3018,434.92 L91.3018,488.542 L62.1918,488.542 L62.1918,429.389 L91.5578,429.389 L87.2538,435.002 L91.3018,434.92 Z M58.7838,498.167 C56.8538,498.167 55.2838,496.597 55.2838,494.667 L55.2838,427.291 C55.2838,425.361 56.8538,423.791 58.7838,423.791 L95.8508,423.791 L93.8588,426.389 L59.1918,426.389 L59.1918,491.542 L94.3018,491.542 L94.3018,434.86 L98.9408,434.767 L98.9408,494.667 C98.9408,496.597 97.3708,498.167 95.4408,498.167 L58.7838,498.167 Z M99.1528,423.442 C97.9508,419.031 98.4098,414.365 100.4438,410.306 C103.6018,404.005 109.9448,400.091 116.9988,400.091 C119.8868,400.091 122.6708,400.752 125.2728,402.056 C134.3918,406.627 138.0928,417.764 133.5228,426.884 C130.3648,433.185 124.0218,437.099 116.9698,437.099 L116.9678,437.099 C114.0798,437.099 111.2968,436.438 108.6948,435.134 C107.1128,434.341 105.6458,433.315 104.3328,432.084 L103.8868,431.667 L93.4298,431.877 L99.3478,424.16 L99.1528,423.442 Z M119.5318,483.38 C119.6708,483.268 119.9538,483.083 120.4778,482.888 C121.6638,483.291 122.5228,483.933 122.9478,484.766 C123.3618,485.575 123.3198,486.527 122.8378,487.252 C122.5608,487.667 121.8978,488.348 120.5938,488.248 C119.1888,488.139 118.6968,486.894 118.5788,486.515 C118.2958,485.598 118.3968,484.293 119.5318,483.38 L119.5318,483.38 Z M139.4398,483.38 C139.6968,483.173 140.0778,482.978 140.5478,482.805 C141.6388,483.215 142.4338,483.841 142.8428,484.64 C143.2778,485.488 143.2338,486.486 142.7288,487.245 C142.4508,487.663 141.7868,488.341 140.5018,488.248 C139.0958,488.139 138.6038,486.894 138.4868,486.515 C138.2028,485.598 138.3038,484.293 139.4398,483.38 L139.4398,483.38 Z M159.1118,483.38 C159.4178,483.134 159.8788,482.929 160.4358,482.759 C161.4058,483.172 162.1198,483.77 162.5038,484.52 C162.9568,485.406 162.9118,486.448 162.3848,487.239 C162.1058,487.658 161.4418,488.337 160.1748,488.248 C158.7688,488.139 158.2768,486.894 158.1588,486.515 C157.8758,485.598 157.9768,484.293 159.1118,483.38 L159.1118,483.38 Z M223.0118,499.667 L234.5258,499.667 L234.5258,495.792 L223.0118,495.792 L223.0118,499.667 Z M192.4358,492.792 L265.1028,492.792 L265.1028,443.209 L192.4358,443.209 L192.4358,492.792 Z M183.1028,439.792 C183.1028,437.862 184.6728,436.292 186.6028,436.292 L270.9358,436.292 C272.8648,436.292 274.4358,437.862 274.4358,439.792 L274.4358,492.792 L268.1028,492.792 L268.1028,440.209 L189.4358,440.209 L189.4358,492.792 L183.1028,492.792 L183.1028,439.792 Z M203.5448,408.875 C201.6148,408.875 200.0448,407.305 200.0448,405.375 L200.0448,313.709 C200.0448,311.779 201.6148,310.209 203.5448,310.209 L256.6028,310.209 C258.5318,310.209 260.1028,311.779 260.1028,313.709 L260.1028,405.375 C260.1028,407.305 258.5318,408.875 256.6028,408.875 L203.5448,408.875 Z M372.1188,460.042 L372.1188,450.953 L379.1088,460.042 L372.1188,460.042 Z M338.4238,447.167 C338.4238,444.203 340.8348,441.792 343.7988,441.792 C346.7628,441.792 349.1738,444.203 349.1738,447.167 C349.1738,450.131 346.7628,452.542 343.7988,452.542 C340.8348,452.542 338.4238,450.131 338.4238,447.167 L338.4238,447.167 Z M310.4998,532.042 L310.4998,448.042 L335.4698,448.042 C335.9088,452.25 339.4758,455.542 343.7988,455.542 C348.1218,455.542 351.6888,452.25 352.1278,448.042 L369.1188,448.042 L369.1188,463.042 L379.4998,463.042 L379.4998,532.042 L310.4998,532.042 Z M370.1188,535.042 L370.1188,541.792 L301.1188,541.792 L301.1188,457.792 L307.4998,457.792 L307.4998,535.042 L370.1188,535.042 Z M457.5768,475.564 L457.5768,484.77 C455.3038,484.459 453.5418,482.524 453.5418,480.167 C453.5418,477.81 455.3038,475.875 457.5768,475.564 L457.5768,475.564 Z M263.1028,405.375 L263.1028,381.375 L310.1088,381.375 C316.4488,381.375 321.6088,376.216 321.6088,369.875 L321.6088,312.875 L341.4998,312.875 L341.4998,370.394 C339.5378,371.122 338.1398,372.927 338.1398,375.047 L338.1398,419.011 C338.1398,419.485 338.3268,419.913 338.6258,420.236 L343.2748,433.104 L347.9788,420.442 C348.3308,420.098 348.5518,419.62 348.5538,419.091 L348.6958,375.052 L348.6768,373.547 L348.4308,373.547 C347.8658,371.843 346.3608,370.541 344.4998,370.164 L344.4998,362.39 L357.1668,362.39 L357.1668,383.917 L375.4998,383.917 L375.4998,440.985 L415.0628,440.985 L415.0628,383.917 L433.1428,383.917 L433.1428,362.39 L441.6138,362.39 L441.6138,397.042 C441.6138,400.626 444.5298,403.542 448.1138,403.542 L466.6048,403.542 L466.6048,470.042 L457.5768,470.042 L457.5768,472.532 C453.6448,472.855 450.5418,476.152 450.5418,480.167 C450.5418,484.182 453.6448,487.479 457.5768,487.802 L457.5768,490.292 L459.0338,490.292 L452.5388,494.416 L382.4998,494.416 L382.4998,459.531 L371.3578,445.042 L351.8898,445.042 C350.9458,441.452 347.6818,438.792 343.7988,438.792 C339.9158,438.792 336.6518,441.452 335.7078,445.042 L307.4998,445.042 L307.4998,454.792 L298.1188,454.792 L298.1188,481.667 L277.4358,481.667 L277.4358,439.792 C277.4358,436.208 274.5198,433.292 270.9358,433.292 L231.9998,433.292 L231.9998,411.875 L256.6028,411.875 C260.1868,411.875 263.1028,408.959 263.1028,405.375 L263.1028,405.375 Z M344.9308,420.032 L343.3138,424.383 L341.6678,419.825 C342.1448,419.386 342.7578,419.131 343.4178,419.131 C343.9238,419.131 344.5238,419.633 344.9308,420.032 L344.9308,420.032 Z M343.4178,416.131 C342.6178,416.131 341.8458,416.298 341.1398,416.611 L341.1398,375.047 C341.1398,373.941 342.1558,373.042 343.4048,373.042 C344.6548,373.042 345.6718,373.941 345.6718,375.047 L345.6928,376.298 L345.5618,416.739 C344.9498,416.39 344.2298,416.131 343.4178,416.131 L343.4178,416.131 Z M314.7948,309.875 L342.5178,280.3 L371.1288,309.875 L314.7948,309.875 Z M310.2498,276.518 L329.7288,289.556 L310.2498,310.337 L310.2498,276.518 Z M314.9998,267.873 L314.9998,276.087 L310.0018,272.742 L314.9998,267.873 Z M317.9998,248.375 L366.4998,248.375 L366.4998,278.743 L353.5628,287.403 L342.4828,275.95 L331.8078,287.338 L317.9998,278.095 L317.9998,248.375 Z M341.7648,240.436 L346.6778,245.375 L336.9978,245.375 L341.7648,240.436 Z M369.4998,268.101 L375.4748,272.735 L369.4998,276.735 L369.4998,268.101 Z M375.2178,309.787 L355.6818,289.594 L375.2178,276.518 L375.2178,309.787 Z M378.4998,437.985 L412.0628,437.985 L412.0628,371.542 L378.4998,371.542 L378.4998,437.985 Z M375.4998,368.542 L375.4998,380.917 L360.1668,380.917 L360.1668,343.542 L430.1428,343.542 L430.1428,380.917 L415.0628,380.917 L415.0628,368.542 L375.4998,368.542 Z M457.9348,312.875 C458.9558,316.914 462.3158,320.021 466.4888,320.67 L466.4888,343.542 L448.1138,343.542 C444.5298,343.542 441.6138,346.458 441.6138,350.042 L441.6138,359.39 L433.1428,359.39 L433.1428,340.542 L357.1668,340.542 L357.1668,359.39 L344.4998,359.39 L344.4998,312.875 L457.9348,312.875 Z M468.1048,302.809 C472.2398,302.809 475.6048,306.173 475.6048,310.308 C475.6048,314.443 472.2398,317.808 468.1048,317.808 C463.9688,317.808 460.6048,314.443 460.6048,310.308 C460.6048,306.173 463.9688,302.809 468.1048,302.809 L468.1048,302.809 Z M487.8638,346.542 C489.7938,346.542 491.3638,348.112 491.3638,350.042 L491.3638,397.042 C491.3638,398.972 489.7938,400.542 487.8638,400.542 L448.1138,400.542 C446.1848,400.542 444.6138,398.972 444.6138,397.042 L444.6138,350.042 C444.6138,348.112 446.1848,346.542 448.1138,346.542 L487.8638,346.542 Z M460.5768,487.292 L475.0768,487.292 L475.0768,473.042 L460.5768,473.042 L460.5768,487.292 Z M465.4818,494.178 L470.1728,494.178 L470.1728,490.292 L465.4818,490.292 L465.4818,494.178 Z M477.7258,497.178 C477.9968,497.178 478.2258,497.406 478.2258,497.678 L478.2258,502.118 C478.2258,502.301 478.2498,502.476 478.2748,502.651 L470.3438,502.651 L470.3438,505.651 L481.4178,505.651 C481.4858,505.721 481.5768,505.881 481.5768,506.118 L481.5768,511.179 C481.5768,511.475 481.4338,511.657 481.4018,511.679 C481.3898,511.679 481.3778,511.683 481.3668,511.683 L470.2098,511.683 L470.2098,514.683 L478.2708,514.683 C478.2498,514.846 478.2258,515.009 478.2258,515.179 L478.2258,519.743 C478.2258,520.015 477.9968,520.243 477.7258,520.243 L457.2738,520.243 C456.6178,520.243 455.5628,519.75 455.1428,519.247 L452.6248,516.234 L452.6248,497.915 L461.5968,492.218 C461.7078,492.578 461.7928,493.003 461.7848,493.291 L461.7758,493.636 C461.7478,494.576 462.0928,495.464 462.7458,496.136 C463.3998,496.808 464.2768,497.178 465.2178,497.178 L477.7258,497.178 Z M383.4998,519.083 L449.6248,519.083 L449.6248,497.416 L383.4998,497.416 L383.4998,519.083 Z M116.2938,365.021 C113.3298,365.021 110.9188,362.61 110.9188,359.646 C110.9188,356.683 113.3298,354.271 116.2938,354.271 C119.2578,354.271 121.6688,356.683 121.6688,359.646 C121.6688,362.61 119.2578,365.021 116.2938,365.021 L116.2938,365.021 Z M115.2938,381.542 L93.9998,381.542 L93.9998,377.042 L54.4998,377.042 L54.4998,381.625 L32.8348,381.625 L32.8348,369.094 L39.6918,362.236 L54.4998,362.236 L54.4998,366.569 L93.9998,366.569 L93.9998,362.236 L108.3338,362.236 C109.3278,365.284 112.0228,367.564 115.2938,367.956 L115.2938,381.542 Z M57.4998,385.709 L90.9998,385.709 L90.9998,380.042 L57.4998,380.042 L57.4998,385.709 Z M26.0248,361.042 L31.3348,355.732 L36.6438,361.042 L31.3348,366.352 L26.0248,361.042 Z M57.4998,363.569 L90.9998,363.569 L90.9998,357.903 L57.4998,357.903 L57.4998,363.569 Z M32.8348,340.459 L54.4998,340.459 L54.4998,344.209 L93.9998,344.209 L93.9998,340.375 L115.2938,340.375 L115.2938,351.337 C111.2808,351.818 108.1398,355.144 107.9398,359.236 L93.9998,359.236 L93.9998,354.903 L54.4998,354.903 L54.4998,359.236 L39.0808,359.236 L32.8348,352.99 L32.8348,340.459 Z M57.4998,341.209 L90.9998,341.209 L90.9998,335.542 L57.4998,335.542 L57.4998,341.209 Z M247.3888,288.903 C244.4248,288.903 242.0138,286.492 242.0138,283.528 C242.0138,280.564 244.4248,278.153 247.3888,278.153 C250.3528,278.153 252.7638,280.564 252.7638,283.528 C252.7638,286.492 250.3528,288.903 247.3888,288.903 L247.3888,288.903 Z M194.8888,246.542 L227.7498,246.542 L227.7498,244.214 L194.8888,244.214 L194.8888,246.542 Z M219.4548,241.214 L204.1538,241.214 L206.7658,230.357 L217.4968,230.357 L219.4548,241.214 Z M161.9998,227.357 C160.0698,227.357 158.4998,225.787 158.4998,223.857 L158.4998,142.542 C158.4998,140.612 160.0698,139.042 161.9998,139.042 L267.7498,139.042 C269.6798,139.042 271.2498,140.612 271.2498,142.542 L271.2498,223.857 C271.2498,225.787 269.6798,227.357 267.7498,227.357 L161.9998,227.357 Z M121.1068,145.563 C121.1068,145.834 120.8778,146.063 120.6068,146.063 L110.0818,146.063 C109.9368,146.063 109.8498,146.002 109.8018,145.952 C109.7548,145.9 109.6998,145.81 109.7088,145.666 L110.3688,135.639 C110.4198,134.861 110.9368,133.557 111.4328,132.955 L114.5388,129.186 C115.5168,127.998 116.0428,125.961 115.7618,124.449 L115.4538,122.788 C115.1338,121.064 113.5178,119.577 111.7738,119.403 L108.8368,119.109 C108.5078,119.077 108.1978,118.733 108.1978,118.403 L108.1978,116.87 C108.1978,116.599 108.4268,116.37 108.6978,116.37 L115.0728,116.37 C115.6968,116.37 116.6698,116.865 117.0368,117.369 L120.2168,121.743 C120.6748,122.371 121.1068,123.701 121.1068,124.478 L121.1068,145.563 Z M121.1068,279.566 L102.6368,279.564 L102.6368,149.063 L121.1068,149.063 L121.1068,279.566 Z M97.6158,137.202 L107.2598,137.202 L106.7158,145.47 C106.7028,145.671 106.7158,145.868 106.7358,146.063 L102.0628,146.063 L97.6158,137.202 Z M108.5388,122.095 L111.4758,122.388 C111.9058,122.431 112.4258,122.909 112.5048,123.334 L112.7358,124.581 L100.3428,124.581 L100.3428,91.206 L112.1658,91.206 L112.1658,113.37 L108.6978,113.37 C106.7678,113.37 105.1978,114.94 105.1978,116.87 L105.1978,118.403 C105.1978,120.286 106.6658,121.907 108.5388,122.095 L108.5388,122.095 Z M95.1968,133.702 L95.1968,86.046 C95.1968,85.775 95.4258,85.546 95.6968,85.546 L116.5678,85.546 C116.8388,85.546 117.0678,85.775 117.0678,86.046 L117.0678,113.811 C116.4388,113.549 115.7828,113.391 115.1658,113.376 L115.1658,88.206 L97.3428,88.206 L97.3428,127.581 L111.9738,127.581 L109.1178,131.047 C108.4638,131.841 107.8928,133.055 107.5918,134.202 L95.6968,134.202 C95.4258,134.202 95.1968,133.973 95.1968,133.702 L95.1968,133.702 Z M67.8748,279.56 L23.8748,279.556 L23.8748,242.292 L40.3748,242.292 L40.3748,247.959 L67.8748,247.959 L67.8748,279.56 Z M21.2718,212.459 L21.2718,175.125 L37.7718,175.125 L37.7718,180.792 L65.2718,180.792 L65.2718,212.459 L21.2718,212.459 Z M92.1968,114.358 L84.4518,111.424 C84.1178,111.297 83.8648,110.831 83.9408,110.482 L84.4748,108.022 C84.4868,107.971 84.5148,107.879 84.5798,107.844 C84.6448,107.808 84.7368,107.834 84.7868,107.852 L92.1968,110.605 L92.1968,114.358 Z M92.1968,121.6 L87.1168,119.417 C86.7838,119.274 86.5448,118.79 86.6338,118.438 L87.3258,115.721 L92.0448,117.508 L92.1968,117.106 L92.1968,121.6 Z M92.1968,128.536 L86.3528,126.025 C86.0718,125.905 85.9118,125.534 86.0158,125.247 L86.9708,122.62 L92.1968,124.865 L92.1968,128.536 Z M407.9998,212.375 L407.9998,164.744 L416.3848,164.744 L416.3848,168.938 L423.8778,168.938 L423.8778,164.744 L445.4448,164.744 L445.4448,168.938 L452.9388,168.938 L452.9388,164.744 L460.1248,164.744 L460.1248,212.375 L407.9998,212.375 Z M419.3848,165.939 L420.8778,165.939 L420.8778,160.55 L419.3848,160.55 L419.3848,165.939 Z M448.4448,165.939 L449.9378,165.939 L449.9378,160.55 L448.4448,160.55 L448.4448,165.939 Z M470.1248,272.667 L491.2498,272.667 L491.2498,292.167 L480.6248,292.167 C474.8348,292.167 470.1248,287.457 470.1248,281.667 L470.1248,272.667 Z M470.1248,258.167 C470.1248,252.377 474.8348,247.667 480.6248,247.667 L491.2498,247.667 L491.2498,269.667 L470.1248,269.667 L470.1248,258.167 Z M487.5258,200.567 C486.1038,201.296 484.4258,201.22 483.1488,200.369 C482.4588,199.909 481.3258,198.83 481.4858,196.76 C481.6288,194.913 483.0378,193.834 484.3098,193.441 C484.7398,193.308 485.2248,193.228 485.7308,193.228 C486.9408,193.228 488.2758,193.684 489.3008,194.959 C489.7248,195.487 490.0658,196.282 490.3338,197.223 C489.7088,198.792 488.7588,199.937 487.5258,200.567 L487.5258,200.567 Z M487.3588,172.433 C485.9888,173.133 484.3718,173.059 483.1408,172.239 C482.4528,171.781 481.3238,170.701 481.4858,168.608 C481.6288,166.761 483.0378,165.682 484.3098,165.289 C484.7398,165.156 485.2238,165.076 485.7308,165.076 C486.9408,165.076 488.2768,165.532 489.3008,166.807 C489.6618,167.256 489.9918,167.92 490.2758,168.74 C489.4828,170.989 488.2178,171.993 487.3588,172.433 L487.3588,172.433 Z M487.1828,143.537 C485.8698,144.21 484.3178,144.137 483.1308,143.349 C481.9658,142.573 481.3658,141.241 481.4858,139.694 C481.6288,137.847 483.0378,136.769 484.3098,136.375 C484.7398,136.242 485.2248,136.162 485.7308,136.162 C486.9408,136.162 488.2768,136.619 489.3008,137.894 C489.6158,138.286 489.9018,138.85 490.1488,139.561 C489.5408,141.464 488.5248,142.851 487.1828,143.537 L487.1828,143.537 Z M418.2118,80.943 L418.2118,72.297 L424.2208,76.921 L418.2118,80.943 Z M423.9298,113.996 L404.3938,93.802 L423.9298,80.726 L423.9298,113.996 Z M363.0778,114.542 L391.2298,84.509 L420.2828,114.542 L363.0778,114.542 Z M358.9618,114.542 L358.9618,80.726 L378.4408,93.764 L358.9648,114.542 L358.9618,114.542 Z M363.7118,72.014 L363.7118,80.296 L358.5868,76.865 L363.7118,72.014 Z M366.7118,52.584 L415.2118,52.584 L415.2118,82.951 L402.2748,91.612 L391.1948,80.158 L380.5198,91.546 L366.7118,82.304 L366.7118,52.584 Z M390.4768,44.644 L395.3898,49.584 L385.7098,49.584 L390.4768,44.644 Z M301.1478,214.18 L383.5038,214.18 L383.5038,150.93 L301.1478,150.93 L301.1478,214.18 Z M219.6788,110.369 L219.6788,115.753 L222.6788,115.753 L222.6788,110.369 L226.5448,110.369 L226.5448,118.753 L229.5448,118.753 L229.5448,110.369 L233.4108,110.369 L233.4108,115.845 L236.4108,115.845 L236.4108,110.369 L240.2768,110.369 L240.2768,115.845 L243.2768,115.845 L243.2768,110.369 L247.1428,110.369 L247.1428,118.753 L250.1428,118.753 L250.1428,110.369 L254.0088,110.369 L254.0088,115.845 L257.0088,115.845 L257.0088,110.369 L260.8748,110.369 L260.8748,115.845 L263.8748,115.845 L263.8748,110.369 L270.2498,110.369 L270.2498,123.875 L159.2938,123.875 L159.2938,110.369 L164.7498,110.369 L164.7498,115.133 L167.7498,115.133 L167.7498,110.369 L171.6158,110.369 L171.6158,115.133 L174.6158,115.133 L174.6158,110.369 L178.4818,110.369 L178.4818,118.455 L181.4818,118.455 L181.4818,110.369 L185.3478,110.369 L185.3478,115.547 L188.3478,115.547 L188.3478,110.369 L192.2148,110.369 L192.2148,115.547 L195.2148,115.547 L195.2148,110.369 L199.0798,110.369 L199.0798,115.34 L202.0798,115.34 L202.0798,110.369 L205.9458,110.369 L205.9458,118.662 L208.9458,118.662 L208.9458,110.369 L212.8128,110.369 L212.8128,115.753 L215.8128,115.753 L215.8128,110.369 L219.6788,110.369 Z M494.2498,272.667 L514.6458,272.667 L514.6458,281.667 C514.6458,287.457 509.9358,292.167 504.1458,292.167 L494.2498,292.167 L494.2498,272.667 Z M494.2498,247.667 L504.1458,247.667 C509.9358,247.667 514.6458,252.377 514.6458,258.167 L514.6458,269.667 L494.2498,269.667 L494.2498,247.667 Z M553.2698,275.232 L558.5788,280.542 L553.2698,285.852 L547.9598,280.542 L553.2698,275.232 Z M529.0218,214.021 L575.9198,214.021 L575.9198,167.123 L529.0218,167.123 L529.0218,214.021 Z M549.1248,164.123 L554.7498,164.123 L554.7498,78.602 L549.1248,78.602 L549.1248,164.123 Z M463.0328,75.603 C460.5518,75.603 458.5328,73.584 458.5328,71.103 L458.5328,16.422 C458.5328,13.94 460.5518,11.922 463.0328,11.922 L565.1248,11.922 C567.6068,11.922 569.6248,13.94 569.6248,16.422 L569.6248,71.103 C569.6248,73.584 567.6068,75.603 565.1248,75.603 L463.0328,75.603 Z M538.6258,363.042 L538.7498,363.042 L538.7498,361.923 C539.5808,356.372 543.5858,351.627 549.0658,349.992 L550.1368,349.673 L550.1368,334.818 L546.8418,334.818 C545.0758,334.818 545.0758,334.376 545.0758,334.053 C545.0758,333.73 545.0758,333.287 546.8418,333.287 L559.6958,333.287 C561.4618,333.287 561.4618,333.73 561.4618,334.053 C561.4618,334.376 561.4618,334.818 559.6958,334.818 L556.4028,334.818 L556.4028,349.673 L557.4738,349.992 C562.7738,351.573 566.6928,356.066 567.6958,361.382 C567.1898,361.645 566.8178,362.138 566.4738,362.591 C566.1418,363.028 565.7288,363.572 565.1168,364.194 C563.8238,365.51 562.6158,365.988 562.0018,365.879 C561.8758,365.857 561.4938,365.79 561.1338,365.001 C560.5548,363.734 559.8148,362.357 558.3618,362.057 C556.7548,361.724 555.1948,362.815 552.5148,365.235 C550.0278,367.479 549.2138,367.426 549.2198,367.438 C548.9988,367.281 548.6908,366.406 548.5058,365.884 C548.2928,365.278 548.0718,364.652 547.7498,364.067 C547.3658,363.372 546.7618,362.911 546.0028,362.734 C544.0868,362.28 541.8078,363.736 538.7938,365.833 C538.7648,365.853 538.7388,365.871 538.7098,365.891 C538.6348,365.29 538.5828,364.681 538.5828,364.06 C538.5828,363.718 538.6018,363.379 538.6258,363.042 L538.6258,363.042 Z M553.2698,378.746 C546.9108,378.746 541.4998,374.678 539.4608,369.013 C539.7908,368.791 540.1358,368.554 540.5068,368.296 C541.6428,367.506 544.2298,365.707 545.1938,365.651 C545.3658,365.998 545.5178,366.429 545.6768,366.881 C546.1508,368.225 546.7398,369.897 548.4478,370.331 C548.6958,370.395 548.9498,370.427 549.2128,370.427 C550.6228,370.427 552.2698,369.497 554.5248,367.462 C556.5088,365.671 557.3608,365.131 557.7208,365.021 C557.8278,365.145 558.0438,365.457 558.4048,366.248 C559.2448,368.086 560.5418,368.668 561.4818,368.834 C563.2658,369.15 565.3648,368.221 567.2568,366.298 C567.4848,366.065 567.6828,365.847 567.8678,365.636 C567.0788,372.995 560.8348,378.746 553.2698,378.746 L553.2698,378.746 Z M526.5008,436.625 L580.0378,436.625 L580.0378,404.091 L526.5008,404.091 L526.5008,436.625 Z M478.0768,473.183 L511.1758,463.777 L511.1758,496.861 L478.0768,487.641 L478.0768,473.183 Z M514.1758,497.589 L516.6758,497.589 L516.6758,462.875 L514.1758,462.875 L514.1758,497.589 Z M519.6758,477.815 C520.6538,478.154 521.3608,479.075 521.3608,480.167 C521.3608,481.259 520.6538,482.18 519.6758,482.519 L519.6758,477.815 Z M597.4798,544.176 C597.4278,529.41 587.6208,516.881 575.7498,516.06 L575.7498,501.329 C577.7058,500.691 579.1328,498.872 579.1328,496.705 C579.1328,494.013 576.9428,491.822 574.2498,491.822 C571.5578,491.822 569.3668,494.013 569.3668,496.705 C569.3668,498.872 570.7938,500.691 572.7498,501.329 L572.7498,516.111 C561.0848,517.262 551.5418,529.694 551.5418,544.293 C551.5418,544.328 551.5438,544.362 551.5438,544.397 C548.0478,545.139 544.8198,547.723 543.7208,550.892 L540.5058,560.16 C539.6218,562.707 536.4258,564.858 533.5258,564.858 L514.0478,564.858 C509.8358,564.858 505.5798,567.841 504.3588,571.647 L502.1298,578.595 C501.3128,581.146 498.1838,583.3 495.2978,583.3 L459.8098,583.3 C459.8458,570.602 455.5548,559.178 447.6198,551.008 C440.0818,543.245 429.8008,538.93 418.6278,538.809 L418.6278,522.083 L452.6248,522.083 L452.6248,520.914 L452.8398,521.171 C453.8268,522.353 455.7338,523.243 457.2738,523.243 L477.7258,523.243 C479.6548,523.243 481.2258,521.673 481.2258,519.743 L481.2258,515.179 C481.2258,514.889 481.3628,514.71 481.3978,514.683 L481.5198,514.683 L481.5198,514.666 C483.2148,514.595 484.5768,513.064 484.5768,511.179 L484.5768,506.118 C484.5768,504.304 483.3148,502.826 481.7328,502.656 L481.7328,502.651 L481.6878,502.651 C481.6038,502.644 481.5228,502.623 481.4378,502.623 L481.4298,502.623 C481.3698,502.597 481.2258,502.414 481.2258,502.118 L481.2258,497.678 C481.2258,495.748 479.6548,494.178 477.7258,494.178 L473.1728,494.178 L473.1728,490.292 L476.4138,490.292 L514.1758,500.811 L514.1758,500.589 L519.6758,500.589 L519.6758,485.6 C522.3218,485.204 524.3608,482.922 524.3608,480.167 C524.3608,477.412 522.3218,475.13 519.6758,474.734 L519.6758,459.875 L514.1758,459.875 L514.1758,459.807 L513.9348,459.875 L513.6758,459.875 L513.6758,459.949 L478.0768,470.065 L478.0768,470.042 L469.6048,470.042 L469.6048,403.542 L487.8638,403.542 C491.4478,403.542 494.3638,400.626 494.3638,397.042 L494.3638,363.042 L535.6228,363.042 C535.6038,363.38 535.5828,363.718 535.5828,364.06 C535.5828,373.61 543.1978,381.397 552.6718,381.716 L551.9808,381.716 L551.9808,401.091 L523.5008,401.091 L523.5008,439.625 L583.0378,439.625 L583.0378,401.091 L554.9808,401.091 L554.9808,381.716 L553.8668,381.716 C563.3408,381.397 570.9558,373.61 570.9558,364.06 C570.9558,363.535 570.9258,363.016 570.8798,362.5 L611.9208,362.5 L611.9208,359.5 L570.3358,359.5 C568.8558,354.045 564.8058,349.478 559.4028,347.476 L559.4028,337.818 L559.6958,337.818 C563.9968,337.818 564.4618,335.185 564.4618,334.053 C564.4618,332.921 563.9968,330.287 559.6958,330.287 L546.8418,330.287 C542.5408,330.287 542.0758,332.921 542.0758,334.053 C542.0758,335.185 542.5408,337.818 546.8418,337.818 L547.1368,337.818 L547.1368,347.476 C541.5548,349.544 537.4048,354.347 536.0548,360.042 L494.3638,360.042 L494.3638,350.042 C494.3638,346.458 491.4478,343.542 487.8638,343.542 L469.4888,343.542 L469.4888,320.705 C474.6258,320.024 478.6048,315.627 478.6048,310.308 C478.6048,305.21 474.9508,300.953 470.1248,300.008 L470.1248,290.134 C472.6018,293.199 476.3858,295.167 480.6248,295.167 L504.1458,295.167 C511.2868,295.167 517.1338,289.59 517.5998,282.565 L545.7408,282.565 L553.2698,290.094 L560.7978,282.565 L611.9208,282.565 L611.9208,279.565 L561.8448,279.565 L554.7698,272.489 L554.7698,217.021 L578.9198,217.021 L578.9198,164.123 L557.7498,164.123 L557.7498,89.875 L611.9208,89.875 L611.9208,86.875 L557.7498,86.875 L557.7498,78.603 L565.1248,78.603 C569.2608,78.603 572.6248,75.238 572.6248,71.103 L572.6248,48.262 L611.9208,48.262 L611.9208,45.262 L572.6248,45.262 L572.6248,16.422 C572.6248,12.286 569.2608,8.922 565.1248,8.922 L463.0328,8.922 C458.8978,8.922 455.5328,12.286 455.5328,16.422 L455.5328,71.103 C455.5328,75.238 458.8978,78.603 463.0328,78.603 L546.1248,78.603 L546.1248,164.123 L526.0218,164.123 L526.0218,217.021 L551.7698,217.021 L551.7698,272.489 L544.6938,279.565 L517.6458,279.565 L517.6458,258.167 C517.6458,250.723 511.5898,244.667 504.1458,244.667 L494.1888,244.667 L494.1878,205.497 C494.2068,204.874 494.2928,200.892 493.4658,197.344 C493.8558,196.082 494.1208,194.576 494.1888,192.78 C494.1948,192.075 494.3608,175.501 494.1838,173.294 C494.1058,172.316 493.9048,170.528 493.4078,168.734 C493.7208,167.571 493.9318,166.215 493.9908,164.634 C494.0018,163.879 494.2548,146.099 493.9838,143.491 C493.8268,141.998 493.5928,140.683 493.2818,139.55 C493.5478,138.464 493.7268,137.216 493.7798,135.784 C493.7878,135.641 493.9758,132.227 493.8748,126.282 L493.8748,125.493 C493.8748,119.455 488.7158,114.542 482.3748,114.542 L426.9298,114.542 L426.9298,75.108 L426.8508,75.16 L418.2118,68.511 L418.2118,49.584 L399.6208,49.584 L390.4438,40.356 L381.5408,49.584 L363.7118,49.584 L363.7118,67.883 L356.0298,75.153 L355.9618,75.108 L355.9618,82.381 L340.3048,94.288 C338.5358,95.632 336.6858,96.105 335.2298,95.585 C333.9208,95.118 332.9608,93.861 332.5278,92.047 C331.8508,89.217 330.2078,87.195 327.9018,86.353 C325.4588,85.461 322.5608,86.059 319.9458,87.987 L311.2728,94.389 C309.4688,95.721 307.5678,96.161 305.9248,95.628 C304.4028,95.136 303.2348,93.826 302.6328,91.94 C301.7258,89.094 299.8858,87.125 297.4518,86.397 C294.9338,85.641 292.0628,86.367 289.5738,88.382 L282.5388,94.077 C280.8158,95.472 279.1078,95.997 277.8498,95.514 C276.7638,95.098 276.0128,93.906 275.7348,92.159 C275.2838,89.333 273.8388,87.267 271.6658,86.343 C269.3298,85.35 266.4378,85.86 263.7348,87.744 L253.9198,94.585 C252.0838,95.866 250.2038,96.268 248.7588,95.686 C247.4828,95.172 246.5828,93.899 246.2248,92.103 C245.6638,89.289 244.1088,87.215 241.8438,86.265 C239.4248,85.25 236.4718,85.691 233.7438,87.476 L216.6268,98.677 L216.3898,16.606 L246.3338,16.606 L246.3338,0 L243.3338,0 L243.3338,13.606 L231.3338,13.606 L231.3338,0.087 L228.3338,0.087 L228.3338,13.606 L216.3808,13.606 L216.3438,0.663 L216.3338,0.663 L216.3338,0 L213.3338,0 L213.3338,16.606 L213.3898,16.606 L213.4758,46.518 L186.1908,46.518 C186.6258,44.912 186.9288,42.634 186.1348,40.44 C185.3658,38.311 183.7558,36.703 181.3508,35.66 C178.5108,34.428 175.6718,34.534 173.1358,35.929 C173.4018,32.345 173.2588,26.247 166.9288,24.359 C161.8328,22.839 158.2598,25.072 156.1318,26.824 C154.8018,17.176 149.0558,15.703 145.6668,15.709 C140.5258,15.734 134.6378,18.284 133.1638,25.116 C131.3038,22.91 128.1738,20.569 123.2628,21.861 C120.7408,22.523 118.6928,24.221 117.3408,26.772 C116.0208,29.262 115.5748,32.115 115.7278,34.279 L82.2878,34.279 C82.5198,31.793 82.5148,27.277 80.0488,24.121 C78.3918,22 75.9608,20.861 72.8228,20.735 C66.8688,20.492 62.8588,23.637 61.4408,29.461 C59.7408,27.176 56.8468,24.671 52.2118,25.717 C45.6618,27.19 44.6268,32.537 44.5888,36.239 C43.0568,34.841 40.6778,33.669 37.0878,34.917 C34.9568,35.657 33.4598,37.148 32.7608,39.229 C32.0738,41.272 32.2658,43.509 32.7158,45.213 L0.1848,45.213 L0.1848,48.213 L37.7198,48.213 L36.1648,45.881 C35.6728,45.143 34.8888,42.315 35.6048,40.185 C36.0078,38.983 36.8158,38.187 38.0718,37.75 C41.1688,36.675 42.5468,38.156 43.9098,40.05 C44.4978,40.867 45.3038,41.986 46.6148,41.54 C47.8638,41.114 47.7748,39.873 47.6808,38.56 C47.3618,34.087 47.7688,29.791 52.8698,28.644 C56.6768,27.791 58.7078,30.397 60.3378,33.343 C60.8348,34.242 61.4008,35.261 62.6118,34.993 C63.1568,34.873 63.8258,34.459 63.9178,33.172 L63.9258,33.061 C64.2258,28.657 66.0018,23.46 72.7028,23.733 C74.9468,23.823 76.5748,24.552 77.6798,25.961 C80.3168,29.326 79.1108,35.415 79.0988,35.474 L78.7248,37.279 L119.6398,37.279 L118.9348,35.28 C118.4918,34.026 118.6138,30.774 119.9908,28.177 C120.9538,26.361 122.3108,25.212 124.0248,24.762 C128.2488,23.65 130.5038,26.193 132.3108,29.104 C132.8078,29.904 133.4248,30.897 134.6248,30.561 C135.4148,30.335 135.8158,29.664 135.8158,28.565 C135.8158,26.264 136.5278,18.754 145.6808,18.709 L145.7268,18.709 C150.3708,18.709 152.9378,22.261 153.3568,29.269 C153.4358,30.588 153.9778,31.248 154.9618,31.208 C155.7328,31.181 156.2658,30.703 157.0728,29.979 C158.7728,28.457 161.6158,25.907 166.0718,27.234 C170.4718,28.546 170.4278,32.896 170.0408,36.872 C169.8858,38.465 169.7738,39.617 170.9038,40.174 C171.2218,40.331 172.0578,40.6 172.9818,39.734 C175.1608,37.695 177.5078,37.262 180.1568,38.412 C181.7918,39.121 182.8228,40.113 183.3098,41.447 C184.2878,44.126 182.7298,47.313 182.7158,47.342 L181.6168,49.518 L213.4848,49.518 L213.6518,107.369 L156.2938,107.369 L156.2938,126.875 L273.2498,126.875 L273.2498,107.369 L216.6518,107.369 L216.6368,102.256 L235.3858,89.987 C237.2668,88.756 239.1988,88.409 240.6838,89.031 C241.9998,89.584 242.9228,90.883 243.2818,92.688 C243.8448,95.512 245.3918,97.564 247.6388,98.469 C250.0398,99.435 252.9538,98.917 255.6358,97.046 L265.4508,90.205 C267.2878,88.924 269.1248,88.521 270.4918,89.104 C271.6798,89.609 272.4898,90.862 272.7718,92.632 C273.2268,95.481 274.6488,97.5 276.7758,98.315 C279.0588,99.191 281.8478,98.495 284.4258,96.409 L291.4618,90.714 C293.1938,89.311 295.0128,88.798 296.5918,89.271 C298.0468,89.707 299.1778,90.978 299.7758,92.851 C300.6778,95.684 302.5338,97.684 305.0008,98.482 C307.5558,99.31 310.4888,98.697 313.0538,96.803 L321.7278,90.401 C323.5178,89.079 325.3928,88.63 326.8718,89.17 C328.2018,89.656 329.1748,90.925 329.6098,92.744 C330.2868,95.578 331.9238,97.59 334.2208,98.41 C336.6498,99.279 339.5288,98.646 342.1208,96.675 L355.9618,86.15 L355.9618,114.542 L351.2138,114.542 C344.8728,114.542 339.7138,119.701 339.7138,126.042 L339.7138,147.93 L298.1478,147.93 L298.1478,217.18 L386.5038,217.18 L386.5038,147.93 L342.7138,147.93 L342.7138,126.042 C342.7138,121.355 346.5278,117.542 351.2138,117.542 L482.3748,117.542 C487.0618,117.542 490.8748,121.109 490.8748,125.493 L490.8748,127.307 L490.8878,127.307 C490.9358,131.314 490.8508,134.055 490.8068,135.13 C488.8288,133.337 486.0508,132.698 483.4228,133.509 C480.5998,134.382 478.7118,136.664 478.4948,139.463 C478.2918,142.085 479.4028,144.471 481.4688,145.846 C483.5558,147.236 486.2698,147.375 488.5488,146.208 C489.2638,145.842 490.1708,145.226 491.0288,144.209 C491.1918,147.154 491.0678,159.2 490.9968,164.222 C489.0098,162.292 486.1328,161.585 483.4228,162.423 C480.5998,163.296 478.7118,165.577 478.4948,168.376 C478.2928,170.98 479.4078,173.358 481.4778,174.736 C483.6118,176.158 486.3898,176.298 488.7258,175.103 C489.4278,174.744 490.3158,174.146 491.1608,173.167 C491.1728,173.288 491.1838,173.41 491.1938,173.532 C491.3288,175.237 491.2378,187.742 491.1908,192.569 C489.1978,190.492 486.2228,189.71 483.4228,190.575 C480.5998,191.448 478.7118,193.729 478.4948,196.528 C478.2918,199.155 479.3818,201.464 481.4858,202.866 C483.6648,204.317 486.5028,204.459 488.8928,203.238 C489.5238,202.916 490.3028,202.402 491.0688,201.6 C491.1898,203.01 491.2208,204.379 491.1888,205.45 L491.1888,244.667 L480.6248,244.667 C473.1808,244.667 467.1248,250.723 467.1248,258.167 L467.1248,299.858 C461.9358,300.341 457.8428,304.615 457.6268,309.875 L394.0868,309.875 C396.3608,307.77 397.7998,304.744 397.7998,301.375 L397.7998,285.985 C397.7998,281.298 401.6128,277.485 406.2998,277.485 L407.0118,277.485 C413.3528,277.485 418.5118,272.326 418.5118,265.985 L418.5118,250.182 C418.5118,245.495 421.9358,241.682 426.1448,241.682 C432.0068,241.682 436.7768,236.523 436.7768,230.182 L436.7768,215.375 L463.1248,215.375 L463.1248,161.744 L452.9388,161.744 L452.9388,157.55 L445.4448,157.55 L445.4448,161.744 L423.8778,161.744 L423.8778,157.55 L416.3848,157.55 L416.3848,161.744 L404.9998,161.744 L404.9998,215.375 L433.7768,215.375 L433.7768,230.182 C433.7768,234.869 430.3528,238.682 426.1448,238.682 C420.2808,238.682 415.5118,243.84 415.5118,250.182 L415.5118,265.985 C415.5118,270.672 411.6978,274.485 407.0118,274.485 L406.2998,274.485 C399.9588,274.485 394.7998,279.644 394.7998,285.985 L394.7998,301.375 C394.7998,306.062 391.0798,309.875 386.5088,309.875 L378.2178,309.875 L378.2178,270.899 L378.1018,270.977 L369.4998,264.305 L369.4998,245.375 L350.9088,245.375 L341.7318,236.148 L332.8288,245.375 L314.9998,245.375 L314.9998,263.684 L307.4528,271.035 L307.2498,270.899 L307.2498,271.233 L307.2348,271.249 L307.2498,271.265 L307.2498,282.625 L255.7138,282.625 C255.2618,278.43 251.7018,275.153 247.3888,275.153 C244.1988,275.153 241.4208,276.947 240.0078,279.578 L213.6248,279.575 L213.6248,249.542 L230.7498,249.542 L230.7498,241.214 L222.5038,241.214 L220.5448,230.357 L267.7498,230.357 C271.3338,230.357 274.2498,227.441 274.2498,223.857 L274.2498,142.542 C274.2498,138.958 271.3338,136.042 267.7498,136.042 L161.9998,136.042 C158.4158,136.042 155.4998,138.958 155.4998,142.542 L155.4998,223.857 C155.4998,227.441 158.4158,230.357 161.9998,230.357 L203.6798,230.357 L201.0678,241.214 L191.8888,241.214 L191.8888,249.542 L210.6248,249.542 L210.6248,279.575 L124.1068,279.566 L124.1068,146.063 L124.0568,146.063 C124.0798,145.898 124.1068,145.734 124.1068,145.563 L124.1068,124.478 C124.1068,123.059 123.4778,121.125 122.6428,119.978 L120.0678,116.436 L120.0678,86.046 C120.0678,84.117 118.4978,82.546 116.5678,82.546 L95.6968,82.546 C93.7668,82.546 92.1968,84.117 92.1968,86.046 L92.1968,107.404 L85.8318,105.04 C84.9318,104.706 83.9508,104.768 83.1408,105.211 C82.3298,105.655 81.7478,106.447 81.5438,107.385 L81.0088,109.845 C80.6168,111.65 81.6628,113.576 83.3888,114.23 L84.5028,114.651 L83.7268,117.698 C83.4408,118.823 83.7218,120.019 84.3918,120.933 L83.1968,124.222 C82.5528,125.993 83.4378,128.039 85.1688,128.782 L92.1968,131.801 L92.1968,133.702 C92.1968,135.029 92.9488,136.172 94.0408,136.766 L99.6368,147.919 L99.6368,279.563 L70.8748,279.561 L70.8748,244.959 L43.3748,244.959 L43.3748,239.292 L33.4538,239.292 L33.4538,215.459 L68.2718,215.459 L68.2718,177.792 L40.7718,177.792 L40.7718,172.125 L36.1668,172.125 L36.1668,144.542 C36.1668,140.954 34.7798,135.711 33.0098,132.608 L28.7628,125.157 C27.2648,122.53 25.9998,117.746 25.9998,114.709 L25.9998,94.375 C25.9998,90.239 22.6788,86.875 18.5968,86.875 L0.1848,86.875 L0.1848,89.875 L18.5968,89.875 C21.0248,89.875 22.9998,91.894 22.9998,94.375 L22.9998,114.709 C22.9998,118.296 24.3858,123.538 26.1558,126.643 L30.4038,134.094 C31.9018,136.72 33.1668,141.504 33.1668,144.542 L33.1668,172.125 L18.2718,172.125 L18.2718,215.459 L30.4538,215.459 L30.4538,239.292 L20.8748,239.292 L20.8748,279.555 L-0.0002,279.553 L-0.0002,282.553 L239.0718,282.578 C239.0368,282.89 239.0138,283.206 239.0138,283.528 C239.0138,288.146 242.7708,291.903 247.3888,291.903 C251.2818,291.903 254.5528,289.23 255.4878,285.625 L307.2498,285.625 L307.2498,312.834 L307.9098,312.834 L307.8708,312.875 L318.6088,312.875 L318.6088,369.875 C318.6088,374.562 314.7948,378.375 310.1088,378.375 L263.1028,378.375 L263.1028,313.709 C263.1028,310.125 260.1868,307.209 256.6028,307.209 L203.5448,307.209 C199.9608,307.209 197.0448,310.125 197.0448,313.709 L197.0448,359.542 L124.6638,359.542 C124.6158,355.661 121.9148,352.415 118.2938,351.523 L118.2938,337.375 L93.9998,337.375 L93.9998,332.542 L54.4998,332.542 L54.4998,337.459 L29.8348,337.459 L29.8348,352.99 L23.3238,359.5 L0.1848,359.5 L0.1848,362.5 L23.2398,362.5 L29.8348,369.094 L29.8348,384.625 L54.4998,384.625 L54.4998,388.709 L93.9998,388.709 L93.9998,384.542 L118.2938,384.542 L118.2938,367.77 C121.0248,367.097 123.2278,365.085 124.1688,362.469 L124.1688,362.542 L197.0448,362.542 L197.0448,405.375 C197.0448,408.959 199.9608,411.875 203.5448,411.875 L228.9998,411.875 L228.9998,433.292 L186.6028,433.292 C183.0188,433.292 180.1028,436.208 180.1028,439.792 L180.1028,479.116 L166.4348,479.117 C165.9878,479.105 163.1718,479.043 160.5858,479.624 C159.6628,479.351 158.5728,479.164 157.2858,479.116 C156.0718,479.104 145.3818,478.996 143.8038,479.121 C142.9638,479.188 141.7538,479.336 140.5458,479.66 C139.7068,479.445 138.7378,479.301 137.6208,479.259 C136.3458,479.238 125.1148,479.071 123.2478,479.267 C122.1798,479.378 121.2438,479.54 120.4308,479.756 C119.6388,479.57 118.7358,479.446 117.7058,479.408 C117.5898,479.407 107.0278,479.294 101.9408,479.328 L101.9408,434.706 L102.7388,434.69 C104.1438,435.936 105.6928,436.985 107.3508,437.815 C110.3728,439.33 113.6088,440.099 116.9678,440.099 L116.9698,440.099 C125.1638,440.099 132.5348,435.55 136.2038,428.228 C141.5158,417.63 137.2148,404.686 126.6158,399.374 C123.5928,397.858 120.3578,397.091 116.9988,397.091 C108.8028,397.091 101.4318,401.64 97.7618,408.962 C95.9198,412.637 95.2088,416.737 95.6338,420.791 L58.7838,420.791 C55.1998,420.791 52.2838,423.707 52.2838,427.291 L52.2838,494.667 C52.2838,498.251 55.1998,501.167 58.7838,501.167 L74.9968,501.167 L75.2438,512.806 L65.5548,512.806 L65.5548,543.875 L33.8618,543.875 L27.3098,537.323 L27.3098,517.232 L32.8648,517.232 L32.8648,432.379 L32.7708,432.379 L29.8778,422.389 L29.7508,422.389 L29.7508,417.791 L22.4318,417.791 L22.4318,422.389 L22.3318,422.389 L18.7888,432.379 L18.7548,432.379 L18.7548,517.232 L24.3098,517.232 L24.3098,537.323 L17.7578,543.875 L0.1848,543.875 L0.1848,546.875 L17.7578,546.875 L24.7218,553.84 L51.3978,583.223 C50.5778,584.281 50.0848,585.603 50.0848,587.042 C50.0848,590.488 52.8878,593.292 56.3348,593.292 C59.7808,593.292 62.5848,590.488 62.5848,587.042 C62.5848,586.769 62.5608,586.502 62.5268,586.239 L85.2668,575.731 C86.3898,577.403 88.2978,578.506 90.4588,578.506 C92.7278,578.506 94.7118,577.286 95.8068,575.472 L116.4888,587.043 C116.4448,587.339 116.4148,587.641 116.4148,587.949 C116.4148,591.396 119.2188,594.199 122.6648,594.199 C126.1118,594.199 128.9148,591.396 128.9148,587.949 C128.9148,587.897 128.9088,587.847 128.9068,587.795 L149.1748,577.503 C150.3118,578.683 151.9058,579.422 153.6708,579.422 C157.1168,579.422 159.9208,576.618 159.9208,573.172 C159.9208,572.119 159.6558,571.127 159.1938,570.255 L180.2568,535.314 L180.9358,535.314 C187.2768,535.314 192.4358,530.155 192.4358,523.814 L192.4358,509.542 L213.3438,509.542 L213.3338,553.442 L213.3338,553.442 L213.3338,602.542 L213.9998,602.542 L213.9998,602.553 L244.8328,602.553 L244.8328,602.542 L246.3338,602.542 L246.3338,584.153 L251.6708,584.153 C252.3178,588.282 255.5798,591.544 259.7088,592.192 L259.7088,602.542 L262.7088,602.542 L262.7088,592.192 C266.8898,591.536 270.1828,588.199 270.7708,583.996 L270.7708,584.153 L276.8338,584.153 L276.8338,602.582 L279.8338,602.582 L279.8338,602.529 L306.8328,602.529 L306.8328,602.582 L309.8328,602.582 L309.8328,586.266 L377.0008,586.239 L458.3238,586.239 L458.3238,586.3 L495.2978,586.3 C499.5098,586.3 503.7668,583.317 504.9868,579.511 L507.2158,572.563 C508.0328,570.013 511.1618,567.858 514.0478,567.858 L533.5258,567.858 C537.7228,567.858 542.0328,564.908 543.3398,561.143 L546.5548,551.874 C547.4388,549.327 550.6348,547.176 553.5348,547.176 L611.9258,547.176 L611.9258,544.176 L597.4798,544.176 Z M96.2088,73.671 L85.2578,65.248 L83.4288,67.626 L94.3798,76.049 L96.2088,73.671 Z M160.2428,380.318 L189.9478,380.318 L189.9478,377.318 L160.2428,377.318 L160.2428,380.318 Z M154.2208,316.821 C153.2078,316.821 152.3878,317.642 152.3878,318.655 C152.3878,319.667 153.2078,320.488 154.2208,320.488 C155.2328,320.488 156.0538,319.667 156.0538,318.655 C156.0538,317.642 155.2328,316.821 154.2208,316.821 L154.2208,316.821 Z M529.2498,481.814 L551.7498,481.814 L551.7498,478.814 L529.2498,478.814 L529.2498,481.814 Z M548.3888,460.975 L546.5428,458.609 L528.3268,472.817 L530.1728,475.183 L548.3888,460.975 Z M555.7358,319.738 C555.7358,321.098 554.6288,322.204 553.2698,322.204 C551.9098,322.204 550.8038,321.098 550.8038,319.738 C550.8038,318.945 551.9348,316.688 553.2698,314.489 C554.6058,316.687 555.7358,318.944 555.7358,319.738 L555.7358,319.738 Z M552.0288,310.87 C551.0378,312.328 547.8038,317.277 547.8038,319.738 C547.8038,322.752 550.2558,325.204 553.2698,325.204 C556.2828,325.204 558.7358,322.752 558.7358,319.738 C558.7358,317.277 555.5008,312.328 554.5098,310.87 L553.2698,309.044 L552.0288,310.87 Z M546.5428,502.578 L548.3888,500.213 L530.1728,486.005 L528.3268,488.37 L546.5428,502.578 Z M129.9968,66.414 L128.1678,64.036 L117.2168,72.459 L119.0458,74.837 L129.9968,66.414 Z M243.3748,240.015 L267.9598,240.015 L267.9598,237.015 L243.3748,237.015 L243.3748,240.015 Z M171.8648,271.485 L202.7278,271.485 L202.7278,268.485 L171.8648,268.485 L171.8648,271.485 Z M83.8408,469.5 C83.2398,473.259 80.4258,476.111 77.0558,476.111 C73.6858,476.111 70.8718,473.259 70.2718,469.5 L83.8408,469.5 Z M67.1528,468 C67.1528,474.127 71.5958,479.111 77.0558,479.111 C82.5158,479.111 86.9588,474.127 86.9588,468 L86.9588,466.5 L67.1528,466.5 L67.1528,468 Z M243.3748,248.569 L273.0798,248.569 L273.0798,245.569 L243.3748,245.569 L243.3748,248.569 Z M177.1848,262.932 L202.7278,262.932 L202.7278,259.932 L177.1848,259.932 L177.1848,262.932 Z M30.4598,263.034 L33.4598,263.034 L33.4598,258.051 L30.4598,258.051 L30.4598,263.034 Z M74.5678,525.317 L82.0568,525.317 L82.0568,522.317 L74.5678,522.317 L74.5678,525.317 Z M90.3468,544.458 L120.5888,544.458 L120.5888,541.458 L90.3468,541.458 L90.3468,544.458 Z M113.0988,525.509 L120.5888,525.509 L120.5888,522.509 L113.0988,522.509 L113.0988,525.509 Z M113.0988,535.079 L120.5888,535.079 L120.5888,532.079 L113.0988,532.079 L113.0988,535.079 Z M130.7338,544.458 L138.2238,544.458 L138.2238,541.458 L130.7338,541.458 L130.7338,544.458 Z M90.3468,525.509 L97.8358,525.509 L97.8358,522.509 L90.3468,522.509 L90.3468,525.509 Z M74.5678,534.888 L82.0568,534.888 L82.0568,531.888 L74.5678,531.888 L74.5678,534.888 Z M84.4388,461.457 L87.4388,461.457 L87.4388,456.474 L84.4388,456.474 L84.4388,461.457 Z M90.3468,535.079 L97.8358,535.079 L97.8358,532.079 L90.3468,532.079 L90.3468,535.079 Z M74.5678,544.458 L82.0568,544.458 L82.0568,541.458 L74.5678,541.458 L74.5678,544.458 Z M426.4838,556.319 L429.2468,557.485 L431.1338,553.016 L428.3698,551.85 L426.4838,556.319 Z M387.1888,576.861 C388.1148,561.913 402.7258,548.176 418.1498,548.176 C433.6868,548.176 448.9448,562.161 449.9308,576.861 L387.1888,576.861 Z M418.1498,545.176 C400.6688,545.176 384.1418,561.304 384.1418,578.361 L384.1418,579.861 L452.9818,579.861 L452.9818,578.361 C452.9818,561.304 436.0538,545.176 418.1498,545.176 L418.1498,545.176 Z M441.5658,573.545 L445.7358,571.064 L444.2018,568.486 L440.0318,570.967 L441.5658,573.545 Z M438.3208,559.774 L435.0308,563.342 L437.2368,565.375 L440.5268,561.808 L438.3208,559.774 Z M411.5218,560.424 C410.8518,560.801 415.1708,572.169 415.9188,573.498 C416.6678,574.827 418.2848,575.335 419.5298,574.634 C420.7748,573.932 421.1768,572.286 420.4278,570.957 C419.6788,569.628 412.2008,560.041 411.5218,560.424 L411.5218,560.424 Z M405.8208,552.794 L407.6108,557.305 L410.3998,556.199 L408.6108,551.688 L405.8208,552.794 Z M130.7338,525.509 L138.2238,525.509 L138.2238,522.509 L130.7338,522.509 L130.7338,525.509 Z M130.7338,535.079 L138.2238,535.079 L138.2238,532.079 L130.7338,532.079 L130.7338,535.079 Z M419.5718,554.66 L419.5498,549.808 L416.5498,549.821 L416.5718,554.674 L419.5718,554.66 Z M390.6308,568.976 L394.7458,571.548 L396.3358,569.005 L392.2208,566.433 L390.6308,568.976 Z M396.8848,559.855 L400.0948,563.495 L402.3448,561.511 L399.1348,557.871 L396.8848,559.855 Z M535.3608,207.682 L569.5828,207.682 L569.5828,173.461 L535.3608,173.461 L535.3608,207.682 Z M532.3608,210.683 L572.5828,210.683 L572.5828,170.462 L532.3608,170.462 L532.3608,210.683 Z M503.7358,58.128 L508.3608,58.128 L508.3608,31.925 L503.7358,31.925 L503.7358,58.128 Z M500.7358,61.129 L511.3608,61.129 L511.3608,28.926 L500.7358,28.926 L500.7358,61.129 Z M476.0178,285.057 L478.1718,287.144 L481.3458,283.867 L484.6228,287.041 L486.7108,284.885 L483.4338,281.711 L486.6078,278.434 L484.4528,276.347 L481.2788,279.625 L478.0008,276.45 L475.9128,278.605 L479.1908,281.78 L476.0178,285.057 Z M484.2498,58.128 L488.8748,58.128 L488.8748,47.389 L484.2498,47.389 L484.2498,58.128 Z M481.2498,61.128 L491.8748,61.128 L491.8748,44.389 L481.2498,44.389 L481.2498,61.128 Z M378.5928,67.733 L381.5928,67.733 L381.5928,62.75 L378.5928,62.75 L378.5928,67.733 Z M523.2218,58.128 L527.8468,58.128 L527.8468,40.079 L523.2218,40.079 L523.2218,58.128 Z M520.2218,61.129 L530.8468,61.129 L530.8468,37.08 L520.2218,37.08 L520.2218,61.129 Z M416.3118,188.038 L451.8138,188.038 L451.8138,185.038 L416.3118,185.038 L416.3118,188.038 Z M463.1398,41.247 C462.0958,41.247 461.2498,42.093 461.2498,43.137 C461.2498,44.181 462.0958,45.027 463.1398,45.027 C464.1838,45.027 465.0298,44.181 465.0298,43.137 C465.0298,42.093 464.1838,41.247 463.1398,41.247 L463.1398,41.247 Z M416.3118,181.147 L451.8138,181.147 L451.8138,178.147 L416.3118,178.147 L416.3118,181.147 Z M542.7078,58.128 L547.3328,58.128 L547.3328,49.495 L542.7078,49.495 L542.7078,58.128 Z M539.7078,61.129 L550.3328,61.129 L550.3328,46.496 L539.7078,46.496 L539.7078,61.129 Z M416.3118,194.928 L451.8138,194.928 L451.8138,191.928 L416.3118,191.928 L416.3118,194.928 Z M390.5518,77.232 C392.6308,77.232 394.3518,76.72 395.3738,76.322 C397.7868,75.383 400.4248,73.471 400.5128,71.493 L397.5148,71.361 C397.5188,71.286 397.5328,71.245 397.5328,71.245 C397.3548,71.745 395.6268,73.343 392.7898,73.984 C390.3978,74.522 386.8228,74.453 383.4068,71.043 L381.2878,73.166 C384.4778,76.35 387.8218,77.232 390.5518,77.232 L390.5518,77.232 Z M416.3118,201.819 L451.8138,201.819 L451.8138,198.819 L416.3118,198.819 L416.3118,201.819 Z M497.9998,285.694 L510.1248,285.694 L510.1248,282.694 L497.9998,282.694 L497.9998,285.694 Z M324.8688,186.595 L333.8538,194.578 L348.6228,174.475 L358.0618,185.806 L373.9528,166.188 L371.6208,164.3 L358.0278,181.079 L348.4748,169.609 L333.3848,190.148 L324.4648,182.222 L311.1428,199.399 L313.5138,201.238 L324.8688,186.595 Z M535.0628,412.084 C536.1308,412.084 536.9998,412.953 536.9998,414.021 C536.9998,415.09 536.1308,415.959 535.0628,415.959 C533.9938,415.959 533.1248,415.09 533.1248,414.021 C533.1248,412.953 533.9938,412.084 535.0628,412.084 L535.0628,412.084 Z M535.0628,418.959 C537.7848,418.959 539.9998,416.744 539.9998,414.021 C539.9998,411.299 537.7848,409.084 535.0628,409.084 C532.3398,409.084 530.1248,411.299 530.1248,414.021 C530.1248,416.744 532.3398,418.959 535.0628,418.959 L535.0628,418.959 Z M308.7588,208.097 L375.8938,208.097 L375.8938,157.013 L308.7588,157.013 L308.7588,208.097 Z M305.7588,211.096 L378.8938,211.096 L378.8938,154.012 L305.7588,154.012 L305.7588,211.096 Z M498.6408,261.292 L510.7658,261.292 L510.7658,258.292 L498.6408,258.292 L498.6408,261.292 Z M497.9998,280.797 L510.1248,280.797 L510.1248,277.797 L497.9998,277.797 L497.9998,280.797 Z M550.3608,206.319 L553.3608,206.319 L553.3608,201.319 L550.3608,201.319 L550.3608,206.319 Z M550.3608,179.792 L553.3608,179.792 L553.3608,174.792 L550.3608,174.792 L550.3608,179.792 Z M563.1238,192.072 L568.1238,192.072 L568.1238,189.072 L563.1238,189.072 L563.1238,192.072 Z M400.6278,67.733 L403.6278,67.733 L403.6278,62.75 L400.6278,62.75 L400.6278,67.733 Z M536.5968,192.072 L541.5968,192.072 L541.5968,189.072 L536.5968,189.072 L536.5968,192.072 Z M553.3608,184.408 L550.3608,184.408 L550.3608,193.542 L559.2498,193.542 L559.2498,190.542 L553.3608,190.542 L553.3608,184.408 Z M470.3258,65.792 L562.7498,65.792 L562.7498,19.292 L470.3258,19.292 L470.3258,65.792 Z M467.3258,68.792 L565.7498,68.792 L565.7498,16.292 L467.3258,16.292 L467.3258,68.792 Z M482.8128,253.651 L479.8128,253.651 L479.8128,258.214 L475.2498,258.214 L475.2498,261.214 L479.8128,261.214 L479.8128,265.776 L482.8128,265.776 L482.8128,261.214 L487.3748,261.214 L487.3748,258.214 L482.8128,258.214 L482.8128,253.651 Z M567.1268,427.486 L572.4558,427.486 L572.4558,424.486 L567.1268,424.486 L567.1268,427.486 Z M571.6238,412.084 C572.6928,412.084 573.5618,412.953 573.5618,414.021 C573.5618,415.09 572.6928,415.959 571.6238,415.959 C570.5558,415.959 569.6868,415.09 569.6868,414.021 C569.6868,412.953 570.5558,412.084 571.6238,412.084 L571.6238,412.084 Z M571.6238,418.959 C574.3468,418.959 576.5618,416.744 576.5618,414.021 C576.5618,411.299 574.3468,409.084 571.6238,409.084 C568.9018,409.084 566.6868,411.299 566.6868,414.021 C566.6868,416.744 568.9018,418.959 571.6238,418.959 L571.6238,418.959 Z M391.5838,6.782 C403.3218,6.782 412.8718,16.227 412.8718,27.835 L415.8718,27.835 C415.8718,14.572 404.9768,3.782 391.5838,3.782 C378.1918,3.782 367.2958,14.572 367.2958,27.835 L370.2958,27.835 C370.2958,16.227 379.8458,6.782 391.5838,6.782 L391.5838,6.782 Z M27.8558,194.867 L30.8558,194.867 L30.8558,189.884 L27.8558,189.884 L27.8558,194.867 Z M249.0388,55.958 L272.5388,55.958 L272.5388,48.875 L249.0388,48.875 L249.0388,55.958 Z M249.0388,45.876 L272.5388,45.876 L272.5388,23.209 L249.0388,23.209 L249.0388,45.876 Z M246.0388,58.958 L275.5388,58.958 L275.5388,20.209 L262.2888,20.209 L262.2888,0.087 L259.2888,0.087 L259.2888,20.209 L246.0388,20.209 L246.0388,58.958 Z M532.7338,427.614 L538.0628,427.614 L538.0628,424.614 L532.7338,424.614 L532.7338,427.614 Z M309.8328,0.149 L306.8328,0.149 L306.8328,13.572 L294.8338,13.572 L294.8338,0.087 L291.8338,0.087 L291.8338,13.572 L279.8338,13.572 L279.8338,0.149 L276.8338,0.149 L276.8338,16.572 L309.8328,16.572 L309.8328,0.149 Z M558.5288,427.614 L563.8578,427.614 L563.8578,424.614 L558.5288,424.614 L558.5288,427.614 Z M381.5708,27.824 L384.5708,27.824 C384.5708,24.166 387.5468,21.19 391.2048,21.19 C394.8628,21.19 397.8398,24.166 397.8398,27.824 L400.8398,27.824 C400.8398,22.512 396.5178,18.19 391.2048,18.19 C385.8928,18.19 381.5708,22.512 381.5708,27.824 L381.5708,27.824 Z M405.8978,28.32 L408.8978,28.32 C408.8978,18.656 400.9608,10.794 391.2048,10.794 C381.4488,10.794 373.5128,18.656 373.5128,28.32 L376.5128,28.32 C376.5128,20.31 383.1038,13.794 391.2048,13.794 C399.3068,13.794 405.8978,20.31 405.8978,28.32 L405.8978,28.32 Z M54.8918,194.867 L57.8918,194.867 L57.8918,189.884 L54.8918,189.884 L54.8918,194.867 Z M39.1878,205.945 L47.3548,205.945 L47.3548,197.302 L39.1878,197.302 L39.1878,205.945 Z M47.8548,194.302 L38.6888,194.302 C37.3098,194.302 36.1888,195.423 36.1888,196.802 L36.1888,206.445 C36.1888,207.823 37.3098,208.945 38.6888,208.945 L47.8548,208.945 C49.2338,208.945 50.3548,207.823 50.3548,206.445 L50.3548,196.802 C50.3548,195.423 49.2338,194.302 47.8548,194.302 L47.8548,194.302 Z M541.3308,427.614 L546.6608,427.614 L546.6608,424.614 L541.3308,424.614 L541.3308,427.614 Z M549.9298,427.614 L555.2588,427.614 L555.2588,424.614 L549.9298,424.614 L549.9298,427.614 Z" mask="url(#b)"/>
  </g>
</svg>
