<svg xmlns="http://www.w3.org/2000/svg" viewBox="0 0 374 262" enable-background="new 0 0 374 262"><g><path fill="#fff" d="M55.7 50.3h259.2v198.3h-259.2z"/><path fill="#E0E1E0" d="M315.6 7h-258.79999999999995c-4.4 0-8.8 3.9-8.8 9.2v231c0 5.3 4.5 9.8 8.8 9.8h258.79999999999995c4.4 0 8.4-4.5 8.4-9.8v-231c0-5.3-4-9.2-8.4-9.2zm-2.6 230.6c0 4.6-3.1 8.4-7.2 8.4h-238.60000000000002c-4 0-8.2-3.8-8.2-8.4v-184.6h254v184.6zM307.2 231.8c0 4.3-3.5 7.8-7.8 7.8h-65.4c-4.3 0-7.8-3.5-7.8-7.8v-118.5c0-4.3 3.5-7.8 7.8-7.8h65.5c4.3 0 7.8 3.5 7.8 7.8v118.5z"/><circle fill="#fff" cx="62.5" cy="22.3" r="3.6"/><circle fill="#fff" cx="75" cy="22.3" r="3.6"/><circle fill="#fff" cx="87.4" cy="22.3" r="3.6"/><path fill="#fff" d="M59 31h224v12h-224z"/><path fill="#231F20" d="M76 115h89v7h-89zM76 125h80v8h-80zM76 156h89v8h-89zM76 167h80v7h-80zM76 195h89v7h-89zM76 204h80v9h-80z"/><path fill="#fff" d="M253.7 147.8c3.6 0 6.5 2.8 6.8 6.3.2-3.5 3.2-6.3 6.8-6.3s6.5 2.8 6.8 6.3c.2-3.5 3.2-6.3 6.8-6.3 3.5 0 6.3 2.6 6.7 6 3.4-4.4 5.5-9.9 5.5-15.9 0-14.2-11.5-25.8-25.8-25.8s-25.8 11.5-25.8 25.8c0 6 2.1 11.6 5.6 16 .2-3.4 3.1-6.1 6.6-6.1zM247.9 155.5s10.9 10.3 15.1 14.1l-2.1-5.5-11.6-11.5-1.4 2.9zM286.1 155.5s-10.9 10.3-15.1 14.1l2.1-5.5 11.6-11.5 1.4 2.9zM267.2 168.1c1.8-1.7 4.9-14 4.9-14l1.6 3.5s-4.2 13.8-6.3 15.1l-.1.1h-.2s-.1 0-.1-.1c-2.1-1.3-6.3-15.1-6.3-15.1l1.6-3.5s3.1 12.2 4.9 14c-.2 0-.1.1 0 0zM270 175v6h-1v-6h-4v6h-1v-6h-5v18h16v-18z"/></g><g><circle fill="#FFD23B" cx="197.4" cy="122.9" r="14.8"/><circle fill="#FFD23B" cx="197.4" cy="164" r="14.8"/><circle fill="#FFD23B" cx="197.4" cy="205.8" r="14.8"/><path fill="#231F20" d="M195.4 130.2c-.6 0-1.2-.3-1.6-.9l-5.4-8.1v-.1l3.1-2.1h.1l3.5 5.3h.1l9.4-17.7h.1l3.3 1.7v.1l-11 20.6c-.3.8-.9 1.2-1.6 1.2zM195.4 171.6c-.6 0-1.2-.3-1.6-.9l-5.4-8.1v-.1l3.1-2.1h.1l3.5 5.3h.1l9.4-17.7h.1l3.3 1.7v.1l-11 20.6c-.3.7-.9 1.2-1.6 1.2zM195.4 213c-.6 0-1.2-.3-1.6-.9l-5.4-8.1v-.1l3.1-2.1h.1l3.5 5.3h.1l9.4-17.7h.1l3.3 1.7v.1l-11 20.6c-.3.8-.9 1.2-1.6 1.2z"/></g><g><path fill="#E0E1E0" d="M198 73h34v14h-34z"/><path fill="#59C3EC" d="M76 73h122v14h-122z"/></g><g><path fill="#2FA8E0" d="M298 228.8c0 2.3-1.9 4.2-4.2 4.2h-54.6c-2.3 0-4.2-1.9-4.2-4.2v-21.6c0-2.3 1.9-4.2 4.2-4.2h54.6c2.3 0 4.2 1.9 4.2 4.2v21.6z"/><g fill="#fff"><path d="M246.6 221.7c.6 0 1-.1 1.4-.3.4-.2.5-.5.5-.9 0-.2-.1-.4-.2-.5s-.3-.3-.5-.4c-.2-.1-.5-.2-.8-.3-.3-.1-.7-.2-1.1-.3-.5-.1-.9-.3-1.4-.5-.5-.2-.9-.4-1.3-.7-.4-.3-.7-.7-1-1.1-.3-.4-.4-1-.4-1.6 0-1.2.4-2.1 1.3-2.8.8-.7 2-1.1 3.6-1.1 1 0 1.9.1 2.7.3.8.2 1.5.5 2.1.8l-.6 2.7c-.6-.3-1.3-.6-2.1-.8-.7-.2-1.4-.3-2.1-.3-1.1 0-1.7.4-1.7 1.1 0 .2.1.4.2.5.1.2.3.3.6.4.2.1.5.2.9.3.3.1.7.2 1.1.3.5.1 1 .3 1.4.5.5.2.9.4 1.3.7.4.3.7.7.9 1.1.2.4.3.9.3 1.6 0 .6-.1 1.2-.3 1.7-.2.5-.6.9-1 1.3s-1 .7-1.6.9-1.4.3-2.2.3c-1 0-1.9-.1-2.7-.3s-1.6-.5-2.2-.8l.6-2.7c.6.3 1.3.6 2.1.8.7 0 1.4.1 2.2.1zM253.9 224v-12.7h9.3v2.6h-6.2v2.4h4.9v2.6h-4.9v2.5h6.1v2.6h-9.2zM274.2 211.3h3v12.8h-3.4l-5.4-8.4v8.2h-3v-12.7h3.5l5.3 8.3v-8.2zM291.7 217.6c0 1-.2 1.9-.5 2.7-.3.8-.8 1.5-1.4 2-.6.6-1.4 1-2.3 1.3-.9.3-1.9.5-3.1.5h-4.6v-12.7h4.8c1.1 0 2.1.1 3 .4.9.3 1.6.7 2.2 1.3.6.5 1.1 1.2 1.4 2 .3.7.5 1.5.5 2.5zm-3.3.1c0-1.3-.3-2.3-1-2.9s-1.7-.9-3-.9h-1.3v7.5h1.5c1.2 0 2.1-.3 2.8-.9s1-1.5 1-2.8z"/></g></g></svg>