<svg xmlns="http://www.w3.org/2000/svg" viewBox="0 0 374 262" enable-background="new 0 0 374 262"><g><path fill="#231F20" d="M332 12.3c0-3.5-3.1-5.9-6.6-5.9h-256.4c-3.5 0-7 2.4-7 5.9v155.1h270v-155.1z"/><path fill="#E0E1E0" d="M69 192.4h256.4c3.5 0 6.6-3.8 6.6-7.2v-17.8h-270v17.8c0 3.5 3.6 7.2 7 7.2z"/><path fill="#2FA8E0" d="M72 16.4h250v142h-250z"/><path fill="#E0E1E0" d="M198.5 223.6s-22.3.1-34.5 0c-10.9-.1-10.6-1.3-10.6-1.3.1-1.8 0-2.7 5.2-5.8s5.3-3.8 7.1-8.4c1.8-4.6 2-16.6 2-16.6l27.8-2.9 31 2.9s.2 12 2 16.6c1.8 4.6 1.9 5.3 7.1 8.4s5 4 5.2 5.8c0 0 .3 1.2-10.6 1.3-12.1.1-34.5 0-34.5 0"/><path fill="#fff" d="M89 47.4h216v101h-216z"/><path fill="#FFD23B" d="M198.2 8.8c1 1.3-.5 2.8-1.8 1.8-1-1.3.5-2.8 1.8-1.8z"/><path fill="#1B2025" d="M115 76.4h78v4h-78z"/><path fill="#FFD23B" d="M115 63.4h85v7h-85z"/><path fill="#1B2025" d="M115 83.4h85v4h-85zM115 90.4h85v4h-85zM115 100.4h68v4h-68zM115 107.4h85v4h-85zM115 114.4h85v4h-85zM146 121.4h54v4h-54zM146 128.4h54v4h-54z"/><path fill="#F0F3F6" d="M222.4 122c.2-3.2 1.3-16.9 1.3-22 1.6.7 3.4 1.1 5.2 1 1.9 0 3.7-.6 5.3-1.1v.8c0 4.2 1.1 18.3 1.3 21.4.2 3.2 0 3.8 0 3.8l-.1.1h-13c0-.1-.1-.2-.1-.2s-.1-.7.1-3.8z"/><path fill="#2FA8E0" d="M233.3 84c-3.1-4.3-4.5-6-6.1-6.9-1.5-.9-5.5-.9-9.6 3.4 3.4-11 13.1-19.7 13.1-19.7s.6-.6.3.6c-.2.7-1 8 2.1 12.3 2.8 3.9 6.6 7.3 7.6 12.2-.7.4-4.7 2-7.4-1.9z"/><path fill="#F0F3F6" d="M227.2 77.1c1.6.9 3 2.6 6.1 6.9 2.8 3.9 6.7 2.2 7.5 1.9.1.5.2 1 .2 1.6v2.2c0 6.7-5.4 12-12.1 12-6 0-10.9-3.1-11.9-10.1-.7-3-.3-7.2.8-10.7 4-4.4 7.9-4.7 9.4-3.8zM241.8 110.4s4.1-13 7.9-23h10.5l7.2 22.8.1 6.2h-25.9l.2-6z"/><path fill="#2FA8E0" d="M253.6 77c1.7-3.6 3.1 0 3.1 0l3.6 9.7h-10.5c1.7-5 3.2-8.6 3.8-9.7z"/><path fill="#F0F3F6" d="M275.9 99.2c0 3.4.8 16.2.8 16.2l8.5 5s1.5-1.4.9-3.4-1-4.1-1-5.9c0-1.9-.2-4.9.1-7.2.3-2.3.7-3.8.9-4.1.2-.3 1.9-1.5 1.9-1.5v-13.7l-10.1-24.6c-.1.1-.4.3-.4.6-.1 1.1-1.1 12.5-1.3 16.7-.2 4.3-.3 18.5-.3 21.9zm3-7.9l-.1-8.5.2-.3v-3h2v3l.6.3.3 8.5.7 1 .3 8.9v3.4c0 1-1.3 2-2.6 2-1.2 0-2.4-.6-2.4-1.6v-12.7l1-1z"/><path fill="#231F20" d="M235.6 126.9s0-.5-.5-.5h-12.4c-.5 0-.5.5-.5.5l-.4 19.5h14l-.2-19.5zM268 110.3s.1-4.5-3.3-4.9c-2.1-.3-4.5 1.2-5.3 4.7-.6-2.3-1.8-4.7-4.7-4.7-2.7 0-3.8 2.3-4.4 4.5-.9-3.3-3.6-4.7-5.7-4.4-3.4.4-3.6 4.9-3.6 4.9v36.1h27v-36.2zM288.2 121.7c0-.6-.4-1.5-.8-1.8l-11.9-7.9c-.8-.6-2.4-.1-2.4 1v33.4h15.7l-.6-24.7z"/><path fill="#E0E1E0" d="M310 31.2c0-2.6-2.1-4.8-4.8-4.8h-216.4c-2.6 0-4.8 2.1-4.8 4.8v115.4c0 2.6 2.1 4.8 4.8 4.8h216.4c2.6 0 4.8-2.1 4.8-4.8v-115.4zm-7 109.2c0 2.3-1.1 5-3.6 5h-204.4c-2.4 0-4-2.8-4-5v-91h212v91z"/><path fill="#fff" d="M91 39.4h121v6h-121z"/><circle fill="#fff" cx="92.9" cy="31.8" r="1.9"/><circle fill="#fff" cx="99.4" cy="31.8" r="1.9"/><circle fill="#fff" cx="105.9" cy="31.8" r="1.9"/><circle fill="#231F20" cx="197.3" cy="179.5" r="6.1"/></g><g><path fill="#231F20" d="M298 250c0 3.1-2.1 6.4-5.3 6.4h-29.3c-3.2 0-5.4-3.3-5.4-6.4v-75.1c0-3.1 2.2-4.5 5.4-4.5h29.3c3.2 0 5.3 1.4 5.3 4.5v75.1z"/><path fill="#E0E1E0" d="M282 176.9c0 .3-.2.5-.5.5h-7c-.3 0-.5-.2-.5-.5s.2-.5.5-.5h7c.3 0 .5.2.5.5z"/><path fill="#FFD23B" d="M278.8 173.6c0 .3-.3.6-.6.6s-.6-.3-.6-.6.3-.6.6-.6c.4 0 .6.3.6.6z"/><circle fill="#E0E1E0" cx="278.3" cy="249.2" r="3.1"/></g><g><path fill="#231F20" d="M153 251.2c0 2.9-2.3 5.2-5.2 5.2h-103.6c-2.9 0-5.2-2.3-5.2-5.2v-135.6c0-2.9 2.3-5.2 5.2-5.2h103.6c2.9 0 5.2 2.3 5.2 5.2v135.6z"/><circle fill="#FFD23B" cx="96.2" cy="116.9" r="1"/><circle fill="#E0E1E0" cx="96.2" cy="249.1" r="3.2"/></g><g><path fill="#2A4B9A" d="M160.6 40.8v.2"/><path fill="#fff" d="M261 181.4h34v62h-34zM51 120.4h90v122h-90z"/><path fill="#1B2025" d="M60 138.4h66v3h-66z"/><path fill="#FFD23B" d="M60 128.4h72v5h-72z"/><path fill="#1B2025" d="M60 143.4h72v3h-72zM60 148.4h72v3h-72zM60 158.4h59v3h-59zM60 163.4h72v3h-72zM60 168.4h72v3h-72zM60 173.4h72v3h-72zM60 178.4h72v3h-72zM263 190.4h22v2h-22z"/><path fill="#FFD23B" d="M263 184.4h30v3h-30zM263 186.4h17v3h-17z"/><path fill="#1B2025" d="M263 193.4h30v2h-30zM263 196.4h30v2h-30zM263 199.4h30v2h-30zM263 202.4h30v2h-30zM263 207.4h15v2h-15zM263 210.4h30v2h-30zM263 213.4h30v2h-30zM263 216.4h30v2h-30z"/><path fill="#2A4B9A" d="M108.5 188"/><path fill="#F0F3F6" d="M76.9 228.7c.1-1.8.8-9.9.8-12.9.9.4 2 .6 3 .6 1.1 0 2.2-.4 3.1-.6v.5c0 2.5.7 10.7.8 12.5.1 1.9 0 2.2 0 2.2h-7.699999999999999v-.1s-.1-.4 0-2.2z"/><path fill="#2FA8E0" d="M83.3 206.5c-1.8-2.5-2.6-3.5-3.5-4-.9-.5-3.2-.5-5.6 2 2-6.4 7.6-11.5 7.6-11.5s.3-.3.2.3c-.1.4-.6 4.7 1.3 7.2 1.7 2.3 3.8 4.3 4.4 7.1-.5.2-2.8 1.1-4.4-1.1z"/><path fill="#F0F3F6" d="M87.7 207.6c-.5.2-2.8 1.1-4.4-1.1-1.8-2.5-2.6-3.5-3.5-4-.9-.5-3.2-.6-5.6 1.9-.6 2-.9 4.3-.5 6.1.6 4.1 3.5 6.2 7 6.2 0-.1 7.5.1 7-9.1zM88.4 221.4s2.3-8.4 4.5-13.4h6.1l4.9 13.2-.6 3.2h-15l.1-3z"/><path fill="#2FA8E0" d="M95.2 202.3c1-2.1 1.8 0 1.8 0l2.1 5.7h-6.2c1.1-2.9 2-5 2.3-5.7z"/><path fill="#F0F3F6" d="M108.2 215.4c0 2 .5 9.4.5 9.4l5 2.9s.9-.8.5-2c-.3-1.2-.6-2.4-.6-3.5s-.1-2.9.1-4.2c.2-1.4-.1-2.2 0-2.4.1-.2.4-1 .4-1v-8.1l-4.7-14.2-.2.3c-.1.7-.6 7.3-.7 9.8-.2 2.7-.3 10.9-.3 13zm1.9-5.7l-.1-4.3v-2.1h1v1.9l.4.2.2 4.3.3.5.1 4.5v1.7c0 .5-.9 1-1.5 1s-1.5-.3-1.5-.8v-.6000000000000001l.3-5.8.8-.5z"/><g fill="#1B2025"><path d="M84.6 230.9s0-.5-.3-.5h-7.2c-.3 0-.3.5-.3.5l-.2 12 8.2.1-.2-12.1zM104 221.9s-.2-2.6-2.2-2.9c-1.3-.2-2.8.7-3.2 2.8-.4-1.3-1.1-2.8-2.8-2.8-1.6 0-2.3 1.3-2.6 2.6-.5-2-2-2.7-3.2-2.6-2 .3-2 2.9-2 2.9v21.1h16v-21.1zM115.4 228.1c0-.3-.2-.7-.5-.9l-7.2-4.5c-.5-.3-1.7.1-1.7.7v.1l.4 19.7h9.2l-.2-15.1z"/></g><path fill="#2A4B9A" d="M285.6 220.3"/><path fill="#F0F3F6" d="M269.7 240.7c.1-.9.4-4.9.4-6.5.5.2 1 .3 1.5.3.6 0 1.1-.2 1.6-.3v.2c0 1.2.3 5.4.4 6.3v1.1h-3.8s-.1-.1-.1-1.1z"/><path fill="#2FA8E0" d="M272.9 229.6c-.9-1.3-1.3-1.8-1.8-2-.5-.3-1.6-.3-2.8 1 1-3.2 3.8-5.8 3.8-5.8s.2-.2.1.2c0 .2-.3 2.4.6 3.6.8 1.1 1.9 2.2 2.2 3.6-.1 0-1.3.5-2.1-.6z"/><path fill="#F0F3F6" d="M275.1 230.1c-.2.1-1.4.6-2.2-.6-.9-1.3-1.3-1.8-1.8-2-.5-.3-1.6-.3-2.8.9-.3 1-.4 2.2-.2 3 .3 2.1 1.8 3.1 3.5 3.1 0 .1 3.8.2 3.5-4.4zM275.5 237s1.2-4.2 2.3-6.7h3.1l2.5 6.6-.3 1.5h-7.6v-1.4z"/><path fill="#2FA8E0" d="M278.9 227.5c.5-1.1.9 0 .9 0l1.1 2.9h-3.1c.5-1.5.9-2.6 1.1-2.9z"/><path fill="#F0F3F6" d="M285.4 234c0 1 .2 4.7.2 4.7l2.5 1.5s.4-.4.3-1c-.2-.6-.3-1.2-.3-1.7s-.1-1.4 0-2.1c.1-.7-.3-1.1-.2-1.2l.1-.4v-4l-2.5-7.2s.1.1.1.2c0 .3-.2 3.7-.2 4.9-.1 1.2 0 5.3 0 6.3z"/><g fill="#1B2025"><path d="M273.6 241.8s0-.3-.1-.3h-3.6c-.1 0-.1.3-.1.3l-.1 6.1h4.1l-.2-6.1zM283 237.3s.1-1.3-.9-1.4c-.6-.1-1.3.3-1.5 1.4-.2-.7-.5-1.4-1.4-1.4-.8 0-1.1.7-1.3 1.3-.3-1-1.1-1.4-1.7-1.3-1 .1-1.1 1.4-1.1 1.4v7.6h8v-7.6zM289 240.4c0-.2-.1-.3-.2-.4l-3.8-2.3c-.2-.2-1 0-1 .3l.4 9.9h4.7l-.1-7.5z"/></g></g></svg>