<svg xmlns="http://www.w3.org/2000/svg" viewBox="0 0 480 480" enable-background="new 0 0 480 480">
<linearGradient id="SVGID_1_" gradientUnits="userSpaceOnUse" x1="255.1" y1="220.9" x2="36" y2="431.3" gradientTransform="matrix(4.489700e-11 -1 1 4.489700e-11 -180.6517 256.8072)"><stop offset="0" style="stop-color:#FFFFFF"/><stop offset="0.4283" style="stop-color:#FCFCFC"/><stop offset="0.7146" style="stop-color:#F3F4F4"/><stop offset="0.959" style="stop-color:#E4E5E5"/><stop offset="1" style="stop-color:#E1E2E2"/></linearGradient><polygon fill="url(#SVGID_1_)" points="38.5,10.6 355.7,116.7 146.8,326.1"/><linearGradient id="SVGID_2_" gradientUnits="userSpaceOnUse" x1="226.3" y1="293" x2="169" y2="347.9" gradientTransform="matrix(-0.2056 -1.55 1.0024 1.2 -218.5616 142.766)"><stop offset="0" style="stop-color:#FFFFFF"/><stop offset="0.4283" style="stop-color:#FCFCFC"/><stop offset="0.7146" style="stop-color:#F3F4F4"/><stop offset="0.959" style="stop-color:#E4E5E5"/><stop offset="1" style="stop-color:#E1E2E2"/></linearGradient><polygon fill="url(#SVGID_2_)" points="28.4,146.8 118.4,292.3 72.8,305"/><linearGradient id="SVGID_3_" gradientUnits="userSpaceOnUse" x1="174.9" y1="148.9" x2="316.8" y2="318" gradientTransform="matrix(1 0 0 1 72.1063 56.5446)"><stop offset="0.3657" style="stop-color:#F1F4F7"/><stop offset="1" style="stop-color:#E1E2E2"/></linearGradient><path fill="url(#SVGID_3_)" d="M144.7 326.3l8.6 10.2l7 14l14 23.8l20.7 18.4c0 0 25.4 20.3 25.7 21.1c0.3 0.8 30.2 7.8 30.2 7.8 l37.4 8.6l16 3.4l32.2-5c0 0 13.4-3.9 16.4-5.5c3-1.6 20.5-10.1 20.5-10.1l31.8-16v-9.9l13.1-5.3l8-10.9l17.3-26.5l13.3-22.6 c0 0-3.1-35.9-3.5-40.6c-0.4-4.7 9.8-20.3 9.8-20.3s-4.9-34.5-7.7-35.6c-2.8-1.1-16.1-44.4-16.1-44.4l0.3 0.1 c-5.7-8.3-12.1-16.2-19.5-23.5c-31.4-31.4-73.1-48.7-117.5-48.7c-44.4 0-86.1 17.3-117.5 48.7C139.6 203.1 126.1 268.8 144.7 326.3 L144.7 326.3z M250.1 220.6c21.9-21.9 30.5-21.7 59.1-21.7c28.6 0 34.7-5.8 56.5 16c43.7 43.7 59.8 95.5 16.1 139.2 c-21.9 21.9-50.5 32.8-79.2 32.8c-28.6 0-62.5-18.1-65.8-48.8C230.9 283.3 206.4 264.3 250.1 220.6z"/><path fill="#FFFFFF" d="M315.2 193.6c-59 0.1-106 46.9-106 106.8c0 0 0 1.1 0 1.1h106V193.6z"/><path fill="#F1F4F7" d="M209.4 300.3c0 0 0 0.1 0 0.1C209.4 300.4 209.4 300.4 209.4 300.3C209.4 300.4 209.4 300.3 209.4 300.3z"/><path fill="#F1F4F7" d="M209.2 300.3C209.2 300.3 209.2 300.2 209.2 300.3C209.2 300.3 209.2 300.3 209.2 300.3z"/><path fill="#FFFFFF" d="M209.4 301.5c0.1 58 46.9 105.2 105.9 105.3V301.5H209.4z"/><path fill="#F1F4F7" d="M209.4 300.4L209.4 300.4C209.4 300.4 209.4 300.4 209.4 300.4C209.4 300.4 209.4 300.4 209.4 300.4z"/><path fill="#00ADF2" d="M390.2 223.5c0 0 0.8-1.2 0.8-1.2c-12.3-38.1-16-28.6-75-28.6c0 0-0.8 0-0.8 0v106.8L390.2 223.5z"/><path fill="#F1F4F7" d="M391.8 221.3C391.8 221.3 391.8 221.4 391.8 221.3c0 0.1 0 0.1 0 0.1C391.8 221.4 391.8 221.3 391.8 221.3z "/><path fill="#F1F4F7" d="M392.2 221.3C392.2 221.3 392.2 221.3 392.2 221.3C392.2 221.2 392.2 221.2 392.2 221.3z"/><path fill="#F1F4F7" d="M391.4 221.4l-76.2 79v106.4c0 0 0.3 0 0.4 0C374.6 406.8 481.7 338.9 391.4 221.4z"/><path fill="#F1F4F7" d="M391.8 221.4C391.8 221.4 391.8 221.4 391.8 221.4C391.8 221.4 391.8 221.4 391.8 221.4L391.8 221.4z"/><path fill="#FFD239" d="M315.9 94.2c19.8 0 35.8 16.1 35.8 35.8s-16.1 35.8-35.8 35.8c-19.8 0-35.8-16.1-35.8-35.8 S296.1 94.2 315.9 94.2 M315.9 85.2c-24.8 0-44.9 20.1-44.9 44.9s20.1 44.9 44.9 44.9c24.8 0 44.9-20.1 44.9-44.9 S340.6 85.2 315.9 85.2L315.9 85.2z"/><polygon fill="#1B2025" points="337.2,121.6 330.6,112.5 301.1,112.5 294.2,121.6 294.2,144.7 294.2,145.3 303.2,149.4 303.2,182.5 329.2,182.5 329.2,149 336.1,144.5 337.2,144.5 337.2,121.6"/><path fill="#1B2025" d="M316.4 194.3c57.9 0 105 47.1 105 105s-47.1 105-105 105s-105-47.1-105-105S258.5 194.3 316.4 194.3 M316.4 178.3c-66.8 0-121 54.2-121 121s54.2 121 121 121c66.8 0 121-54.2 121-121S383.3 178.3 316.4 178.3L316.4 178.3z"/><path fill="#1B2025" d="M212 166.1L183 195.1c-1.3 1.3-1.3 3.3 0 4.5l3.5 3.5c1.3 1.3 3.3 1.3 4.5 0l2.5-2.5l14.4 14.4l4-4 l11.2 11.2l16.8-16.8l-11.2-11.2l4-4l-14.4-14.4l1.7-1.7c1.3-1.3 1.3-3.3 0-4.5l-3.5-3.5C215.3 164.8 213.3 164.8 212 166.1z"/><path fill="#1B2025" d="M449.3 195.1l-29.1-29.1c-1.3-1.3-3.3-1.3-4.5 0l-3.5 3.5c-1.3 1.3-1.3 3.3 0 4.5l2.5 2.5L400.3 191l4 4 l-11.2 11.2l16.8 16.8l11.2-11.2l4 4l14.4-14.4l1.7 1.7c1.3 1.3 3.3 1.3 4.5 0l3.5-3.5C450.5 198.4 450.5 196.4 449.3 195.1z"/><circle fill="#1B2025" stroke="#000000" stroke-width="4.2563" stroke-miterlimit="10" cx="316.2" cy="209.5" r="2.4"/><circle fill="#1B2025" stroke="#000000" stroke-width="4.2563" stroke-miterlimit="10" cx="380.2" cy="233.9" r="2.4"/><circle fill="#1B2025" stroke="#000000" stroke-width="4.2563" stroke-miterlimit="10" cx="252.3" cy="233.9" r="2.4"/><circle fill="#1B2025" stroke="#000000" stroke-width="4.2563" stroke-miterlimit="10" cx="382" cy="363.7" r="2.4"/><circle fill="#1B2025" stroke="#000000" stroke-width="4.2563" stroke-miterlimit="10" cx="250.4" cy="363.7" r="2.4"/><circle fill="#1B2025" stroke="#000000" stroke-width="4.2563" stroke-miterlimit="10" cx="406.5" cy="297.9" r="2.4"/><circle fill="#1B2025" stroke="#000000" stroke-width="4.2563" stroke-miterlimit="10" cx="225.9" cy="297.9" r="2.4"/><circle fill="#1B2025" stroke="#000000" stroke-width="4.2563" stroke-miterlimit="10" cx="316.2" cy="390.1" r="2.4"/><polygon fill="#1B2025" points="301.2,310.4 377.6,236.8 305.2,314.2"/><circle fill="#1B2025" cx="315.8" cy="299.9" r="6.3"/><path fill="#E1E2E2" d="M120.3 297.2c0.1-1.9-1.6-4.5-1.9-4.9c-0.3-0.4-10.3-9-10.5-9.4c-0.3-0.5-5-2.5-5-2.5s-11.8 0.3-12.2 0.5 c-0.4 0.2-3.9 2.3-4.7 1.9c-0.7-0.4-4.3 2.7-4.6 3c-0.3 0.3-5.7 7.4-5.8 8.1c0 0-1.5 7-1.6 7.6c-0.1 0.6-1.7 3.4-1.2 3.6 c0.5 0.2 1 3.8 1 3.8s8.5 13.9 8.9 14c0.4 0.2 7 3.7 7.3 4.2c0.3 0.5 8.5 1.4 10.5 1.2c2-0.2 6-2 7-2.9c1-1 5.3-2.3 6.8-3.8 c1.5-1.5 4.7-6.9 4.8-8c0.1-1.1 2.6-8.7 2.7-10S120.2 299.1 120.3 297.2z"/><polygon fill="#E1E2E2" points="114.8,315.3 122.4,309.5 123.3,305 121.9,300.9 119.1,295.6 110.4,307.2"/><path fill="#E1E2E2" d="M90.7 314.2c0 0-5.7 7-6.9 7.8c-1.2 0.9-5.4 0-5.4 0l-4.1-6.7c0 0-1.1-4.8-1.7-6.7 c-0.7-1.9 0.7-10.8 0.7-10.8l3.8-6.4l4.5 2L90.7 314.2z"/><rect x="95" y="316.5" fill="#FFFFFF" width="7.3" height="1.7"/><path fill="#FFFFFF" d="M89.2 295.8v18.9h18.9v-18.9H89.2z M106.3 313H90.9v-15.5h15.5V313z"/><path fill="#FFFFFF" d="M96.4 303.1h-2.6v-2.6h2.6V303.1z M96.4 309.3h-2.6v-2.6h2.6V309.3z"/><path fill="#FFFFFF" d="M103.4 303.1h-2.6v-2.6h2.6V303.1z M103.4 309.3l-2.2 1.6l-0.4-0.7l0.7-0.7l-0.7-0.2v-2.7h2.6V309.3z"/></svg>
