<svg xmlns="http://www.w3.org/2000/svg" viewBox="0 0 480 480" enable-background="new 0 0 480 480">
<polygon fill="#1B2025" points="248.7,387.5 246.3,387.5 168.2,388.6 168.2,456.5 246.5,456.5 248.4,456.5 273.2,456.5 273.2,388.7"/><path fill="#E1E2E2" d="M274.7 386c0-1.6-1.3-3-3-3H169.3c-1.6 0-3 1.3-3 3v68.4c0 1.6 1.3 3 3 3h102.4c1.6 0 3-1.3 3-3V386z M271.3 452.5c0 1.1-0.6 2.3-1.7 2.3h-98c-1.2 0-1.7-1.2-1.7-2.3v-62.3c0-0.4 0.3-0.7 0.7-0.7h100.1c0.4 0 0.7 0.3 0.7 0.7V452.5z"/><text transform="matrix(1 0 0 1 173.6753 419.3721)" fill="#FFFFFF" font-family="'FreightSansBold'" font-size="33.7154">&lt;&gt; &lt;/&gt;</text><path fill="#4DCDF6" d="M429.6 205.7l37.2 17.9c-10 20.5-34.6 29-55.1 19c-20.5-10-29.1-34.6-19.2-55.1c1.3-2.7 2.5-4.6 4.5-7.2 L429.6 205.7z"/><path fill="#E1E2E2" d="M435.5 203.7l14.1-38.8c21.4 7.8 32.5 31.4 24.8 52.9c-0.5 1.4-1 2.6-1.7 4L435.5 203.7z"/><path fill="#F1F4F7" d="M429.8 205.6l-19.4-36.4c10.7-5.7 22.1-6.5 33.5-2.4L429.8 205.6z"/><path fill="#FFD239" d="M429.6 205.7l-32.6-25.4c4.1-5.3 7.8-8.2 13.1-11.1L429.6 205.7z"/><circle fill="none" stroke="#E1E2E2" stroke-width="1.6222" stroke-linecap="round" stroke-miterlimit="10" stroke-dasharray="0,2.699" cx="238.8" cy="239.7" r="100.9"/><path fill="#FFFFFF" d="M367.2 228.5l58.2 0.8c0 0 14.9 11.9 15.2 12.8c0.3 1 0.5 80 0.5 80l-73.4-0.7L367.2 228.5z"/><path fill="#1B2025" d="M427.4 226.1H369c-3 0-5.5 2.5-5.5 5.5v88.7c0 3 2.5 5.5 5.5 5.5h69.7c3 0 5.5-2.5 5.5-5.5v-78.2 c0-1.5-0.6-3-1.7-4l-11.2-10.5C430.2 226.7 428.8 226.1 427.4 226.1z M434.7 321.8h-61.3c-3 0-5.5-2.4-5.5-5.5l0-80.8 c0-3 2.4-5.5 5.5-5.5h47.1c3 0 5.5 2.5 5.5 5.5v4.1c0 3 2.5 5.5 5.5 5.5h3.3c3 0 5.5 2.4 5.5 5.5l0 65.7 C440.2 319.3 437.7 321.8 434.7 321.8z"/><rect x="374.1" y="245.2" fill="#1B2025" width="44.3" height="5.4"/><rect x="374.1" y="255.8" fill="#1B2025" width="44.3" height="5.4"/><rect x="374.1" y="265.7" fill="#1B2025" width="29.9" height="5.4"/><rect x="374.1" y="276" fill="#1B2025" width="29.9" height="5.4"/><rect x="402.6" y="293.4" fill="#1B2025" width="30" height="5.4"/><rect x="402.6" y="302.8" fill="#1B2025" width="30" height="5.4"/><rect x="379.6" y="289.4" fill="#FFD239" width="18.9" height="18.9"/><rect x="408" y="265.7" fill="#FFD239" width="24.6" height="24.6"/><path fill="#1B2025" d="M326.2 165.8c0-2.2-1.6-3.2-3.8-3.2H156.6c-2.2 0-4.3 1-4.3 3.2v98.8h174V165.8z"/><rect x="158.2" y="170.5" fill="#FFFFFF" width="162" height="90"/><path fill="#E1E2E2" d="M152.2 264.5v13.1c0 2.2 2.1 4.9 4.3 4.9h63.8c-0.1 2-0.4 7.5-1.3 9.9c-1.2 3-1.2 3.4-4.6 5.4 c-3.3 2-3.3 2.6-3.3 3.8c0 0-0.2 0.8 6.9 0.8c6.7 0 18.2 0 21.4 0c3.3 0 14.7 0 21.4 0c7.1 0 6.9-0.8 6.9-0.8 c-0.1-1.2 0-1.7-3.3-3.7c-3.3-2-3.4-2.4-4.6-5.4c-0.9-2.4-1.2-7.9-1.3-9.9h63.9c2.2 0 3.8-2.7 3.8-4.9v-13.1H152.2z"/><path fill="#FFD239" d="M240.1 163.5c0.7 0.9-0.3 1.8-1.2 1.2C238.3 163.8 239.3 162.8 240.1 163.5z"/><circle fill="#1B2025" cx="239.6" cy="273.9" r="3.9"/><polygon fill="#F9F9F9" points="320.2,170.5 158.2,260.5 320.2,260.5"/><rect x="227.3" y="247.9" fill="#00ADF2" width="23.7" height="5.6"/><path fill="#00ADF2" d="M208.3 180.8v61.5h61.5v-61.5H208.3z M264.2 236.7h-50.3v-50.3h50.3V236.7z"/><path fill="#00ADF2" d="M231.9 204.4h-8.6v-8.6h8.6V204.4z M231.9 224.4h-8.6v-8.6h8.6V224.4z"/><path fill="#00ADF2" d="M254.8 204.4h-8.6v-8.6h8.6V204.4z M254.8 224.4l-7.2 5.2l-1.4-2.3l2.3-2.2l-2.3-0.7v-8.6h8.6V224.4z"/><polygon fill="#E1E2E2" points="109.2,294.9 109.2,291.5 105.5,291.8"/><polygon fill="#E1E2E2" points="109.2,259 109.2,255.6 105.5,255.9"/><polygon fill="#F1F4F7" points="109.2,255.6 109.2,222.6 105.2,218.8 8.2,218.8 7.8,349 12.2,353.5 109.2,353.5 109.2,294.9 105.7,291.8 109.2,291.8 109.2,258.9 105.7,255.9"/><polygon fill="#FFD239" points="109.2,267.5 106.2,267.5 106.2,290.5 112.2,290.5 112.2,270.5 109.2,270.5"/><polygon fill="#F1F4F7" points="109.2,270.5 113.1,270.5 109.2,266.1"/><rect x="106.2" y="229.5" fill="#1B2025" width="6" height="25"/><path fill="none" d="M6.6 237.6c0.4 0.2 0.8 0.4 1.2 0.5v-0.4C7.6 237.8 7.2 237.8 6.6 237.6z"/><path fill="none" d="M11.7 328.1c0 0 0.1 0.1 0.1 0.1l0 0"/><polygon fill="none" points="11.4,223 11.4,223 11.4,223"/><path fill="none" d="M6.6 226.9c0.4 0.2 0.8 0.4 1.2 0.5V227C7.6 227 7.2 227 6.6 226.9z"/><path fill="#4DCDF6" d="M9.2 227L9.2 227C9.2 227 9.2 227 9.2 227z"/><path fill="#4DCDF6" d="M9.2 237.7L9.2 237.7C9.2 237.8 9.2 237.8 9.2 237.7z"/><path fill="#00ADF2" d="M11.9 328.2c0.1 0.1 0.2 0.3 0.1 0.5l0 0c-0.1 0.3-0.5 0.5-0.8 0.3c-0.7-0.3-1.2-0.6-2.3-0.7 c-0.1 0 0.3 0 0.3 0v4.6v0.6v0.9v0.7v2.4c0 0-0.4 0-0.2 0c1.5 0.1 2.4 0.8 3 1.2c0.2 0.1 0.1 0.4 0.1 0.7l-0.1 0 c-0.1 0.3-0.5 0.5-0.8 0.3c-0.7-0.3-1.2-0.6-2.3-0.7c-0.1 0 0.3 0 0.3 0v4.7v0.5v1v0.6v3.8h97v-131h-97v2.2c0 0-0.4 0-0.2 0 c1.5 0.1 2.4 0.8 3 1.2c0.2 0.1 0.1 0.4 0.1 0.7l-0.1 0.3c-0.1 0.3-0.4 0.7-0.6 0.7h0h0c-0.1 0-0.2-0.3-0.2-0.3 c-0.7-0.3-1.2-0.8-2.3-0.8c-0.1 0 0.3-0.1 0.3-0.1v4.7c0 0 0 0 0 0v0.4v1v0.5v2.6c0 0-0.4 0-0.2 0c1.5 0.1 2.4 0.8 3 1.2 c0.2 0.1 0.1 0.4 0.1 0.7l-0.1 0c-0.1 0.3-0.5 0.5-0.8 0.3c-0.7-0.3-1.2-0.6-2.3-0.7c-0.1 0 0.3 0 0.3 0v4.6v0.1c0 0 0 0 0 0v0.4v1 v0.6v2.5c0 0-0.4 0-0.2 0c1.5 0.1 2.4 0.8 3 1.2c0.2 0.1 0.1 0.4 0.1 0.7l-0.1 0c-0.1 0.3-0.5 0.5-0.8 0.3 c-0.7-0.3-1.2-0.6-2.3-0.7c-0.1 0 0.3 0 0.3 0v4.6v0.5v1v0.6v2.5c0 0-0.4 0-0.2 0c1.5 0.1 2.4 0.8 3 1.2c0.2 0.1 0.1 0.4 0.1 0.7 l-0.1 0c-0.1 0.3-0.5 0.5-0.8 0.3c-0.7-0.3-1.2-0.6-2.3-0.7c-0.1 0 0.3 0 0.3 0v4.6v0.5v1v0.6v2.4c0 0-0.6 0-0.6 0c0.1 0-0.1 0 0 0 c1.5 0.1 2.6 0.8 3.2 1.2c0.2 0.1 0.2 0.4 0.2 0.7l0 0c-0.1 0.3-0.5 0.5-0.8 0.3c-0.7-0.3-1.2-0.6-2.3-0.7c-0.1 0 0.3 0 0.3 0v4.7 v0.5v1v0.5v2.5c0 0-0.4 0-0.2 0c1.5 0.1 2.4 0.8 3 1.2c0.2 0.1 0.1 0.4 0.1 0.7l-0.1 0c-0.1 0.3-0.5 0.5-0.8 0.3 c-0.7-0.3-1.2-0.6-2.3-0.7c-0.1 0 0.3 0 0.3 0v4.7v0.5v1v0.6v1.6c0 0-0.4 0-0.2 0c1.5 0.1 2.4 0.8 3 1.2c0.2 0.1 0.1 0.4 0.1 0.7 l-0.1 0c-0.1 0.3-0.5 0.5-0.8 0.3c-0.7-0.3-1.2-0.6-2.3-0.7c-0.1 0 0.3 0 0.3 0v4.6v0.5v0.9v0.6v2.5c0 0-0.4 0-0.2 0 c1.5 0.1 2.4 0.8 3 1.2c0.2 0.1 0.1 0.4 0.1 0.7l-0.1 0c-0.1 0.3-0.5 0.5-0.8 0.3c-0.7-0.3-1.2-0.6-2.3-0.7c-0.1 0 0.3 0 0.3 0v4.6 v0.5v0.9v0.6v2.6c0 0-1.4 0-1.4 0c0.2 0 0.3-0.1 0.5-0.1c1.5 0.1 2.8 0.9 3.4 1.3c0.2 0.1 0.3 0.8 0.3 0.8h0 c-0.1 0-0.5 0.3-0.8 0.2c-0.7-0.3-1.2-0.7-2.3-0.7c-0.1 0 0.3-0.1 0.3-0.1v4.7v0.5v1v0.5v2.5c0 0-0.4 0-0.2 0 c1.5 0.1 2.4 0.8 3 1.2c0.2 0.1 0.1 0.4 0.1 0.7l-0.1 0c-0.1 0.3-0.5 0.5-0.8 0.3c-0.7-0.3-1.2-0.6-2.3-0.7c-0.1 0 0.3 0 0.3 0v4.7 v0.5v1v0.6v2.6c0 0-0.4 0-0.2 0c1.5 0.1 2.4 0.8 3 1.2C12.1 328.1 11.9 328.1 11.9 328.2"/><circle fill="#1B2025" cx="11.6" cy="222.5" r="2.1"/><circle fill="#1B2025" cx="11.6" cy="233.2" r="2.1"/><circle fill="#1B2025" cx="11.6" cy="243.9" r="2.1"/><circle fill="#1B2025" cx="11.6" cy="254.6" r="2.1"/><circle fill="#1B2025" cx="11.6" cy="265.3" r="2.1"/><circle fill="#1B2025" cx="11.6" cy="276" r="2.1"/><circle fill="#1B2025" cx="11.6" cy="285.7" r="2.1"/><circle fill="#1B2025" cx="11.6" cy="296.4" r="2.1"/><circle fill="#1B2025" cx="11.6" cy="307.1" r="2.1"/><circle fill="#1B2025" cx="11.6" cy="317.8" r="2.1"/><circle fill="#1B2025" cx="11.6" cy="328.5" r="2.1"/><circle fill="#1B2025" cx="11.6" cy="339.2" r="2.1"/><path fill="none" d="M6.3 245.5c-0.4 1.7-0.1 3 2.9 3.4v-0.5v-4.6C6.2 243.8 6.6 244.2 6.3 245.5z"/><path fill="none" d="M6.3 298c-0.4 1.7-0.1 3 2.9 3.4v-0.5v-4.6C6.2 296.3 6.6 296.8 6.3 298z"/><path fill="none" d="M6.3 256.2c-0.4 1.7-0.1 3 2.9 3.4v-0.5v-4.6C6.2 254.5 6.6 254.9 6.3 256.2z"/><path fill="none" d="M6.3 287.3c-0.4 1.7-0.1 3 2.9 3.4v-0.5v-4.6C6.2 285.6 6.6 286.1 6.3 287.3z"/><path fill="none" d="M6.3 308.6c-0.4 1.7-0.1 3 2.9 3.4v-0.5v-4.7C6.2 306.9 6.6 307.4 6.3 308.6z"/><path fill="none" d="M6.3 330.1c-0.4 1.7-0.1 3 2.9 3.4V333v-4.6C6.2 328.4 6.6 328.9 6.3 330.1z"/><path fill="none" d="M6.3 277.5c-0.4 1.7-0.1 3 2.9 3.4v-0.5v-4.7C6.2 275.8 6.6 276.3 6.3 277.5z"/><path fill="none" d="M6.3 266.8c-0.4 1.7-0.1 3 2.9 3.4v-0.5v-4.7C6.2 265.1 6.6 265.6 6.3 266.8z"/><path fill="none" d="M6.3 319.3c-0.4 1.7-0.1 3 2.9 3.4v-0.5v-4.7C6.2 317.7 6.6 318.1 6.3 319.3z"/><path fill="none" d="M6.3 340.8c-0.4 1.7-0.1 3 2.9 3.4v-0.5V339C6.2 339.1 6.6 339.5 6.3 340.8z"/><path fill="none" d="M5.6 224c-0.3 1.2 1.1 2.2 2.1 2.9c0.5 0.1 1.5 0.2 1.5 0.2v0v-4.7C6.2 222.3 5.9 222.7 5.6 224z"/><path fill="#E1E2E2" d="M11.7 221.9c-0.6-0.4-1.9-1-3.4-1.2c-0.2 0-0.3 0-0.5 0c-1.1 0-2.3 0.3-3.3 1.1c-3.2 2.7 1.1 6.5 4 7.1 c0 0 0.8 0 0.8 0v-0.5v-1c0-0.1-1.5-0.3-1.9-0.5c-1.1-0.6-2.4-1.7-2.1-2.9c0.3-1.2 1.4-1.7 2.8-1.7c0.1 0 0.2 0 0.3 0 c1.1 0 2.2 0.6 2.9 0.9c0.1 0 0.1 0.3 0.2 0.3c0 0 0 0 0 0c0.2 0 0.5-0.4 0.6-0.7l0-0.2C12 222.5 11.9 222 11.7 221.9z"/><path fill="none" d="M5.6 234.7c-0.3 1.2 1.1 2.2 2.1 2.9c0.5 0.1 1.5 0.2 1.5 0.2v0v-0.1V233C6.2 233.1 5.9 233.5 5.6 234.7z"/><path fill="#E1E2E2" d="M11.3 232.7c-0.6-0.4-1.7-1-3.2-1.2c-0.2 0-0.2 0-0.4 0c-1.1 0-2.3 0.3-3.3 1.1c-3.2 2.7 1.2 6.5 4 7.1 c0 0 0.8 0 0.8 0v-0.6v-1c0-0.1-1.5-0.3-1.9-0.5c-1.1-0.6-2.4-1.7-2.1-2.9c0.3-1.2 1.4-1.7 2.8-1.7c0.1 0 0.2 0 0.3 0 c1.1 0 1.9 0.3 2.6 0.7c0.3 0.2 0.4 0 0.4-0.3v0C11.2 233.1 11.6 232.8 11.3 232.7z"/><path fill="#E1E2E2" d="M11.7 243.4c-0.6-0.4-1.9-1-3.4-1.2c-0.2 0-0.3 0-0.5 0c-1.1 0-2.3 0.3-3.3 1.1c-3.2 2.7 1.1 6.5 4 7.1 c0 0 0.8 0 0.8 0v-0.6v-1c-3-0.4-4.1-1.7-3.6-3.4c0.3-1.2 1.3-1.7 2.6-1.7c0.1 0 0.1 0 0.2 0c1.1 0 2.2 0.3 2.9 0.7 c0.3 0.2 0.6 0 0.7-0.3l0 0C12.1 243.8 11.9 243.5 11.7 243.4z"/><path fill="#E1E2E2" d="M11.7 254.1c-0.6-0.4-1.9-1-3.4-1.2c-0.2 0-0.3 0-0.5 0c-1.1 0-2.3 0.3-3.3 1.1c-3.2 2.7 1.1 6.5 4 7.1 c0 0 0.8 0 0.8 0v-0.6v-1c-3-0.4-4.1-1.7-3.6-3.4c0.3-1.2 1.3-1.7 2.6-1.7c0.1 0 0.1 0 0.2 0c1.1 0 2.2 0.3 2.9 0.7 c0.3 0.2 0.6 0 0.7-0.3l0 0C12.1 254.5 11.9 254.2 11.7 254.1z"/><path fill="#E1E2E2" d="M11.7 264.7c-0.6-0.4-1.9-1-3.4-1.2c-0.1 0-0.3 0-0.4 0c-1.1 0-2.4 0.3-3.4 1.1c-3.2 2.7 1.1 6.5 4 7.1 c0 0 0.8 0 0.8 0v-0.5v-1c-3-0.4-4.1-1.7-3.6-3.4c0.3-1.2 1.3-1.7 2.6-1.7c0.1 0 0.1 0 0.2 0c1.1 0 2.2 0.3 2.9 0.7 c0.3 0.2 0.6 0 0.7-0.3l0 0C12.1 265.1 11.9 264.9 11.7 264.7z"/><path fill="#E1E2E2" d="M11.7 275.5c-0.6-0.4-1.9-1-3.4-1.2c-0.2 0-0.3 0-0.5 0c-1.1 0-2.3 0.3-3.3 1.1c-3.2 2.7 1.1 6.5 4 7.1 c0 0 0.8 0 0.8 0v-0.6v-1c-3-0.4-4.1-1.7-3.6-3.4c0.3-1.2 1.3-1.7 2.6-1.7c0.1 0 0.1 0 0.2 0c1.1 0 2.2 0.3 2.9 0.7 c0.3 0.2 0.6 0 0.7-0.3l0 0C12.1 275.9 11.9 275.6 11.7 275.5z"/><path fill="#E1E2E2" d="M11.7 285.2c-0.6-0.4-1.9-1-3.4-1.2c-0.2 0-0.3 0-0.5 0c-1.1 0-2.3 0.3-3.3 1.1c-3.2 2.7 1.1 6.5 4 7.1 c0 0 0.8 0 0.8 0v-0.6v-0.9c-3-0.4-4.1-1.7-3.6-3.4c0.3-1.2 1.3-1.7 2.6-1.7c0.1 0 0.1 0 0.2 0c1.1 0 2.2 0.3 2.9 0.7 c0.3 0.2 0.6 0 0.7-0.3l0 0C12.1 285.6 11.9 285.4 11.7 285.2z"/><path fill="#E1E2E2" d="M11.7 295.9c-0.6-0.4-1.9-1-3.4-1.2c-0.2 0-0.3 0-0.5 0c-1.1 0-2.3 0.3-3.3 1.1c-3.2 2.7 1.1 6.5 4 7.1 c0 0 0.8 0 0.8 0v-0.6v-0.9c-3-0.4-4.1-1.7-3.6-3.4c0.3-1.2 1.3-1.7 2.6-1.7c0.1 0 0.1 0 0.2 0c1.1 0 2.2 0.3 2.9 0.7 c0.3 0.2 0.6 0 0.7-0.3l0 0C12.1 296.3 11.9 296.1 11.7 295.9z"/><path fill="#E1E2E2" d="M11.7 306.5c-0.6-0.4-1.9-1-3.4-1.2c-0.2 0-0.3 0-0.5 0c-1.1 0-2.3 0.3-3.3 1.1c-3.2 2.7 1.1 6.5 4 7.1 c0 0 0.8 0 0.8 0v-0.5v-1c-3-0.4-4.1-1.7-3.6-3.4c0.3-1.2 1.3-1.7 2.6-1.7c0.1 0 0.1 0 0.2 0c1.1 0 2.2 0.3 2.9 0.7 c0.3 0.2 0.6 0 0.7-0.3l0 0C12.1 306.9 11.9 306.7 11.7 306.5z"/><path fill="#E1E2E2" d="M11.7 317.3c-0.6-0.4-1.9-1-3.4-1.2c-0.2 0-0.3 0-0.5 0c-1.1 0-2.3 0.3-3.3 1.1c-3.2 2.7 1.1 6.5 4 7.1 c0 0 0.8 0 0.8 0v-0.6v-1c-3-0.4-4.1-1.7-3.6-3.4c0.3-1.2 1.3-1.7 2.6-1.7c0.1 0 0.1 0 0.2 0c1.1 0 2.2 0.3 2.9 0.7 c0.3 0.2 0.6 0 0.7-0.3l0 0C12.1 317.7 11.9 317.4 11.7 317.3z"/><path fill="#E1E2E2" d="M11.9 328.2c0 0-0.1-0.1-0.1-0.1c0 0 0 0 0 0c-0.6-0.4-1.9-1-3.4-1.2c-0.2 0-0.3 0-0.5 0 c-1.1 0-2.3 0.3-3.3 1.1c-3.2 2.7 1.1 6.5 4 7.1c0 0 0.8 0 0.8 0v-0.7v-0.9c-3-0.4-4.1-1.7-3.6-3.4c0.3-1.2 1.3-1.7 2.6-1.7 c0.1 0 0.1 0 0.2 0c1.1 0 2.2 0.3 2.9 0.7c0.3 0.2 0.6 0 0.7-0.3l0 0C12 328.5 12 328.3 11.9 328.2z"/><path fill="#E1E2E2" d="M11.7 338.7c-0.6-0.4-1.9-1-3.4-1.2c-0.2 0-0.3 0-0.5 0c-1.1 0-2.3 0.3-3.3 1.1c-3.2 2.7 1.1 6.5 4 7.1 c0 0 0.8 0 0.8 0v-0.6v-1c-3-0.4-4.1-1.7-3.6-3.4c0.3-1.2 1.3-1.7 2.6-1.7c0.1 0 0.1 0 0.2 0c1.1 0 2.2 0.3 2.9 0.7 c0.3 0.2 0.6 0 0.7-0.3l0 0C12.1 339.1 11.9 338.8 11.7 338.7z"/><rect x="51.2" y="274.9" fill="#FFFFFF" width="11.1" height="2.6"/><path fill="#FFFFFF" d="M42.3 243.5v28.8h28.8v-28.8H42.3z M68.5 269.7H44.9v-23.6h23.6V269.7z"/><path fill="#FFFFFF" d="M53.4 254.6h-4v-4h4V254.6z M53.4 264h-4v-4h4V264z"/><path fill="#FFFFFF" d="M64.1 254.6h-4v-4h4V254.6z M64.1 264l-3.3 2.4l-0.7-1.1l1.1-1l-1.1-0.3v-4h4V264z"/><path fill="#E1E2E2" d="M163.8 22.5h-66H33.1c-2.2 0-3.9 2.6-3.9 5.3v116.6c0 2.7 1.7 5.1 3.9 5.1h64.7h66c2.2 0 4.4-2.4 4.4-5.1 V27.8C168.2 25.1 166 22.5 163.8 22.5z M162.2 139.6c0 2.3-1.3 4-3.4 4h-61H38.4c-2 0-3.2-1.7-3.2-4v-92h62.6h64.4V139.6z"/><path fill="#E1E2E2" d="M159.6 136.6c0 2.2-1.8 3.9-3.9 3.9h-33.1c-2.2 0-3.9-1.8-3.9-3.9V76.8c0-2.2 1.8-3.9 3.9-3.9h33.1 c2.2 0 3.9 1.8 3.9 3.9V136.6z"/><circle fill="#FFFFFF" cx="36" cy="30.9" r="1.8"/><circle fill="#FFFFFF" cx="42.3" cy="30.9" r="1.8"/><circle fill="#FFFFFF" cx="48.6" cy="30.9" r="1.8"/><rect x="35.2" y="34.5" fill="#FFFFFF" width="111" height="7"/><circle fill="#FFD239" cx="76.1" cy="106.6" r="28.3"/><path fill="#1B2025" d="M76 123.4c-1.4 0-2.6-0.7-3.4-1.8l-11.5-17.2c0-0.1 0-0.1 0-0.2l6.6-4.4c0.1 0 0.1 0 0.2 0l7.6 11.4 c0.1 0.1 0.2 0.1 0.2 0l20.1-37.7c0-0.1 0.1-0.1 0.2 0l7 3.7c0.1 0 0.1 0.1 0 0.2l-23.4 43.9C78.9 122.5 77.6 123.4 76 123.4 C76 123.4 76 123.4 76 123.4z"/><rect x="132.2" y="55.5" fill="#E1E2E2" width="22" height="5"/><rect x="43.2" y="55.5" fill="#4DCDF6" width="89" height="5"/><path fill="#00ADF2" d="M157.2 134.4c0 1.2-0.9 2.1-2.1 2.1h-28.8c-1.2 0-2.1-0.9-2.1-2.1v-9.8c0-1.2 0.9-2.1 2.1-2.1h28.8 c1.2 0 2.1 0.9 2.1 2.1V134.4z"/><path fill="#FFFFFF" d="M129 131.5c0.3 0 0.5-0.1 0.7-0.2c0.2-0.1 0.3-0.3 0.3-0.5c0-0.1 0-0.2-0.1-0.3c-0.1-0.1-0.1-0.1-0.3-0.2 c-0.1-0.1-0.2-0.1-0.4-0.2c-0.2-0.1-0.4-0.1-0.6-0.2c-0.2-0.1-0.5-0.1-0.7-0.2c-0.2-0.1-0.5-0.2-0.7-0.4c-0.2-0.1-0.4-0.3-0.5-0.6 c-0.1-0.2-0.2-0.5-0.2-0.8c0-0.6 0.2-1.1 0.6-1.4c0.4-0.4 1-0.5 1.8-0.5c0.5 0 1 0.1 1.4 0.2c0.4 0.1 0.7 0.2 1.1 0.4l-0.3 1.3 c-0.3-0.2-0.7-0.3-1-0.4c-0.4-0.1-0.7-0.2-1-0.2c-0.6 0-0.8 0.2-0.8 0.5c0 0.1 0 0.2 0.1 0.3c0.1 0.1 0.2 0.1 0.3 0.2 c0.1 0.1 0.3 0.1 0.4 0.2c0.2 0.1 0.3 0.1 0.5 0.2c0.2 0.1 0.5 0.2 0.7 0.2c0.2 0.1 0.5 0.2 0.6 0.4c0.2 0.1 0.3 0.3 0.5 0.5 c0.1 0.2 0.2 0.5 0.2 0.8c0 0.3-0.1 0.6-0.2 0.8c-0.1 0.3-0.3 0.5-0.5 0.7c-0.2 0.2-0.5 0.3-0.8 0.4c-0.3 0.1-0.7 0.2-1.1 0.2 c-0.5 0-0.9-0.1-1.4-0.2s-0.8-0.2-1.1-0.4l0.3-1.4c0.3 0.2 0.7 0.3 1 0.4C128.2 131.5 128.6 131.5 129 131.5z"/><path fill="#FFFFFF" d="M132.6 132.7v-6.4h4.7v1.3h-3.1v1.2h2.5v1.3h-2.5v1.3h3.1v1.3H132.6z"/><path fill="#FFFFFF" d="M142.9 126.3h1.5v6.5h-1.7l-2.7-4.2v4.2h-1.5v-6.4h1.8l2.7 4.2V126.3z"/><path fill="#FFFFFF" d="M151.7 129.5c0 0.5-0.1 0.9-0.2 1.3c-0.2 0.4-0.4 0.7-0.7 1c-0.3 0.3-0.7 0.5-1.1 0.7 c-0.5 0.2-1 0.2-1.6 0.2h-2.3v-6.4h2.4c0.6 0 1.1 0.1 1.5 0.2c0.4 0.2 0.8 0.4 1.1 0.6c0.3 0.3 0.5 0.6 0.7 1 C151.6 128.5 151.7 129 151.7 129.5z M150.1 129.5c0-0.7-0.2-1.1-0.5-1.5c-0.3-0.3-0.8-0.5-1.5-0.5h-0.7v3.8h0.8 c0.6 0 1.1-0.2 1.4-0.5S150.1 130.2 150.1 129.5z"/><path fill="#FFFFFF" d="M132.5 94.3c1.8 0 3.3 1.4 3.4 3.2c0.1-1.8 1.6-3.2 3.4-3.2c1.8 0 3.3 1.4 3.4 3.2 c0.1-1.8 1.6-3.2 3.4-3.2c1.8 0 3.2 1.3 3.4 3c1.7-2.2 2.8-5 2.8-8c0-7.2-5.8-13-13-13s-13 5.8-13 13c0 3.1 1.1 5.9 2.8 8.1 C129.3 95.6 130.8 94.3 132.5 94.3z"/><path fill="#FFFFFF" d="M129.6 98.1c0 0 5.5 5.2 7.6 7.1l-1.1-2.8l-5.9-5.8L129.6 98.1z"/><path fill="#FFFFFF" d="M148.9 98.1c0 0-5.5 5.2-7.6 7.1l1.1-2.8l5.9-5.8L148.9 98.1z"/><path fill="#FFFFFF" d="M139.4 104.5c0.9-0.8 2.4-7.1 2.4-7.1l0.8 1.8c0 0-2.1 7-3.2 7.6c0 0 0 0-0.1 0c0 0 0 0-0.1 0 c0 0 0 0-0.1 0c-1.1-0.7-3.2-7.6-3.2-7.6l0.8-1.8C136.8 97.4 138.4 103.6 139.4 104.5C139.3 104.5 139.3 104.5 139.4 104.5z"/><polygon fill="#FFFFFF" points="140.2,107.5 140.2,111 140.2,111 140.2,107.5 134.2,107.5 134.2,111.3 134.2,111.3 134.2,107.5 134.2,107.5 134.2,117.5 144.2,117.5 144.2,107.5"/><rect x="293.2" y="81.5" fill="#E1E2E2" width="18" height="18"/><rect x="293.2" y="42.5" fill="#FFD239" width="18" height="16"/><rect x="293.2" y="118.5" fill="#4DCDF6" width="18" height="18"/><rect x="330.2" y="42.5" fill="#00ADF2" width="17" height="16"/><rect x="370.2" y="42.5" fill="#4DCDF6" width="18" height="16"/><rect x="330.2" y="81.5" fill="#00ADF2" width="17" height="18"/><rect x="370.2" y="118.5" fill="#FFD239" width="18" height="18"/><rect x="370.2" y="81.5" fill="#00ADF2" width="18" height="18"/><rect x="330.2" y="118.5" fill="#E1E2E2" width="17" height="18"/><line fill="#E1E2E2" stroke="#1B2025" stroke-miterlimit="10" x1="301.7" y1="65.5" x2="301.7" y2="77.5"/><line fill="#E1E2E2" stroke="#1B2025" stroke-miterlimit="10" x1="338.7" y1="65.5" x2="338.7" y2="77.5"/><line fill="#E1E2E2" stroke="#1B2025" stroke-miterlimit="10" x1="375.7" y1="65.5" x2="375.7" y2="77.5"/><line fill="#E1E2E2" stroke="#1B2025" stroke-miterlimit="10" x1="301.7" y1="101.5" x2="301.7" y2="114.5"/><line fill="#E1E2E2" stroke="#1B2025" stroke-miterlimit="10" x1="338.7" y1="101.5" x2="338.7" y2="114.5"/><line fill="#E1E2E2" stroke="#1B2025" stroke-miterlimit="10" x1="375.7" y1="101.5" x2="375.7" y2="114.5"/><line fill="#E1E2E2" stroke="#1B2025" stroke-miterlimit="10" x1="316.2" y1="53" x2="328.2" y2="53"/><line fill="#E1E2E2" stroke="#1B2025" stroke-miterlimit="10" x1="353.2" y1="53" x2="366.2" y2="53"/><line fill="#E1E2E2" stroke="#1B2025" stroke-miterlimit="10" x1="316.2" y1="92" x2="328.2" y2="92"/><line fill="#E1E2E2" stroke="#1B2025" stroke-miterlimit="10" x1="316.2" y1="128" x2="328.2" y2="128"/><line fill="#E1E2E2" stroke="#1B2025" stroke-miterlimit="10" x1="353.2" y1="92" x2="366.2" y2="92"/><line fill="#E1E2E2" stroke="#1B2025" stroke-miterlimit="10" x1="353.2" y1="128" x2="366.2" y2="128"/><path fill="#0000FF" d="M330.5 336.7C330.5 336.7 330.5 336.7 330.5 336.7"/><path fill="#FFFFFF" d="M260.7 426.8c0.3-4.1 1.7-21.8 1.7-28.5c2 1 4.4 1.4 6.7 1.4c2.5 0 4.8-0.8 6.9-1.4l0 1.1 c0 5.4 1.4 23.6 1.7 27.7c0.3 4.1 0 4.9 0 4.9s0 0-0.1 0.1l-16.8 0c-0.1-0.1-0.1-0.2-0.1-0.2S260.4 430.9 260.7 426.8z"/><path fill="#00ADF2" d="M274.8 377.7c-4-5.6-5.8-7.7-7.8-8.9c-2-1.2-7.1-1.1-12.4 4.3c4.4-14.2 16.9-25.4 16.9-25.4 s0.7-0.8 0.4 0.7c-0.2 0.9-1.3 10.4 2.8 15.9c3.7 5.1 8.5 9.5 9.8 15.8C283.4 380.6 278.3 382.7 274.8 377.7z"/><path fill="#FFFFFF" d="M266.9 368.7c2 1.2 3.8 3.3 7.8 8.9c3.6 5 8.4 2.9 9.4 2.4c0.1 0.7 0 1.3 0 2v0c0 0.3 0.2 0.7 0.2 1 c0 0.3 0.1 0.6 0.1 0.8c0 0.3 0.1 0.6 0.1 0.8c0 8.7-7 15.2-15.6 15.2c-7.7 0-14.2-4.4-15.4-13.4h0c-0.9-5-0.4-9 1-13.5 C259.9 367.5 264.9 367.5 266.9 368.7z"/><path fill="#FFFFFF" d="M285.8 411c0 0 5.4-16.4 10.3-29.4h13.6l9.3 29.3l0.2 7.7h-33.5L285.8 411z"/><path fill="#00ADF2" d="M301 368.5c2.1-4.7 4 0 4 0l4.7 12.6l-13.6 0C298.4 374.7 300.3 370 301 368.5z"/><path fill="#1B2025" d="M277.7 432.2c0 0 0-0.7-0.6-0.7h-16c-0.6 0-0.6 0.7-0.6 0.7l-0.5 25.3h18.1L277.7 432.2z"/><path fill="#1B2025" d="M320.2 411.7c0 0-0.2-5.8-4.6-6.4c-2.8-0.4-6 1.5-7.1 6.1c-0.8-3-2.5-6.1-6.1-6.1c-3.5 0-5 2.9-5.7 5.8 c-1.1-4.3-4.9-6.1-7.6-5.7c-4.4 0.6-4.9 6.4-4.9 6.4v45.8h36V411.7z"/></svg>
