<svg width="1440" height="451" viewBox="0 0 1440 451" xmlns="http://www.w3.org/2000/svg" xmlns:xlink="http://www.w3.org/1999/xlink"><title>home-testimonios-top-pattern</title><defs><path id="a" d="M626.535 76.404l17.898 29.92-18.685 27.07-17.768-26.388 18.555-30.602"/><mask id="f" x="0" y="0" width="36.452" height="56.99" fill="#fff"><use xlink:href="#a"/></mask><path id="b" d="M724.853 246.815h20v20h-20z"/><mask id="g" x="0" y="0" width="20" height="20" fill="#fff"><use xlink:href="#b"/></mask><path id="c" d="M1259.266 61.672l17.898 29.92-18.685 27.07-17.768-26.387 18.555-30.603"/><mask id="h" x="0" y="0" width="36.452" height="56.99" fill="#fff"><use xlink:href="#c"/></mask><path id="d" d="M1624.266 311.672l17.898 29.92-18.685 27.07-17.768-26.387 18.555-30.603"/><mask id="i" x="0" y="0" width="36.452" height="56.99" fill="#fff"><use xlink:href="#d"/></mask><path id="e" d="M1492.711 42.424h116.921V74.23h-116.921z"/><mask id="j" x="0" y="0" width="116.921" height="31.806" fill="#fff"><use xlink:href="#e"/></mask></defs><g transform="translate(-265)" fill="none" fill-rule="evenodd"><path fill="#FDFDFD" d="M.711 2.672h1802v448H.711z"/><path stroke="#B5B5B5" stroke-width="5" d="M938.342 222.635h6.404V211.08h-6.404z"/><path d="M231.02 1.14s-1.424 25.38 27.63 27.074c29.054 1.696 89.671 0 89.671 0s20.724 1.323 20.724 29.012 8.232 47.546 38.865 47.546h196.403" stroke="#DDD" stroke-width="5"/><use stroke="#29ABE1" mask="url(#f)" stroke-width="10" transform="rotate(90 626.206 104.899)" xlink:href="#a"/><path d="M558.711 406.672l159.536.042" stroke="#DDD" stroke-width="5"/><path d="M550.147 396.2v-66.006s.074-26.995-25.635-26.995c-25.709 0-351.113-1.066-351.113-1.066s-17.451 2.066-19.034-11.016c-1.583-13.081 4.392-29.557-16.096-29.557-20.487 0-121.573.629-121.573.629S.71 260.614.71 240.297c0-20.316.216-107.625.216-107.625" stroke="#FFD95F" stroke-width="5"/><circle stroke="#0EBCEC" stroke-width="6" cx="550.711" cy="405.672" r="8"/><circle stroke="#0EBCEC" stroke-width="6" cx="726.711" cy="405.672" r="8"/><path d="M811.269.672v69.672s-1.323 20.723-29.012 20.723-47.546 8.233-47.546 38.865v119.822" stroke="#B0B0B0" stroke-width="5"/><use stroke="#29ABE1" mask="url(#g)" stroke-width="10" transform="rotate(45 734.853 256.815)" xlink:href="#b"/><path d="M878.715.672v97.246s-.763 23.016 20.457 23.016h193.54" stroke="#29ABE1" stroke-width="5"/><path d="M1093.711 120.672a8 8 0 1 0 16 0 8 8 0 0 0-16 0z" stroke="#DDD" stroke-width="6"/><use stroke="#29ABE1" mask="url(#h)" stroke-width="10" xlink:href="#c"/><path d="M1178.711 2.672v176.475" stroke="#DCDCDB" stroke-width="5"/><g stroke-width="5" stroke="#DDDCDB"><path d="M398.211 239.74h91.593v-57.568h-91.593z"/><path d="M479.311 200.69a5.569 5.569 0 1 1-11.138 0 5.569 5.569 0 1 1 11.138 0zM420.08 200.69a5.569 5.569 0 1 1-11.138 0 5.569 5.569 0 1 1 11.138 0zM410.738 220.282h8.634M424.668 220.282h8.634M438.598 220.282h8.634M452.527 220.282h8.634M466.457 220.074h8.634"/></g><path d="M398.711 99.172v84.016" stroke="#DCDCDB" stroke-width="5"/><g stroke="#969696" stroke-width="5"><path d="M1192.42 203.583v7.392M1232.675 203.583v7.392M1224.296 216.455c-.145 3.281-13.765 11.992-24.816 1.004"/><path d="M1178.15 237.81v-59.828h29.034v8.406h40.946v51.422z"/></g><path d="M1623.711 362.672v87.5" stroke="#969696" stroke-width="5"/><use stroke="#FFD95F" mask="url(#i)" stroke-width="10" xlink:href="#d"/><path d="M1797.684 251.379l-310.358-.707-82.345.707s-32.951-2.184-32.951 22.116.287 61.522.287 61.522-.138 26.09-17.13 28.646c-16.992 2.556-194.914 1.353-194.914 1.353s-44.319-4.55-39.14 37.093" stroke="#B5B5B5" stroke-width="5"/><path d="M1114.711 409.672a8 8 0 1 0 16 0 8 8 0 0 0-16 0z" stroke="#DDD" stroke-width="6"/><path d="M862.711 449.672v-28.386c0-10.144 11.776-18.444 26.17-18.444h1.864c14.392 0 26.17-8.302 26.17-18.446v-29.15c0-10.143 10.753-18.443 23.897-18.443 13.145 0 23.9-8.3 23.9-18.445v-30.686" stroke="#DDDCDB" stroke-width="5"/><path d="M1494.512 56.468h-100.27s-30.1-2.501-29.522 30.047c.376 21.21.79 83.27 1.031 123.93" stroke="#FFD95F" stroke-width="5"/><use stroke="#DDD" mask="url(#j)" stroke-width="10" xlink:href="#e"/><path d="M1608.711 57.602l193.32.874" stroke="#DDD" stroke-width="5"/><path d="M1365.711 226.424a8 8 0 1 0 0-16 8 8 0 0 0 0 16z" stroke="#DDD" stroke-width="6"/><path stroke="#B5B5B5" stroke-width="5" d="M987.973 216.858h12.7v69.733H922.12v-69.733h14.515M946.347 216.858H978.1"/><g stroke-width="5" stroke="#B5B5B5"><path d="M938.342 222.635h6.404V211.08h-6.404zM979.754 222.635h6.404V211.08h-6.404z"/></g><path d="M936.1 239.449h50.591" stroke="#FFD95F" stroke-width="6"/><path stroke="#B5B5B5" stroke-width="5" d="M979.754 222.635h6.404V211.08h-6.404z"/><path d="M936.1 267.92h50.591M936.1 258.43h50.591M936.1 248.94h50.591" stroke="#FFD95F" stroke-width="6"/></g></svg>