<svg width="122" height="108" viewBox="0 0 122 108" xmlns="http://www.w3.org/2000/svg" xmlns:xlink="http://www.w3.org/1999/xlink"><title>home-intro-preview-icon</title><defs><path id="a" d="M48.178 49V.542H0V49z"/><path id="c" d="M25.178 26.706V.542H.418v26.164h24.76z"/><path id="e" d="M25.178 15.735V.77H.416v14.964h24.762z"/></defs><g fill="none" fill-rule="evenodd"><path fill="#B0B0B0" d="M0 13h95v95H0z"/><path fill="#727272" d="M16 0h95v95H16z"/><path stroke="#FFECAC" stroke-width="4" d="M35 41l16.554-13.783L53.756 38.1 75.76 17.622l3.079 18.1L101 17"/><path d="M27 56h33.227M27 65h33.57M27 74h19.12M27 83h19.12" stroke="#29ABE1" stroke-width="4"/><g transform="rotate(-38 136.109 -55.48)"><mask id="b" fill="#fff"><use xlink:href="#a"/></mask><path d="M48.178 24.77C48.178 38.153 37.393 49 24.09 49 10.785 49 0 38.152 0 24.77 0 11.39 10.785.543 24.09.543c13.303 0 24.088 10.848 24.088 24.229" fill="#29ABE1" mask="url(#b)"/></g><g transform="rotate(-38 124.609 -88.878)"><mask id="d" fill="#fff"><use xlink:href="#c"/></mask><path d="M1.09.542c13.303 0 24.088 10.848 24.088 24.229L.418 26.706l.671-25.121" fill="#96D8F2" mask="url(#d)"/></g><g transform="rotate(-38 159.46 -100.878)"><mask id="f" fill="#fff"><use xlink:href="#e"/></mask><path d="M25.178.77a24.213 24.213 0 0 1-5.142 14.965L.416 2.705 25.178.772z" fill="#FFD95F" mask="url(#f)"/></g></g></svg>