<svg width="389" height="323" viewBox="0 0 389 323" xmlns="http://www.w3.org/2000/svg" xmlns:xlink="http://www.w3.org/1999/xlink"><title>home-services-design-icon</title><defs><path id="a" d="M.2 230.975h294.74V.06H.2v230.915z"/><path id="c" d="M0 322.956h388.99V.176H0z"/></defs><g fill="none" fill-rule="evenodd"><path fill="#44B3E1" d="M79.666 144.4h55.113V91.887H79.666z"/><path fill="#27A1D4" d="M339.862 180.148h28.947v-8.55h-28.947zM339.862 221.261h28.947v-8.55h-28.947z"/><g transform="translate(0 -.154)"><path d="M167.991 92.534h-6.125V76.3c0-4.317 2.135-12.479 10.217-12.479 1.807 0 3.978-.01 6.291-.018 5.148-.023 10.983-.047 15.147.018 4.227.07 5.56-3.95 5.838-5.061l.361-25.025c-.02-.507-.106-6.375 3.771-10.204 1.51-1.49 4.231-3.233 8.65-3.01 4.65.218 15.884 0 16-.005l.125 6.132c-.472.01-11.555.233-16.421-.004-1.783-.096-3.11.325-4.051 1.253-1.99 1.963-1.95 5.74-1.95 5.777l-.419 26.02c-.676 3.569-4.004 10.261-11.784 10.261l-.216-.002c-4.1-.065-9.905-.039-15.026-.018-2.324.008-4.503.018-6.316.018-3.992 0-4.09 6.1-4.092 6.359v16.223zM340.128 94.367l-6.126-.051c.004-.505.437-50.545.435-62.233-.002-5.108-.83-6.673-1.323-7.154-.742-.72-2.859-.654-5.311-.58-.97.028-2 .05-3.092.053-1.266-.008-2.938.157-3.73.963-1.156 1.18-1.084 4.239-1.013 7.2.104 4.385.22 9.356-3.202 12.813-2.348 2.37-5.837 3.507-10.717 3.417-3.796-.055-6.849-1.277-9.068-3.63-4.395-4.656-4.07-12.397-3.876-17.022.039-.918.076-1.713.06-2.33-.009-.414-.076-.557-.076-.557.016.015-.513-.413-3.46-.507-6.717-.21-18.462-.237-18.58-.237l.012-6.132c.118 0 11.953.027 18.76.241 2.543.08 9.3.295 9.469 7.036.016.726-.018 1.664-.063 2.743-.154 3.659-.41 9.78 2.207 12.554 1.056 1.119 2.595 1.677 4.706 1.71 3.082.048 5.179-.493 6.275-1.601 1.589-1.605 1.507-5.035 1.427-8.352-.094-4.04-.204-8.614 2.767-11.64 1.868-1.906 4.592-2.746 8.137-2.801 1 .002 1.97-.023 2.873-.051 3.682-.11 7.159-.215 9.76 2.31 2.23 2.166 3.181 5.62 3.183 11.554.003 11.715-.43 61.781-.434 62.284" fill="#44B3E1"/><g transform="translate(49.005 91.981)"><mask id="b" fill="#fff"><use xlink:href="#a"/></mask><path fill="#29ABE1" mask="url(#b)" d="M.2 43.356v187.62h294.74V.06H111.038v43.296z"/></g><mask id="d" fill="#fff"><use xlink:href="#c"/></mask><path fill="#F2F2F2" mask="url(#d)" d="M187.288 283.911h129.896V113.376H187.288z"/><path d="M36.638 204.872c-4.711 0-9.175-.037-11.958-.147-4.2-.168-6.611-1.997-7.894-3.502-2.813-3.3-2.632-7.634-2.538-8.699l.168-18.545 6.125.055-.19 19.017c-.073.71-.02 2.905 1.113 4.211.721.836 1.854 1.27 3.461 1.335 7.982.323 31.076.002 31.306-.002l.086 6.132c-.629.008-10.61.145-19.68.145" fill="#29ABE1" mask="url(#d)"/><path d="M349.186 322.814H41.18c-5.803 0-10.55-4.752-10.55-10.561v-17.781c0-5.81 4.747-10.562 10.55-10.562h308.006c5.803 0 10.55 4.753 10.55 10.562v17.78c0 5.81-4.747 10.562-10.55 10.562" fill="#2391BF" mask="url(#d)"/><path d="M78.308 303.362c0 6.325-5.06 11.451-11.3 11.451-6.242 0-11.302-5.126-11.302-11.45 0-6.325 5.06-11.453 11.302-11.453 6.24 0 11.3 5.128 11.3 11.452M206.838 303.362c0 6.325-5.06 11.451-11.3 11.451-6.241 0-11.301-5.126-11.301-11.45 0-6.325 5.06-11.453 11.302-11.453 6.24 0 11.3 5.128 11.3 11.452M249.682 303.362c0 6.325-5.06 11.451-11.3 11.451-6.242 0-11.302-5.126-11.302-11.45 0-6.325 5.06-11.453 11.302-11.453 6.24 0 11.3 5.128 11.3 11.452M292.526 303.362c0 6.325-5.06 11.451-11.3 11.451-6.242 0-11.302-5.126-11.302-11.45 0-6.325 5.06-11.453 11.302-11.453 6.24 0 11.3 5.128 11.3 11.452M335.369 303.362c0 6.325-5.06 11.451-11.3 11.451-6.242 0-11.302-5.126-11.302-11.45 0-6.325 5.06-11.453 11.302-11.453 6.24 0 11.3 5.128 11.3 11.452M121.151 303.362c0 6.325-5.06 11.451-11.3 11.451-6.241 0-11.301-5.126-11.301-11.45 0-6.325 5.06-11.453 11.302-11.453 6.24 0 11.3 5.128 11.3 11.452M163.995 303.362c0 6.325-5.06 11.451-11.3 11.451-6.242 0-11.302-5.126-11.302-11.45 0-6.325 5.06-11.453 11.302-11.453 6.24 0 11.3 5.128 11.3 11.452" fill="#29ABE1" mask="url(#d)"/><path d="M274.259 26.771c0 14.689-11.75 26.595-26.245 26.595-14.493 0-26.242-11.906-26.242-26.595 0-14.688 11.749-26.595 26.242-26.595 14.496 0 26.245 11.907 26.245 26.595" fill="#F2F2F2" mask="url(#d)"/><path d="M388.99 176.026c0 6.404-5.124 11.594-11.442 11.594-6.32 0-11.44-5.19-11.44-11.594 0-6.404 5.12-11.594 11.44-11.594 6.318 0 11.441 5.19 11.441 11.594M388.99 217.141c0 6.404-5.124 11.594-11.442 11.594-6.32 0-11.44-5.19-11.44-11.594 0-6.404 5.12-11.594 11.44-11.594 6.318 0 11.441 5.19 11.441 11.594" fill="#FFD219" mask="url(#d)"/><path d="M386.582 178.52l-4.053-.504c.29-2.348-.081-4.202-1.102-5.51-1.399-1.793-3.735-2.206-4.415-2.29l.494-4.055c1.379.168 4.838.879 7.139 3.826 1.713 2.196 2.364 5.068 1.937 8.532M386.872 220.202l-4.054-.503c.29-2.348-.081-4.202-1.102-5.51-1.399-1.793-3.733-2.206-4.415-2.29l.494-4.055c1.38.168 4.838.879 7.139 3.826 1.713 2.196 2.364 5.068 1.938 8.532" fill="#FFE370" mask="url(#d)"/><path d="M228.139 25.764l-2.042-.059c.488-16.25 14.834-21.718 21.305-21.718v2.044c-3.704 0-18.777 3.51-19.263 19.733" fill="#FFF" mask="url(#d)"/><path fill="#29ABE1" mask="url(#d)" d="M11.955 178.948h12.848v-9.883H11.955zM12.108 162.449h12.54v-7.49h-12.54z"/><path d="M24.562 154.96s-.825-8.847 5.366-15.06c10.087-10.125 11.25-36.787-12.165-36.787h.71c-23.414 0-21.027 27.997-12.165 36.786 6.228 6.177 5.366 15.06 5.366 15.06" fill="#F2F2F2" mask="url(#d)"/><path fill="#5D5D5D" mask="url(#d)" d="M17.358 154.96H19.4v-21.81h-2.042z"/><path fill="#5D5D5D" mask="url(#d)" d="M12.843 133.465h11.07v-2.044h-11.07z"/><path d="M127.95 181.486c0 12.715-10.172 23.025-22.722 23.025s-22.722-10.31-22.722-23.025c0-12.716 10.173-23.026 22.722-23.026 12.55 0 22.722 10.31 22.722 23.026" fill="#FFD219" mask="url(#d)"/><path d="M105.068 170.72h-.018l-4.229 12.63h8.533l-4.286-12.63zm10.561 20.776c.1.288.155.52.161.695.007.176-.042.31-.143.4-.102.093-.267.15-.502.176a8.18 8.18 0 0 1-.937.041c-.392 0-.707-.01-.94-.03a1.935 1.935 0 0 1-.53-.099.55.55 0 0 1-.266-.186 1.537 1.537 0 0 1-.161-.292l-2.105-6.169h-10.2l-2.009 6.091c-.038.117-.09.217-.153.303a.79.79 0 0 1-.273.217c-.12.057-.292.098-.513.124-.222.029-.508.041-.864.041-.365 0-.665-.016-.9-.049-.233-.033-.398-.096-.492-.188-.096-.09-.139-.223-.133-.4.006-.176.06-.407.161-.696l8.23-23.534a.984.984 0 0 1 .197-.352.817.817 0 0 1 .362-.217 2.63 2.63 0 0 1 .604-.106c.25-.02.56-.03.94-.03.404 0 .739.01 1.006.03.263.018.478.055.643.106a.84.84 0 0 1 .38.225c.088.1.157.219.208.362l8.23 23.537z" fill="#F2F2F2" mask="url(#d)"/><path fill="#D0D1D1" mask="url(#d)" d="M71.388 283.911h31.543v-40.429H71.388zM127.25 283.911h64.077v-56.106H127.25zM217.31 283.911h22.642v-35.033H217.31zM263.779 283.911h73.563v-68.324h-73.563z"/><path fill="#D0D1D1" mask="url(#d)" d="M198.621 251.196h-2.041v-29.567h-31.231v-2.044h33.272zM66.787 253.956h-2.042v-17.885h15.419v2.044H66.787z"/><path fill="#5D5D5D" mask="url(#d)" d="M246.731 135.39h13.313v-12.706h-13.313zM197.945 129.037c0 4.114-3.222 7.45-7.198 7.45-3.975 0-7.2-3.336-7.2-7.45 0-4.115 3.225-7.45 7.2-7.45 3.976 0 7.198 3.335 7.198 7.45"/><path fill="#5D5D5D" mask="url(#d)" d="M195.184 130.06h52.831v-2.045h-52.831zM309.005 129.037c0 4.114 3.222 7.45 7.197 7.45 3.976 0 7.2-3.336 7.2-7.45 0-4.115-3.224-7.45-7.2-7.45-3.975 0-7.197 3.335-7.197 7.45"/><path fill="#5D5D5D" mask="url(#d)" d="M258.935 130.06h52.832v-2.045h-52.832zM203.696 181.485h9.597v-9.161h-9.597zM296.065 180.301h9.597v-9.16h-9.597z"/><path d="M237.217 136.619l-.384-2.007c2.322-.446 4.286-.534 5.258-.597l-.006 2.044c-.182-.002-2.003.01-4.868.56M225.408 141.008l-1.033-1.764c3.124-1.835 6.587-3.232 10.291-4.155l.492 1.984c-3.514.875-6.795 2.198-9.75 3.935m-9.31 8.344l-1.645-1.21a32.613 32.613 0 0 1 8.033-7.706l1.144 1.692a30.573 30.573 0 0 0-7.533 7.224m-5.323 11.369l-1.972-.528c.998-3.746 2.474-7.18 4.39-10.201l1.725 1.093c-1.803 2.847-3.198 6.09-4.143 9.636M209.51 167.756l-2.03-.208c.18-1.772.448-3.51.798-5.163l1.999.423a47.186 47.186 0 0 0-.766 4.948M268.65 136.619c-2.865-.55-4.7-.562-4.868-.56l-.006-2.044h.026c.982 0 2.93.155 5.231.597l-.383 2.007zM280.457 141.008c-2.954-1.737-6.236-3.06-9.75-3.935l.492-1.984c3.704.923 7.167 2.32 10.292 4.155l-1.034 1.764zm9.311 8.344a30.573 30.573 0 0 0-7.532-7.224l1.143-1.692a32.613 32.613 0 0 1 8.033 7.706l-1.644 1.21zm5.324 11.369c-.944-3.547-2.338-6.789-4.141-9.636l1.723-1.093c1.915 3.02 3.394 6.455 4.39 10.201l-1.972.528zM296.355 167.756a46.69 46.69 0 0 0-.766-4.948l1.999-.423c.347 1.647.617 3.384.798 5.163l-2.031.208z" fill="#B4B5B5" mask="url(#d)"/><path d="M268.912 30.056c0 11.258-9.356 20.387-20.897 20.387-11.54 0-20.897-9.129-20.897-20.387 0 0 8.415-6.49 10.696-3.563 1.002 1.288 4.676 4.258 6.652 2.788 1.979-1.47 4.786-5.237 7.53-2.17 1.281 1.43 3 3.065 4.211 2.299 1.213-.767 6.318-4.984 8.87-3.003 1.585 1.228 3.835 3.649 3.835 3.649M114.188 47.052c0 1.95-1.56 3.53-3.484 3.53-1.923 0-3.483-1.58-3.483-3.53 0-1.95 1.56-3.53 3.483-3.53 1.924 0 3.484 1.58 3.484 3.53" fill="#96D8F2" mask="url(#d)"/><path fill="#FFD219" mask="url(#d)" d="M89.32 57.862l-.731-5.257-7.947 1.322 1.247-10.856 4.06.466-.63 5.468 6.737-1.124 1.307 9.419z"/><path d="M99.203 70.874c0 1.95-1.56 3.53-3.484 3.53-1.923 0-3.483-1.58-3.483-3.53 0-1.95 1.56-3.53 3.483-3.53 1.924 0 3.484 1.58 3.484 3.53" fill="#96D8F2" mask="url(#d)"/><path d="M6.402 121.422H4.36c0-8.115 6.559-12.503 9.55-13.257l.5 1.978c-1.588.405-8.008 3.671-8.008 11.28" fill="#FFF" mask="url(#d)"/><path fill="#44B3E1" mask="url(#d)" d="M5.846 178.948h23.53V161.5H5.847z"/><path fill="#D0D1D1" mask="url(#d)" d="M258.688 238.58h-2.042v-31.612h33.272v2.044h-31.23z"/><path d="M188.135 128.03l-1.695-1.14c1.246-1.86 3.275-2.726 4.253-2.726l.002 2.044c-.275.004-1.668.495-2.56 1.821M319.002 129.135c-.892-1.326-2.285-1.817-2.56-1.821l.001-2.044c.978 0 3.006.867 4.254 2.723l-1.695 1.142zM248.971 127.314h8.92v-2.044h-8.92z" fill="#828282" mask="url(#d)"/><path fill="#FFD219" mask="url(#d)" d="M121.132 78.047l-2.903-2.874 3.728-3.776-5.878-5.512 9.374-5.605 2.093 3.507-4.719 2.823 4.982 4.675z"/></g></g></svg>