<svg width="355" height="344" viewBox="0 0 355 344" xmlns="http://www.w3.org/2000/svg" xmlns:xlink="http://www.w3.org/1999/xlink"><title>home-services-data-icon</title><defs><path id="a" d="M0 343.24h354.97V0H0z"/></defs><g fill="none" fill-rule="evenodd"><path d="M354.314 202.362c-2.387-8.454-13.665-15.125-23.95-11.204a18.763 18.763 0 0 0 3.603-11.075c0-10.329-8.257-18.702-18.442-18.702-4.561 0-8.728 1.689-11.948 4.47-.847-9.53-8.738-17.003-18.357-17.003-10.185 0-18.442 8.374-18.442 18.703 0 4.687 1.711 8.958 4.52 12.24.883 14.304 5.75 45.493 5.75 45.493s64.79.389 66.923 0c6.178-1.12 13.199-12.81 10.343-22.922" fill="#C6E6F2"/><mask id="b" fill="#fff"><use xlink:href="#a"/></mask><path fill="#4D4D4D" mask="url(#b)" d="M201.785 314.364h75.263v-199.95h-75.263z"/><path d="M211.469 303.557c0 5.943-4.856 10.806-10.792 10.806H65.34c-5.935 0-10.792-4.863-10.792-10.806V75.64c0-5.943 4.857-10.806 10.792-10.806h135.336c5.936 0 10.792 4.863 10.792 10.806v227.917z" fill="#5D5D5D" mask="url(#b)"/><path d="M190.437 65.934l-3.804-.157c.016-.364 1.49-36.434.364-46.477-1.005-8.978-10.115-8.368-10.5-8.341-.627 0-45.655-.6-55.221.002-7.788.49-7.627 11.478-7.617 11.945v42.95h-3.807V22.952c-.136-5.18 2.025-15.22 11.186-15.796 9.709-.612 53.478-.03 55.336-.004 4.373-.352 13.277 1.641 14.406 11.724 1.159 10.33-.28 45.563-.343 47.058" fill="#B4B5B5" mask="url(#b)"/><path fill="#5D5D5D" mask="url(#b)" d="M102.214 65.857h18.143V58.5h-18.143zM178.41 65.857h18.142V58.5h-18.143z"/><path fill="#29ABE1" mask="url(#b)" d="M133.009 18.66h8.176V0h-8.176zM157.601 18.66h8.177V0h-8.177z"/><path d="M317.375 343.24H38.64c-5.759 0-10.47-4.717-10.47-10.483v-14.991c0-5.766 4.711-10.483 10.47-10.483h278.735c5.759 0 10.47 4.717 10.47 10.483v14.991c0 5.766-4.711 10.484-10.47 10.484M54.554 91.803L11.64 91.8S1.023 91.462.42 102.36c-.387 6.96-.41 67.08-.41 67.08s-.896 14.031 14.691 15.12c9.39.657 75.42.545 75.42.545s6.287-.408 7.093 6.947c.807 7.354 0 20.702 0 20.702h12.094v-26.151c0-13.552-9.446-13.785-9.446-13.785s-67.654.012-71.128-.08c-3.827-.099-15.626 1.748-15.784-9.53-.097-6.814.32-41.097.286-49.696-.033-8.598 7.609-8.428 7.609-8.428h33.71v-13.28zM97.214 212.754L76.85 236.589h51.2l-18.742-23.835z" fill="#B4B5B5" mask="url(#b)"/><path fill="#D8D9D9" mask="url(#b)" d="M76.848 241.222h51.202v-8.444H76.848z"/><path d="M75.204 301.063v14.732c0 4.702 12.424 8.512 27.75 8.512s27.75-3.81 27.75-8.512v-14.301" fill="#FFD219" mask="url(#b)"/><path d="M130.704 301.063c0 4.702-12.423 8.512-27.75 8.512-15.326 0-27.75-3.81-27.75-8.512s12.424-8.513 27.75-8.513c15.327 0 27.75 3.81 27.75 8.513" fill="#FFE370" mask="url(#b)"/><path d="M170.81 299.916v14.732c0 4.702 12.423 8.513 27.75 8.513 15.326 0 27.75-3.81 27.75-8.513v-14.301" fill="#FFD219" mask="url(#b)"/><path d="M226.31 299.916c0 4.702-12.424 8.513-27.75 8.513s-27.75-3.81-27.75-8.513c0-4.702 12.424-8.512 27.75-8.512s27.75 3.81 27.75 8.512" fill="#FFE370" mask="url(#b)"/><path d="M259.291 255.298v60.497c0 4.702 12.424 8.514 27.75 8.514s27.75-3.812 27.75-8.514v-60.067" fill="#FFD219" mask="url(#b)"/><path d="M314.792 254.991c0 4.703-12.424 8.513-27.751 8.513-15.325 0-27.75-3.81-27.75-8.513 0-4.702 12.425-8.512 27.75-8.512 15.327 0 27.75 3.81 27.75 8.512" fill="#FFE370" mask="url(#b)"/><path d="M209.99 163.72c0 7.557-4.993 13.685-11.153 13.685s-11.154-6.128-11.154-13.685c0-7.558 4.993-13.686 11.154-13.686 6.16 0 11.154 6.128 11.154 13.686" fill="#B4B5B5" mask="url(#b)"/><path d="M206.935 163.441c0 5.19-3.429 9.4-7.66 9.4-4.23 0-7.66-4.21-7.66-9.4s3.43-9.399 7.66-9.399c4.231 0 7.66 4.21 7.66 9.4" fill="#4D4D4D" mask="url(#b)"/><path d="M6.952 114.632l-3.808-.008c.014-5.514.061-8.789.143-10.01.415-6.136 4.813-9.62 12.378-9.813l.097 3.812c-8.266.21-8.574 4.763-8.677 6.258-.074 1.122-.12 4.405-.133 9.76M106.8 186.61l-3.807-.019c.012-2.678-.662-4.71-2.005-6.04-1.346-1.329-3.46-2.02-6.015-1.996l-.149-1.904v-1.906l.002 1.906.08-1.908c3.57-.091 6.678 1.039 8.757 3.096 2.1 2.075 3.155 5.028 3.138 8.771" fill="#D8D9D9" mask="url(#b)"/><path d="M302.548 204.954v-.164h-56.945c-2.627 0-4.548-.633-5.71-1.883-1.778-1.91-1.585-4.922-1.585-4.922l.015-.352c0-.195-.015-19.41.084-24.234.1-4.992-1.997-8.013-3.773-9.67-4.526-4.214-11.341-3.97-12.77-3.863-1.76.001-18.38.02-21.717.04v-.018c-.059 0-.114.016-.173.02h-.158v.015c-1.871.179-3.343 1.8-3.343 3.797 0 2.018 1.502 3.654 3.402 3.802v.01h.084c.064.004.123.019.188.019v-.021c3.465-.02 21.874-.04 21.874-.04l.33-.015c1.315-.103 5.157.013 7.108 1.849.933.876 1.369 2.16 1.335 3.92-.097 4.739-.088 22.362-.086 24.255-.076 1.24-.158 6.466 3.528 10.512 2.661 2.922 6.486 4.403 11.367 4.403h56.389v.06c.175 0 .342-.03.51-.06h.046v-.004c1.578-.303 2.785-1.85 2.785-3.728 0-1.877-1.207-3.427-2.785-3.728" fill="#B4B5B5" mask="url(#b)"/><path d="M287.088 302.754c-13.218 0-25.14-3.576-27.796-6.912v2.57c5.006 3.812 16.867 6.248 27.796 6.248 11.04 0 23.035-2.573 27.703-6.566v-2.922c-1.384 3.566-13.589 7.582-27.703 7.582M287.088 280.637c-13.217 0-25.14-3.576-27.796-6.912v2.57c5.007 3.812 16.867 6.248 27.796 6.248 11.04 0 23.036-2.573 27.704-6.566v-2.922c-1.384 3.566-13.59 7.582-27.704 7.582" fill="#E0B916" mask="url(#b)"/><path d="M233.41 167.704c-1.321-2.064-3.47-3.45-6.383-4.119l.426-1.858c3.415.785 5.959 2.449 7.56 4.946l-1.603 1.031zM260.735 208.803h38.092v-1.906h-38.092z" fill="#D8D9D9" mask="url(#b)"/><path d="M263.373 254.942c-3.888.372-5.299 12.525-5.299 12.525s-.635-11.475-5.568-12.525c5.12-.986 5.568-12.525 5.568-12.525s-.135 12.048 5.299 12.525" fill="#FCFCFC" mask="url(#b)"/><path fill="#4D4D4D" mask="url(#b)" d="M152.313 305.375h1.904V151.733h-1.904zM152.463 91.81l-.152-26.97 1.904-.011.152 26.969z"/><path fill="#D8D9D9" mask="url(#b)" d="M76.102 267.783l-1.795-.633 7.39-20.988 1.795.633zM89.493 276.82l-1.837-.504 6.78-24.891 1.836.501z"/><path d="M174.888 123.467c0 18.865-15.089 34.16-33.702 34.16s-33.702-15.295-33.702-34.16c0-18.864 15.09-34.159 33.702-34.159 18.613 0 33.702 15.295 33.702 34.16" fill="#96D8F2" mask="url(#b)"/><path d="M167.457 123.998c-.392 14.7-11.761 26.626-26.27 26.626-14.51 0-26.272-11.92-26.272-26.626 0 0 7.935-6.193 10.998-3.727.77.622 1.086 4.82 5.77 4.735 2.902-.053 7.972-5.65 9.504-3.494.863 1.216 1.843 4.13 4.198 2.857 2.355-1.273 7.602-6.206 9.185-3.072 1.078 2.133 2.894 4.729 6.987.686 3.301-3.261 5.938.623 5.9 2.015" fill="#29ABE1" mask="url(#b)"/><path d="M121.076 111.616l-3.456-1.597c5.506-11.938 16.137-16.171 23.565-16.171v3.812c-6.804 0-15.66 4.315-20.11 13.956" fill="#E1EDF2" mask="url(#b)"/><path d="M146.424 167.191c0 1.918-1.533 3.471-3.425 3.471-1.893 0-3.425-1.553-3.425-3.47 0-1.918 1.532-3.472 3.425-3.472 1.892 0 3.425 1.554 3.425 3.471M147.433 81.79c0 1.917-1.532 3.47-3.425 3.47-1.892 0-3.424-1.553-3.424-3.47 0-1.918 1.532-3.471 3.424-3.471 1.893 0 3.425 1.553 3.425 3.471M146.424 296.806c0 1.918-1.533 3.471-3.425 3.471-1.893 0-3.425-1.553-3.425-3.47 0-1.918 1.532-3.472 3.425-3.472 1.892 0 3.425 1.554 3.425 3.471" fill="#4D4D4D" mask="url(#b)"/><path fill="#D8D9D9" mask="url(#b)" d="M127.152 267.783l-7.39-20.988 1.795-.633 7.39 20.988zM113.761 276.82l-6.78-24.894 1.838-.501 6.78 24.891z"/><path d="M312.65 277.8c-2.517.24-3.43 8.11-3.43 8.11s-.412-7.43-3.606-8.11c3.314-.64 3.605-8.111 3.605-8.111s-.087 7.802 3.43 8.11M274.428 253.544c0 1.031-.83 1.868-1.854 1.868a1.861 1.861 0 0 1-1.855-1.868c0-1.031.83-1.868 1.855-1.868 1.024 0 1.854.837 1.854 1.868M254.603 241.222a.83.83 0 0 1-.827.833.83.83 0 0 1-.826-.833c0-.459.37-.832.826-.832a.83.83 0 0 1 .827.832" fill="#FCFCFC" mask="url(#b)"/></g></svg>