<svg width="115" height="127" viewBox="0 0 115 127" xmlns="http://www.w3.org/2000/svg"><title>home-intro-design-icon</title><g fill="none" fill-rule="evenodd"><path fill="#B0B0B0" d="M0 32h95v95H0z"/><path fill="#727272" d="M15 19h95v95H15z"/><path d="M47.534 85.538C37.28 74.427 36.124 56.712 44.837 44.34a.775.775 0 0 1 1.122-.172.88.88 0 0 1 .16 1.186c-8.248 11.712-7.146 28.476 2.56 38.999 4.107 4.452 9.632 6.92 15.556 6.957 6.115 0 11.742-2.472 15.982-6.966 3.34-3.54 5.182-8.244 5.182-13.252 0-5.007-1.842-9.711-5.182-13.252-2.642-2.8-6.154-4.341-9.89-4.341-3.736 0-7.249 1.541-9.89 4.341-2.083 2.207-3.231 5.145-3.231 8.266 0 3.123 1.148 6.06 3.231 8.267 1.637 1.734 3.814 2.688 6.128 2.688 2.312 0 4.489-.954 6.127-2.688 2.636-2.8 2.636-7.352 0-10.15-2.053-2.17-5.385-2.17-7.437 0-1.58 1.673-1.58 4.393 0 6.065 1.2 1.272 3.153 1.268 4.354 0a.761.761 0 0 1 1.128 0 .883.883 0 0 1 0 1.198c-1.821 1.933-4.786 1.933-6.616 0-2.2-2.331-2.2-6.129 0-8.46 2.677-2.837 7.026-2.837 9.7 0 3.262 3.456 3.262 9.085 0 12.544-1.939 2.058-4.518 3.188-7.256 3.188-2.744 0-5.32-1.13-7.258-3.188-2.387-2.527-3.7-5.89-3.7-9.464 0-3.577 1.313-6.937 3.7-9.467 2.943-3.119 6.858-4.836 11.02-4.836 4.165 0 8.082 1.717 11.022 4.836 3.644 3.864 5.646 8.995 5.646 14.453 0 5.459-2.002 10.594-5.646 14.454-4.54 4.816-10.569 7.463-16.985 7.463-6.49-.037-12.42-2.692-16.83-7.471z" stroke="#29ABE1" stroke-width="2.4"/><path d="M100.5 48.623c8.008 0 14.5-6.662 14.5-14.88S101.526.623 100.5.623C99.474.623 86 25.525 86 33.743c0 8.218 6.492 14.88 14.5 14.88z" fill="#FFD95F"/><path d="M109.441 30.516c1.275 4.869-1.323 10.967-7.033 13.005" stroke="#FFF4CF" stroke-width="5"/></g></svg>