<?xml version="1.0" encoding="UTF-8" standalone="no"?>
<svg width="255px" height="220px" viewBox="0 0 255 220" version="1.1" xmlns="http://www.w3.org/2000/svg" xmlns:xlink="http://www.w3.org/1999/xlink">
    <!-- Generator: Sketch 3.8.3 (29802) - http://www.bohemiancoding.com/sketch -->
    <title>home-enterprise_features-reporting</title>
    <desc>Created with Sketch.</desc>
    <defs>
        <rect id="path-1" x="66.7303103" y="86" width="117" height="122"></rect>
        <mask id="mask-2" maskContentUnits="userSpaceOnUse" maskUnits="objectBoundingBox" x="0" y="0" width="117" height="122" fill="white">
            <use xlink:href="#path-1"></use>
        </mask>
        <rect id="path-3" x="81.7303103" y="103" width="24" height="47"></rect>
        <mask id="mask-4" maskContentUnits="userSpaceOnUse" maskUnits="objectBoundingBox" x="0" y="0" width="24" height="47" fill="white">
            <use xlink:href="#path-3"></use>
        </mask>
        <rect id="path-5" x="81.7303103" y="161" width="88" height="27"></rect>
        <mask id="mask-6" maskContentUnits="userSpaceOnUse" maskUnits="objectBoundingBox" x="0" y="0" width="88" height="27" fill="white">
            <use xlink:href="#path-5"></use>
        </mask>
        <rect id="path-7" x="97.7303103" y="167" width="6" height="6"></rect>
        <mask id="mask-8" maskContentUnits="userSpaceOnUse" maskUnits="objectBoundingBox" x="0" y="0" width="6" height="6" fill="white">
            <use xlink:href="#path-7"></use>
        </mask>
        <rect id="path-9" x="113.73031" y="167" width="6" height="6"></rect>
        <mask id="mask-10" maskContentUnits="userSpaceOnUse" maskUnits="objectBoundingBox" x="0" y="0" width="6" height="6" fill="white">
            <use xlink:href="#path-9"></use>
        </mask>
        <rect id="path-11" x="128.73031" y="167" width="6" height="6"></rect>
        <mask id="mask-12" maskContentUnits="userSpaceOnUse" maskUnits="objectBoundingBox" x="0" y="0" width="6" height="6" fill="white">
            <use xlink:href="#path-11"></use>
        </mask>
        <rect id="path-13" x="144.73031" y="167" width="6" height="6"></rect>
        <mask id="mask-14" maskContentUnits="userSpaceOnUse" maskUnits="objectBoundingBox" x="0" y="0" width="6" height="6" fill="white">
            <use xlink:href="#path-13"></use>
        </mask>
        <polyline id="path-15" points="208.135716 113 210.73031 115.702703 189.324905 138 186.73031 135.297297 208.135716 113"></polyline>
        <mask id="mask-16" maskContentUnits="userSpaceOnUse" maskUnits="objectBoundingBox" x="0" y="0" width="24" height="25" fill="white">
            <use xlink:href="#path-15"></use>
        </mask>
        <rect id="path-17" x="76.7303103" y="21" width="97" height="77"></rect>
        <mask id="mask-18" maskContentUnits="userSpaceOnUse" maskUnits="objectBoundingBox" x="0" y="0" width="97" height="77" fill="white">
            <use xlink:href="#path-17"></use>
        </mask>
        <rect id="path-19" x="83.7303103" y="29" width="83" height="58"></rect>
        <mask id="mask-20" maskContentUnits="userSpaceOnUse" maskUnits="objectBoundingBox" x="0" y="0" width="83" height="58" fill="white">
            <use xlink:href="#path-19"></use>
        </mask>
        <rect id="path-21" x="136.73031" y="53" width="5" height="21"></rect>
        <mask id="mask-22" maskContentUnits="userSpaceOnUse" maskUnits="objectBoundingBox" x="0" y="0" width="5" height="21" fill="white">
            <use xlink:href="#path-21"></use>
        </mask>
        <rect id="path-23" x="144.73031" y="61" width="5" height="14"></rect>
        <mask id="mask-24" maskContentUnits="userSpaceOnUse" maskUnits="objectBoundingBox" x="0" y="0" width="5" height="14" fill="white">
            <use xlink:href="#path-23"></use>
        </mask>
        <rect id="path-25" x="153.73031" y="49" width="5" height="25"></rect>
        <mask id="mask-26" maskContentUnits="userSpaceOnUse" maskUnits="objectBoundingBox" x="0" y="0" width="5" height="25" fill="white">
            <use xlink:href="#path-25"></use>
        </mask>
    </defs>
    <g id="Page-1" stroke="none" stroke-width="1" fill="none" fill-rule="evenodd">
        <g id="Desktop-HD" transform="translate(-912.000000, -488.000000)">
            <g id="home-enterprise_features-reporting" transform="translate(912.000000, 488.000000)">
                <rect id="Rectangle-179" fill="#FCFCFC" x="0" y="0" width="255" height="220"></rect>
                <use id="Rectangle-133" stroke="#1F2846" mask="url(#mask-2)" stroke-width="3.6" fill="#283359" xlink:href="#path-1"></use>
                <use id="Rectangle-134" stroke="#1F2846" mask="url(#mask-4)" stroke-width="3.6" fill="#495CA3" xlink:href="#path-3"></use>
                <use id="Rectangle-135" stroke="#1F2846" mask="url(#mask-6)" stroke-width="3.6" fill="#2F3A61" xlink:href="#path-5"></use>
                <use id="Rectangle-148" stroke="#1F2846" mask="url(#mask-8)" stroke-width="3.6" fill="#495CA3" xlink:href="#path-7"></use>
                <use id="Rectangle-148" stroke="#1F2846" mask="url(#mask-10)" stroke-width="3.6" fill="#495CA3" xlink:href="#path-9"></use>
                <use id="Rectangle-148" stroke="#1F2846" mask="url(#mask-12)" stroke-width="3.6" fill="#495CA3" xlink:href="#path-11"></use>
                <use id="Rectangle-148" stroke="#1F2846" mask="url(#mask-14)" stroke-width="3.6" fill="#495CA3" xlink:href="#path-13"></use>
                <use id="Rectangle-137" stroke="#1F2846" mask="url(#mask-16)" stroke-width="3.6" fill="#283359" xlink:href="#path-15"></use>
                <circle id="Oval-32" stroke="#1F2846" stroke-width="1.8" fill="#2F3A61" cx="206.73031" cy="114" r="7"></circle>
                <use id="Rectangle-138" stroke="#1F2846" mask="url(#mask-18)" stroke-width="3.6" fill="#283359" xlink:href="#path-17"></use>
                <use id="Rectangle-139" stroke="#1F2846" mask="url(#mask-20)" stroke-width="3.6" fill="#495CA3" xlink:href="#path-19"></use>
                <path d="M127.701156,34 L127.759464,40" id="Path-191" stroke="#1F2846" stroke-width="1.8"></path>
                <path d="M127.701156,77 L127.759464,83" id="Path-191" stroke="#1F2846" stroke-width="1.8"></path>
                <use id="Rectangle-140" stroke="#1F2846" mask="url(#mask-22)" stroke-width="3.6" fill="#495CA3" xlink:href="#path-21"></use>
                <use id="Rectangle-140" stroke="#1F2846" mask="url(#mask-24)" stroke-width="3.6" fill="#2E3A68" xlink:href="#path-23"></use>
                <use id="Rectangle-140" stroke="#1F2846" mask="url(#mask-26)" stroke-width="3.6" fill="#2F3A61" xlink:href="#path-25"></use>
                <path d="M127.701156,65 L127.759464,71" id="Path-191" stroke="#1F2846" stroke-width="1.8"></path>
                <path d="M127.701156,55 L127.759464,61" id="Path-191" stroke="#1F2846" stroke-width="1.8"></path>
                <path d="M127.701156,45 L127.759464,51" id="Path-191" stroke="#1F2846" stroke-width="1.8"></path>
                <g id="Page-1" transform="translate(95.730310, 46.000000)" stroke="#1F2846" stroke-width="1.8">
                    <path d="M11.7802506,11.9347 L1.96444828,17.6680363 C-1.14743059,12.1836906 0.728159419,5.17076728 6.11760615,2.00409355 C7.91224868,0.950095726 9.94053509,0.468027451 11.7802506,0.468027451 L11.7802506,11.9347 Z" id="Fill-1" fill="#2F3A61"></path>
                    <path d="M11.6652684,11.9347 L15.5194725,22.709628 C10.3259555,24.6332208 4.66975001,22.5383299 1.90649723,17.6680363 L11.6652684,11.9347 Z" id="Fill-5" fill="#495CA3"></path>
                    <path d="M11.7802506,11.9347 L11.7802506,0.468027451 C18.2192551,0.468027451 22.9914773,5.60228859 22.9914773,11.9347 C22.9914773,16.8555406 20.1491167,21.0266013 15.6050193,22.709628 L11.7802506,11.9347 Z" id="Fill-9" fill="#283359"></path>
                </g>
                <circle id="Oval-33" fill="#1F2846" cx="126.23031" cy="91.5" r="2.5"></circle>
                <rect id="Rectangle-143" fill="#1F2846" x="83.7303103" y="111" width="5" height="5"></rect>
                <path d="M90.7303103,113 L102.330746,113" id="Path-202" stroke="#1F2846" stroke-width="1.8"></path>
                <rect id="Rectangle-143" fill="#1F2846" x="83.7303103" y="120" width="5" height="5"></rect>
                <path d="M90.7303103,123 L102.330746,123" id="Path-202" stroke="#1F2846" stroke-width="1.8"></path>
                <rect id="Rectangle-143" fill="#1F2846" x="83.7303103" y="130" width="5" height="5"></rect>
                <path d="M90.7303103,132 L102.330746,132" id="Path-202" stroke="#1F2846" stroke-width="1.8"></path>
                <rect id="Rectangle-143" fill="#1F2846" x="83.7303103" y="139" width="5" height="5"></rect>
                <path d="M90.7303103,142 L102.330746,142" id="Path-202" stroke="#1F2846" stroke-width="1.8"></path>
                <rect id="Rectangle-144" fill="#1F2846" x="122.73031" y="112" width="46" height="8"></rect>
                <path d="M131.747267,113.052705 C132.515128,113.052705 138.994514,115.574946 139.877361,119.477641 C140.760207,123.380336 140.276949,150 140.276949,150 L143.244154,147.377873 L144.556764,150 L147.469792,147.377873 L149.404874,150 L152.157197,147.377873 L153.875569,150 L156.527994,147.377873 L158.73648,150 L161.345701,147.377873 L163.501838,150 L166.119973,147.377873 L168.44573,150 C168.44573,150 169.245683,124.770428 168.163184,119.935875 C167.080685,115.101321 163.794216,113 160.161105,113 C156.527994,113 130.979405,113.052705 131.747267,113.052705 Z" id="Path-203" stroke="#1F2846" stroke-width="1.8" fill="#495CA3"></path>
                <path d="M144.73031,138.969697 L165.73031,139.030303" id="Path-204" stroke="#1F2846" stroke-width="1.8"></path>
                <path d="M144.73031,133.969697 L165.73031,134.030303" id="Path-204" stroke="#1F2846" stroke-width="1.8"></path>
                <path d="M144.73031,127.969697 L165.73031,128.030303" id="Path-204" stroke="#1F2846" stroke-width="1.8"></path>
                <path d="M207.73031,110.002561 C207.73031,110.002561 203.100714,109.75985 202.73031,114" id="Path-208" stroke="#1F2846" stroke-width="2.7"></path>
                <ellipse id="Oval-34" stroke="#1F2846" stroke-width="1.8" fill="#495CA3" cx="94.2303103" cy="180" rx="3.5" ry="4"></ellipse>
                <ellipse id="Oval-34" stroke="#1F2846" stroke-width="1.8" fill="#495CA3" cx="110.23031" cy="180" rx="3.5" ry="4"></ellipse>
                <ellipse id="Oval-34" stroke="#1F2846" stroke-width="1.8" fill="#495CA3" cx="126.23031" cy="180" rx="3.5" ry="4"></ellipse>
                <ellipse id="Oval-34" stroke="#1F2846" stroke-width="1.8" fill="#495CA3" cx="141.23031" cy="180" rx="3.5" ry="4"></ellipse>
                <ellipse id="Oval-34" stroke="#1F2846" stroke-width="1.8" fill="#495CA3" cx="157.23031" cy="180" rx="3.5" ry="4"></ellipse>
                <g id="Group-7" transform="translate(72.730310, 195.000000)" stroke="#1F2846" stroke-width="1.8">
                    <ellipse id="Oval-48" fill="#495CA3" cx="4.68985365" cy="4.40685334" rx="4.31014635" ry="4.40685334"></ellipse>
                    <path d="M6.58929249,0.682689292 L3.11844613,8.20762089" id="Path-222"></path>
                </g>
                <g id="Group-7" transform="translate(166.730310, 195.000000)" stroke="#1F2846" stroke-width="1.8">
                    <ellipse id="Oval-48" fill="#495CA3" cx="4.68985365" cy="4.40685334" rx="4.31014635" ry="4.40685334"></ellipse>
                    <path d="M6.58929249,0.682689292 L3.11844613,8.20762089" id="Path-222"></path>
                </g>
            </g>
        </g>
    </g>
</svg>