<?xml version="1.0" encoding="UTF-8" standalone="no"?>
<svg width="255px" height="220px" viewBox="0 0 255 220" version="1.1" xmlns="http://www.w3.org/2000/svg" xmlns:xlink="http://www.w3.org/1999/xlink">
    <!-- Generator: Sketch 3.8.3 (29802) - http://www.bohemiancoding.com/sketch -->
    <title>home-sme_features-reporting</title>
    <desc>Created with Sketch.</desc>
    <defs>
        <rect id="path-1" x="44" y="67" width="169" height="130"></rect>
        <mask id="mask-2" maskContentUnits="userSpaceOnUse" maskUnits="objectBoundingBox" x="0" y="0" width="169" height="130" fill="white">
            <use xlink:href="#path-1"></use>
        </mask>
        <rect id="path-3" x="134" y="145" width="60" height="41"></rect>
        <mask id="mask-4" maskContentUnits="userSpaceOnUse" maskUnits="objectBoundingBox" x="0" y="0" width="60" height="41" fill="white">
            <use xlink:href="#path-3"></use>
        </mask>
        <rect id="path-5" x="143" y="82" width="10" height="54"></rect>
        <mask id="mask-6" maskContentUnits="userSpaceOnUse" maskUnits="objectBoundingBox" x="0" y="0" width="10" height="54" fill="white">
            <use xlink:href="#path-5"></use>
        </mask>
        <rect id="path-7" x="161" y="82" width="10" height="54"></rect>
        <mask id="mask-8" maskContentUnits="userSpaceOnUse" maskUnits="objectBoundingBox" x="0" y="0" width="10" height="54" fill="white">
            <use xlink:href="#path-7"></use>
        </mask>
        <rect id="path-9" x="179" y="82" width="10" height="54"></rect>
        <mask id="mask-10" maskContentUnits="userSpaceOnUse" maskUnits="objectBoundingBox" x="0" y="0" width="10" height="54" fill="white">
            <use xlink:href="#path-9"></use>
        </mask>
        <polygon id="path-11" points="8.36050974 14.7391658 0 14.7391658 0 0.00037820856 8.36050974 0.00037820856 16.7210195 0.00037820856 16.7210195 14.7391658 8.36050974 14.7391658"></polygon>
        <rect id="path-13" x="84" y="41" width="13" height="28"></rect>
        <mask id="mask-14" maskContentUnits="userSpaceOnUse" maskUnits="objectBoundingBox" x="0" y="0" width="13" height="28" fill="white">
            <use xlink:href="#path-13"></use>
        </mask>
        <polygon id="path-15" points="14.7420364 17.1297258 14.7420364 0.290030266 0.553641631 0.290030266 0.553641631 17.1297258 14.7420364 17.1297258"></polygon>
        <rect id="path-17" x="59" y="82" width="65" height="56"></rect>
        <mask id="mask-18" maskContentUnits="userSpaceOnUse" maskUnits="objectBoundingBox" x="0" y="0" width="65" height="56" fill="white">
            <use xlink:href="#path-17"></use>
        </mask>
        <polygon id="path-19" points="11.31585 0.000585 0 0.000585 0 11.956485 11.31585 11.956485 11.31585 0.000585"></polygon>
        <rect id="path-21" x="61" y="172" width="65" height="34"></rect>
        <mask id="mask-22" maskContentUnits="userSpaceOnUse" maskUnits="objectBoundingBox" x="0" y="0" width="65" height="34" fill="white">
            <use xlink:href="#path-21"></use>
        </mask>
    </defs>
    <g id="Page-1" stroke="none" stroke-width="1" fill="none" fill-rule="evenodd">
        <g id="Desktop-HD" transform="translate(-979.000000, -114.000000)">
            <g id="home-sme_features-reporting" transform="translate(979.000000, 114.000000)">
                <rect id="Rectangle-59" fill="#FCFCFC" x="0" y="0" width="255" height="220"></rect>
                <use id="Rectangle-44" stroke="#ECD43C" mask="url(#mask-2)" stroke-width="3.8" fill="#FBF099" xlink:href="#path-1"></use>
                <use id="Rectangle-45" stroke="#ECD43C" mask="url(#mask-4)" stroke-width="3.8" fill="#FFFBD2" xlink:href="#path-3"></use>
                <ellipse id="Oval-22" stroke="#ECD43C" stroke-width="1.9" fill="#FFF5A7" cx="164.5" cy="165.5" rx="11.5" ry="12.5"></ellipse>
                <path d="M170,168.352802 C168.833969,169.949882 166.859576,171 164.619223,171 C162.219033,171 160.122797,169.793607 159,168" id="Page-1" stroke="#ECD43C" stroke-width="1.9"></path>
                <circle id="Oval-23" fill="#ECD43C" cx="159" cy="163" r="2"></circle>
                <circle id="Oval-23" fill="#ECD43C" cx="170" cy="163" r="2"></circle>
                <use id="Rectangle-46" stroke="#ECD43C" mask="url(#mask-6)" stroke-width="3.8" fill="#FFFBD2" xlink:href="#path-5"></use>
                <rect id="Rectangle-47" fill="#ECD43C" x="146" y="103" width="4" height="30"></rect>
                <use id="Rectangle-46" stroke="#ECD43C" mask="url(#mask-8)" stroke-width="3.8" fill="#FFFBD2" xlink:href="#path-7"></use>
                <rect id="Rectangle-47" fill="#ECD43C" x="164" y="112" width="4" height="21"></rect>
                <use id="Rectangle-46" stroke="#ECD43C" mask="url(#mask-10)" stroke-width="3.8" fill="#FFFBD2" xlink:href="#path-9"></use>
                <rect id="Rectangle-47" fill="#ECD43C" x="182" y="116" width="4" height="17"></rect>
                <path d="M212.29609,96 L229.404326,96 C229.404326,96 236.371911,95.425401 235.984417,89.759089 C235.597653,84.0927771 235.675152,50.1768813 235.984417,50.1768813 C235.675152,50.1768813 235.055893,43.196653 228.940064,43.0733057 C222.824235,42.9507246 187.394834,43.0189104 187.394834,43.0189104 C187.394834,43.0189104 180.710924,42.9997571 179.704901,48.7809889 C178.872885,53.5616523 179.008143,67.1467042 179.008143,67.1467042" id="Page-1" stroke="#ECD43C" stroke-width="1.9"></path>
                <g id="Page-1" transform="translate(222.000000, 40.000000)">
                    <mask id="mask-12" fill="white">
                        <use xlink:href="#path-11"></use>
                    </mask>
                    <g id="Clip-2"></g>
                    <path d="M11.5715883,13.2372996 C11.5226624,6.53470049 10.535175,4.95998398 0.926131117,4.88822674 L0.957932943,0.945521399 C12.2850908,1.02989529 15.5802491,3.78111508 15.6487454,13.2097006 L11.5715883,13.2372996 Z" id="Fill-1" stroke="#ECD43C" stroke-width="1.9" fill="#FFF5A7" mask="url(#mask-12)"></path>
                </g>
                <g id="Page-1" transform="translate(230.500000, 92.000000) scale(1, -1) translate(-230.500000, -92.000000) translate(223.000000, 85.000000)" stroke="#ECD43C" stroke-width="1.9" fill="#FFF5A7">
                    <path d="M10.4032547,13.1509902 C10.4032547,5.47472634 9.72991438,4.93793961 0.191525277,4.86650129 L0.223093265,0.941319081 C12.6241336,-0.0259230549 14.8058851,2.20952588 14.805885,13.1509909 L10.4032547,13.1509902 Z" id="Fill-1"></path>
                </g>
                <use id="Rectangle-52" stroke="#ECD43C" mask="url(#mask-14)" stroke-width="3.8" fill="#FFF5A7" xlink:href="#path-13"></use>
                <g id="Page-1" transform="translate(65.000000, 14.000000)">
                    <g id="Group-3" transform="translate(0.000000, 0.179071)" stroke="#ECD43C" stroke-width="1.9" fill="#FFFBD2">
                        <path d="M9.29515428,9.16262864 C9.29515428,9.16262864 2.67170944,6.18804357 0.779854643,10.4727798 C-1.11069812,14.7561268 0.726471266,18.2100354 3.19382491,18.6532361 C5.66117855,19.0978261 16.0774472,17.3027939 19.6072603,23.0046609 C21.0277789,25.2984675 22.3701755,9.89342347 17.6125448,3.00505694 C15.6568904,0.173574285 10.4240174,-1.4533473 8.3733145,1.78938112 C6.96321213,4.01788856 9.29515428,9.16262864 9.29515428,9.16262864" id="Fill-1"></path>
                    </g>
                    <g id="Group-6" transform="translate(24.569067, 7.837694)">
                        <mask id="mask-16" fill="white">
                            <use xlink:href="#path-15"></use>
                        </mask>
                        <g id="Clip-5"></g>
                        <path d="M4.89672283,2.3369725 C2.48072712,2.52467269 1.99728865,3.77345356 1.89557511,5.75260523 C1.7950582,7.73303378 5.94736386,11.9301122 4.35225624,15.2474258 C3.709666,16.583034 10.9361138,13.13931 12.7322553,8.87966488 C13.4705759,7.1290733 12.79448,4.03904294 10.799698,3.86538834 C9.4295568,3.74663924 7.76025812,6.30804458 7.76025812,6.30804458 C7.76025812,6.30804458 7.31271855,2.15054918 4.89672283,2.3369725 Z" id="Fill-4" stroke="#ECD43C" stroke-width="1.9" fill="#FFFBD2" mask="url(#mask-16)"></path>
                    </g>
                </g>
                <use id="Rectangle-53" stroke="#ECD43C" mask="url(#mask-18)" stroke-width="3.8" fill="#FFFBD2" xlink:href="#path-17"></use>
                <path d="M91.0087891,83 L91.0087891,136.057257" id="Path-88" stroke="#ECD43C" stroke-width="1.9"></path>
                <path d="M59,110.946833 L123,111.053167" id="Path-89" stroke="#ECD43C" stroke-width="1.9"></path>
                <polyline id="Page-1" stroke="#ECD43C" stroke-width="1.9" points="59 100.631346 64.2975391 100.631346 67.3806115 93 69.7296644 103 71.9784937 95.0524403 74.4945861 102.017971 77.082267 95.2625945 78.9884265 100.094177 81.4787472 95.3156241 83.323818 99.2633801 91 99.2633801"></polyline>
                <polygon id="Triangle-1" stroke="#ECD43C" stroke-width="1.9" fill="#FFF5A7" points="66 120 69 131 63 131"></polygon>
                <polygon id="Triangle-1" stroke="#ECD43C" stroke-width="1.9" fill="#FFF5A7" points="76 123 78 131 74 131"></polygon>
                <polygon id="Triangle-1" stroke="#ECD43C" stroke-width="1.9" fill="#FFF5A7" points="84 126 86 131 82 131"></polygon>
                <polyline id="Page-1" stroke="#ECD43C" stroke-width="1.9" points="91 126.265226 95.3217355 126.265226 97.8519945 121.211198 100.751171 126.949902 104.281963 120 108.370399 127 111.133958 123.764244 114.13461 126.621807 116.720823 124.264244 123 124.330059"></polyline>
                <circle id="Oval-25" stroke="#ECD43C" stroke-width="1.9" fill="#FFF5A7" cx="106" cy="97" r="9"></circle>
                <g id="Page-1" transform="translate(104.000000, 87.000000)">
                    <mask id="mask-20" fill="white">
                        <use xlink:href="#path-19"></use>
                    </mask>
                    <g id="Clip-2"></g>
                    <path d="M1.23100141,1.58242311 C5.97331538,1.58242311 9.81818182,5.44952097 9.81818182,10.2199167 L0.99113604,10.9090909 L1.23100141,1.95450696" id="Fill-1" stroke="#ECD43C" stroke-width="1.9" fill="#FFF5A7" mask="url(#mask-20)"></path>
                </g>
                <g id="Page-1" transform="translate(18.000000, 151.000000)" stroke="#F3E485" stroke-width="1.9">
                    <path d="M27.6854002,0 L8.48398387,0 C6.04909483,0 1.00007661,1.47681558 0.33108169,6.3807961 C-0.33665097,11.2847766 0.188446925,27.2467711 0.33108169,29.8716917 C0.47497871,32.4975651 3.6722695,36 9.82071145,36 L57,36" id="Stroke-1"></path>
                </g>
                <use id="Rectangle-54" stroke="#ECD43C" mask="url(#mask-22)" stroke-width="3.8" fill="#FFF5A7" xlink:href="#path-21"></use>
                <g id="Page-1" transform="translate(68.000000, 179.000000)" stroke-width="1.9" stroke="#ECD43C" fill="#FDEC81">
                    <polygon id="Fill-1" points="12.2352941 19.1857143 35.6781176 19.1857143 35.6781176 14.2857143 12.2352941 14.2857143"></polygon>
                    <polygon id="Fill-2" points="0 3.67428571 3.67058824 3.67428571 3.67058824 0 0 0"></polygon>
                    <polygon id="Fill-3" points="9.41176471 3.67428571 13.0823529 3.67428571 13.0823529 0 9.41176471 0"></polygon>
                    <polygon id="Fill-4" points="17.8823529 3.67428571 21.5538824 3.67428571 21.5538824 0 17.8823529 0"></polygon>
                    <polygon id="Fill-5" points="26.3529412 3.67428571 30.0235294 3.67428571 30.0235294 0 26.3529412 0"></polygon>
                    <polygon id="Fill-6" points="34.8235294 3.67428571 38.4941176 3.67428571 38.4941176 0 34.8235294 0"></polygon>
                    <polygon id="Fill-7" points="44.2352941 3.67428571 47.9068235 3.67428571 47.9068235 0 44.2352941 0"></polygon>
                    <polygon id="Fill-8" points="0 11.2942857 3.67058824 11.2942857 3.67058824 7.61904762 0 7.61904762"></polygon>
                    <polygon id="Fill-9" points="9.41176471 11.2942857 13.0823529 11.2942857 13.0823529 7.61904762 9.41176471 7.61904762"></polygon>
                    <polygon id="Fill-10" points="17.8823529 11.2942857 21.5529412 11.2942857 21.5529412 7.61904762 17.8823529 7.61904762"></polygon>
                    <polygon id="Fill-11" points="26.3529412 11.2942857 30.0235294 11.2942857 30.0235294 7.61904762 26.3529412 7.61904762"></polygon>
                    <polygon id="Fill-12" points="35.7647059 11.2942857 39.4352941 11.2942857 39.4352941 7.61904762 35.7647059 7.61904762"></polygon>
                    <polygon id="Fill-13" points="44.2352941 11.2942857 47.9068235 11.2942857 47.9068235 7.61904762 44.2352941 7.61904762"></polygon>
                    <polygon id="Fill-14" points="0 19.1857143 7.44094118 19.1857143 7.44094118 14.2857143 0 14.2857143"></polygon>
                    <polygon id="Fill-15" points="40.4705882 19.1847619 47.9115294 19.1847619 47.9115294 14.2857143 40.4705882 14.2857143"></polygon>
                </g>
                <ellipse id="Oval-5" stroke="#ECD43C" stroke-width="1.9" fill="#FFF5A7" cx="116" cy="155" rx="6" ry="6"></ellipse>
                <path d="M117,151 C115.809021,151 113,152.087759 113,155" id="Path-31" stroke="#ECD43C" stroke-width="1.9"></path>
                <ellipse id="Oval-5" stroke="#ECD43C" stroke-width="1.9" fill="#FFF5A7" cx="69" cy="155" rx="6" ry="6"></ellipse>
                <path d="M69,152 C67.8090212,152 65,153.087759 65,156" id="Path-31" stroke="#ECD43C" stroke-width="1.9"></path>
                <ellipse id="Oval-5" stroke="#ECD43C" stroke-width="1.9" fill="#FFF5A7" cx="93" cy="155" rx="6" ry="6"></ellipse>
                <path d="M94,152 C92.8090212,152 90,153.087759 90,156" id="Path-31" stroke="#ECD43C" stroke-width="1.9"></path>
            </g>
        </g>
    </g>
</svg>