<?xml version="1.0" encoding="UTF-8" standalone="no"?>
<svg width="117px" height="119px" viewBox="0 0 117 119" version="1.1" xmlns="http://www.w3.org/2000/svg" xmlns:xlink="http://www.w3.org/1999/xlink">
    <!-- Generator: Sketch 3.8.3 (29802) - http://www.bohemiancoding.com/sketch -->
    <title>home-sme_process-4</title>
    <desc>Created with Sketch.</desc>
    <defs>
        <rect id="path-1" x="0" y="18" width="100" height="100"></rect>
        <mask id="mask-2" maskContentUnits="userSpaceOnUse" maskUnits="objectBoundingBox" x="0" y="0" width="100" height="100" fill="white">
            <use xlink:href="#path-1"></use>
        </mask>
        <rect id="path-3" x="17" y="2" width="100" height="100"></rect>
        <mask id="mask-4" maskContentUnits="userSpaceOnUse" maskUnits="objectBoundingBox" x="0" y="0" width="100" height="100" fill="white">
            <use xlink:href="#path-3"></use>
        </mask>
        <rect id="path-5" x="17" y="2" width="100" height="100"></rect>
        <mask id="mask-6" maskContentUnits="userSpaceOnUse" maskUnits="objectBoundingBox" x="0" y="0" width="100" height="100" fill="white">
            <use xlink:href="#path-5"></use>
        </mask>
    </defs>
    <g id="Page-1" stroke="none" stroke-width="1" fill="none" fill-rule="evenodd">
        <g id="Desktop-HD" transform="translate(-957.000000, -317.000000)">
            <g id="home-sme_process-4" transform="translate(957.000000, 318.000000)">
                <use id="Rectangle-18" stroke="#ECD43C" mask="url(#mask-2)" stroke-width="4" fill="#ECD43C" xlink:href="#path-1"></use>
                <use id="Rectangle-18" stroke="#ECD43C" mask="url(#mask-4)" stroke-width="4" fill="#FBF099" xlink:href="#path-3"></use>
                <use id="Rectangle-18" stroke="#ECD43C" mask="url(#mask-6)" stroke-width="4" fill="#FBF099" xlink:href="#path-5"></use>
                <polyline id="Stroke-10" stroke="#ECD43C" stroke-width="2" fill="#FFFBD2" points="79.7743748 50.3331484 80.7955141 64.7999997 70.322045 81.0525253 67.659732 62.6353515"></polyline>
                <polyline id="Stroke-12" stroke="#ECD43C" stroke-width="2" fill="#FFFBD2" points="61.0279342 37.8421465 47.4734691 42.8250124 37 59.0759321 54.8132071 53.9838702"></polyline>
                <polygon id="Fill-18" fill="#ECD43C" points="96.9255232 71.6230303 93.6381246 70.9258586 91.962058 68 90.2873986 70.9258586 87 71.6230303 89.2516429 74.1288889 88.8956018 77.4860606 91.962058 76.1086869 95.0299214 77.4860606 94.6738804 74.1288889"></polygon>
                <path d="M53,80.2428283 C53,81.4816162 54.0287193,82.4856566 55.2966757,82.4856566 C56.5660394,82.4856566 57.5947587,81.4816162 57.5947587,80.2428283 C57.5947587,79.0040404 56.5660394,78 55.2966757,78 C54.0287193,78 53,79.0040404 53,80.2428283" id="Fill-20" fill="#ECD43C"></path>
                <path d="M38,83.2428283 C38,84.4816162 39.0287193,85.4856566 40.2966757,85.4856566 C41.5660394,85.4856566 42.5947587,84.4816162 42.5947587,83.2428283 C42.5947587,82.0040404 41.5660394,81 40.2966757,81 C39.0287193,81 38,82.0040404 38,83.2428283" id="Fill-22" fill="#ECD43C"></path>
                <path d="M39,68.2428283 C39,69.4816162 40.0287193,70.4856566 41.2966757,70.4856566 C42.5660394,70.4856566 43.5947587,69.4816162 43.5947587,68.2428283 C43.5947587,67.0040404 42.5660394,66 41.2966757,66 C40.0287193,66 39,67.0040404 39,68.2428283" id="Fill-24" fill="#ECD43C"></path>
                <g id="Group-7" transform="translate(55.168730, 0.369141)">
                    <path d="M3.92915379,62.2676791 C-0.216128284,59.569898 -0.650791632,54.7347676 1.27323289,49.7904413 C1.27323289,49.7904413 14.2683886,17.6370653 24.2480673,8.60592182 C28.6538278,4.61866554 41.3805149,-1.14784164 43.7471929,0.392141758 C46.1138709,1.93212516 46.0819104,15.9605871 44.2649537,21.6307449 C40.14524,34.4773217 16.2643243,59.5458106 16.2643243,59.5458106 C12.5616957,63.3323391 7.99293649,64.9124681 3.84765441,62.214687" id="Fill-4" fill="#FEFEFE"></path>
                    <path d="M1.27323289,49.7904413 C1.27323289,49.7904413 14.2683886,17.6370653 24.2480673,8.60592182 C28.6538278,4.61866554 41.3805149,-1.14784164 43.7471929,0.392141758 C46.1138709,1.93212516 46.0819104,15.9605871 44.2649537,21.6307449 C40.14524,34.4773217 16.2643243,59.5458106 16.2643243,59.5458106 C12.5616957,63.3323391 7.99293649,64.9124681 3.84765441,62.214687 C-0.216128284,59.569898 -0.650791632,54.7347676 1.27323289,49.7904413 Z" id="Stroke-6" stroke="#ECD43C" stroke-width="2" fill="#FFFBD2"></path>
                </g>
                <path d="M73.3955314,40.1132377 L52.8976388,71.9197561" id="Stroke-8" stroke="#ECD43C" stroke-width="2"></path>
                <path d="M79.7164667,30.5758625 C82.7351397,32.539783 86.7685599,31.672639 88.7229469,28.6392411 C90.677334,25.6058431 89.8159974,21.5543539 86.7973244,19.5904335 C83.7770533,17.6249072 79.7452312,18.4920512 77.7908441,21.5254491 C75.8364571,24.5588471 76.6977937,28.6103363 79.7164667,30.5758625 Z" id="Stroke-14" stroke="#ECD43C" stroke-width="2" fill="#FFF5A7"></path>
                <path d="M100.200822,16.8781389 L83.5573709,6.04686878" id="Stroke-16" stroke="#ECD43C" stroke-width="2"></path>
            </g>
        </g>
    </g>
</svg>