<svg xmlns="http://www.w3.org/2000/svg" xmlns:xlink="http://www.w3.org/1999/xlink" viewBox="-331 -272 317 1064"><title>home-newsletter-left-pattern</title><defs><path id="a" transform="rotate(-134.999 -33.493 207.502)" d="M-43.5 197.5h20v20h-20z"/></defs><clipPath id="b"><use xlink:href="#a" overflow="visible"/></clipPath><g clip-path="url(#b)"><defs><path id="c" d="M-328.6-7682.6h1440v8814h-1440z"/></defs><clipPath id="d"><use xlink:href="#c" overflow="visible"/></clipPath><path transform="rotate(-134.999 -33.494 207.502)" clip-path="url(#d)" fill="none" stroke="#969696" stroke-width="10" stroke-miterlimit="10" d="M-43.5 197.5h20v20h-20z"/></g><path fill="none" stroke="#969696" stroke-width="5" stroke-miterlimit="10" d="M-332.6 17.6c24.3 0 93.5-.3 93.5-.3s26.1.1 28.6 17.1c2.6 17 1.4 194.9 1.4 194.9s-4.5 44.3 37.1 39.1"/><circle fill="none" stroke="#DCDCDC" stroke-width="6" stroke-miterlimit="10" cx="-163.6" cy="268.4" r="8"/><defs><path id="e" d="M-173.1 532.4l17.9 29.9-18.7 27-17.7-26.3 18.5-30.6"/></defs><clipPath id="f"><use xlink:href="#e" overflow="visible"/></clipPath><g clip-path="url(#f)"><defs><path id="g" d="M-328.6-7682.6h1440v8814h-1440z"/></defs><clipPath id="h"><use xlink:href="#g" overflow="visible"/></clipPath><path clip-path="url(#h)" fill="none" stroke="#29ABE1" stroke-width="10" stroke-miterlimit="10" d="M-173.1 532.4l17.9 29.9-18.7 27-17.7-26.3 18.5-30.6"/></g><path fill="none" stroke="#B5B5B5" stroke-width="5" stroke-miterlimit="10" d="M-332 566.5h11.8s26-3.8 26 28.8c0 43.6-.2 93.5 1.6 129.1 1.7 35.6 27.7-2 44.9-.9s17 19.7 32.2 19.7c15.2 0 19.4-18 33.3-18 15.7 0 17.4 17.1 30.6 18 14.1-.8 16.2-16.2 30-16.6s20.3 16.6 32.6 16.6"/><path fill="none" stroke="#DCDCDC" stroke-width="5" stroke-miterlimit="10" d="M-129.6 476.4c1.3 0 31.6-2.5 31 30.1-.4 21.2-.8 83.3-1 123.9"/><defs><path id="i" d="M-98.6 491.4h1v2h-1z"/></defs><clipPath id="j"><use xlink:href="#i" overflow="visible"/></clipPath><g clip-path="url(#j)"><defs><path id="k" d="M-328.6-7682.6h1440v8814h-1440z"/></defs><clipPath id="l"><use xlink:href="#k" overflow="visible"/></clipPath><path clip-path="url(#l)" fill="#D8D8D8" d="M-98.6 491.4h1v2h-1z"/></g><defs><path id="m" d="M-98.6 491.4h1v2h-1z"/></defs><clipPath id="n"><use xlink:href="#m" overflow="visible"/></clipPath><g clip-path="url(#n)"><defs><path id="o" d="M-328.6-7682.6h1440v8814h-1440z"/></defs><clipPath id="p"><use xlink:href="#o" overflow="visible"/></clipPath><path clip-path="url(#p)" fill="none" stroke="#979797" stroke-width="2" stroke-miterlimit="10" d="M-98.6 491.4h1v2h-1z"/></g><g><defs><path id="q" transform="rotate(-134.999 -69.494 8.5)" d="M-79.5-1.5h20v20h-20z"/></defs><clipPath id="r"><use xlink:href="#q" overflow="visible"/></clipPath><g clip-path="url(#r)"><defs><path id="s" d="M-328.6-7682.6h1440v8814h-1440z"/></defs><clipPath id="t"><use xlink:href="#s" overflow="visible"/></clipPath><path transform="rotate(-134.999 -69.494 8.5)" clip-path="url(#t)" fill="none" stroke="#29ABE1" stroke-width="10" stroke-miterlimit="10" d="M-79.5-1.5h20v20h-20z"/></g></g><path fill="none" stroke="#DCDCDC" stroke-width="5" stroke-miterlimit="10" d="M-128.5 476.4l-202.5.2"/><circle fill="none" stroke="#FFD95F" stroke-width="6" stroke-miterlimit="10" cx="-198.6" cy="418.4" r="8"/><path fill="none" stroke="#B0B0B0" stroke-width="5" stroke-miterlimit="10" d="M-145.6-271.6v90.7s1.3 20.7 29 20.7 47.5 8.2 47.5 38.9V-1.6"/><circle fill="none" stroke="#29ABE1" stroke-width="6" stroke-miterlimit="10" cx="-83.6" cy="740.4" r="8"/><circle fill="none" stroke="#FFD95F" stroke-width="6" stroke-miterlimit="10" cx="-100.6" cy="638.4" r="8"/></svg>