<svg xmlns="http://www.w3.org/2000/svg" width="113" height="119" viewBox="0 0 113 119"><g fill="none" fill-rule="evenodd"><path fill="#B0B0B0" d="M0 24h95v95H0z"/><path fill="#727272" d="M16 11h95v95H16z"/><path fill="#FFCF3D" d="M46.926 84.623l-3.288-.697L41.962 81l-1.675 2.926-3.287.697 2.252 2.506-.356 3.357 3.066-1.377 3.068 1.377-.356-3.357zM42 60.243c0 1.239 1.029 2.243 2.297 2.243 1.269 0 2.298-1.004 2.298-2.243 0-1.239-1.029-2.243-2.298-2.243C43.029 58 42 59.004 42 60.243m-15 9c0 1.239 1.029 2.243 2.297 2.243 1.269 0 2.298-1.004 2.298-2.243 0-1.239-1.029-2.243-2.298-2.243C28.029 67 27 68.004 27 69.243m37 13c0 1.239 1.029 2.243 2.297 2.243 1.269 0 2.298-1.004 2.298-2.243 0-1.239-1.029-2.243-2.298-2.243C65.029 80 64 81.004 64 82.243"/><g stroke-width="4"><path fill="#2597C6" stroke="#2697C6" d="M101.669 36l.899 12.74-9.223 14.313L91 46.834M82.16 24l-11.937 4.388L61 42.699l15.687-4.484"/><path fill="#29ABE1" stroke="#29ABE1" d="M71.967 45.727S83.411 17.41 92.2 9.458c3.88-3.511 15.087-8.59 17.171-7.233 2.085 1.356 2.056 13.71.456 18.703-3.628 11.313-24.658 33.39-24.658 33.39-3.26 3.334-7.284 4.726-10.935 2.35-3.578-2.33-3.961-6.587-2.267-10.941z"/><path fill="#7CE3FF" stroke="#7CE3FF" d="M88.618 34.601a5.72 5.72 0 0 0 7.931-1.705c1.721-2.672.963-6.24-1.696-7.97a5.718 5.718 0 0 0-7.931 1.705c-1.721 2.671-.963 6.24 1.696 7.97z"/><path stroke="#4FC3F2" d="M110.536 21.035L92 9"/><path stroke="#4FC3F3" d="M84.051 43L66 71.01"/></g></g></svg>