<svg width="399" height="313" viewBox="0 0 399 313" xmlns="http://www.w3.org/2000/svg" xmlns:xlink="http://www.w3.org/1999/xlink"><title>home-services-reporting-icon</title><defs><path id="a" d="M0 312.108h398.837V.286H0z"/></defs><g fill="none" fill-rule="evenodd"><path fill="#2495C4" d="M78.266 79.995h20.33V41.608h-20.33z"/><g transform="translate(0 .512)"><path d="M377.322 157.879h-44.36v-5.675h44.124c1.41-.134 15.077-1.72 14.315-12.369-.985-13.766-.82-92.603-.81-97.78-.172-1.476-2.06-14.609-14.638-14.85-15.606-.3-106.478-.135-107.393-.135-.617.002-14.965.168-17.104 11.9-2.08 11.396-1.76 33.22-1.757 33.439l-5.673.088c-.013-.915-.329-22.606 1.85-34.547 2.388-13.103 15.816-16.555 22.633-16.555h.053c.904 0 91.834-.165 107.501.136 14.517.278 19.555 13.277 20.19 20.113l.011.269c-.001.836-.187 83.79.795 97.516.95 13.29-12.422 17.873-19.625 18.44l-.112.01z" fill="#5AB9E1"/><mask id="b" fill="#fff"><use xlink:href="#a"/></mask><path fill="#29ABE1" mask="url(#b)" d="M43.366 300.078h293.13V72.455H43.367z"/><path fill="#EF4136" mask="url(#b)" d="M89.871 111.112h1.891V97.325h-1.89zM108.358 112.418h1.89V98.632h-1.89z"/><path fill="#29ABE1" mask="url(#b)" d="M280.902 34.065h11.211v-20.36h-11.211zM301.723 34.366h11.214v-20.36h-11.214z"/><path d="M389.101 47.616c-.113-16.078-2.403-19.856-24.687-20.028l.074-9.458c26.268.204 33.91 6.802 34.068 29.42l-9.455.066z" fill="#7CC7E6" mask="url(#b)"/><path d="M392.219 34.224c-1.77-4.487-3.973-8.662-11.386-10.444l.44-1.84c8.292 1.995 10.823 6.819 12.706 11.59l-1.76.694z" fill="#BFDBE6" mask="url(#b)"/><path d="M375.92 159.085c-1.721 0-3.342-.09-4.78-.172-.91-.05-1.763-.1-2.538-.115l.2-9.454c.874.017 1.838.07 2.865.126 4.722.265 10.595.592 13.952-2.672 2.685-2.613 3.944-7.55 3.742-14.673l9.451-.27c.284 10.017-1.874 17.122-6.601 21.722-4.777 4.65-11.002 5.508-16.291 5.508" fill="#7CC7E6" mask="url(#b)"/><path d="M383.806 155.941l-.584-1.799c4.457-1.445 7.588-4.269 9.572-8.64l1.723.785c-2.218 4.88-5.72 8.039-10.711 9.654" fill="#BFDBE6" mask="url(#b)"/><path fill="#2495C4" mask="url(#b)" d="M79.142 113.659h129.212V95.163H79.142z"/><path fill="#474747" mask="url(#b)" d="M79.142 221.68h129.212v-95.159H79.142z"/><path fill="#B1CED9" mask="url(#b)" d="M85.549 312.108H202.48v-54.202H85.55z"/><path fill="#2495C4" mask="url(#b)" d="M21.608 100.943h21.758V96.32H21.608z"/><path d="M22.146 98.63c0 5.08-4.065 9.195-9.08 9.195-5.017 0-9.083-4.116-9.083-9.195 0-5.078 4.066-9.194 9.083-9.194 5.015 0 9.08 4.116 9.08 9.194" fill="#29ABE1" mask="url(#b)"/><path fill="#2495C4" mask="url(#b)" d="M21.608 140.85h21.758v-4.625H21.608z"/><path d="M22.146 138.537c0 5.08-4.065 9.195-9.08 9.195-5.017 0-9.083-4.116-9.083-9.195 0-5.078 4.066-9.195 9.083-9.195 5.015 0 9.08 4.117 9.08 9.195" fill="#29ABE1" mask="url(#b)"/><path fill="#4D4D4D" mask="url(#b)" d="M229.009 184.375h14.816V97.327h-14.816zM262.281 184.375h14.816V97.327h-14.816zM294.318 184.375h14.816V97.327h-14.816z"/><path fill="#5D5D5D" mask="url(#b)" d="M226.44 273.044h86.297v-69.139h-86.298z"/><path d="M103.439 240.857c0 5.127-4.104 9.28-9.164 9.28-5.062 0-9.165-4.153-9.165-9.28 0-5.126 4.103-9.28 9.165-9.28 5.06 0 9.164 4.154 9.164 9.28" fill="#2495C4" mask="url(#b)"/><path d="M9.48 99.407l-3.774-.244c.352-5.463 4.315-7.445 6.893-7.445V95.5c-.117 0-2.87.043-3.118 3.906M9.48 139.754l-3.774-.244c.352-5.463 4.315-7.445 6.893-7.445v3.783c-.117 0-2.87.043-3.118 3.906" fill="#2EC2FF" mask="url(#b)"/><path d="M87.283 292.779h-70.68c-10.713 0-15.867-8.174-16.106-13.98-.232-5.676-.996-37.12.01-46.908 1.076-10.468 9.215-14.366 14.093-14.366h28.766v3.783H14.6c-2.386 0-9.411 2.014-10.332 10.97-.981 9.548-.193 41.443.008 46.365.172 4.175 4.209 10.353 12.327 10.353h70.68v3.783z" fill="#B1CED9" mask="url(#b)"/><path d="M97.539 240.18c-.94-1.73-2.58-2.893-4.5-3.19l.578-3.74c3.098.48 5.74 2.347 7.246 5.124l-3.324 1.807z" fill="#27A3D6" mask="url(#b)"/><path d="M135.622 241.156c0 5.126-4.103 9.28-9.163 9.28-5.063 0-9.166-4.154-9.166-9.28 0-5.126 4.103-9.28 9.166-9.28 5.06 0 9.163 4.154 9.163 9.28" fill="#2495C4" mask="url(#b)"/><path d="M129.722 240.48c-.94-1.73-2.58-2.894-4.5-3.191l.578-3.74c3.098.48 5.74 2.348 7.246 5.124l-3.324 1.807z" fill="#27A3D6" mask="url(#b)"/><path d="M166.08 241.156c0 5.126-4.103 9.28-9.163 9.28-5.063 0-9.166-4.154-9.166-9.28 0-5.126 4.103-9.28 9.166-9.28 5.06 0 9.163 4.154 9.163 9.28" fill="#2495C4" mask="url(#b)"/><path d="M160.18 240.48c-.94-1.73-2.58-2.894-4.5-3.191l.578-3.74c3.098.48 5.74 2.348 7.247 5.124l-3.325 1.807z" fill="#27A3D6" mask="url(#b)"/><path d="M201.533 240.857c0 5.127-4.103 9.28-9.164 9.28-5.062 0-9.165-4.153-9.165-9.28 0-5.126 4.103-9.28 9.165-9.28 5.06 0 9.164 4.154 9.164 9.28" fill="#2495C4" mask="url(#b)"/><path d="M195.634 240.18c-.94-1.73-2.58-2.893-4.5-3.19l.578-3.74c3.095.48 5.737 2.347 7.246 5.124l-3.324 1.807z" fill="#27A3D6" mask="url(#b)"/><path d="M66.186 12.76s-9.62-4.049-12.367 1.785c-2.746 5.831-.078 10.534 3.506 11.137 3.583.605 18.711-1.838 23.837 5.925 2.064 3.123 4.013-17.851-2.897-27.23-2.84-3.855-10.44-6.07-13.418-1.655-2.048 3.034 1.339 10.039 1.339 10.039" fill="#C6E6F2" mask="url(#b)"/><path fill="#616161" mask="url(#b)" d="M142.8 221.658h1.891v-95.135h-1.89z"/><path d="M83.895 175.417c-2.651 0-4.325-.006-4.777-.015l.046-1.892c4.343.113 127.51-.35 128.752-.354l.007 1.892c-4.555.015-101.007.369-124.028.369" fill="#616161" mask="url(#b)"/><path fill="#FFD219" mask="url(#b)" d="M100.313 165.602l-4.809-19.897-5.238 12.607H79.14v-1.891h9.864l6.975-16.792 4.503 18.625 4.26-14.643 5.12 13.78 5.088-12.91 3.909 9.63 4.86-9.07 4.203 8.745h14.612v1.891h-15.801l-3.105-6.461-5.006 9.338-3.646-8.983-5.166 13.11-4.85-13.051zM163.987 202.663l-5.773-11.039-4.472 8.631h-9.194v-1.891h8.042l5.616-10.833 5.787 11.062 6.981-13.27 8.353 13.81 5.298-5.988 6.067 5.578 4.788-4.216 12.883.13-.019 1.892-12.159-.123-5.522 4.863-5.9-5.427-5.724 6.471-7.951-13.148z"/><path fill="#96D8F2" mask="url(#b)" d="M93.157 190.652l-5.382 17.888h11.23zM112.477 186.624l-5.382 21.915h11.23zM129.765 195.07l-3.307 13.47h6.902z"/><path d="M188.998 152.298c0 7.712-6.214 13.963-13.878 13.963-7.667 0-13.878-6.251-13.878-13.963 0-7.712 6.211-13.964 13.878-13.964 7.664 0 13.878 6.252 13.878 13.964" fill="#FFE370" mask="url(#b)"/><path d="M175.507 138.335c7.664 0 13.878 6.251 13.878 13.963l-14.266 1.114.388-14.476" fill="#96D8F2" mask="url(#b)"/><path fill="#FFD219" mask="url(#b)" d="M232.817 181.94h7.2v-47.849h-7.2z"/><path fill="#BFDFEC" mask="url(#b)" d="M118.004 305.486h47.1v-9.732h-47.1zM97.127 273.044h7.375v-7.3h-7.375zM114.273 273.044h7.375v-7.3h-7.375zM131.42 273.044h7.375v-7.3h-7.375zM148.566 273.044h7.375v-7.3h-7.375zM165.712 273.044h7.375v-7.3h-7.375zM182.857 273.044h7.375v-7.3h-7.375zM97.462 288.657h7.375v-7.3h-7.375zM114.608 288.657h7.374v-7.3h-7.374zM131.753 288.657h7.375v-7.3h-7.375zM148.899 288.657h7.375v-7.3h-7.375zM166.045 288.657h7.374v-7.3h-7.374zM183.192 288.657h7.375v-7.3h-7.375zM95.425 305.486h14.95v-9.732h-14.95z"/><path d="M288.474 240.242c0 10.266-8.41 18.587-18.786 18.587-10.374 0-18.783-8.321-18.783-18.587 0-10.265 8.41-18.586 18.783-18.586 10.376 0 18.786 8.32 18.786 18.586" fill="#FFD219" mask="url(#b)"/><path d="M269.689 249.286c-3.672 0-7.095-2.02-8.933-5.272l1.645-.93c1.503 2.659 4.296 4.31 7.288 4.31 2.797 0 5.404-1.422 6.976-3.804l1.579 1.042c-1.921 2.913-5.12 4.654-8.555 4.654M262.526 235.446c0 .993-.796 1.799-1.776 1.799a1.789 1.789 0 0 1-1.777-1.8c0-.992.796-1.798 1.777-1.798.98 0 1.776.806 1.776 1.799M280.342 235.446c0 .993-.797 1.799-1.776 1.799a1.789 1.789 0 0 1-1.778-1.8c0-.992.796-1.798 1.778-1.798.98 0 1.776.806 1.776 1.799" fill="#474747" mask="url(#b)"/><path fill="#FFD219" mask="url(#b)" d="M265.99 181.06h7.198v-22.167h-7.199zM298.127 181.06h7.199v-11.082h-7.2z"/><path fill="#BFDFEC" mask="url(#b)" d="M175.728 304.945h14.95v-9.732h-14.95z"/><path d="M96.68 22.758s-.707-6.159-4.525-5.882c-3.818.278-4.581 2.128-4.742 5.06-.16 2.933 6.403 9.15 3.882 14.065-1.015 1.979 10.404-3.123 13.243-9.433 1.166-2.593.098-7.17-3.054-7.428-2.166-.176-4.803 3.618-4.803 3.618" fill="#C6E6F2" mask="url(#b)"/></g></g></svg>