<svg width="346" height="441" viewBox="0 0 346 441" xmlns="http://www.w3.org/2000/svg" xmlns:xlink="http://www.w3.org/1999/xlink"><title>home-services-delivery-icon</title><defs><path id="a" d="M0 440.233h345.987V.012H0z"/></defs><g fill="none" fill-rule="evenodd"><path fill="#29ABE1" d="M130.097 98.362l-58.13 52.77v236.504h274.02V172.445l-35.983-74.083z"/><path fill="#F2F2F2" d="M101.324 283.569h215.308V172.444H101.324z"/><path fill="#96D8F2" d="M60.455 405.276h144.507V306.5H60.455z"/><path fill="#1C2845" d="M78.445 387.638h113.749v-68.204H78.445z"/><path fill="#80C5E0" d="M90.198 418.346h84.877v-13.07H90.198z"/><path fill="#B1DFF2" d="M182.039 425.928H83.235l6.963-9.26h84.877z"/><path fill="#96D8F2" d="M83.232 440.26h98.806v-14.332H83.232z"/><g transform="translate(0 .027)"><path d="M312.778 335.987c0 19.67-15.738 35.613-35.15 35.613-19.416 0-35.154-15.944-35.154-35.613 0-19.668 15.738-35.612 35.153-35.612 19.413 0 35.151 15.944 35.151 35.612z" fill="#44B3E1"/><mask id="b" fill="#fff"><use xlink:href="#a"/></mask><path fill="#FFD219" mask="url(#b)" d="M222.17 127.837h12.295v-11.873H222.17zM249.01 127.837h12.296v-11.873H249.01z"/><path fill="#FAEE9D" mask="url(#b)" d="M275.852 127.837h12.295v-11.873h-12.295z"/><path fill="#FFD219" mask="url(#b)" d="M222.17 153.278h12.295v-11.873H222.17z"/><path fill="#FAEE9D" mask="url(#b)" d="M249.01 153.278h12.296v-11.873H249.01z"/><path fill="#FFD219" mask="url(#b)" d="M275.852 153.278h12.295v-11.873h-12.295z"/><path fill="#B4B5B5" mask="url(#b)" d="M123.084 269.834H141.8V223.57h-18.716zM147.654 269.834h18.716v-63.069h-18.716zM172.222 269.834h18.716v-63.069h-18.716z"/><path d="M169.955 23.592c7.627 2.194 10.091 9.303 10.091 17.735v41.87h-36.388v-41.87c0-8.187 3.556-15.33 10.844-17.735l-.018-16.117c0-4.122 3.299-7.463 7.368-7.463 4.07 0 7.369 3.341 7.369 7.463l.734 16.117z" fill="#F2F2F2" mask="url(#b)"/><path fill="#44B3E1" mask="url(#b)" d="M135.87 98.336h51.964v-15.14h-51.963z"/><path d="M73.223 179.106H55.812s-8.704.607-8.994-9.04c-.004-.095 0 0 0 0l.99-27.23s-.012.195 0 0c.685-12.077-5.122-16.18-12.59-16.366-11.9-.294-11.97 10.661-12.54 18.462-.86 11.747-.414 137.912-.216 172.802.028 5.205.226 9.304.215 9.592-.232 7.42-.573 15.851 17.422 15.851 6.797 0 24.563.19 24.563.19s6.674 5.878-.363 11.905c-.154.132 0 0 0 0s-28.718.17-31.445 0c-10.666-.66-19.099-6.61-19.968-18.517-.872-11.906-.005-202.915-.005-202.915s-.957-17.877 22.62-17.877c16.866 0 21.986 10.526 22.566 18.315.296 3.974-.296 18.205-.296 18.205s.113.168-.058 5.237c-.29 8.598.193 11.03 6.641 11.19 3.63.088 11.915.053 11.915.053" fill="#29ABE1" mask="url(#b)"/><path d="M34.36 207.745c0 3.206-2.622 5.831-5.827 5.831H5.826c-3.205 0-5.825-2.625-5.825-5.831v-15.459c0-3.207 2.62-5.83 5.825-5.83h22.707c3.205 0 5.827 2.623 5.827 5.83v15.459z" fill="#44B3E1" mask="url(#b)"/><path fill="#1C2845" mask="url(#b)" d="M223.824 270.314h79.508v-82.02h-79.508z"/><path fill="#FFD219" mask="url(#b)" d="M233.398 247.103l-2.898-2.92 17.45-17.35 4.7 9.526 18.109-21.2 7.989 17.051 14.207-19.833 3.342 2.396-18.293 25.54-8.26-17.633-18.018 21.094-4.933-9.994z"/><path fill="#5D5D5D" mask="url(#b)" d="M160.825 83.196h2.055V54.974h-2.055z"/><path fill="#5D5D5D" mask="url(#b)" d="M151.787 56.443h20.386v-2.057h-20.386z"/><path fill="#0790C9" mask="url(#b)" d="M190.876 172.418h2.056V98.336h-2.056zM186.807 306.473h2.055v-22.931h-2.055z"/><path fill="#FAEE9D" mask="url(#b)" d="M99.34 332.163h71.166v-2.057H99.34zM99.338 345.698h50.466v-2.057H99.338zM99.34 359.23h43.235v-2.056H99.34zM99.34 372.764h64.418v-2.057H99.34z"/><path d="M303.457 335.31c0 14.453-11.564 26.17-25.83 26.17-14.267 0-25.83-11.717-25.83-26.17 0-14.452 11.563-26.168 25.83-26.168 14.266 0 25.83 11.716 25.83 26.169" fill="#F2F2F2" mask="url(#b)"/><path fill="#474747" mask="url(#b)" d="M276.6 319.885h2.055v-5.733H276.6zM266.886 324.81l-4.353-4.704 1.509-1.397 4.351 4.702zM263.721 334.714l-6.384-.012.004-2.057 6.384.012zM287.8 324.81l-1.506-1.399 4.351-4.702 1.509 1.397z"/><path d="M149.551 40.128h-2.055c0-6.994 6.082-12.65 8.546-13.068l.342 2.03c-1.112.187-6.833 4.591-6.833 11.038" fill="#FFF" mask="url(#b)"/><path fill="#4DCBFF" mask="url(#b)" d="M140.255 88.657h42.365V86.6h-42.365z"/><path d="M237.279 23.592c7.627 2.194 10.092 9.303 10.092 17.735v41.87h-36.389v-41.87c0-8.187 3.556-15.33 10.844-17.735l-.018-16.117c0-4.122 3.299-7.463 7.368-7.463 4.07 0 7.369 3.341 7.369 7.463l.734 16.117z" fill="#F2F2F2" mask="url(#b)"/><path fill="#44B3E1" mask="url(#b)" d="M203.194 98.336h51.964v-15.14h-51.964z"/><path fill="#5D5D5D" mask="url(#b)" d="M228.149 83.196h2.055V54.974h-2.055z"/><path fill="#5D5D5D" mask="url(#b)" d="M219.111 56.443h20.385v-2.057h-20.385z"/><path d="M216.875 40.128h-2.055c0-6.994 6.082-12.65 8.548-13.068l.341 2.03c-1.112.187-6.834 4.591-6.834 11.038" fill="#FFF" mask="url(#b)"/><path fill="#4DCBFF" mask="url(#b)" d="M207.578 88.657h42.366V86.6h-42.366z"/><path d="M182.624 113.24c0 1.504-1.203 2.722-2.687 2.722-1.484 0-2.686-1.218-2.686-2.721 0-1.504 1.202-2.722 2.686-2.722s2.687 1.218 2.687 2.722M182.624 128.038c0 1.503-1.203 2.721-2.687 2.721-1.484 0-2.686-1.218-2.686-2.721 0-1.504 1.202-2.722 2.686-2.722s2.687 1.218 2.687 2.722M182.734 157.632c0 1.503-1.203 2.72-2.687 2.72-1.484 0-2.686-1.217-2.686-2.72 0-1.504 1.202-2.722 2.686-2.722s2.687 1.218 2.687 2.722M182.624 142.835c0 1.503-1.203 2.721-2.687 2.721-1.484 0-2.686-1.218-2.686-2.721 0-1.504 1.202-2.722 2.686-2.722s2.687 1.218 2.687 2.722M182.694 296.477c0 1.504-1.203 2.721-2.687 2.721-1.484 0-2.686-1.217-2.686-2.72 0-1.505 1.202-2.722 2.686-2.722s2.687 1.217 2.687 2.721" fill="#0790C9" mask="url(#b)"/><path d="M34.92 350.845c-5.958 0-17.524-2.331-18.648-11.151-.257-2.029-.417-8.66-.487-20.28l2.055-.012c.07 11.375.226 18.115.47 20.032 1.18 9.247 16.456 9.354 16.61 9.354v2.057zM18.49 136.683l-2.046-.204c.32-3.236.905-6.027 1.782-8.534 3.219-9.189 14.741-8.81 16.044-8.734l-.115 2.052c-1.136-.065-11.267-.409-13.99 7.362-.823 2.352-1.371 4.987-1.676 8.058" fill="#2DBAF6" mask="url(#b)"/><path fill="#474747" mask="url(#b)" d="M296.964 335.417l-6.384-.012.004-2.057 6.384.012zM279.39 344.695c-.696 2.072-1.83 3.68-2.934 3.3-1.104-.38-1.118-2.292-.423-4.363.694-2.071 6.155-14.763 6.883-14.512.793.274-2.832 13.504-3.527 15.575"/><path d="M282.226 347.32c0 2.76-2.21 5-4.935 5-2.725 0-4.935-2.24-4.935-5 0-2.761 2.21-5.001 4.935-5.001 2.726 0 4.935 2.24 4.935 5" fill="#616161" mask="url(#b)"/><path d="M7.551 194.572h17.806" stroke="#73CFF6" stroke-width="2" mask="url(#b)"/></g></g></svg>