<?xml version="1.0" encoding="UTF-8" standalone="no"?>
<svg width="255px" height="220px" viewBox="0 0 255 220" version="1.1" xmlns="http://www.w3.org/2000/svg" xmlns:xlink="http://www.w3.org/1999/xlink">
    <!-- Generator: Sketch 3.8.3 (29802) - http://www.bohemiancoding.com/sketch -->
    <title>home-enterprise_features-delivery.svg</title>
    <desc>Created with Sketch.</desc>
    <defs>
        <rect id="path-1" x="42" y="96" width="179" height="100"></rect>
        <mask id="mask-2" maskContentUnits="userSpaceOnUse" maskUnits="objectBoundingBox" x="0" y="0" width="179" height="100" fill="white">
            <use xlink:href="#path-1"></use>
        </mask>
        <rect id="path-3" x="39" y="100" width="7" height="35"></rect>
        <mask id="mask-4" maskContentUnits="userSpaceOnUse" maskUnits="objectBoundingBox" x="0" y="0" width="7" height="35" fill="white">
            <use xlink:href="#path-3"></use>
        </mask>
        <rect id="path-5" x="42" y="127" width="99" height="8"></rect>
        <mask id="mask-6" maskContentUnits="userSpaceOnUse" maskUnits="objectBoundingBox" x="0" y="0" width="99" height="8" fill="white">
            <use xlink:href="#path-5"></use>
        </mask>
        <rect id="path-7" x="55" y="147" width="77" height="16"></rect>
        <mask id="mask-8" maskContentUnits="userSpaceOnUse" maskUnits="objectBoundingBox" x="0" y="0" width="77" height="16" fill="white">
            <use xlink:href="#path-7"></use>
        </mask>
        <rect id="path-9" x="145" y="171" width="7" height="7"></rect>
        <mask id="mask-10" maskContentUnits="userSpaceOnUse" maskUnits="objectBoundingBox" x="0" y="0" width="7" height="7" fill="white">
            <use xlink:href="#path-9"></use>
        </mask>
        <rect id="path-11" x="155" y="171" width="7" height="7"></rect>
        <mask id="mask-12" maskContentUnits="userSpaceOnUse" maskUnits="objectBoundingBox" x="0" y="0" width="7" height="7" fill="white">
            <use xlink:href="#path-11"></use>
        </mask>
        <rect id="path-13" x="165" y="171" width="7" height="7"></rect>
        <mask id="mask-14" maskContentUnits="userSpaceOnUse" maskUnits="objectBoundingBox" x="0" y="0" width="7" height="7" fill="white">
            <use xlink:href="#path-13"></use>
        </mask>
        <rect id="path-15" x="145" y="181" width="7" height="7"></rect>
        <mask id="mask-16" maskContentUnits="userSpaceOnUse" maskUnits="objectBoundingBox" x="0" y="0" width="7" height="7" fill="white">
            <use xlink:href="#path-15"></use>
        </mask>
        <rect id="path-17" x="155" y="181" width="7" height="7"></rect>
        <mask id="mask-18" maskContentUnits="userSpaceOnUse" maskUnits="objectBoundingBox" x="0" y="0" width="7" height="7" fill="white">
            <use xlink:href="#path-17"></use>
        </mask>
        <rect id="path-19" x="165" y="181" width="7" height="7"></rect>
        <mask id="mask-20" maskContentUnits="userSpaceOnUse" maskUnits="objectBoundingBox" x="0" y="0" width="7" height="7" fill="white">
            <use xlink:href="#path-19"></use>
        </mask>
        <rect id="path-21" x="189" y="86" width="17.8552632" height="12"></rect>
        <mask id="mask-22" maskContentUnits="userSpaceOnUse" maskUnits="objectBoundingBox" x="0" y="0" width="17.8552632" height="12" fill="white">
            <use xlink:href="#path-21"></use>
        </mask>
        <rect id="path-23" x="72" y="89" width="15" height="9"></rect>
        <mask id="mask-24" maskContentUnits="userSpaceOnUse" maskUnits="objectBoundingBox" x="0" y="0" width="15" height="9" fill="white">
            <use xlink:href="#path-23"></use>
        </mask>
        <rect id="path-25" x="145" y="89" width="15" height="9"></rect>
        <mask id="mask-26" maskContentUnits="userSpaceOnUse" maskUnits="objectBoundingBox" x="0" y="0" width="15" height="9" fill="white">
            <use xlink:href="#path-25"></use>
        </mask>
        <rect id="path-27" x="105" y="55" width="7" height="9"></rect>
        <mask id="mask-28" maskContentUnits="userSpaceOnUse" maskUnits="objectBoundingBox" x="0" y="0" width="7" height="9" fill="white">
            <use xlink:href="#path-27"></use>
        </mask>
        <rect id="path-29" x="118" y="55" width="7" height="9"></rect>
        <mask id="mask-30" maskContentUnits="userSpaceOnUse" maskUnits="objectBoundingBox" x="0" y="0" width="7" height="9" fill="white">
            <use xlink:href="#path-29"></use>
        </mask>
    </defs>
    <g id="Page-1" stroke="none" stroke-width="1" fill="none" fill-rule="evenodd">
        <g id="Desktop-HD" transform="translate(-319.000000, -765.000000)">
            <g id="home-enterprise_features-delivery.svg" transform="translate(319.000000, 765.000000)">
                <g>
                    <rect id="Rectangle-179" fill="#FCFCFC" x="0" y="0" width="255" height="220"></rect>
                    <use id="Rectangle-141" stroke="#1F2846" mask="url(#mask-2)" stroke-width="4" fill="#2F3A61" xlink:href="#path-1"></use>
                    <use id="Rectangle-142" stroke="#1F2846" mask="url(#mask-4)" stroke-width="4" fill="#2E3A68" xlink:href="#path-3"></use>
                    <use id="Rectangle-142" stroke="#1F2846" mask="url(#mask-6)" stroke-width="4" fill="#2E3A68" xlink:href="#path-5"></use>
                    <circle id="Oval-33" stroke="#1F2846" stroke-width="2" fill="#2E3A68" cx="42" cy="98" r="12"></circle>
                    <circle id="Oval-33" stroke="#1F2846" stroke-width="2" fill="#2E3A68" cx="42" cy="131" r="6"></circle>
                    <path d="M138,127.201172 L138,121.602051 L146.495361,112 L159.548828,112 C159.548828,112 167.288741,118.573403 167.745605,119.600586 C168.20247,120.627769 163.737305,120.273926 163.737305,120.273926 L157.920654,115.927246 L148.14209,115.927246 L142.038818,123.100586 L142.038818,127.201172 L138,127.201172 Z" id="Path-191" stroke="#1F2846" stroke-width="2" fill="#495CA3"></path>
                    <polygon id="Path-191" stroke="#1F2846" stroke-width="2" fill="#495CA3" transform="translate(153.097534, 140.600586) scale(1, -1) translate(-153.097534, -140.600586) " points="138 148.201172 138 142.602051 146.495361 133 159.548828 133 168.195068 142.602051 168.195068 144.201172 164.486084 144.201172 164.486084 144.100586 157.920654 136.927246 148.14209 136.927246 142.038818 144.100586 142.038818 148.201172"></polygon>
                    <circle id="Oval-33" stroke="#1F2846" stroke-width="2" fill="#2E3A68" cx="139" cy="131" r="6"></circle>
                    <g id="Page-1" transform="translate(163.000000, 120.000000)">
                        <polygon id="Fill-1" stroke="#1F2846" stroke-width="1.94" fill="#495CA3" points="0 15.962751 25.316714 15.962751 25.316714 0.0467324584 0 0.0467324584"></polygon>
                        <polygon id="Fill-2" fill="#1F2846" points="22.2503889 0.000149903636 12.7046663 8.16356938 3.24617754 0.000149903636 0.125315453 0.000149903636 12.4630853 10.3232638 12.7046661 10.5878437 13.4882359 9.93274348 25.3686794 0.000149903636"></polygon>
                        <polygon id="Fill-3" fill="#1F2846" points="0.0870347573 15.9273362 3.13042595 15.9273366 11.3861622 8.40600478 9.57218113 7.36896292"></polygon>
                        <polygon id="Fill-4" fill="#1F2846" points="14.0995714 8.83080452 22.5874196 15.896006 25.311532 15.8960064 15.5629599 7.56538458"></polygon>
                    </g>
                    <path d="M192.307617,169.076172 L192.373047,205.773438 C192.373047,205.773438 197.858887,209.572021 208.633301,209.572021 C219.407715,209.572021 221.078125,206.65625 222.078125,206.65625 C223.078125,206.65625 222.763672,169.201172 222.763672,169.201172 L192.307617,169.076172 Z" id="Path-201" stroke="#1F2846" stroke-width="2" fill="#2E3A68"></path>
                    <polygon id="Star-1" stroke="#1F2846" stroke-width="2" fill="#495CA3" points="208 192.5 203.885503 194.663119 204.671302 190.081559 201.342604 186.836881 205.942752 186.168441 208 182 210.057248 186.168441 214.657396 186.836881 211.328698 190.081559 212.114497 194.663119"></polygon>
                    <ellipse id="Oval-36" fill="#1F2846" cx="207.5" cy="169" rx="16.5" ry="6"></ellipse>
                    <rect id="Rectangle-144" fill="#1B2135" x="42" y="196" width="16" height="11"></rect>
                    <g id="Page-1" transform="translate(200.123151, 156.540318) rotate(22.000000) translate(-200.123151, -156.540318) translate(187.160910, 148.252235)">
                        <polygon id="Fill-1" stroke="#1F2846" stroke-width="1.94" fill="#495CA3" points="0 15.962751 25.316714 15.962751 25.316714 0.0467324584 0 0.0467324584"></polygon>
                        <polygon id="Fill-2" fill="#1F2846" points="22.2503889 0.000149903636 12.7046663 8.16356938 3.24617754 0.000149903636 0.125315453 0.000149903636 12.4630853 10.3232638 12.7046661 10.5878437 13.4882359 9.93274348 25.3686794 0.000149903636"></polygon>
                        <polygon id="Fill-3" fill="#1F2846" points="0.0870347573 15.9273362 3.13042595 15.9273366 11.3861622 8.40600478 9.57218113 7.36896292"></polygon>
                        <polygon id="Fill-4" fill="#1F2846" points="14.0995714 8.83080452 22.5874196 15.896006 25.311532 15.8960064 15.5629599 7.56538458"></polygon>
                    </g>
                    <use id="Rectangle-145" stroke="#1F2846" mask="url(#mask-8)" stroke-width="4" fill="#495CA3" xlink:href="#path-7"></use>
                    <rect id="Rectangle-146" fill="#1F2846" x="60" y="151" width="2" height="9"></rect>
                    <rect id="Rectangle-146" fill="#1F2846" x="76.25" y="155" width="2" height="5"></rect>
                    <rect id="Rectangle-146" fill="#1F2846" x="92.5" y="156" width="2" height="4"></rect>
                    <rect id="Rectangle-146" fill="#1F2846" x="96.5625" y="154" width="2" height="6"></rect>
                    <rect id="Rectangle-146" fill="#1F2846" x="112.8125" y="153" width="2" height="7"></rect>
                    <rect id="Rectangle-146" fill="#1F2846" x="125" y="153" width="2" height="7"></rect>
                    <rect id="Rectangle-146" fill="#1F2846" x="116.875" y="155" width="2" height="5"></rect>
                    <rect id="Rectangle-146" fill="#1F2846" x="120.9375" y="155" width="2" height="5"></rect>
                    <rect id="Rectangle-146" fill="#1F2846" x="108.75" y="155" width="2" height="5"></rect>
                    <rect id="Rectangle-146" fill="#1F2846" x="104.6875" y="152" width="2" height="8"></rect>
                    <rect id="Rectangle-146" fill="#1F2846" x="100.625" y="156" width="2" height="4"></rect>
                    <rect id="Rectangle-146" fill="#1F2846" x="88.4375" y="153" width="2" height="7"></rect>
                    <rect id="Rectangle-146" fill="#1F2846" x="84.375" y="154" width="2" height="6"></rect>
                    <rect id="Rectangle-146" fill="#1F2846" x="80.3125" y="153" width="2" height="7"></rect>
                    <rect id="Rectangle-146" fill="#1F2846" x="72.1875" y="153" width="2" height="7"></rect>
                    <rect id="Rectangle-146" fill="#1F2846" x="68.125" y="152" width="2" height="8"></rect>
                    <rect id="Rectangle-146" fill="#1F2846" x="64.0625" y="155" width="2" height="5"></rect>
                    <g id="Group-2" transform="translate(58.437500, 170.000000)" stroke="#1F2846" stroke-width="2" fill="#2E3A68">
                        <path d="M7.26859143,14.7069932 C11.6403451,14.7069932 14.2117235,11.4454664 14.2117235,7.95041828 C14.2117235,4.45537014 0.325459318,4.45537014 0.325459318,7.95041828 C0.325459318,11.4454664 2.89683773,14.7069932 7.26859143,14.7069932 Z" id="Oval-37"></path>
                        <ellipse id="Oval-37" cx="7.26859143" cy="6.32834446" rx="6.94313211" ry="6.32834446"></ellipse>
                    </g>
                    <g id="Group-2" transform="translate(85.738462, 170.000000)" stroke="#1F2846" stroke-width="2" fill="#2E3A68">
                        <path d="M7.26859143,14.7069932 C11.6403451,14.7069932 14.2117235,11.4454664 14.2117235,7.95041828 C14.2117235,4.45537014 0.325459318,4.45537014 0.325459318,7.95041828 C0.325459318,11.4454664 2.89683773,14.7069932 7.26859143,14.7069932 Z" id="Oval-37"></path>
                        <ellipse id="Oval-37" cx="7.26859143" cy="6.32834446" rx="6.94313211" ry="6.32834446"></ellipse>
                    </g>
                    <g id="Group-2" transform="translate(112.683344, 170.000000)" stroke="#1F2846" stroke-width="2" fill="#2E3A68">
                        <path d="M7.26859143,14.7069932 C11.6403451,14.7069932 14.2117235,11.4454664 14.2117235,7.95041828 C14.2117235,4.45537014 0.325459318,4.45537014 0.325459318,7.95041828 C0.325459318,11.4454664 2.89683773,14.7069932 7.26859143,14.7069932 Z" id="Oval-37"></path>
                        <ellipse id="Oval-37" cx="7.26859143" cy="6.32834446" rx="6.94313211" ry="6.32834446"></ellipse>
                    </g>
                    <use id="Rectangle-70" stroke="#1F2846" mask="url(#mask-10)" stroke-width="4" fill="#495CA3" xlink:href="#path-9"></use>
                    <use id="Rectangle-70" stroke="#1F2846" mask="url(#mask-12)" stroke-width="4" fill="#495CA3" xlink:href="#path-11"></use>
                    <use id="Rectangle-70" stroke="#1F2846" mask="url(#mask-14)" stroke-width="4" fill="#495CA3" xlink:href="#path-13"></use>
                    <use id="Rectangle-70" stroke="#1F2846" mask="url(#mask-16)" stroke-width="4" fill="#495CA3" xlink:href="#path-15"></use>
                    <use id="Rectangle-70" stroke="#1F2846" mask="url(#mask-18)" stroke-width="4" fill="#495CA3" xlink:href="#path-17"></use>
                    <use id="Rectangle-70" stroke="#1F2846" mask="url(#mask-20)" stroke-width="4" fill="#495CA3" xlink:href="#path-19"></use>
                    <use id="Rectangle-76" stroke="#1F2846" mask="url(#mask-22)" stroke-width="4" fill="#2F3A61" xlink:href="#path-21"></use>
                    <path d="M192,91 L203.068359,91" id="Path-162" stroke="#1F2846" stroke-width="2"></path>
                    <g id="Page-1" transform="translate(190.000000, 51.000000)" stroke="#1F2846" stroke-width="2" fill="#495CA3">
                        <path d="M11.5625847,10.2985505 C14.9164031,11.2571611 16,14.3620892 16,18.0446992 L16,36.331971 L0,36.331971 L0,18.0446992 C0,14.4690008 1.56348848,11.3487996 4.76818798,10.2985505 L4.76005423,3.25945575 C4.76005423,1.45902871 6.21057388,0 8,0 C9.78942612,0 11.2399458,1.45902871 11.2399458,3.25945575 L11.5625847,10.2985505 Z" id="Fill-1"></path>
                    </g>
                    <path d="M198,76 L198,86.6870728" id="Path-164" stroke="#1B2135" stroke-width="2"></path>
                    <path d="M194,76 L202,76" id="Path-165" stroke="#1B2135" stroke-width="2"></path>
                    <g id="Group-7" transform="translate(203.000000, 107.000000)" stroke="#1F2846" stroke-width="1.9">
                        <ellipse id="Oval-48" fill="#495CA3" cx="5.2109485" cy="4.89650371" rx="4.7890515" ry="4.89650371"></ellipse>
                        <path d="M7.3214361,0.758543657 L3.46494014,9.11957877" id="Path-222"></path>
                    </g>
                    <use id="Rectangle-39" stroke="#1F2846" mask="url(#mask-24)" stroke-width="3.6" fill="#2F3A61" xlink:href="#path-23"></use>
                    <use id="Rectangle-39" stroke="#1F2846" mask="url(#mask-26)" stroke-width="3.6" fill="#2F3A61" xlink:href="#path-25"></use>
                    <path d="M80.0014607,89 L80.0014607,66.4467288 C80.0014607,66.4467288 79.6731604,59.4650239 88.8601877,59.1433926 C98.0490089,58.8207593 140.869777,59.1433926 140.869777,59.1433926 C140.869777,59.1433926 151.535053,58.677478 152.686795,64.41474 C153.26125,67.2721742 152.686798,89 152.686798,89" id="Page-1" stroke="#1F2846" stroke-width="1.8"></path>
                    <use id="Rectangle-41" stroke="#1F2846" mask="url(#mask-28)" stroke-width="3.6" fill="#2F3A61" xlink:href="#path-27"></use>
                    <use id="Rectangle-41" stroke="#1F2846" mask="url(#mask-30)" stroke-width="3.6" fill="#2F3A61" xlink:href="#path-29"></use>
                </g>
            </g>
        </g>
    </g>
</svg>