<?xml version="1.0" encoding="UTF-8" standalone="no"?>
<svg width="255px" height="220px" viewBox="0 0 255 220" version="1.1" xmlns="http://www.w3.org/2000/svg" xmlns:xlink="http://www.w3.org/1999/xlink">
    <!-- Generator: Sketch 3.8.3 (29802) - http://www.bohemiancoding.com/sketch -->
    <title>home-sme_features-data</title>
    <desc>Created with Sketch.</desc>
    <defs>
        <rect id="path-1" x="145" y="101" width="52" height="89"></rect>
        <mask id="mask-2" maskContentUnits="userSpaceOnUse" maskUnits="objectBoundingBox" x="0" y="0" width="52" height="89" fill="white">
            <use xlink:href="#path-1"></use>
        </mask>
        <polygon id="path-3" points="105.376956 163.565519 105.376956 0 0.000383528296 0 0.000383528296 163.565519 105.376956 163.565519"></polygon>
        <rect id="path-5" x="75" y="41" width="15" height="9"></rect>
        <mask id="mask-6" maskContentUnits="userSpaceOnUse" maskUnits="objectBoundingBox" x="0" y="0" width="15" height="9" fill="white">
            <use xlink:href="#path-5"></use>
        </mask>
        <rect id="path-7" x="125" y="41" width="15" height="9"></rect>
        <mask id="mask-8" maskContentUnits="userSpaceOnUse" maskUnits="objectBoundingBox" x="0" y="0" width="15" height="9" fill="white">
            <use xlink:href="#path-7"></use>
        </mask>
        <rect id="path-9" x="99" y="7" width="7" height="9"></rect>
        <mask id="mask-10" maskContentUnits="userSpaceOnUse" maskUnits="objectBoundingBox" x="0" y="0" width="7" height="9" fill="white">
            <use xlink:href="#path-9"></use>
        </mask>
        <rect id="path-11" x="112" y="7" width="7" height="9"></rect>
        <mask id="mask-12" maskContentUnits="userSpaceOnUse" maskUnits="objectBoundingBox" x="0" y="0" width="7" height="9" fill="white">
            <use xlink:href="#path-11"></use>
        </mask>
        <polygon id="path-13" points="186.651151 22.3944574 186.651151 0.000118708395 93.3256346 0.000118708395 0.000118573412 0.000118708395 0.000118573412 22.3944574 93.3256346 22.3944574"></polygon>
        <polygon id="path-15" points="28.873815 27.8032043 57.747327 27.8032043 57.747327 0.000201303284 0.000302965935 0.000201303284 0.000302965935 27.8032043 28.873815 27.8032043"></polygon>
    </defs>
    <g id="Page-1" stroke="none" stroke-width="1" fill="none" fill-rule="evenodd">
        <g id="Desktop-HD" transform="translate(-613.000000, -104.000000)">
            <g id="home-sme_features-data" transform="translate(613.000000, 104.000000)">
                <rect id="Rectangle-59" fill="#FCFCFC" x="0" y="0" width="255" height="220"></rect>
                <path d="M237.657752,136.941115 C236.412568,132.527265 230.530214,129.043956 225.165197,131.091147 C226.341866,129.47091 227.044889,127.476467 227.044889,125.308853 C227.044889,119.915696 222.738378,115.543645 217.425989,115.543645 C215.046833,115.543645 212.873222,116.42542 211.194109,117.877462 C210.752238,112.901306 206.636377,109 201.6189,109 C196.306511,109 192,113.372051 192,118.765208 C192,121.212482 192.89268,123.442795 194.357311,125.156583 C194.818049,132.624798 197.357073,148.909766 197.357073,148.909766 C197.357073,148.909766 231.15082,149.112793 232.262946,148.909766 C235.485134,148.32457 239.147207,142.220817 237.657752,136.941115" id="Fill-1" stroke="#ECD43C" stroke-width="1.8" fill="#FFFBD2"></path>
                <use id="Rectangle-43" stroke="#ECD43C" mask="url(#mask-2)" stroke-width="3.6" fill="#FFF5A7" xlink:href="#path-1"></use>
                <g id="Page-1" transform="translate(54.000000, 38.000000)">
                    <mask id="mask-4" fill="white">
                        <use xlink:href="#path-3"></use>
                    </mask>
                    <g id="Clip-2"></g>
                    <path d="M95.882074,145.121705 C95.882074,148.454648 93.1520516,151.181505 89.8152387,151.181505 L13.7374013,151.181505 C10.4005883,151.181505 7.67056592,148.454648 7.67056592,145.121705 L7.67056592,17.3047057 C7.67056592,13.971762 10.4005883,11.2449053 13.7374013,11.2449053 L89.8152387,11.2449053 C93.1520516,11.2449053 95.882074,13.971762 95.882074,17.3047057 L95.882074,145.121705 Z" id="Fill-1" stroke="#ECD43C" stroke-width="1.8" fill="#FFF6A7" mask="url(#mask-4)"></path>
                </g>
                <path d="M121.114357,50 L121.114357,187.973641" id="Path-56" stroke="#ECD43C" stroke-width="1.8"></path>
                <g id="Group-7" transform="translate(108.000000, 172.000000)" stroke="#ECD43C" stroke-width="1.8">
                    <ellipse id="Oval-48" fill="#FFFBD2" cx="5.3229544" cy="4.96041404" rx="4.891989" ry="4.96041404"></ellipse>
                    <path d="M7.47880554,0.76844435 L3.53941674,9.23860968" id="Path-222"></path>
                </g>
                <g id="Group-7" transform="translate(106.000000, 54.000000)" stroke="#ECD43C" stroke-width="1.8">
                    <ellipse id="Oval-48" fill="#FFFBD2" cx="5.3229544" cy="4.96041404" rx="4.891989" ry="4.96041404"></ellipse>
                    <path d="M7.47880554,0.76844435 L3.53941674,9.23860968" id="Path-222"></path>
                </g>
                <circle id="Oval-20" stroke="#ECD43C" stroke-width="1.8" fill="#FFFBD2" cx="108.5" cy="93.5" r="24.5"></circle>
                <path d="M125,94.8701595 C125,104.330934 117.389064,112 108,112 C98.6109362,112 91,104.330934 91,94.8701595 C91,94.8701595 92.5227518,92 96.2192487,92 C99.9157455,92 98.8942196,96.5002847 101.937604,96.0326025 C104.980988,95.5649203 104.198595,92 108,92 C111.801405,92 111.018659,96.0326029 114.400079,96.0326025 C117.781499,96.0326022 117.750769,92 120.126558,92 C122.502348,92 125,94.8701595 125,94.8701595 Z" id="Page-1" stroke="#ECD43C" stroke-width="1.8" fill="#FFF28B"></path>
                <path d="M106,75 C104.425159,75 93.2231285,79.0034277 92,88" id="Path-60" stroke="#ECD43C" stroke-width="1.8"></path>
                <use id="Rectangle-39" stroke="#ECD43C" mask="url(#mask-6)" stroke-width="3.6" fill="#FBF099" xlink:href="#path-5"></use>
                <use id="Rectangle-39" stroke="#ECD43C" mask="url(#mask-8)" stroke-width="3.6" fill="#FBF099" xlink:href="#path-7"></use>
                <path d="M83.0009992,41 L83.0009992,18.4467288 C83.0009992,18.4467288 82.7764359,11.4650239 89.0605243,11.1433926 C95.3458398,10.8207593 124.635999,11.1433926 124.635999,11.1433926 C124.635999,11.1433926 131.931235,10.677478 132.719047,16.41474 C133.46391,21.8313727 132.49203,41 132.49203,41" id="Page-1" stroke="#ECD43C" stroke-width="1.8"></path>
                <use id="Rectangle-41" stroke="#ECD43C" mask="url(#mask-10)" stroke-width="3.6" fill="#FBF099" xlink:href="#path-9"></use>
                <use id="Rectangle-41" stroke="#ECD43C" mask="url(#mask-12)" stroke-width="3.6" fill="#FBF099" xlink:href="#path-11"></use>
                <path d="M60.946974,75.002624 L38.1760929,75.000607 C38.1760929,75.000607 32.5424666,74.8220941 32.2222479,80.5879596 C32.0171867,84.2701662 32.0050649,116.081769 32.0050649,116.081769 C32.0050649,116.081769 31.5292826,123.505686 39.8004198,124.081567 C44.782497,124.429516 79.8186625,124.370011 79.8186625,124.370011 C79.8186625,124.370011 83.1551996,124.154182 83.5824946,128.046167 C84.0107997,131.937142 83.5824946,139 83.5824946,139 L90,139 L90,125.16273 C90,117.991957 84.9876181,117.868915 84.9876181,117.868915 C84.9876181,117.868915 49.0897917,117.874966 47.2462615,117.826556 C45.2158529,117.774111 38.9549212,118.751394 38.8710785,112.783819 C38.8195607,109.178262 39.0407843,91.0385279 39.0226015,86.4889705 C39.0054289,81.9394131 43.0601852,82.0291739 43.0601852,82.0291739 L60.946974,82.0291739 L60.946974,75.002624 Z" id="Page-1" stroke="#ECD43C" stroke-width="1.8" fill="#FDEC81"></path>
                <g id="Page-1" transform="translate(39.000000, 182.000000)">
                    <mask id="mask-14" fill="white">
                        <use xlink:href="#path-13"></use>
                    </mask>
                    <g id="Clip-2"></g>
                    <path d="M11.8116184,18.9933432 C8.57599711,18.9933432 5.92867059,16.9687248 5.92867059,14.4941912 L5.92867059,8.06040384 C5.92867059,5.58587024 8.57599711,3.56125185 11.8116184,3.56125185 L168.419968,3.56125185 C171.655589,3.56125185 174.302915,5.58587024 174.302915,8.06040384 L174.302915,14.4941912 C174.302915,16.6992233 172.200829,18.5470041 169.453549,18.923333 C169.117773,18.9693284 168.772359,18.9933432 168.419968,18.9933432 L11.8116184,18.9933432 Z" id="Fill-1" stroke="#ECD43C" stroke-width="1.8" fill="#FDEC81" mask="url(#mask-14)"></path>
                </g>
                <polygon id="Page-1" stroke="#ECD43C" stroke-width="1.8" fill="#FDEC81" points="83.7387619 137 73 150 100 150 90.1165644 137"></polygon>
                <path d="M76,155 L72,162" id="Path-66" stroke="#ECD43C" stroke-width="1.8"></path>
                <path d="M95,155 L99,162" id="Path-66" stroke="#ECD43C" stroke-width="1.8"></path>
                <path d="M86,155 L86,164" id="Path-67" stroke="#ECD43C" stroke-width="1.8"></path>
                <circle id="Oval-21" fill="#ECD43C" cx="170.5" cy="117.5" r="5.5"></circle>
                <g id="Page-1" transform="translate(166.000000, 113.000000)">
                    <mask id="mask-16" fill="white">
                        <use xlink:href="#path-15"></use>
                    </mask>
                    <g id="Clip-2"></g>
                    <path d="M54.200183,22.7900017 L26.7299717,22.7900017 C25.4626244,22.7900017 24.5359915,22.5117831 23.9757873,21.96205 C23.118032,21.1223663 23.2107871,19.798314 23.2107871,19.798314 L23.218134,19.6432826 C23.218134,19.5578058 23.2107871,11.1098496 23.2585422,8.98885201 C23.3072157,6.79410971 22.2951746,5.46586742 21.4383376,4.73763868 C19.2553779,2.88480354 15.9676219,2.99206853 15.2779279,3.03899697 C14.4293562,3.03983497 6.41200717,3.04821505 4.80210879,3.05659513 C4.69649652,3.05743314 4.66068018,3.05743314 4.64231283,3.05743314 C3.73955749,3.14290993 3.02965935,3.85521652 3.02965935,4.73344864 C3.02965935,5.62089885 3.75425138,6.3399095 4.67078223,6.40527411 C6.4735378,6.40024606 15.3541524,6.39102798 15.3541524,6.39102798 L15.51303,6.38432391 C16.147622,6.3390715 18.0008878,6.39018997 18.9422145,7.19719143 C19.3922147,7.582675 19.6025208,8.14665422 19.5859902,8.92097338 C19.5391535,11.0042607 19.5437453,18.7524803 19.5446637,19.584622 C19.507929,20.1293271 19.4684392,22.4271443 21.2463988,24.2062348 C22.5302767,25.4909007 24.3752772,26.1420327 26.7299717,26.1420327 L53.9320196,26.1420327 C54.0165094,26.1680109 54.0973258,26.1554408 54.1781421,26.1420327 C54.9615097,26.0071134 55.5437547,25.3266512 55.5437547,24.5012135 C55.5437547,23.6757759 54.9615097,22.9944756 54.200183,22.8620704 L54.200183,22.7900017 Z" id="Fill-1" stroke="#ECD43C" stroke-width="1.8" fill="#FDEC81" mask="url(#mask-16)"></path>
                </g>
                <g id="Page-1" transform="translate(72.000000, 171.000000)" stroke="#ECD43C" stroke-width="1.8">
                    <path d="M0,4.57590333 L0,14.248109 C0,17.3353559 6.82326712,19.8369394 15.2409998,19.8369394 C23.657687,19.8369394 30.4809541,17.3353559 30.4809541,14.248109 L30.4809541,4.85872367" id="Fill-1" fill="#FFF199"></path>
                    <g id="Group-5" fill="#FFFBD2">
                        <path d="M30.4809541,4.42770421 C30.4809541,6.76527756 23.657687,8.65940367 15.2399543,8.65940367 C6.82326712,8.65940367 0,6.76527756 0,4.42770421 C0,2.09013086 6.82326712,0.196004751 15.2399543,0.196004751 C23.657687,0.196004751 30.4809541,2.09013086 30.4809541,4.42770421" id="Fill-3"></path>
                    </g>
                </g>
                <g id="Page-1" transform="translate(125.000000, 170.000000)" stroke="#ECD43C" stroke-width="1.8">
                    <path d="M0,4.57590333 L0,14.248109 C0,17.3353559 6.82326712,19.8369394 15.2409998,19.8369394 C23.657687,19.8369394 30.4809541,17.3353559 30.4809541,14.248109 L30.4809541,4.85872367" id="Fill-1" fill="#FFF199"></path>
                    <g id="Group-5" fill="#FFFBD2">
                        <path d="M30.4809541,4.42770421 C30.4809541,6.76527756 23.657687,8.65940367 15.2399543,8.65940367 C6.82326712,8.65940367 0,6.76527756 0,4.42770421 C0,2.09013086 6.82326712,0.196004751 15.2399543,0.196004751 C23.657687,0.196004751 30.4809541,2.09013086 30.4809541,4.42770421" id="Fill-3"></path>
                    </g>
                </g>
                <g id="Page-1" transform="translate(175.000000, 170.000000)" stroke="#ECD43C" stroke-width="1.8">
                    <path d="M0,4.57590333 L0,14.248109 C0,17.3353559 6.82326712,19.8369394 15.2409998,19.8369394 C23.657687,19.8369394 30.4809541,17.3353559 30.4809541,14.248109 L30.4809541,4.85872367" id="Fill-1" fill="#FFF199"></path>
                    <g id="Group-5" fill="#FFFBD2">
                        <path d="M30.4809541,4.42770421 C30.4809541,6.76527756 23.657687,8.65940367 15.2399543,8.65940367 C6.82326712,8.65940367 0,6.76527756 0,4.42770421 C0,2.09013086 6.82326712,0.196004751 15.2399543,0.196004751 C23.657687,0.196004751 30.4809541,2.09013086 30.4809541,4.42770421" id="Fill-3"></path>
                    </g>
                </g>
                <g id="Page-1" transform="translate(175.000000, 159.000000)" stroke="#ECD43C" stroke-width="1.8">
                    <path d="M0,4.57590333 L0,14.248109 C0,17.3353559 6.82326712,19.8369394 15.2409998,19.8369394 C23.657687,19.8369394 30.4809541,17.3353559 30.4809541,14.248109 L30.4809541,4.85872367" id="Fill-1" fill="#FFF199"></path>
                    <g id="Group-5" fill="#FFFBD2">
                        <path d="M30.4809541,4.42770421 C30.4809541,6.76527756 23.657687,8.65940367 15.2399543,8.65940367 C6.82326712,8.65940367 0,6.76527756 0,4.42770421 C0,2.09013086 6.82326712,0.196004751 15.2399543,0.196004751 C23.657687,0.196004751 30.4809541,2.09013086 30.4809541,4.42770421" id="Fill-3"></path>
                    </g>
                </g>
            </g>
        </g>
    </g>
</svg>