<svg width="34" height="37" viewBox="0 0 34 37" xmlns="http://www.w3.org/2000/svg" xmlns:xlink="http://www.w3.org/1999/xlink"><title>home-footer-phone-icon</title><defs><path id="a" d="M0 .045V31.35h32.703V.045z"/></defs><g fill="none" fill-rule="evenodd"><g transform="rotate(17 3.718 8.087)"><mask id="b" fill="#fff"><use xlink:href="#a"/></mask><path d="M27.504 19.628c-1.182-1.117-2.657-1.117-3.832 0-.896.85-1.791 1.7-2.672 2.565-.241.238-.444.288-.738.13-.58-.303-1.197-.548-1.754-.88-2.597-1.563-4.773-3.573-6.7-5.836-.956-1.124-1.807-2.328-2.402-3.682-.12-.274-.098-.454.136-.677.896-.83 1.77-1.68 2.65-2.53 1.227-1.182 1.227-2.565-.008-3.754-.7-.677-1.4-1.34-2.1-2.017C9.361 2.255 8.646 1.556 7.916.87 6.734-.231 5.258-.231 4.084.878c-.904.85-1.77 1.723-2.687 2.558-.851.772-1.28 1.715-1.37 2.818C-.118 8.048.341 9.74.99 11.39c1.325 3.416 3.342 6.45 5.79 9.231a35.645 35.645 0 0 0 11.863 8.885c2.078.965 4.231 1.708 6.572 1.83 1.611.087 3.012-.302 4.133-1.506.768-.821 1.634-1.57 2.447-2.356 1.205-1.168 1.212-2.58.015-3.733-1.43-1.376-2.868-2.745-4.306-4.114" fill="#FEFEFE" mask="url(#b)"/></g><g fill="#FEFEFE"><path d="M23.395 20.165l2.789.378c.296-2.463-.209-4.931-1.444-7.147-1.309-2.337-3.307-4.168-5.78-5.3l-1.155 2.441c1.912.879 3.463 2.295 4.476 4.104a9.045 9.045 0 0 1 1.114 5.524M30.928 10.382c-2.17-3.873-5.484-6.913-9.592-8.794L20.18 4.03c3.549 1.627 6.413 4.258 8.289 7.597 1.777 3.173 2.496 6.716 2.072 10.241l2.79.378c.485-4.086-.348-8.184-2.403-11.864"/></g></g></svg>