<svg xmlns="http://www.w3.org/2000/svg" xmlns:xlink="http://www.w3.org/1999/xlink" viewBox="-370 -183 255 926"><title>home-newsletter-right-pattern</title><circle fill="none" stroke="#969696" stroke-width="6" stroke-miterlimit="10" cx="-195.5" cy="319" r="8"/><circle fill="none" stroke="#29ABE1" stroke-width="6" stroke-miterlimit="10" cx="-286.5" cy="222" r="8"/><path fill="none" stroke="#B0B0B0" stroke-width="5" stroke-miterlimit="10" d="M-256.9 750.1V630.4s-1.3-20.7-29-20.7-47.5-8.2-47.5-38.9V392"/><path fill="none" stroke="#DCDCDC" stroke-width="5" stroke-miterlimit="10" d="M-207.6-140c-10.9 0-24.8-1.2-24.8 16s24.8 14.2 24.8 14.2M-207.6-84c-10.9 0-24.8-1.2-24.8 16s24.8 14.2 24.8 14.2"/><path fill="none" stroke="#969696" stroke-width="5" stroke-miterlimit="10" d="M-119-24.4c-15.6 0-18-20.8-18-23.7 0-2.9-.7-83.5-.7-83.5s1-40.3-33.9-40.3-34.5 26.3-35.8 40.3c-1.3 14.1 0 81.5 0 81.5s3 27.4-18.1 27.4-90.7.3-90.7.3-27.1 1.8-29.9 33.3c-2.8 31.5-.2 73.2-.2 73.2"/><defs><path id="a" transform="rotate(134.999 -333.33 383.151)" d="M-343.3 373.1h20v20h-20z"/></defs><clipPath id="b"><use xlink:href="#a" overflow="visible"/></clipPath><g clip-path="url(#b)"><defs><path id="c" d="M-1559.5-7729h1440v8814h-1440z"/></defs><clipPath id="d"><use xlink:href="#c" overflow="visible"/></clipPath><path transform="rotate(134.999 -333.33 383.15)" clip-path="url(#d)" fill="none" stroke="#29ABE1" stroke-width="10" stroke-miterlimit="10" d="M-343.3 373.1h20v20h-20z"/></g><g><defs><path id="e" d="M-346.2 81l14.4 15-14.4 15-14.3-15 14.3-15"/></defs><clipPath id="f"><use xlink:href="#e" overflow="visible"/></clipPath><g clip-path="url(#f)"><defs><path id="g" d="M-1557.5-7729h1440v8814h-1440z"/></defs><clipPath id="h"><use xlink:href="#g" overflow="visible"/></clipPath><path clip-path="url(#h)" fill="none" stroke="#FFD95F" stroke-width="10" stroke-miterlimit="10" d="M-346.2 81l14.4 15-14.4 15-14.3-15 14.3-15"/></g></g></svg>