<?xml version="1.0" encoding="UTF-8" standalone="no"?>
<svg width="255px" height="220px" viewBox="0 0 255 220" version="1.1" xmlns="http://www.w3.org/2000/svg" xmlns:xlink="http://www.w3.org/1999/xlink">
    <!-- Generator: Sketch 3.8.3 (29802) - http://www.bohemiancoding.com/sketch -->
    <title>home-sme_features-design</title>
    <desc>Created with Sketch.</desc>
    <defs>
        <rect id="path-1" x="175.786667" y="90.6190476" width="21.9733333" height="5.49206349"></rect>
        <mask id="mask-2" maskContentUnits="userSpaceOnUse" maskUnits="objectBoundingBox" x="0" y="0" width="21.9733333" height="5.49206349" fill="white">
            <use xlink:href="#path-1"></use>
        </mask>
        <rect id="path-3" x="175.786667" y="116.248677" width="21.9733333" height="5.49206349"></rect>
        <mask id="mask-4" maskContentUnits="userSpaceOnUse" maskUnits="objectBoundingBox" x="0" y="0" width="21.9733333" height="5.49206349" fill="white">
            <use xlink:href="#path-3"></use>
        </mask>
        <rect id="path-5" x="95.2177778" y="67.7354497" width="67.7511111" height="94.2804233"></rect>
        <mask id="mask-6" maskContentUnits="userSpaceOnUse" maskUnits="objectBoundingBox" x="0" y="0" width="67.7511111" height="94.2804233" fill="white">
            <use xlink:href="#path-5"></use>
        </mask>
        <polygon id="path-7" points="0.000399859435 21.9244176 18.8675162 21.9244176 18.8675162 0 0.000399859435 0"></polygon>
        <rect id="path-9" x="0" y="92.4497354" width="13.7333333" height="10.984127"></rect>
        <mask id="mask-10" maskContentUnits="userSpaceOnUse" maskUnits="objectBoundingBox" x="0" y="0" width="13.7333333" height="10.984127" fill="white">
            <use xlink:href="#path-9"></use>
        </mask>
        <rect id="path-11" x="1.83111111" y="87.8730159" width="9.15555556" height="6.40740741"></rect>
        <mask id="mask-12" maskContentUnits="userSpaceOnUse" maskUnits="objectBoundingBox" x="0" y="0" width="9.15555556" height="6.40740741" fill="white">
            <use xlink:href="#path-11"></use>
        </mask>
        <rect id="path-13" x="123.6" y="75.0582011" width="12.8177778" height="12.8148148"></rect>
        <mask id="mask-14" maskContentUnits="userSpaceOnUse" maskUnits="objectBoundingBox" x="0" y="0" width="12.8177778" height="12.8148148" fill="white">
            <use xlink:href="#path-13"></use>
        </mask>
        <rect id="path-15" x="125.431111" y="114.417989" width="38.4533333" height="40.2751323"></rect>
        <mask id="mask-16" maskContentUnits="userSpaceOnUse" maskUnits="objectBoundingBox" x="0" y="0" width="38.4533333" height="40.2751323" fill="white">
            <use xlink:href="#path-15"></use>
        </mask>
        <rect id="path-17" x="108.951111" y="136.386243" width="9.15555556" height="18.3068783"></rect>
        <mask id="mask-18" maskContentUnits="userSpaceOnUse" maskUnits="objectBoundingBox" x="0" y="0" width="9.15555556" height="18.3068783" fill="white">
            <use xlink:href="#path-17"></use>
        </mask>
        <rect id="path-19" x="45.7777778" y="122.656085" width="16.48" height="32.037037"></rect>
        <mask id="mask-20" maskContentUnits="userSpaceOnUse" maskUnits="objectBoundingBox" x="0" y="0" width="16.48" height="32.037037" fill="white">
            <use xlink:href="#path-19"></use>
        </mask>
        <rect id="path-21" x="70.4977778" y="127.232804" width="29.2977778" height="27.4603175"></rect>
        <mask id="mask-22" maskContentUnits="userSpaceOnUse" maskUnits="objectBoundingBox" x="0" y="0" width="29.2977778" height="27.4603175" fill="white">
            <use xlink:href="#path-21"></use>
        </mask>
    </defs>
    <g id="Page-1" stroke="none" stroke-width="1" fill="none" fill-rule="evenodd">
        <g id="Desktop-HD" transform="translate(-228.000000, -103.000000)">
            <g id="home-sme_features-design" transform="translate(228.000000, 103.000000)">
                <path d="M236,110 C234.511276,110 231,111.359699 231,115" id="Path-31" stroke="#ECD43C" stroke-width="1.8"></path>
                <path d="M236,138 C234.511276,138 231,139.359699 231,143" id="Path-31" stroke="#ECD43C" stroke-width="1.8"></path>
                <rect id="Rectangle-59" fill="#FCFCFC" x="0" y="0" width="255" height="220"></rect>
                <g id="Group" transform="translate(25.000000, 28.000000)">
                    <polygon id="Page-1" stroke="#ECD43C" stroke-width="1.8" fill="#FFF28B" points="42.1155556 70.4814815 68.6666667 70.4814815 68.6666667 45.7671958 42.1155556 45.7671958"></polygon>
                    <polygon id="Page-1" stroke="#ECD43C" stroke-width="1.8" fill="#FBF099" points="83.2423355 44.8518519 83.2423355 66.6484145 27.4666667 66.6484145 27.4666667 161.100529 175.786667 161.100529 175.786667 44.8518519"></polygon>
                    <path d="M137.333333,15.5998667 C137.333333,15.555641 153.948813,15.6539202 156.683954,15.7399145 C158.505476,15.797244 159.339186,18.1013232 159.368579,19.2905015 C159.417566,21.2225068 158.280133,25.3000238 163.229512,25.3737332 C171.679871,25.4998582 163.846756,15.561374 170.680524,15.5998667 C173.891661,15.6187035 175.785847,14.7898822 175.786664,19.9061336 C175.78748,24.6489241 175.612758,44.8518519 175.612758,44.8518519" id="Page-1" stroke="#ECD43C" stroke-width="1.8"></path>
                    <path d="M83.3155556,44.8518519 L83.3155556,37.5474414 C83.3155556,37.5474414 83.3155556,33.7861968 86.1991049,33.7861968 C88.5419888,33.7861968 92.402357,33.7486252 94.8193047,33.7861968 C97.823002,33.8335697 98.4237414,30.6832721 98.4237414,30.6832721 L98.571869,20.5569072 C98.571869,20.5569072 98.4237414,16.2974304 102.28411,16.4820214 C103.309745,16.5308248 105.0772,16.5280163 106.515196,16.5145324 C107.79669,16.5025159 120.853333,16.5145324 120.853333,16.5145324" id="Page-1" stroke="#ECD43C" stroke-width="1.8"></path>
                    <ellipse id="Oval-4" stroke="#ECD43C" stroke-width="1.8" fill="#FFFBD2" cx="133.213333" cy="16.0185185" rx="16.0222222" ry="16.0185185"></ellipse>
                    <path d="M145.573333,16.6158899 C145.573333,23.1107867 140.449631,28.3756614 134.128889,28.3756614 C127.808147,28.3756614 122.684444,23.1107867 122.684444,16.6158899 C122.684444,16.6158899 123.709565,14.6455026 126.198056,14.6455026 C128.686548,14.6455026 127.998854,17.7349838 130.047668,17.4139163 C132.096482,17.0928487 131.569773,14.6455026 134.128889,14.6455026 C136.688004,14.6455026 136.161058,17.4139165 138.437439,17.4139163 C140.71382,17.413916 140.693132,14.6455026 142.29252,14.6455026 C143.891907,14.6455026 145.573333,16.6158899 145.573333,16.6158899 Z" id="Page-1" stroke="#ECD43C" stroke-width="1.8" fill="#FFF28B"></path>
                    <path d="M130.924444,4.57671958 C129.954946,4.57671958 124.506583,6.32746949 123.6,10.984127" id="Path-31" stroke="#F6DE4B" stroke-width="1.8"></path>
                    <use id="Rectangle-27" stroke="#ECD43C" mask="url(#mask-2)" stroke-width="3.6" fill="#FFF28B" xlink:href="#path-1"></use>
                    <ellipse id="Oval-5" stroke="#ECD43C" stroke-width="1.8" fill="#FFFBD2" cx="199.591111" cy="93.3650794" rx="6.40888889" ry="6.40740741"></ellipse>
                    <use id="Rectangle-27" stroke="#ECD43C" mask="url(#mask-4)" stroke-width="3.6" fill="#FFF28B" xlink:href="#path-3"></use>
                    <ellipse id="Oval-5" stroke="#ECD43C" stroke-width="1.8" fill="#FFFBD2" cx="199.591111" cy="118.994709" rx="6.40888889" ry="6.40740741"></ellipse>
                    <use id="Rectangle-29" stroke="#ECD43C" mask="url(#mask-6)" stroke-width="3.6" fill="#FFFBD2" xlink:href="#path-5"></use>
                    <ellipse id="Oval-7" stroke="#ECD43C" stroke-width="1.8" fill="#FFFBD2" cx="55.3911111" cy="91.0767196" rx="16.0222222" ry="16.0185185"></ellipse>
                    <g id="Page-1" transform="translate(48.524444, 76.888889)">
                        <mask id="mask-8" fill="white">
                            <use xlink:href="#path-7"></use>
                        </mask>
                        <g id="Clip-2"></g>
                        <path d="M6.87675336,7.90722663 L6.86460261,7.90722663 L4.06858001,15.9227246 L9.71057828,15.9227246 L6.87675336,7.90722663 Z M13.8593844,21.0921306 C13.9255385,21.2737409 13.9619907,21.4203263 13.966041,21.5331841 C13.9700912,21.6447447 13.9376892,21.7303609 13.8715351,21.7874384 C13.804031,21.8458132 13.6946742,21.8821352 13.5394146,21.898999 C13.384155,21.9158628 13.1775923,21.9249433 12.9197264,21.9249433 C12.6605104,21.9249433 12.4525975,21.9184573 12.298688,21.9054851 C12.1434285,21.8938102 12.0259712,21.8730547 11.9476664,21.8432187 C11.8680115,21.81468 11.8099579,21.7744663 11.7721555,21.7251721 C11.7343532,21.6758779 11.699251,21.6136115 11.665499,21.5396702 L10.273563,17.6246721 L3.52989676,17.6246721 L2.20141476,21.4890787 C2.17576317,21.5643173 2.14201109,21.6278809 2.10015851,21.6823639 C2.05830592,21.7355498 1.99755217,21.7809524 1.91924734,21.8185716 C1.83959242,21.8561909 1.72618542,21.8821352 1.58037642,21.898999 C1.43321734,21.9158628 1.24420567,21.9249433 1.00929117,21.9249433 C0.76762625,21.9249433 0.569163999,21.9132684 0.413904415,21.8938102 C0.259994915,21.8730547 0.150638164,21.832841 0.0885343307,21.7744663 C0.0250804138,21.7173888 -0.0032713363,21.6330697 0.000778913715,21.5202119 C0.00482916373,21.4086513 0.0399313305,21.2607687 0.107435497,21.0791585 L5.54827135,6.14301279 C5.58067335,6.05091045 5.6252261,5.97696914 5.67922944,5.91859441 C5.73323277,5.86021969 5.81288769,5.81481713 5.91819419,5.78238673 C6.0221506,5.74865911 6.15580885,5.72660644 6.31916894,5.71363428 C6.48252902,5.70066212 6.68909177,5.69547325 6.93885719,5.69547325 C7.20617369,5.69547325 7.42758736,5.70066212 7.60444828,5.71363428 C7.77860903,5.72660644 7.92036778,5.74865911 8.02972453,5.78238673 C8.13908128,5.81481713 8.22278645,5.86281412 8.28084003,5.92508049 C8.33889361,5.98734686 8.38479645,6.06388261 8.41854853,6.15468774 L13.8593844,21.0921306 Z" id="Fill-1" fill="#ECD43C" mask="url(#mask-8)"></path>
                    </g>
                    <path d="M21.9392168,173 C18.9364891,173 16.48,170.651885 16.48,167.781631 L16.48,158.996147 C16.48,156.125892 18.9364891,153.777778 21.9392168,153.777778 L181.314116,153.777778 C184.316844,153.777778 186.773333,156.125892 186.773333,158.996147 L186.773333,167.781631 C186.773333,170.651885 184.316844,173 181.314116,173 L21.9392168,173 Z" id="Page-1" stroke="#ECD43C" stroke-width="1.8" fill="#FBF099"></path>
                    <rect id="Rectangle-33" fill="#ECD43C" x="106.204444" y="98.8571429" width="6.40888889" height="6.40740741"></rect>
                    <rect id="Rectangle-33" fill="#ECD43C" x="148.32" y="98.8571429" width="6.40888889" height="6.40740741"></rect>
                    <ellipse id="Oval-8" stroke="#ECD43C" stroke-width="1.8" fill="#FDED81" cx="33.8755556" cy="162.931217" rx="6.40888889" ry="6.40740741"></ellipse>
                    <ellipse id="Oval-8" stroke="#ECD43C" stroke-width="1.8" fill="#FDED81" cx="61.3422222" cy="162.931217" rx="6.40888889" ry="6.40740741"></ellipse>
                    <ellipse id="Oval-8" stroke="#ECD43C" stroke-width="1.8" fill="#FDED81" cx="88.8088889" cy="162.931217" rx="6.40888889" ry="6.40740741"></ellipse>
                    <ellipse id="Oval-8" stroke="#ECD43C" stroke-width="1.8" fill="#FDED81" cx="115.36" cy="162.931217" rx="6.40888889" ry="6.40740741"></ellipse>
                    <ellipse id="Oval-8" stroke="#ECD43C" stroke-width="1.8" fill="#FDED81" cx="142.826667" cy="162.931217" rx="6.40888889" ry="6.40740741"></ellipse>
                    <ellipse id="Oval-8" stroke="#ECD43C" stroke-width="1.8" fill="#FDED81" cx="170.293333" cy="162.931217" rx="6.40888889" ry="6.40740741"></ellipse>
                    <path d="M7.43169098,99.7724868 L7.34416977,109.616123 C7.34416977,109.616123 6.81693357,114.162652 11.2140835,114.341412 C15.4256463,114.513711 27.4666667,114.341412 27.4666667,114.341412" id="Page-1" stroke="#ECD43C" stroke-width="1.8"></path>
                    <use id="Rectangle-30" stroke="#ECD43C" mask="url(#mask-10)" stroke-width="3.6" fill="#FFF28B" xlink:href="#path-9"></use>
                    <use id="Rectangle-30" stroke="#ECD43C" mask="url(#mask-12)" stroke-width="3.6" fill="#FFF28B" xlink:href="#path-11"></use>
                    <path d="M8.58495388,87.8730159 C8.58495388,87.8730159 8.27767038,84.2635141 10.4366165,81.8750882 C13.9541606,77.9836824 14.359319,67.7354497 6.19420195,67.7354497 L6.44199655,67.7354497 C-1.72312051,67.7354497 -0.890730008,78.4967226 2.19958202,81.8750882 C4.37134508,84.2493721 4.0472149,87.8730159 4.0472149,87.8730159" id="Fill-1" stroke="#ECD43C" stroke-width="1.8" fill="#FFFBD2"></path>
                    <path d="M7.49924045,78.4796015 L7.32444444,88.1818894 L7.49924045,78.4796015 Z" id="Path-40" stroke="#ECD43C" stroke-width="1.8"></path>
                    <path d="M3.66222222,78.7195767 L10.0711111,78.7195767" id="Path-41" stroke="#ECD43C" stroke-width="1.8"></path>
                    <path d="M6.40888889,70.4814815 C6.08076063,70.4814815 2.74666667,71.5902156 2.74666667,74.1428571" id="Path-42" stroke="#ECD43C" stroke-width="1.8"></path>
                    <polyline id="Page-1" stroke="#ECD43C" stroke-width="1.8" points="65.0044444 31.1216931 58.5955556 34.0331825 63.5354699 37.5518205 58.8035519 41.1904762"></polyline>
                    <polyline id="Page-1" stroke="#ECD43C" stroke-width="1.8" points="46.1940304 21.0529101 45.7777778 27.97342 51.1808491 25.3194802 52.1866667 31.1216931"></polyline>
                    <ellipse id="Oval-14" stroke="#ECD43C" stroke-width="0.9" fill="#ECD43C" cx="59.0533333" cy="24.2566138" rx="3.20444444" ry="3.2037037"></ellipse>
                    <ellipse id="Oval-14" stroke="#ECD43C" stroke-width="0.9" fill="#ECD43C" cx="52.6444444" cy="37.9867725" rx="3.20444444" ry="3.2037037"></ellipse>
                    <path d="M88.8088889,81.3878983 L170.293333,81.5433186" id="Path-45" stroke="#ECD43C" stroke-width="1.8"></path>
                    <ellipse id="Oval-5" stroke="#ECD43C" stroke-width="1.8" fill="#FFF28B" cx="86.52" cy="80.5502646" rx="5.03555556" ry="5.49206349"></ellipse>
                    <path d="M87.8933333,77.8042328 C86.802926,77.8042328 84.2311111,78.7999067 84.2311111,81.4656085" id="Path-31" stroke="#ECD43C" stroke-width="1.8"></path>
                    <ellipse id="Oval-5" stroke="#ECD43C" stroke-width="1.8" fill="#FFF28B" cx="175.328889" cy="80.5502646" rx="5.03555556" ry="5.49206349"></ellipse>
                    <path d="M176.702222,77.8042328 C175.611815,77.8042328 173.04,78.7999067 173.04,81.4656085" id="Path-31" stroke="#ECD43C" stroke-width="1.8"></path>
                    <use id="Rectangle-32" stroke="#ECD43C" mask="url(#mask-14)" stroke-width="3.6" fill="#FFF28B" xlink:href="#path-13"></use>
                    <g id="Page-1" transform="translate(140.080000, 86.957672)" stroke="#ECD43C" stroke-width="1.8" stroke-dasharray="4.776300144195557,0.9548999905586243">
                        <path d="M0,0 C3.46249026,0.860986569 8.80539077,3.37297192 10.5100144,10.5151893" id="Stroke-3"></path>
                    </g>
                    <g id="Page-1" transform="translate(114.437778, 92.457672) scale(-1, 1) translate(-114.437778, -92.457672) translate(108.937778, 86.957672)" stroke="#ECD43C" stroke-width="1.8" stroke-dasharray="4.776300144195557,0.9548999905586243">
                        <path d="M0,0 C3.46249026,0.860986569 8.80539077,3.37297192 10.5100144,10.5151893" id="Stroke-3"></path>
                    </g>
                    <path d="M126.346667,78.7195767 L132.755556,78.7195767" id="Path-50" stroke="#F0DA4E" stroke-width="1.8"></path>
                    <use id="Rectangle-35" stroke="#ECD43C" mask="url(#mask-16)" stroke-width="3.6" fill="#FFF5A7" xlink:href="#path-15"></use>
                    <use id="Rectangle-35" stroke="#ECD43C" mask="url(#mask-18)" stroke-width="3.6" fill="#FFF5A7" xlink:href="#path-17"></use>
                    <use id="Rectangle-35" stroke="#ECD43C" mask="url(#mask-20)" stroke-width="3.6" fill="#FFF5A7" xlink:href="#path-19"></use>
                    <use id="Rectangle-35" stroke="#ECD43C" mask="url(#mask-22)" stroke-width="3.6" fill="#FFF5A7" xlink:href="#path-21"></use>
                    <polyline id="Path-51" stroke="#ECD43C" stroke-width="1.8" points="42.1155556 130.89418 42.1155556 118.226492 56.7644444 118.079365"></polyline>
                    <polyline id="Path-51" stroke="#ECD43C" stroke-width="1.8" transform="translate(95.217778, 129.063492) scale(-1, 1) translate(-95.217778, -129.063492) " points="87.8933333 135.470899 87.8933333 122.803211 102.542222 122.656085"></polyline>
                    <polyline id="Path-51" stroke="#ECD43C" stroke-width="1.8" transform="translate(160.222222, 116.248677) scale(-1, 1) translate(-160.222222, -116.248677) " points="152.897778 122.656085 152.897778 109.988397 167.546667 109.84127"></polyline>
                </g>
            </g>
        </g>
    </g>
</svg>