<?xml version="1.0" encoding="UTF-8" standalone="no"?>
<svg width="255px" height="220px" viewBox="0 0 255 220" version="1.1" xmlns="http://www.w3.org/2000/svg" xmlns:xlink="http://www.w3.org/1999/xlink">
    <!-- Generator: Sketch 3.8.3 (29802) - http://www.bohemiancoding.com/sketch -->
    <title>home-enterprise_features-design</title>
    <desc>Created with Sketch.</desc>
    <defs>
        <rect id="path-1" x="125.389804" y="52.9411765" width="25.9952563" height="92.6325715"></rect>
        <mask id="mask-2" maskContentUnits="userSpaceOnUse" maskUnits="objectBoundingBox" x="0" y="0" width="25.9952563" height="92.6325715" fill="white">
            <use xlink:href="#path-1"></use>
        </mask>
        <rect id="path-3" x="163.895335" y="62.5668449" width="19.2138851" height="9.91701961"></rect>
        <mask id="mask-4" maskContentUnits="userSpaceOnUse" maskUnits="objectBoundingBox" x="0" y="0" width="19.2138851" height="9.91701961" fill="white">
            <use xlink:href="#path-3"></use>
        </mask>
        <rect id="path-5" x="51.3407072" y="56.7914439" width="11.3022853" height="16.528366"></rect>
        <mask id="mask-6" maskContentUnits="userSpaceOnUse" maskUnits="objectBoundingBox" x="0" y="0" width="11.3022853" height="16.528366" fill="white">
            <use xlink:href="#path-5"></use>
        </mask>
        <rect id="path-7" x="105.643378" y="110.695187" width="20.3441136" height="12.1208017"></rect>
        <mask id="mask-8" maskContentUnits="userSpaceOnUse" maskUnits="objectBoundingBox" x="0" y="0" width="20.3441136" height="12.1208017" fill="white">
            <use xlink:href="#path-7"></use>
        </mask>
        <polygon id="path-9" points="9.44955562 18.9351256 31.2733918 15.6245117 33.5039419 0.240742815 0.406502457 4.68603441 7.89876813 15.6245117"></polygon>
    </defs>
    <g id="Page-1" stroke="none" stroke-width="1" fill="none" fill-rule="evenodd">
        <g id="Desktop-HD" transform="translate(-900.000000, -205.000000)">
            <g id="home-enterprise_features-design" transform="translate(900.000000, 205.000000)">
                <polygon id="Rectangle-59" fill="#FCFCFC" points="0.64792232 77.4570895 1 0 255 0 255 220 0 220"></polygon>
                <path d="M74.4977053,36.569038 L74.4977053,29.2042387 C74.4977053,29.2042387 74.5987968,21.497909 81.0899557,20.6119634 C87.5811145,19.7260177 115.212515,20.0628413 115.212515,20.0628413" id="Path-117" stroke="#1F2846" stroke-width="2"></path>
                <g id="Group-13" transform="translate(41.497705, 20.000000)">
                    <rect id="Rectangle-171" fill="#2E3A68" x="22.7083897" y="92.4064171" width="67.1378479" height="51.9786096"></rect>
                    <path d="M148.25658,88.2301673 L158.450298,88.2301673 C158.450298,88.2301673 165.678408,88.2301673 165.895568,81.2298232 C166.112729,74.2294791 166.036847,71.2299465 166.036847,71.2299465 L181.439246,71.2299465 C181.439246,71.2299465 181.541204,87.4131645 181.065492,94.337108 C180.589781,101.261051 171.993863,102.349895 171.993863,102.349895 L148.098194,102.514937 L148.25658,88.2301673 Z" id="Path-99" stroke="#222B48" stroke-width="2" fill="#283359"></path>
                    <use id="Rectangle-89" stroke="#222B48" mask="url(#mask-2)" stroke-width="4" fill="#283359" xlink:href="#path-1"></use>
                    <rect id="Rectangle-90" fill="#222B48" x="6.91124905" y="168.449198" width="19.2138851" height="11.0189107"></rect>
                    <rect id="Rectangle-90" fill="#222B48" x="146.123551" y="168.449198" width="19.2138851" height="11.0189107"></rect>
                    <use id="Rectangle-92" stroke="#222B48" mask="url(#mask-4)" stroke-width="4" fill="#283359" xlink:href="#path-3"></use>
                    <text id="A-" stroke="#1F2846" fill="#1F2846" font-family="Athelas-Regular, Athelas" font-size="27.9144385" font-weight="normal">
                        <tspan x="163.895335" y="56.7647059">A </tspan>
                    </text>
                    <rect id="Rectangle-93" fill="#222B48" x="143.161587" y="82.7807487" width="2.26045707" height="27.3545197"></rect>
                    <ellipse id="Oval-7" stroke="#222B48" stroke-width="2" fill="#495CA3" cx="144.525689" cy="87.9609164" rx="4.32606548" ry="4.21760093"></ellipse>
                    <rect id="Rectangle-95" fill="#1F2846" x="47.3914221" y="52.9411765" width="16.953428" height="6.52865157"></rect>
                    <use id="Rectangle-96" stroke="#222B48" mask="url(#mask-6)" stroke-width="4" fill="#283359" xlink:href="#path-5"></use>
                    <path d="M23.695711,97.2192513 L23.695711,145.106587" id="Path-110" stroke="#1F2846" stroke-width="2"></path>
                    <path d="M88.8589164,97.2192513 L88.8589164,145.106587" id="Path-110" stroke="#1F2846" stroke-width="2"></path>
                    <path d="M26.6576749,93.368984 L53.5201939,93.368984" id="Path-111" stroke="#1F2846" stroke-width="2"></path>
                    <path d="M61.2139202,93.5083082 L87.2566372,93.6105344" id="Path-112" stroke="#1F2846" stroke-width="2"></path>
                    <path d="M7.45888197,144.385027 L162.737272,144.385027 C162.737272,144.385027 171.144997,147.68532 171.982735,157.454918 C172.820473,167.224517 163.48229,171.238241 163.48229,171.238241 L7.45888206,171.238241 C7.45888206,171.238241 -0.738034143,167.029749 0.053898438,157.454918 C0.845831019,147.880087 7.45888197,144.385027 7.45888197,144.385027 Z" id="Path-98" stroke="#222B48" stroke-width="2" fill="#283359"></path>
                    <path d="M17.7717833,153.048128 L151.557067,153.048128" id="Path-115" stroke="#222B48" stroke-width="2"></path>
                    <path d="M145.16147,86.631016 C144.32667,86.631016 143.57185,87.1138785 143.161587,87.7456973" id="Path-116" stroke="#222B48" stroke-width="2"></path>
                    <rect id="Rectangle-93" fill="#222B48" x="132.301053" y="82.7807487" width="2.26045707" height="27.3545197"></rect>
                    <ellipse id="Oval-7" stroke="#222B48" stroke-width="2" fill="#495CA3" cx="133.665155" cy="101.436852" rx="4.32606548" ry="4.21760093"></ellipse>
                    <path d="M134.300935,100.106952 C133.466136,100.106952 132.711315,100.589814 132.301053,101.221633" id="Path-116" stroke="#222B48" stroke-width="2"></path>
                    <use id="Rectangle-97" stroke="#222B48" mask="url(#mask-8)" stroke-width="4" fill="#283359" xlink:href="#path-7"></use>
                    <g id="Page-1" transform="translate(69.112490, 106.844920)">
                        <mask id="mask-10" fill="white">
                            <use xlink:href="#path-9"></use>
                        </mask>
                        <g id="Clip-2"></g>
                        <path d="M9.02879888,9.68578957 C13.6392836,10.6038401 20.0898746,13.0377832 21.5067103,15.442344 C22.0868942,16.4269547 24.6390445,13.1559125 32.1168248,12.0867525 C32.1550642,12.0813557 31.7219041,12.0735604 32.3812041,12.0705622 L32.3891157,10.3885689 L25.0985765,10.3597861 C24.923862,10.958228 24.1854461,11.6484148 23.303962,11.644817 C22.295233,11.6406195 21.4809976,10.8622854 21.4856127,9.94483452 C21.4902278,9.02738365 22.3110562,8.34918958 23.3197852,8.35278743 C24.1821496,8.35638528 24.8988086,8.5596636 25.0853905,9.75954542 L32.3924122,9.78892783 L32.4036203,7.48870462 C31.7443203,7.48090929 32.1669316,7.4767118 32.1286922,7.47071539 C24.66212,6.34159122 22.2141391,3.0501613 21.6240657,4.03057447 C20.1841545,6.42314241 13.6478545,8.80491681 9.02879888,9.68578957 Z" id="Fill-1" stroke="#222B48" stroke-width="2" fill="#495CA3" mask="url(#mask-10)"></path>
                    </g>
                    <rect id="Rectangle-98" fill="#222B48" x="100.706772" y="111.657754" width="5.65114267" height="9.91701961"></rect>
                    <path d="M26.6576749,53.9012266 L152.200238,53.4928598 L152.200238,18.7512781 C152.200238,18.7512781 152.631523,0.590251806 135.774397,0.18161594 C118.91727,-0.227019927 42.2688473,0.181615944 42.2688473,0.181615944 C42.2688473,0.181615944 27.197955,1.00184686 27.197955,15.51259 C27.197955,30.0233332 26.6576749,53.9012266 26.6576749,53.9012266 Z" id="Path-100" stroke="#1F2846" stroke-width="2" fill="#495CA3"></path>
                    <path d="M27.1057042,42.5505087 C27.5900726,40.0712538 35.2177851,31.7950941 40.5096868,31.7950941 C45.8015885,31.7950941 45.1473378,38.3047527 51.2242317,38.3047524 C57.3011255,38.3047521 58.9124252,31.4902985 64.4369977,31.7950941 C69.9615703,32.0998896 69.782522,38.3047526 76.918666,38.3047524 C84.05481,38.3047521 85.8122687,31.8639623 90.5871846,31.7950941 C95.3621005,31.7262259 96.0567699,37.5523227 102.619391,37.5523225 C109.182013,37.5523223 108.906309,32.3435842 116.118192,31.7950941 C123.330075,31.2466039 122.298248,38.3047521 130.497719,38.3047524 C138.697191,38.3047526 138.055936,31.7950941 143.723873,31.7950941 C149.391811,31.7950941 151.5707,35.1262966 151.5707,40.6836368 L151.5707,53.0656545 L26.6583242,53.8501593 C26.6583242,53.8501593 26.6213358,45.0297636 27.1057042,42.5505087 Z" id="Path-101" stroke="#1F2846" stroke-width="2" fill="#2E3A68"></path>
                    <ellipse id="Oval-10" stroke="#222B48" stroke-width="2" fill="#2E3A68" cx="24.1244328" cy="93.7869566" rx="3.3906856" ry="3.3056732"></ellipse>
                    <ellipse id="Oval-10" stroke="#222B48" stroke-width="2" fill="#2E3A68" cx="89.2876381" cy="93.7869566" rx="3.3906856" ry="3.3056732"></ellipse>
                    <ellipse id="Oval-10" stroke="#222B48" stroke-width="2" fill="#2E3A68" cx="24.1244328" cy="144.802999" rx="3.3906856" ry="3.3056732"></ellipse>
                    <ellipse id="Oval-10" stroke="#222B48" stroke-width="2" fill="#2E3A68" cx="89.2876381" cy="144.802999" rx="3.3906856" ry="3.3056732"></ellipse>
                    <path d="M62.1879311,86.147331 C60.485757,81.4350193 57.0967797,77.0053476 56.6214235,77.0053476 C56.2972527,77.0053476 57.256929,80.4848054 54.9062904,84.2808954 C52.5556519,88.0769855 51.9897913,91.3195911 52.5020714,93.3964659 C53.340085,96.793923 57.5294979,98.1131884 60.7514299,95.9167994 C61.5627725,95.3637077 62.2544879,94.5415405 62.7275745,93.3964654 C63.5551756,91.3933115 63.1121884,88.7060519 62.1879311,86.147331 Z" id="Path-102" stroke="#1F2846" stroke-width="2" fill="#2E3A68"></path>
                    <path d="M55.480262,88.5561497 C55.480262,89.1536351 54.5302188,92.6739834 56.8759398,93.5953645" id="Path-118" stroke="#1F2846" stroke-width="2"></path>
                    <path d="M109.592664,114.684779 L121.440519,114.684779" id="Path-118" stroke="#222B48" stroke-width="2"></path>
                    <path d="M55.4328996,59.6791444 L55.4643562,70.3434915" id="Path-119" stroke="#1F2846" stroke-width="2"></path>
                    <path d="M32.5816027,43.801544 C34.7627355,41.7703412 39.2052126,37.4999027 41.8449901,39.8499221 C44.4847676,42.1999415 48.8120694,45.1204222 53.4370788,43.6601819 C58.0620882,42.1999415 59.6508908,37.2372299 64.3077791,37.7284882 C68.9646675,38.2197465 70.0850561,43.801544 76.5641827,43.801544 C83.0433093,43.801544 87.8451952,37.2372299 90.7477164,37.2372299 C93.6502376,37.2372299 97.4196588,43.801544 102.566557,43.801544 C107.713454,43.801544 112.563158,37.2372299 117.426231,37.2372299 C122.289304,37.2372299 122.224004,43.801544 129.644586,43.801544 C137.065168,43.801544 141.461369,36.5775401 144.490892,36.5775401 C147.520414,36.5775401 148.594527,42.0335153 149.79924,42.0335153" id="Path-182" stroke="#1F2846" stroke-width="2"></path>
                    <g id="Page-1" transform="translate(41.467494, 110.695187)">
                        <polygon id="Fill-1" stroke="#1F2846" stroke-width="2" fill="#495CA3" points="0 18.538925 31.8177664 18.538925 31.8177664 0.0542744508 0 0.0542744508"></polygon>
                        <polygon id="Fill-2" fill="#1F2846" points="27.9640429 0.000174096073 15.9670842 9.48106006 4.07976007 0.000174096073 0.157495077 0.000174096073 15.6634679 11.9893002 15.9670839 12.2965798 16.9518659 11.5357551 31.883076 0.000174096073"></polygon>
                        <polygon id="Fill-3" fill="#1F2846" points="0.109384321 18.4977948 3.93428475 18.4977952 14.3100028 9.76262128 12.0302115 8.55821477"></polygon>
                        <polygon id="Fill-4" fill="#1F2846" points="17.7201856 10.255978 28.3876194 18.4614083 31.8112538 18.4614088 19.5593561 8.78633625"></polygon>
                    </g>
                </g>
            </g>
        </g>
    </g>
</svg>