<svg width="38" height="28" viewBox="0 0 38 28" xmlns="http://www.w3.org/2000/svg"><title>home-footer-mail-icon</title><path d="M19 14.186L6.252 3.71h25.496L19 14.186zm14.49 10.105H4.51c-.365 0-.686-.23-.686-.493V6.793L16.93 17.528c.27.22.61.341.963.341h2.214c.351 0 .693-.12.962-.34L34.176 6.792v17.005c0 .262-.32.493-.686.493zM33.49 0H4.51C2.023 0 0 1.885 0 4.202v19.596C0 26.115 2.023 28 4.51 28h28.98c2.487 0 4.51-1.885 4.51-4.202V4.202C38 1.885 35.977 0 33.49 0z" fill="#FEFEFE" fill-rule="evenodd"/></svg>