<?xml version="1.0" encoding="UTF-8" standalone="no"?>
<svg width="219px" height="195px" viewBox="0 0 219 195" version="1.1" xmlns="http://www.w3.org/2000/svg" xmlns:xlink="http://www.w3.org/1999/xlink">
    <!-- Generator: Sketch 3.8.3 (29802) - http://www.bohemiancoding.com/sketch -->
    <title>home-enterprise_features-data</title>
    <desc>Created with Sketch.</desc>
    <defs>
        <polygon id="path-1" points="26.108045 0.570890321 0 0.570890321 0 11.4538414 26.108045 11.4538414 26.108045 0.570890321"></polygon>
        <polygon id="path-3" points="36 8.80507332 36 16.9090909 0 16.9090909 0 8.80507332 0 0.701055736 36 0.701055736"></polygon>
        <polygon id="path-5" points="36 8.80507332 36 16.9090909 0 16.9090909 0 8.80507332 0 0.701055736 36 0.701055736"></polygon>
        <rect id="path-7" x="16" y="68" width="140" height="30"></rect>
        <mask id="mask-8" maskContentUnits="userSpaceOnUse" maskUnits="objectBoundingBox" x="0" y="0" width="140" height="30" fill="white">
            <use xlink:href="#path-7"></use>
        </mask>
        <polygon id="path-9" points="31.4230161 0.653638066 0 0.653638066 0 13.1140193 31.4230161 13.1140193 31.4230161 0.653638066"></polygon>
        <polygon id="path-11" points="30.5671491 7.30371003 30.5671491 13.9071929 0 13.9071929 0 7.30371003 0 0.700227163 30.5671491 0.700227163"></polygon>
        <polygon id="path-13" points="31.4230161 0.653638066 0 0.653638066 0 13.1140193 31.4230161 13.1140193 31.4230161 0.653638066"></polygon>
        <polygon id="path-15" points="30.5671491 7.30371003 30.5671491 13.9071929 0 13.9071929 0 7.30371003 0 0.700227163 30.5671491 0.700227163"></polygon>
        <polygon id="path-17" points="31.4230161 0.653638066 0 0.653638066 0 13.1140193 31.4230161 13.1140193 31.4230161 0.653638066"></polygon>
        <polygon id="path-19" points="30.5671491 7.30371003 30.5671491 13.9071929 0 13.9071929 0 7.30371003 0 0.700227163 30.5671491 0.700227163"></polygon>
        <rect id="path-21" x="0" y="108" width="170" height="40"></rect>
        <mask id="mask-22" maskContentUnits="userSpaceOnUse" maskUnits="objectBoundingBox" x="0" y="0" width="170" height="40" fill="white">
            <use xlink:href="#path-21"></use>
        </mask>
        <rect id="path-23" x="53" y="117" width="64" height="24"></rect>
        <mask id="mask-24" maskContentUnits="userSpaceOnUse" maskUnits="objectBoundingBox" x="0" y="0" width="64" height="24" fill="white">
            <use xlink:href="#path-23"></use>
        </mask>
    </defs>
    <g id="Page-1" stroke="none" stroke-width="1" fill="none" fill-rule="evenodd">
        <g id="Desktop-HD" transform="translate(-622.000000, -513.000000)">
            <g id="home-enterprise_features-data" transform="translate(622.000000, 513.000000)">
                <rect id="Rectangle-178" fill="#FCFCFC" x="0" y="0" width="219" height="195"></rect>
                <g id="Group-11" transform="translate(26.000000, 23.000000)">
                    <g id="Group-8" transform="translate(76.000000, 18.000000)">
                        <g id="Group-4">
                            <g id="Page-1" transform="translate(0.000000, 0.790854)">
                                <g id="Group-3" transform="translate(5.623090, 0.643082)">
                                    <mask id="mask-2" fill="white">
                                        <use xlink:href="#path-1"></use>
                                    </mask>
                                    <g id="Clip-2"></g>
                                </g>
                                <g id="Group-6" transform="translate(0.000000, 5.680926)">
                                    <mask id="mask-4" fill="white">
                                        <use xlink:href="#path-3"></use>
                                    </mask>
                                    <g id="Clip-5"></g>
                                </g>
                                <g id="Group-6" transform="translate(0.000000, 13.151515)">
                                    <mask id="mask-6" fill="white">
                                        <use xlink:href="#path-5"></use>
                                    </mask>
                                    <g id="Clip-5"></g>
                                    <path d="M5.68421053,0 L5.68421053,6.64622187 C5.68421053,6.7668935 5.72330025,6.69263404 5.72330025,6.81794688 C5.72330025,7.00705179 5.73977935,7.19470124 5.77213686,7.38048487 C6.32904069,10.5780001 11.5894016,13.2228255 18.490749,13.2228255 C25.7949434,13.2228255 31.7440272,11.603041 31.7440272,6.96182459 L31.7440272,0 L5.68421053,0 Z" id="Fill-4" stroke="#1F2846" stroke-width="1.9" fill="#2E3A68" mask="url(#mask-6)"></path>
                                </g>
                            </g>
                        </g>
                        <path d="M5.68421053,6.47177967 L5.68421053,13.1180015 C5.68421053,13.2386732 5.72330025,13.1644137 5.72330025,13.2897266 C5.72330025,13.4788315 5.73977935,13.6664809 5.77213686,13.8522645 C6.32904069,17.0497797 11.5894016,19.6946052 18.490749,19.6946052 C25.7949434,19.6946052 31.7440272,18.0748207 31.7440272,13.4336043 L31.7440272,6.47177967 L5.68421053,6.47177967 Z" id="Fill-4" stroke="#1F2846" stroke-width="1.9" fill="#2E3A68"></path>
                        <path d="M18.6783273,10.9600605 C11.4675749,10.9600605 5.62308998,8.88723297 5.62308998,6.3323525 C5.62308998,3.77747204 11.4675749,1.70464448 18.6783273,1.70464448 C25.8872107,1.70464448 31.7316957,3.77747204 31.7316957,6.3323525 C31.7316957,8.88723297 25.8872107,10.9600605 18.6783273,10.9600605 Z" id="Fill-1" stroke="#1F2846" stroke-width="1.9" fill="#495CA3"></path>
                    </g>
                    <rect id="Rectangle-129" fill="#1B2135" x="0" y="143" width="7" height="24"></rect>
                    <rect id="Rectangle-129" fill="#1B2135" x="162" y="140" width="7" height="24"></rect>
                    <polyline id="Path-153" stroke="#1F2846" stroke-width="1.9" fill="#2F3A61" points="0 109 16.0153601 96 154.996642 96.9335622 169 109"></polyline>
                    <use id="Rectangle-132" stroke="#1F2846" mask="url(#mask-8)" stroke-width="3.8" fill="#283359" xlink:href="#path-7"></use>
                    <path d="M20.9981769,43.7255027 C25.5153846,40.3083877 31.3701181,32.862755 41.0029537,33.0543599 C50.6357893,33.2459648 51.722529,43.8352662 58.3102509,39.8327451 C64.8979729,35.8302241 66.8074094,32.0944096 74.638871,32.0944096 C82.4703325,32.0944096 85.5337967,40.7060396 95.3511539,40.7060398 C105.168511,40.7060399 109.752995,30.9428543 116.365188,32.0944096 C119.012179,32.5553999 120.925784,33.8874169 122.617119,35.319206 C125.150743,37.4640308 130.696135,39.8327448 133.950337,39.8327448 C140.135603,39.8327448 148.932716,36.9567457 148.932716,34.5255776 C148.932716,32.0944096 149,63.9364526 149,63.9364526 L21.0348773,64 C21.0348773,64 16.4809692,47.1426177 20.9981769,43.7255027 Z" id="Path-155" stroke="#1F2846" stroke-width="1.9" fill="#495CA3"></path>
                    <polygon id="Path-154" stroke="#1F2846" stroke-width="1.9" fill="#283359" points="17 0 17 68.7167304 155.622089 69 156 2.54845308 148.809719 2.54845308 148.809719 62.2677229 23.5805739 61.9533033 23.5805739 0"></polygon>
                    <g id="Group-4" transform="translate(31.000000, 85.000000)">
                        <g id="Page-1">
                            <g id="Group-3" transform="translate(0.000000, 0.736293)">
                                <mask id="mask-10" fill="white">
                                    <use xlink:href="#path-9"></use>
                                </mask>
                                <g id="Clip-2"></g>
                            </g>
                            <g id="Group-6" transform="translate(0.000000, 6.762743)">
                                <mask id="mask-12" fill="white">
                                    <use xlink:href="#path-11"></use>
                                </mask>
                                <g id="Clip-5"></g>
                                <path d="M0.939521913,0.700227163 L0.939521913,6.34198071 C0.939521913,6.44441478 0.9784891,6.38137843 0.9784891,6.48775228 C0.9784891,9.41106312 6.42647306,11.9246377 13.7059148,11.9246377 C20.9872122,11.9246377 26.9176471,10.5496572 26.9176471,6.60988521 L26.9176471,0.700227163 L0.939521913,0.700227163 Z" id="Fill-4" stroke="#1F2846" stroke-width="1.9" fill="#2E3A68" mask="url(#mask-12)"></path>
                            </g>
                        </g>
                        <path d="M14.1185903,11.3372118 C6.84035659,11.3372118 0.941176471,9.22659081 0.941176471,6.62512766 C0.941176471,4.02366452 6.84035659,1.91304348 14.1185903,1.91304348 C21.3949375,1.91304348 27.2941176,4.02366452 27.2941176,6.62512766 C27.2941176,9.22659081 21.3949375,11.3372118 14.1185903,11.3372118 Z" id="Fill-1" stroke="#1F2846" stroke-width="1.9" fill="#495CA3"></path>
                    </g>
                    <g id="Group-4" transform="translate(113.000000, 85.000000)">
                        <g id="Page-1">
                            <g id="Group-3" transform="translate(0.000000, 0.736293)">
                                <mask id="mask-14" fill="white">
                                    <use xlink:href="#path-13"></use>
                                </mask>
                                <g id="Clip-2"></g>
                            </g>
                            <g id="Group-6" transform="translate(0.000000, 6.762743)">
                                <mask id="mask-16" fill="white">
                                    <use xlink:href="#path-15"></use>
                                </mask>
                                <g id="Clip-5"></g>
                                <path d="M0.939521913,0.700227163 L0.939521913,6.34198071 C0.939521913,6.44441478 0.9784891,6.38137843 0.9784891,6.48775228 C0.9784891,9.41106312 6.42647306,11.9246377 13.7059148,11.9246377 C20.9872122,11.9246377 26.9176471,10.5496572 26.9176471,6.60988521 L26.9176471,0.700227163 L0.939521913,0.700227163 Z" id="Fill-4" stroke="#1F2846" stroke-width="1.9" fill="#2E3A68" mask="url(#mask-16)"></path>
                            </g>
                        </g>
                        <path d="M14.1185903,11.3372118 C6.84035659,11.3372118 0.941176471,9.22659081 0.941176471,6.62512766 C0.941176471,4.02366452 6.84035659,1.91304348 14.1185903,1.91304348 C21.3949375,1.91304348 27.2941176,4.02366452 27.2941176,6.62512766 C27.2941176,9.22659081 21.3949375,11.3372118 14.1185903,11.3372118 Z" id="Fill-1" stroke="#1F2846" stroke-width="1.9" fill="#495CA3"></path>
                    </g>
                    <g id="Group-4" transform="translate(71.000000, 85.000000)">
                        <g id="Page-1">
                            <g id="Group-3" transform="translate(0.000000, 0.736293)">
                                <mask id="mask-18" fill="white">
                                    <use xlink:href="#path-17"></use>
                                </mask>
                                <g id="Clip-2"></g>
                            </g>
                            <g id="Group-6" transform="translate(0.000000, 6.762743)">
                                <mask id="mask-20" fill="white">
                                    <use xlink:href="#path-19"></use>
                                </mask>
                                <g id="Clip-5"></g>
                                <path d="M0.939521913,0.700227163 L0.939521913,6.34198071 C0.939521913,6.44441478 0.9784891,6.38137843 0.9784891,6.48775228 C0.9784891,9.41106312 6.42647306,11.9246377 13.7059148,11.9246377 C20.9872122,11.9246377 26.9176471,10.5496572 26.9176471,6.60988521 L26.9176471,0.700227163 L0.939521913,0.700227163 Z" id="Fill-4" stroke="#1F2846" stroke-width="1.9" fill="#2E3A68" mask="url(#mask-20)"></path>
                            </g>
                        </g>
                        <path d="M14.1185903,11.3372118 C6.84035659,11.3372118 0.941176471,9.22659081 0.941176471,6.62512766 C0.941176471,4.02366452 6.84035659,1.91304348 14.1185903,1.91304348 C21.3949375,1.91304348 27.2941176,4.02366452 27.2941176,6.62512766 C27.2941176,9.22659081 21.3949375,11.3372118 14.1185903,11.3372118 Z" id="Fill-1" stroke="#1F2846" stroke-width="1.9" fill="#495CA3"></path>
                    </g>
                    <use id="Rectangle-128" stroke="#1F2846" mask="url(#mask-22)" stroke-width="3.8" fill="#2F3A61" xlink:href="#path-21"></use>
                    <use id="Rectangle-28" stroke="#222B48" mask="url(#mask-24)" stroke-width="3.8" fill="#2E3A68" xlink:href="#path-23"></use>
                    <path d="M59,122 L59,136" id="Path-93" stroke="#222B48" stroke-width="1.9"></path>
                    <path d="M108,122 L108,136" id="Path-93" stroke="#222B48" stroke-width="1.9"></path>
                    <path d="M99,122 L99,136" id="Path-93" stroke="#222B48" stroke-width="1.9"></path>
                    <path d="M92,122 L92,136" id="Path-93" stroke="#222B48" stroke-width="1.9"></path>
                    <path d="M83,122 L83,136" id="Path-93" stroke="#222B48" stroke-width="1.9"></path>
                    <path d="M76,122 L76,136" id="Path-93" stroke="#222B48" stroke-width="1.9"></path>
                    <path d="M67,122 L67,136" id="Path-93" stroke="#222B48" stroke-width="1.9"></path>
                    <path d="M31,43.4084408 C34.4614262,40.9263921 38.2793833,38.5325309 40.7880466,38.595506 C45.4990322,38.7137662 46.474301,40.4082798 47.474046,41.2364319 C54.4925746,47.0503239 58.2808792,47.8519391 63.1718765,44.5301502 C68.0628737,41.2083613 70.286537,36.8881983 76.3517358,38.2617081 C82.4169347,39.6352179 83.1616616,46.4939944 95.0390237,46.4939944 C107.036294,46.4939944 109.430794,38.5955061 116.39884,38.5955061 C124.088244,38.5955061 123.316162,47.1826172 135.643066,46.4939947" id="Path-181" stroke="#1F2846" stroke-width="1.9"></path>
                    <g id="Group-5" transform="translate(53.000000, 9.000000)" stroke="#1F2846" stroke-width="1.9">
                        <ellipse id="Oval-28" fill="#495CA3" cx="5.05303789" cy="4.78062845" rx="5.05303789" ry="4.78062845"></ellipse>
                        <path d="M6.15413886,2.72727273 C4.45206947,2.72727273 2.75,3.52583376 2.75,5.5162839" id="Path-183"></path>
                    </g>
                    <g id="Group-5" transform="translate(43.000000, 20.000000)" stroke="#1F2846" stroke-width="1.9" fill="#495CA3">
                        <path d="M3.30744298,6.31042956 C5.13409331,6.31042956 6.61488597,4.89779179 6.61488597,3.15521478 C6.61488597,1.41263777 5.13409331,0 3.30744298,0 C1.48079266,0 0,1.41263777 0,3.15521478 C0,4.89779179 1.48079266,6.31042956 3.30744298,6.31042956 Z" id="Oval-28"></path>
                    </g>
                    <g id="Group-5" transform="translate(57.000000, 24.000000)" stroke="#1F2846" stroke-width="1.9" fill="#495CA3">
                        <path d="M3.30744298,6.31042956 C5.13409331,6.31042956 6.61488597,4.89779179 6.61488597,3.15521478 C6.61488597,1.41263777 5.13409331,0 3.30744298,0 C1.48079266,0 0,1.41263777 0,3.15521478 C0,4.89779179 1.48079266,6.31042956 3.30744298,6.31042956 Z" id="Oval-28"></path>
                    </g>
                    <g id="Group-5" transform="translate(114.000000, 15.000000)" stroke="#1F2846" stroke-width="1.9" fill="#495CA3">
                        <path d="M3.30744298,6.31042956 C5.13409331,6.31042956 6.61488597,4.89779179 6.61488597,3.15521478 C6.61488597,1.41263777 5.13409331,0 3.30744298,0 C1.48079266,0 0,1.41263777 0,3.15521478 C0,4.89779179 1.48079266,6.31042956 3.30744298,6.31042956 Z" id="Oval-28"></path>
                    </g>
                    <path d="M28,74 L142.477273,74" id="Path-115" stroke="#1F2846" stroke-width="1.9"></path>
                    <g id="Group-7" transform="translate(8.000000, 114.000000)" stroke="#1F2846" stroke-width="1.9">
                        <ellipse id="Oval-48" fill="#495CA3" cx="5.2109485" cy="4.89650371" rx="4.7890515" ry="4.89650371"></ellipse>
                        <path d="M7.3214361,0.758543657 L3.46494014,9.11957877" id="Path-222"></path>
                    </g>
                    <g id="Group-7" transform="translate(8.000000, 133.000000)" stroke="#1F2846" stroke-width="1.9">
                        <ellipse id="Oval-48" fill="#495CA3" cx="5.2109485" cy="4.89650371" rx="4.7890515" ry="4.89650371"></ellipse>
                        <path d="M7.3214361,0.758543657 L3.46494014,9.11957877" id="Path-222"></path>
                    </g>
                    <g id="Group-7" transform="translate(8.000000, 133.000000)" stroke="#1F2846" stroke-width="1.9">
                        <ellipse id="Oval-48" fill="#495CA3" cx="5.2109485" cy="4.89650371" rx="4.7890515" ry="4.89650371"></ellipse>
                        <path d="M7.3214361,0.758543657 L3.46494014,9.11957877" id="Path-222"></path>
                    </g>
                    <g id="Group-7" transform="translate(155.000000, 114.000000)" stroke="#1F2846" stroke-width="1.9">
                        <ellipse id="Oval-48" fill="#495CA3" cx="5.2109485" cy="4.89650371" rx="4.7890515" ry="4.89650371"></ellipse>
                        <path d="M7.3214361,0.758543657 L3.46494014,9.11957877" id="Path-222"></path>
                    </g>
                    <g id="Group-7" transform="translate(155.000000, 134.000000)" stroke="#1F2846" stroke-width="1.9">
                        <ellipse id="Oval-48" fill="#495CA3" cx="5.2109485" cy="4.89650371" rx="4.7890515" ry="4.89650371"></ellipse>
                        <path d="M7.3214361,0.758543657 L3.46494014,9.11957877" id="Path-222"></path>
                    </g>
                </g>
            </g>
        </g>
    </g>
</svg>