<?xml version="1.0" encoding="UTF-8" standalone="no"?>
<svg width="127px" height="131px" viewBox="0 0 127 131" version="1.1" xmlns="http://www.w3.org/2000/svg" xmlns:xlink="http://www.w3.org/1999/xlink">
    <!-- Generator: Sketch 3.8.3 (29802) - http://www.bohemiancoding.com/sketch -->
    <title>home-sme_process-1</title>
    <desc>Created with Sketch.</desc>
    <defs>
        <rect id="path-1" x="0" y="29" width="100" height="100"></rect>
        <mask id="mask-2" maskContentUnits="userSpaceOnUse" maskUnits="objectBoundingBox" x="0" y="0" width="100" height="100" fill="white">
            <use xlink:href="#path-1"></use>
        </mask>
        <rect id="path-3" x="17" y="13" width="100" height="100"></rect>
        <mask id="mask-4" maskContentUnits="userSpaceOnUse" maskUnits="objectBoundingBox" x="0" y="0" width="100" height="100" fill="white">
            <use xlink:href="#path-3"></use>
        </mask>
    </defs>
    <g id="Page-1" stroke="none" stroke-width="1" fill="none" fill-rule="evenodd">
        <g id="Desktop-HD" transform="translate(-288.000000, -308.000000)" stroke="#ECD43C">
            <g id="home-sme_process-1" transform="translate(288.000000, 310.000000)">
                <use id="Rectangle-18" mask="url(#mask-2)" stroke-width="4" fill="#ECD43C" xlink:href="#path-1"></use>
                <use id="Rectangle-18" mask="url(#mask-4)" stroke-width="4" fill="#FBF099" xlink:href="#path-3"></use>
                <path d="M51.7533744,83.4706324 C40.0344359,70.7726256 38.713949,50.5282263 48.671217,36.3884818 C48.9760626,35.9614807 49.5474566,35.8721839 49.9534068,36.1920288 C50.3562931,36.5102502 50.4405469,37.1207157 50.1357014,37.5477168 C40.7099983,50.9324973 41.9692097,70.0907227 53.0616063,82.116568 C57.7553092,87.2048628 64.069749,90.0250185 70.8391594,90.0672316 C77.8276297,90.0672316 84.2584929,87.2422051 89.1038527,82.1068266 C92.9213161,78.0608691 95.0261294,72.685201 95.0261294,66.9620871 C95.0261294,61.2389731 92.9213161,55.863305 89.1038527,51.8173475 C86.0845027,48.6172745 82.0709577,46.8556919 77.8015876,46.8556919 C73.5322174,46.8556919 69.5171406,48.6172745 66.4993224,51.8173475 C64.1187694,54.3387648 62.8059419,57.696325 62.8059419,61.2633268 C62.8059419,64.8319522 64.1187694,68.1878888 66.4993224,70.7109296 C68.3697569,72.6933189 70.8575421,73.78274 73.5015797,73.78274 C76.1440854,73.78274 78.6318705,72.6933189 80.5038369,70.7109296 C83.5170594,67.5108566 83.5170594,62.3089113 80.5038369,59.1104618 C78.1585173,56.6312576 74.3502453,56.6312576 72.0049257,59.1104618 C70.2003624,61.0230372 70.2003624,64.1321899 72.0049257,66.0431417 C73.3759649,67.4962444 75.6079248,67.4913736 76.9804959,66.0431417 C77.3374257,65.6616007 77.9134154,65.6616007 78.2703451,66.0431417 C78.6272749,66.423059 78.6272749,67.0335245 78.2703451,67.4118183 C76.1885102,69.6215085 72.7999753,69.6215085 70.708949,67.4118183 C68.1951218,64.7475261 68.1951218,60.407701 70.708949,57.7434088 C73.7681281,54.5011227 78.7391027,54.5011227 81.7936861,57.7434088 C85.5223,61.6935751 85.5223,68.1261928 81.7936861,72.0796062 C79.578577,74.4305478 76.6312256,75.7229162 73.5015797,75.7229162 C70.3658062,75.7229162 67.4230505,74.4305478 65.2079414,72.0796062 C62.4796499,69.1912602 60.9799322,65.3482501 60.9799322,61.2633268 C60.9799322,57.1751563 62.4796499,53.3353934 65.2079414,50.4438002 C68.5704342,46.8800456 73.0450772,44.9171393 77.8015876,44.9171393 C82.5611617,44.9171393 87.0373366,46.8800456 90.3982976,50.4438002 C94.5619675,54.8599335 96.8506073,60.7242988 96.8506073,66.9620871 C96.8506073,73.1998754 94.5619675,79.0691113 90.3982976,83.4803739 C85.209795,88.9843048 78.3193655,92.0090314 70.9862206,92.0090314 C63.5688219,91.9668183 56.7917521,88.9323502 51.7533744,83.4706324 Z" id="Fill-4" stroke-width="0.5" fill="#ECD43C"></path>
                <path d="M110.977991,52.0673298 C102.706183,52.0673298 96,44.9597486 96,36.1928321 C96,27.4259155 110.977991,0 110.977991,0 C110.977991,0 125.955982,27.4259155 125.955982,36.1928321 C125.955982,44.9597486 119.249799,52.0673298 110.977991,52.0673298 Z" id="Stroke-7" stroke-width="2" fill="#FFFBD2"></path>
                <path d="M113.337452,45.7393346 C109.562794,45.7393346 106.196969,43.8896303 104,41" id="Stroke-8" stroke-width="2"></path>
            </g>
        </g>
    </g>
</svg>