<svg width="1154" height="701" viewBox="0 0 1154 701" xmlns="http://www.w3.org/2000/svg"><title>home-bg</title><g fill="none" fill-rule="evenodd"><path fill="#FCF1B0" d="M971.126.752l8.94 42.06-185.848 39.503-8.94-42.06z"/><path fill="#C3CE75" d="M785.278 40.255l8.94 42.06-185.848 39.503-8.94-42.06z"/><path fill="#2BDFBE" d="M599.43 79.758l8.94 42.06-185.848 39.504-8.94-42.06z"/><path fill="#48BEEE" d="M413.582 119.261l8.94 42.06-185.848 39.504-8.94-42.06z"/><path fill="#1DA9E4" d="M227.734 158.764l8.94 42.06-185.848 39.504-8.94-42.06z"/><path fill="#FDDD62" d="M930.18 53.415l8.94 42.06-185.847 39.504-8.94-42.06z"/><path fill="#ACCD8D" d="M744.332 92.919l8.94 42.06-185.847 39.503-8.94-42.06z"/><path fill="#31DEC0" d="M558.484 132.422l8.94 42.06-185.848 39.503-8.94-42.06z"/><path fill="#61C7F0" d="M372.636 171.925l8.94 42.06-185.848 39.504-8.94-42.06z"/><path fill="#23B1EC" d="M186.788 211.428l8.94 42.06L9.88 292.993l-8.94-42.06z"/><path fill="#ABCD8E" d="M769.901 131.445l8.94 42.06-185.848 39.503-8.94-42.06z"/><path fill="#5DDCD6" d="M584.053 170.948l8.94 42.06-185.848 39.503-8.94-42.06z"/><path fill="#4EBFEE" d="M398.205 210.451l8.94 42.06-185.848 39.504-8.94-42.06z"/><path fill="#33B7EE" d="M212.357 249.954l8.94 42.06L35.45 331.519l-8.94-42.06z"/><path fill="#6ADCDC" d="M440.402 245.442l8.94 42.06-185.848 39.504-8.94-42.06z"/><path fill="#36B7ED" d="M254.554 284.946l8.94 42.06-185.848 39.503-8.94-42.06z"/><path fill="#AFCD8A" d="M812.098 166.436l8.94 42.06L635.19 248l-8.94-42.06z"/><path fill="#44D8BB" d="M626.25 205.94l8.94 42.06-185.848 39.503-8.94-42.06z"/><path fill="#7CCBB8" d="M728.114 228.248l8.94 42.06-185.847 39.503-8.94-42.06z"/><path fill="#5CDCD6" d="M542.266 267.751l8.94 42.06-185.847 39.504-8.94-42.06z"/><path fill="#75CDF1" d="M356.418 307.254l8.94 42.06-185.847 39.504-8.94-42.06z"/><path fill="#B2CD86" d="M796.722 257.626l8.94 42.06-185.848 39.503-8.94-42.06z"/><path fill="#7FDBE7" d="M610.874 297.129l8.94 42.06-185.848 39.503-8.94-42.06z"/><path fill="#69DBDC" d="M425.026 336.632l8.94 42.06-185.848 39.504-8.94-42.06z"/><path fill="#68D0B9" d="M698.066 322.556l8.94 42.06-185.848 39.504-8.94-42.06z"/><path fill="#4BDDCD" d="M512.218 362.06l8.94 42.06-185.848 39.503-8.94-42.06z"/><path fill="#77CDF1" d="M326.37 401.563l8.94 42.06-185.848 39.503-8.94-42.06z"/><path fill="#E4D054" d="M826.34 339.251l8.94 42.06-185.848 39.504-8.94-42.06z"/><path fill="#44DECA" d="M640.492 378.755l8.94 42.06-185.848 39.503-8.94-42.06z"/><path fill="#7BCFF1" d="M334.469 487.762l8.94 42.06-185.848 39.504-8.94-42.06z"/><path fill="#1DAAE6" d="M401.12 517.556l8.94 42.06-185.848 39.504-8.94-42.06z"/><path fill="#3FBBEE" d="M268.796 457.761l8.94 42.06-185.848 39.504-8.94-42.06z"/><path fill="#7BCFF2" d="M239.178 376.135l8.94 42.06L62.27 457.7l-8.94-42.06z"/><path fill="#72CCF1" d="M586.967 478.053l8.94 42.06-185.847 39.503-8.94-42.06z"/><path fill="#69DCDC" d="M502.984 539.865l8.94 42.06-185.848 39.503-8.94-42.06z"/><path fill="#49BEEF" d="M317.136 579.368l8.94 42.06-185.848 39.504-8.94-42.06z"/><path fill="#98D9F3" d="M523.662 579.43l8.94 42.06-185.848 39.504-8.94-42.06z"/><path fill="#61C6F0" d="M337.814 618.933l8.94 42.06-185.848 39.504-8.94-42.06z"/><path fill="#8BD4F2" d="M454.644 418.258l8.94 42.06-185.848 39.503-8.94-42.06z"/><path fill="#7BDBE5" d="M520.317 448.26l8.94 42.06-185.848 39.503-8.94-42.06z"/><path fill="#67D0B9" d="M706.165 408.756l8.94 42.06-185.848 39.504-8.94-42.06z"/><path fill="#72CEB9" d="M772.816 438.55l8.94 42.06-185.848 39.503-8.94-42.06z"/><path fill="#FDF8D7" d="M1144.512 359.543l8.94 42.06-185.848 39.504-8.94-42.06z"/><path fill="#FBEEA2" d="M1099.81 149.241l8.94 42.06-185.847 39.504-8.94-42.06z"/><path fill="#FBEEA0" d="M955.75 91.941l8.94 42.06-185.849 39.504-8.94-42.06z"/><path fill="#FDE377" d="M997.946 126.933l8.94 42.06-185.847 39.503-8.94-42.06z"/><path fill="#FED953" d="M913.963 188.745l8.94 42.06-185.848 39.503-8.94-42.06z"/><path fill="#FCE990" d="M982.57 218.122l8.94 42.06-185.848 39.504-8.94-42.06z"/><path fill="#EAD14F" d="M883.914 283.053l8.94 42.06-185.848 39.504-8.94-42.06z"/><path fill="#FDE683" d="M1012.188 299.748l8.94 42.06-185.848 39.504-8.94-42.06z"/><path fill="#FDE275" d="M1069.762 243.55l8.94 42.06-185.848 39.503-8.94-42.06z"/><path fill="#FCE275" d="M1077.86 329.75l8.94 42.06-185.847 39.503-8.94-42.06z"/><path fill="#A1CC98" d="M892.013 369.253l8.94 42.06-185.848 39.503-8.94-42.06z"/><path fill="#FFD440" d="M958.664 399.046l8.94 42.06-185.848 39.504-8.94-42.06z"/><path fill="#F8D241" d="M874.68 460.858l8.94 42.06-185.848 39.504-8.94-42.06z"/><path fill="#FCF2BB" d="M1060.528 421.355l8.94 42.06L883.62 502.92l-8.94-42.06z"/><path fill="#99CCA1" d="M895.358 500.424l8.94 42.06-185.848 39.503-8.94-42.06z"/><path fill="#53D5BA" d="M709.51 539.927l8.94 42.06-185.848 39.503-8.94-42.06z"/><path fill="#3FDABB" d="M688.832 500.362l8.94 42.06-185.848 39.503-8.94-42.06z"/><path fill="#FBEEA3" d="M1081.206 460.92l8.94 42.06-185.848 39.504-8.94-42.06z"/></g></svg>