<svg xmlns="http://www.w3.org/2000/svg" viewBox="0 0 400 480.8" ><rect x="53.6" y="444.8" fill="#FFFFFF" width="17" height="4"/><path fill="#FFFFFF" d="M39.9 396.6v44.3h44.3v-44.3H39.9z M80.1 436.8H43.9v-36.2h36.2V436.8z"/><path fill="#FFFFFF" d="M56.9 413.6h-6.2v-6.2h6.2V413.6z M56.9 428h-6.2v-6.2h6.2V428z"/> <path fill="#FFFFFF" d="M73.4 413.6h-6.2v-6.2h6.2V413.6z M73.4 428l-5.1 3.7l-1-1.7l1.6-1.6l-1.6-0.5v-6.2h6.2V428z"/> <rect x="35.7" y="212.8" fill="#FFFFFF" width="25.2" height="5.9"/><path fill="#FFFFFF" d="M111.9 176.7l-0.1-1.3c-1.6 1.1-3.2 1.8-5.7 1.8c-7.5 0-11.5-5.6-11.5-12.2c0-6.6 4-12.2 11.5-12.2 c2.4 0 4 0.6 5.5 1.5v-12.9h5.8v35.2H111.9z M100.5 165c0 4.4 2.2 7.4 5.9 7.4c3.8 0 5.4-3 5.4-7.4s-1.6-7.4-5.4-7.4 C102.7 157.7 100.5 160.7 100.5 165z"/> <rect x="121.4" y="143.9" fill="#FFFFFF" width="5.8" height="5.8"/> <rect x="121.4" y="153.3" fill="#FFFFFF" width="5.8" height="23.5"/> <path fill="#FFFFFF" d="M131.1 175.4l0.5-5c1.5 1.1 4.6 2.3 7.2 2.3c2.8 0 3.6-1.4 3.6-2.6c0-2-2-2.6-4.3-3.3 c-3.3-1-6.8-2.1-6.8-6.6c0-3.3 2-7.5 8.6-7.5c3.1 0 6.1 0.9 7.4 1.7l-0.5 5c-1.2-1.2-3.9-2.5-6.4-2.5c-2 0-3.9 0.7-3.9 2.6 c0 2.3 2.4 2.6 5.3 3.5c3.1 0.9 6.4 2.3 6.4 7.2c0 2.9-1.2 6.9-9.2 6.9C135.3 177.2 132.4 176.3 131.1 175.4z"/> <path fill="#FFFFFF" d="M157.7 175.6v12.5h-5.8v-34.8h5.1l0.5 1.4c1.6-1.1 3.2-1.7 5.8-1.7c7.5 0 11.5 5.6 11.5 12.2 c0 6.6-4 12.2-11.5 12.2C160.8 177.2 159.3 176.6 157.7 175.6z M157.4 165c0 4.4 1.6 7.4 5.4 7.4c3.8 0 5.9-3 5.9-7.4 s-2.2-7.4-5.9-7.4C159.1 157.7 157.4 160.7 157.4 165z"/> <path fill="#FFFFFF" d="M217.7 188.1h-5.8l5.2-12.9l-9.8-21.9h6.5l6 15.1l6.1-15.1h6.5L217.7 188.1z"/> <path fill="#FFFFFF" d="M100.9 217.3l-0.1 1.3h-5.4v-35.2h5.8v12.9c1.5-1 3.1-1.5 5.5-1.5c7.5 0 11.5 5.6 11.5 12.2 c0 6.6-4 12.2-11.5 12.2C104.1 219.1 102.6 218.4 100.9 217.3z M100.9 206.9c0 4.4 1.6 7.4 5.4 7.4c3.8 0 5.9-3 5.9-7.4 s-2.2-7.4-5.9-7.4C102.6 199.6 100.9 202.6 100.9 206.9z"/> <path fill="#FFFFFF" d="M130.2 206.9c0-6.6 4.4-12.2 11.9-12.2c7.5 0 11.9 5.6 11.9 12.2c0 6.6-4.4 12.2-11.9 12.2 C134.5 219.1 130.2 213.5 130.2 206.9z M136.1 206.9c0 4.4 2.2 7.4 5.9 7.4s5.9-3 5.9-7.4s-2.2-7.4-5.9-7.4 S136.1 202.6 136.1 206.9z"/> <path fill="#FFFFFF" d="M156.3 206.9c0-6.6 3.9-12.2 11.4-12.2c3.8 0 5.5 0.8 7 1.7l-0.5 5c-1.9-1.3-3.8-1.9-6.1-1.9 c-3.8 0-5.9 3-5.9 7.4s2.2 7.4 5.9 7.4c2.3 0 4.1-0.7 6.1-1.9l0.5 5c-1.5 0.9-3.3 1.7-7 1.7C160.1 219.1 156.3 213.5 156.3 206.9z "/> <path fill="#FFFFFF" d="M178.5 218.6v-35.2h5.8v21.4l7.5-9.6h6.6l-8.6 11.3l8.6 12.2h-6.6l-7.5-10.4v10.4H178.5z"/><path fill="#FFFFFF" d="M15.5 141.5v65.3h65.3v-65.3H15.5z M74.9 200.9H21.5v-53.4h53.4V200.9z"/><path fill="#FFFFFF" d="M40.6 166.6h-9.1v-9.1h9.1V166.6z M40.6 187.9h-9.1v-9.1h9.1V187.9z"/> <path fill="#FFFFFF" d="M64.9 166.6h-9.1v-9.1h9.1V166.6z M64.9 187.9l-7.6 5.5l-1.5-2.5l2.4-2.3l-2.4-0.7v-9.2h9.1V187.9z"/> <rect x="121.4" y="183.4" fill="#FFFFFF" width="5.8" height="35.2"/> <rect x="178.5" y="141.8" fill="#FFFFFF" width="5.8" height="35.2"/> <path fill="#FFFFFF" d="M206.3 168.2v-5.9c0-0.1 0-0.1 0-0.2L206.3 168.2L206.3 168.2z"/> <path fill="#FFFFFF" d="M206.3 169v-0.9l0 0v0.5C206.3 168.8 206.3 168.9 206.3 169z"/> <path fill="#FFFFFF" d="M206.3 162.1c-0.1-6.7-3.3-9.2-8.5-9.2c-2.9 0-5.7 0.7-8.5 2.1l0.5 4.7c2.5-1.2 4.3-1.8 6.4-1.8 c3 0 4.1 1.2 4.2 3.8c-4.4 0.1-13.2 1.8-13.2 8.4c0 4.5 3.1 7 6.8 7c2.4 0 4.8-0.7 6.4-2l0.4 2h5.4L206.3 162.1z M200.5 171 c-1.2 1.2-3 1.7-4 1.7c-2.2 0-3.1-0.9-3.1-2.8c0-2.8 3.8-4.1 7.1-4.2V171z"/> <path fill="#FFFFFF" d="M138.3 45.5l-0.1-1.7c-2.1 1.4-4.1 2.3-7.3 2.3c-9.6 0-14.7-7.1-14.7-15.5c0-8.4 5.1-15.5 14.7-15.5 c3.1 0 5.1 0.7 7 2V0.6h7.4v44.9H138.3z M123.8 30.6c0 5.6 2.8 9.4 7.5 9.4c4.8 0 6.9-3.8 6.9-9.4s-2.1-9.4-6.9-9.4 C126.6 21.2 123.8 25 123.8 30.6z"/> <rect x="150.4" y="3.6" fill="#FFFFFF" width="7.4" height="7.4"/> <rect x="150.4" y="15.5" fill="#FFFFFF" width="7.4" height="29.9"/> <path fill="#FFFFFF" d="M162.8 43.9l0.7-6.3c1.9 1.4 5.9 3 9.2 3c3.6 0 4.6-1.8 4.6-3.3c0-2.5-2.6-3.4-5.5-4.3 c-4.2-1.3-8.6-2.6-8.6-8.4c0-4.2 2.5-9.5 11-9.5c3.9 0 7.8 1.1 9.4 2.2l-0.7 6.3c-1.5-1.5-5-3.2-8.2-3.2c-2.6 0-5 0.9-5 3.3 c0 2.9 3.1 3.4 6.8 4.4c4 1.1 8.2 3 8.2 9.2c0 3.7-1.5 8.8-11.7 8.8C168.2 46.1 164.5 45 162.8 43.9z"/> <path fill="#FFFFFF" d="M196.8 44.1V60h-7.4V15.5h6.5l0.6 1.7c2-1.4 4.1-2.2 7.4-2.2c9.6 0 14.7 7.1 14.7 15.5 c0 8.4-5.1 15.5-14.7 15.5C200.7 46.1 198.8 45.4 196.8 44.1z M196.4 30.6c0 5.6 2.1 9.4 6.9 9.4s7.5-3.8 7.5-9.4 s-2.8-9.4-7.5-9.4S196.4 25 196.4 30.6z"/> <path fill="#FFFFFF" d="M273.4 60H266l6.6-16.5l-12.5-28h8.3l7.7 19.3l7.8-19.3h8.3L273.4 60z"/> <path fill="#FFFFFF" d="M124.3 97.3l-0.1 1.7h-6.9V54h7.4v16.5c1.9-1.3 3.9-2 7-2c9.6 0 14.7 7.1 14.7 15.5 c0 8.4-5.1 15.5-14.7 15.5C128.4 99.6 126.4 98.7 124.3 97.3z M124.3 84c0 5.6 2.1 9.4 6.9 9.4s7.5-3.8 7.5-9.4 c0-5.6-2.8-9.4-7.5-9.4S124.3 78.5 124.3 84z"/> <path fill="#FFFFFF" d="M161.6 84c0-8.4 5.6-15.5 15.2-15.5s15.2 7.1 15.2 15.5c0 8.4-5.6 15.5-15.2 15.5S161.6 92.4 161.6 84z M169.2 84c0 5.6 2.8 9.4 7.5 9.4s7.5-3.8 7.5-9.4c0-5.6-2.8-9.4-7.5-9.4S169.2 78.5 169.2 84z"/> <path fill="#FFFFFF" d="M194.9 84c0-8.4 5-15.5 14.6-15.5c4.8 0 7.1 1 9 2.2l-0.7 6.3c-2.5-1.6-4.9-2.5-7.7-2.5 c-4.8 0-7.5 3.8-7.5 9.4c0 5.6 2.8 9.4 7.5 9.4c2.9 0 5.3-0.8 7.7-2.5l0.7 6.3c-1.9 1.2-4.2 2.2-9 2.2 C199.9 99.6 194.9 92.4 194.9 84z"/> <path fill="#FFFFFF" d="M223.3 99V54h7.4v27.2l9.5-12.3h8.4l-11 14.4l11 15.6h-8.4l-9.5-13.3V99H223.3z"/> <rect x="41.1" y="91.5" fill="#FFFFFF" width="32.1" height="7.6"/><path fill="#FFFFFF" d="M15.3 0.6v83.4h83.4V0.6H15.3z M91.1 76.4H22.9V8.2h68.2V76.4z"/><path fill="#FFFFFF" d="M47.3 32.6H35.7V21h11.6V32.6z M47.3 59.7H35.7V48.1h11.6V59.7z"/> <path fill="#FFFFFF" d="M78.4 32.6H66.7V21h11.6V32.6z M78.4 59.7l-9.7 7l-1.9-3.1l3.1-3l-3.1-0.9V48h11.6V59.7z"/> <rect x="150.4" y="54" fill="#FFFFFF" width="7.4" height="44.9"/> <rect x="223.3" y="0.9" fill="#FFFFFF" width="7.4" height="44.9"/> <path fill="#FFFFFF" d="M258.8 34.6v-7.5c0-0.1 0-0.2 0-0.2L258.8 34.6L258.8 34.6z"/> <path fill="#FFFFFF" d="M258.8 35.7v-1.1l0 0v0.6C258.8 35.4 258.8 35.5 258.8 35.7z"/> <path fill="#FFFFFF" d="M258.8 26.9c-0.1-8.5-4.2-11.8-10.8-11.8c-3.7 0-7.3 0.9-10.9 2.6l0.7 6c3.2-1.6 5.5-2.3 8.2-2.3 c3.8 0 5.2 1.5 5.4 4.9c-5.6 0.2-16.8 2.3-16.8 10.7c0 5.7 3.9 9 8.7 9c3.1 0 6.1-0.9 8.2-2.6l0.5 2.5h6.9L258.8 26.9z M251.4 38.2c-1.6 1.5-3.8 2.2-5.1 2.2c-2.8 0-4-1.1-4-3.6c0-3.5 4.9-5.2 9.1-5.4V38.2z"/> <path fill="#FFFFFF" d="M22.2 118.4v-9.7h3.6c2.8 0 4.8 1.8 4.8 4.8c0 3.1-2 4.8-4.8 4.8H22.2z M23.5 109.9v7.3h2.3 c2.2 0 3.4-1.5 3.4-3.7c0-2.2-1.2-3.7-3.4-3.7H23.5z"/> <path fill="#FFFFFF" d="M36.1 118.4v-9.7H42v1.2h-4.6v2.8h3.7v1.2h-3.7v3.3h4.7v1.2H36.1z"/> <path fill="#FFFFFF" d="M47.3 118l0.2-1.5c0.6 0.5 1.7 1 3 1c1.2 0 2.3-0.4 2.3-1.5s-1.1-1.5-2.5-2c-1.6-0.5-3.2-1-3.2-2.6 c0-1.2 0.8-2.8 3.5-2.8c1.3 0 2.5 0.4 3 0.7l-0.1 1.4c-0.9-0.5-1.8-0.9-2.8-0.9c-1 0-2.2 0.4-2.2 1.4c0 0.9 0.9 1.3 2.1 1.6 c1.7 0.5 3.6 1 3.6 3.1c0 1-0.4 2.7-3.8 2.7C49 118.6 47.9 118.3 47.3 118z"/> <path fill="#FFFFFF" d="M59.7 118.4v-9.7H61v9.7H59.7z"/> <path fill="#FFFFFF" d="M66.5 113.5c0-3.1 2-5 4.9-5c1 0 2.1 0.2 2.9 0.6l-0.1 1.1c-0.8-0.3-1.8-0.5-2.7-0.5 c-2.4 0-3.5 1.7-3.5 3.9c0 2.2 1.2 3.9 3.7 3.9c0.4 0 1.1-0.1 1.6-0.3v-2.4h-1.5v-1.2h2.8v4.3c-0.8 0.4-2.2 0.7-3.3 0.7 C68.6 118.6 66.5 116.6 66.5 113.5z"/> <path fill="#FFFFFF" d="M86.7 118.4l-5.1-7.7v7.7h-1.3v-9.7h1.4l4.8 7.3v-7.3h1.3v9.7H86.7z"/> <path fill="#FFFFFF" d="M101.4 119.6h-1.4l5.2-10.9h1.4L101.4 119.6z"/> <path fill="#FFFFFF" d="M118.6 113.5c0-3.1 2.1-5 4.8-5c1 0 2 0.2 2.7 0.6l-0.1 1.2c-0.8-0.3-1.6-0.6-2.5-0.6 c-2.2 0-3.4 1.7-3.4 3.9s1.2 3.9 3.4 3.9c1 0 1.8-0.3 2.5-0.6l0.1 1.2c-0.7 0.3-1.7 0.6-2.7 0.6 C120.6 118.6 118.6 116.6 118.6 113.5z"/> <path fill="#FFFFFF" d="M130.8 113.5c0-3.1 2-5 4.8-5s4.8 2 4.8 5c0 3.1-2 5-4.8 5S130.8 116.6 130.8 113.5z M132.2 113.5 c0 2.1 1.1 3.9 3.3 3.9s3.3-1.7 3.3-3.9s-1.1-3.9-3.3-3.9S132.2 111.4 132.2 113.5z"/> <path fill="#FFFFFF" d="M145.9 118.4v-9.7h3.6c2.8 0 4.8 1.8 4.8 4.8c0 3.1-2 4.8-4.8 4.8H145.9z M147.2 109.9v7.3h2.3 c2.2 0 3.4-1.5 3.4-3.7c0-2.2-1.2-3.7-3.4-3.7H147.2z"/> <path fill="#FFFFFF" d="M159.8 118.4v-9.7h5.9v1.2h-4.6v2.8h3.7v1.2h-3.7v3.3h4.7v1.2H159.8z"/> <path fill="#FFFFFF" d="M178.9 119.6h-1.4l5.2-10.9h1.4L178.9 119.6z"/> <path fill="#FFFFFF" d="M196.3 118l0.2-1.5c0.6 0.5 1.7 1 3 1c1.2 0 2.3-0.4 2.3-1.5s-1.1-1.5-2.5-2c-1.6-0.5-3.2-1-3.2-2.6 c0-1.2 0.8-2.8 3.5-2.8c1.3 0 2.5 0.4 3 0.7l-0.1 1.4c-0.9-0.5-1.8-0.9-2.8-0.9c-1 0-2.2 0.4-2.2 1.4c0 0.9 0.9 1.3 2.1 1.6 c1.7 0.5 3.6 1 3.6 3.1c0 1-0.4 2.7-3.8 2.7C198 118.6 196.8 118.3 196.3 118z"/> <path fill="#FFFFFF" d="M211.9 109.9v8.5h-1.3v-8.5h-2.8v-1.2h7v1.2H211.9z"/> <path fill="#FFFFFF" d="M225.5 118.4l-2.1-3.8h-2v3.8h-1.4v-9.7h3.1c2 0 3.4 0.7 3.4 2.8c0 1.2-0.7 2.2-1.8 2.7l2.3 4.1H225.5z M221.3 109.8v3.6h2.1c0.7 0 1.6-0.4 1.6-1.8c0-1.1-0.7-1.8-2-1.8H221.3z"/> <path fill="#FFFFFF" d="M238.1 118.4l-0.9-2.6h-3.7l-0.9 2.6h-1.4l3.5-9.7h1.4l3.5 9.7H238.1z M235.3 110.5l-1.4 4h2.9 L235.3 110.5z"/> <path fill="#FFFFFF" d="M247 109.9v8.5h-1.3v-8.5h-2.8v-1.2h7v1.2H247z"/> <path fill="#FFFFFF" d="M255.1 118.4v-9.7h5.9v1.2h-4.6v2.8h3.7v1.2h-3.7v3.3h4.7v1.2H255.1z"/> <path fill="#FFFFFF" d="M265.9 113.5c0-3.1 2-5 4.9-5c1 0 2.1 0.2 2.9 0.6l-0.1 1.1c-0.8-0.3-1.8-0.5-2.7-0.5 c-2.4 0-3.5 1.7-3.5 3.9c0 2.2 1.2 3.9 3.7 3.9c0.4 0 1.1-0.1 1.6-0.3v-2.4h-1.5v-1.2h2.8v4.3c-0.8 0.4-2.2 0.7-3.3 0.7 C268 118.6 265.9 116.6 265.9 113.5z"/> <path fill="#FFFFFF" d="M283.2 113.9v4.5h-1.4v-4.5l-3.3-5.2h1.4l2.6 4l2.6-4h1.4L283.2 113.9z"/> <rect x="58" y="294.4" fill="#FFFFFF" width="19.1" height="4.4"/><path fill="#FFFFFF" d="M42.7 241.3V290h49.7v-48.7H42.7z M87.9 285.6H47.2v-39.9h40.7V285.6z"/><path fill="#FFFFFF" d="M61.8 260h-6.9v-6.8h6.9V260z M61.8 275.8h-6.9V269h6.9V275.8z"/> <path fill="#FFFFFF" d="M80.3 260h-6.9v-6.8h6.9V260z M80.3 275.8l-5.8 4.1l-1.2-1.8l1.8-1.7l-1.8-0.5V269h6.9V275.8z"/> <path fill="#FFFFFF" d="M32.6 359.3l-0.1 1h-4.1V334h4.4v9.6c1.1-0.7 2.3-1.2 4.2-1.2c5.7 0 8.8 4.2 8.8 9.1c0 4.9-3 9.1-8.8 9.1 C35 360.6 33.9 360.1 32.6 359.3z M32.6 351.5c0 3.3 1.3 5.5 4.1 5.5c2.9 0 4.5-2.2 4.5-5.5c0-3.3-1.6-5.5-4.5-5.5 C33.9 346 32.6 348.3 32.6 351.5z"/> <path fill="#FFFFFF" d="M54.9 351.5c0-4.9 3.3-9.1 9-9.1s9 4.2 9 9.1c0 4.9-3.3 9.1-9 9.1S54.9 356.4 54.9 351.5z M59.4 351.5 c0 3.3 1.6 5.5 4.5 5.5c2.9 0 4.5-2.2 4.5-5.5c0-3.3-1.6-5.5-4.5-5.5C61 346 59.4 348.3 59.4 351.5z"/> <path fill="#FFFFFF" d="M74.7 351.5c0-4.9 3-9.1 8.7-9.1c2.9 0 4.2 0.6 5.4 1.3l-0.4 3.7c-1.5-0.9-2.9-1.4-4.6-1.4 c-2.9 0-4.5 2.2-4.5 5.5c0 3.3 1.6 5.5 4.5 5.5c1.7 0 3.1-0.5 4.6-1.4l0.4 3.7c-1.1 0.7-2.5 1.3-5.4 1.3 C77.7 360.6 74.7 356.4 74.7 351.5z"/> <path fill="#FFFFFF" d="M91.6 360.3V334H96v15.9l5.7-7.2h5l-6.5 8.4l6.5 9.1h-5l-5.7-7.8v7.8H91.6z"/> <rect x="48.2" y="334" fill="#FFFFFF" width="4.4" height="26.2"/><path fill="#FFFFFF" d="M67.6 341v-0.6l0 0v0.4C67.6 340.8 67.6 340.9 67.6 341z"/><path fill="#FFFFFF" d="M28.3 329.3l-0.1-1c-1.3 0.8-2.4 1.3-4.4 1.3c-5.7 0-8.8-4.2-8.8-9.1c0-4.9 3-9.1 8.8-9.1 c1.8 0 3 0.4 4.2 1.2V303h4.4v26.3H28.3z M19.6 320.6c0 3.3 1.6 5.5 4.5 5.5c2.9 0 4.1-2.2 4.1-5.5c0-3.3-1.3-5.5-4.1-5.5 C21.3 315.1 19.6 317.3 19.6 320.6z"/> <rect x="35.5" y="304.8" fill="#FFFFFF" width="4.4" height="4.3"/> <rect x="35.5" y="311.8" fill="#FFFFFF" width="4.4" height="17.5"/> <path fill="#FFFFFF" d="M42.9 328.3l0.4-3.7c1.1 0.8 3.5 1.8 5.5 1.8c2.1 0 2.7-1.1 2.7-1.9c0-1.5-1.5-2-3.3-2.5 c-2.5-0.7-5.1-1.5-5.1-4.9c0-2.5 1.5-5.6 6.5-5.6c2.3 0 4.6 0.7 5.6 1.3l-0.4 3.7c-0.9-0.9-3-1.9-4.9-1.9c-1.5 0-3 0.5-3 1.9 c0 1.7 1.8 2 4.1 2.6c2.4 0.7 4.9 1.8 4.9 5.4c0 2.1-0.9 5.1-7 5.1C46.1 329.6 43.9 329 42.9 328.3z"/> <path fill="#FFFFFF" d="M63.2 328.4v9.3h-4.4v-26h3.9l0.4 1c1.2-0.8 2.4-1.3 4.4-1.3c5.7 0 8.8 4.2 8.8 9.1c0 4.9-3 9.1-8.8 9.1 C65.5 329.6 64.3 329.2 63.2 328.4z M62.9 320.6c0 3.3 1.3 5.5 4.1 5.5s4.5-2.2 4.5-5.5c0-3.3-1.6-5.5-4.5-5.5 S62.9 317.3 62.9 320.6z"/> <path fill="#FFFFFF" d="M108.8 337.7h-4.4l4-9.6l-7.4-16.3h4.9l4.6 11.3l4.6-11.3h4.9L108.8 337.7z"/> <rect x="78.9" y="303.2" fill="#FFFFFF" width="4.4" height="26.2"/> <path fill="#FFFFFF" d="M100.2 322.9v-4.4c0 0 0-0.1 0-0.1L100.2 322.9L100.2 322.9z"/> <path fill="#FFFFFF" d="M100.2 318.4c0-5-2.5-6.9-6.5-6.9c-2.2 0-4.4 0.5-6.5 1.5l0.4 3.5c1.9-0.9 3.3-1.3 4.9-1.3 c2.3 0 3.1 0.9 3.2 2.9c-3.4 0.1-10 1.3-10 6.3c0 3.3 2.3 5.3 5.2 5.3c1.8 0 3.7-0.5 4.9-1.5l0.3 1.5h4.1L100.2 318.4z M95.7 325 c-0.9 0.9-2.3 1.3-3 1.3c-1.7 0-2.4-0.7-2.4-2.1c0-2.1 2.9-3 5.4-3.2V325z"/> </svg>