<svg xmlns="http://www.w3.org/2000/svg" viewBox="0 0 400 360.6"><style>.style0{fill:	#FFFFFF;}</style><g><rect x="111.7" y="212.8" width="25.2" height="5.9" class="style0"/><g><path d="M187.9 176.7l-0.1-1.3c-1.6 1.1-3.2 1.8-5.7 1.8c-7.5 0-11.5-5.6-11.5-12.2c0-6.6 4-12.2 11.5-12.2 c2.4 0 4 0.6 5.5 1.5v-12.9h5.8v35.2H187.9z M176.6 165c0 4.4 2.2 7.4 5.9 7.4c3.8 0 5.4-3 5.4-7.4s-1.6-7.4-5.4-7.4 C178.7 157.7 176.6 160.7 176.6 165z" class="style0"/><rect x="197.4" y="143.9" width="5.8" height="5.8" class="style0"/><rect x="197.4" y="153.3" width="5.8" height="23.5" class="style0"/><path d="M207.1 175.4l0.5-5c1.5 1.1 4.6 2.3 7.2 2.3c2.8 0 3.6-1.4 3.6-2.6c0-2-2-2.6-4.3-3.3 c-3.3-1-6.8-2.1-6.8-6.6c0-3.3 2-7.5 8.6-7.5c3.1 0 6.1 0.9 7.4 1.7l-0.5 5c-1.2-1.2-3.9-2.5-6.4-2.5c-2 0-3.9 0.7-3.9 2.6 c0 2.3 2.4 2.6 5.3 3.5c3.1 0.9 6.4 2.3 6.4 7.2c0 2.9-1.2 6.9-9.2 6.9C211.4 177.2 208.4 176.3 207.1 175.4z" class="style0"/><path d="M233.7 175.6v12.5h-5.8v-34.8h5.1l0.5 1.4c1.6-1.1 3.2-1.7 5.8-1.7c7.5 0 11.5 5.6 11.5 12.2 c0 6.6-4 12.2-11.5 12.2C236.8 177.2 235.3 176.6 233.7 175.6z M233.5 165c0 4.4 1.6 7.4 5.4 7.4s5.9-3 5.9-7.4s-2.2-7.4-5.9-7.4 S233.5 160.7 233.5 165z" class="style0"/><path d="M293.8 188.1h-5.8l5.2-12.9l-9.8-21.9h6.5l6 15.1l6.1-15.1h6.5L293.8 188.1z" class="style0"/><path d="M177 217.3l-0.1 1.3h-5.4v-35.2h5.8v12.9c1.5-1 3.1-1.5 5.5-1.5c7.5 0 11.5 5.6 11.5 12.2 c0 6.6-4 12.2-11.5 12.2C180.2 219.1 178.6 218.4 177 217.3z M177 206.9c0 4.4 1.6 7.4 5.4 7.4s5.9-3 5.9-7.4s-2.2-7.4-5.9-7.4 S177 202.6 177 206.9z" class="style0"/><path d="M206.2 206.9c0-6.6 4.4-12.2 11.9-12.2c7.5 0 11.9 5.6 11.9 12.2c0 6.6-4.4 12.2-11.9 12.2 C210.6 219.1 206.2 213.5 206.2 206.9z M212.2 206.9c0 4.4 2.2 7.4 5.9 7.4c3.8 0 5.9-3 5.9-7.4s-2.2-7.4-5.9-7.4 C214.3 199.6 212.2 202.6 212.2 206.9z" class="style0"/><path d="M232.3 206.9c0-6.6 3.9-12.2 11.4-12.2c3.8 0 5.5 0.8 7 1.7l-0.5 5c-1.9-1.3-3.8-1.9-6.1-1.9 c-3.8 0-5.9 3-5.9 7.4s2.2 7.4 5.9 7.4c2.3 0 4.1-0.7 6.1-1.9l0.5 5c-1.5 0.9-3.3 1.7-7 1.7C236.2 219.1 232.3 213.5 232.3 206.9z " class="style0"/><path d="M254.5 218.6v-35.2h5.8v21.4l7.5-9.6h6.6l-8.6 11.3l8.6 12.2h-6.6l-7.5-10.4v10.4H254.5z" class="style0"/><g><path d="M91.6 141.5v65.3h65.3v-65.3H91.6z M150.9 200.9H97.5v-53.4h53.4V200.9z" class="style0"/><g><path d="M116.6 166.6h-9.1v-9.1h9.1V166.6z M116.6 187.9h-9.1v-9.1h9.1V187.9z" class="style0"/><path d="M140.9 166.6h-9.1v-9.1h9.1V166.6z M140.9 187.9l-7.6 5.5l-1.5-2.5l2.4-2.3l-2.4-0.7v-9.2h9.1V187.9z" class="style0"/></g></g><rect x="197.4" y="183.4" width="5.8" height="35.2" class="style0"/><rect x="254.5" y="141.8" width="5.8" height="35.2" class="style0"/><path d="M282.3 168.2v-5.9c0-0.1 0-0.1 0-0.2L282.3 168.2L282.3 168.2z" class="style0"/><path d="M282.3 169v-0.9l0 0v0.5C282.3 168.8 282.3 168.9 282.3 169z" class="style0"/><path d="M282.3 162.1c-0.1-6.7-3.3-9.2-8.5-9.2c-2.9 0-5.7 0.7-8.5 2.1l0.5 4.7c2.5-1.2 4.3-1.8 6.4-1.8 c3 0 4.1 1.2 4.2 3.8c-4.4 0.1-13.2 1.8-13.2 8.4c0 4.5 3.1 7 6.8 7c2.4 0 4.8-0.7 6.4-2l0.4 2h5.4L282.3 162.1z M276.5 171 c-1.2 1.2-3 1.7-4 1.7c-2.2 0-3.1-0.9-3.1-2.8c0-2.8 3.8-4.1 7.1-4.2V171z" class="style0"/></g></g><g><g><path d="M184.6 45.5l-0.1-1.7c-2.1 1.4-4.1 2.3-7.3 2.3c-9.6 0-14.7-7.1-14.7-15.5c0-8.4 5.1-15.5 14.7-15.5 c3.1 0 5.1 0.7 7 2V0.6h7.4v44.9H184.6z M170.1 30.6c0 5.6 2.8 9.4 7.5 9.4c4.8 0 6.9-3.8 6.9-9.4s-2.1-9.4-6.9-9.4 C172.8 21.2 170.1 25 170.1 30.6z" class="style0"/><rect x="196.7" y="3.6" width="7.4" height="7.4" class="style0"/><rect x="196.7" y="15.5" width="7.4" height="29.9" class="style0"/><path d="M209 43.9l0.7-6.3c1.9 1.4 5.9 3 9.2 3c3.6 0 4.6-1.8 4.6-3.3c0-2.5-2.6-3.4-5.5-4.3 c-4.2-1.3-8.6-2.6-8.6-8.4c0-4.2 2.5-9.5 11-9.5c3.9 0 7.8 1.1 9.4 2.2l-0.7 6.3c-1.5-1.5-5-3.2-8.2-3.2c-2.6 0-5 0.9-5 3.3 c0 2.9 3.1 3.4 6.8 4.4c4 1.1 8.2 3 8.2 9.2c0 3.7-1.5 8.8-11.7 8.8C214.5 46.1 210.8 45 209 43.9z" class="style0"/><path d="M243.1 44.1V60h-7.4V15.5h6.5l0.6 1.7c2-1.4 4.1-2.2 7.4-2.2c9.6 0 14.7 7.1 14.7 15.5 c0 8.4-5.1 15.5-14.7 15.5C246.9 46.1 245 45.4 243.1 44.1z M242.7 30.6c0 5.6 2.1 9.4 6.9 9.4s7.5-3.8 7.5-9.4s-2.8-9.4-7.5-9.4 S242.7 25 242.7 30.6z" class="style0"/><path d="M319.6 60h-7.4l6.6-16.5l-12.5-28h8.3l7.7 19.3l7.8-19.3h8.3L319.6 60z" class="style0"/><path d="M170.6 97.3l-0.1 1.7h-6.9V54h7.4v16.5c1.9-1.3 3.9-2 7-2c9.6 0 14.7 7.1 14.7 15.5 c0 8.4-5.1 15.5-14.7 15.5C174.7 99.6 172.7 98.7 170.6 97.3z M170.6 84c0 5.6 2.1 9.4 6.9 9.4s7.5-3.8 7.5-9.4 c0-5.6-2.8-9.4-7.5-9.4S170.6 78.5 170.6 84z" class="style0"/><path d="M207.9 84c0-8.4 5.6-15.5 15.2-15.5s15.2 7.1 15.2 15.5c0 8.4-5.6 15.5-15.2 15.5S207.9 92.4 207.9 84z M215.5 84c0 5.6 2.8 9.4 7.5 9.4s7.5-3.8 7.5-9.4c0-5.6-2.8-9.4-7.5-9.4S215.5 78.5 215.5 84z" class="style0"/><path d="M241.2 84c0-8.4 5-15.5 14.6-15.5c4.8 0 7.1 1 9 2.2l-0.7 6.3c-2.5-1.6-4.9-2.5-7.7-2.5 c-4.8 0-7.5 3.8-7.5 9.4c0 5.6 2.8 9.4 7.5 9.4c2.9 0 5.3-0.8 7.7-2.5l0.7 6.3c-1.9 1.2-4.2 2.2-9 2.2 C246.2 99.6 241.2 92.4 241.2 84z" class="style0"/><path d="M269.5 99V54h7.4v27.2l9.5-12.3h8.4l-11 14.4l11 15.6h-8.4l-9.5-13.3V99H269.5z" class="style0"/><rect x="87.3" y="91.5" width="32.1" height="7.6" class="style0"/><g><path d="M61.6 0.6v83.4H145V0.6H61.6z M137.4 76.4H69.2V8.2h68.2V76.4z" class="style0"/><g><path d="M93.6 32.6H82V21h11.6V32.6z M93.6 59.7H82V48.1h11.6V59.7z" class="style0"/><path d="M124.6 32.6H113V21h11.6V32.6z M124.6 59.7l-9.7 7l-1.9-3.1l3.1-3l-3.1-0.9V48h11.6V59.7z" class="style0"/></g></g><rect x="196.7" y="54" width="7.4" height="44.9" class="style0"/><rect x="269.5" y="0.9" width="7.4" height="44.9" class="style0"/><path d="M305.1 34.6v-7.5c0-0.1 0-0.2 0-0.2L305.1 34.6L305.1 34.6z" class="style0"/><path d="M305.1 35.7v-1.1l0 0v0.6C305.1 35.4 305.1 35.5 305.1 35.7z" class="style0"/><path d="M305.1 26.9c-0.1-8.5-4.2-11.8-10.8-11.8c-3.7 0-7.3 0.9-10.9 2.6l0.7 6c3.2-1.6 5.5-2.3 8.2-2.3 c3.8 0 5.2 1.5 5.4 4.9c-5.6 0.2-16.8 2.3-16.8 10.7c0 5.7 3.9 9 8.7 9c3.1 0 6.1-0.9 8.2-2.6l0.5 2.5h6.9L305.1 26.9z M297.7 38.2c-1.6 1.5-3.8 2.2-5.1 2.2c-2.8 0-4-1.1-4-3.6c0-3.5 4.9-5.2 9.1-5.4V38.2z" class="style0"/></g><g><path d="M68.4 118.4v-9.7H72c2.8 0 4.8 1.8 4.8 4.8c0 3.1-2 4.8-4.8 4.8H68.4z M69.8 109.9v7.3H72 c2.2 0 3.4-1.5 3.4-3.7c0-2.2-1.2-3.7-3.4-3.7H69.8z" class="style0"/><path d="M82.4 118.4v-9.7h5.9v1.2h-4.6v2.8h3.7v1.2h-3.7v3.3h4.7v1.2H82.4z" class="style0"/><path d="M93.5 118l0.2-1.5c0.6 0.5 1.7 1 3 1c1.2 0 2.3-0.4 2.3-1.5s-1.1-1.5-2.5-2c-1.6-0.5-3.2-1-3.2-2.6 c0-1.2 0.8-2.8 3.5-2.8c1.3 0 2.5 0.4 3 0.7l-0.1 1.4c-0.9-0.5-1.8-0.9-2.8-0.9c-1 0-2.2 0.4-2.2 1.4c0 0.9 0.9 1.3 2.1 1.6 c1.7 0.5 3.6 1 3.6 3.1c0 1-0.4 2.7-3.8 2.7C95.3 118.6 94.1 118.3 93.5 118z" class="style0"/><path d="M105.9 118.4v-9.7h1.3v9.7H105.9z" class="style0"/><path d="M112.8 113.5c0-3.1 2-5 4.9-5c1 0 2.1 0.2 2.9 0.6l-0.1 1.1c-0.8-0.3-1.8-0.5-2.7-0.5 c-2.4 0-3.5 1.7-3.5 3.9c0 2.2 1.2 3.9 3.7 3.9c0.4 0 1.1-0.1 1.6-0.3v-2.4H118v-1.2h2.8v4.3c-0.8 0.4-2.2 0.7-3.3 0.7 C114.8 118.6 112.8 116.6 112.8 113.5z" class="style0"/><path d="M132.9 118.4l-5.1-7.7v7.7h-1.3v-9.7h1.4l4.8 7.3v-7.3h1.3v9.7H132.9z" class="style0"/><path d="M147.7 119.6h-1.4l5.2-10.9h1.4L147.7 119.6z" class="style0"/><path d="M164.8 113.5c0-3.1 2.1-5 4.8-5c1 0 2 0.2 2.7 0.6l-0.1 1.2c-0.8-0.3-1.6-0.6-2.5-0.6 c-2.2 0-3.4 1.7-3.4 3.9s1.2 3.9 3.4 3.9c1 0 1.8-0.3 2.5-0.6l0.1 1.2c-0.7 0.3-1.7 0.6-2.7 0.6 C166.9 118.6 164.8 116.6 164.8 113.5z" class="style0"/><path d="M177.1 113.5c0-3.1 2-5 4.8-5s4.8 2 4.8 5c0 3.1-2 5-4.8 5S177.1 116.6 177.1 113.5z M178.5 113.5 c0 2.1 1.1 3.9 3.3 3.9s3.3-1.7 3.3-3.9s-1.1-3.9-3.3-3.9S178.5 111.4 178.5 113.5z" class="style0"/><path d="M192.2 118.4v-9.7h3.6c2.8 0 4.8 1.8 4.8 4.8c0 3.1-2 4.8-4.8 4.8H192.2z M193.5 109.9v7.3h2.3 c2.2 0 3.4-1.5 3.4-3.7c0-2.2-1.2-3.7-3.4-3.7H193.5z" class="style0"/><path d="M206.1 118.4v-9.7h5.9v1.2h-4.6v2.8h3.7v1.2h-3.7v3.3h4.7v1.2H206.1z" class="style0"/><path d="M225.2 119.6h-1.4l5.2-10.9h1.4L225.2 119.6z" class="style0"/><path d="M242.5 118l0.2-1.5c0.6 0.5 1.7 1 3 1c1.2 0 2.3-0.4 2.3-1.5s-1.1-1.5-2.5-2c-1.6-0.5-3.2-1-3.2-2.6 c0-1.2 0.8-2.8 3.5-2.8c1.3 0 2.5 0.4 3 0.7l-0.1 1.4c-0.9-0.5-1.8-0.9-2.8-0.9c-1 0-2.2 0.4-2.2 1.4c0 0.9 0.9 1.3 2.1 1.6 c1.7 0.5 3.6 1 3.6 3.1c0 1-0.4 2.7-3.8 2.7C244.3 118.6 243.1 118.3 242.5 118z" class="style0"/><path d="M258.1 109.9v8.5h-1.3v-8.5H254v-1.2h7v1.2H258.1z" class="style0"/><path d="M271.7 118.4l-2.1-3.8h-2v3.8h-1.4v-9.7h3.1c2 0 3.4 0.7 3.4 2.8c0 1.2-0.7 2.2-1.8 2.7l2.3 4.1H271.7z M267.5 109.8v3.6h2.1c0.7 0 1.6-0.4 1.6-1.8c0-1.1-0.7-1.8-2-1.8H267.5z" class="style0"/><path d="M284.3 118.4l-0.9-2.6h-3.7l-0.9 2.6h-1.4l3.5-9.7h1.4l3.5 9.7H284.3z M281.6 110.5l-1.4 4h2.9 L281.6 110.5z" class="style0"/><path d="M293.3 109.9v8.5H292v-8.5h-2.8v-1.2h7v1.2H293.3z" class="style0"/><path d="M301.3 118.4v-9.7h5.9v1.2h-4.6v2.8h3.7v1.2h-3.7v3.3h4.7v1.2H301.3z" class="style0"/><path d="M312.2 113.5c0-3.1 2-5 4.9-5c1 0 2.1 0.2 2.9 0.6l-0.1 1.1c-0.8-0.3-1.8-0.5-2.7-0.5 c-2.4 0-3.5 1.7-3.5 3.9c0 2.2 1.2 3.9 3.7 3.9c0.4 0 1.1-0.1 1.6-0.3v-2.4h-1.5v-1.2h2.8v4.3c-0.8 0.4-2.2 0.7-3.3 0.7 C314.2 118.6 312.2 116.6 312.2 113.5z" class="style0"/><path d="M329.4 113.9v4.5h-1.4v-4.5l-3.3-5.2h1.4l2.6 4l2.6-4h1.4L329.4 113.9z" class="style0"/></g></g><g><rect x="184.7" y="338.8" width="30.9" height="7.3" class="style0"/><g><path d="M159.9 251.3v80.2h80.2v-80.2H159.9z M232.8 324.2h-65.6v-65.6h65.6V324.2z" class="style0"/><g><path d="M190.7 282.1h-11.2v-11.2h11.2V282.1z M190.7 308.2h-11.2V297h11.2V308.2z" class="style0"/><path d="M220.5 282.1h-11.2v-11.2h11.2V282.1z M220.5 308.2l-9.3 6.8l-1.9-3l3-2.9l-3-0.9V297h11.2V308.2z" class="style0"/></g></g></g></svg>