<svg width="211" height="76" viewBox="0 0 211 76" xmlns="http://www.w3.org/2000/svg"><title>Logo</title><g fill="#1DAFEC" fill-rule="evenodd"><path d="M82.632 22.928c0 4.256 2.099 7.184 5.748 7.184 3.65 0 5.247-2.928 5.247-7.184s-1.597-7.185-5.247-7.185-5.748 2.929-5.748 7.185zm11.04 11.395l-.09-1.282c-1.597 1.098-3.103 1.74-5.566 1.74-7.3 0-11.178-5.447-11.178-11.853 0-6.407 3.878-11.853 11.178-11.853 2.326 0 3.877.549 5.337 1.51V0h5.657v34.323h-5.337zM102.886 7.963h5.657V2.288h-5.657zM102.886 34.323h5.657V11.44h-5.657zM112.317 33.087l.502-4.851c1.414 1.098 4.47 2.288 7.025 2.288 2.738 0 3.468-1.373 3.468-2.517 0-1.922-1.962-2.563-4.198-3.249-3.193-.961-6.569-2.014-6.569-6.407 0-3.203 1.916-7.276 8.349-7.276 2.965 0 5.93.87 7.163 1.693l-.503 4.85c-1.14-1.143-3.786-2.47-6.25-2.47-1.962 0-3.786.686-3.786 2.517 0 2.196 2.326 2.562 5.2 3.386 3.057.87 6.25 2.288 6.25 7.002 0 2.792-1.14 6.727-8.941 6.727-3.559 0-6.387-.824-7.71-1.693M137.953 22.928c0 4.256 1.596 7.184 5.246 7.184 3.65 0 5.749-2.928 5.749-7.184s-2.1-7.185-5.749-7.185c-3.65 0-5.246 2.929-5.246 7.185m.273 10.296v12.173h-5.657V11.441h4.927l.457 1.327c1.55-1.052 3.102-1.693 5.611-1.693 7.3 0 11.177 5.446 11.177 11.853 0 6.406-3.877 11.852-11.177 11.852-2.372 0-3.832-.549-5.338-1.556M196.572 45.397h-5.657l5.064-12.585-9.49-21.371h6.296l5.84 14.736 5.93-14.736h6.297zM83.036 63.788c0 4.256 1.597 7.185 5.247 7.185s5.748-2.93 5.748-7.185c0-4.256-2.098-7.185-5.748-7.185-3.65 0-5.247 2.929-5.247 7.185m0 10.114l-.09 1.28h-5.293V40.86h5.657v12.585c1.46-.96 2.965-1.51 5.337-1.51 7.3 0 11.178 5.446 11.178 11.853S95.947 75.64 88.647 75.64c-2.508 0-4.014-.642-5.61-1.74M117.245 63.788c0 4.256 2.098 7.185 5.748 7.185 3.65 0 5.748-2.93 5.748-7.185 0-4.256-2.099-7.185-5.748-7.185-3.65 0-5.748 2.929-5.748 7.185m-5.795 0c0-6.407 4.243-11.853 11.543-11.853 7.299 0 11.542 5.446 11.542 11.853s-4.243 11.853-11.542 11.853c-7.3 0-11.543-5.446-11.543-11.853M136.803 63.788c0-6.407 3.787-11.853 11.087-11.853 3.65 0 5.383.778 6.843 1.693l-.502 4.851c-1.87-1.235-3.695-1.876-5.885-1.876-3.65 0-5.748 2.929-5.748 7.185s2.098 7.185 5.748 7.185c2.19 0 4.014-.641 5.885-1.877l.502 4.851c-1.46.916-3.194 1.694-6.843 1.694-7.3 0-11.087-5.446-11.087-11.853M158.388 75.183V40.86h5.657v20.823L171.3 52.3h6.387l-8.349 10.983 8.35 11.899h-6.388l-7.254-10.16v10.16zM19.594 75.286h24.46v-5.791h-24.46zM5.773 57.912h51.96V5.792H5.773v52.12zM0 63.703h63.506V0H0v63.703z"/><path d="M15.5 45.218h8.865v-8.893H15.5v8.893zm0-20.75h8.865v-8.894H15.5v8.894zM48.006 45.21l-7.387 5.37-1.478-2.398 2.355-2.278-2.355-.695v-8.938h8.865v8.938zm-8.865-20.743h8.865v-8.893h-8.865v8.893zM102.886 75.142h5.657V40.86h-5.657zM158.388 34.531h5.657V.25h-5.657zM179.82 28.785c-1.186 1.144-2.874 1.648-3.878 1.648-2.144 0-3.056-.87-3.056-2.746 0-2.7 3.74-3.981 6.934-4.119v5.217zm5.655-8.696c-.06-6.497-3.194-9.014-8.255-9.014-2.829 0-5.566.686-8.304 2.013l.503 4.622c2.417-1.19 4.197-1.739 6.25-1.739 2.92 0 3.969 1.145 4.106 3.753-4.29.137-12.82 1.74-12.82 8.192 0 4.347 2.965 6.864 6.615 6.864 2.342 0 4.683-.705 6.253-1.97l.408 1.944h5.25l-.006-14.665z"/></g></svg>