<svg xmlns="http://www.w3.org/2000/svg" viewBox="0 0 480 480" enable-background="new 0 0 480 480">
<polyline fill="none" stroke="#1B2025" stroke-width="14" stroke-linejoin="round" stroke-miterlimit="10" points="363.2,198.5 363.2,267.5 141.2,267.5 141.2,325.5"/><line fill="none" stroke="#E1E2E2" stroke-width="14" stroke-linejoin="round" stroke-miterlimit="10" x1="263.2" y1="330.5" x2="263.2" y2="162.5"/><polyline fill="none" stroke="#4DCDF6" stroke-width="14" stroke-linejoin="round" stroke-miterlimit="10" points="363.2,201.5 363.2,269.5 141.2,269.5 141.2,330.5"/><polyline fill="none" stroke="#FFD239" stroke-width="14" stroke-linejoin="round" stroke-miterlimit="10" points="108.2,205.5 108.2,307.5 375.2,307.5 375.2,333.5"/><line fill="none" stroke="#00ADF2" stroke-width="14" stroke-linejoin="round" stroke-miterlimit="10" x1="259.2" y1="330.5" x2="259.2" y2="162.5"/><path fill="#1B2025" d="M239.2 353.4c-0.1-1.3 0.6-2.6-0.8-3.6c1.7 0.4 2.1-1.1 2.9-1.8c0.6-0.5 1.3-1 2-1.4 c0.7-0.3 1.5-0.6 1.7-1.6c0-0.3 0.6-0.7 1-0.7c1.6-0.2 3-0.8 4.1-1.8c2.6-2.3 5.5-2.7 8.8-2.1c0.5 0.1 0.9 0.1 1.4 0.2 c0.1 0 0.2-0.1 0.4-0.2c0-0.5 0-1.1 0-1.9c1.4 0.4 2.7 0.7 3.9 1.1c3.1 1 6.2 2.2 8.4 4.7c0.4 0.4 0.7 0.9 1 1.2 c0.6 0.5 1.2 1 1.9 1.4c0.8 0.9 0.4 2.8 2.5 2.5c0.3 1.8 1.1 3.2 2.3 4.4c0.4 0.4 0.6 1 0.8 1.6c0.5 1.2 0.9 2.5 1.3 3.7 c0 0.1 0 0.1 0 0.2c-0.1 2.2-0.1 4.3-0.2 6.5c0 0.3-0.1 0.7-0.1 1c0.1 3.5 0.2 7.1 0.2 10.6c0 0.7 0.2 1.3 0.7 1.8 c2.5 2.3 2.9 5.1 1.9 8.2c-0.4 1.2-0.9 2.4-1.4 3.5c-0.5 1.3-1.4 2.4-2.6 3.2c-0.5 0.3-1 1-1.1 1.5c-0.6 4.7-3.2 8.3-6.5 11.4 c-0.9 0.8-1 1.7-1.1 2.8c-0.2 3.6 1.6 5.9 4.5 7.6c1.2 0.7 2.3 1.3 3.6 1.8c3.7 1.5 7.4 2.9 11.1 4.6c3.6 1.6 7.2 3.3 10.6 5.2 c5.6 3.2 7.8 8.3 7.8 14.5c0 2-0.2 2.1-2.2 2.1c-9.9 0-19.7 0-29.6 0c-23 0-46 0-69 0c-2.9 0-3.6 0.4-3.2-3.6c0.3-2.3 1-4.7 1.8-6.9 c1.1-3 3.6-4.8 6.2-6.3c4.5-2.7 9.4-4.8 14.2-6.8c3.2-1.3 6.4-2.7 9.5-4.1c0.7-0.3 1.3-0.7 1.9-1.1c2.9-1.6 4.3-4.1 4.2-7.4 c0-1.1-0.3-1.8-1.1-2.6c-2.5-2.3-4.6-5-5.9-8.2c-0.2-0.4-0.4-0.9-0.4-1.3c-0.2-1.7-0.6-3.1-2.4-3.8c-0.3-0.1-0.6-0.5-0.8-0.8 c-1.6-3.1-3.2-6.2-2.6-9.8c0.2-1.5 0.8-2.7 2-3.6c1-0.8 1.1-1.6 1-2.8c-0.2-3.7-0.6-7.5-0.4-11.2c0.1-2.5 0.8-5 1.4-7.4 C235.8 355.8 237.1 354.3 239.2 353.4z"/><path fill="#1B2025" d="M346.5 360.6c-0.3-3.1 2.5-4.4 3.9-7c-0.8 0.1-1.3 0.1-1.8 0.1c-0.5 0.1-1 0.2-1.5 0.3 c-0.3-1.1 0.2-1.8 0.7-2.3c1-1.1 2.2-2.1 3.4-3.1c0.8-0.8 1.8-1.4 2.5-2.3c1.3-1.4 0.9-2.5-0.9-3.2c-0.4-0.1-0.7-0.3-1.1-0.4 c0.2-1.1 1-1.2 1.7-1.1c2.1 0.1 4.3 0.2 6.4 0.5c1.6 0.2 3.1 0.3 4.7-0.2c6.8-2.1 13.7-2.9 20.8-1.9c4.3 0.6 8.2 2.4 11.6 5.1 c0.3 0.3 0.6 0.7 0.9 1c-0.8 1.2-1.6-0.4-2.5 0.2c0.1 0.3 0.2 0.8 0.4 1.1c1.1 1.4 2.4 2.7 3.5 4.1c1.1 1.3 2.2 2.7 3.2 4.1 c0.3 0.5 0.5 1.2 0.7 1.7c-0.1 0.1-0.3 0.2-0.4 0.4c-1-0.6-2-1.1-3.5-1.9c0 1-0.1 1.6 0 2.1c0.4 2.2 0.9 4.3 1.3 6.5 c0.8 4.1 0.7 8.1 0 12.2c-0.2 0.9-0.2 1.7 0.4 2.5c1.8 2.4 1.8 5.1 1 7.8c-0.4 1.2-0.9 2.4-1.4 3.5c-0.5 1.2-1.3 2.2-2.4 2.8 c-0.7 0.4-1.1 0.9-1.3 1.6c-1.4 4.4-3.6 8.3-6.8 11.7c-0.6 0.6-0.7 1.3-0.8 2.2c-0.4 4.3 1.6 7.2 5.4 8.9c4.6 2 9.2 3.9 13.8 5.9 c4.1 1.8 8.1 3.6 11.8 6.1c5.1 3.4 6.6 8.5 6.7 14.2c0 1.4-0.3 1.6-1.7 1.6c-3.4 0.1-6.8 0.1-10.2 0.1c-29 0-58 0-87 0 c-1.3 0-2.7 0-4-0.1c-1.3-0.1-1.6-0.3-1.5-1.6c0.2-5.7 1.6-10.8 6.7-14.3c3.7-2.5 7.7-4.3 11.8-6c4.1-1.7 8.2-3.3 12.2-5.1 c1.8-0.8 3.5-2 5.1-3.1c1.3-0.9 2-2.3 2-4c0-0.7 0.1-1.5 0.2-2.2c0.2-1.2-0.2-2-1-2.9c-3-3.1-5.1-6.7-6.3-10.8 c-0.3-0.9-0.7-1.7-1.6-2.2c-0.4-0.2-0.9-0.5-1.1-0.9c-2-3.2-3.9-6.5-3-10.5c0.3-1.2 1-2.3 1.8-3.3c0.5-0.6 0.8-1.1 0.8-1.9 c-0.1-4.3-0.1-8.6-0.1-12.9c0-0.5 0-1.1 0-1.6c-0.2-2.1-0.6-2.4-2.6-1.6C347.2 360.7 347 360.6 346.5 360.6z"/><path fill="#1B2025" d="M142.3 445.5c-16.3 0-32.5 0-48.8 0c-3.1 0-3.5-0.4-3.1-3.5c0.3-2 0.8-4.1 1.4-6c0.7-2.4 2.2-4.3 4.3-5.6 c2.9-1.9 5.9-3.7 9-5.1c5-2.3 10.2-4.3 15.2-6.5c1.9-0.8 3.7-1.9 5.4-3.1c2.3-1.6 2.7-4 2.5-6.6c0-0.8-0.6-0.9-1.2-1.1 c-2.8-0.9-5.4-2.3-7.7-4.2c-3.7-3.2-5.5-7.2-6.1-12c-0.4-3.8-0.9-7.5-0.7-11.4c0.4-6.8 1.6-13.3 3.6-19.8c1.2-3.7 2.6-7.3 4.8-10.5 c4.5-6.8 10.7-10.8 18.9-11.5c2.8-0.2 5.7 0 8.6 0.2c1.4 0.1 2.7 0.6 3.7 1.7c0.3 0.4 1 0.7 1.5 0.6c4.4-0.4 7.5 1.9 10.2 4.9 c2.6 3 4 6.7 5.2 10.5c2.9 8.5 3.5 17.3 3 26.2c-0.2 2.9-0.2 5.7-0.3 8.6c-0.3 8.2-4.3 13.6-11.8 16.6c-0.6 0.2-1.1 0.4-1.7 0.6 c-1.6 0.6-1.6 0.6-1.5 2.3c0.1 2.2 1 4.1 2.9 5.2c2 1.2 4 2.4 6.1 3.3c5.8 2.6 11.8 5 17.6 7.6c2.6 1.1 4.9 2.7 6.9 4.8 c3.2 3.5 4.1 7.8 4 12.4c0 0.9-0.6 1.3-1.4 1.3c-1.1 0-2.1 0-3.2 0C173.9 445.5 158.1 445.5 142.3 445.5z"/><polyline fill="none" stroke="#E1E2E2" stroke-width="14" stroke-linejoin="round" stroke-miterlimit="10" points="113.2,201.5 113.2,302.5 377.2,302.5 377.2,330.5"/><circle fill="#FFD239" cx="362.6" cy="166.6" r="22.7"/><path fill="#1B2025" d="M362.5 180.1c-1.1 0-2.1-0.5-2.7-1.5l-9.2-13.8c0 0 0-0.1 0-0.1l5.3-3.5c0 0 0.1 0 0.1 0l6.1 9.1 c0 0.1 0.1 0.1 0.2 0l16.1-30.2c0 0 0.1-0.1 0.1 0l5.6 3c0 0 0.1 0.1 0 0.1l-18.8 35.2C364.9 179.3 363.8 180.1 362.5 180.1 C362.5 180.1 362.5 180.1 362.5 180.1z"/><rect x="320.2" y="100.5" fill="#1B2025" width="85" height="5"/><rect x="320.2" y="106.5" fill="#1B2025" width="82" height="4"/><rect x="320.2" y="111.5" fill="#1B2025" width="88" height="5"/><rect x="320.2" y="120.5" fill="#1B2025" width="82" height="5"/><rect x="320.2" y="126.5" fill="#1B2025" width="87" height="4"/><circle fill="#1B2025" cx="259.5" cy="70" r="8.7"/><path fill="#1B2025" d="M259.5 37.2c-17.7 0-32.1 14.4-32.1 32.1c0 23.2 16 25.7 16 43.8c0 2.1 2.1 4.3 4.3 4.3h23.5 c2.1 0 4.3-2.1 4.3-4.3c0-18.2 16-20.6 16-43.8C291.5 51.6 277.2 37.2 259.5 37.2z M281.1 75c-0.7 0.8-4.1 0.1-4.9 0.8l-1 2.3 c0.1 1.1 2.9 3 2.8 4.1c0 0.8-2.5 3.3-3 3.7c-0.4 0.4-3 2.9-3.8 2.9c-1.1 0-3-2.8-4.1-2.9l-2.3 0.9c-0.7 0.9-0.1 4.2-0.9 4.9 c-0.6 0.6-4.1 0.6-4.7 0.6c-0.6 0-4.1 0-4.7-0.6c-0.8-0.7-0.2-4.1-0.9-4.9l-2.6-1.1c-1.1 0.1-3.1 2.8-4.1 2.8c-0.8 0-3.3-2.6-3.7-3 c-0.4-0.4-2.9-3-2.9-3.8c0-1.1 2.8-2.9 2.9-4l-0.9-2.3c-0.8-0.7-4.2-0.1-4.9-0.9c-0.5-0.6-0.5-4.1-0.5-4.7c0-0.6 0-4.1 0.6-4.7 c0.7-0.8 4.1-0.1 4.9-0.8l1-2.3c-0.1-1.1-2.9-3-2.8-4.1c0-0.8 2.5-3.3 3-3.7c0.4-0.4 3-2.9 3.8-2.9c1.1 0 3 2.8 4.1 2.9l2.3-0.9 c0.7-0.9 0.1-4.2 0.9-4.9c0.6-0.6 4.1-0.6 4.7-0.6c0.6 0 4.1 0 4.7 0.6c0.8 0.7 0.2 4.1 0.9 4.9l2.6 1.1c1.1-0.1 3.1-2.8 4.1-2.8 c0.8 0 3.3 2.6 3.7 3c0.4 0.4 2.9 3 2.9 3.8c0 1.1-2.8 2.9-2.9 4l0.9 2.3c0.8 0.7 4.2 0.1 4.9 0.9c0.5 0.6 0.5 4.1 0.5 4.7 C281.8 70.9 281.7 74.4 281.1 75z"/><path fill="#1B2025" d="M271.8 125.4h-24.7c-1.5 0-2.7-1.2-2.7-2.7c0-1.5 1.2-2.7 2.7-2.7h24.7c1.5 0 2.7 1.2 2.7 2.7 C274.5 124.2 273.3 125.4 271.8 125.4z"/><path fill="#1B2025" d="M271.8 133.3h-24.7c-1.5 0-2.7-1.2-2.7-2.7s1.2-2.7 2.7-2.7h24.7c1.5 0 2.7 1.2 2.7 2.7 C274.5 132.1 273.3 133.3 271.8 133.3z"/><path fill="#1B2025" d="M269.8 136.9c-0.3-0.6-1-0.9-1.6-0.9h-17.4c-0.7 0-1.3 0.4-1.6 0.9c-0.3 0.6-0.4 1.3 0 1.9 c2.1 3.8 6.1 6.2 10.4 6.2c4.3 0 8.3-2.4 10.4-6.2C270.2 138.2 270.2 137.5 269.8 136.9z"/><path fill="#FFFFFF" d="M56 86l59.7 0.8c0 0 15.3 12.2 15.6 13.2c0.3 1 0.5 82 0.5 82l-75.2-0.7L56 86z"/><path fill="#1B2025" d="M117.7 83.6H57.8c-3.1 0-5.6 2.5-5.6 5.6V180c0 3.1 2.5 5.6 5.6 5.6h71.4c3.1 0 5.6-2.5 5.6-5.6V99.9 c0-1.6-0.6-3-1.8-4.1l-11.5-10.7C120.5 84.1 119.1 83.6 117.7 83.6z M125.1 181.6H62.4c-3.1 0-5.6-2.5-5.6-5.6l0-82.8 c0-3.1 2.5-5.6 5.6-5.6h48.2c3.1 0 5.6 2.5 5.6 5.6v4.2c0 3.1 2.5 5.6 5.6 5.6h3.3c3.1 0 5.6 2.5 5.6 5.6l0 67.4 C130.8 179.1 128.2 181.6 125.1 181.6z"/><path fill="#FFD239" d="M187.7 79c3.2 3.2 5.3 7.5 5.4 12.5h11.8c0-5-0.8-8.1-2.3-11.6c-1.5-3.5-3.6-6.8-6.3-9.5 c-2.7-2.7-6.1-4.9-9.5-6.4c-3.6-1.5-7.6-2.4-11.6-2.4v11.9C181.2 73.5 184.5 75.7 187.7 79z"/><path fill="#4DCDF6" d="M193.1 91.3c0 4.6-2.1 8.7-5.3 12c-3.3 3.3-6.5 4.8-12.5 4.8V120c4 0 8-0.8 11.6-2.3 c3.5-1.5 6.7-3.6 9.4-6.3c2.7-2.7 4.9-5.8 6.3-9.3c1.5-3.6 2.3-6.9 2.3-10.9c0-0.1 0 0.3 0 0.3h-11.8 C193.1 91.5 193.1 91.2 193.1 91.3z"/><path fill="#1B2025" d="M174.7 86.9c0 0.7-0.1 1.3-0.3 1.8c-0.2 0.5-0.5 1-0.9 1.4c-0.4 0.4-0.9 0.7-1.4 0.9 c-0.6 0.2-1.2 0.3-1.9 0.3c-1.4 0-2.5-0.4-3.3-1.2c-0.8-0.8-1.2-1.9-1.2-3.2s0.4-2.4 1.2-3.2c0.8-0.8 1.9-1.2 3.3-1.2 c0.7 0 1.3 0.1 1.9 0.3c0.6 0.2 1 0.5 1.4 0.9c0.4 0.4 0.7 0.9 0.9 1.4C174.6 85.6 174.7 86.2 174.7 86.9z M170.8 99.4h-3 l13.2-16.7h3L170.8 99.4z M172.1 86.9c0-0.8-0.2-1.4-0.5-1.8c-0.3-0.4-0.8-0.6-1.4-0.6c-0.6 0-1 0.2-1.3 0.6 c-0.3 0.4-0.5 1-0.5 1.8c0 0.7 0.2 1.3 0.5 1.7c0.3 0.4 0.8 0.6 1.4 0.6c0.5 0 1-0.2 1.3-0.6C171.9 88.2 172.1 87.6 172.1 86.9z M186.1 95.1c0 1.3-0.4 2.4-1.2 3.2c-0.8 0.8-1.9 1.2-3.3 1.2s-2.5-0.4-3.3-1.2c-0.8-0.8-1.2-1.9-1.2-3.2c0-0.7 0.1-1.3 0.3-1.8 c0.2-0.5 0.5-1 0.9-1.4c0.4-0.4 0.9-0.7 1.4-0.9c0.6-0.2 1.2-0.3 1.9-0.3s1.3 0.1 1.9 0.3c0.6 0.2 1 0.5 1.4 0.9 c0.4 0.4 0.7 0.9 0.9 1.4C186 93.9 186.1 94.5 186.1 95.1z M183.5 95.2c0-0.7-0.2-1.3-0.5-1.8c-0.3-0.4-0.8-0.6-1.3-0.6 c-0.6 0-1 0.2-1.4 0.6c-0.3 0.4-0.5 1-0.5 1.8c0 0.8 0.2 1.4 0.5 1.8c0.3 0.4 0.8 0.6 1.4 0.6c0.6 0 1-0.2 1.3-0.6 C183.3 96.5 183.5 95.9 183.5 95.2z"/><path fill="#1B2025" d="M141.4 181.5c0-0.2 0.1-0.2 0.2-0.3c1.2-0.8 2.1-1.8 3.1-2.8c0.3-0.4 0.7-0.8 1-1.2 c0.1-0.2 0.3-0.3 0.4-0.5c1.2-1.7 2.2-3.4 3-5.3c0.5-1.4 1-2.8 1.4-4.2c0.4-1.7 0.7-3.5 0.8-5.3c0-0.4 0.1-1 0.1-1.3 c0-2.7 0-5.5 0-8.2c0-1 0-2.1 0-3.1c0-0.3-0.3-0.6-0.6-0.6c-1.1 0-2.3 0-3.4 0c-1 0-2 0-3 0c-0.2 0-0.3 0-0.5 0 c-0.6-0.1-0.9-0.6-0.8-1.1c0-0.3 0.2-0.6 0.4-0.9c0.7-0.9 1.5-1.8 2.2-2.8c0.9-1.1 1.7-2.2 2.6-3.3c0.3-0.4 0.6-0.8 0.9-1.1 c1.3-1.7 2.6-3.4 4-5c1.2-1.6 2.4-3.1 3.7-4.7c0.7-0.9 1.5-1.9 2.2-2.8c0.7-0.9 1.4-1.8 2.1-2.7c0.2-0.2 0.3-0.4 0.5-0.5 c0.2-0.2 0.5-0.2 0.7 0c0.2 0.1 0.4 0.3 0.6 0.5c0.3 0.3 0.5 0.7 0.8 1c1.4 1.7 2.7 3.4 4.1 5.2c0.8 1 1.6 2 2.3 3 c0.5 0.7 1.1 1.4 1.6 2c0.9 1.2 1.8 2.3 2.7 3.5c0.4 0.5 0.8 1 1.2 1.5c1.6 2 3.1 4 4.7 6c0.1 0.1 0.2 0.2 0.2 0.3 c0.1 0.1 0.2 0.3 0.2 0.4c0.3 0.8-0.1 1.5-1 1.6c-0.1 0-0.2 0-0.3 0c-2.1 0-4.2 0-6.3 0c-0.6 0-0.6 0.1-0.6 0.6 c0 2.7 0 5.4-0.3 8.2c-0.2 1.3-0.4 2.6-0.8 3.9c-0.2 0.8-0.5 1.6-0.8 2.5c-0.7 1.9-1.5 3.6-2.6 5.3c-1 1.6-2.2 3.1-3.6 4.3 c-1.2 1.1-2.5 2.2-4 3.1c-1.2 0.7-2.4 1.3-3.7 1.9c-1.1 0.5-2.3 0.9-3.4 1.2c-1.9 0.6-3.9 1-5.8 1.3c-1.5 0.2-3 0.5-4.5 0.6 c-0.7 0.1-0.7 0.1-1.4 0.1C141.7 181.5 141.5 181.6 141.4 181.5z"/><rect x="63.1" y="103.1" fill="#1B2025" width="45.4" height="5.5"/><rect x="63.1" y="113.9" fill="#1B2025" width="45.4" height="5.5"/><rect x="63.1" y="124.1" fill="#1B2025" width="30.6" height="5.5"/><rect x="63.1" y="134.7" fill="#1B2025" width="30.6" height="5.5"/><rect x="92.2" y="152.5" fill="#1B2025" width="30.7" height="5.5"/><rect x="92.2" y="162.2" fill="#1B2025" width="30.7" height="5.5"/><rect x="66.1" y="146.4" fill="#FFD239" width="21.3" height="21.3"/><rect x="97.8" y="124.1" fill="#FFD239" width="25.2" height="25.2"/><path fill="#E1E2E2" d="M163.2 104c-3.2-3.2-4.7-6.8-4.9-10.8l0.1-2.4c0 0.1 0-0.4 0 0.6h0h-1h-9.5h-1.1c0-1 0-1.5 0-2 c0 0 0-0.2 0-0.2c-0.2 2-0.1 4.1-0.1 4.1c0 2.7 0.6 6.4 2.1 10c1.5 3.5 3.6 5.9 6.3 8.6c2.7 2.7 5.5 4.5 9 5.9 c3.6 1.5 6.1 2 11.1 2v-11.9C170.2 108.1 166.5 107.3 163.2 104z"/><path fill="#00ADF2" d="M175.2 61.6c-5 0-7.5 0.8-11.1 2.3c-3.5 1.5-6.3 3.6-9 6.3c0 0 0 0 0 0l0 0c-2.7 2.7-4.7 5.8-6.2 9.3 c-1.3 3.1-2 6.7-2.1 10.1c0 0.5 0 1 0 2h1.1h9.5h1c0-1 0-0.6 0-0.6c0.1-4 1.6-9 4.7-12.1l0 0c3.3-3.3 7-5.3 12-5.3V61.6z"/></svg>
