<svg width="1440" height="452" viewBox="0 0 1440 452" xmlns="http://www.w3.org/2000/svg" xmlns:xlink="http://www.w3.org/1999/xlink"><title>homepagev9</title><defs><path id="a" d="M1129 6331h116.921v31.806H1129z"/><mask id="f" x="0" y="0" width="116.921" height="31.806" fill="#fff"><use xlink:href="#a"/></mask><path id="b" d="M312.823 6317.731l17.898 29.92-18.684 27.07-17.768-26.387 18.554-30.603"/><mask id="g" x="0" y="0" width="36.452" height="56.99" fill="#fff"><use xlink:href="#b"/></mask><path id="c" d="M411.142 6488.142h20v20h-20z"/><mask id="h" x="0" y="0" width="20" height="20" fill="#fff"><use xlink:href="#c"/></mask><path id="d" d="M945.554 6303l17.898 29.92-18.684 27.07L927 6333.603 945.554 6303"/><mask id="i" x="0" y="0" width="36.452" height="56.99" fill="#fff"><use xlink:href="#d"/></mask><path id="e" d="M1310.554 6553l17.898 29.92-18.684 27.07-17.768-26.387 18.554-30.603"/><mask id="j" x="0" y="0" width="36.452" height="56.99" fill="#fff"><use xlink:href="#e"/></mask></defs><g transform="translate(0 -6241)" fill="none" fill-rule="evenodd"><path fill="#F4F5F5" opacity=".5" d="M1 6243h1440v449H1z"/><path d="M1130.8 6345.044h-100.27s-30.1-2.5-29.522 30.047c.377 21.211.79 83.27 1.032 123.93" stroke="#FFD95F" stroke-width="5"/><use stroke="#DDD" mask="url(#f)" stroke-width="10" xlink:href="#a"/><path d="M1245 6346.178l193.32.874" stroke="#DDD" stroke-width="5"/><path d="M1002 6515a8 8 0 1 0 0-16 8 8 0 0 0 0 16z" stroke="#DDD" stroke-width="6"/><g stroke-width="5"><path stroke="#DDD" d="M1368.341 6391.87h68.288v-45.48h-68.288z"/><path stroke="#DDD" d="M1368.341 6347.17l32.923 30.536 34.568-30.537"/><path d="M1368.341 6391.87l22.239-24.074M1436.63 6391.16l-22.24-24.074" stroke="#DFDFDF"/></g><path d="M-219 6162h113.687c6.046 0 22.621 3.879 22.621 25.408v55.059s-1.423 25.38 27.63 27.075c29.054 1.695 89.672 0 89.672 0s20.723 1.322 20.723 29.011c0 27.69 8.233 47.546 38.866 47.546h196.403" stroke="#DDD" stroke-width="5"/><use stroke="#29ABE1" mask="url(#g)" stroke-width="10" transform="rotate(90 312.495 6346.226)" xlink:href="#b"/><path d="M245 6648l159.536.041" stroke="#DDD" stroke-width="5"/><path d="M236.435 6637.527v-66.006s.075-26.995-25.634-26.995c-25.71 0-351.113-1.065-351.113-1.065s-17.452 2.065-19.034-11.016c-1.583-13.082 4.392-29.557-16.096-29.557s-121.574.628-121.574.628-15.984-1.575-15.984-21.891.216-107.625.216-107.625" stroke="#FFD95F" stroke-width="5"/><circle stroke="#0EBCEC" stroke-width="6" cx="237" cy="6647" r="8"/><circle stroke="#0EBCEC" stroke-width="6" cx="413" cy="6647" r="8"/><path d="M497.557 6242v69.671s-1.322 20.724-29.011 20.724S421 6340.627 421 6371.26v119.822" stroke="#B0B0B0" stroke-width="5"/><use stroke="#29ABE1" mask="url(#h)" stroke-width="10" transform="rotate(45 421.142 6498.142)" xlink:href="#c"/><path d="M565.003 6242v97.246s-.763 23.015 20.458 23.015H779" stroke="#29ABE1" stroke-width="5"/><path d="M780 6362a8 8 0 1 0 16 0 8 8 0 0 0-16 0z" stroke="#DDD" stroke-width="6"/><use stroke="#29ABE1" mask="url(#i)" stroke-width="10" xlink:href="#d"/><path d="M865 6244v176.475" stroke="#DCDCDB" stroke-width="5"/><g stroke-width="5" stroke="#DDDCDB"><path d="M84.5 6481.068h91.593V6423.5H84.5z"/><path d="M165.6 6442.018a5.569 5.569 0 1 1-11.138 0 5.569 5.569 0 1 1 11.138 0zM106.37 6442.018a5.569 5.569 0 1 1-11.139 0 5.569 5.569 0 1 1 11.138 0zM97.027 6461.61h8.634M110.957 6461.61h8.634M124.886 6461.61h8.634M138.816 6461.61h8.634M152.745 6461.401h8.634"/></g><path d="M85 6382v42.516" stroke="#DCDCDB" stroke-width="5"/><g stroke="#969696" stroke-width="5"><path d="M878.709 6444.91v7.393M918.963 6444.91v7.393M910.585 6457.782c-.146 3.282-13.766 11.993-24.816 1.005"/><path d="M864.438 6479.138v-59.828h29.035v8.405h40.946v51.423z"/></g><path d="M1310 6604v87.5" stroke="#969696" stroke-width="5"/><use stroke="#FFD95F" mask="url(#j)" stroke-width="10" xlink:href="#e"/><path d="M1476.973 6492.706l-303.358-.706-82.345.706s-32.952-2.183-32.952 22.116c0 24.3.288 61.523.288 61.523s-.138 26.089-17.13 28.645c-16.992 2.557-194.915 1.353-194.915 1.353s-44.318-4.55-39.14 37.094" stroke="#B5B5B5" stroke-width="5"/><path d="M801 6651a8 8 0 1 0 16 0 8 8 0 0 0-16 0z" stroke="#DDD" stroke-width="6"/><path d="M549 6691v-28.387c0-10.144 11.775-18.444 26.17-18.444h1.863c14.393 0 26.17-8.301 26.17-18.445v-29.15c0-10.144 10.754-18.444 23.898-18.444 13.145 0 23.899-8.3 23.899-18.445V6529" stroke="#DDDCDB" stroke-width="5"/><path stroke="#B5B5B5" stroke-width="5" d="M678.261 6459.185h12.702v69.734h-78.555v-69.734h14.515M636.636 6459.185h31.751"/><g stroke-width="5" stroke="#B5B5B5"><path d="M628.63 6464.962h6.405v-11.554h-6.404zM670.043 6464.962h6.404v-11.554h-6.404z"/></g><path d="M626.39 6481.777h50.59M626.39 6510.248h50.59M626.39 6500.757h50.59M626.39 6491.267h50.59" stroke="#FFD95F" stroke-width="6"/></g></svg>