<svg xmlns="http://www.w3.org/2000/svg" viewBox="0 0 200 150"><rect x="23" y="13.6" fill="#FFFFFF" width="153.3" height="88.1"/><path fill="#E6E7E8" d="M19.2 105.5v12.8c0 2.1 1.1 4.2 3.2 4.2h59.7c-0.1 2-0.3 7.2-1.2 9.5c-1.1 2.8-1.2 3.3-4.3 5.2 c-3.1 1.9-3.1 2.5-3.1 3.6c0 0-0.2 0.8 6.4 0.8c6.3 0 17 0 20 0c3 0 13.8 0 20 0c6.6 0 6.4-0.8 6.4-0.8c-0.1-1.1 0-1.6-3.1-3.5 c-3.1-1.9-3.2-2.5-4.3-5.3c-0.9-2.2-1.1-7.5-1.2-9.5h59.8c2.1 0 2.6-2.1 2.6-4.2v-12.8H19.2z"/><circle fill="#A7A9AC" cx="100.1" cy="114.9" r="3.7"/><path fill="#D1D3D4" d="M124.6 48.5L83.4 89.7c-3.6 3.6-8.9 4.1-11.8 1.2l0 0c-2.9-2.9-2.4-8.1 1.2-11.7L114 38 c0.9-0.9 1.8-1.6 2.9-2.1l18.2-9.7c0.9-0.4 1.6 0.3 1.2 1.2l-9.7 18.3C126.1 46.7 125.4 47.7 124.6 48.5z"/><path fill="#E6E7E8" d="M133 91.1c-2.3 2.2-5.9 2.2-8.1-0.1L96.8 61.8c0 0-0.1-0.1-0.1-0.2c0 0-0.5-0.2-2-1.9 c-1.5-1.7-7.9-9.2-10.2-11.6c-3.1 1-6.7 0.3-9.1-2.2c-0.1-0.1-0.2-0.2-0.3-0.3c-0.1-0.1-0.2-0.2-0.3-0.3c-0.1-0.1-0.3-0.3-0.4-0.4 l0 0c-0.3-0.3-0.5-0.6-0.7-0.9c-2-3-1.8-6.7-2.4-10.1c-0.6-3.8-4.8-7.2-5.2-7.4C65.3 26 65.9 26 65.9 26s9.5-0.3 16.8 3.5l0 0 l0.1 0.1c0 0 0 0 0 0c0 0 0 0 0 0l0.1 0.1l0.1 0.1c2.3 1.2 4.3 2.8 5.9 5.2l0 0c1.5 2.2 1.9 5.2 0.9 7.9c2.9 2.8 9.9 8.7 11.6 10.2 c1.7 1.5 1.9 1.9 1.9 2c0.1 0 0.2 0.1 0.2 0.1L133 83.3c2.2 2.1 2.2 5.5 0.1 7.7L133 91.1z"/><path fill="#A7A9AC" d="M174.2 9.5h-149c-3.3 0-6 2.7-6 6V96v3.5v6H25v0c0.1 0 0.2 0 0.3 0h149c0.1 0 0.2 0 0.3 0v0h5.7v-6V96V15.5 C180.2 12.2 177.5 9.5 174.2 9.5z M174.2 99.5h-149v-84h149V99.5z"/></svg>
