<svg xmlns="http://www.w3.org/2000/svg" viewBox="0 0 200 150"><rect x="31.4" y="12.2" fill="#FFFFFF" width="137.2" height="125.7"/><path fill="#A7A9AC" d="M166.5 15.5v120h-133v-120H166.5 M166.5 9.5h-133c-3.3 0-6 2.7-6 6v120c0 3.3 2.7 6 6 6h133c3.3 0 6-2.7 6-6 v-120C172.5 12.2 169.8 9.5 166.5 9.5L166.5 9.5z"/><rect x="43.2" y="39.5" fill="#A7A9AC" width="114" height="4"/><rect x="43.2" y="46.5" fill="#A7A9AC" width="114" height="4"/><rect x="43.2" y="27.5" fill="#E6E7E8" width="114" height="8"/><rect x="43.2" y="63.5" fill="#A7A9AC" width="76" height="5"/><rect x="43.2" y="71.5" fill="#E6E7E8" width="42" height="5"/><rect x="43.2" y="94.5" fill="#E6E7E8" width="42" height="5"/><rect x="43.2" y="118.5" fill="#E6E7E8" width="42" height="5"/><circle fill="#F1F2F2" cx="138.6" cy="67.8" r="8.5"/><path fill="#A7A9AC" d="M138.5 72.9c-0.4 0-0.8-0.2-1-0.5l-3.4-5.2c0 0 0 0 0 0l2-1.3c0 0 0 0 0 0l2.3 3.4c0 0 0 0 0.1 0l6-11.3 c0 0 0 0 0 0l2.1 1.1c0 0 0 0 0 0l-7 13.2C139.4 72.6 139 72.9 138.5 72.9C138.5 72.9 138.5 72.9 138.5 72.9z"/><rect x="43.2" y="86.5" fill="#A7A9AC" width="76" height="5"/><circle fill="#F1F2F2" cx="138.6" cy="91.4" r="8.5"/><path fill="#A7A9AC" d="M138.5 96.4c-0.4 0-0.8-0.2-1-0.5l-3.4-5.2c0 0 0 0 0 0l2-1.3c0 0 0 0 0 0l2.3 3.4c0 0 0 0 0.1 0l6-11.3 c0 0 0 0 0 0l2.1 1.1c0 0 0 0 0 0l-7 13.2C139.4 96.1 139 96.4 138.5 96.4C138.5 96.4 138.5 96.4 138.5 96.4z"/><rect x="43.2" y="110.5" fill="#A7A9AC" width="76" height="5"/><circle fill="#F1F2F2" cx="138.6" cy="115.9" r="8.5"/><path fill="#A7A9AC" d="M138.5 120.9c-0.4 0-0.8-0.2-1-0.5l-3.4-5.2c0 0 0 0 0 0l2-1.3c0 0 0 0 0 0l2.3 3.4c0 0 0 0 0.1 0l6-11.3 c0 0 0 0 0 0l2.1 1.1c0 0 0 0 0 0l-7 13.2C139.4 120.7 139 120.9 138.5 120.9C138.5 120.9 138.5 120.9 138.5 120.9z"/></svg>
