<svg xmlns="http://www.w3.org/2000/svg" viewBox="0 0 200 150"><rect x="23" y="13.6" fill="#FFFFFF" width="153.3" height="88.1"/><path fill="#32AAE1" d="M166.2 61.8c0 0 0.1-0.1 0.1-0.1c0.6-0.6 0.9-1.5 0.9-2.3c0-0.8-0.3-1.7-0.9-2.3c0 0-0.1-0.1-0.1-0.1 L151.1 42c-1.2-1.2-3.3-1.2-4.5 0c-1.3 1.2-1.3 3.3 0 4.5l12.9 12.9l-12.9 12.9c-1.3 1.3-1.3 3.3 0 4.5c0.6 0.6 1.4 0.9 2.3 0.9 c0.8 0 1.6-0.3 2.3-0.9L166.2 61.8z"/><path fill="#32AAE1" d="M48.9 76.9c0.6 0.6 1.4 0.9 2.3 0.9c0.8 0 1.6-0.3 2.3-0.9c1.3-1.3 1.3-3.3 0-4.5L40.5 59.4l12.9-12.9 c1.3-1.3 1.3-3.3 0-4.5c-1.2-1.2-3.3-1.2-4.5 0L33.8 57.1c0 0-0.1 0.1-0.1 0.1c-0.6 0.6-0.9 1.5-0.9 2.3c0 0.8 0.3 1.7 0.9 2.3 c0 0 0.1 0.1 0.1 0.1L48.9 76.9z"/><path fill="#32AAE1" d="M135.5 28.2c-2.4-2.4-6.2-2.6-8.6-0.1l-18.6 18.6c-0.2 0.2-0.2 0.6 0 0.8c0.6 0.6 0.6 1.7 0 2.3 c-0.6 0.6-1.6 0.6-2.3 0c-0.2-0.2-0.6-0.2-0.8 0l-2.1 2.1c-0.2 0.2-0.2 0.4-0.1 0.7l2.8 2.8L73 88.2l-2.3 3.7l1.1 1.1l3.7-2.2 l32.9-32.9l2.8 2.8c0.2 0.1 0.5 0.1 0.7-0.1l2.1-2.1c0.2-0.2 0.2-0.6 0-0.8c-0.6-0.6-0.6-1.7 0-2.3c0.6-0.6 1.7-0.6 2.3 0 c0.2 0.2 0.6 0.2 0.8 0l18.6-18.6C138.1 34.4 137.9 30.6 135.5 28.2z"/><path fill="#E6E7E8" d="M19.2 105.5v12.8c0 2.1 1.1 4.2 3.2 4.2h59.7c-0.1 2-0.3 7.2-1.2 9.5c-1.1 2.8-1.2 3.3-4.3 5.2 c-3.1 1.9-3.1 2.5-3.1 3.6c0 0-0.2 0.8 6.4 0.8c6.3 0 17 0 20 0c3 0 13.8 0 20 0c6.6 0 6.4-0.8 6.4-0.8c-0.1-1.1 0-1.6-3.1-3.5 c-3.1-1.9-3.2-2.5-4.3-5.3c-0.9-2.2-1.1-7.5-1.2-9.5h59.8c2.1 0 2.6-2.1 2.6-4.2v-12.8H19.2z"/><circle fill="#808285" cx="100.1" cy="114.9" r="3.7"/><path fill="#54CAF2" d="M128.7 82.9L107 62.8l-4.9-4.5L87.7 44.9c-2.1-2.3-2.7-3.2-2.1-5.9c0.6-2.9 0.1-8.4-4.9-11.2 c-5.8-3.3-11.6-0.3-11.6-0.3l-0.5 0.7c0 0 5.2 3.4 5.8 3.8c0.7 0.5 3 2.9 0.3 6.9c-2.6 4-5.4 2.7-6.3 2c-0.6-0.4-5.8-3.7-5.8-3.7 L62.1 38c0 0-0.4 6.9 5.3 10.6c2.7 1.7 5.5 1.7 7.6 1c2-0.6 3.5 0.1 6 2.5l13.6 13.6l4.7 4.7h0l20.9 20.9c2.3 2.4 6 2.4 8.4 0.1 C131 88.9 131.1 85.2 128.7 82.9z"/><path fill="#808285" d="M174.2 9.5h-149c-3.3 0-6 2.7-6 6V96v3.5v6H25v0c0.1 0 0.2 0 0.3 0h149c0.1 0 0.2 0 0.3 0v0h5.7v-6V96V15.5 C180.2 12.2 177.5 9.5 174.2 9.5z M174.2 99.5h-149v-84h149V99.5z"/></svg>
