<svg xmlns="http://www.w3.org/2000/svg" viewBox="0 0 200 150"><path fill="#FFFFFF" d="M31.1 14.7c0 0 5.9-2.5 6.5-2.5s75.1 1.3 75.1 1.3l17.9 20.1l-2.3 103.6l-97.2 0.7l-2-4.5l0.4-116.7 L31.1 14.7z"/><path fill="none" d="M122.9 34.8h-9c-2.6 0-4.8-2.1-4.8-4.8v-9.9c0-2.6-2.1-4.8-4.8-4.8H37.2c-2.6 0-4.8 2.1-4.8 4.8l0 110.9 c0 2.6 2.1 4.8 4.8 4.8h81.4l-3.7-2.5l10.5-1.5l0.7-71.1l1.6-0.4l0-20.7C127.7 36.9 125.5 34.8 122.9 34.8z"/><path fill="#808285" d="M118.6 135.8H37.2c-2.6 0-4.8-2.1-4.8-4.8l0-110.9c0-2.6 2.1-4.8 4.8-4.8h67.1c2.6 0 4.8 2.1 4.8 4.8V30 c0 2.6 2.1 4.8 4.8 4.8h9c2.6 0 4.8 2.1 4.8 4.8l0 20.7l5.5-1.4v-29c0-1.3-0.5-2.6-1.5-3.5l-16.6-15.5c-0.9-0.8-2.1-1.3-3.3-1.3 H31.3c-2.6 0-4.8 2.1-4.8 4.8v122.4c0 2.6 2.1 4.8 4.8 4.8h97.2c1.8 0 3.4-1 4.2-2.5l-11.9-1.7L118.6 135.8z"/><path fill="#FFFFFF" d="M125.5 131.7l-10.5 1.5l3.7 2.5h4.3c2.6 0 4.8-2.1 4.8-4.8l0-70.8l-1.6 0.4L125.5 131.7z"/><path fill="#FFFFFF" d="M133.2 58.8l-5.5 1.4l0 70.8c0 2.6-2.1 4.8-4.8 4.8h-4.3l2.2 1.5l11.9 1.7c0.4-0.7 0.6-1.5 0.6-2.3V58.8z"/><rect x="50.4" y="41.5" fill="#D1D3D4" width="58.4" height="5.6"/><rect x="50.4" y="51.2" fill="#D1D3D4" width="44.6" height="5.6"/><rect x="50.4" y="60.9" fill="#D1D3D4" width="58.4" height="5.6"/><rect x="50.4" y="70.6" fill="#D1D3D4" width="44.6" height="5.6"/><rect x="50.4" y="80.3" fill="#D1D3D4" width="58.4" height="5.6"/><rect x="50.4" y="90" fill="#D1D3D4" width="44.6" height="5.6"/><rect x="50.4" y="99.7" fill="#D1D3D4" width="58.4" height="5.6"/><rect x="50.4" y="109.4" fill="#D1D3D4" width="44.6" height="5.6"/><path fill="#D1D3D4" d="M91.9 100c0 0.1 0 0.1 0 0.2c0 22.8 18.5 41.4 41.4 41.4V100H91.9z"/><path fill="#E6E7E8" d="M133.2 58.8c-22.8 0-41.3 18.4-41.4 41.2h41.4V58.8z"/><path fill="#E6E7E8" d="M174.7 100.2c0-0.1 0-0.1 0-0.2h-41.4v41.6c0 0 0 0 0 0C156.1 141.6 174.7 123.1 174.7 100.2z"/><path fill="#F1F2F2" d="M179.4 95.3c-0.1-22.8-18.6-41.2-41.4-41.2c0 0 0 0 0 0v41.2H179.4z"/></svg>
