<svg xmlns="http://www.w3.org/2000/svg" viewBox="0 0 200 150"><rect x="31.4" y="12.2" fill="#FFFFFF" width="137.2" height="125.7"/><path fill="#A7A9AC" d="M166.5 35.5v100h-133v-100H166.5 M166.5 9.5h-133c-3.3 0-6 2.7-6 6v120c0 3.3 2.7 6 6 6h133c3.3 0 6-2.7 6-6 v-120C172.5 12.2 169.8 9.5 166.5 9.5L166.5 9.5z"/><polygon fill="#D1D3D4" points="116.5,43.2 40.9,43.2 40.9,122.1 40.9,128.2 40.9,128.2 116.5,128.2 116.5,128.2 116.5,128.2 116.5,122.1 116.5,43.2"/><rect x="123.6" y="43.2" fill="#E6E7E8" width="35.5" height="85"/><path fill="#FFFFFF" d="M106.7 108c0 0 6-0.2-0.3-5.8c-5.3-4.8-17.9-6-17.9-6l-18-22.1l-7.7 0.4l6.5 15.8l-11.1-1.5l-3.2-8.3 L49 78.7c0 0 0.3 8.6 3 16C51.9 94.7 77.5 109.5 106.7 108z"/><circle fill="#FFFFFF" cx="79.9" cy="108.8" r="2.3"/><circle fill="#FFFFFF" cx="35.7" cy="17.5" r="2.3"/><circle fill="#FFFFFF" cx="43.6" cy="17.5" r="2.3"/><circle fill="#FFFFFF" cx="51.5" cy="17.5" r="2.3"/><rect x="33.5" y="23.5" fill="#FFFFFF" width="111.8" height="7"/></svg>
