<svg xmlns="http://www.w3.org/2000/svg" viewBox="0 0 200 150"><path opacity="0.3" fill="#F1F2F2" d="M126.8 21.6C96 17.3 68.3 39.1 64.7 69.2c-2.5 21.1 7.2 40.9 23.7 52.1 c6.7 4.5 14.6 7.6 23.2 8.8c13.9 1.9 27.2-1.6 37.9-8.7C162 113 171 99.5 173.2 83.6C177.6 53.1 156.3 25.8 126.8 21.6z"/><path fill="none" d="M100 114.1c0.8-0.3 1.5-0.9 2.2-1.3c2.8-1.8 3.4-4.5 3.2-7.5c0-0.5-0.4-1.1-0.8-1.5c-3.5-3.4-5.9-7.5-7.4-12.1 c-0.2-0.7-0.9-1.2-1.4-1.8c-0.4-0.4-0.9-0.6-1.2-1c-1.8-2.7-3.2-5.6-3.1-8.9c0-1.9 0.7-3.6 2.3-4.8c0.8-0.6 0.9-1.3 0.9-2.2 c0.3-3.7 0.4-7.5 0.9-11.2c0.9-6.8 4-12.4 9.9-16.1c6.1-3.9 12.9-5.1 20-3.4c4.5 1 8.5 3 11.7 6.4c3.3 3.4 5.4 7.5 6.1 12.1 c0.6 4 0.8 8.1 1.1 12.1c0.1 0.9 0.2 1.6 0.9 2.3c2.5 2.2 2.5 5.1 1.8 8c-0.3 1.3-0.8 2.7-1.5 3.8c-0.6 1-1.4 1.9-2.3 2.7 c-0.8 0.6-1.3 1.3-1.6 2.2c-1.5 4.4-3.7 8.4-7.1 11.7c-0.8 0.7-1.2 1.5-0.9 2.6c0.1 0.3 0.1 0.7 0.1 1c-0.2 2.9 1.3 5 3.7 6.2 c2.9 1.6 6 2.9 9.1 4.3c1.7 0.8 3.4 1.5 5.2 2.2c11.4-8.4 19.4-21.2 21.5-36.2c4.3-30.5-16.9-57.8-46.5-62 C96 17.3 68.3 39.1 64.7 69.2c-2.4 20.3 6.4 39.4 21.8 50.7c1.2-0.5 2.5-1 3.7-1.6C93.5 116.9 96.8 115.5 100 114.1z"/><path fill="#E6E6E6" d="M119.4 141.5c-2 0-3.9 0-5.9 0c4.1 0.4 8.1 0.3 12 0C123.5 141.5 121.4 141.5 119.4 141.5 C119.4 141.5 119.4 141.5 119.4 141.5z"/><path fill="#D1D3D4" d="M111.6 130c13.9 1.9 27.2-1.6 37.9-8.7c0.8-0.5 1.5-1 2.2-1.6c-1.7-0.7-3.4-1.5-5.2-2.2 c-3.1-1.4-6.1-2.7-9.1-4.3c-2.4-1.3-3.9-3.3-3.7-6.2c0-0.3 0-0.7-0.1-1c-0.3-1.1 0.1-1.9 0.9-2.6c3.4-3.3 5.6-7.2 7.1-11.7 c0.3-0.9 0.8-1.6 1.6-2.2c0.9-0.7 1.7-1.7 2.3-2.7c0.7-1.2 1.2-2.5 1.5-3.8c0.7-2.9 0.7-5.8-1.8-8c-0.7-0.6-0.8-1.4-0.9-2.3 c-0.3-4.1-0.6-8.1-1.1-12.1c-0.6-4.7-2.8-8.7-6.1-12.1c-3.2-3.4-7.2-5.4-11.7-6.4c-7.1-1.7-13.9-0.5-20 3.4 c-5.8 3.7-8.9 9.3-9.9 16.1c-0.5 3.7-0.7 7.4-0.9 11.2c-0.1 0.9-0.2 1.6-0.9 2.2c-1.6 1.2-2.2 3-2.3 4.8c-0.1 3.3 1.4 6.2 3.1 8.9 c0.3 0.4 0.9 0.6 1.2 1c0.5 0.5 1.2 1.1 1.4 1.8c1.6 4.6 3.9 8.7 7.4 12.1c0.4 0.4 0.8 1 0.8 1.5c0.2 3-0.4 5.8-3.2 7.5 c-0.7 0.5-1.4 1-2.2 1.3c-3.2 1.4-6.5 2.8-9.8 4.2c-1.2 0.5-2.5 1-3.7 1.6c0.6 0.5 1.3 0.9 1.9 1.3C95.2 125.8 103 128.9 111.6 130z "/><path fill="#E6E7E8" d="M127.7 10C91.2 5.6 59 30.9 53.9 66.3c-3.2 23.1 5.7 44.8 21.7 58.9c0.5 0.4 1 0.8 1.4 1.2 c9.1 7.6 20.4 12.8 33.1 14.6c1.1 0.2 2.2 0.3 3.3 0.4c2 0 3.9 0 5.9 0c0 0 0 0 0 0c2 0 4.1 0 6.1 0c13.5-1.2 25.9-6.5 35.9-14.8 c0.6-0.5 1.2-1 1.7-1.5c11.4-10.1 19.4-24.2 21.7-40.5C189.9 48 164.2 14.8 127.7 10z M173.2 83.6c-2.1 15-10.2 27.8-21.5 36.2 c-0.7 0.5-1.5 1.1-2.2 1.6c-10.7 7.1-23.9 10.6-37.9 8.7c-8.6-1.2-16.5-4.3-23.2-8.8c-0.6-0.4-1.3-0.9-1.9-1.3 c-15.4-11.4-24.3-30.5-21.8-50.7c3.6-30.1 31.3-51.9 62.1-47.6C156.3 25.8 177.6 53.1 173.2 83.6z"/><path fill="#A7A9AC" d="M91.7 58.3L83.6 51V14.2c0-2.6-2.1-4.7-4.7-4.7H18.5c-2.6 0-4.7 2.1-4.7 4.7v43.7c0 2.6 2.1 4.7 4.7 4.7 h60.4c2.4 0 4.4-1.8 4.6-4.2L91.7 58.3z"/></svg>
