<svg xmlns="http://www.w3.org/2000/svg" viewBox="0 0 200 150"><rect x="31.4" y="12.2" fill="#FFFFFF" width="137.2" height="125.7"/><path fill="#808285" d="M166.5 35.5v100h-133v-100H166.5 M166.5 9.5h-133c-3.3 0-6 2.7-6 6v120c0 3.3 2.7 6 6 6h133c3.3 0 6-2.7 6-6 v-120C172.5 12.2 169.8 9.5 166.5 9.5L166.5 9.5z"/><path fill="#32AAE1" d="M141.2 101.2l-0.7-0.3l-0.6-0.3l-0.4 0.6c-0.7 1-1.7 2.2-2.9 3.8c-1.2 1.6-2.6 3.2-4.1 5 c-1.5 1.7-3.1 3.5-4.8 5.3c-1.7 1.8-3.4 3.4-5.1 4.8c-1.7 1.4-3.3 2.6-4.8 3.5c-1.4 0.8-2.7 1.2-3.8 1.2c-1.7 0-2.8-0.5-3.3-1.6 c-0.6-1.3-0.9-2.8-0.9-4.7c0-2.8 0.5-5.9 1.4-9.3c0.9-3.4 2.2-7 3.7-10.7c1.5-3.7 3.4-7.5 5.4-11.2c2-3.7 4.2-7.4 6.4-10.7 c2.2-3.4 4.6-6.6 6.9-9.5c2.3-2.9 4.6-5.4 6.7-7.3l0.6-0.5l-0.5-0.6l-0.3-0.4l-0.4-0.5l-0.6 0.2c-3.5 1-7 2.5-10.4 4.4 c-3.3 1.9-6.6 4.2-9.7 6.6c-3.1 2.4-6 5.1-8.8 7.8c-2.7 2.7-5.3 5.4-7.6 8.1c-2.3 2.6-4.4 5.1-6.2 7.3c-1.9 2.4-3.4 4.2-4.6 5.7 c-2.8 3.4-5.8 6.8-8.8 10.1c-3 3.3-6.1 6.2-9.2 8.8c-3 2.5-6.1 4.6-9.1 6.2c-2.9 1.5-5.7 2.3-8.3 2.3c-1 0-2-0.1-2.9-0.4 c-0.5-0.1-0.9-0.4-1.3-0.7c0.3-0.2 0.5-0.5 0.7-0.9c0.4-0.7 0.6-1.4 0.6-2.1c0-1.2-0.4-2.2-1.1-3c-0.7-0.9-1.8-1.4-3.1-1.4 c-1.4 0-2.5 0.5-3.4 1.5c-0.8 0.9-1.2 2-1.2 3.3c0 0.7 0.1 1.4 0.4 2.2c0.3 0.9 0.8 1.7 1.6 2.5c0.8 0.8 1.8 1.4 3.2 1.9 c1.4 0.5 3.1 0.8 5.4 0.8c3.2 0 6.6-0.9 10-2.6c3.4-1.7 6.8-4.1 10.2-6.9c3.4-2.9 6.8-6.2 10.1-9.9c3.2-3.6 6.4-7.3 9.5-11.2h11.5 c-1.1 2.9-2.1 5.9-3 8.8c-1 3.4-1.6 7-1.6 10.8c0 1.4 0.2 2.8 0.5 4.1c0.3 1.3 0.9 2.5 1.7 3.6c0.8 1.1 1.8 1.9 2.9 2.5 c1.2 0.6 2.6 0.9 4.3 0.9c2.5 0 5.1-0.9 7.7-2.6c2.6-1.7 5.2-3.8 7.7-6.4c2.5-2.5 5-5.4 7.5-8.5c2.4-3.1 4.7-6 6.9-8.7l0.7-0.9 L141.2 101.2z M128.6 65.4c-3.9 4.1-7.4 8.4-10.5 12.8c-3.8 5.6-7.2 11.3-10.1 17.1H97.6c2.4-3 4.9-6 7.4-8.9 c2.9-3.3 5.9-6.4 8.9-9.4c3-2.9 6.2-5.6 9.4-8C125 67.8 126.8 66.5 128.6 65.4z"/><path fill="#32AAE1" d="M172.5 33c-2.3 3.8-4.5 8.1-6.8 13.9c-4.7 12-4 11.7-6.5 15.1c-2.5 3.4-6.7 6.7-7.8 7.3 c-0.2 0.2 0.8 0.6 1 0.6c0 0 0.1 0 0.1 0l0.4 0.3l-1.2 1.7c-0.1 0.2 0.1 0.7 0.3 0.8l0.9 0.6l-10.9 11.9c0 0 4.6 4.7-2.4 15.8l2 1.4 c7.8-10.5 13.9-8 13.9-8l7-14.6l1.3 0.9c0.1 0.1 0.5-0.1 0.6-0.2l1.2-1.7l0.3 0.2c0 0 0.1 0 0.1 0.1c0.2 0.2 0.9 1 1 0.7 c0.1-1.3 1.7-6.4 3.9-10c0.4-0.7 1.4-2 1.7-2.5V33z M153.3 84.5c0.8 1 0.9 2.4 0.1 3.5c-0.9 1.4-2.8 1.7-4.2 0.8 c-1.4-0.9-1.7-2.8-0.8-4.2c0.8-1.1 2.2-1.6 3.4-1.2l5-7.3l1.4 1L153.3 84.5z"/></svg>
