<svg xmlns="http://www.w3.org/2000/svg" viewBox="0 0 200 150"><rect x="31.4" y="12.2" fill="#FFFFFF" width="137.2" height="125.7"/><path fill="#808285" d="M166.5 35.5v100h-133v-100H166.5 M166.5 9.5h-133c-3.3 0-6 2.7-6 6v120c0 3.3 2.7 6 6 6h133c3.3 0 6-2.7 6-6 v-120C172.5 12.2 169.8 9.5 166.5 9.5L166.5 9.5z"/><polygon fill="#54CAF2" points="99.8,128.1 94.5,128.1 94.5,125.9 97.7,125.9 97.7,122.7 99.8,122.7"/><path fill="#54CAF2" d="M84.6 128.1h-9.8v-2.2h9.8V128.1z M65 128.1h-9.8v-2.2H65V128.1z"/><polygon fill="#54CAF2" points="45.4,128.1 40.1,128.1 40.1,122.7 42.2,122.7 42.2,125.9 45.4,125.9"/><path fill="#54CAF2" d="M42.2 114.5h-2.2v-8.2h2.2V114.5z M42.2 98.2h-2.2v-8.2h2.2V98.2z M42.2 81.9h-2.2v-8.2h2.2V81.9z M42.2 65.6h-2.2v-8.2h2.2V65.6z"/><polygon fill="#54CAF2" points="42.2,49.3 40.1,49.3 40.1,43.9 45.4,43.9 45.4,46 42.2,46"/><path fill="#54CAF2" d="M84.6 46h-9.8v-2.2h9.8V46z M65 46h-9.8v-2.2H65V46z"/><polygon fill="#54CAF2" points="99.8,49.3 97.7,49.3 97.7,46 94.5,46 94.5,43.9 99.8,43.9"/><path fill="#54CAF2" d="M99.8 114.5h-2.2v-8.2h2.2V114.5z M99.8 98.2h-2.2v-8.2h2.2V98.2z M99.8 81.9h-2.2v-8.2h2.2V81.9z M99.8 65.6h-2.2v-8.2h2.2V65.6z"/><rect x="102.3" y="45" fill="#34AAE1" width="57.6" height="82"/><circle fill="#FFFFFF" cx="35.7" cy="17.5" r="2.3"/><circle fill="#FFFFFF" cx="43.6" cy="17.5" r="2.3"/><circle fill="#FFFFFF" cx="51.5" cy="17.5" r="2.3"/><rect x="33.5" y="23.5" fill="#FFFFFF" width="111.8" height="7"/></svg>
