<svg xmlns="http://www.w3.org/2000/svg" viewBox="0 0 200 150"><rect x="44.4" y="11.5" fill="#FFFFFF" width="112" height="100.9"/><path fill="#D1D3D4" d="M146.1 70.2h-59c-2.2 0-4.1 1.9-4.1 4.1c0 2.2 1.9 4.1 4.1 4.1h59c2.2 0 4.1-1.9 4.1-4.1 C150 72.1 148.3 70.2 146.1 70.2z"/><circle fill="#F1F2F2" cx="59.4" cy="48.9" r="4.8"/><circle fill="#F1F2F2" cx="59.4" cy="99.6" r="4.8"/><circle fill="#F1F2F2" cx="59.4" cy="74.3" r="4.8"/><path fill="#D1D3D4" d="M146.1 44.9h-59c-2.2 0-4.1 1.9-4.1 4.1c0 2.2 1.9 4.1 4.1 4.1h59c2.2 0 4.1-1.9 4.1-4.1 C150 46.6 148.3 44.9 146.1 44.9z"/><path fill="#D1D3D4" d="M146.1 95.5h-59c-2.2 0-4.1 1.9-4.1 4.1s1.9 4.1 4.1 4.1h59c2.2 0 4.1-1.9 4.1-4.1 C150 97.4 148.3 95.5 146.1 95.5z"/><circle fill="#F1F2F2" cx="59.4" cy="23.5" r="4.8"/><path fill="#A7A9AC" d="M154.6 9.5H46.4c-2.4 0-4.3 1.9-4.3 4.3v123.5c0 2.4 1.9 4.3 4.3 4.3h108.2c2.4 0 4.3-1.9 4.3-4.3V14 C158.9 11.6 157 9.5 154.6 9.5z M155.1 106.1c0 2.4-1.9 4.3-4.3 4.3H49.3c-2.4 0-4.3-1.9-4.3-4.3v-13c0-2.4 1.9-4.3 4.3-4.3h101.6 c2.4 0 4.3 1.9 4.3 4.3V106.1z M155.1 80.8c0 2.4-1.9 4.3-4.3 4.3H49.3c-2.4 0-4.3-1.9-4.3-4.3v-13c0-2.4 1.9-4.3 4.3-4.3h101.6 c2.4 0 4.3 1.9 4.3 4.3V80.8z M155.1 55.5c0 2.4-1.9 4.3-4.3 4.3H49.3c-2.4 0-4.3-1.9-4.3-4.3v-13c0-2.4 1.9-4.3 4.3-4.3h101.6 c2.4 0 4.3 1.9 4.3 4.3V55.5z M155.1 30c0 2.4-1.9 4.3-4.3 4.3H49.3c-2.4 0-4.3-1.9-4.3-4.3v-13c0-2.4 1.9-4.3 4.3-4.3h101.6 c2.4 0 4.3 1.9 4.3 4.3V30z"/><path fill="#D1D3D4" d="M146.1 19.4h-59c-2.2 0-4.1 1.9-4.1 4.1s1.9 4.1 4.1 4.1h59c2.2 0 4.1-1.9 4.1-4.1 C150 21.3 148.3 19.4 146.1 19.4z"/></svg>
