<svg width="391" height="315" viewBox="0 0 391 315" xmlns="http://www.w3.org/2000/svg" xmlns:xlink="http://www.w3.org/1999/xlink"><title>process-always-available</title><defs><rect id="a" x="87" y="126" width="116" height="153.8" rx="8"/><path id="b" d="M87 145h116v112H87z"/><path id="c" d="M212 137h6.035v9.78H212z"/><path id="d" d="M214 133h2.263v5.266H214z"/><path id="e" d="M209 145h10.939v4.009H209z"/><rect id="f" x="129" y="105" width="23" height="11" rx="5.5"/><path id="g" d="M230 160h101v102H230z"/><path id="h" d="M.926 36H72v46H.926z"/><path id="i" d="M230 160h101v24H230z"/><path id="j" d="M239 192h9v9h-9z"/><path id="k" d="M314 192h9v9h-9z"/><path id="l" d="M301 192h9v9h-9z"/><path id="m" d="M289 192h9v9h-9z"/><path id="n" d="M276 192h9v9h-9z"/><path id="o" d="M264 192h9v9h-9z"/><path id="p" d="M252 192h9v9h-9z"/><path id="q" d="M239 209h9v9h-9z"/><path id="r" d="M239 209h9v9h-9z"/><path id="s" d="M314 209h9v9h-9z"/><path id="t" d="M301 209h9v9h-9z"/><path id="u" d="M289 209h9v9h-9z"/><path id="v" d="M276 209h9v9h-9z"/><path id="w" d="M264 209h9v9h-9z"/><path id="x" d="M252 209h9v9h-9z"/><path id="y" d="M239 225h9v9h-9z"/><path id="z" d="M239 225h9v9h-9z"/><path id="A" d="M314 225h9v9h-9z"/><path id="B" d="M301 225h9v9h-9z"/><path id="C" d="M289 225h9v9h-9z"/><path id="D" d="M276 225h9v9h-9z"/><path id="E" d="M264 225h9v9h-9z"/><path id="F" d="M252 225h9v9h-9z"/><path id="G" d="M239 241h9v9h-9z"/><path id="H" d="M239 241h9v9h-9z"/><path id="I" d="M314 241h9v9h-9z"/><path id="J" d="M301 241h9v9h-9z"/><path id="K" d="M289 241h9v9h-9z"/><path id="L" d="M276 241h9v9h-9z"/><path id="M" d="M264 241h9v9h-9z"/><path id="N" d="M252 241h9v9h-9z"/><path id="O" d="M224 214h49.08l12.59 14.875v46.795H224z"/><path d="M233 223H277.386l.614 45.245h-45V223z" id="P"/><path id="Q" d="M143 210h48v23h-48z"/><path id="R" d="M10.382 9.497h14.534v48.539H10.382z"/><path id="S" d="M16.889 71.175h3.114v8.442h-3.114z"/></defs><g transform="translate(1 1)" fill="none" fill-rule="evenodd"><path d="M203 76a3 3 0 1 1 0-6 3 3 0 0 1 0 6z" fill="#21B2EE"/><circle fill="#21B2EE" transform="matrix(-1 0 0 1 383 0)" cx="191.5" cy="103.5" r="2.5"/><circle fill="#21B2EE" transform="matrix(-1 0 0 1 456 0)" cx="228" cy="78" r="2"/><path fill="#21B2EE" d="M296.5 139.438l4.635 2.562-.885-5.427 3.75-3.844-5.182-.791L296.5 127l-2.318 4.938-5.182.791 3.75 3.844-.885 5.427zM170.5 117.438l4.635 2.562-.885-5.427 3.75-3.844-5.182-.791L170.5 105l-2.318 4.938-5.182.791 3.75 3.844-.885 5.427z"/><use fill="#6DD8FE" xlink:href="#a"/><rect stroke="#21B2EE" stroke-width="2" x="88" y="127" width="114" height="151.8" rx="8"/><use fill="#A8E4F9" xlink:href="#b"/><path stroke="#21B2EE" stroke-width="2" d="M88 146h114v110H88z"/><path d="M145 240c20.987 0 38-17.013 38-38s-17.013-38-38-38-38 17.013-38 38 17.013 38 38 38zM111.494 94.06c-.93 0-7.176-.589-8.633-5.259-1.456-4.67-.625-21.406-.625-21.406s.625-8.36 9.435-7.303" stroke="#21B2EE" stroke-width="2" fill="#6DD8FE"/><path d="M95.563 77.303s-.025-2.203.057-14.096c.081-11.892-3.777-13.426.203-23.785C99.803 29.064 112.322 7 143.349 7M97 23.587S107.074 0 144.646 0" stroke="#21B2EE" stroke-width="2"/><path d="M121.779 57h-7.518S111 57.548 111 60.934v32.952s.648 3.873 4.175 3.873h6.49s3.491-.113 3.491-3.873c0-3.76.224-29.57 0-33.228C124.932 57 121.78 57 121.78 57z" stroke="#21B2EE" stroke-width="2" fill="#6DD8FE"/><path d="M191.646 23.587C191.646 22.337 181.573 0 144 0" stroke="#21B2EE" stroke-width="2"/><path d="M176.177 93.06c.93 0 7.176-.589 8.633-5.259 1.456-4.67.625-21.406.625-21.406s-.625-8.36-9.435-7.303" stroke="#21B2EE" stroke-width="2" fill="#6DD8FE"/><path d="M190.785 77.303s.025-2.203-.056-14.096c-.082-11.892 3.776-13.426-.203-23.785C186.546 29.064 174.027 7 143 7" stroke="#21B2EE" stroke-width="2"/><path d="M166.477 56h7.518s3.26.548 3.26 3.934v32.952s-.647 3.873-4.175 3.873h-6.49s-3.49-.113-3.49-3.873c0-3.76-.224-29.57 0-33.228C163.323 56 166.477 56 166.477 56" stroke="#21B2EE" stroke-width="2" fill="#6DD8FE"/><path d="M88.249 258.568l-68.118.742s-18.698.526-19.259-10.374c-.56-10.9 9.134-14.181 19.259-14.181h33.491s24.847 2.457 24.847-8.52c0-10.978-7.504-13.302-19.838-13.302H30.572s-15.694 0-15.694-10.505 10.31-12.012 18.658-12.012h27.335s14.78.677 14.78-11.258V89.602s-.542-13.474 13.343-13.474h6.033M202.121 272.234h-.547s12.295.027 12.295-13.353V162.3" stroke="#21B2EE" stroke-width="2"/><path d="M211.07 148l-.07 10.724s.885 2.726 3.548 2.726c2.662 0 3.362-1.764 3.362-2.726 0-.96.185-10.724.185-10.724h-7.025z" stroke="#21B2EE" stroke-width="2" fill="#6DD8FE"/><use fill="#6DD8FE" xlink:href="#c"/><path stroke="#21B2EE" stroke-width="2" d="M213 138h4.035v7.78H213z"/><use fill="#21B2EE" xlink:href="#d"/><path stroke="#21B2EE" stroke-width="2" d="M215 134h1v3.266h-1z"/><use fill="#6DD8FE" xlink:href="#e"/><path stroke="#21B2EE" stroke-width="2" d="M210 146h8.939v2.009H210zM95.688 76.933l.37 21.443s-.5 11.685 10.573 12.861c11.073 1.177 32.015.5 32.015.5"/><use fill="#6DD8FE" xlink:href="#f"/><rect stroke="#21B2EE" stroke-width="2" x="130" y="106" width="21" height="9" rx="4.5"/><use fill="#6DD8FE" xlink:href="#g"/><path stroke="#21B2EE" stroke-width="2" d="M231 161h99v100h-99z"/><path d="M210.59 89.072C212.28 88.048 244.506 52 244.506 52l35.912 37.072" stroke="#21B2EE" stroke-width="2" fill="#6DD8FE"/><g transform="translate(209 52)"><use fill="#6DD8FE" xlink:href="#h"/><path stroke="#21B2EE" stroke-width="2" d="M1.926 37H71v44H1.926z"/></g><path d="M210.926 132.513l3.102-1.126L245.048 111l34.962 21.88" stroke="#21B2EE" stroke-width="2"/><use fill="#A8E4F9" xlink:href="#i"/><path stroke="#21B2EE" stroke-width="2" d="M231 161h99v22h-99z"/><path d="M246 167.154s.336 2.806 4.235 2.806c3.9 0 4.616-2.594 4.616-2.594l.149-9.349s-.856-3.017-4.628-3.017c-3.771 0-4.372 3.017-4.372 3.017v9.137zM265 167.154s.336 2.806 4.235 2.806c3.9 0 4.616-2.594 4.616-2.594l.149-9.349s-.856-3.017-4.628-3.017c-3.771 0-4.372 3.017-4.372 3.017v9.137zM285 167.154s.336 2.806 4.235 2.806c3.9 0 4.616-2.594 4.616-2.594l.149-9.349s-.856-3.017-4.628-3.017c-3.771 0-4.372 3.017-4.372 3.017v9.137zM304 167.154s.336 2.806 4.235 2.806c3.9 0 4.616-2.594 4.616-2.594l.149-9.349s-.856-3.017-4.628-3.017c-3.771 0-4.372 3.017-4.372 3.017v9.137z" stroke="#21B2EE" stroke-width="2" fill="#6DD8FE"/><use fill="#A8E4F9" xlink:href="#j"/><path stroke="#21B2EE" stroke-width="2" d="M240 193h7v7h-7z"/><use fill="#6DD8FE" xlink:href="#k"/><path stroke="#21B2EE" stroke-width="2" d="M315 193h7v7h-7z"/><use fill="#A8E4F9" xlink:href="#l"/><path stroke="#21B2EE" stroke-width="2" d="M302 193h7v7h-7z"/><use fill="#A8E4F9" xlink:href="#m"/><path stroke="#21B2EE" stroke-width="2" d="M290 193h7v7h-7z"/><use fill="#A8E4F9" xlink:href="#n"/><path stroke="#21B2EE" stroke-width="2" d="M277 193h7v7h-7z"/><use fill="#A8E4F9" xlink:href="#o"/><path stroke="#21B2EE" stroke-width="2" d="M265 193h7v7h-7z"/><use fill="#A8E4F9" xlink:href="#p"/><path stroke="#21B2EE" stroke-width="2" d="M253 193h7v7h-7z"/><use fill="#A8E4F9" xlink:href="#q"/><path stroke="#21B2EE" stroke-width="2" d="M240 210h7v7h-7z"/><use fill="#A8E4F9" xlink:href="#r"/><path stroke="#21B2EE" stroke-width="2" d="M240 210h7v7h-7z"/><use fill="#6DD8FE" xlink:href="#s"/><path stroke="#21B2EE" stroke-width="2" d="M315 210h7v7h-7z"/><use fill="#A8E4F9" xlink:href="#t"/><path stroke="#21B2EE" stroke-width="2" d="M302 210h7v7h-7z"/><use fill="#A8E4F9" xlink:href="#u"/><path stroke="#21B2EE" stroke-width="2" d="M290 210h7v7h-7z"/><use fill="#A8E4F9" xlink:href="#v"/><path stroke="#21B2EE" stroke-width="2" d="M277 210h7v7h-7z"/><use fill="#A8E4F9" xlink:href="#w"/><path stroke="#21B2EE" stroke-width="2" d="M265 210h7v7h-7z"/><use fill="#A8E4F9" xlink:href="#x"/><path stroke="#21B2EE" stroke-width="2" d="M253 210h7v7h-7z"/><use fill="#A8E4F9" xlink:href="#y"/><path stroke="#21B2EE" stroke-width="2" d="M240 226h7v7h-7z"/><use fill="#A8E4F9" xlink:href="#z"/><path stroke="#21B2EE" stroke-width="2" d="M240 226h7v7h-7z"/><use fill="#6DD8FE" xlink:href="#A"/><path stroke="#21B2EE" stroke-width="2" d="M315 226h7v7h-7z"/><use fill="#A8E4F9" xlink:href="#B"/><path stroke="#21B2EE" stroke-width="2" d="M302 226h7v7h-7z"/><g><use fill="#A8E4F9" xlink:href="#C"/><path stroke="#21B2EE" stroke-width="2" d="M290 226h7v7h-7z"/></g><g><use fill="#A8E4F9" xlink:href="#D"/><path stroke="#21B2EE" stroke-width="2" d="M277 226h7v7h-7z"/></g><g><use fill="#A8E4F9" xlink:href="#E"/><path stroke="#21B2EE" stroke-width="2" d="M265 226h7v7h-7z"/></g><g><use fill="#A8E4F9" xlink:href="#F"/><path stroke="#21B2EE" stroke-width="2" d="M253 226h7v7h-7z"/></g><g><use fill="#A8E4F9" xlink:href="#G"/><path stroke="#21B2EE" stroke-width="2" d="M240 242h7v7h-7z"/></g><g><use fill="#A8E4F9" xlink:href="#H"/><path stroke="#21B2EE" stroke-width="2" d="M240 242h7v7h-7z"/></g><g><use fill="#6DD8FE" xlink:href="#I"/><path stroke="#21B2EE" stroke-width="2" d="M315 242h7v7h-7z"/></g><g><use fill="#A8E4F9" xlink:href="#J"/><path stroke="#21B2EE" stroke-width="2" d="M302 242h7v7h-7z"/></g><g><use fill="#A8E4F9" xlink:href="#K"/><path stroke="#21B2EE" stroke-width="2" d="M290 242h7v7h-7z"/></g><g><use fill="#A8E4F9" xlink:href="#L"/><path stroke="#21B2EE" stroke-width="2" d="M277 242h7v7h-7z"/></g><g><use fill="#A8E4F9" xlink:href="#M"/><path stroke="#21B2EE" stroke-width="2" d="M265 242h7v7h-7z"/></g><g><use fill="#A8E4F9" xlink:href="#N"/><path stroke="#21B2EE" stroke-width="2" d="M253 242h7v7h-7z"/></g><g><use fill="#6DD8FE" xlink:href="#O"/><path stroke="#21B2EE" stroke-width="2" d="M225 215v59.67h59.67v-45.429L272.616 215H225z"/></g><g><use fill="#CCF2FF" xlink:href="#P"/><path stroke="#21B2EE" stroke-width="2" d="M234 267.245h42.986l-.6-44.231 1 .986H233l1-1v44.245z"/></g><path stroke="#21B2EE" stroke-width="2" fill="#A8E4F9" d="M271.845 215.655v13.319H283.7"/><path d="M125.367 136.877l42.604-.022" stroke="#21B2EE" stroke-width="2"/><circle stroke="#21B2EE" stroke-width="1.6" fill="#21B2EE" cx="144" cy="268" r="4"/><path d="M144.794 226.995c14.246 0 25.795-11.64 25.795-25.997 0-14.359-11.549-25.998-25.795-25.998C130.55 175 119 186.64 119 200.998s11.549 25.997 25.794 25.997z" stroke="#21B2EE" stroke-width="2" fill="#6DD8FE"/><path d="M170.46 201.002c0-12.168-8.23-24.872-25.795-25.997-.6-.039-1.665.161-1.665.161l1.665 29.247 25.795-3.41z" stroke="#21B2EE" stroke-width="2" fill="#A8E4F9"/><g><use fill="#CCF2FF" xlink:href="#Q"/><path stroke="#21B2EE" stroke-width="2" d="M144 211h46v21h-46z"/></g><text font-family="FreightSansProBold-Regular, FreightSans Pro" font-size="16" font-weight="bold" letter-spacing=".84" fill="#21B2EE"><tspan x="153" y="226">24h</tspan></text><g fill="#21B2EE"><path d="M256.468 232.052c2.062.014 3.715 1.554 3.7 3.468-.016 1.9-1.699 3.44-3.715 3.426-2.092-.014-3.775-1.581-3.76-3.482.015-1.9 1.698-3.425 3.775-3.412M261.59 255.075c-.075.29-.288.596-.515.818-1.364 1.262-2.987 2.012-4.943 2.039-.91.014-1.835-.014-2.73-.139-1.5-.194-3.396-1.887-3.123-3.703.183-1.235.394-2.47.622-3.704.394-2.137.82-4.286 1.229-6.423.03-.139.03-.277.03-.415 0-.902-.304-1.207-1.274-1.332-.41-.056-.85-.083-1.228-.209-.485-.152-.698-.499-.652-.86.045-.374.303-.61.834-.707.273-.055.56-.055.849-.055h7.096c.879 0 1.395.374 1.425 1.179.015.665-.107 1.331-.243 1.997-.47 2.442-.97 4.883-1.455 7.338-.167.805-.349 1.623-.44 2.428-.045.388.015.804.121 1.179.137.513.562.79 1.122.735.47-.056.94-.208 1.396-.36.363-.125.681-.362 1.06-.486.5-.18.956.166.82.68"/></g><g transform="rotate(-90 274.835 37.835)"><path d="M11.371 84.955v63.015s1.19 3.104 3.535 3.104h8.099s2.513-.868 2.513-3.105c0-2.236-.08-62.776-.08-62.776l-14.067-.238z" stroke="#21B2EE" stroke-width="2" fill="#6DD8FE"/><ellipse stroke="#21B2EE" stroke-width="2" fill="#21B2EE" cx="18.168" cy="99.716" rx="1.557" ry="1.583"/><ellipse stroke="#21B2EE" stroke-width="2" fill="#21B2EE" cx="18.168" cy="109.213" rx="1.557" ry="1.583"/><ellipse stroke="#21B2EE" stroke-width="2" fill="#21B2EE" cx="18.168" cy="117.654" rx="1.557" ry="1.583"/><use fill="#6DD8FE" xlink:href="#R"/><path stroke="#21B2EE" stroke-width="2" d="M11.382 10.497h12.534v46.539H11.382zM11.371 10.06l.132-7.686S11.267 0 14.098 0h7.601s1.883.41 1.883 2.401v7.66M17.654 6.331l-.005 3.73"/><path d="M18.168 90.011c10.033 0 18.167-8.267 18.167-18.466 0-10.198-8.134-18.466-18.167-18.466C8.134 53.08 0 61.347 0 71.545c0 10.199 8.134 18.466 18.168 18.466z" stroke="#21B2EE" stroke-width="2" fill="#CCF2FF"/><ellipse stroke="#21B2EE" stroke-width="2" fill="#21B2EE" cx="18.168" cy="127.151" rx="1.557" ry="1.583"/><ellipse stroke="#21B2EE" stroke-width="2" fill="#21B2EE" cx="18.168" cy="136.648" rx="1.557" ry="1.583"/><path d="M26.813 61.682l-6.462 7.095" stroke="#21B2EE" stroke-width="2"/><use fill="#D8D8D8" xlink:href="#S"/><path stroke="#21B2EE" stroke-width="2" d="M17.889 72.175h1.114v6.442h-1.114zM2.413 71.023h3.619M29.068 71.753h3.909M18.687 81.382v3.561M18.687 56.057v4.403"/><ellipse stroke="#21B2EE" stroke-width="2" fill="#A8E4F9" cx="18.278" cy="71.4" rx="2.595" ry="2.638"/></g><path stroke="#21B2EE" stroke-width="2" d="M210.846 89.174l34.458 22.187 34.459-22.187"/><path stroke="#21B2EE" stroke-width="2" fill="#CCF2FF" d="M220.441 58.038l-.543 36.813 25.992 16.708 23.438-15.612-.25-37.909z"/><g fill="#21B2EE"><path d="M244.97 65.823c8.903 0 16.146 7.243 16.146 16.146 0 8.904-7.243 16.147-16.147 16.147-8.903 0-16.146-7.243-16.146-16.147 0-8.903 7.243-16.146 16.146-16.146m0 34.116c4.8 0 9.313-1.869 12.707-5.263a17.852 17.852 0 0 0 5.263-12.707c0-4.8-1.869-9.312-5.263-12.706A17.85 17.85 0 0 0 244.969 64c-4.8 0-9.312 1.87-12.706 5.263A17.85 17.85 0 0 0 227 81.97c0 4.8 1.87 9.313 5.263 12.707a17.852 17.852 0 0 0 12.706 5.263"/><path d="M253.248 92.883a.909.909 0 0 0 .6-.225 14.88 14.88 0 0 0 3.099-3.774 14.886 14.886 0 0 0 1.718-4.57.911.911 0 1 0-1.788-.353 13.063 13.063 0 0 1-1.509 4.012 13.07 13.07 0 0 1-2.72 3.313.91.91 0 0 0 .6 1.597M252.648 72.654a13.052 13.052 0 0 1 2.72 3.312 13.044 13.044 0 0 1 1.509 4.012.912.912 0 1 0 1.788-.352 14.866 14.866 0 0 0-1.719-4.571 14.869 14.869 0 0 0-3.099-3.774.911.911 0 0 0-1.2 1.373M231.992 80.696a.912.912 0 0 0 1.07-.718 13.057 13.057 0 0 1 1.509-4.012 13.063 13.063 0 0 1 2.72-3.312.912.912 0 0 0-1.2-1.373 14.88 14.88 0 0 0-3.099 3.774 14.872 14.872 0 0 0-1.718 4.57.911.911 0 0 0 .718 1.07M236.092 92.658a.909.909 0 0 0 1.286-.086.912.912 0 0 0-.087-1.287 13.05 13.05 0 0 1-2.72-3.312 13.055 13.055 0 0 1-1.508-4.012.911.911 0 1 0-1.789.352 14.856 14.856 0 0 0 1.719 4.571 14.86 14.86 0 0 0 3.099 3.774M249.198 93.277c-1.358.464-2.781.7-4.228.7-1.447 0-2.87-.236-4.229-.7a.911.911 0 1 0-.59 1.725c1.55.529 3.17.797 4.819.797a14.88 14.88 0 0 0 4.817-.797.911.911 0 1 0-.589-1.725M240.741 70.662c1.359-.464 2.781-.7 4.228-.7 1.448 0 2.87.236 4.23.7a.912.912 0 0 0 .59-1.725 14.87 14.87 0 0 0-4.82-.797 14.87 14.87 0 0 0-4.817.797.911.911 0 1 0 .59 1.725"/></g><path d="M244.487 86.833c-1.423 0-4.897-6.248-4.897-7.844s4.055-2.064 4.859-1.032c.803 1.032 2.59-1.41 3.475-.705.885.705 2.9 1.417 2.9 2.492s-2.388 5.852-2.991 5.852c-.603 0-1.924 1.237-3.346 1.237z" fill="#6DD8FE"/><path d="M242.22 77.736c.828 0 1.567.464 1.93 1.209a.91.91 0 0 0 1.64 0 2.132 2.132 0 0 1 1.93-1.209c1.182 0 2.145.962 2.145 2.145 0 3.156-3.662 5.499-4.896 6.198-1.234-.7-4.894-3.042-4.894-6.198 0-1.183.962-2.145 2.145-2.145m2.35 10.197a.909.909 0 0 0 .799 0c.258-.125 6.318-3.134 6.318-8.052a3.972 3.972 0 0 0-3.967-3.967c-1.036 0-2.021.413-2.75 1.111a3.99 3.99 0 0 0-2.75-1.111 3.972 3.972 0 0 0-3.968 3.967c0 4.918 6.06 7.927 6.318 8.052" fill="#21B2EE"/><g><path d="M97 161.5v45.764M97 210v16.264" stroke="#FFF" stroke-width="2"/><path d="M101.5 162.5L97 210.264"/><path d="M97 230v7.73" stroke="#FFF" stroke-width="2"/></g></g></svg>