<svg width="314" height="343" viewBox="0 0 314 343" xmlns="http://www.w3.org/2000/svg" xmlns:xlink="http://www.w3.org/1999/xlink"><title>process-super-fast</title><defs><path id="a" d="M0 214h69v85H0z"/><path id="b" d="M8 224h51.589v53.084H8z"/><path id="c" d="M211.173 219h101v63.632h-101z"/><rect id="d" x="88" y="102" width="116.004" height="153.797" rx="8"/><path id="e" d="M88 116.031h116.004V236H88z"/><path id="f" d="M0 38.831h77.328v11.355H0z"/><path id="g" d="M24.05 41.526h6.783v28.11H24.05z"/><path id="h" d="M.926 36H72v46H.926z"/><rect id="i" x="269" y="104" width="19" height="9" rx="4.5"/><rect id="j" x="298.696" y="114.52" width="15" height="7" rx="3.5"/></defs><g transform="translate(0 -8)" fill="none" fill-rule="evenodd"><use fill="#A8E4F9" xlink:href="#a"/><path stroke="#21B2EE" stroke-width="2" d="M1 215h67v83H1z"/><use fill="#21B2EE" xlink:href="#b"/><path stroke="#21B2EE" stroke-width="2" d="M9 225h49.589v51.084H9z"/><path fill="#A8E4F9" d="M20 238h10.308v1.969H20zM24 244h10.308v1.969H24zM37 244h3.436v1.969H37zM44 244h3.436v1.969H44zM15 233h10.308v1.969H15zM28 233h4.295v1.969H28zM34 233h1.718v1.969H34zM14 253h18.04v1.969H14zM19 258h10.308v1.969H19zM24 263h10.308v1.969H24zM17 266h4.295v1.969H17zM38 263h10.308v1.969H38zM50 263h4.295v1.969H50z"/><use fill="#6DD8FE" xlink:href="#c"/><path stroke="#21B2EE" stroke-width="2" d="M212.173 220h99v61.632h-99z"/><path stroke="#1DAFEC" stroke-width="2" d="M105.896 248l-.703 26L90 293.39"/><path d="M112 249v60.77" stroke="#1DAFEC" stroke-width="2" fill="#7C7C7C"/><path d="M112.287 313.933c-1.815 0-3.287-1.552-3.287-3.467 0-1.914 1.472-3.466 3.287-3.466s3.287 1.552 3.287 3.466c0 1.915-1.472 3.467-3.287 3.467M90.287 296.933c-1.815 0-3.287-1.552-3.287-3.467 0-1.914 1.472-3.466 3.287-3.466s3.287 1.552 3.287 3.466c0 1.915-1.472 3.467-3.287 3.467" stroke="#1DAFEC" stroke-width="2" fill="#3CC8FC"/><path stroke="#1DAFEC" stroke-width="2" d="M195 110.896l26-.703L240.39 95"/><path d="M247.057 122H198" stroke="#1DAFEC" stroke-width="2" fill="#7C7C7C"/><path d="M244.5 125a3.5 3.5 0 1 1 0-7 3.5 3.5 0 0 1 0 7M240.5 97a3.5 3.5 0 1 1 0-7 3.5 3.5 0 0 1 0 7" stroke="#1DAFEC" stroke-width="2" fill="#3CC8FC"/><use fill="#6DD8FE" xlink:href="#d"/><rect stroke="#21B2EE" stroke-width="2" x="89" y="103" width="114.004" height="151.797" rx="8"/><use fill="#A8E4F9" xlink:href="#e"/><path stroke="#21B2EE" stroke-width="2" d="M89 117.031h114.004V235H89z"/><path d="M224.737 272.406l75.665-.091s.074-.761.074-1.174c0-21.617-16.98-39.141-37.924-39.141s-37.923 17.524-37.923 39.14c0 .45.108 1.266.108 1.266z" stroke="#21B2EE" stroke-width="2" fill="#CCF2FF"/><g transform="translate(224 232)"><use fill="#BBE8F8" xlink:href="#f"/><path stroke="#21B2EE" stroke-width="2" d="M1 39.831h75.328v9.355H1z"/></g><path d="M282.16 252.377c.494.844-20.429 18.835-20.429 18.835l-1.102-1.103s21.037-18.575 21.531-17.732z" stroke="#1DAFEC" stroke-width="2" fill="#47CDFD"/><path d="M227.679 263.92l4.494 2.776M291.897 267.327l3.972-2.126M232.559 253.677l2.757 1.664M292.886 253.677l-2.875 2.295M239.88 245.355l.708.755 3.072 3.202M286.705 245.355l-4.238 4.308M248.42 238.952l1.985 2.51M277.253 238.808l-2.33 2.654M262.35 234.826v5.375" stroke="#21B2EE" stroke-width="2"/><path d="M260.61 275.18c2.354 0 4.262-1.948 4.262-4.35 0-2.401-1.908-4.348-4.261-4.348s-4.261 1.947-4.261 4.349c0 2.401 1.908 4.349 4.26 4.349z" stroke="#1DAFEC" stroke-width="2" fill="#47CDFD"/><path d="M8 214.108v-33.623s0-17.326 16.38-17.326h22.517s18.172 2.092 18.172-18.739v-13.345S64.44 118 76.657 118h12.281" stroke="#21B2EE" stroke-width="2"/><circle stroke="#21B2EE" stroke-width="2" fill="#6DD8FE" cx="47" cy="188" r="15"/><path d="M271.05 220.748v-.262s1.513-17.5-12.866-17.685c-14.38-.186-18.72 0-18.72 0s-12.576 1.56-11.85-13.663c.106-2.229.117-9.88 0-11.622-.686-10.158-4.946-12.516-10.092-12.516H203M88.527 188.028H62" stroke="#21B2EE" stroke-width="2"/><path stroke="#21B2EE" stroke-width="2" fill="#A8E4F9" d="M42.278 182L42 195.765l12.361-7.043zM147.711 60.745l15.02-17.516 1.04.756-12.069 19.66z"/><path d="M157.886 49.544c1.656 1.715 4.439 1.715 6.216-.001 1.776-1.716 1.874-4.497.218-6.212-1.656-1.715-4.439-1.714-6.216.002-1.776 1.715-1.874 4.496-.218 6.211z" stroke="#21B2EE" stroke-width="2" fill="#A8E4F9"/><g transform="translate(117 34.365)"><use fill="#A8E4F9" xlink:href="#g"/><path stroke="#21B2EE" stroke-width="2" d="M25.05 42.526h4.783v26.11H25.05z"/></g><path d="M175.754 77.23c-8.66 13.74-26.697 17.624-40.288 8.675-13.59-8.948-17.588-27.34-8.929-41.08l49.217 32.405z" stroke="#21B2EE" stroke-width="2" fill="#A8E4F9"/><g stroke="#21B2EE" stroke-width="2"><path d="M161.516 30.143c5.09-1.72 11.085-.424 15.564 3.924 4.479 4.347 6.276 10.612 5.182 16.21M162.833 20.186c7.14-2.414 15.55-.594 21.834 5.505 6.283 6.098 8.804 14.887 7.269 22.74"/><path d="M160.317 11.389c10.359-3.714 22.436-1.338 31.333 7.296 8.896 8.635 12.296 21.28 9.872 32.695"/></g><path d="M127.032 61.565c0 2.181.803 14.39 10.991 19.337M132 255.264V309" stroke="#21B2EE" stroke-width="2"/><g stroke="#21B2EE" stroke-width="2"><path d="M223.918 336.142h-4.376c-.655 0-2.405-1.573-1.805-3.546.599-1.973 1.932-2.372 2.43-2.372h4.186" fill="#6DD8FE"/><path d="M220.366 329.897s6.837-26.292 7.462-26.916c.626-.624.745-5.93 8.276-4.207"/><path d="M233.564 323.8c-15.855 2.42-8.828 17.556-5.58 20.072 2.825 2.19 7.323 3.607 12.015 2.81.702-.12 1.408-.289 2.114-.512 5.422-1.715 8.032-5.997 8.832-10.048.8-4.05-1.526-14.74-17.381-12.321z" fill="#A8E4F9"/><path d="M240.446 329.072l-9.98 9.904M242.12 334.343l-11.082 11.015"/><path d="M286.695 335.424h4.377c.655 0 2.404-1.573 1.805-3.546-.6-1.973-1.932-2.372-2.43-2.372h-4.186" fill="#6DD8FE"/><path d="M289.766 329.52s-6.837-26.292-7.463-26.916c-.625-.625-.745-5.93-8.275-4.208"/><path d="M276.568 323.406c15.855 2.419 8.828 17.555 5.58 20.071-2.825 2.19-7.323 3.607-12.015 2.81a15.754 15.754 0 0 1-2.114-.511c-5.422-1.716-8.032-5.998-8.832-10.048-.8-4.05 1.526-14.74 17.381-12.322z" fill="#A8E4F9"/><path d="M248.585 328.242l-3.35 3.365M276.299 328.038l-9.98 9.904M278.209 333.684l-11.081 11.015M284.223 327.232l-3.35 3.365M250.957 335.965c1.148-2.799 7.02-3.781 8.733 0"/></g><g><path d="M132 306.221c1.695-1.03 33.417-37.221 33.417-37.221l35.667 37.221" stroke="#21B2EE" stroke-width="2" fill="#6DD8FE"/><g transform="translate(130 269)"><use fill="#6DD8FE" xlink:href="#h"/><path stroke="#21B2EE" stroke-width="2" d="M1.926 37H71v44H1.926z"/></g><path d="M131.926 349.513l3.102-1.126L166.048 328l34.962 21.88" stroke="#21B2EE" stroke-width="2"/></g><path stroke="#21B2EE" stroke-width="2" d="M132 306l34.458 22.188L200.917 306"/><path stroke="#21B2EE" stroke-width="2" fill="#CCF2FF" d="M141.543 275L141 311.813l25.991 16.708 23.439-15.612-.25-37.909z"/><g transform="translate(149 287)" stroke="#21B2EE" stroke-width="2"><ellipse fill="#A8E4F9" cx="15.942" cy="12.66" rx="12.544" ry="12.66"/><path d="M8.747 2.198s-3.065-1.659-4.612 0C2.587 3.858 8.3 8.776 16.13 11.34c7.832 2.563 15.134 3.375 16.49 1.473 1.356-1.902-3.981-3.288-4.261-3.288M4.177 8.277c-3.18-.992-4.898.84-2.297 4.12 2.6 3.28 13.173 11.377 32.396 7.485"/><path d="M32.334 23.498l2.331-3.687-3.074-2.68"/></g><circle stroke="#21B2EE" stroke-width="2" fill="#6DD8FE" cx="143" cy="245" r="5"/><path d="M20 287l29.88.041" stroke="#21B2EE" stroke-width="2"/><g transform="translate(96 125)" stroke="#21B2EE" stroke-width="2"><path d="M58.36 10.766C56.242 5.573 50.98-.024 50.98 0c0 .025-4.82 5.63-6.992 10.766-2.262 5.346-3.354 10.231-3.354 10.231l.16 45.11 20.531.17-.329-45.472s-.509-4.818-2.637-10.039z" fill="#6DD8FE"/><path d="M40.538 19.929h20.447M51.769 7.35s4.817 8.808 4.222 9.633"/><path d="M40.266 47l-6.176 4.936-.058 8.613L34 65.416h6.266V47zM61.366 47.16l6.175 4.936.058 8.614.032 4.867h-6.265V47.161z" fill="#6DD8FE"/><path d="M98.863 109.862H3.235l1.662-2.954S-.992 101.593.615 95.875c1.607-5.72 4.853-9.285 12.478-9.285 7.624 0 9.934 10.362 9.934 10.362s2.444-6.816 8.703-5.1c2.01.551 3.222 1.615 4.031 2.49 1.71 1.851 1.323 3.897 1.323 3.897.883-5.02 5.77-3.43 7.352-3.43 1.581 0 2.197-3.963 2.197-3.963V66.242l10.396.01v24.594l1.734 3.963s6.229-2.725 6.873 1.838c.644 4.563.866-3.655 6.953-4.563 6.087-.909 7.069 4.188 8.191 4.563 1.51.504.942-8.184 8.887-8.853 7.945-.668 10.62 3.806 11.703 8.853.921 4.288-3.114 9.804-3.114 9.804l.607 3.411z" fill="#CCF2FF"/><path d="M47.101 107.024s2.35-5.975 7.895-1.677M45.522 100.517s4.402-.774 4.402 3.363M90.635 103.176s-5.482-.658-7.204 6.298M21.79 102.398s1.981-2.55 1.021-6.105M39.687 102.606s-3.494-1.458-2.411-4.765M83.455 101.246s-2.79-2.725-1.66-6.135M50 67.944v27M53 95.83V68.17"/><ellipse fill="#A8E4F9" cx="51.416" cy="29.69" rx="4.147" ry="3.949"/><path d="M77.932 86.679c2.29 0 4.147-1.768 4.147-3.95 0-2.18-1.857-3.948-4.147-3.948s-4.147 1.768-4.147 3.949c0 2.18 1.856 3.949 4.147 3.949z" fill="#CCF2FF"/><ellipse fill="#BAE7F7" cx="27.474" cy="86.898" rx="2.074" ry="1.975"/><ellipse fill="#A8E4F9" cx="19.073" cy="82.436" rx="1" ry="1"/><ellipse fill="#A8E4F9" cx="66.341" cy="88.37" rx="1" ry="1"/><ellipse fill="#A8E4F9" cx="51.416" cy="42.146" rx="4.147" ry="3.949"/><path d="M61.834 102.922c3.768-.816 4.008-3.087 4.008-4.87"/></g><g transform="translate(217 226)" stroke="#21B2EE" stroke-width="2"><circle fill="#A6E1F6" cx="4.5" cy="4.5" r="4.5"/><path d="M2 8l4.767-7"/></g><g transform="translate(297 227)" stroke="#21B2EE" stroke-width="2"><circle fill="#A6E1F6" cx="4.5" cy="4.5" r="4.5"/><path d="M2 8l4.767-7"/></g><path d="M203.893 147.713l53.935.174" stroke="#21B2EE" stroke-width="2"/><circle stroke="#21B2EE" stroke-width="2" fill="#6DD8FE" cx="277.5" cy="150.5" r="31.5"/><path d="M277.5 175c13.531 0 24.5-10.969 24.5-24.5S291.031 126 277.5 126 253 136.969 253 150.5s10.969 24.5 24.5 24.5z" stroke="#21B2EE" stroke-width="2" fill="#A6E1F6"/><path d="M258.052 151.663c.366 10.487 9.164 18.692 19.651 18.325 10.487-.366 18.692-9.164 18.325-19.651-.366-10.487-9.164-18.692-19.651-18.325" stroke="#21B2EE" stroke-width="2" fill="#A6E1F6"/><g><use fill="#6DD8FE" xlink:href="#i"/><rect stroke="#21B2EE" stroke-width="2" x="270" y="105" width="17" height="7" rx="3.5"/></g><g transform="rotate(37 306.196 118.02)"><use fill="#6DD8FE" xlink:href="#j"/><rect stroke="#21B2EE" stroke-width="2" x="299.696" y="115.52" width="13" height="5" rx="2.5"/></g><path d="M278.04 112.616v6.117M298.785 126.964l6.242-6.904M284 151.441h-27.79" stroke="#21B2EE" stroke-width="2"/><path d="M277 155a4 4 0 1 0 0-8 4 4 0 0 0 0 8z" stroke="#21B2EE" stroke-width="2" fill="#A6E1F6"/><g><path d="M103 124.5v45.764M103 173v16.264" stroke="#FFF" stroke-width="2"/><path d="M107.5 125.5l-4.5 47.764"/><path d="M103 193v7.73" stroke="#FFF" stroke-width="2"/></g></g></svg>