<svg width="264" height="330" viewBox="0 0 264 330" xmlns="http://www.w3.org/2000/svg" xmlns:xlink="http://www.w3.org/1999/xlink"><title>process-multiple-solutions</title><defs><rect id="a" x="9" y="108" width="116.004" height="153.797" rx="8"/><rect id="b" x="168" y="13.983" width="69" height="91.538" rx="8"/><path id="c" d="M175.887 129h61.67v76h-61.67z"/><path id="d" d="M151 229h101v71H151z"/><path id="e" d="M143 229h116v14H143z"/><path id="f" d="M237 248h6v45h-6z"/><path id="g" d="M201 248h38v6h-38z"/><path id="h" d="M216 257h23v6h-23z"/><path id="i" d="M210 267h29v6h-29z"/><path id="j" d="M224 277h15v6h-15z"/><path id="k" d="M205 287h34v6h-34z"/><path id="l" d="M161 290h29v2h-29z"/><path id="m" d="M161 282h18v2h-18z"/><path id="n" d="M161 275h12v2h-12z"/><path d="M139.745 303.5c0-3.323 3.255-5.5 3.255-5.5h116s3.441 2.522 3.441 5.5S259 309 259 309H143s-3.255-2.177-3.255-5.5z" id="o"/><path id="p" d="M181 135h51.589v52H181z"/><path id="q" d="M9.444 122h116v112h-116z"/><path id="r" d="M15 84.724h31.429v16.808H15z"/><path id="s" d="M214 146h10.899v4.394H214z"/><path id="t" d="M189 167h10.899v4.394H189z"/><path id="u" d="M189 174h10.899v4.394H189z"/><path d="M219.421 170.56l4.095-3.56 3.373 3.88-3.549 3.086 3.503 3.045-3.28 3.773-4.034-3.506-4.156 3.613-3.373-3.88 3.61-3.14-3.563-3.097 3.28-3.774 4.094 3.56z" id="v"/><path d="M193.264 8.935c.444-4.717 4.586-8.414 9.63-8.414 5.044 0 9.186 3.697 9.63 8.414h8.448v13.462h-36.996V8.935h9.288zm9.63 4.206a3.785 3.785 0 0 0 3.784-3.786 3.785 3.785 0 1 0-3.784 3.786z" id="w"/><path id="x" d="M.926 36H72v46H.926z"/></defs><g fill="none" fill-rule="evenodd"><g transform="translate(1)"><use fill="#6DD8FE" xlink:href="#a"/><rect stroke="#21B2EE" stroke-width="2" x="10" y="109" width="114.004" height="151.797" rx="8"/></g><g transform="translate(1)"><use fill="#6DD8FE" xlink:href="#b"/><rect stroke="#21B2EE" stroke-width="2" x="169" y="14.983" width="67" height="89.538" rx="8"/></g><path d="M184.135 67.83a4.205 4.205 0 0 1-4.204-4.207 4.205 4.205 0 0 1 4.204-4.206 4.205 4.205 0 0 1 4.204 4.206 4.205 4.205 0 0 1-4.204 4.207M208.519 94.754a4.205 4.205 0 0 1-4.204-4.207 4.205 4.205 0 0 1 4.204-4.207 4.205 4.205 0 0 1 4.204 4.207 4.205 4.205 0 0 1-4.204 4.207M142.5 112.724a3.5 3.5 0 1 1 0-7 3.5 3.5 0 0 1 0 7M135.5 268a3.5 3.5 0 1 1 0-7 3.5 3.5 0 0 1 0 7M68 253a5 5 0 1 1 0-10 5 5 0 0 1 0 10M219.45 67.83a4.205 4.205 0 0 1-4.204-4.207 4.205 4.205 0 0 1 4.204-4.206 4.205 4.205 0 0 1 4.204 4.206 4.205 4.205 0 0 1-4.204 4.207" stroke="#1DAFEC" stroke-width="2" fill="#3CC8FC"/><g transform="translate(1)"><use fill="#6DD8FE" xlink:href="#c"/><path stroke="#21B2EE" stroke-width="2" d="M176.887 130h59.67v74h-59.67z"/></g><g transform="translate(1)"><use fill="#A8E4F9" xlink:href="#d"/><path stroke="#21B2EE" stroke-width="2" d="M152 230h99v69h-99z"/></g><g transform="translate(1)"><use fill="#6DD8FE" xlink:href="#e"/><path stroke="#21B2EE" stroke-width="2" d="M144 230h114v12H144z"/></g><g transform="translate(1)"><use fill="#6DD8FE" xlink:href="#f"/><path stroke="#21B2EE" stroke-width="2" d="M238 249h4v43h-4z"/></g><g transform="translate(1)"><use fill="#CCF2FF" xlink:href="#g"/><path stroke="#21B2EE" stroke-width="2" d="M202 249h36v4h-36z"/></g><g transform="translate(1)"><use fill="#CCF2FF" xlink:href="#h"/><path stroke="#21B2EE" stroke-width="2" d="M217 258h21v4h-21z"/></g><g transform="translate(1)"><use fill="#CCF2FF" xlink:href="#i"/><path stroke="#21B2EE" stroke-width="2" d="M211 268h27v4h-27z"/></g><g transform="translate(1)"><use fill="#CCF2FF" xlink:href="#j"/><path stroke="#21B2EE" stroke-width="2" d="M225 278h13v4h-13z"/></g><g transform="translate(1)"><use fill="#CCF2FF" xlink:href="#k"/><path stroke="#21B2EE" stroke-width="2" d="M206 288h32v4h-32z"/></g><g transform="translate(1)"><use fill="#21B2EE" xlink:href="#l"/><path stroke="#21B2EE" stroke-width="2" d="M162 291h27v1h-27z"/></g><g transform="translate(1)"><use fill="#21B2EE" xlink:href="#m"/><path stroke="#21B2EE" stroke-width="2" d="M162 283h16v1h-16z"/></g><text font-family="FreightSansProBold-Regular, FreightSans Pro" font-size="16" font-weight="bold" letter-spacing=".84" fill="#21B2EE" transform="translate(1)"><tspan x="163" y="261">£</tspan></text><g transform="translate(1)"><use fill="#21B2EE" xlink:href="#n"/><path stroke="#21B2EE" stroke-width="2" d="M162 276h10v1h-10z"/></g><g transform="translate(1)"><use fill="#6DD8FE" xlink:href="#o"/><path stroke="#21B2EE" stroke-width="2" d="M143.328 308h115.325a10.94 10.94 0 0 0 1.309-1.285c.934-1.089 1.48-2.196 1.48-3.215 0-1.02-.546-2.126-1.48-3.215a10.94 10.94 0 0 0-1.309-1.285H143.328a8.364 8.364 0 0 0-1.193 1.15c-.876 1.034-1.39 2.164-1.39 3.35s.514 2.316 1.39 3.35a8.364 8.364 0 0 0 1.193 1.15z"/></g><path d="M207.5 198.848a3.5 3.5 0 1 1 0-7 3.5 3.5 0 0 1 0 7" stroke="#1DAFEC" stroke-width="2" fill="#3CC8FC"/><path d="M200.5 329a3.5 3.5 0 1 1 0-7 3.5 3.5 0 0 1 0 7" stroke="#1DAFEC" stroke-width="2"/><g transform="translate(1)"><use fill="#A8E4F9" xlink:href="#p"/><path stroke="#21B2EE" stroke-width="2" d="M182 136h49.589v50H182z"/></g><g transform="translate(1)"><use fill="#A8E4F9" xlink:href="#q"/><path stroke="#21B2EE" stroke-width="2" d="M10.444 123h114v110h-114z"/></g><g stroke-width="2"><path d="M1.003 41.582c.251 18.161 15.472 24.875 19.147 28.333 3.676 3.458 2.882 16.626 2.882 16.626h19.87s-.372-13.038 2.402-16.626c2.774-3.588 19.223-13.175 19.148-28.333-.085-17.042-14.204-30.858-31.725-30.858-17.52 0-31.96 13.817-31.724 30.858z" stroke="#21B2EE" fill="#CCF2FF"/><path d="M31.159 87.898s-4.68-31.425-5.622-31.425c-.942 0-6.25-.435-6.25 1.194 0 1.63-.653 4.579 2.592 4.579h6.86l4.11-4.885" stroke="#21B2EE"/><path d="M33.987 84.507c0-.762 4.744-28.039 5.687-28.039.942 0 6.25-.4 6.25 1.104s.653 4.227-2.592 4.227h-6.86l-4.11-4.51" stroke="#21B2EE"/><path stroke="#21B2EE" fill="#21B2EE" d="M19.233 100.762l3.56 7.454h19.284l3.558-7.454z"/><path d="M25.674 19.032s-15.38.928-18.11 20.094" stroke="#FCFAEA"/></g><g transform="translate(1)"><use fill="#6DD8FE" xlink:href="#r"/><path stroke="#21B2EE" stroke-width="2" d="M16 85.724h29.429v14.808H16z"/></g><path d="M17 90.724h29.79M17 94.724h29.42M207.855 135l-.128 50.84M183 160h49.35" stroke="#21B2EE" stroke-width="2"/><path stroke="#21B2EE" stroke-width="2" fill="#6DD8FE" d="M196.653 142l-3.744.068v3.973H189v3.408h3.909v4.627h3.744v-4.627h3.715v-3.408h-3.715z"/><g transform="translate(1)"><use fill="#6DD8FE" xlink:href="#s"/><path stroke="#21B2EE" stroke-width="2" d="M215 147h8.899v2.394H215z"/></g><g transform="translate(1)"><use fill="#6DD8FE" xlink:href="#t"/><path stroke="#21B2EE" stroke-width="2" d="M190 168h8.899v2.394H190z"/></g><g transform="translate(1)"><use fill="#6DD8FE" xlink:href="#u"/><path stroke="#21B2EE" stroke-width="2" d="M190 175h8.899v2.394H190z"/></g><g transform="translate(1)"><use fill="#6DD8FE" xlink:href="#v"/><path stroke="#21B2EE" stroke-width="2" d="M215.425 168.41l-1.968 2.265 3.678 3.197-3.724 3.237 2.061 2.371 4.057-3.527 3.935 3.42 1.968-2.264-3.616-3.143 3.662-3.184-2.06-2.371-3.997 3.473-3.996-3.473z"/></g><path d="M126 158.74s23.455-1.338 23.455 19.909v13.443s-.501 19.586 18.992 19.344c7.709-.096-.037-.078 3.498-.021 5.405.086 6.793.263 6.793.263s1.666 0 3.692 1.165c3.136 1.805 7.134 4.404 7.134 16.128M125 125.286h62.81s24.67 1.876 21.626-20.562" stroke="#21B2EE" stroke-width="2"/><g transform="translate(1)"><use fill="#CCF2FF" xlink:href="#w"/><path stroke="#21B2EE" stroke-width="2" d="M184.976 9.935v11.462h34.996V9.935h-8.358l-.085-.907c-.398-4.225-4.13-7.507-8.635-7.507-4.504 0-8.236 3.282-8.634 7.507l-.085.907h-9.2zm17.918 4.206a4.785 4.785 0 0 1-4.783-4.786 4.785 4.785 0 1 1 9.567 0 4.785 4.785 0 0 1-4.784 4.786z"/></g><path d="M184.976 67.83l20.956 19.556" stroke="#1DAFEC" stroke-width="2"/><path d="M189.18 62.782l27.123.164M220 38.382v20.293M215.246 43.53l5.012-5.989 4.651 5.684" stroke="#21B2EE" stroke-width="2"/><g stroke="#21B2EE" stroke-width="2"><path d="M194.147 34.482l-7.66 7.613M186.488 34.482l7.659 7.613"/></g><g stroke="#21B2EE" stroke-width="2"><path d="M227.78 76.55l-7.659 7.613M220.121 76.55l7.659 7.613"/></g><g stroke="#21B2EE" stroke-width="2"><path d="M139.935 192.979l-6.376 6.334M133.559 192.979l6.376 6.334"/></g><g stroke="#21B2EE" stroke-width="2"><path d="M67.935 90.979l-6.376 6.334M61.559 90.979l6.376 6.334"/></g><g stroke="#21B2EE" stroke-width="2"><path d="M228.935 114.979l-6.376 6.334M222.559 114.979l6.376 6.334"/></g><g stroke="#21B2EE" stroke-width="2"><path d="M163.935 158.255l-6.376 6.334M157.559 158.255l6.376 6.334"/></g><path d="M126 142.724l51.977.186M111.376 108.94V84.534" stroke="#21B2EE" stroke-width="2"/><path d="M81 40.755c1.695-1.03 33.417-37.22 33.417-37.22l35.667 37.22" stroke="#21B2EE" stroke-width="2" fill="#6DD8FE"/><g transform="translate(79 3.534)"><use fill="#6DD8FE" xlink:href="#x"/><path stroke="#21B2EE" stroke-width="2" d="M1.926 37H71v44H1.926z"/></g><path d="M80.926 84.047l3.102-1.126 31.02-20.387 34.962 21.881M82.393 40.87l34.065 19.852 34.66-20.455" stroke="#21B2EE" stroke-width="2"/><path stroke="#21B2EE" stroke-width="2" fill="#CCF2FF" d="M90.543 8.534L90 45.347l25.991 16.708 23.439-15.612-.25-37.909z"/><g transform="translate(33.376 136.724)" stroke="#1DAFEC" stroke-width="2"><ellipse fill="#CCF2FF" cx="7.833" cy="8.363" rx="7.654" ry="7.745"/><path d="M78.115 85.618v-3.404s3.939-1.05 3.939-3.134c0-2.084-.444-25.175-.444-25.175s-.486-4.102-2.938-4.396c-2.45-.294-3.641.545-3.641 2.103 0 1.559-.289-3.834-3.258-3.834S67.95 50.18 67.95 50.18s-.906-3.007-2.896-3.007c-1.99 0-3.77 1.126-3.77 2.053v-11.1s-1.516-3.107-3.695-3.107c-2.18 0-3.51 1.819-3.51 3.106v27.5l-8.233-7.778s-2.611-1.924-4.836-.304c-2.226 1.621-3.105 3.982-.617 6.032S55.01 77.53 55.01 77.53v8.087h23.105z" fill="#CCF2FF"/><path d="M61.434 48.12v7.609M67.698 49.865v5.53M75 51v5M55.432 31.676V10.664S52.344 1.298 43.36 1.298c-8.983 0-12.071 9.366-12.071 9.366v13.287M31.503 27v5.271M31.503 36v5.271M31.503 44v5.271M31.503 52v5.271M31.19 59.712l-.097 14.258S29.146 84.323 19.89 84.323c-9.257 0-12.422-7.163-13.387-11.035-.964-3.872.008-50.12.008-50.12"/><path d="M.62 25.648l6.162-3.666 6.194 3.666"/></g><path d="M98.667 19.85l16.633.098M98.667 27.85H132M98.667 33.85H132M98.667 39.85H132M98.667 45.85H132M101 51.85h31M109 56.85h14M200.61 308.121v14.006" stroke="#21B2EE" stroke-width="2"/><path stroke="#21B2EE" stroke-width="2" fill="#A8E4F9" d="M110 291.336l18.466 3.521 12.268-7.132L128.466 281 110 284.015zM102 295.408h4.505s3.153-.666 3.153-3.038.183-9.053.183-9.053-.56-2.317-3.467-2.317H102v14.408z"/><path stroke="#21B2EE" stroke-width="2" fill="#6DD8FE" d="M53 295.358l48.74-.55.382-14.197L53.54 280z"/><path d="M124 288h16.3M60 280v15.087M66 280v15.204M72 281v14.594" stroke="#21B2EE" stroke-width="2"/><path d="M51.984 279.64c-.797-.274-2.282-.413-2.282-.413s-32.861-1.464-36.074-1.194C10.414 278.303 3 276.44 3 287.922c0 11.482 12.225 9.833 12.225 9.833l34.183-1.026s4.079.185 4.079-1.565.1-14.604.1-14.604-.805-.647-1.603-.92z" stroke="#21B2EE" stroke-width="2" fill="#6DD8FE"/><path d="M12.455 277.787s3.412-5.384 4.67-5.384 33.525.265 34.174.265c.65 0 2.575-.705 3.141-1.668" stroke="#21B2EE" stroke-width="2"/><g><path d="M21.747 135.5v45.764M21.747 184v16.264" stroke="#FFF" stroke-width="2"/><path d="M26.247 136.5l-4.5 47.764"/><path d="M21.747 204v7.73" stroke="#FFF" stroke-width="2"/></g></g></svg>