<svg width="303" height="315" viewBox="0 0 303 315" xmlns="http://www.w3.org/2000/svg" xmlns:xlink="http://www.w3.org/1999/xlink"><title>process-handcrafted-code</title><defs><rect id="a" x="87" y="47" width="116" height="153.797" rx="8"/><path id="b" d="M18.693 127.797h38.925l12.664 13.93v52.07H18.693z"/><path id="c" d="M.149 0h66.239v59H.149z"/><path id="d" d="M.149 0h66.239v13.792H.149z"/><path id="e" d="M237 43h43v49h-43z"/><path id="f" d="M245 49h27v11h-27z"/><path id="g" d="M246 64h5v5h-5z"/><path id="h" d="M256 64h5v5h-5z"/><path id="i" d="M266 64h5v5h-5z"/><path id="j" d="M246 72h5v5h-5z"/><path id="k" d="M256 72h5v5h-5z"/><path id="l" d="M266 72h5v5h-5z"/><path id="m" d="M246 80h5v5h-5z"/><path id="n" d="M256 80h5v5h-5z"/><path id="o" d="M266 80h5v5h-5z"/><path id="p" d="M87 60h116v120H87z"/><path id="q" d="M.926 36H72v46H.926z"/><rect id="r" x="25" y="29" width="52" height="85" rx="8"/><path id="s" d="M25 40h52v61.67H25z"/><path d="M0 0h85.744v15.386H0V0zm77.746 9.826c1.358 0 2.459-1.051 2.459-2.348 0-1.298-1.101-2.35-2.459-2.35s-2.458 1.052-2.458 2.35c0 1.297 1.1 2.348 2.458 2.348z" id="t"/><path d="M4.531 27.71h5.606V54.9s-.855 1.471-2.803 1.471S4.531 54.9 4.531 54.9V27.71z" id="u"/><path d="M3.398 0h7.93v38.455s-1.21 2.082-3.965 2.082c-2.756 0-3.965-2.082-3.965-2.082V0z" id="v"/><path id="w" d="M1.133 28.841h3.398v5.655H1.133z"/><path d="M4.531 27.71h5.606V54.9s-.855 1.471-2.803 1.471S4.531 54.9 4.531 54.9V27.71z" id="x"/><path d="M3.398 0h7.93v38.455s-1.21 2.082-3.965 2.082c-2.756 0-3.965-2.082-3.965-2.082V0z" id="y"/><path id="z" d="M1.133 28.841h3.398v5.655H1.133z"/><path d="M30.018 1.116S30.713 0 32 0s1.982 1.116 1.982 1.116v12.441h-3.964V1.116z" id="A"/><path id="B" d="M29 147h36v36H29z"/><path id="C" d="M0 153h54v22H0z"/></defs><g transform="translate(0 1)" fill="none" fill-rule="evenodd"><use fill="#6DD8FE" xlink:href="#a"/><rect stroke="#21B2EE" stroke-width="2" x="88" y="48" width="114" height="151.797" rx="8"/><use fill="#A8E4F9" xlink:href="#b"/><path stroke="#21B2EE" stroke-width="2" d="M19.693 128.797v64h49.59v-50.683l-12.107-13.317H19.693zM110.646 199.52l-.519 13.68s0 11.116 12.248 11.116h28.943s9.88 0 9.88 9.948v33.934"/><g transform="translate(236 154)"><use fill="#21B2EE" xlink:href="#c"/><path stroke="#21B2EE" stroke-width="2" d="M1.149 1h64.239v57H1.149z"/></g><g transform="translate(236 154)"><use fill="#6DD8FE" xlink:href="#d"/><path stroke="#21B2EE" stroke-width="2" d="M1.149 1h64.239v11.792H1.149z"/></g><path d="M286.407 158.597l-.008 4.967M291.737 158.597l-.008 4.967M296.305 158.597l-.008 4.967" stroke="#21B2EE" stroke-width="2"/><path fill="#CCF2FF" d="M250.615 179.286h11.886v1.836h-11.886zM255.945 183.117h11.886v1.836h-11.886zM270.41 183.117h3.962v1.836h-3.962zM277.263 183.117h3.962v1.836h-3.962zM245.285 174.688h11.886v1.836h-11.886zM259.751 174.688h4.953v1.836h-4.953zM268.126 174.688h1.981v1.836h-1.981zM243.763 192.312h20.801v1.836h-20.801zM249.092 196.909h11.886v1.836h-11.886zM255.945 200.74h11.886v1.836h-11.886zM247.57 204.571h4.953v1.836h-4.953zM270.41 200.74h11.886v1.836H270.41zM285.638 200.74h4.953v1.836h-4.953z"/><circle stroke="#21B2EE" stroke-width="2" fill="#CCF2FF" cx="144.5" cy="16.5" r="16.5"/><path stroke="#21B2EE" stroke-width="2" d="M139.824 22L135 17l5-5M149.176 22L154 17l-5-5M142 26l5-18M56.944 129.228l.041 13.241h12.69M69.186 168.754H87M236.986 202.837h-8.156s-5.544 0-5.544-8.967v-30.265s0-7.815-5.958-8.728c-5.958-.912-14.27-.635-14.27-.635M241.008 57H229.87s-7.641 0-7.641 8.967V96.23s0 7.816-5.958 8.728c-5.958.913-14.27.636-14.27.636"/><use fill="#6DD8FE" xlink:href="#e"/><path stroke="#21B2EE" stroke-width="2" d="M238 44h41v47h-41z"/><use fill="#A8E4F9" xlink:href="#f"/><path stroke="#21B2EE" stroke-width="2" d="M246 50h25v9h-25z"/><use fill="#6DD8FE" xlink:href="#g"/><path stroke="#21B2EE" stroke-width="2" d="M247 65h3v3h-3z"/><use fill="#6DD8FE" xlink:href="#h"/><path stroke="#21B2EE" stroke-width="2" d="M257 65h3v3h-3z"/><use fill="#6DD8FE" xlink:href="#i"/><path stroke="#21B2EE" stroke-width="2" d="M267 65h3v3h-3z"/><use fill="#6DD8FE" xlink:href="#j"/><path stroke="#21B2EE" stroke-width="2" d="M247 73h3v3h-3z"/><use fill="#6DD8FE" xlink:href="#k"/><path stroke="#21B2EE" stroke-width="2" d="M257 73h3v3h-3z"/><use fill="#6DD8FE" xlink:href="#l"/><path stroke="#21B2EE" stroke-width="2" d="M267 73h3v3h-3z"/><use fill="#6DD8FE" xlink:href="#m"/><path stroke="#21B2EE" stroke-width="2" d="M247 81h3v3h-3z"/><g><use fill="#6DD8FE" xlink:href="#n"/><path stroke="#21B2EE" stroke-width="2" d="M257 81h3v3h-3z"/></g><g><use fill="#6DD8FE" xlink:href="#o"/><path stroke="#21B2EE" stroke-width="2" d="M267 81h3v3h-3z"/></g><g><use fill="#A8E4F9" xlink:href="#p"/><path stroke="#21B2EE" stroke-width="2" d="M88 61h114v118H88z"/></g><circle stroke="#21B2EE" stroke-width="2" fill="#A8E4F9" cx="142.5" cy="189.5" r="4.5"/><g><path d="M91.637 268.733C93.332 267.71 125.614 232 125.614 232l35.667 37" stroke="#21B2EE" stroke-width="2" fill="#6DD8FE"/><g transform="translate(90.197 232)"><use fill="#6DD8FE" xlink:href="#q"/><path stroke="#21B2EE" stroke-width="2" d="M1.926 37H71v44H1.926z"/></g><path d="M92.123 312.513l3.103-1.126L126.246 291l34.961 21.88" stroke="#21B2EE" stroke-width="2"/></g><path stroke="#21B2EE" stroke-width="2" d="M92.732 268.946l33.924 20.241 34.59-20.24"/><path stroke="#21B2EE" stroke-width="2" fill="#A6E1F6" d="M101.74 237l-.543 36.813 25.991 16.708 23.189-15.089V237z"/><path d="M124.4 269.034c-2.894-1.233-4.237-4.521-2.998-7.5 1.24-2.877 4.547-4.213 7.544-2.98 2.996 1.233 4.236 4.521 2.996 7.5-1.24 2.877-4.65 4.213-7.543 2.98zm14.258 2.774l2.376-5.65-3.1-1.336c.104-1.028 0-2.364-.206-3.596l2.996-1.233-2.17-4.623-2.893 1.54c-.62-.821-2.273-1.951-2.17-2.157l1.447-3.39-5.683-2.363-1.446 3.39c-.103.206-1.86-.102-2.893 0l-1.034-3.184-4.856 1.849 1.343 2.774a13.94 13.94 0 0 0-2.893 2.466l-3.1-1.336-2.376 5.65 2.997 1.233c.31.103-.207 2.774.103 4.11l-2.997 1.335 2.17 4.726 2.893-1.438c.62.821 2.274 1.952 2.17 2.157l-1.136 2.671 5.682 2.363 1.137-2.67c1.033.204 2.066.102 3.203 0l1.033 3.081 4.857-1.85-1.24-3.081c1.136-.72 2.583-2.877 2.79-2.774l2.996 1.336z" stroke="#21B2EE" stroke-width="2" fill="#CCF2FF"/><g><use fill="#6DD8FE" xlink:href="#r"/><rect stroke="#21B2EE" stroke-width="2" x="26" y="30" width="50" height="83" rx="8"/></g><g><use fill="#A8E4F9" xlink:href="#s"/><path stroke="#21B2EE" stroke-width="2" d="M26 41h50v59.67H26z"/></g><g transform="translate(73 211)" stroke="#21B2EE" stroke-width="2"><ellipse cx="11.5" cy="10.607" rx="6.741" ry="6.679"/><path d="M11.732 17.437v3.993M0 11h4.759M18.241 11H23M16.655 7.071l3.966-3.142M6.345 6.286L3.172 3.929M11.732.151v3.993M16.655 14.929l3.173 3.142M1.983 18.071l3.965-3.142"/></g><g transform="translate(175 16)" stroke="#21B2EE" stroke-width="2"><ellipse cx="11.5" cy="10.607" rx="6.741" ry="6.679"/><path d="M11.732 17.437v3.993M0 11h4.759M18.241 11H23M16.655 7.071l3.966-3.142M6.345 6.286L3.172 3.929M11.732.151v3.993M16.655 14.929l3.173 3.142M1.983 18.071l3.965-3.142"/></g><path d="M46 106h10.759M76.113 87.025h12.075M144.414 32.477l.193 16.046" stroke="#21B2EE" stroke-width="2"/><g><g transform="matrix(1 0 0 -1 101 171)"><use fill="#CCF2FF" xlink:href="#t"/><path stroke="#21B2EE" stroke-width="2" d="M1 1v13.386h83.744V1H1zm76.746 9.826c-1.9 0-3.458-1.488-3.458-3.348 0-1.86 1.558-3.35 3.458-3.35 1.9 0 3.459 1.49 3.459 3.35s-1.559 3.348-3.459 3.348z"/></g><path d="M115.923 162.579v-5.8M123.163 165.105l-.039-8.787M129.413 162.579v-5.831M136.653 165.105l-.039-8.787M142.904 162.579v-5.831M150.143 165.105l-.039-8.787M156.394 162.579v-5.831M162.79 165.105l-.038-8.787M169.884 162.579v-5.831" stroke="#21B2EE" stroke-width="2"/></g><circle stroke="#21B2EE" stroke-width="2" fill="#CCF2FF" cx="51.5" cy="71.5" r="19.5"/><path d="M47.81 73.234c.395 0 .732.204 1.012.596.282.384.429.868.429 1.441 0 .565-.147 1.05-.43 1.441-.279.383-.628.585-1.011.585-.418 0-.778-.19-1.07-.585-.282-.392-.429-.876-.429-1.44 0-.574.147-1.058.43-1.442.29-.392.651-.596 1.069-.596m3.614 6.317c2.487 0 4.366-.294 5.651-.902C58.346 78.052 59 76.813 59 74.957c0-1.08-.406-1.994-1.227-2.715a2.731 2.731 0 0 0-1.464-.72c-.55-.09-1.407-.09-2.545 0-1.147.092-1.925.135-2.34.135-.574 0-1.193-.031-1.971-.089a98.391 98.391 0 0 0-1.802-.112 5.887 5.887 0 0 0-1.417.158c-.52.124-.934.326-1.271.628-.778.69-1.173 1.588-1.173 2.704 0 1.867.63 3.106 1.893 3.703 1.26.608 3.139.902 5.64.902m8.747-11.585c1.112 1.204 1.677 2.657 1.677 4.369 0 1.112-.135 2.115-.383 3.005-.26.877-.585 1.609-.969 2.162a6.251 6.251 0 0 1-1.452 1.464c-.574.426-1.104.729-1.577.922a7.216 7.216 0 0 1-1.654.45c-.608.112-1.069.17-1.395.19-.305.011-.642.011-1.014.011-.078 0-.36.012-.81.023-.438.023-.821.035-1.127.035-.29 0-.674-.012-1.124-.035-.452-.011-.72-.023-.812-.023-.36 0-.71 0-1.012-.011-.328-.02-.79-.078-1.398-.19a7.257 7.257 0 0 1-1.654-.45c-.473-.193-1-.496-1.576-.922a6.424 6.424 0 0 1-1.441-1.464c-.392-.553-.72-1.285-.969-2.162-.256-.89-.38-1.893-.38-3.005 0-1.712.55-3.165 1.666-4.37-.124-.066-.124-.662-.023-1.812.1-1.136.348-2.196.743-3.153 1.384.147 3.095.937 5.133 2.343.697-.182 1.643-.27 2.847-.27 1.263 0 2.208.088 2.85.27a18.66 18.66 0 0 1 2.666-1.53c.868-.395 1.487-.62 1.882-.678L59.35 63c.392.957.64 2.017.744 3.153.112 1.15.1 1.746-.023 1.813m-5.09 5.268c.395 0 .72.204 1.015.596.28.384.426.868.426 1.441 0 .565-.135 1.05-.426 1.441-.294.383-.62.585-1.015.585-.415 0-.775-.19-1.069-.585-.282-.392-.427-.876-.427-1.44 0-.574.145-1.058.427-1.442.294-.392.654-.596 1.07-.596" fill="#21B2EE"/><path d="M200.515 244.649c.695 4.326 7.522 9.851 15.126 9.851 7.604 0 13.72-4.063 14.54-9.851.819-5.788.819-20.723.819-20.723s-1.49-14.472-14.305-14.472c-12.86 0-15.895 12.674-16.18 12.886-.285.212-.695 17.983 0 22.309zM200.867 229.22h30.017M215.6 210.5V230" stroke="#21B2EE" stroke-width="2" fill="#6DD8FE"/><path d="M215.52 254.428v9.79s.098.914 0 1.384c-1.309 6.233-5.774 5.189-8.859 5.297-3.085-.108-17.933 0-17.933 0s-7.745 0-7.745-9.261v-61.73" stroke="#21B2EE" stroke-width="2"/><circle stroke="#21B2EE" stroke-width="2" fill="#A8E4F9" cx="142.5" cy="112" r="37.5"/><g transform="translate(112 66.5)"><g transform="rotate(22 -43.821 69.639)"><path stroke="#21B2EE" stroke-width="2" fill="#6DD8FE" d="M5.985 55.796L7.34 60.43l1.356-5.615z"/><use fill="#6DD8FE" xlink:href="#u"/><path stroke="#21B2EE" stroke-width="2" d="M5.531 28.71v25.865c.074.083.173.18.298.281.402.324.893.515 1.505.515.612 0 1.103-.191 1.505-.515.125-.1.225-.198.298-.281V28.71H5.531z"/><use fill="#6DD8FE" xlink:href="#v"/><path stroke="#21B2EE" stroke-width="2" d="M4.398 1v37.147a3.7 3.7 0 0 0 .576.57c.639.514 1.424.82 2.389.82.965 0 1.75-.306 2.389-.82a3.7 3.7 0 0 0 .575-.57V1H4.398z"/><ellipse stroke="#21B2EE" stroke-width="2" fill="#6DD8FE" cx="1.133" cy="31.669" rx="1.133" ry="1.131"/><g><use fill="#6DD8FE" xlink:href="#w"/><path stroke="#21B2EE" stroke-width="2" d="M2.133 29.841h1.398v3.655H2.133z"/></g></g><g transform="scale(-1 1) rotate(22 -75.821 -94.987)"><path stroke="#21B2EE" stroke-width="2" fill="#6DD8FE" d="M5.985 55.796L7.34 60.43l1.356-5.615z"/><use fill="#6DD8FE" xlink:href="#x"/><path stroke="#21B2EE" stroke-width="2" d="M5.531 28.71v25.865c.074.083.173.18.298.281.402.324.893.515 1.505.515.612 0 1.103-.191 1.505-.515.125-.1.225-.198.298-.281V28.71H5.531z"/><use fill="#6DD8FE" xlink:href="#y"/><path stroke="#21B2EE" stroke-width="2" d="M4.398 1v37.147a3.7 3.7 0 0 0 .576.57c.639.514 1.424.82 2.389.82.965 0 1.75-.306 2.389-.82a3.7 3.7 0 0 0 .575-.57V1H4.398z"/><ellipse stroke="#21B2EE" stroke-width="2" fill="#6DD8FE" cx="1.133" cy="31.669" rx="1.133" ry="1.131"/><g><use fill="#6DD8FE" xlink:href="#z"/><path stroke="#21B2EE" stroke-width="2" d="M2.133 29.841h1.398v3.655H2.133z"/></g></g><use fill="#6DD8FE" xlink:href="#A"/><path stroke="#21B2EE" stroke-width="2" d="M31.018 1.463v11.094h1.964V1.463a2.006 2.006 0 0 0-.148-.137C32.583 1.117 32.307 1 32 1c-.307 0-.583.117-.834.326a2.006 2.006 0 0 0-.148.137z"/><ellipse stroke="#21B2EE" stroke-width="2" fill="#6DD8FE" cx="32.283" cy="18.662" rx="7.929" ry="7.917"/><path d="M32 22.62a4.245 4.245 0 0 0 4.248-4.24A4.245 4.245 0 0 0 32 14.137a4.245 4.245 0 0 0-4.248 4.241A4.245 4.245 0 0 0 32 22.621z" stroke="#21B2EE" stroke-width="2" fill="#CCF2FF"/></g><g><use fill="#CCF2FF" xlink:href="#B"/><path stroke="#21B2EE" stroke-width="2" d="M30 148h34v34H30z"/></g><g><use fill="#6DD8FE" xlink:href="#C"/><path stroke="#21B2EE" stroke-width="2" d="M1 154h52v20H1z"/></g><text font-family="LucidaGrande-Bold, Lucida Grande" font-size="13" font-weight="bold" letter-spacing=".682" fill="#21B2EE"><tspan x="6" y="169">HTML</tspan></text><g><path d="M97 71.5v45.764M97 120v16.264" stroke="#FFF" stroke-width="2"/><path d="M101.5 72.5L97 120.264"/><path d="M97 140v7.73" stroke="#FFF" stroke-width="2"/></g></g></svg>