<svg xmlns="http://www.w3.org/2000/svg" viewBox="0 0 263.6 209.1">
<path fill="#E0E1E1" d="M29.7 67.3c-3.4 0-6 2.8-6 6.2v149.7c0 3.4 2.6 5.1 6 5.1h101v-161H29.7z"/><rect x="31.7" y="83.3" fill="#FFFFFF" width="99" height="9"/><circle fill="#FFFFFF" cx="35.1" cy="76.2" r="2.4"/><circle fill="#FFFFFF" cx="43.6" cy="76.2" r="2.4"/><circle fill="#FFFFFF" cx="52" cy="76.2" r="2.4"/><path fill="#FFFFFF" d="M232.7 67.3h-102v16.4v9.2v4.3h101v119.7c0 3-3.5 4.3-6.7 4.3h-94.3v7h102c3.4 0 7-1.7 7-5.1V73.5 C239.7 70.1 236.2 67.3 232.7 67.3z"/><path fill="#FFFFFF" d="M130.7 145.2v-4.1V137V135v-4.1v-2.1v-4.1v-2.1v-4.1V97.3h-99v119.7c0 3 3 4.3 6.2 4.3h92.8v-35V145.2z"/><path fill="#E0E1E1" d="M231.7 216.9V97.3h-101v21.3v4.1v2.1v4.1v2.1v4.1v2.1v4.1v4.1v41v35H225 C228.2 221.3 231.7 219.9 231.7 216.9z"/><text transform="matrix(1 0 0 1 159.0228 147.7295)" fill="#FFFFFF" font-family="'FreightSansBold'" font-size="54.0034">&lt; &gt;</text><text transform="matrix(1 0 0 1 143.5785 193.1475)" fill="#FFFFFF" font-family="'FreightSansBold'" font-size="54.0034">&lt;/ &gt;</text><rect x="37.7" y="117.3" fill="#BDBDBD" width="52" height="93"/><rect x="37.7" y="104.3" fill="#BDBDBD" width="85" height="10"/><rect x="94.7" y="117.3" fill="#BDBDBD" width="36" height="5"/><rect x="94.7" y="124.3" fill="#BDBDBD" width="36" height="4"/><rect x="94.7" y="130.3" fill="#BDBDBD" width="36" height="4"/><rect x="94.7" y="136.3" fill="#BDBDBD" width="36" height="5"/><rect x="94.7" y="145.3" fill="#BDBDBD" width="36" height="40"/></svg>
