<svg xmlns="http://www.w3.org/2000/svg" viewBox="0 0 263.6 209.1">
<path fill="#E0E1E1" d="M208.4 167c-0.5-7.6-3.1-39.7-3.2-52c-3.8 1.8-8.1 2.4-12.5 2.4c-4.6-0.1-9-1.8-12.8-2.8l0 1.5 c0 10.1-2.7 44-3.2 51.6c-0.5 7.6 0 9.1 0 9.1s0.1 0 0.2 0.2l31.2-0.1c0.1-0.1 0.2-0.4 0.2-0.4S208.8 174.7 208.4 167z"/><path fill="#BDBDBD" d="M182.1 75.7c7.4-10.4 10.8-14.4 14.6-16.6c3.7-2.2 13.2-1.3 23 8.8c-8.1-26.4-31.4-48.1-31.4-48.1 s-1.4-1.4-0.7 1.3c0.4 1.7 2.4 19.3-5.2 29.7c-6.8 9.4-15.8 17.7-18.2 29.4C166 81 175.5 84.9 182.1 75.7z"/><path fill="#E0E1E1" d="M196.7 59c-3.8 2.2-7.1 6.2-14.6 16.6c-6.7 9.3-15.8 5.4-17.6 4.5c-0.2 1.2-0.2 2.5-0.2 3.7v0 c0 0.6-0.3 1.2-0.3 1.9c0 0.5-0.2 1.1-0.1 1.6c0 0.5-0.1 1-0.1 1.6c0 16.1 13 28.9 29.1 28.9c14.4 0 26.3-9.4 28.7-24.4h0 c1.7-7 0.7-17.4-1.9-25.8C209.9 57.4 200.4 56.8 196.7 59z"/><path fill="#E0E1E1" d="M164 137.1c0 0-12.4-32.9-21.6-55.9h-25.3l-19.8 55.6l-0.3 15.4h67.2L164 137.1z"/><path fill="#BDBDBD" d="M133.3 58.6c-4-8.7-7.4 0.1-7.4 0.1l-8.8 23.4l25.4 0C138.2 70 134.5 61.4 133.3 58.6z"/><polygon fill="none" points="72.1,72.2 71.3,71.8 71.3,64.3 67.3,64.3 67.3,71.8 65.7,72.2 65,92.3 72,92.3"/><path fill="#E0E1E1" d="M78.8 59.5c-0.5-10.2-2.7-37.5-3-40.3c-0.1-0.7-0.5-1.1-0.7-1.4L51.3 76.9v33.2c0 0 3.7 2.9 4.1 3.5 c0.5 0.7 1.1 4.1 1.9 9.8c0.8 5.6 0.3 12.9 0.2 17.4c-0.1 4.5-1.1 9.4-2.5 14.3c-1.4 4.8 2.1 8.1 2.1 8.1l20.5-12.1 c0 0 1.9-30.6 1.9-38.9C79.5 103.9 79.2 69.7 78.8 59.5z M73.8 95.5l-0.5 28.1v1.6c0 0.1 0 0.2 0 0.3v0.7c0 2.4-2 3.9-4.9 3.9 c-3 0-5.1-2.3-5.1-4.8V117l0.3-21.4l1.3-2.5l0.8-20.4l1.6-0.8v-7.6h4v7.6l0.8 0.7l0 20.4L73.8 95.5z"/><path fill="#BDBDBD" d="M85.8 220.3l-2.5-74.6c0-0.1 0-0.2 0-0.2c0-2.4-2.3-3.9-4.3-2.5l-27.8 18.7c-1.1 0.7-1.7 2.8-1.7 4.2 l-0.4 54.5H85.8z"/><path fill="#BDBDBD" d="M166.3 220.3V139c0 0-1.9-10.8-10.1-11.8c-5-0.6-12.1 2.6-14.2 10.6c-1.4-5.3-4.5-10.7-11-10.7 c-6.8 0-10 5.9-11.5 11.4c-1.9-8.6-8.8-12-13.9-11.3c-8.2 1.1-9.3 11.8-9.3 11.8v81.3H166.3z"/><path fill="#BDBDBD" d="M175.8 220.3h33.3l-0.5-43.3c0 0 0.1-1.7-1.1-1.7h-29.8c-1.2 0-1.1 1.7-1.1 1.7L175.8 220.3z"/></svg>
