<svg xmlns="http://www.w3.org/2000/svg" viewBox="0 0 263.6 209.1">
<path fill="#E0E1E1" d="M240.1 292.9c0 4.6-3.7 8.3-8.3 8.3H32.4c-4.6 0-8.3-3.7-8.3-8.3V21.6c0-4.6 3.7-8.3 8.3-8.3h199.3 c4.6 0 8.3 3.7 8.3 8.3V292.9z"/><rect x="37.1" y="26.3" fill="#FFFFFF" width="190" height="261"/><rect x="106.1" y="47.3" fill="#FFFFFF" width="52" height="49"/><rect x="172.1" y="120.3" fill="#E0E1E1" width="32" height="12"/><rect x="63.1" y="120.3" fill="#1DADEE" width="109" height="12"/><circle fill="#E0E1E1" cx="189.6" cy="166.2" r="14.2"/><circle fill="#E0E1E1" cx="189.6" cy="209.4" r="14.2"/><rect x="63.1" y="198.3" width="93" height="8"/><rect x="63.1" y="208.3" width="85" height="9"/><rect x="63.1" y="156.3" width="93" height="8"/><rect x="63.1" y="166.3" width="85" height="9"/><path d="M189.6 174.6c-0.7 0-1.3-0.3-1.7-0.9l-5.8-8.7c0 0 0-0.1 0-0.1l3.3-2.2c0 0 0.1 0 0.1 0l3.8 5.7c0 0 0.1 0 0.1 0l10.1-18.9 c0 0 0.1 0 0.1 0l3.5 1.9c0 0 0 0.1 0 0.1l-11.7 22C191.1 174.2 190.4 174.6 189.6 174.6C189.6 174.6 189.6 174.6 189.6 174.6z"/><path d="M189.6 217.9c-0.7 0-1.3-0.3-1.7-0.9l-5.8-8.7c0 0 0-0.1 0-0.1l3.3-2.2c0 0 0.1 0 0.1 0l3.8 5.7c0 0 0.1 0 0.1 0l10.1-18.9 c0 0 0.1 0 0.1 0l3.5 1.9c0 0 0 0.1 0 0.1l-11.7 22C191.1 217.5 190.4 217.9 189.6 217.9C189.6 217.9 189.6 217.9 189.6 217.9z"/><rect x="119.4" y="105.3" width="22.5" height="5.3"/><path d="M101.3 41.5V100h58.5V41.5H101.3z M154.5 94.7h-47.8V46.8h47.8V94.7z"/><path fill="#1DADEE" d="M123.8 64h-8.2v-8.2h8.2V64z M123.8 83h-8.2v-8.2h8.2V83z"/><path fill="#1DADEE" d="M145.5 64h-8.2v-8.2h8.2V64z M145.5 83l-6.8 4.9l-1.4-2.2l2.2-2.1l-2.2-0.6v-8.2h8.2V83z"/></svg>
