<svg xmlns="http://www.w3.org/2000/svg" viewBox="0 0 263.6 209.1">
<path fill="none" d="M71.5 172.9c0 0 0.1 0.1 0.1 0.1c26 26 68.1 26.2 94.2 0.1s26-68.2-0.1-94.2c-26-26-68.3-26-94.4 0 c-0.1 0.1-0.1 0.1-0.2 0.2c0 0 0 0 0 0l47 47L71.5 172.9z"/><path fill="#1DADEE" d="M165.7 173.1c-26 26-68 26-94.1-0.1c0 0-0.1-0.1-0.1-0.1l-26.4 26.4l0 0c40.4 40.4 106.1 40.5 146.5 0.1 s40.6-105.9 0.1-146.3c0 0-0.2-0.2-0.2-0.2l-26 26C191.5 104.9 191.7 147.1 165.7 173.1z"/><path fill="#E0E1E1" d="M185.6 194.2c0 1.7-1.4 3.1-3.1 3.1H81.7c-1.7 0-3.1-1.4-3.1-3.1v-73.8c0-1.7 1.4-3.1 3.1-3.1h100.8 c1.7 0 3.1 1.4 3.1 3.1V194.2z"/><rect x="83.6" y="122.3" fill="#FFFFFF" width="97" height="70"/><polygon fill="#1B2025" points="108,161.6 114.3,166.9 116.8,169 125,175.9 148.1,153.7 150.6,151.4 152.9,149.2 155.4,146.7 157.7,144.5 160.2,146.7 163.1,149.2 179.1,163.1 179.1,156.8 170.2,149.2 167.4,146.7 157.5,138.2 150.6,144.9 146.1,149.2 125.1,169.4 116.8,162.7 114.3,160.7 107.6,155.2 85.5,173.9 85.5,180.9"/><path fill="#E0E1E1" d="M165.5 78.9C165.5 78.9 165.5 78.9 165.5 78.9C165.5 78.9 165.5 78.9 165.5 78.9L165.5 78.9z"/><path fill="#E0E1E1" d="M117.6 22.8v36.6c17-0.3 34.7 6.2 48 19.4l25.9-25.8C171.1 32.7 143.6 22.6 117.6 22.8z"/><path fill="#FFFFFF" d="M59.4 51.6c0 0 4.4-1.9 4.8-1.9s55.8 0.9 55.8 0.9l13.3 14.9l-1.7 77l-72.2 0.5l-1.5-3.3l0.3-86.7L59.4 51.6 z"/><rect x="74.6" y="82.3" width="12" height="13"/><rect x="104.6" y="107.3" width="13" height="14"/><rect x="74.6" y="71.3" width="43" height="4"/><rect x="92.6" y="82.3" width="25" height="4"/><rect x="92.6" y="91.3" width="25" height="4"/><rect x="74.6" y="107.3" width="26" height="3"/><rect x="74.6" y="117.3" width="26" height="4"/><path fill="#E0E1E1" d="M119.4 47.7H59.5c-2 0-3.6 1.6-3.6 3.6v90.9c0 2 1.6 3.6 3.6 3.6h72.2c2 0 3.6-1.6 3.6-3.6V62.8 c0-1-0.4-1.9-1.1-2.6l-12.3-11.5C121.2 48.1 120.3 47.7 119.4 47.7z M127.6 141.5H64c-2 0-3.6-1.6-3.6-3.6l0-82.4 c0-2 1.6-3.6 3.6-3.6h49.9c2 0 3.6 1.6 3.6 3.6v7.4c0 2 1.6 3.6 3.6 3.6h6.7c2 0 3.6 1.6 3.6 3.6l0 67.9 C131.2 139.9 129.6 141.5 127.6 141.5z"/></svg>
