<svg xmlns="http://www.w3.org/2000/svg" viewBox="0 0 263.6 209.1">
<rect x="23.2" y="67.3" fill="#E0E1E1" width="216" height="168"/><rect x="33.2" y="76.3" fill="#FFFFFF" width="196" height="151"/><line fill="none" stroke="#E0E1E1" stroke-width="7" stroke-linecap="round" stroke-miterlimit="10" x1="31.2" y1="120.8" x2="39.2" y2="120.8"/><line fill="none" stroke="#E0E1E1" stroke-width="7" stroke-linecap="round" stroke-miterlimit="10" stroke-dasharray="17,17" x1="56.2" y1="120.8" x2="215.2" y2="120.8"/><line fill="none" stroke="#E0E1E1" stroke-width="7" stroke-linecap="round" stroke-miterlimit="10" x1="223.2" y1="120.8" x2="231.2" y2="120.8"/><line fill="none" stroke="#E0E1E1" stroke-width="7" stroke-linecap="round" stroke-miterlimit="10" x1="31.2" y1="179.8" x2="39.2" y2="179.8"/><line fill="none" stroke="#E0E1E1" stroke-width="7" stroke-linecap="round" stroke-miterlimit="10" stroke-dasharray="17,17" x1="56.2" y1="179.8" x2="215.2" y2="179.8"/><line fill="none" stroke="#E0E1E1" stroke-width="7" stroke-linecap="round" stroke-miterlimit="10" x1="223.2" y1="179.8" x2="231.2" y2="179.8"/><line fill="none" stroke="#E0E1E1" stroke-width="6" stroke-linecap="round" stroke-miterlimit="10" x1="85.2" y1="70.3" x2="85.2" y2="77.3"/><line fill="none" stroke="#E0E1E1" stroke-width="6" stroke-linecap="round" stroke-miterlimit="10" stroke-dasharray="13,13" x1="85.2" y1="91.3" x2="85.2" y2="217.3"/><line fill="none" stroke="#E0E1E1" stroke-width="6" stroke-linecap="round" stroke-miterlimit="10" x1="177.2" y1="70.3" x2="177.2" y2="77.3"/><line fill="none" stroke="#E0E1E1" stroke-width="6" stroke-linecap="round" stroke-miterlimit="10" stroke-dasharray="13,13" x1="177.2" y1="91.3" x2="177.2" y2="217.3"/><path fill="#1B2025" d="M166.7 158.1c-0.3-0.1-0.7-0.3-0.9-0.5c-1.2-1-1.4-2.7-0.4-3.8c0.4-0.5 1.7-2.2 4.8-7 c0.8-1.3 2.5-1.6 3.8-0.8c1.3 0.8 1.6 2.5 0.8 3.8c-2.5 3.8-4.2 6.3-5.1 7.5C168.9 158.1 167.7 158.4 166.7 158.1z M176.4 143.5 c-0.2-0.1-0.5-0.2-0.7-0.3c-1.3-0.8-1.7-2.5-0.9-3.8c2.2-3.4 3.4-5.2 3.6-5.7c0.6-1.2 1.8-1.5 3.1-1.1c0 0 0 0 0 0 c1.4 0.4 2.4 1.6 1.9 3.1c-0.1 0.4-0.1 0.5-4.1 6.8C178.8 143.6 177.5 143.8 176.4 143.5z"/><rect x="163.9" y="111.9" transform="matrix(0.6797 0.7335 -0.7335 0.6797 142.4008 -96.8097)" fill="#1DADEE" width="36.4" height="5.4"/><rect x="177.9" y="99.2" transform="matrix(0.8328 0.5535 -0.5535 0.8328 95.5231 -80.2526)" fill="#1DADEE" width="5.4" height="37.5"/><path fill="#1B2025" d="M132.9 115.3c3.7-28.1 29.3-47.9 57.5-44c27.8 3.8 47.4 29.3 43.4 57.5c-3.9 27.7-29.4 47.2-57.6 43.3 C149 168.2 129.4 143.4 132.9 115.3z M178.4 163.8c22.8 2.8 43.8-13.2 46.9-36.2c3.2-23.3-13-44.2-35.8-47.5 c-23.5-3.3-44.5 13-47.8 35.8C138.4 139.8 155.2 161 178.4 163.8z"/><path fill="#1B2025" d="M94.9 266.6c0.7 0.1 1.3 0.1 2 0c1.4-0.2 2.4-0.8 3.1-2c1.5-2.4 3-4.8 4.5-7.2c3.3-5.3 6.5-10.5 9.8-15.8 c5.1-8.2 10.2-16.4 15.3-24.6c5.7-9.1 11.3-18.2 17-27.4c0.6-1 1.2-2 1.8-2.9c0.1-0.1 0.2-0.3 0.3-0.4c0.2-0.3 0.2-0.7 0.1-1.1 c-0.1-0.6-0.4-1-0.7-1.5c-0.4-0.6-0.9-1.1-1.4-1.5c-1.5-1.3-3.1-2.3-4.9-3c-0.6-0.2-1.3-0.4-2-0.5c-0.3 0-0.6 0-0.9 0 c-0.6 0-1 0.3-1.3 0.8c-0.6 0.9-1.3 1.8-1.9 2.7c-1.3 2-2.7 3.9-4 5.9c-2.9 4.3-5.9 8.6-8.8 12.9c-1.2 1.8-2.4 3.5-3.6 5.3 c-2.9 4.2-5.7 8.4-8.6 12.6c-1.8 2.6-3.6 5.2-5.3 7.8c-2.9 4.2-5.7 8.4-8.6 12.6c-1.3 1.9-2.6 3.9-4 5.8c-2.3 3.4-4.6 6.8-7 10.2 c-0.8 1.1-1 2.3-0.6 3.6c0.2 0.8 0.6 1.6 1.1 2.3c1 1.4 2.2 2.5 3.6 3.4c1.1 0.7 2.4 1.4 3.7 1.7C94 266.4 94.4 266.5 94.9 266.6 z"/><path fill="#1B2025" d="M158.5 168.5c-3-1.6-5.8-3.5-8.4-5.6c-0.1 0-0.1 0-0.2 0.1c-3 4.6-6 9.1-8.9 13.7c0 0 0 0.1-0.1 0.2 c3.4 1 6.2 2.8 8.6 5.4c0.1-0.2 0.2-0.3 0.3-0.5c2.2-3.3 4.3-6.6 6.5-10c0.6-1 1.3-2 1.9-2.9 C158.3 168.8 158.4 168.7 158.5 168.5z"/><path fill="#1B2025" d="M145.9 167.9c-0.7 0-1.5 0-2.2-0.1c-0.9-0.1-1.6-0.8-1.5-1.7c0.1-0.9 0.8-1.6 1.7-1.5 c2 0.1 4.1 0.1 6.2-0.2c0.9-0.1 1.7 0.5 1.8 1.5c0.1 0.9-0.5 1.7-1.5 1.8C148.9 167.8 147.4 167.9 145.9 167.9z M137.5 166.8 c-0.1 0-0.3 0-0.4-0.1c-2.2-0.6-4.2-1.3-6.4-2.4c-0.8-0.4-1.2-1.4-0.8-2.2c0.4-0.8 1.4-1.2 2.2-0.8c1.9 0.9 3.8 1.6 5.8 2.1 c0.9 0.2 1.4 1.1 1.2 2C138.9 166.3 138.2 166.8 137.5 166.8z M158.2 165.3c-0.8 0-1.2-0.1-1.3-0.8c-0.2-0.9-1.5-1.1-0.6-1.3 l0.1 0c2.1-0.5 4-1.1 5.8-1.9c0.8-0.4 1.8 0 2.1 0.9c0.3 0.8 0 1.8-0.9 2.1c-1.9 0.8-1.6 1.1-3.8 1.7l-0.5-0.4 C159 165.7 158.4 165.3 158.2 165.3z M125.8 161.3c-0.3 0-0.6-0.1-0.9-0.3c-1.7-1.1-3.4-2.4-5.3-4c-0.7-0.6-0.8-1.6-0.2-2.3 c0.6-0.7 1.6-0.8 2.3-0.2c1.8 1.5 3.4 2.7 5 3.8c0.8 0.5 0.9 1.5 0.4 2.3C126.9 161.1 126.3 161.3 125.8 161.3z M40.8 158.2 c-0.3 0-0.5-0.1-0.8-0.2c-0.8-0.4-1.1-1.4-0.6-2.2c1.1-1.9 2.2-3.8 3.4-5.6c0.5-0.8 1.5-1 2.3-0.5c0.8 0.5 1 1.5 0.5 2.3 c-1.1 1.8-2.2 3.6-3.3 5.5C41.9 157.9 41.3 158.2 40.8 158.2z M115.8 153.2c-0.4 0-0.8-0.1-1.1-0.4c-1.3-1.2-2.6-2.4-4-3.7 l-0.8-0.8c-0.7-0.6-0.7-1.7-0.1-2.3c0.6-0.7 1.7-0.7 2.3-0.1l0.8 0.8c1.3 1.2 2.6 2.5 3.9 3.6c0.7 0.6 0.7 1.6 0.1 2.3 C116.7 153 116.2 153.2 115.8 153.2z M47.7 147.3c-0.3 0-0.7-0.1-1-0.3c-0.7-0.5-0.9-1.6-0.4-2.3c1.3-1.8 2.7-3.6 4.1-5.2 c0.6-0.7 1.6-0.8 2.3-0.2c0.7 0.6 0.8 1.6 0.2 2.3c-1.3 1.6-2.6 3.2-3.9 5C48.7 147.1 48.2 147.3 47.7 147.3z M106.2 144.4 c-0.4 0-0.8-0.1-1.1-0.4c-1.7-1.6-3.3-2.9-4.9-4.2c-0.7-0.6-0.8-1.6-0.2-2.3c0.6-0.7 1.6-0.8 2.3-0.2c1.5 1.3 3.2 2.7 4.9 4.3 c0.7 0.6 0.7 1.6 0.1 2.3C107.1 144.2 106.7 144.4 106.2 144.4z M56.1 137.5c-0.4 0-0.9-0.2-1.2-0.5c-0.6-0.6-0.6-1.7 0-2.3 c1.7-1.6 3.4-3.1 5.1-4.4c0.7-0.5 1.8-0.4 2.3 0.3c0.5 0.7 0.4 1.8-0.3 2.3c-1.6 1.2-3.2 2.5-4.7 4.1 C56.9 137.3 56.5 137.5 56.1 137.5z M96.2 136.2c-0.3 0-0.7-0.1-1-0.3c-1.7-1.3-3.5-2.5-5.2-3.7c-0.8-0.5-1-1.5-0.5-2.3 c0.5-0.8 1.5-1 2.3-0.5c1.8 1.2 3.6 2.4 5.4 3.8c0.7 0.5 0.9 1.6 0.3 2.3C97.2 135.9 96.7 136.2 96.2 136.2z M66.5 129.8 c-0.6 0-1.2-0.3-1.5-0.9c-0.4-0.8-0.1-1.8 0.8-2.2c2.2-1.1 4.4-1.8 6.5-2.2c0.9-0.2 1.8 0.4 1.9 1.3c0.2 0.9-0.4 1.8-1.3 1.9 c-1.9 0.4-3.8 1-5.7 2C67 129.8 66.8 129.8 66.5 129.8z M85.3 129.2c-0.2 0-0.4 0-0.7-0.1c-1.9-0.8-3.8-1.4-5.7-1.6 c-0.9-0.1-1.5-0.9-1.4-1.8c0.1-0.9 0.9-1.5 1.8-1.4c2.2 0.3 4.5 0.9 6.7 1.9c0.8 0.4 1.2 1.3 0.8 2.2 C86.5 128.9 85.9 129.2 85.3 129.2z"/></svg>
