<svg xmlns="http://www.w3.org/2000/svg" viewBox="0 0 374 262" enable-background="new 0 0 374 262"><path fill="#fff" d="M-41.5-17.2h454.4v296.5h-454.4z"/><path fill="#231F20" d="M206.1 167.8c0 .7-.1 1.3-.3 1.9s-.5 1-.9 1.5c-.4.4-.9.7-1.5.9-.6.2-1.2.3-1.9.3-1.5 0-2.6-.4-3.4-1.3-.8-.9-1.2-2-1.2-3.3 0-1.4.4-2.5 1.2-3.3.8-.8 2-1.3 3.4-1.3.7 0 1.4.1 1.9.3.6.2 1.1.5 1.4.9.4.4.7.9.9 1.4s.4 1.4.4 2zm-4.1 12.9h-3l13.6-17.2h3.1l-13.7 17.2zm1.3-12.8c0-.8-.2-1.4-.5-1.8-.4-.4-.8-.7-1.4-.7-.6 0-1 .2-1.4.7-.3.4-.5 1.1-.5 1.8 0 .8.2 1.4.5 1.8.3.4.8.6 1.4.6.6 0 1-.2 1.4-.7s.5-1 .5-1.7zm14.5 8.5c0 1.4-.4 2.5-1.2 3.3-.8.8-2 1.3-3.4 1.3s-2.6-.4-3.4-1.3c-.8-.9-1.2-2-1.2-3.3 0-.7.1-1.3.3-1.9.2-.6.5-1 .9-1.4.4-.4.9-.7 1.5-.9.6-.2 1.2-.3 1.9-.3s1.4.1 1.9.3c.6.2 1.1.5 1.4.9.4.4.7.9.9 1.4.3.6.4 1.2.4 1.9zm-2.7 0c0-.8-.2-1.4-.5-1.8-.3-.4-.8-.7-1.4-.7-.6 0-1.1.2-1.4.7-.3.4-.5 1-.5 1.8s.2 1.4.5 1.8c.3.4.8.6 1.4.6.6 0 1-.2 1.4-.7.3-.3.5-.9.5-1.7z"/><path fill="#E0E1E0" d="M267.4 94.6l53.7-17.5c9.6 29.7-6.6 61.5-36.3 71.2-2 .6-3.7 1.1-5.7 1.5l-11.7-55.2z"/><path fill="#2FA8E0" d="M267 94.6l12 55.3c-30.5 6.5-60.4-13-66.9-43.5s12.8-60.5 43.4-67c4.1-.9 7.6-1.2 11.6-1.2v56.4z"/><path fill="#59C3EC" d="M267.4 94.6l23-51.6c15.2 6.8 25.6 18.3 30.8 34.2l-53.8 17.4z"/><path fill="#FFD23B" d="M267 94.6v-56.5c8 0 15.4 1.5 23 4.9l-23 51.6z"/><g><path fill="#FFD23B" d="M219.7 159.6c3.3 3.3 5.3 7.8 5.3 12.8h12.2c0-4-.8-8.2-2.4-11.9-1.5-3.6-3.7-7-6.5-9.8-2.8-2.8-6-5-9.6-6.5-3.7-1.6-7.8-2.5-11.8-2.5v12.3c5.1 0 9.4 2.2 12.8 5.6z"/><path fill="#2FA8E0" d="M185.8 150.6c-2.7 2.8-4.8 6.4-6.4 9.9-1.5 3.6-2.2 7.9-2.2 11.9h12c.1-5 1.9-9.5 5.3-12.8l-.1-.2c3.4-3.4 7.6-5.4 12.6-5.4v-12.2c-4 0-8 .8-11.7 2.4-3.6 1.5-6.7 3.6-9.5 6.4z"/><path fill="#59C3EC" d="M225 172.3c0 4.8-1.9 9.1-5.3 12.5-3.4 3.4-7.7 5.1-12.7 5.1v12.1c4 0 8.1-.8 11.8-2.4 3.6-1.5 6.8-3.7 9.6-6.5s5-6 6.5-9.6c1.6-3.7 2.4-7.3 2.4-11.4v.2h-12.3z"/><path fill="#E0E1E0" d="M194.4 185.1c-3.3-3.3-5.1-7.6-5.2-11.6h-.2v-1.5c0-.1.2.5.2.5h-12s-.2-.6-.2-.5v1.5h.1c0 3 .6 7.2 2.2 11 1.5 3.6 3.7 6.4 6.5 9.2s5.9 4.7 9.5 6.3c3.7 1.6 7.7 2.2 11.7 2.2v-12.3c-5-.1-9.2-1.5-12.6-4.8z"/></g><path fill="#231F20" d="M114.6 183.8c.2 0 .2.1.3.2.8 1.2 1.9 2.2 2.9 3.2.4.4.8.7 1.2 1 .2.1.4.3.5.4 1.7 1.2 3.5 2.3 5.4 3.1 1.4.6 2.9 1 4.3 1.4 1.8.5 3.6.7 5.5.9l1.4.1h11.8c.4 0 .6-.3.6-.7v-7.1c.1-.6.6-.9 1.2-.9.4 0 .7.2.9.4.9.8 1.9 1.5 2.9 2.3l3.4 2.7 1.2.9 5.2 4.1 4.8 3.8 2.9 2.3c.9.7 1.8 1.5 2.8 2.2.2.2.4.4.5.6.2.2.2.5 0 .8l-.5.6c-.3.3-.7.6-1 .8l-5.3 4.2-3.1 2.4-2.1 1.7-3.6 2.8c-.5.4-1.1.8-1.6 1.3l-6.1 4.8c-.1.1-.2.2-.3.2-.1.1-.3.2-.4.2-.8.3-1.5-.1-1.6-1v-6.8c0-.6-.1-.6-.6-.6-2.8 0-5.6 0-8.4-.3-1.4-.2-2.7-.5-4-.8-.9-.2-1.7-.5-2.5-.8-1.9-.7-3.8-1.6-5.5-2.7-1.6-1.1-3.2-2.3-4.5-3.7-1.2-1.3-2.2-2.6-3.2-4.1-.8-1.2-1.4-2.5-1.9-3.8-.5-1.1-.9-2.3-1.3-3.5-.6-2-1-4-1.4-6-.2-1.5-.5-3.1-.6-4.6-.1-.7-.1-.8-.1-1.4-.2-.3-.2-.5-.1-.6z"/><g><path fill="#fff" d="M88.6 8l73.7 1s18.9 15 19.3 16.2c.4 1.2.6 101.2.6 101.2l-92.9-.9-.7-117.5z"/><path fill="#231F20" d="M164.8 4.7h-73.6c-3.8 0-6.9 3.1-6.9 6.9v112.2c0 3.8 3.1 6.9 6.9 6.9h88.2c3.8 0 6.9-3.1 6.9-6.9v-98.7c0-1.9-.8-3.8-2.2-5.1l-14.6-13.5c-1.2-1.1-2.9-1.8-4.7-1.8zm9.2 121h-77.5c-3.8 0-6.9-3.1-6.9-6.9v-101.2c0-3.8 3.1-6.9 6.9-6.9h59.8c3.8 0 6.9 3.1 6.9 6.9v4.2c0 3.8 3.1 6.9 6.9 6.9h3.8c3.8 0 6.9 3.1 6.9 6.9v83.2c.1 3.8-3 6.9-6.8 6.9z"/><path fill="#E0E1E0" d="M105 49.4h18v19h-18zM146 82.4h18v18h-18z"/><path fill="#231F20" d="M130 49.4h34v6h-34zM130 62.4h34v6h-34zM105 82.4h36v4h-36zM105 95.4h36v5h-36z"/></g><g><path fill="#fff" d="M67.2 29.4l73.7 1s18.9 15 19.3 16.2c.4 1.2.6 101.2.6 101.2l-92.9-.9-.7-117.5z"/><path fill="#231F20" d="M143.4 26.7h-74.2c-3.8 0-6.9 3.1-6.9 6.9v112.2c0 3.8 3.1 6.9 6.9 6.9h88.2c3.8 0 6.9-3.1 6.9-6.9v-99.3c0-1.9-.8-3.8-2.2-5.1l-13.9-12.9c-1.4-1.1-3-1.8-4.8-1.8zm9.2 120h-77.5c-3.8 0-6.9-3.1-6.9-6.9v-101.2c0-3.8 3.1-6.9 6.9-6.9h60.2c3.8 0 6.9 3.1 6.9 6.9v5.2c0 3.8 3.1 6.9 6.9 6.9h3.4c3.8 0 6.9 3.1 6.9 6.9v82.2c.1 3.8-3 6.9-6.8 6.9z"/><path fill="#59C3EC" d="M84 71.4h18v18h-18zM125 103.4h18v19h-18z"/><path fill="#231F20" d="M109 71.4h34v5h-34zM109 83.4h34v6h-34zM84 103.4h35v5h-35zM84 116.4h35v6h-35z"/></g><g><path fill="#fff" d="M45.9 50.8l73.7 1s18.9 15 19.3 16.2c.4 1.2.6 101.2.6 101.2l-92.9-.9-.7-117.5z"/><path fill="#231F20" d="M122.1 47.7h-73.9c-3.8 0-6.9 3.1-6.9 6.9v112.2c0 3.8 3.1 6.9 6.9 6.9h88.2c3.8 0 6.9-3.1 6.9-6.9v-99c0-1.9-.8-3.8-2.2-5.1l-14.2-13.2c-1.4-1.1-3.1-1.8-4.8-1.8zm9.2 121h-77.5c-3.8 0-6.9-3.1-6.9-6.9v-102.2c0-3.8 3.1-6.9 6.9-6.9h59.5c3.8 0 6.9 3.1 6.9 6.9v5.2c0 3.8 3.1 6.9 6.9 6.9h4.1c3.8 0 6.9 3.1 6.9 6.9v83.2c.1 3.8-3 6.9-6.8 6.9z"/></g><path fill="#231F20" d="M188 238.7v16.7h19v-17h-19z"/><path fill="#231F20" d="M212 222.7v32.7h19v-33h-19z"/><path fill="#231F20" d="M237 206.7v48.7h18v-49h-18z"/><path fill="#231F20" d="M262 189.7v65.7h18v-66h-18z"/><path fill="#231F20" d="M286 173.7v81.7h19v-82h-19z"/><g><path fill="#231F20" d="M310 157.4v98h19v-98z"/><g><path fill="#231F20" d="M55 76.2h56.1v6.8h-56.1zM55 89.5h56.1v6.8h-56.1zM55 102.2h37.8v6.8h-37.8zM55 115.3h37.8v6.8h-37.8zM91 137.2h37.9v6.8h-37.9zM91 149.2h37.9v6.8h-37.9z"/><path fill="#FFD23B" d="M61.9 130.3h23.8v23.8h-23.8zM97.8 102.2h31.1v31.1h-31.1z"/></g></g></svg>