<svg xmlns="http://www.w3.org/2000/svg" viewBox="0 0 374 262" enable-background="new 0 0 374 262"><g><path fill="#fff" d="M-45.1-20h458.7v299.5h-458.7z"/><path fill="#E0E1E0" d="M175 249.9c0 3.6-2.9 6.5-6.5 6.5h-156c-3.6 0-6.5-2.9-6.5-6.5v-212c0-3.6 2.9-6.5 6.5-6.5h156c3.6 0 6.5 2.9 6.5 6.5v212z"/><path fill="#fff" d="M165.2 226.4h-.2v-185h-149v205h129v-20z"/><path fill="#FFD23B" d="M39.2 47.4h105.1c-8.7-14-22.9-24.8-39.7-28.3v-.2c0-7.1-5.7-12.9-12.8-12.9-7.1 0-12.8 5.7-12.8 12.8v.3c-16.9 3.6-31.1 14.3-39.8 28.3zm52.7-35.1c3.4 0 6.2 2.8 6.2 6.2s-2.8 6.2-6.2 6.2c-3.4 0-6.2-2.8-6.2-6.2s2.8-6.2 6.2-6.2z"/><path fill="#F0F3F6" d="M89.9 78.8c-36.2 0-65.5 29.3-65.5 65.5s29.3 65.5 65.5 65.5 65.5-29.3 65.5-65.5-29.3-65.5-65.5-65.5zm-.1 118.7c-29.4 0-53.2-23.8-53.2-53.2 0-29.4 23.8-53.2 53.2-53.2 29.4 0 53.2 23.8 53.2 53.2 0 29.4-23.8 53.2-53.2 53.2zM90.4 103c-22.7 0-41.2 18.4-41.2 41.2 0 22.7 18.4 41.2 41.2 41.2 22.7 0 41.2-18.4 41.2-41.2 0-22.8-18.4-41.2-41.2-41.2zm-.1 70c-15.8 0-28.7-12.8-28.7-28.7 0-15.8 12.8-28.7 28.7-28.7 15.8 0 28.7 12.8 28.7 28.7 0 15.8-12.9 28.7-28.7 28.7z"/><circle fill="#F0F3F6" cx="90.9" cy="143.7" r="16"/></g><g fill="#231F20"><path d="M39 68.4h109v7h-109zM26 68.4h7v7h-7zM26 80.4h7v7h-7zM39 80.4h82v7h-82zM39 118.4h109v7h-109zM26 118.4h7v7h-7zM39 130.4h82v7h-82zM26 130.4h7v7h-7zM26 94.4h7v7h-7zM39 94.4h109v7h-109zM26 106.4h7v7h-7zM39 106.4h109v7h-109zM39 151.4h109v7h-109zM26 151.4h7v7h-7zM26 163.4h7v7h-7zM39 163.4h82v7h-82zM26 201.4h7v7h-7zM39 201.4h109v7h-109zM39 213.4h82v7h-82zM26 213.4h7v7h-7zM39 177.4h109v7h-109zM26 177.4h7v7h-7zM26 189.4h7v7h-7zM39 189.4h109v7h-109z"/></g><g><path fill="#E0E1E0" d="M364 159.1v-5.7l-6.2.5zM364 99.1v-5.7l-6.2.5zM364 93.3v-55.1l-6.9-6.2-162.1-.1-.8 217.2 7.4 7.3h162.4v-97.3l-6-5.2 6 .1v-55l-6-5.1z"/><path fill="#FFD23B" d="M364 111.4h-6v43h12v-37h-6z"/><path fill="#F0F3F6" d="M364 117.4h6.2l-6.2-6.4z"/><path fill="#231F20" d="M358 51.4h11v43h-11z"/><path d="M192.3 63.4c.7.4 1.4.7 2 .9v-.7c-.3.1-1.1 0-2-.2zM200.8 214.5c.1 0 .1.1.2.2" fill="none"/><path fill="none" d="M200.2 38.9zM192.3 45.4c.7.4 1.4.7 2 .9v-.7c-.3.1-1.1 0-2-.2z"/><path fill="#59C3EC" d="M194 45.5zM194 63.5z"/><circle fill="#231F20" cx="200.6" cy="38.1" r="3.5"/><circle fill="#231F20" cx="200.6" cy="55.9" r="3.5"/><circle fill="#231F20" cx="200.6" cy="73.8" r="3.5"/><circle fill="#231F20" cx="200.6" cy="91.7" r="3.5"/><circle fill="#231F20" cx="200.6" cy="109.6" r="3.5"/><circle fill="#231F20" cx="200.6" cy="127.5" r="3.5"/><circle fill="#231F20" cx="200.6" cy="143.7" r="3.5"/><circle fill="#231F20" cx="200.6" cy="161.6" r="3.5"/><circle fill="#231F20" cx="200.6" cy="179.5" r="3.5"/><circle fill="#231F20" cx="200.6" cy="197.3" r="3.5"/><circle fill="#231F20" cx="200.6" cy="215.2" r="3.5"/><circle fill="#231F20" cx="200.6" cy="233.1" r="3.5"/><path d="M189.1 76.4c-.7 2.8 2.9 5 4.9 5.7v-8.7c-2 .2-4.4 1-4.9 3zM189.1 164.2c-.7 2.8 2.9 5 4.9 5.7v-8.6c-2 .1-4.4.9-4.9 2.9zM189.1 94.3c-.7 2.8 2.9 5 4.9 5.7v-8.6c-2 .1-4.4.8-4.9 2.9zM189.1 146.4c-.7 2.8 2.9 5 4.9 5.7v-8.6c-2 0-4.4.8-4.9 2.9zM189.1 182c-.7 2.8 2.9 5 4.9 5.7v-8.6c-2 .1-4.4.8-4.9 2.9zM189.1 218c-.7 2.8 2.9 5 4.9 5.7v-8.6c-2 0-4.4.8-4.9 2.9zM189.1 130c-.7 2.8 2.9 5 4.9 5.7v-8.6c-2 .1-4.4.9-4.9 2.9zM189.1 112.1c-.7 2.8 2.9 5 4.9 5.7v-8.6c-2 .1-4.4.8-4.9 2.9zM189.1 199.9c-.7 2.8 2.9 5 4.9 5.7v-8.6c-2 .1-4.4.8-4.9 2.9zM189.1 235.7c-.7 2.8 2.9 5 4.9 5.7v-8.6c-2 .1-4.4.8-4.9 2.9zM189.2 40.6c-.5 2 1.1 3.8 2.9 4.8.9.2 1.9.3 1.9.3v-8c-2 0-4.3.8-4.8 2.9z" fill="none"/><path fill="#E0E1E0" d="M200.8 37.1c-1-.6-3.2-1.7-5.7-1.9h-.9c-1.8 0-3.9.5-5.6 1.9-5.4 4.5.6 10.9 5.4 11.9v-2.7c0-.2-1.2-.5-1.9-.9-1.8-1.1-3.4-2.8-2.9-4.8.5-2.1 2.7-2.8 4.9-2.9h.7c1.9 0 3.8.5 5 1.1.1.1.3.1.4.1.4 0 .8-.2.9-.6.2-.5 0-1-.3-1.2z"/><path d="M189.2 58.6c-.5 2 1.1 3.8 2.9 4.8.9.2 1.9.3 1.9.3v-8c-2 0-4.3.8-4.8 2.9z" fill="none"/><path fill="#E0E1E0" d="M200.8 55.1c-1-.6-3.2-1.7-5.7-1.9h-.9c-1.8 0-3.9.5-5.6 1.9-5.4 4.5.6 10.9 5.4 11.9v-2.6c0-.2-1.2-.5-1.9-.9-1.8-1.1-3.4-2.8-2.9-4.8.5-2.1 2.7-2.8 4.9-2.9h.7c1.9 0 3.8.5 5 1.1.5.3 1.2 0 1.3-.6.2-.5 0-1-.3-1.2zM200.8 73c-1-.6-3.2-1.7-5.7-1.9h-.9c-1.8 0-3.9.5-5.6 1.9-5.4 4.5.6 10.9 5.4 11.9v-2.6c-2-.7-5.5-2.9-4.8-5.7.5-2.1 2.7-2.8 5-2.9h.7c1.9 0 3.8.5 5 1.1.5.3 1.2 0 1.3-.6.1-.5-.1-1-.4-1.2zM200.8 90.9c-1-.6-3.2-1.7-5.7-1.9h-.9c-1.8 0-3.9.5-5.6 1.9-5.4 4.5.6 10.9 5.4 11.9v-2.6c-2-.7-5.5-2.9-4.8-5.7.5-2.1 2.7-2.8 5-2.9h.7c1.9 0 3.8.5 5 1.1.5.3 1.2 0 1.3-.6.1-.6-.1-1-.4-1.2zM200.8 108.7c-1-.6-3.2-1.7-5.7-1.9h-.7c-1.8 0-4 .4-5.8 1.9-5.4 4.5.6 10.9 5.4 11.9v-2.6c-2-.7-5.5-2.9-4.8-5.7.5-2.1 2.7-2.8 5-2.9h.7c1.9 0 3.8.5 5 1.1.5.3 1.2 0 1.3-.6.1-.6-.1-1-.4-1.2zM200.8 126.6c-1-.6-3.2-1.7-5.7-1.9h-.9c-1.8 0-3.9.5-5.6 1.9-5.4 4.5.6 10.9 5.4 11.9v-2.6c-2-.7-5.5-2.9-4.8-5.7.5-2.1 2.7-2.8 5-2.9h.7c1.9 0 3.8.5 5 1.1.5.3 1.2 0 1.3-.6.1-.5-.1-1-.4-1.2zM200.8 142.9c-1-.6-3.2-1.7-5.7-1.9h-.9c-1.8 0-3.9.5-5.6 1.9-5.4 4.5.6 10.9 5.4 11.9v-2.6c-2-.7-5.5-2.9-4.8-5.7.5-2.1 2.7-2.8 5-2.9h.7c1.9 0 3.8.5 5 1.1.5.3 1.2 0 1.3-.6.1-.5-.1-1-.4-1.2zM200.8 160.8c-1-.6-3.2-1.7-5.7-1.9h-.9c-1.8 0-3.9.5-5.6 1.9-5.4 4.5.6 10.9 5.4 11.9v-2.7c-2-.7-5.5-2.9-4.8-5.7.5-2.1 2.7-2.8 5-2.9h.7c1.9 0 3.8.5 5 1.1.5.3 1.2 0 1.3-.6.1-.4-.1-.9-.4-1.1zM200.8 178.5c-1-.6-3.2-1.7-5.7-1.9h-.8c-1.8 0-3.9.5-5.6 1.9-5.4 4.5.6 10.9 5.4 11.9v-2.6c-2-.7-5.5-2.9-4.8-5.7.5-2.1 2.7-2.8 5-2.9h.7c1.9 0 3.8.5 5 1.1.5.3 1.2 0 1.3-.6 0-.5-.2-.9-.5-1.2zM200.8 196.5c-1-.6-3.2-1.7-5.7-1.9h-.9c-1.8 0-3.9.5-5.6 1.9-5.4 4.5.6 10.9 5.4 11.9v-2.5c-2-.7-5.5-2.9-4.8-5.7.5-2.1 2.7-2.8 5-2.9h.7c1.9 0 3.8.5 5 1.1.5.3 1.2 0 1.3-.6.1-.7-.1-1.1-.4-1.3zM201 214.7l-.2-.2c-1-.6-3.2-1.7-5.7-1.9h-.9c-1.8 0-3.9.5-5.6 1.9-5.4 4.5.6 10.9 5.4 11.9v-2.6c-2-.7-5.5-2.9-4.8-5.7.5-2.1 2.7-2.8 5-2.9h.7c1.9 0 3.8.5 5 1.1.5.3 1.2 0 1.3-.6.1-.4 0-.8-.2-1zM200.8 232.2c-1-.6-3.2-1.7-5.7-1.9h-.9c-1.8 0-3.9.5-5.6 1.9-5.4 4.5.6 10.9 5.4 11.9v-2.6c-2-.7-5.5-2.9-4.8-5.7.5-2.1 2.7-2.8 5-2.9h.7c1.9 0 3.8.5 5 1.1.5.3 1.2 0 1.3-.6.1-.5-.1-.9-.4-1.2z"/><g fill="#231F20"><path d="M259.9 163.7c-10.1 0-18.4 8.2-18.4 18.4s8.2 18.4 18.4 18.4 18.4-8.2 18.4-18.4-8.3-18.4-18.4-18.4zm0 32.1c-7.6 0-13.7-6.1-13.7-13.7s6.2-13.7 13.7-13.7 13.7 6.1 13.7 13.7-6.2 13.7-13.7 13.7zM311.2 152.7c-10.1 0-18.4 8.2-18.4 18.4s8.2 18.4 18.4 18.4 18.4-8.2 18.4-18.4-8.3-18.4-18.4-18.4zm0 32c-7.6 0-13.7-6.1-13.7-13.7s6.2-13.7 13.7-13.7 13.7 6.1 13.7 13.7-6.1 13.7-13.7 13.7zM262.6 115.4l4.1-4.1-12-12 12-12-4.1-4.1-12 12-12-12-4.1 4.1 12 12-12 12 4.1 4.1 12-12 12 12zM310.2 144.8h2v-76.6l2.4 2.4v-2.9l-3.4-3.4-3.4 3.4v2.9l2.4-2.4zM290.1 88.3l-1.8-2.2-4.8-.5-.5 4.8 1.8 2.2.4-3.3c4 6.3 8.8 20-9.7 36.9-25.8 23.6-22.8 34.4-22.7 34.9l1.9-.6c0-.1-2.5-10.3 22.1-32.8 9.2-8.4 13.9-17.1 14-25.9.1-6.2-2.3-11.1-4.1-13.9l3.4.4z"/></g></g><g><path fill="#2FA8E0" d="M201 214.7c.2.2.3.6.2.9-.2.6-.8.8-1.3.6-1.2-.6-3.2-1.1-5.1-1.1h-.8v15.2h1c2.5.2 4.7 1.3 5.7 1.9.4.2.6.7.4 1.1-.2.6-.8.8-1.3.6-1.2-.6-3.2-1.1-5.1-1.1h-.8v16.6h163v-217h-162.9v2.7h1c2.5.2 4.7 1.3 5.7 1.9.4.2.6.7.4 1.1-.1.4-.5.7-.9.6-.1 0-.3 0-.4-.1-1.2-.6-3.2-1.1-5.1-1.1h-.8v15.7h1c2.5.2 4.7 1.3 5.7 1.9.4.2.6.7.4 1.1-.2.6-.8.8-1.3.6-1.2-.6-3.2-1.1-5.1-1.1h-.8v15.299999999999999h1c2.5.2 4.7 1.3 5.7 1.9.4.2.6.7.4 1.1-.2.6-.8.8-1.3.6-1.2-.6-3.2-1.1-5.1-1.1h-.8v15.5h1c2.5.2 4.7 1.3 5.7 1.9.4.2.6.7.4 1.1-.2.6-.8.8-1.3.6-1.2-.6-3.2-1.1-5.1-1.1h-.8v15.299999999999999h1c2.5.2 4.7 1.3 5.7 1.9.4.2.6.7.4 1.1-.2.6-.8.8-1.3.6-1.2-.6-3.2-1.1-5.1-1.1h-.8v15.399999999999999h1c2.5.2 4.7 1.3 5.7 1.9.4.2.6.7.4 1.1-.2.6-.8.8-1.3.6-1.2-.6-3.2-1.1-5.1-1.1h-.8v13.799999999999999h1c2.5.2 4.7 1.3 5.7 1.9.4.2.6.7.4 1.1-.2.6-.8.8-1.3.6-1.2-.6-3.2-1.1-5.1-1.1h-.8v15.399999999999999h1c2.5.2 4.7 1.3 5.7 1.9.4.2.6.7.4 1.1-.2.6-.8.8-1.3.6-1.2-.6-3.2-1.1-5.1-1.1h-.8v15.2h1c2.5.2 4.7 1.3 5.7 1.9.4.2.6.7.4 1.1-.2.6-.8.8-1.3.6-1.2-.6-3.2-1.1-5.1-1.1h-.8v15.5h1c2.5.2 4.7 1.3 5.7 1.9.4.2.6.7.4 1.1-.2.6-.8.8-1.3.6-1.2-.6-3.2-1.1-5.1-1.1h-.8v15.399999999999999h1c2.5.2 4.7 1.3 5.7 1.9h.1"/><path fill="#fff" d="M251.9 73.3v48.1h48.1v-48.1h-48.1zm43.7 43.7h-39.4v-39.4h39.4v39.4z"/><g fill="#fff"><path d="M270.4 91.7h-6.7v-6.7h6.7v6.7zm0 15.7h-6.7v-6.7h6.7v6.7zM288.3 91.7h-6.7v-6.7h6.7v6.7zm0 15.7l-5.6 4.1-1.1-1.8 1.8-1.7-1.8-.5v-6.7h6.7v6.6z"/></g><path fill="#fff" d="M266.8 125.8h18.5v4.4h-18.5z"/></g></svg>