<svg xmlns="http://www.w3.org/2000/svg" viewBox="0 0 550.8 351.9"><path fill="#B5B5B5" d="M295.2 58.7c-3.2 7.4-6.6 15.9-9.6 25.1c11.5-3.1 24-5.6 37.5-7.3c2.2-8.1 5.1-17.4 9-27.6 C321 51.1 308.5 54.2 295.2 58.7z"/><path fill="#B5B5B5" d="M284.1 88.6c-2.4 7.8-4.5 16-6.1 24.5c0 0 17.4-3.5 39-3.5c0 0 0.7-11 5.2-29l-1.1 0.1 C321 80.8 305.9 82.3 284.1 88.6z"/><path fill="#6B6B6B" d="M347 15.7c0 0-12.5 2.9-35.1 10.7c0 0-6.7 10.4-14.4 27.3c11.2-3.6 23.4-6.9 36.4-9.3 C337.5 35.4 341.8 25.7 347 15.7z"/><path fill="#6B6B6B" d="M246.1 102.6c-3.6 11.2-6.1 20.6-6.1 20.6c17.4-6.9 32.9-8.7 32.9-8.7c1.6-8.8 3.6-17 5.7-24.2 C268.7 93.4 257.6 97.4 246.1 102.6z"/><path fill="#B5B5B5" d="M267 47.8c-6.7 3.6-20.2 12.3-20.2 12.3c-5.8 8.3-10.6 16.2-14.4 23.2c2.8-1.8 10.4-6.4 21.7-12 C260.5 58.5 267 47.8 267 47.8z"/><path fill="#B5B5B5" d="M251 77.6c-7.5 3.9-15.1 8.3-22.6 13.3c-6.1 12-8.9 19.9-8.9 19.9c8.8-5.8 23.3-12.7 23.3-12.7 C244.6 91.8 247.7 84.6 251 77.6z"/><path fill="#B5B5B5" d="M184.9 153.3c7.9-6.7 20.3-14.4 20.3-14.4c0.9-4.5 2.7-10.3 4.8-16.1c-6.4 4.3-12.7 9.1-18.8 14.3 C187 146.7 184.9 153.3 184.9 153.3z"/><path fill="#6B6B6B" d="M206.3 108c-4.4 7-8.1 14.1-11.2 20.5c3.6-3 9.5-7.6 17.5-12.8c3.8-10 7.6-18.5 7.6-18.5 C217.9 98.6 206.3 108 206.3 108z"/><path fill="#B5B5B5" d="M352.5 14.3c-5.1 8.6-9.8 19.2-13.7 29.2c13.6-2.3 28-3.5 42.8-3.3c8-20.1 14.6-31.3 14.6-31.3 C372.6 9.5 352.5 14.3 352.5 14.3z"/><path fill="#979797" d="M337.1 47.9c-5.6 15.2-9.1 27.9-9.1 27.9c5.8-0.8 12-1.2 17.7-1.3c7.4-0.2 14.1 0.1 18.5 0.3 c3.5 0.2 5.6 0.4 5.6 0.4c3.4-12 7-22.6 10.5-31.6C375.7 43.6 359.7 43.8 337.1 47.9z"/><path fill="#979797" d="M257.2 74.4c-3.3 6.1-6.5 14.4-9.2 22.4c9.5-4.1 20.2-8 32-11.4c3.9-12.7 7.8-21.6 9.1-24.5 c0.3-0.6 0.4-1 0.4-1C275.4 65.1 257.4 74 257.4 74C257.4 74.1 257.3 74.3 257.2 74.4z"/><path fill="#6B6B6B" d="M457.4 75c-39.5 0-71.5 32-71.5 71.5c0 39.5 32 71.5 71.5 71.5c39.5 0 71.5-32 71.5-71.5 C528.9 107 496.9 75 457.4 75z M457.4 189.6c-23.9 0-43.2-19.3-43.2-43.2c0-23.9 19.3-43.2 43.2-43.2c23.9 0 43.2 19.3 43.2 43.2 C500.6 170.3 481.3 189.6 457.4 189.6z"/><circle fill="#B5B5B5" cx="457.4" cy="146.4" r="18.5"/><polygon fill="#B5B5B5" points="307.8,141.9 210.3,192 257.4,217 307.4,191.1"/><polygon fill="#B5B5B5" points="206.1,292.3 206.5,342.4 303.8,292.3 255.8,266.8"/><polygon fill="#979797" points="210.1,242.1 256.2,266.8 304,242.1 256.9,217 210.1,241.2"/><polygon fill="#6B6B6B" points="210.1,241.2 257.2,217 210.1,192"/><polygon fill="#6B6B6B" points="304.1,292.3 304.1,242.1 256.1,266.8"/><path fill="#858585" d="M133.7 210.9H34.4c-11.8 0-22.3 9.8-22.3 21.6v43.4c0 3.5 1.3 7.1 3 10.2l26 46.7 c3.7 6.9 11.2 10.2 19.1 10.2H110c8.2 0 15.5-3.5 19.2-10.8l24.2-47c1.5-2.9 2.8-5.7 2.8-9v-43.6 C156.1 220.8 145.5 210.9 133.7 210.9z M34.1 229.9h42v51H59.5l24.1 43H60c-0.2 0-0.3-0.1-0.4-0.2L33.9 276 M134.1 276.3 l-23.9 47.5c-0.1 0.2 0 0.2-0.2 0.2H84.4l23-43H89.1v-51h45"/><path fill="#B5B5B5" d="M537.1 243.9v93.3c0 3.3-3.7 5.7-7 5.7H386c-2.1 0-4.3-0.9-5.4-2.6l80.5-56c0.7-0.3 1.4-0.7 2.2-1.3 c0 0 53.3-37.3 61.8-43.3c4.5-3.2 7.4-2.4 9.1-1C534.1 238.8 536.9 241.2 537.1 243.9z"/><path fill="#979797" d="M453.2 283.1c-0.1-0.1-0.2-0.1-0.3-0.2c-3.2-2.2-53.4-37.4-61.6-43.2c-4.5-3.2-7.4-2.4-9.1-1.1 c-1 0.8-2 1.7-2.3 3c-0.2 0.8-0.8 1.6-0.8 2.4v93.1c0 1.2 0.9 2.2 1.5 3.2l80.5-56C457.1 286.1 453.8 283.7 453.2 283.1z"/><path fill="#EFEEEE" d="M102.9 131.9l-5.8-0.1l-3 3.1v4.8l2.7 5l4.1 1.5l6.8 1l8.4-1.2l9-2.5l5.6-2.6l5.9-3.3l3.6-3.2l2.2-2.5 l1.1-1.5c0 0 1.2-1.3 0.8-3c-0.4-2.1-0.7-2.2-0.7-2.2s-1-3.1-1-3.2c0-0.1-1.7-5.1-1.7-5.1l-2.2 1.5c0 0-2.8 2.4-2.8 2.4 c-0.1 0.1-5.5 2.7-5.5 2.7l-5.9 3.4l-6.6 2.3l-7.6 2L102.9 131.9z"/><path fill="#EFEEEE" d="M135.1 156.2l-18.8 10.4L98.5 168l-10.8-5.3l-12.6-20.5l-0.4-14l10.3-12.4l20.2-11.2l6.6-10l9.9-0.7 l2.8 6.1l5-1.6c0 0 9.7 5.2 9.6 5.8s5 4.9 5 4.9l1.1 3l-2.8 3.7l-3.7 1.5l-7 6.1l-9.9 4.7l-10.8 3.1l-8.7-0.2l-5.5 0.8l-3.1 2.4 l-1.3 4.9l2.2 3.8l6.5 4.6l11.8-0.6l14.6-4l6.9-4.1l6.6-4.2c0 0 3.5-4.6 3.4-6.4c-0.1-1.8 3.5-0.6 3.5-0.6l2.4 2.5l-1.7 5.8 l-6.2 14.3L135.1 156.2z"/><path fill="#DCDBDB" d="M139.1 106.7c0 0-6.1 14.8-39.2 24.8l-3.9 1.1l-2.9 2.7l-0.8 3.7l0.9 3.8l3.9 3.4l3.9 1.2 c0 0-5.4-3.9-4.8-7.3c0 0 14.3 4.6 30.2-5.4c0 0-20.9 7.8-30.4 3.1c0 0 0.8-3.8 3.9-4.9l13.2-2.1l9.9-3.3l8.5-4.3l8.4-6.2l4.1-5.8 l-0.8-1.5l-2.5-2.2L139.1 106.7z"/><path fill="#EFEEEE" d="M98.2 34.7c-4.6 2.2-10.1 5.5-16.4 10.3c4.9-3.5 9.9-6.6 14.1-9C96.6 35.5 97.4 35.1 98.2 34.7z"/><path fill="#EFEEEE" d="M64.8 57.7c3.4-3.6 7.1-7.2 11.1-10.6L75.9 47C72.1 50.2 68.3 53.9 64.8 57.7z"/><polygon fill="#8A8A8A" points="66.5,34.7 66.5,34.6 67.3,34.1 66.4,34.5 66.4,34.6"/><path fill="#8A8A8A" d="M72.2 53c-0.5 0.5-1 1-1.5 1.5c0.8-0.8 1.5-1.5 2.2-2.1C72.6 52.6 72.4 52.8 72.2 53z"/><path fill="#626363" d="M78.9 36.1l-1.5-5.7c0 0 0 0 0 0l1.4 5.6L78.9 36.1z"/><path fill="#8A8A8A" d="M83.4 38.1l0.6 2.6c0 0 0 0 0 0L83.4 38.1z"/><path fill="#626363" d="M77.4 30.5c-0.1 0-0.1 0.1-0.1 0.1l0 1.9L77.4 30.5z"/><path fill="#8A8A8A" d="M43.3 132.5c-5.6 0-10.1-4.5-10.1-10.1c0-0.8 0.1-1.5 0.3-2.3c-0.4-1-0.7-1.8-0.7-1.8l1.1-4.4 c0 0 9-2.6 9.3-2.6c0.2 0 2.5 0.6 3.9 1c0.7-2.2 1.5-3.9 2.1-5.1c-2.7-1.7-6-2.7-9.4-2.7c-9.8 0-17.8 8-17.8 17.8 c0 9.8 8 17.8 17.8 17.8c4.2 0 8.1-1.5 11.2-4c-0.7-1.6-1.4-3.7-1.9-5.4C47.3 131.9 45.4 132.5 43.3 132.5z"/><path fill="#8A8A8A" d="M46.6 130.6c-0.1-0.3-0.1-0.6-0.2-1.1c-2.1-1.4-3.6-4.9-3.6-4.9c-0.7 1.3 0.5 4.5 0.5 4.5 c-1.3-0.7-3.8-5.2-3.8-5.2c-0.3 0.6 0.8 3.7 0.8 3.7c-1.2-0.6-4-5.4-4-5.4c-0.3 1.1 0.9 4.1 0.9 4.1c-1.6-1.2-3-4.2-3.8-6.1 c-0.2 0.7-0.3 1.5-0.3 2.3c0 5.6 4.5 10.1 10.1 10.1c2.1 0 4.1-0.7 5.7-1.8c-0.6-1.9-1-3.4-1-3.4C46.4 129.1 46.6 130.6 46.6 130.6 z"/><path fill="#8A8A8A" d="M46.6 130.6c-0.1-0.3-0.1-0.6-0.2-1.1c-2.1-1.4-3.6-4.9-3.6-4.9c-0.7 1.3 0.5 4.5 0.5 4.5 c-1.3-0.7-3.8-5.2-3.8-5.2c-0.3 0.6 0.8 3.7 0.8 3.7c-1.2-0.6-4-5.4-4-5.4c-0.3 1.1 0.9 4.1 0.9 4.1c-1.6-1.2-3-4.2-3.8-6.1 c-0.2 0.7-0.3 1.5-0.3 2.3c0 5.6 4.5 10.1 10.1 10.1c2.1 0 4.1-0.7 5.7-1.8c-0.6-1.9-1-3.4-1-3.4C46.4 129.1 46.6 130.6 46.6 130.6 z"/><path fill="#EFEEEE" d="M46.6 130.6c-0.1-0.3-0.1-0.6-0.2-1.1c-2.1-1.4-3.6-4.9-3.6-4.9c-0.7 1.3 0.5 4.5 0.5 4.5 c-1.3-0.7-3.8-5.2-3.8-5.2c-0.3 0.6 0.8 3.7 0.8 3.7c-1.2-0.6-4-5.4-4-5.4c-0.3 1.1 0.9 4.1 0.9 4.1c-1.6-1.2-3-4.2-3.8-6.1 c-0.2 0.7-0.3 1.5-0.3 2.3c0 5.6 4.5 10.1 10.1 10.1c2.1 0 4.1-0.7 5.7-1.8c-0.6-1.9-1-3.4-1-3.4C46.4 129.1 46.6 130.6 46.6 130.6 z"/><polygon fill="#8A8A8A" points="66.5,35.9 66.5,34.8 66.5,34.8 66.5,34.7 66.4,34.6"/><polygon fill="#626363" points="66.5,35.9 66.5,34.8 66.5,34.8 66.5,34.7 66.4,34.6"/><path fill="#8A8A8A" d="M95.9 36c-4.2 2.5-9.2 5.5-14.1 9c-2.8 2.1-5.8 4.6-8.9 7.3c-0.7 0.6-1.4 1.3-2.2 2.1 C54.3 70.7 43.8 84.6 43.8 84.6s7.9-13.1 21.1-26.9c3.5-3.8 7.3-7.5 11.1-10.7l-3.1-2.8l1.7 1.6l0.5 1L59 62.7l-13.9 14l-7.5 12.1 l-5.6 10.1l-3.7 5.3c1.7-1.2 7.4-4 12.1-2.5c0 0 10.5-27.8 35.3-41.2c0 0-1.2-0.4-4.8 0.5c0 0 6.7-5.4 18.3-4.5 c0 0-1.3-1.5-4.5-2.3c0 0 4.2-1.8 12.6-0.5c0 0-0.7-1.3-2.3-2.1c0 0 5.3 0.3 9.9 2.8c0 0-0.5-1.7-1.3-2.1c0 0 7.8 1.3 11.3 8.1 c0 0 6.6-9 8.2-17.7c1.6-8.7-4.3-13.3-10.2-12.6c-1 0-2.1 0.2-3.2 0.4c-2.8 0.6-6.7 1.8-11.5 4.1C97.4 35.1 96.6 35.5 95.9 36z"/><path fill="#8A8A8A" d="M97.5 164.6l-2.7-1.1l-4.2-1.8l-4.3-3.7c0 0-2.6-3.1-4.2-7.4c-1.3-3.5-2.4-11-2.8-13.9 c-0.1 1.9-0.1 3.9 0.3 6.1l-2.5-1.5l-2.7-6.2l2.4-11.1l8.9-6.3l-12.2-8.5l-0.9-2.6c0 0-0.1-0.9 0-2.5c-1.3-4.6-0.6-9.9 1.9-15.2 c4.3-9.3 12.1-9.5 18.3-8.8c0.5-0.1 1-0.2 1.6-0.3c24.1-4.6 7.3-2.5 7.3-2.5l2.9-1.7l3.6 1.3c0 0 0.7-0.4 1.9-0.8 c2.6-2.2 5.5-5.7 9.4-3.2c0 0 0-0.1 0-0.1c-1.1-4.1-3.6-7.6-6.9-9c-3.3-1.3-10.7-0.1-10.7-0.1c1.3-1.7 2.1-1.8 2.1-1.8 c-3.2-0.1-7.1 2.8-7.1 2.8c0.7-2.1 3.2-3.1 3.2-3.1c-5.3 0.2-8.1 4.6-9.1 5c0 0 0 0-0.1 0c-1.3 0.4-11 2.4-22.1 12.1 C52.1 92.1 60.8 115 60.8 115c-0.5-5.2 0.6-6.1 0.6-6.1c-0.6 4.1 2 10 2 10c-0.7-3.5 0.4-4.8 0.4-4.8c0.4 5.3 3.9 10.9 3.9 10.9 c-1.1-2.2-0.7-4.7-0.7-4.7c0.7 1.1 4 5.8 4 5.8s-4 2.8-5 14.5c0 13 10.7 20.5 10.7 20.5c-2.6-3.3-2.4-5.8-2.4-5.8 c4.6 6.6 6.3 7.6 6.3 7.6c-1.8-2.1-1.3-3.4-1.3-3.4c6 6.4 8.1 7 8.1 7c-1.8-1.7-1.8-2.8-1.8-2.8c11.4 3.4 21.2 2.4 26.8 1.1 l-10.4 0.2L97.5 164.6z"/><polygon fill="#8A8A8A" points="66.4,34.5 66.4,34.6 66.4,34.6"/><polygon fill="#8A8A8A" points="66.4,34.5 66.4,34.6 66.4,34.6"/><path fill="#8A8A8A" d="M77.2 32.5l0-1.9c0 0 0 0 0 0c-0.1 0.1-0.2 3.8-0.3 4.9l0 0L77.2 32.5z"/><path fill="#626363" d="M77.2 32.5l0-1.9c0 0 0 0 0 0c-0.1 0.1-0.2 3.8-0.3 4.9l0 0L77.2 32.5z"/><path fill="#8A8A8A" d="M28 104.7l0.4-0.5c-0.3 0.2-0.5 0.4-0.5 0.5c4-16.4 14.2-30.5 25.7-41.7C65.1 51.8 74.2 46 74.2 46 l-7.6-7.4l2.6 7.4C56 53.9 38.7 76.5 38.7 76.5L27.5 65.8c-4.3 6.2-7.7 12-10.5 17.7c-4.1 8.2-3.7 13.9-3.6 16.5s1.9 5.2 3.7 6.7 c1.9 1.6 4.8 3.9 4.8 3.9C24.5 106.6 28 104.7 28 104.7z"/><path fill="#929292" d="M28 104.7l0.4-0.5c-0.3 0.2-0.5 0.4-0.5 0.5c4-16.4 14.2-30.5 25.7-41.7C65.1 51.8 74.2 46 74.2 46 l-7.6-7.4l2.6 7.4C56 53.9 38.7 76.5 38.7 76.5L27.5 65.8c-4.3 6.2-7.7 12-10.5 17.7c-4.1 8.2-3.7 13.9-3.6 16.5s1.9 5.2 3.7 6.7 c1.9 1.6 4.8 3.9 4.8 3.9C24.5 106.6 28 104.7 28 104.7z"/><path fill="#8A8A8A" d="M40.8 49.7c2.5-2.4 4.8-4.5 7.1-6.4c-4 3.1-7.7 6.1-13.9 13.8c-0.7 0.8-1.3 1.6-1.9 2.4 C34.6 56.4 37.7 52.8 40.8 49.7z"/><path fill="#A4A4A4" d="M40.8 49.7c2.5-2.4 4.8-4.5 7.1-6.4c-4 3.1-7.7 6.1-13.9 13.8c-0.7 0.8-1.3 1.6-1.9 2.4 C34.6 56.4 37.7 52.8 40.8 49.7z"/><polygon fill="#8A8A8A" points="66.4,34.6 66.4,34.6 66.6,38.6 66.5,35.9"/><polygon fill="#8A8A8A" points="66.4,34.6 66.4,34.6 66.6,38.6 66.5,35.9"/><polygon fill="#626363" points="66.4,34.6 66.4,34.6 66.6,38.6 66.5,35.9"/><path fill="#8A8A8A" d="M37.7 88.8l7.5-12.1l13.9-14l16-15.9l-0.5-1l-1.7-1.6l-6.2-5.6l7.6 7.4c0 0-9.1 5.8-20.6 16.9 C42 74.1 31.9 88.2 27.9 104.6c0-0.1 0.2-0.2 0.5-0.5l3.7-5.3L37.7 88.8z"/><path fill="#8A8A8A" d="M37.7 88.8l7.5-12.1l13.9-14l16-15.9l-0.5-1l-1.7-1.6l-6.2-5.6l7.6 7.4c0 0-9.1 5.8-20.6 16.9 C42 74.1 31.9 88.2 27.9 104.6c0-0.1 0.2-0.2 0.5-0.5l3.7-5.3L37.7 88.8z"/><path fill="#626363" d="M112.9 30.2c-1 0-2.1 0.2-3.2 0.4c-2.8 0.6-6.7 1.8-11.5 4.1c-0.8 0.4-1.6 0.8-2.3 1.3 c-4.2 2.5-9.2 5.5-14.1 9c-2.8 2.1-5.8 4.6-8.9 7.3c-0.7 0.6-1.4 1.3-2.2 2.1C54.3 70.7 43.8 84.6 43.8 84.6s7.9-13.1 21.1-26.9 c3.5-3.8 7.3-7.5 11.1-10.7l-3.1-2.8l-6.2-5.6l7.6 7.4c0 0-9.1 5.8-20.6 16.9C42 74.1 31.8 88.4 27.8 104.8c0 0 0.1 0 0.3-0.1 l0.2-0.4l-0.2 0.4c1.8-0.3 7.7-2.7 12.4-3c0 0 10.5-27.8 35.3-41.2c0 0-1.2-0.4-4.8 0.5c0 0 6.7-5.4 18.3-4.5c0 0-1.3-1.5-4.5-2.3 c0 0 4.2-1.8 12.6-0.5c0 0-0.7-1.3-2.3-2.1c0 0 5.3 0.3 9.9 2.8c0 0-0.5-1.7-1.3-2.1c0 0 7.8 1.3 11.3 8.1c0 0 6.6-9 8.2-17.7 C124.8 34.1 118.9 29.5 112.9 30.2z"/><path fill="#626363" d="M27.8 104.9C27.8 104.8 27.8 104.8 27.8 104.9C27.8 104.8 27.8 104.8 27.8 104.9z"/><path fill="#8A8A8A" d="M50.1 105.7c0 0-0.4 0.6-0.9 1.7c5 3.1 8.3 8.7 8.3 15c0 5.6-2.6 10.5-6.6 13.8c0.3 0.7 0.6 1.4 0.9 1.9 l6.5-6.7l1-12.4l-4.7-10.9L50.1 105.7z"/><path fill="#8A8A8A" d="M57.5 122.4c0-6.3-3.3-11.9-8.3-15c-0.6 1.2-1.4 2.9-2.1 5.1c0.5 0.1 0.9 0.2 0.9 0.2l0.1 0.9 c3.2 1.7 5.3 5 5.3 8.9c0 3.4-1.7 6.5-4.4 8.3c0.5 1.7 1.2 3.8 1.9 5.4C54.9 132.9 57.5 127.9 57.5 122.4z"/><path fill="#8A8A8A" d="M57.5 122.4c0-6.3-3.3-11.9-8.3-15c-0.6 1.2-1.4 2.9-2.1 5.1c0.5 0.1 0.9 0.2 0.9 0.2l0.1 0.9 c3.2 1.7 5.3 5 5.3 8.9c0 3.4-1.7 6.5-4.4 8.3c0.5 1.7 1.2 3.8 1.9 5.4C54.9 132.9 57.5 127.9 57.5 122.4z"/><path fill="#8A8A8A" d="M46.8 128.3l-0.3 1.3c0 0-0.1-0.1-0.1-0.1c0 0.5 0.1 0.8 0.2 1.1c0 0-0.2-1.5 1.4-3.2c0 0 0.4 1.5 1 3.4 c2.6-1.8 4.4-4.8 4.4-8.3c0-3.8-2.2-7.2-5.3-8.9l0.4 5.1L46.8 128.3z"/><path fill="#8A8A8A" d="M46.8 128.3l-0.3 1.3c0 0-0.1-0.1-0.1-0.1c0 0.5 0.1 0.8 0.2 1.1c0 0-0.2-1.5 1.4-3.2c0 0 0.4 1.5 1 3.4 c2.6-1.8 4.4-4.8 4.4-8.3c0-3.8-2.2-7.2-5.3-8.9l0.4 5.1L46.8 128.3z"/><path fill="#8A8A8A" d="M46.8 128.3l-0.3 1.3c0 0-0.1-0.1-0.1-0.1c0 0.5 0.1 0.8 0.2 1.1c0 0-0.2-1.5 1.4-3.2c0 0 0.4 1.5 1 3.4 c2.6-1.8 4.4-4.8 4.4-8.3c0-3.8-2.2-7.2-5.3-8.9l0.4 5.1L46.8 128.3z"/><path fill="#8A8A8A" d="M49 130.7c-1.6 1.1-3.6 1.8-5.7 1.8c-5.6 0-10.1-4.5-10.1-10.1c0-0.8 0.1-1.5 0.3-2.3c1-4.5 5-7.8 9.8-7.8 c1.3 0 2.4 0.2 3.5 0.7c0.1-0.2 0.1-0.4 0.2-0.6c0.7-2.2 1.5-3.9 2.1-5.1c-2.7-1.7-6-2.7-9.4-2.7c-9.8 0-17.8 8-17.8 17.8 s8 17.8 17.8 17.8c4.2 0 8.1-1.5 11.2-4C50.2 134.5 49.5 132.5 49 130.7z"/><path fill="#DCDBDB" d="M37.3 126.3c0 0-1.2-3-0.9-4.1c0 0 2.8 4.7 4 5.4c0 0-1.1-3.1-0.8-3.7c0 0 2.5 4.5 3.8 5.2 c0 0-1.2-3.1-0.5-4.5c0 0 1.5 3.5 3.6 4.9c-0.2-3 0.7-9.7 0.7-9.7c-1.4 1.6-1.9 4.3-1.9 4.3c-0.1-4.2 0.7-8 1.7-11 c-1.1-0.4-2.3-0.7-3.6-0.7c-4.8 0-8.8 3.3-9.8 7.8C34.3 122.1 35.7 125.1 37.3 126.3z"/><path fill="#8A8A8A" d="M119 74l-2 0.9c2.1 0.2 4.3 1 5.9 3c-0.7-2.1-1.7-3.9-3.1-4.9c-0.1-0.1-0.2-0.1-0.3-0.2 C120.6 76.7 119 74 119 74z"/><path fill="#8A8A8A" d="M141 114.4c0.7-0.1 1.4-0.5 1.9-1c0.5-0.5 0.6-0.8 0.6-0.8c0 0 0 0 0-0.1 C143.1 113.6 141.7 114.2 141 114.4z"/><path fill="#EFEEEE" d="M141 114.4c0.7-0.1 1.4-0.5 1.9-1c0.5-0.5 0.6-0.8 0.6-0.8c0 0 0 0 0-0.1 C143.1 113.6 141.7 114.2 141 114.4z"/><path fill="#8A8A8A" d="M76.1 92.5c0-0.5 3.7-6.9 3.7-6.9s6.3-3.6 6.6-3.9c0.1-0.1 0.6-0.1 1.4 0c1.5-0.6 3.2-1.2 5-1.6 c-6.3-0.7-14.1-0.5-18.3 8.8c-2.4 5.3-2.9 10.5-1.6 15.2C73 101.4 73.1 96.9 76.1 92.5C76.1 92.5 76.1 92.5 76.1 92.5z"/><path fill="#8A8A8A" d="M110.2 76c1.7-0.6 4.3-1.4 6.9-1.1l2-0.9c0 0 1.6 2.7 0.5-1.2C115.7 70.3 112.7 73.9 110.2 76z"/><path fill="#8A8A8A" d="M110.2 76c1.7-0.6 4.3-1.4 6.9-1.1l2-0.9c0 0 1.6 2.7 0.5-1.2C115.7 70.3 112.7 73.9 110.2 76z"/><path fill="#8A8A8A" d="M143.7 111.7c0 0.3 0 0.5-0.2 0.8C143.7 112.2 143.7 112 143.7 111.7z"/><path fill="#8A8A8A" d="M143.7 111.7c0 0.3 0 0.5-0.2 0.8C143.7 112.2 143.7 112 143.7 111.7z"/><path fill="#8A8A8A" d="M124.4 92.5c0.1 0.1 0.2 0.1 0.2 0.1c-0.1 0-0.1 0-0.2 0c0 2.6 0.5 5.5 4.3 7.3c0.5 0.2 0.9 0.3 1.3 0.5 l0.6-0.3l-1.3-1.8l-2.7-2.2l-1.4-11.8l-1.6-5.2c-0.2-0.4-0.5-0.8-0.8-1.2c1.4 4.3 1.6 9.9 1.6 11.9 C124.5 90.6 124.4 91.5 124.4 92.5z"/><path fill="#8A8A8A" d="M78.5 140.4c-1.5-3.8-0.3-10.2-0.3-10.2c-1.1 0.7-2.1 5.6-2.1 5.6c-3.1-12.5 13.3-18.7 13.3-18.7 c-9.9-2.4-15.2-7.2-16.9-13.1c-0.1 1.5 0 2.5 0 2.5l0.9 2.6l12.2 8.5l-8.9 6.3l-2.4 11.1l2.7 6.2l2.5 1.5c-0.3-2.1-0.4-4.1-0.3-6.1 c-0.1-0.7-0.2-1.2-0.2-1.2C78.4 135.9 78.5 140.4 78.5 140.4z"/><path fill="#8A8A8A" d="M78.5 140.4c-1.5-3.8-0.3-10.2-0.3-10.2c-1.1 0.7-2.1 5.6-2.1 5.6c-3.1-12.5 13.3-18.7 13.3-18.7 c-9.9-2.4-15.2-7.2-16.9-13.1c-0.1 1.5 0 2.5 0 2.5l0.9 2.6l12.2 8.5l-8.9 6.3l-2.4 11.1l2.7 6.2l2.5 1.5c-0.3-2.1-0.4-4.1-0.3-6.1 c-0.1-0.7-0.2-1.2-0.2-1.2C78.4 135.9 78.5 140.4 78.5 140.4z"/><path fill="#8A8A8A" d="M109.3 76.7c0.3-0.2 0.6-0.4 0.9-0.7c-1.2 0.4-1.9 0.8-1.9 0.8l-3.6-1.3l-2.9 1.7c0 0 16.7-2.1-7.3 2.5 c-0.5 0.1-1.1 0.2-1.6 0.3c1.8 0.2 3.5 0.5 4.9 0.6C105.2 80.8 106.4 78.7 109.3 76.7z"/><path fill="#8A8A8A" d="M109.3 76.7c0.3-0.2 0.6-0.4 0.9-0.7c-1.2 0.4-1.9 0.8-1.9 0.8l-3.6-1.3l-2.9 1.7c0 0 16.7-2.1-7.3 2.5 c-0.5 0.1-1.1 0.2-1.6 0.3c1.8 0.2 3.5 0.5 4.9 0.6C105.2 80.8 106.4 78.7 109.3 76.7z"/><path fill="#8A8A8A" d="M81.3 127c0 0.5-0.5 2.2-0.7 3.6c0.7-2.2 1.7-4.2 2.8-6C82.4 125.5 81.3 126.6 81.3 127z"/><path fill="#8A8A8A" d="M81.3 127c0 0.5-0.5 2.2-0.7 3.6c0.7-2.2 1.7-4.2 2.8-6C82.4 125.5 81.3 126.6 81.3 127z"/><path fill="#EFEEEE" d="M81.3 127c0 0.5-0.5 2.2-0.7 3.6c0.7-2.2 1.7-4.2 2.8-6C82.4 125.5 81.3 126.6 81.3 127z"/><path fill="#8A8A8A" d="M83.3 111.6c-0.5-0.8-5.4-4-6.2-4.9s-3.3-6.8-3.3-6.8s1.7-6.8 1.7-7.4c-2.3 4.4-2.9 8.9-3 11.6 c1.7 5.9 7 10.8 16.9 13.1c0 0-16.4 6.2-13.3 18.7c0 0 1-4.9 2.1-5.6c0 0-1.2 6.4 0.3 10.2c0 0-0.1-4.5 0.7-4.8 c0 0 0.1 0.4 0.2 1.2c0.1-2.2 0.6-4.2 1.2-6.1c0.2-1.3 0.7-3.1 0.7-3.6c0-0.4 1.2-1.5 2.1-2.4c2.1-3.4 4.9-6.3 7.7-8.6 c-0.8-0.3-1.7-0.6-2.1-0.8C88.4 114.8 83.9 112.3 83.3 111.6z"/><path fill="#8A8A8A" d="M83.3 111.6c-0.5-0.8-5.4-4-6.2-4.9s-3.3-6.8-3.3-6.8s1.7-6.8 1.7-7.4c-2.3 4.4-2.9 8.9-3 11.6 c1.7 5.9 7 10.8 16.9 13.1c0 0-16.4 6.2-13.3 18.7c0 0 1-4.9 2.1-5.6c0 0-1.2 6.4 0.3 10.2c0 0-0.1-4.5 0.7-4.8 c0 0 0.1 0.4 0.2 1.2c0.1-2.2 0.6-4.2 1.2-6.1c0.2-1.3 0.7-3.1 0.7-3.6c0-0.4 1.2-1.5 2.1-2.4c2.1-3.4 4.9-6.3 7.7-8.6 c-0.8-0.3-1.7-0.6-2.1-0.8C88.4 114.8 83.9 112.3 83.3 111.6z"/><path fill="#8A8A8A" d="M83.3 111.6c-0.5-0.8-5.4-4-6.2-4.9s-3.3-6.8-3.3-6.8s1.7-6.8 1.7-7.4c-2.3 4.4-2.9 8.9-3 11.6 c1.7 5.9 7 10.8 16.9 13.1c0 0-16.4 6.2-13.3 18.7c0 0 1-4.9 2.1-5.6c0 0-1.2 6.4 0.3 10.2c0 0-0.1-4.5 0.7-4.8 c0 0 0.1 0.4 0.2 1.2c0.1-2.2 0.6-4.2 1.2-6.1c0.2-1.3 0.7-3.1 0.7-3.6c0-0.4 1.2-1.5 2.1-2.4c2.1-3.4 4.9-6.3 7.7-8.6 c-0.8-0.3-1.7-0.6-2.1-0.8C88.4 114.8 83.9 112.3 83.3 111.6z"/><path fill="#DCDBDB" d="M114.4 103.9c0.8 0.7 0.8 1.5 0.4 1.8c0 0 0 0 0 0c1 0.2 2.3 0.1 3.6-0.2c1.3-0.3 1.9-1 2.3-1.9 c-0.1 0-0.1 0-0.1 0s-0.8 0-0.6-1.7c0.1-1.7 1-1.3 1-1.3s0 0 0 0c0-0.1 0-0.2 0-0.2s-1.7-3.6-5.4-2c-3.7 1.6-3.8 4.6-3.7 4.8 c0 0.1 0.1 0.3 0.1 0.4c0 0 0 0 0 0C112.5 102.9 113.5 103.3 114.4 103.9z"/><path fill="#C8C8C8" d="M82 99.1c1.6-8.7 11.7-12.4 11.7-12.4C79.3 86.5 82 99.1 82 99.1z"/><path fill="#C8C8C8" d="M113.7 81c5.2-2.3 7.9 1.9 7.9 1.9C119.1 75.9 113.7 81 113.7 81z"/><path fill="#675045" d="M124.6 92.6c0 0-0.1-0.1-0.2-0.1c0 0 0 0.1 0 0.1C124.4 92.6 124.5 92.6 124.6 92.6z"/><path fill="#EFEEEE" d="M84.1 41.1L84 40.7c0 0 0 0 0 0L84.1 41.1L84.1 41.1z"/><path fill="#EFEEEE" d="M84.1 41.1L84 40.7c0 0 0 0 0 0L84.1 41.1L84.1 41.1z"/><polygon fill="#8A8A8A" points="80.9,43 80.9,43 81.3,43.4"/><polygon fill="#8A8A8A" points="80.9,43 80.9,43 81.3,43.4"/><path fill="#EFEEEE" d="M87.2 39.2L87.2 39.2l-2.9 2.2l0-0.2l-2.9 2.2l-5 3.9l-0.1-0.1l0 0L76 47c-4 3.5-7.8 7.1-11.1 10.6 C52.9 70.6 43.8 84.6 43.8 84.6c5.7-8.8 19-22.5 26.9-30.1c0.5-0.5 1-1 1.5-1.5c0.2-0.2 0.5-0.4 0.7-0.6c0.4-0.4 0.8-0.8 1.2-1.1 c2.4-2.2 5-4.3 7.7-6.2c6.3-4.8 11.8-8.1 16.4-10.3c4.2-2.2 8.2-3.5 11.5-4.1c3.8-0.8 5.7-0.5 5.7-0.5s-7.6-2.5-20.1 3.5 c-2 1.1-4 2.2-6 3.5l0.3 0.3L87.2 39.2z"/><path fill="#8A8A8A" d="M74.1 51.2c-0.4 0.3-0.8 0.7-1.2 1.1c3.1-2.8 6.1-5.2 8.9-7.3C79.1 47 76.4 49 74.1 51.2z"/><path fill="#8A8A8A" d="M74.1 51.2c-0.4 0.3-0.8 0.7-1.2 1.1c3.1-2.8 6.1-5.2 8.9-7.3C79.1 47 76.4 49 74.1 51.2z"/><path fill="#EFEEEE" d="M74.1 51.2c-0.4 0.3-0.8 0.7-1.2 1.1c3.1-2.8 6.1-5.2 8.9-7.3C79.1 47 76.4 49 74.1 51.2z"/><path fill="#8A8A8A" d="M64.8 57.7C51.7 71.5 43.8 84.6 43.8 84.6S52.9 70.6 64.8 57.7z"/><path fill="#8A8A8A" d="M64.8 57.7C51.7 71.5 43.8 84.6 43.8 84.6S52.9 70.6 64.8 57.7z"/><path fill="#EFEEEE" d="M64.8 57.7C51.7 71.5 43.8 84.6 43.8 84.6S52.9 70.6 64.8 57.7z"/><path fill="#8A8A8A" d="M70.7 54.5c-7.9 7.6-21.2 21.3-26.9 30.1C43.8 84.6 54.3 70.7 70.7 54.5z"/><path fill="#8A8A8A" d="M70.7 54.5c-7.9 7.6-21.2 21.3-26.9 30.1C43.8 84.6 54.3 70.7 70.7 54.5z"/><path fill="#EFEEEE" d="M70.7 54.5c-7.9 7.6-21.2 21.3-26.9 30.1C43.8 84.6 54.3 70.7 70.7 54.5z"/><path fill="#8A8A8A" d="M109.7 30.6c-3.3 0.6-7.4 2-11.5 4.1C103 32.3 106.9 31.2 109.7 30.6z"/><path fill="#8A8A8A" d="M109.7 30.6c-3.3 0.6-7.4 2-11.5 4.1C103 32.3 106.9 31.2 109.7 30.6z"/><path fill="#EFEEEE" d="M76 47c-4 3.5-7.8 7.1-11.1 10.6C52.9 70.6 43.8 84.6 43.8 84.6c5.7-8.8 19-22.5 26.9-30.1 c0.5-0.5 1-1 1.5-1.5c0.2-0.2 0.5-0.4 0.7-0.6c0.4-0.4 0.8-0.8 1.2-1.1c2.4-2.2 5-4.3 7.7-6.2c6.3-4.8 11.8-8.1 16.4-10.3 c4.8-2.3 8.7-3.6 11.5-4.1c3.2-0.6 5.7-0.5 5.7-0.5s-7.6-2.5-20.1 3.5c-2 1.1-4 2.2-6 3.5l0.3 0.3l-2.5 1.9l-0.1-0.1l-2.9 2.2 l0-0.2L80.9 43L76 47l0.2 0.1"/><path fill="#8A8A8A" d="M77 35.5c0 0.2 0 0.3 0 0.3L77 35.5L77 35.5z"/><path fill="#8A8A8A" d="M77 35.5c0 0.2 0 0.3 0 0.3L77 35.5L77 35.5z"/><polygon fill="#8A8A8A" points="75.1,42.5 66.5,34.7 66.5,34.8"/><polygon fill="#8A8A8A" points="75.1,42.5 66.5,34.7 66.5,34.8"/><polygon fill="#626363" points="75.1,42.5 66.5,34.7 66.5,34.8"/><path fill="#8A8A8A" d="M77 35.5L77 35.5L77 35.5C77 35.5 77 35.5 77 35.5L77 35.5z"/><path fill="#8A8A8A" d="M77 35.5L77 35.5L77 35.5C77 35.5 77 35.5 77 35.5L77 35.5z"/><path fill="#8A8A8A" d="M77 35.5L77 35.5L77 35.5C77 35.5 77 35.5 77 35.5L77 35.5z"/><path fill="#EFEEEE" d="M84 40.7c-0.1 0.1-0.2 0.2-0.3 0.2l0.4 0.1L84 40.7z"/><path fill="#EFEEEE" d="M84 40.7c-0.1 0.1-0.2 0.2-0.3 0.2l0.4 0.1L84 40.7z"/><path fill="#EFEEEE" d="M84 40.7c-0.1 0.1-0.2 0.2-0.3 0.2l0.4 0.1L84 40.7z"/><path fill="#EFEEEE" d="M87.1 39.2L87.1 39.2L87.1 39.2l2.6-1.8l-0.3-0.3c-0.9 0.6-1.8 1.1-2.7 1.7L87.1 39.2z"/><path fill="#EFEEEE" d="M87.1 39.2L87.1 39.2L87.1 39.2l2.6-1.8l-0.3-0.3c-0.9 0.6-1.8 1.1-2.7 1.7L87.1 39.2z"/><path fill="#EFEEEE" d="M87.1 39.2L87.1 39.2L87.1 39.2l2.6-1.8l-0.3-0.3c-0.9 0.6-1.8 1.1-2.7 1.7L87.1 39.2z"/><polygon fill="#626363" points="66.5,34.8 66.5,35.9 66.7,38 66.5,34.8"/><polygon fill="#626363" points="71.8,43.3 72.8,44.2 75.9,47 75.9,47"/><polygon fill="#626363" points="71.8,43.3 66.8,38.7 66.7,38 66.5,35.9 66.6,38.6 72.8,44.2"/><path fill="#626363" d="M66.7 38l0 0.5l5.1 4.8l4.1 3.7c0.7-0.6 1.4-1.2 2.1-1.7l-3-2.7l-8.5-7.7L66.7 38z"/><polygon fill="#626363" points="66.7,38 66.8,38.7 71.8,43.3 66.8,38.5"/><path fill="#626363" d="M83.6 41L76 38.4l4.9 4.6C81.8 42.3 82.7 41.6 83.6 41z"/><path fill="#EFEEEE" d="M84.1 41.1L84.1 41.1L83.6 41c-0.9 0.7-1.9 1.4-2.8 2.1l0.4 0.4l2.9-2.2L84.1 41.1L84.1 41.1z"/><path fill="#EFEEEE" d="M84.1 41.1L84.1 41.1l-0.4-0.2c0 0 0 0-0.1 0L84.1 41.1z"/><path fill="#EFEEEE" d="M84 40.7l0.1 0.4l0.1 0l-0.1 0.1l0 0.2l2.9-2.2l-0.4-0.3C85.8 39.4 84.9 40 84 40.7z"/><polygon fill="#8A8A8A" points="86.7,38.8 86.7,38.8 82.7,35.1 83.4,38.1 82.8,35.3"/><polygon fill="#EFEEEE" points="87.1,39.2 87.1,39.2 86.7,38.8 86.7,38.8"/><polygon fill="#EFEEEE" points="84.1,41.1 84.2,41.2 84.3,41.1"/><path fill="#626363" d="M77.2 35.5l1.6 0.6l-1.4-5.6c0 0 0 0 0 0l-0.2 2L77.2 35.5z"/><path fill="#797979" d="M66.1 31.5c1.2-0.4 5.7-1.9 7.7-1.9c2 0 3.3 0.1 4 0.4l-0.5 0.3l0 0.3c0 0 0.1 0 0.1-0.1l0-0.1l0 0.1 c0 0 0 0 0 0l0-0.1l1.1-0.5c0.1 0 0.2-0.1 0.2-0.1s-9.5-4.6-30.8 13.4c1-0.8 1.9-1.5 3-2.4C56.2 36.6 64.9 31.9 66.1 31.5z"/><path fill="#675045" d="M27.4 65.7L27.4 65.7c1.5-2 3.1-4.1 4.7-6.2C29.3 63 27.4 65.7 27.4 65.7z"/><path fill="#A4A4A4" d="M69.2 46l-2.6-7.4l-0.3-4.1l0 0l0-0.1l0.9-0.5l2.1-1.3l7.6 2.7c0-1.1 0.2-4.8 0.3-4.9c0 0 0 0 0 0l0-0.3 l0.5-0.3c-0.7-0.3-2-0.4-4-0.4c-2 0-6.5 1.4-7.7 1.9c-1.2 0.4-9.9 5.1-15.2 9.4c-1 0.8-2 1.6-3 2.4c-2.2 1.9-4.6 4-7.1 6.4 c-3.2 3.1-6.3 6.7-8.7 9.8c-1.7 2.1-3.2 4.2-4.7 6.3l11.2 10.7C38.7 76.5 56 53.9 69.2 46z"/><polygon fill="#626363" points="66.4,34.6 66.6,38.6 66.4,34.6"/><path fill="#4E9DD6" d="M77.5 30.5c0.3-0.1 0.8-0.4 1.1-0.5L77.5 30.5L77.5 30.5z"/><path fill="#A4A4A4" d="M77 35.5C77 35.5 77 35.5 77 35.5l-7.6-2.7l-2.1 1.3l2.2-1.2L77 35.5z"/><path fill="#4E9DD6" d="M77.4 30.4L77.4 30.4C77.4 30.5 77.4 30.5 77.4 30.4L77.4 30.4z"/><polygon fill="#626363" points="75.7,38.3 80.9,43 83.4,41"/><path fill="#DDDDDC" d="M89.4 37.1L80.5 29l-2 0.9c-0.3 0.1-0.8 0.4-1.1 0.5l1.6 5.7l0 0v0l-2-0.6l-7.5-2.6l-2.2 1.2l-0.7 0.4 l-0.2 0.1l8.7 8l3 2.7c0.9-0.8 1.9-1.5 2.8-2.2l-5.2-4.7l0.3 0.1l7.7 2.6c0 0 0 0 0.1 0l0 0c0.1-0.1 0.2-0.2 0.3-0.2l-0.6-2.6 l-0.7-2.9l4 3.7C87.6 38.2 88.5 37.6 89.4 37.1z"/><polygon fill="#626363" points="77,35.5 78.8,36.1 77.2,32.3"/><path fill="#675045" d="M124.8 92.9l-0.2-0.4l-0.2 0c0.1 0.1 0.1 0.1 0.1 0.1c-0.1 0-0.1 0-0.2 0c0 0.1 0 0.2 0 0.3 C124.7 92.9 124.8 92.9 124.8 92.9z"/><path fill="none" d="M112.2 105.4c1.3 1.3 2.3 0.6 2.6 0.3c1 0.2 2.3 0.1 3.6-0.2c1.3-0.3 1.9-1 2.3-1.9c0.2 0 0.8 0 1-1.1 c0.2-1.9-0.6-1.9-0.7-1.9c0-0.1 0-0.2 0-0.2s-1.7-3.6-5.4-2c-3.7 1.6-3.8 4.6-3.7 4.8c0 0.1 0.1 0.3 0.1 0.4 C111.2 104.3 112.2 105.4 112.2 105.4z"/><path fill="#EFEEEE" d="M79.4 136.9C79.4 137 79.4 137 79.4 136.9L79.4 136.9z"/><path fill="#797979" d="M114.4 103.9c-0.8-0.7-1.8-1.1-2.5-0.4c0 0 0 0 0 0c-0.6 0.7 0.4 1.8 0.4 1.8c1.3 1.3 2.3 0.6 2.6 0.3 c0 0 0 0 0 0C115.1 105.5 115.2 104.6 114.4 103.9z"/><path fill="#797979" d="M120.9 100.6C120.9 100.6 120.9 100.6 120.9 100.6c0 0-0.8-0.4-1 1.3c-0.1 1.7 0.6 1.7 0.6 1.7s0 0 0.1 0 c0.2 0 0.8 0 1-1.1C121.9 100.7 121.1 100.6 120.9 100.6z"/><path fill="#EFEEEE" d="M119.8 72.9c-0.1-0.1-0.2-0.1-0.3-0.2c-3.8-2.4-6.8 1.1-9.4 3.2c1.7-0.6 4.3-1.4 6.9-1.1 c2.1 0.2 4.3 1 5.9 3C122.2 75.8 121.2 74 119.8 72.9z"/><path fill="#DCDBDB" d="M122.8 148.8c0 0 13.6-1 24.1-13.6l0.8 0.5l-2.2 7.3l-7.9 11.8l-6.7 3.6c0 0 2.1-2.3 2.5-9.9 C133.6 148.5 127.6 150.8 122.8 148.8z"/><path fill="#EFEEEE" d="M74.4 88.9c-2.4 5.3-3.2 10.5-1.9 15.2c0.1-2.7 0.6-7.1 3-11.6c2.2-4.1 5.9-8.2 12.2-10.8 c1.5-0.6 3.2-1.2 5.1-1.6C86.5 79.4 78.7 79.5 74.4 88.9z"/><path fill="#8A8A8A" d="M118.5 163.1c-14.6 3.5-21.3-1.6-21.1-1.5s1.6 2.5 1.6 2.5c-3.8-1.8-6.2-5-6.2-5c0.2 0.6 1.1 2.7 1.1 2.7 c-2.1-1.2-4.8-5.7-4.8-5.7c0 1.4 1.7 4.4 1.7 4.4c-6.5-4.4-8.4-15.9-8.4-15.9c-0.7 2.7-0.3 4.2 0 4.8c-0.7-1.1-1.2-2.3-1.6-3.4 c-0.7-3.4-1.3-7.3-1.5-9.2c-0.1-0.7-0.2-1.2-0.2-1.2c-0.8 0.3-0.7 4.8-0.7 4.8c-1.5-3.8-0.3-10.2-0.3-10.2 c-1.1 0.7-2.1 5.6-2.1 5.6c-3.1-12.5 13.3-18.7 13.3-18.7c-9.9-2.4-15.2-7.2-16.9-13.1c-1.3-4.6-0.6-9.9 1.9-15.2 c4.3-9.3 12.1-9.5 18.3-8.8c1.8 0.2 3.5 0.5 4.9 0.6c7.6 0.1 8.7-2 11.6-4c0.3-0.2 0.6-0.4 0.9-0.7c2.6-2.2 5.5-5.7 9.4-3.2 c0 0 0-0.1 0-0.1c-1.1-4.1-3.6-7.6-6.9-9c-3.3-1.3-10.7-0.1-10.7-0.1c1.3-1.7 2.1-1.8 2.1-1.8c-3.2-0.1-7.1 2.8-7.1 2.8 c0.7-2.1 3.2-3.1 3.2-3.1c-5.3 0.2-8.1 4.6-9.1 5c0 0 0 0-0.1 0c-1.3 0.4-11 2.4-22.1 12.1C52.1 92.1 60.8 115 60.8 115 c-0.5-5.2 0.6-6.1 0.6-6.1c-0.6 4.1 2 10 2 10c-0.7-3.5 0.4-4.8 0.4-4.8c0.4 5.3 3.9 10.9 3.9 10.9c-1.1-2.2-0.7-4.7-0.7-4.7 c0.7 1.1 4 5.8 4 5.8s-4 2.8-5 14.5c0 13 10.7 20.5 10.7 20.5c-2.6-3.3-2.4-5.8-2.4-5.8c4.6 6.6 6.3 7.6 6.3 7.6 c-1.8-2.1-1.3-3.4-1.3-3.4c6 6.4 8.1 7 8.1 7c-1.8-1.7-1.8-2.8-1.8-2.8c2.8 0.8 5.4 1.4 8 1.7l1 0.7l18.8 1.8l7-2.8l1.4-2.5 L118.5 163.1z"/><path fill="#626363" d="M86.7 38.8l-4-3.6l0.7 2.9l0.6 2.7C84.9 40 85.8 39.4 86.7 38.8z"/><path fill="#797979" d="M143.7 111.2c0 0-15 19.3-42.7 19.5c0 0-2.8-0.3-4.1 0c-1.2 0.3-5.5 1.9-4.9 8.8c0.6 6.9 8.1 8.1 13.1 8.6 s14.5-1.5 21.7-4.4c7.2-2.9 14.7-8 17.1-14.2c0 0-7.4 8.4-18 12.5c-10.6 4.1-17.3 4.1-21.4 4c-4.1-0.2-10.5-1.7-10.7-8 c-0.1-3.7 2.6-5.3 3.1-5.3s12.2-0.1 19-2c6.7-1.9 12.8-3.4 24-12.6l4.6-4.4L143.7 111.2z"/><path fill="#797979" d="M143.4 110.5c0 0 0.5 0.7-0.4 1.7s1-1 1-1L143.4 110.5z"/><path fill="#DCDBDB" d="M128.7 100c-3.8-1.8-4.3-5.1-4.3-7.1c0 0 0 0 0 0l0-0.3c0 0 0-0.1 0-0.1c0-0.9 0.1-1.9 0.1-2.7 c0-2.1-0.1-7.6-1.6-12c-1.6-2-3.7-2.9-5.9-3c-2.6-0.2-5.2 0.5-6.9 1.1c-0.3 0.2-0.6 0.5-0.9 0.7c-2.9 2-4 4.1-11.6 4 c-1.4-0.1-3.1-0.4-4.9-0.6c-1.8 0.4-3.5 1-5.1 1.6c-6.3 2.6-10 6.7-12.2 10.8c-2.3 4.4-2.9 8.9-3 11.6c1.7 5.9 7 10.8 16.9 13.1 c0 0-16.4 6.2-13.3 18.7c0 0 1-4.9 2.1-5.6c0 0-1.2 6.4 0.3 10.2c0 0-0.1-4.5 0.7-4.8c0 0 0.1 0.4 0.2 1.2l0 0.2 c0.1-0.7 1.8-12.4 11.2-20.4l-0.3 0.2c0.3-0.3 0.6-0.5 0.9-0.8c7.4-6.1 15.4-9 15.4-9c0.1-0.6 1.3-8.4 7.1-10.5 c0.5-0.1 0.9-0.2 1.4-0.3c0 0 0 0-0.1 0l1.6-0.1l3.8-0.6c0.1 0.7 0.1 1.5 0 2.1c1.6 1.7 1.6 4.3 1.6 4.3c0.5-0.3 7.7-1.5 7.7-1.5 l0.1 0C129.6 100.3 129.2 100.2 128.7 100z M82 99.1c0 0-2.7-12.6 11.7-12.4C93.6 86.7 83.6 90.4 82 99.1z M113.7 81 c0 0 5.4-5.1 7.9 1.9C121.6 82.9 118.9 78.7 113.7 81z"/><path fill="#797979" d="M120 92.8c-0.6-1.8-1.6-3.1-2.7-2.6c-1.5 0.6-1.1 4-0.8 5.7c0 0.1 0 0.2 0 0.2c1.9 0 3.2 0.7 4 1.6 C120.7 96.1 120.5 94.3 120 92.8z"/><path fill="#797979" d="M124.4 92.1c0 0 0 0.9 0 1.1c0 0.1 0.5 0 0.5 0l0-0.7L124.4 92.1z"/><path fill="#797979" d="M150.2 125.9c-1.7-1.3-3.9-1.4-3.9-1.4s0.3-3.5-1.5-6.1c0 0 2.4-3.4 2.4-5c0-1.6 0.3-5.7-5.1-8.7 c0 0-3.9-5-13.9-9.3c0 0-1-14.7-1.4-16.8c-0.4-2.1-1.8-5.4-4.1-7.7c0 0-1.7-5.7-5-8.1c0 0 8-11.6 9.1-20.5 c1.1-8.8-3.9-14.4-9.1-15.8c-5.2-1.4-12.9-1.7-20.9 2.2c-8 3.9-8.6 4.5-8.6 4.5s-4.3-4.2-6.2-5.4c-2-1.2-3.7-2.6-10.1-2 c-6.4 0.5-13 4.5-13 4.5s-7.3 4.4-15.4 11.5C35.2 48.6 26 60.8 23.5 64.3c0 0-8.8 12.6-12.1 23.3c-3.3 10.7-1.4 15.7-0.7 17.2 c0.7 1.5 1.4 3.1 9.3 9.4l0 0c-1 2.5-1.6 5.3-1.6 8.1c0 11.7 9.5 21.2 21.2 21.2c1.8 3.9 11.7 23.7 33.2 31.3 c23.8 8.5 40.6 2.7 48.4-2.2s24.4-17.6 28.9-35.7c0 0 1.6-2.1 1.9-4C152.4 131 151.9 127.2 150.2 125.9z M39.7 140.1 c-10.2 0-18.4-8.6-17.7-18.9c0.5-8.9 7.8-16.1 16.7-16.6c3.9-0.2 7.5 0.8 10.5 2.7c-0.6 1.2-1.4 2.9-2.1 5.1 c-0.1 0.2-0.1 0.4-0.2 0.6c-1 3.1-1.8 6.9-1.7 11c0 0 0.5-2.7 1.9-4.3c0 0-0.9 6.7-0.7 9.7c0 0.5 0.1 0.8 0.2 1.1 c0 0-0.2-1.5 1.4-3.2c0 0 0.4 1.5 1 3.4c0.5 1.7 1.2 3.8 1.9 5.4C47.8 138.6 44 140.1 39.7 140.1z M40.5 101.7 c-5.3-0.6-9.9 1.3-11.6 2.5l-0.9 0.5c0 0-3.5 1.9-6 5.9c0 0-2.9-2.3-4.8-3.9c-1.9-1.6-3.7-4.1-3.7-6.7s-0.6-8.2 3.6-16.5 c2.8-5.6 6.2-11.5 10.5-17.7l-0.1-0.1c0 0 1.9-2.7 4.7-6.2c0.6-0.8 1.3-1.6 1.9-2.4c6.2-7.6 9.9-10.6 13.9-13.8 c21.3-18 30.8-13.4 30.8-13.4s-0.1 0-0.2 0.1l2-0.9l8.9 8.1c2-1.2 4-2.4 6-3.5c12.5-6.1 20.2-3.4 20.2-3.4s-2.1-0.5-5.9 0.3 c1.2-0.2 2.3-0.3 3.2-0.4c5.9-0.7 11.8 3.9 10.2 12.6c-1.6 8.7-8.2 17.7-8.2 17.7c-3.5-6.8-11.3-8.1-11.3-8.1 c0.8 0.4 1.3 2.1 1.3 2.1c-4.6-2.5-9.9-2.8-9.9-2.8c1.6 0.7 2.3 2.1 2.3 2.1c-8.4-1.3-12.6 0.5-12.6 0.5c3.2 0.8 4.5 2.3 4.5 2.3 C77.6 55.6 71 61 71 61c3.6-1 4.8-0.5 4.8-0.5C50.9 73.9 40.5 101.7 40.5 101.7z M139.3 116.5c2.1-0.3 3 8.6 3 8.6 c1.2 0.9 2 2.9 2 2.9s3.3-1.1 4.3 1.6c0.9 4-1.5 5.6-1.5 5.6l-0.1 0.4c-0.6 2.9-6 22.6-35.9 29.6c-5.8 1.1-14.9 1.8-25.6-1.4 c0 0 0.1 1.1 1.8 2.8c0 0-2.1-0.7-8.1-7c0 0-0.4 1.2 1.3 3.4c0 0-1.7-1-6.3-7.6c0 0-0.2 2.5 2.4 5.8c0 0-10.7-7.6-10.7-20.5 c1-11.7 5-14.5 5-14.5s-3.3-4.7-4-5.8c0 0-0.4 2.5 0.7 4.7c0 0-3.4-5.6-3.9-10.9c0 0-1.1 1.2-0.4 4.8c0 0-2.6-5.9-2-10 c0 0-1.1 0.9-0.6 6.1c0 0-8.7-22.9 8.1-36.3C80 68.9 89.6 67 91 66.5c0 0 0 0 0.1 0c1-0.4 3.7-4.7 9.1-5c0 0-2.5 1-3.2 3.1 c0 0 3.9-2.9 7.1-2.8c0 0-0.8 0.1-2.1 1.8c0 0 7.4-1.2 10.7 0.1c3.3 1.3 5.7 4.9 6.9 9c0 0 0 0.1 0 0.1c0.1 0.1 0.2 0.1 0.3 0.2 c1.4 1 2.4 2.8 3.1 4.9c1.4 4.3 1.6 9.9 1.6 11.9c0 0.8-0.1 1.7-0.1 2.7c0 0 0 0 0 0l0.2 0l0.2 0.4c0 0-0.2 0-0.4 0 c0 2.5 0.6 5.3 4.3 7c0.5 0.2 0.9 0.3 1.3 0.5c4.9 2.1 8.4 5.9 9.4 7.1c0.2 0.2 0.8 0.4 1 0.6c0 0 3.3 1.4 3.3 3.6 c0 0.3 0 0.6-0.2 0.8c0 0 0 0 0 0.1c0 0-0.2 0.4-0.6 0.8c-0.5 0.5-1.2 0.9-1.9 1c-0.2 0.1-0.3 0.1-0.3 0.1"/><path fill="#8A8A8A" d="M101.2 101.8c-0.1 0-0.3 0-0.4 0C101 101.8 101.1 101.8 101.2 101.8z"/><path fill="#EFEEEE" d="M100.8 101.8c-1.5-0.1-5.8-1.5-12 3.1L100.8 101.8z"/><path fill="#C8C8C8" d="M89.6 103.2c0 0-0.1-6.2 5.5-6.3c5.6-0.2 5.6 4.1 5.6 4.1l-4.4 0.2l-4.5 1.4l-1.9 1 C89.9 103.6 89.6 103.4 89.6 103.2z"/><path fill="#797979" d="M88.5 105.3c0 0 2.3-6.2 10.1-5.2c3.3 0.6 3.7 1.9 3.7 1.9s-0.1 0.3-0.6 0.1c-0.6-0.1-7.4-1.9-12.7 3.2 C89 105.3 88.7 105.6 88.5 105.3z"/></svg>