<svg xmlns="http://www.w3.org/2000/svg" viewBox="0 0 328.9 70.3"><path d="M0 0v70.3h328.9V0H0zm326.4 67.7H2.6V2.6h323.8v65.1z"/><path d="M30.3 33.9h2.2V20.7h5.2v-1.9H25.1v1.9h5.2zM44.9 27.3h8.4v6.6h2.2V18.8h-2.2v6.6h-8.4v-6.6h-2.2v15.1h2.2zM70.5 32h-6.6v-4.7h6.2v-2h-6.2v-4.6h6.4v-1.9h-8.6v15.1h8.8zM89.6 34.1l5-12.4 5 12.4h.4l6.2-15.3H104l-4.1 10.4-4.2-10.4h-2.1l-4.2 10.4-4.1-10.4h-2.2l6.1 15.3zM112.9 27.3h8.5v6.6h2.2V18.8h-2.2v6.6h-8.5v-6.6h-2.1v15.1h2.1zM129.8 18.8h2.2v15.1h-2.2zM142.2 33.9h2.1V20.7h5.3v-1.9h-12.7v1.9h5.3zM163.3 32h-6.6v-4.7h6.2v-2h-6.2v-4.6h6.4v-1.9h-8.6v15.1h8.8zM185.1 34.1c2.4 0 4-.6 5.5-1.3v-2.4c-1.7 1.1-3.6 1.7-5.3 1.7-3.6 0-6.1-2.4-6.1-5.8 0-3.3 2.6-5.8 6-5.8 1.8 0 3.4.5 5.2 1.6v-2.3c-2.1-.9-3.6-1.2-5.2-1.2-4.8 0-8.3 3.4-8.3 8 0 3.2 2.5 7.5 8.2 7.5zM203.5 34.1c5.1 0 8.2-3.7 8.2-7.8 0-4.2-3.2-7.8-8.1-7.8-4.9 0-8.1 3.6-8.1 7.8-.1 4.2 3.1 7.8 8 7.8zm.1-13.5c3.4 0 5.9 2.4 5.9 5.8 0 3.3-2.5 5.8-5.9 5.8-3.4 0-5.9-2.5-5.9-5.8 0-3.4 2.5-5.8 5.9-5.8zM219.4 22.1l4.7 5.9h.3l4.7-5.9h.1v11.8h2.1V18.8h-2l-5 6.2-5-6.2h-2.1v15.1h2.2zM240.4 27.4h2.3c3.5 0 5.1-1.9 5.1-4.2 0-2.4-1.5-4.4-4.8-4.4h-4.7v15.1h2.2v-6.5zm0-6.7h2.6c2 0 2.6 1.2 2.6 2.3 0 1.5-1 2.4-2.7 2.4h-2.5v-4.7zM255 29.5h6.4l2 4.5h2.2l-6.8-15.2h-1.5L250.8 34h2.2l2-4.5zm3.1-7.5l2.4 5.5h-4.7l2.3-5.5zM272.2 22.3l10.2 11.6h1.8V18.8h-2v11.7l-10.3-11.7h-1.7v15.1h2zM294.4 33.9h2.1v-8l5.7-7.1h-2.7l-4.1 5.2-4-5.2h-2.6l5.6 7.1zM137.6 51.3h-3v-5.7h-1.4v7h4.3v-1.3zM143.2 49c0 2 1.6 3.6 3.7 3.6 2.5 0 3.8-1.8 3.8-3.6 0-2.1-1.6-3.6-3.8-3.6-2 0-3.7 1.6-3.7 3.6zm6.1 0c0 1.3-1 2.3-2.4 2.3s-2.3-1-2.3-2.3 1-2.3 2.3-2.3c1.5 0 2.4 1 2.4 2.3zM160.5 45.5v4.7c-.6-.7-4.1-4.7-4.1-4.7l-.9-.1h-.2v7h1.3v-4.7c.6.7 4 4.6 4 4.6l1 .1h.2v-7h-1.3zM173.3 49c0-1.7-1.2-3.5-3.7-3.5H166.8v7h2.8c2.4 0 3.7-1.8 3.7-3.5zm-5.1 2.3v-4.5h1.2c1.5 0 2.5.8 2.5 2.2 0 .8-.5 2.2-2.4 2.2 0 .1-1 .1-1.3.1zM181.6 45.4c-2.1 0-3.7 1.5-3.7 3.6 0 2 1.6 3.6 3.7 3.6 2.5 0 3.8-1.8 3.8-3.6 0-2.1-1.6-3.6-3.8-3.6zm0 5.9c-1.4 0-2.3-1-2.3-2.3s1-2.3 2.3-2.3c1.4 0 2.4 1 2.4 2.3s-1 2.3-2.4 2.3zM189.9 45.5v7h1.3v-4.7c.6.7 4 4.6 4 4.6l1 .1h.2v-7h-1.3v4.7c-.6-.7-4.1-4.7-4.1-4.7l-.9-.1h-.2z"/></svg>