<svg xmlns="http://www.w3.org/2000/svg" viewBox="0 0 328.9 70.3"><path d="M0 0v70.3h328.9V0H0z M326.4 67.7H2.6V2.6h323.8V67.7z"/><polygon points="30.3,33.9 32.5,33.9 32.5,20.7 37.7,20.7 37.7,18.8 25.1,18.8 25.1,20.7 30.3,20.7"/><polygon points="44.9,27.3 53.3,27.3 53.3,33.9 55.5,33.9 55.5,18.8 53.3,18.8 53.3,25.4 44.9,25.4 44.9,18.8 42.7,18.8 42.7,33.9 44.9,33.9"/><polygon points="70.5,32 63.9,32 63.9,27.3 70.1,27.3 70.1,25.3 63.9,25.3 63.9,20.7 70.3,20.7 70.3,18.8 61.7,18.8 61.7,33.9 70.5,33.9"/><polygon points="89.6,34.1 94.6,21.7 99.6,34.1 100,34.1 106.2,18.8 104,18.8 99.9,29.2 95.7,18.8 93.6,18.8 89.4,29.2 85.3,18.8 83.1,18.8 89.2,34.1"/><polygon points="112.9,27.3 121.4,27.3 121.4,33.9 123.6,33.9 123.6,18.8 121.4,18.8 121.4,25.4 112.9,25.4 112.9,18.8 110.8,18.8 110.8,33.9 112.9,33.9"/><rect x="129.8" y="18.8" width="2.2" height="15.1"/><polygon points="142.2,33.9 144.3,33.9 144.3,20.7 149.6,20.7 149.6,18.8 136.9,18.8 136.9,20.7 142.2,20.7"/><polygon points="163.3,32 156.7,32 156.7,27.3 162.9,27.3 162.9,25.3 156.7,25.3 156.7,20.7 163.1,20.7 163.1,18.8 154.5,18.8 154.5,33.9 163.3,33.9"/><path d="M185.1 34.1c2.4 0 4-0.6 5.5-1.3v-2.4c-1.7 1.1-3.6 1.7-5.3 1.7c-3.6 0-6.1-2.4-6.1-5.8c0-3.3 2.6-5.8 6-5.8 c1.8 0 3.4 0.5 5.2 1.6v-2.3c-2.1-0.9-3.6-1.2-5.2-1.2c-4.8 0-8.3 3.4-8.3 8C176.9 29.8 179.4 34.1 185.1 34.1z"/><path d="M203.5 34.1c5.1 0 8.2-3.7 8.2-7.8c0-4.2-3.2-7.8-8.1-7.8c-4.9 0-8.1 3.6-8.1 7.8C195.4 30.5 198.6 34.1 203.5 34.1z M203.6 20.6c3.4 0 5.9 2.4 5.9 5.8c0 3.3-2.5 5.8-5.9 5.8c-3.4 0-5.9-2.5-5.9-5.8C197.7 23 200.2 20.6 203.6 20.6z"/><polygon points="219.4,22.1 219.4,22.1 224.1,28 224.4,28 229.1,22.1 229.2,22.1 229.2,33.9 231.3,33.9 231.3,18.8 229.3,18.8 224.3,25 219.3,18.8 217.2,18.8 217.2,33.9 219.4,33.9"/><path d="M240.4 27.4h2.3c3.5 0 5.1-1.9 5.1-4.2c0-2.4-1.5-4.4-4.8-4.4h-4.7v15.1h2.2V27.4z M240.4 20.7h2.6c2 0 2.6 1.2 2.6 2.3 c0 1.5-1 2.4-2.7 2.4h-2.5V20.7z"/><path d="M255 29.5h6.4l2 4.5h2.2l-6.8-15.2h-1.5l-6.5 15.2h2.2L255 29.5z M258.1 22l2.4 5.5h-4.7L258.1 22z"/><polygon points="272.2,22.3 282.4,33.9 284.2,33.9 284.2,18.8 282.2,18.8 282.2,30.5 271.9,18.8 270.2,18.8 270.2,33.9 272.2,33.9"/><polygon points="294.4,33.9 296.5,33.9 296.5,25.9 302.2,18.8 299.5,18.8 295.4,24 291.4,18.8 288.8,18.8 294.4,25.9"/><path d="M137.6 51.3c0 0-2.6 0-3 0c0-0.4 0-5.7 0-5.7h-0.2h-1.2v7h4.3V51.3z"/><path d="M143.2 49c0 2 1.6 3.6 3.7 3.6c2.5 0 3.8-1.8 3.8-3.6c0-2.1-1.6-3.6-3.8-3.6C144.9 45.4 143.2 47 143.2 49z M149.3 49 c0 1.3-1 2.3-2.4 2.3c-1.4 0-2.3-1-2.3-2.3s1-2.3 2.3-2.3C148.4 46.7 149.3 47.7 149.3 49z"/><path d="M160.5 45.5c0 0 0 3.8 0 4.7c-0.6-0.7-4.1-4.7-4.1-4.7l-0.9-0.1h-0.2v7h1.3c0 0 0-3.8 0-4.7c0.6 0.7 4 4.6 4 4.6l1 0.1h0.2 v-7h-0.2H160.5z"/><path d="M173.3 49c0-1.7-1.2-3.5-3.7-3.5h-2.6h-0.2v7h2.8C172 52.5 173.3 50.7 173.3 49z M168.2 51.3c0-0.4 0-4.1 0-4.5 c0.3 0 1.2 0 1.2 0c1.5 0 2.5 0.8 2.5 2.2c0 0.8-0.5 2.2-2.4 2.2C169.5 51.3 168.5 51.3 168.2 51.3z"/><path d="M181.6 45.4c-2.1 0-3.7 1.5-3.7 3.6c0 2 1.6 3.6 3.7 3.6c2.5 0 3.8-1.8 3.8-3.6C185.4 46.9 183.8 45.4 181.6 45.4z M181.6 51.3c-1.4 0-2.3-1-2.3-2.3s1-2.3 2.3-2.3c1.4 0 2.4 1 2.4 2.3S183 51.3 181.6 51.3z"/><path d="M189.9 45.5v7h1.3c0 0 0-3.8 0-4.7c0.6 0.7 4 4.6 4 4.6l1 0.1h0.2v-7h-0.2h-1.1c0 0 0 3.8 0 4.7c-0.6-0.7-4.1-4.7-4.1-4.7 l-0.9-0.1H189.9z"/></svg>